<svg width="752" height="408" viewBox="0 0 752 408" fill="none" xmlns="http://www.w3.org/2000/svg">
<rect width="752" height="408" fill="#F9F9F9"/>
<rect x="109" y="65" width="182" height="86" rx="3" fill="#E4F5FF" stroke="#CBD5E0" stroke-width="2"/>
<rect x="461" y="65" width="182" height="86" rx="3" fill="#E4F5FF" stroke="#CBD5E0" stroke-width="2"/>
<rect x="109" y="161" width="182" height="86" rx="3" fill="#E4F5FF" stroke="#CBD5E0" stroke-width="2"/>
<rect x="109" y="257" width="182" height="86" rx="3" fill="#E4F5FF" stroke="#CBD5E0" stroke-width="2"/>
<rect x="461" y="161" width="182" height="86" rx="3" fill="#E4F5FF" stroke="#CBD5E0" stroke-width="2"/>
<rect x="460.5" y="256.5" width="183" height="87" rx="3.5" stroke="#CBD5E0" stroke-dasharray="1 1"/>
<path d="M266 284.5C266 284.781 265.75 285 265.5 285C265.219 285 265 284.781 265 284.5V278C265 277.75 265.219 277.5 265.5 277.5C265.75 277.5 266 277.75 266 278V284.5ZM268.5 284.5C268.5 284.781 268.25 285 268 285C267.719 285 267.5 284.781 267.5 284.5V278C267.5 277.75 267.719 277.5 268 277.5C268.25 277.5 268.5 277.75 268.5 278V284.5ZM271 284.5C271 284.781 270.75 285 270.5 285C270.219 285 270 284.781 270 284.5V278C270 277.75 270.219 277.5 270.5 277.5C270.75 277.5 271 277.75 271 278V284.5ZM270.906 272.781L272.062 274.5H274.25C274.656 274.5 275 274.844 275 275.25C275 275.688 274.656 276 274.25 276H274V285.5C274 286.906 272.875 288 271.5 288H264.5C263.094 288 262 286.906 262 285.5V276H261.75C261.312 276 261 275.688 261 275.25C261 274.844 261.312 274.5 261.75 274.5H263.906L265.062 272.781C265.375 272.312 265.938 272 266.531 272H269.438C270.031 272 270.594 272.312 270.906 272.781ZM265.719 274.5H270.25L269.656 273.625C269.625 273.562 269.531 273.5 269.438 273.5H266.531C266.438 273.5 266.344 273.562 266.312 273.625L265.719 274.5ZM263.5 285.5C263.5 286.062 263.938 286.5 264.5 286.5H271.5C272.031 286.5 272.5 286.062 272.5 285.5V276H263.5V285.5Z" fill="#DB2340"/>
<rect width="15" height="16" transform="translate(271 280)" fill="white" fill-opacity="0.01"/>
<g filter="url(#filter0_d_347_11906)">
<path fill-rule="evenodd" clip-rule="evenodd" d="M274.821 293.45C274.971 293.586 275.075 293.683 275.395 293.987C275.709 294.286 275.861 294.427 276 294.545C276.058 294.593 276.107 294.724 276.127 294.918C276.143 295.077 276.137 295.255 276.118 295.427C276.111 295.486 276.105 295.529 276.101 295.549C276.059 295.778 276.233 295.989 276.466 295.992C276.675 295.994 276.837 295.996 277.263 296.004C277.37 296.006 277.37 296.006 277.477 296.008C278.638 296.028 279.23 296.022 279.656 295.969C280.11 295.912 280.578 295.363 280.983 294.674C281.326 295.283 281.802 295.879 282.282 295.956C282.435 295.98 282.619 295.988 282.833 295.983C282.993 295.979 283.162 295.969 283.332 295.954C283.461 295.942 283.563 295.931 283.624 295.923C283.85 295.893 283.998 295.671 283.937 295.451C283.924 295.404 283.903 295.317 283.882 295.207C283.858 295.08 283.84 294.956 283.832 294.843C283.827 294.771 283.826 294.706 283.829 294.65C283.835 294.553 283.837 294.498 283.839 294.371C283.84 294.324 283.84 294.324 283.842 294.283C283.847 294.148 283.865 294.02 283.924 293.741C283.949 293.62 284.071 293.388 284.263 293.101C284.321 293.015 284.383 292.926 284.45 292.834C284.578 292.659 284.714 292.482 284.851 292.313C284.933 292.212 284.997 292.136 285.032 292.095C285.328 291.671 285.644 290.976 285.76 290.57C285.872 290.179 285.961 289.46 286.016 288.754C286.046 288.353 286.057 288.03 286.057 287.523C286.057 287.434 286.057 287.434 286.057 287.36C286.057 287.24 286.057 287.195 286.057 287.138C286.056 286.985 286.051 286.833 286.037 286.444C286.005 285.631 285.559 285.105 284.902 285.003C284.343 284.917 283.662 285.381 283.662 285.381C283.662 285.381 283.511 284.858 283.409 284.697C283.242 284.438 282.814 284.107 282.487 284.043C282.151 283.977 281.752 283.985 281.385 284.049C281.065 284.107 280.745 284.393 280.56 284.702C280.428 284.923 280.552 284.691 280.42 284.463C280.237 284.149 279.811 283.867 279.405 283.784C279.061 283.713 278.667 283.74 278.307 283.847C277.844 283.986 277.77 284.338 277.752 284.237C277.69 283.899 277.685 283.921 277.646 283.68C277.504 282.785 277.344 282.165 277.102 281.625C277.116 281.656 277.013 281.422 276.976 281.342C276.912 281.203 276.847 281.077 276.776 280.955C276.558 280.582 276.307 280.302 275.993 280.143C275.447 279.867 274.63 280.001 274.242 280.454C273.857 280.903 273.793 281.655 273.89 282.586C273.927 282.947 274.057 283.606 274.174 284.094C274.216 284.263 274.252 284.417 274.319 284.702C274.331 284.751 274.331 284.751 274.342 284.799C274.394 285.015 274.439 285.192 274.494 285.387C274.488 285.367 274.591 285.731 274.612 285.812C274.62 285.839 274.62 285.839 274.627 285.866C274.668 286.02 274.708 286.185 274.77 286.462C274.804 286.614 274.837 286.777 274.87 286.949C274.959 287.419 274.959 287.321 274.874 287.221C274.815 287.152 274.759 287.089 274.705 287.031C274.606 286.923 274.514 286.834 274.427 286.763C273.792 286.244 273.404 286.015 272.87 285.964C271.995 285.88 271.164 286.499 271.039 287.333C270.962 287.845 270.987 288.08 271.224 288.533C271.354 288.777 271.574 289.072 271.985 289.58C272.01 289.611 272.01 289.611 272.036 289.642C272.54 290.264 272.595 290.333 272.715 290.507C273.04 290.978 273.829 292.329 273.973 292.51L274.821 293.45Z" fill="black"/>
</g>
<path fill-rule="evenodd" clip-rule="evenodd" d="M272.618 289.169C272.593 289.139 272.593 289.139 272.568 289.108C272.191 288.642 271.984 288.365 271.887 288.182C271.734 287.89 271.726 287.811 271.781 287.444C271.845 287.012 272.312 286.664 272.799 286.711C273.136 286.743 273.43 286.916 273.952 287.344C274.009 287.39 274.077 287.456 274.155 287.541C274.201 287.591 274.25 287.646 274.303 287.708C274.383 287.801 274.65 288.128 274.611 288.081C274.669 288.151 274.711 288.205 274.758 288.271C274.852 288.406 274.905 288.48 274.977 288.576C274.943 288.531 275.192 288.874 275.244 288.924C275.523 289.19 275.926 288.966 275.901 288.612C275.897 288.553 275.883 288.489 275.854 288.377C275.739 287.558 275.699 287.295 275.607 286.81C275.573 286.63 275.538 286.459 275.502 286.298C275.437 286.012 275.395 285.838 275.352 285.673C275.344 285.644 275.344 285.644 275.336 285.616C275.313 285.531 275.209 285.161 275.216 285.186C275.165 285.001 275.121 284.832 275.072 284.624C275.06 284.577 275.06 284.577 275.049 284.529C274.983 284.246 274.945 284.088 274.903 283.916C274.793 283.461 274.669 282.829 274.636 282.509C274.56 281.784 274.612 281.174 274.812 280.942C274.967 280.76 275.408 280.688 275.654 280.812C275.815 280.894 275.976 281.074 276.129 281.334C276.186 281.433 276.24 281.538 276.296 281.658C276.329 281.73 276.429 281.956 276.418 281.931C276.628 282.401 276.772 282.962 276.905 283.798C276.945 284.045 276.994 284.326 277.056 284.669C277.075 284.771 277.075 284.771 277.093 284.872C277.395 286.508 277.373 286.384 277.377 286.514C277.393 286.99 278.095 287.001 278.126 286.526C278.136 286.375 278.132 286.241 278.115 285.855C278.112 285.8 278.112 285.8 278.11 285.746C278.095 285.39 278.096 285.185 278.117 285.068C278.155 284.856 278.346 284.618 278.521 284.566C278.768 284.493 279.038 284.474 279.254 284.519C279.461 284.561 279.703 284.721 279.772 284.84C279.855 284.984 279.927 285.203 279.982 285.475C280.026 285.694 280.057 285.93 280.078 286.181C280.085 286.259 280.089 286.32 280.096 286.42C280.099 286.462 280.099 286.462 280.102 286.496C280.103 286.513 280.103 286.513 280.107 286.541C280.11 286.56 280.11 286.56 280.124 286.608C280.132 286.746 280.132 286.746 280.685 286.797C280.851 286.598 280.851 286.598 280.846 286.563C280.873 286.444 280.89 286.312 280.913 286.064C280.928 285.903 280.936 285.824 280.945 285.742C280.982 285.402 281.028 285.186 281.085 285.091C281.156 284.972 281.405 284.808 281.517 284.788C281.797 284.738 282.105 284.733 282.343 284.779C282.451 284.8 282.714 285.003 282.776 285.1C282.904 285.302 283.028 285.951 283.098 286.596C283.087 286.638 283.087 286.638 283.259 286.884C283.849 286.816 283.849 286.816 283.832 286.71C283.848 286.672 283.86 286.628 283.878 286.56C283.92 286.4 283.948 286.307 283.99 286.203C284.019 286.132 284.049 286.07 284.08 286.021C284.201 285.831 284.513 285.702 284.787 285.744C285.081 285.79 285.269 286.011 285.287 286.473C285.302 286.854 285.306 287 285.307 287.144C285.307 287.197 285.307 287.239 285.307 287.359C285.307 287.433 285.307 287.433 285.307 287.523C285.307 288.012 285.296 288.316 285.268 288.697C285.217 289.35 285.132 290.04 285.039 290.364C284.945 290.694 284.663 291.315 284.439 291.637C284.424 291.653 284.356 291.734 284.269 291.841C284.124 292.019 283.98 292.206 283.844 292.392C283.771 292.492 283.703 292.589 283.64 292.683C283.397 293.047 283.24 293.344 283.19 293.587C283.123 293.904 283.099 294.072 283.092 294.254C283.091 294.305 283.091 294.305 283.089 294.355C283.087 294.473 283.085 294.521 283.08 294.607C283.075 294.698 283.077 294.794 283.084 294.896C283.094 295.042 283.084 295.242 283.084 295.242C283.084 295.242 282.957 295.23 282.816 295.233C282.644 295.237 282.5 295.231 282.401 295.215C282.258 295.192 281.872 294.709 281.674 294.332C281.372 293.756 280.638 293.784 280.337 294.293C280.066 294.755 279.677 295.21 279.562 295.225C279.187 295.272 278.607 295.277 277.49 295.258C277.383 295.256 277.383 295.256 277.277 295.254C276.848 295.247 276.864 295.319 276.873 295.242C276.898 295.021 276.895 295.063 276.873 294.842C276.836 294.473 276.722 294.172 276.484 293.972C276.362 293.868 276.215 293.731 275.919 293.451C275.582 293.13 275.477 293.031 275.346 292.917L274.545 292.026C274.457 291.914 273.685 290.592 273.333 290.081C273.195 289.882 273.144 289.818 272.618 289.169ZM282.127 289.173V292.632C282.127 293.132 282.877 293.132 282.877 292.632V289.173C282.877 288.673 282.127 288.673 282.127 289.173ZM280.095 289.173L280.111 292.646C280.113 293.146 280.863 293.142 280.861 292.642L280.845 289.169C280.843 288.669 280.093 288.673 280.095 289.173ZM278.886 292.626L278.865 289.2C278.862 288.7 278.112 288.705 278.115 289.205L278.136 292.631C278.139 293.131 278.889 293.126 278.886 292.626Z" fill="white"/>
<path d="M274.557 276L276 277.443L277.443 276L276 274.557L274.557 276ZM460.177 276.177C460.274 276.079 460.274 275.921 460.177 275.823L458.586 274.232C458.488 274.135 458.33 274.135 458.232 274.232C458.135 274.33 458.135 274.488 458.232 274.586L459.646 276L458.232 277.414C458.135 277.512 458.135 277.67 458.232 277.768C458.33 277.865 458.488 277.865 458.586 277.768L460.177 276.177ZM276 276.25L460 276.25L460 275.75L276 275.75L276 276.25Z" fill="#141415"/>
<path d="M308.54 301V290.024H314.316C315.063 290.024 315.681 290.163 316.172 290.44C316.673 290.707 317.047 291.085 317.292 291.576C317.537 292.056 317.66 292.611 317.66 293.24C317.66 293.997 317.489 294.648 317.148 295.192C316.807 295.736 316.337 296.125 315.74 296.36L318.044 301H316.38L314.236 296.632H310.06V301H308.54ZM310.06 295.336H314.172C314.78 295.336 315.255 295.149 315.596 294.776C315.948 294.403 316.124 293.891 316.124 293.24C316.124 292.835 316.049 292.493 315.9 292.216C315.751 291.939 315.532 291.725 315.244 291.576C314.956 291.416 314.599 291.336 314.172 291.336H310.06V295.336ZM323.097 301.192C322.265 301.192 321.561 301.037 320.985 300.728C320.419 300.408 319.987 299.923 319.689 299.272C319.401 298.621 319.257 297.795 319.257 296.792C319.257 295.779 319.401 294.952 319.689 294.312C319.987 293.661 320.425 293.181 321.001 292.872C321.577 292.552 322.297 292.392 323.161 292.392C323.95 292.392 324.611 292.547 325.145 292.856C325.678 293.155 326.078 293.608 326.345 294.216C326.622 294.813 326.761 295.565 326.761 296.472V297.144H320.713C320.734 297.816 320.83 298.371 321.001 298.808C321.182 299.235 321.449 299.549 321.801 299.752C322.153 299.944 322.595 300.04 323.129 300.04C323.491 300.04 323.806 299.997 324.073 299.912C324.35 299.816 324.579 299.683 324.761 299.512C324.953 299.341 325.097 299.139 325.193 298.904C325.289 298.669 325.342 298.413 325.353 298.136H326.729C326.718 298.584 326.633 299 326.473 299.384C326.313 299.757 326.078 300.077 325.769 300.344C325.459 300.611 325.081 300.819 324.633 300.968C324.185 301.117 323.673 301.192 323.097 301.192ZM320.745 296.088H325.305C325.305 295.619 325.251 295.224 325.145 294.904C325.038 294.584 324.883 294.323 324.681 294.12C324.489 293.917 324.259 293.773 323.993 293.688C323.737 293.592 323.443 293.544 323.113 293.544C322.622 293.544 322.206 293.635 321.865 293.816C321.523 293.997 321.262 294.275 321.081 294.648C320.899 295.021 320.787 295.501 320.745 296.088ZM328.502 301V292.584H329.638L329.766 293.848H329.878C330.092 293.507 330.332 293.229 330.598 293.016C330.865 292.803 331.158 292.648 331.478 292.552C331.798 292.445 332.145 292.392 332.518 292.392C333.062 292.392 333.532 292.504 333.926 292.728C334.321 292.941 334.614 293.315 334.806 293.848H334.902C335.105 293.507 335.34 293.235 335.606 293.032C335.873 292.819 336.172 292.659 336.502 292.552C336.833 292.445 337.185 292.392 337.558 292.392C338.07 292.392 338.518 292.483 338.902 292.664C339.286 292.835 339.585 293.123 339.798 293.528C340.022 293.923 340.134 294.456 340.134 295.128V301H338.726V295.352C338.726 295.011 338.684 294.728 338.598 294.504C338.524 294.28 338.412 294.109 338.262 293.992C338.113 293.864 337.937 293.773 337.734 293.72C337.542 293.667 337.334 293.64 337.11 293.64C336.737 293.64 336.39 293.736 336.07 293.928C335.761 294.12 335.51 294.397 335.318 294.76C335.126 295.123 335.03 295.555 335.03 296.056V301H333.622V295.352C333.622 295.011 333.58 294.728 333.494 294.504C333.409 294.28 333.297 294.109 333.158 293.992C333.02 293.864 332.849 293.773 332.646 293.72C332.454 293.667 332.252 293.64 332.038 293.64C331.654 293.64 331.297 293.736 330.966 293.928C330.646 294.12 330.39 294.397 330.198 294.76C330.006 295.123 329.91 295.555 329.91 296.056V301H328.502ZM345.724 301.192C344.871 301.192 344.151 301.037 343.564 300.728C342.988 300.408 342.545 299.923 342.236 299.272C341.937 298.621 341.788 297.795 341.788 296.792C341.788 295.779 341.937 294.952 342.236 294.312C342.545 293.661 342.988 293.181 343.564 292.872C344.151 292.552 344.871 292.392 345.724 292.392C346.577 292.392 347.292 292.552 347.868 292.872C348.455 293.181 348.897 293.661 349.196 294.312C349.495 294.952 349.644 295.779 349.644 296.792C349.644 297.795 349.495 298.621 349.196 299.272C348.897 299.923 348.455 300.408 347.868 300.728C347.292 301.037 346.577 301.192 345.724 301.192ZM345.724 300.008C346.268 300.008 346.721 299.901 347.084 299.688C347.447 299.475 347.719 299.144 347.9 298.696C348.092 298.237 348.188 297.661 348.188 296.968V296.616C348.188 295.912 348.092 295.336 347.9 294.888C347.719 294.44 347.447 294.109 347.084 293.896C346.721 293.683 346.268 293.576 345.724 293.576C345.18 293.576 344.721 293.683 344.348 293.896C343.985 294.109 343.713 294.44 343.532 294.888C343.351 295.336 343.26 295.912 343.26 296.616V296.968C343.26 297.661 343.351 298.237 343.532 298.696C343.713 299.144 343.985 299.475 344.348 299.688C344.721 299.901 345.18 300.008 345.724 300.008ZM353.539 301L350.419 292.584H351.891L353.427 296.792C353.502 296.995 353.587 297.251 353.683 297.56C353.779 297.859 353.875 298.168 353.971 298.488C354.078 298.797 354.163 299.075 354.227 299.32H354.307C354.382 299.085 354.467 298.813 354.563 298.504C354.659 298.184 354.755 297.875 354.851 297.576C354.958 297.267 355.048 297.005 355.123 296.792L356.643 292.584H358.067L354.947 301H353.539ZM362.659 301.192C361.827 301.192 361.123 301.037 360.547 300.728C359.982 300.408 359.55 299.923 359.251 299.272C358.963 298.621 358.819 297.795 358.819 296.792C358.819 295.779 358.963 294.952 359.251 294.312C359.55 293.661 359.987 293.181 360.563 292.872C361.139 292.552 361.859 292.392 362.723 292.392C363.513 292.392 364.174 292.547 364.707 292.856C365.241 293.155 365.641 293.608 365.907 294.216C366.185 294.813 366.323 295.565 366.323 296.472V297.144H360.275C360.297 297.816 360.393 298.371 360.563 298.808C360.745 299.235 361.011 299.549 361.363 299.752C361.715 299.944 362.158 300.04 362.691 300.04C363.054 300.04 363.369 299.997 363.635 299.912C363.913 299.816 364.142 299.683 364.323 299.512C364.515 299.341 364.659 299.139 364.755 298.904C364.851 298.669 364.905 298.413 364.915 298.136H366.291C366.281 298.584 366.195 299 366.035 299.384C365.875 299.757 365.641 300.077 365.331 300.344C365.022 300.611 364.643 300.819 364.195 300.968C363.747 301.117 363.235 301.192 362.659 301.192ZM360.307 296.088H364.867C364.867 295.619 364.814 295.224 364.707 294.904C364.601 294.584 364.446 294.323 364.243 294.12C364.051 293.917 363.822 293.773 363.555 293.688C363.299 293.592 363.006 293.544 362.675 293.544C362.185 293.544 361.769 293.635 361.427 293.816C361.086 293.997 360.825 294.275 360.643 294.648C360.462 295.021 360.35 295.501 360.307 296.088ZM373.521 301.192C373.211 301.192 372.902 301.155 372.593 301.08C372.283 301.005 371.995 300.883 371.729 300.712C371.462 300.541 371.249 300.307 371.089 300.008C370.929 299.699 370.849 299.315 370.849 298.856C370.849 298.28 370.987 297.805 371.265 297.432C371.542 297.059 371.926 296.771 372.417 296.568C372.918 296.355 373.51 296.211 374.193 296.136C374.875 296.051 375.617 296.008 376.417 296.008V295.048C376.417 294.739 376.363 294.472 376.257 294.248C376.15 294.024 375.958 293.853 375.681 293.736C375.414 293.608 375.03 293.544 374.529 293.544C374.049 293.544 373.665 293.608 373.377 293.736C373.099 293.853 372.902 294.008 372.785 294.2C372.678 294.392 372.625 294.605 372.625 294.84V295.08H371.265C371.254 295.027 371.249 294.973 371.249 294.92C371.249 294.867 371.249 294.803 371.249 294.728C371.249 294.216 371.387 293.789 371.665 293.448C371.953 293.096 372.353 292.835 372.865 292.664C373.377 292.483 373.963 292.392 374.625 292.392C375.329 292.392 375.915 292.493 376.385 292.696C376.865 292.899 377.222 293.187 377.457 293.56C377.702 293.933 377.825 294.381 377.825 294.904V299.464C377.825 299.667 377.873 299.811 377.969 299.896C378.065 299.971 378.182 300.008 378.321 300.008H378.945V300.936C378.795 301 378.63 301.053 378.449 301.096C378.267 301.149 378.059 301.176 377.825 301.176C377.547 301.176 377.318 301.117 377.137 301C376.955 300.893 376.817 300.744 376.721 300.552C376.625 300.349 376.561 300.125 376.529 299.88H376.417C376.225 300.147 375.979 300.381 375.681 300.584C375.393 300.776 375.067 300.925 374.705 301.032C374.342 301.139 373.947 301.192 373.521 301.192ZM373.873 300.008C374.214 300.008 374.534 299.955 374.833 299.848C375.142 299.741 375.414 299.592 375.649 299.4C375.883 299.197 376.07 298.957 376.209 298.68C376.347 298.403 376.417 298.099 376.417 297.768V297.064C375.553 297.064 374.817 297.112 374.209 297.208C373.601 297.304 373.131 297.475 372.801 297.72C372.481 297.965 372.321 298.312 372.321 298.76C372.321 299.048 372.385 299.283 372.513 299.464C372.641 299.645 372.822 299.784 373.057 299.88C373.291 299.965 373.563 300.008 373.873 300.008ZM388.927 303.768V299.944H388.831C388.639 300.232 388.41 300.472 388.143 300.664C387.887 300.845 387.599 300.979 387.279 301.064C386.959 301.149 386.623 301.192 386.271 301.192C385.621 301.192 385.05 301.037 384.559 300.728C384.069 300.419 383.685 299.944 383.407 299.304C383.13 298.653 382.991 297.837 382.991 296.856C382.991 295.811 383.125 294.963 383.391 294.312C383.669 293.651 384.053 293.165 384.543 292.856C385.045 292.547 385.642 292.392 386.335 292.392C386.901 292.392 387.407 292.509 387.855 292.744C388.303 292.968 388.671 293.315 388.959 293.784H389.071L389.199 292.584H390.335V303.768H388.927ZM386.719 299.96C387.029 299.96 387.317 299.912 387.583 299.816C387.85 299.72 388.079 299.555 388.271 299.32C388.474 299.085 388.634 298.776 388.751 298.392C388.869 297.997 388.927 297.507 388.927 296.92V296.68C388.927 296.019 388.847 295.459 388.687 295C388.538 294.541 388.298 294.2 387.967 293.976C387.637 293.741 387.205 293.624 386.671 293.624C386.191 293.624 385.786 293.72 385.455 293.912C385.135 294.104 384.89 294.424 384.719 294.872C384.549 295.309 384.463 295.896 384.463 296.632V296.968C384.463 297.661 384.543 298.232 384.703 298.68C384.863 299.117 385.109 299.443 385.439 299.656C385.77 299.859 386.197 299.96 386.719 299.96ZM395.157 301.192C394.347 301.192 393.696 300.984 393.205 300.568C392.715 300.152 392.469 299.427 392.469 298.392V292.584H393.877V298.2C393.877 298.552 393.92 298.84 394.005 299.064C394.091 299.288 394.213 299.464 394.373 299.592C394.533 299.72 394.72 299.811 394.933 299.864C395.157 299.917 395.397 299.944 395.653 299.944C396.059 299.944 396.432 299.848 396.773 299.656C397.115 299.464 397.392 299.187 397.605 298.824C397.829 298.451 397.941 298.019 397.941 297.528V292.584H399.349V301H398.213L398.085 299.736H397.973C397.749 300.077 397.493 300.355 397.205 300.568C396.928 300.781 396.613 300.936 396.261 301.032C395.92 301.139 395.552 301.192 395.157 301.192ZM404.894 301.192C404.062 301.192 403.358 301.037 402.782 300.728C402.216 300.408 401.784 299.923 401.486 299.272C401.198 298.621 401.054 297.795 401.054 296.792C401.054 295.779 401.198 294.952 401.486 294.312C401.784 293.661 402.222 293.181 402.798 292.872C403.374 292.552 404.094 292.392 404.958 292.392C405.747 292.392 406.408 292.547 406.942 292.856C407.475 293.155 407.875 293.608 408.142 294.216C408.419 294.813 408.558 295.565 408.558 296.472V297.144H402.51C402.531 297.816 402.627 298.371 402.798 298.808C402.979 299.235 403.246 299.549 403.598 299.752C403.95 299.944 404.392 300.04 404.926 300.04C405.288 300.04 405.603 299.997 405.87 299.912C406.147 299.816 406.376 299.683 406.558 299.512C406.75 299.341 406.894 299.139 406.99 298.904C407.086 298.669 407.139 298.413 407.15 298.136H408.526C408.515 298.584 408.43 299 408.27 299.384C408.11 299.757 407.875 300.077 407.566 300.344C407.256 300.611 406.878 300.819 406.43 300.968C405.982 301.117 405.47 301.192 404.894 301.192ZM402.542 296.088H407.102C407.102 295.619 407.048 295.224 406.942 294.904C406.835 294.584 406.68 294.323 406.478 294.12C406.286 293.917 406.056 293.773 405.79 293.688C405.534 293.592 405.24 293.544 404.91 293.544C404.419 293.544 404.003 293.635 403.662 293.816C403.32 293.997 403.059 294.275 402.878 294.648C402.696 295.021 402.584 295.501 402.542 296.088ZM413.243 301.192C412.667 301.192 412.161 301.133 411.723 301.016C411.286 300.899 410.923 300.728 410.635 300.504C410.347 300.28 410.129 300.013 409.979 299.704C409.83 299.395 409.755 299.043 409.755 298.648C409.755 298.595 409.755 298.547 409.755 298.504C409.755 298.451 409.761 298.408 409.771 298.376H411.163C411.153 298.419 411.147 298.456 411.147 298.488C411.147 298.52 411.147 298.552 411.147 298.584C411.158 298.957 411.254 299.251 411.435 299.464C411.627 299.677 411.889 299.827 412.219 299.912C412.55 299.997 412.918 300.04 413.323 300.04C413.675 300.04 414.001 299.997 414.299 299.912C414.598 299.816 414.833 299.677 415.003 299.496C415.185 299.304 415.275 299.064 415.275 298.776C415.275 298.424 415.158 298.157 414.923 297.976C414.699 297.784 414.401 297.635 414.027 297.528C413.654 297.421 413.265 297.309 412.859 297.192C412.518 297.096 412.177 296.989 411.835 296.872C411.494 296.755 411.185 296.611 410.907 296.44C410.641 296.269 410.422 296.051 410.251 295.784C410.091 295.507 410.011 295.16 410.011 294.744C410.011 294.371 410.086 294.04 410.235 293.752C410.395 293.464 410.619 293.219 410.907 293.016C411.195 292.813 411.542 292.664 411.947 292.568C412.363 292.461 412.822 292.408 413.323 292.408C413.857 292.408 414.321 292.467 414.715 292.584C415.121 292.701 415.457 292.867 415.723 293.08C415.99 293.293 416.187 293.539 416.315 293.816C416.443 294.083 416.507 294.371 416.507 294.68C416.507 294.744 416.507 294.808 416.507 294.872C416.507 294.925 416.502 294.968 416.491 295H415.115V294.824C415.115 294.611 415.057 294.408 414.939 294.216C414.833 294.013 414.641 293.853 414.363 293.736C414.097 293.608 413.723 293.544 413.243 293.544C412.934 293.544 412.667 293.571 412.443 293.624C412.219 293.667 412.033 293.741 411.883 293.848C411.734 293.944 411.622 294.061 411.547 294.2C411.473 294.328 411.435 294.477 411.435 294.648C411.435 294.925 411.526 295.139 411.707 295.288C411.889 295.437 412.129 295.56 412.427 295.656C412.737 295.752 413.067 295.859 413.419 295.976C413.793 296.083 414.171 296.195 414.555 296.312C414.95 296.419 415.307 296.557 415.627 296.728C415.958 296.899 416.219 297.133 416.411 297.432C416.614 297.72 416.715 298.104 416.715 298.584C416.715 299.032 416.63 299.421 416.459 299.752C416.289 300.083 416.043 300.355 415.723 300.568C415.414 300.781 415.046 300.936 414.619 301.032C414.203 301.139 413.745 301.192 413.243 301.192ZM420.424 301.192C419.986 301.192 419.645 301.112 419.4 300.952C419.154 300.781 418.978 300.563 418.872 300.296C418.765 300.019 418.712 299.725 418.712 299.416V293.768H417.624V292.584H418.744L419 290.232H420.12V292.584H421.704V293.768H420.12V299.208C420.12 299.475 420.168 299.677 420.264 299.816C420.36 299.944 420.541 300.008 420.808 300.008H421.704V300.936C421.597 300.989 421.469 301.032 421.32 301.064C421.17 301.096 421.016 301.123 420.856 301.144C420.706 301.176 420.562 301.192 420.424 301.192ZM423.206 291V289.432H424.614V291H423.206ZM423.206 301V292.584H424.614V301H423.206ZM430.255 301.192C429.402 301.192 428.682 301.037 428.095 300.728C427.519 300.408 427.077 299.923 426.767 299.272C426.469 298.621 426.319 297.795 426.319 296.792C426.319 295.779 426.469 294.952 426.767 294.312C427.077 293.661 427.519 293.181 428.095 292.872C428.682 292.552 429.402 292.392 430.255 292.392C431.109 292.392 431.823 292.552 432.399 292.872C432.986 293.181 433.429 293.661 433.727 294.312C434.026 294.952 434.175 295.779 434.175 296.792C434.175 297.795 434.026 298.621 433.727 299.272C433.429 299.923 432.986 300.408 432.399 300.728C431.823 301.037 431.109 301.192 430.255 301.192ZM430.255 300.008C430.799 300.008 431.253 299.901 431.615 299.688C431.978 299.475 432.25 299.144 432.431 298.696C432.623 298.237 432.719 297.661 432.719 296.968V296.616C432.719 295.912 432.623 295.336 432.431 294.888C432.25 294.44 431.978 294.109 431.615 293.896C431.253 293.683 430.799 293.576 430.255 293.576C429.711 293.576 429.253 293.683 428.879 293.896C428.517 294.109 428.245 294.44 428.063 294.888C427.882 295.336 427.791 295.912 427.791 296.616V296.968C427.791 297.661 427.882 298.237 428.063 298.696C428.245 299.144 428.517 299.475 428.879 299.688C429.253 299.901 429.711 300.008 430.255 300.008ZM435.924 301V292.584H437.06L437.188 293.848H437.3C437.524 293.507 437.775 293.229 438.052 293.016C438.34 292.803 438.655 292.648 438.996 292.552C439.348 292.445 439.722 292.392 440.116 292.392C440.65 292.392 441.114 292.483 441.508 292.664C441.914 292.845 442.228 293.139 442.452 293.544C442.687 293.949 442.804 294.499 442.804 295.192V301H441.396V295.384C441.396 295.032 441.348 294.744 441.252 294.52C441.167 294.296 441.044 294.12 440.884 293.992C440.735 293.864 440.548 293.773 440.324 293.72C440.111 293.667 439.871 293.64 439.604 293.64C439.21 293.64 438.836 293.736 438.484 293.928C438.132 294.12 437.85 294.397 437.636 294.76C437.434 295.123 437.332 295.555 437.332 296.056V301H435.924ZM361.448 325.192C360.882 325.192 360.376 325.08 359.928 324.856C359.48 324.621 359.112 324.269 358.824 323.8H358.712L358.568 325H357.448V313.432H358.856V317.64H358.952C359.144 317.341 359.368 317.101 359.624 316.92C359.88 316.739 360.168 316.605 360.488 316.52C360.808 316.435 361.149 316.392 361.512 316.392C362.162 316.392 362.733 316.547 363.224 316.856C363.714 317.165 364.093 317.64 364.36 318.28C364.637 318.92 364.776 319.736 364.776 320.728C364.776 321.773 364.642 322.627 364.376 323.288C364.109 323.939 363.73 324.419 363.24 324.728C362.749 325.037 362.152 325.192 361.448 325.192ZM361.112 323.96C361.592 323.96 361.992 323.864 362.312 323.672C362.642 323.48 362.893 323.165 363.064 322.728C363.234 322.28 363.32 321.693 363.32 320.968V320.632C363.32 319.928 363.24 319.357 363.08 318.92C362.92 318.472 362.674 318.147 362.344 317.944C362.013 317.731 361.586 317.624 361.064 317.624C360.765 317.624 360.482 317.672 360.216 317.768C359.949 317.864 359.709 318.029 359.496 318.264C359.293 318.499 359.133 318.813 359.016 319.208C358.909 319.603 358.856 320.088 358.856 320.664V320.92C358.856 321.581 358.93 322.136 359.08 322.584C359.24 323.032 359.485 323.373 359.816 323.608C360.157 323.843 360.589 323.96 361.112 323.96ZM366.526 325V313.432H367.934V325H366.526ZM373.576 325.192C372.722 325.192 372.002 325.037 371.416 324.728C370.84 324.408 370.397 323.923 370.088 323.272C369.789 322.621 369.64 321.795 369.64 320.792C369.64 319.779 369.789 318.952 370.088 318.312C370.397 317.661 370.84 317.181 371.416 316.872C372.002 316.552 372.722 316.392 373.576 316.392C374.429 316.392 375.144 316.552 375.72 316.872C376.306 317.181 376.749 317.661 377.048 318.312C377.346 318.952 377.496 319.779 377.496 320.792C377.496 321.795 377.346 322.621 377.048 323.272C376.749 323.923 376.306 324.408 375.72 324.728C375.144 325.037 374.429 325.192 373.576 325.192ZM373.576 324.008C374.12 324.008 374.573 323.901 374.936 323.688C375.298 323.475 375.57 323.144 375.752 322.696C375.944 322.237 376.04 321.661 376.04 320.968V320.616C376.04 319.912 375.944 319.336 375.752 318.888C375.57 318.44 375.298 318.109 374.936 317.896C374.573 317.683 374.12 317.576 373.576 317.576C373.032 317.576 372.573 317.683 372.2 317.896C371.837 318.109 371.565 318.44 371.384 318.888C371.202 319.336 371.112 319.912 371.112 320.616V320.968C371.112 321.661 371.202 322.237 371.384 322.696C371.565 323.144 371.837 323.475 372.2 323.688C372.573 323.901 373.032 324.008 373.576 324.008ZM382.445 325.192C381.634 325.192 380.951 325.037 380.397 324.728C379.853 324.408 379.437 323.923 379.149 323.272C378.871 322.611 378.733 321.784 378.733 320.792C378.733 319.8 378.871 318.979 379.149 318.328C379.437 317.677 379.858 317.192 380.413 316.872C380.978 316.552 381.671 316.392 382.493 316.392C383.069 316.392 383.565 316.467 383.981 316.616C384.407 316.765 384.759 316.984 385.037 317.272C385.314 317.56 385.517 317.907 385.645 318.312C385.783 318.717 385.853 319.181 385.853 319.704H384.429C384.429 319.213 384.359 318.813 384.221 318.504C384.093 318.184 383.885 317.949 383.597 317.8C383.309 317.64 382.93 317.56 382.461 317.56C381.991 317.56 381.586 317.667 381.245 317.88C380.903 318.083 380.642 318.408 380.461 318.856C380.279 319.304 380.189 319.896 380.189 320.632V320.968C380.189 321.661 380.274 322.237 380.445 322.696C380.626 323.155 380.887 323.491 381.229 323.704C381.57 323.917 381.986 324.024 382.477 324.024C382.957 324.024 383.341 323.939 383.629 323.768C383.927 323.597 384.141 323.352 384.269 323.032C384.407 322.712 384.477 322.328 384.477 321.88H385.853C385.853 322.349 385.783 322.787 385.645 323.192C385.517 323.597 385.314 323.949 385.037 324.248C384.759 324.547 384.407 324.781 383.981 324.952C383.554 325.112 383.042 325.192 382.445 325.192ZM387.542 325V313.432H388.95V320.664L392.518 316.584H394.182L391.302 319.848L394.342 325H392.726L390.39 320.888L388.95 322.344V325H387.542Z" fill="#141415"/>
<defs>
<filter id="filter0_d_347_11906" x="269" y="279" width="19.0572" height="20.0184" filterUnits="userSpaceOnUse" color-interpolation-filters="sRGB">
<feFlood flood-opacity="0" result="BackgroundImageFix"/>
<feColorMatrix in="SourceAlpha" type="matrix" values="0 0 0 0 0 0 0 0 0 0 0 0 0 0 0 0 0 0 127 0" result="hardAlpha"/>
<feOffset dy="1"/>
<feGaussianBlur stdDeviation="1"/>
<feColorMatrix type="matrix" values="0 0 0 0 0 0 0 0 0 0 0 0 0 0 0 0 0 0 0.4 0"/>
<feBlend mode="normal" in2="BackgroundImageFix" result="effect1_dropShadow_347_11906"/>
<feBlend mode="normal" in="SourceGraphic" in2="effect1_dropShadow_347_11906" result="shape"/>
</filter>
</defs>
</svg>
