<svg width="752" height="408" viewBox="0 0 752 408" fill="none" xmlns="http://www.w3.org/2000/svg">
<rect width="752" height="408" fill="#F9F9F9"/>
<rect x="109" y="65" width="182" height="86" rx="3" fill="#E4F5FF" stroke="#CBD5E0" stroke-width="2"/>
<rect x="461" y="65" width="182" height="86" rx="3" fill="#E4F5FF" stroke="#CBD5E0" stroke-width="2"/>
<rect x="109" y="161" width="182" height="86" rx="3" fill="#E4F5FF" stroke="#CBD5E0" stroke-width="2"/>
<rect x="461" y="161" width="182" height="86" rx="3" fill="#E4F5FF" stroke="#CBD5E0" stroke-width="2"/>
<rect x="460" y="256" width="184" height="88" rx="4" fill="#CBD5E0"/>
<rect x="187" y="257" width="26" height="26" rx="3" fill="white"/>
<path d="M206.5 270C206.5 270.562 206.031 271.031 205.5 271.031H201V275.531C201 276.062 200.531 276.5 200 276.5C199.438 276.5 199 276.062 199 275.531V271.031H194.5C193.938 271.031 193.5 270.562 193.5 270C193.5 269.469 193.938 269.031 194.5 269.031H199V264.531C199 263.969 199.438 263.5 200 263.5C200.531 263.5 201 263.969 201 264.531V269.031H205.5C206.031 269 206.5 269.469 206.5 270Z" fill="#2A84EE"/>
<rect x="187" y="257" width="26" height="26" rx="3" stroke="#CBD5E0" stroke-width="2"/>
<rect width="15" height="16" transform="translate(206 270)" fill="white" fill-opacity="0.01"/>
<g filter="url(#filter0_d_347_11883)">
<path fill-rule="evenodd" clip-rule="evenodd" d="M209.821 283.45C209.971 283.586 210.075 283.683 210.395 283.987C210.709 284.286 210.861 284.427 211 284.545C211.058 284.593 211.107 284.724 211.127 284.918C211.143 285.077 211.137 285.255 211.118 285.427C211.111 285.486 211.105 285.529 211.101 285.549C211.059 285.778 211.233 285.989 211.466 285.992C211.675 285.994 211.837 285.996 212.263 286.004C212.37 286.006 212.37 286.006 212.477 286.008C213.638 286.028 214.23 286.022 214.656 285.969C215.11 285.912 215.578 285.363 215.983 284.674C216.326 285.283 216.802 285.879 217.282 285.956C217.435 285.98 217.619 285.988 217.833 285.983C217.993 285.979 218.162 285.969 218.332 285.954C218.461 285.942 218.563 285.931 218.624 285.923C218.85 285.893 218.998 285.671 218.937 285.451C218.924 285.404 218.903 285.317 218.882 285.207C218.858 285.08 218.84 284.956 218.832 284.843C218.827 284.771 218.826 284.706 218.829 284.65C218.835 284.553 218.837 284.498 218.839 284.371C218.84 284.324 218.84 284.324 218.842 284.283C218.847 284.148 218.865 284.02 218.924 283.741C218.949 283.62 219.071 283.388 219.263 283.101C219.321 283.015 219.383 282.926 219.45 282.834C219.578 282.659 219.714 282.482 219.851 282.313C219.933 282.212 219.997 282.136 220.032 282.095C220.328 281.671 220.644 280.976 220.76 280.57C220.872 280.179 220.961 279.46 221.016 278.754C221.046 278.353 221.057 278.03 221.057 277.523C221.057 277.434 221.057 277.434 221.057 277.36C221.057 277.24 221.057 277.195 221.057 277.138C221.056 276.985 221.051 276.833 221.037 276.444C221.005 275.631 220.559 275.105 219.902 275.003C219.343 274.917 218.662 275.381 218.662 275.381C218.662 275.381 218.511 274.858 218.409 274.697C218.242 274.438 217.814 274.107 217.487 274.043C217.151 273.977 216.752 273.985 216.385 274.049C216.065 274.107 215.745 274.393 215.56 274.702C215.428 274.923 215.552 274.691 215.42 274.463C215.237 274.149 214.811 273.867 214.405 273.784C214.061 273.713 213.667 273.74 213.307 273.847C212.844 273.986 212.77 274.338 212.752 274.237C212.69 273.899 212.685 273.921 212.646 273.68C212.504 272.785 212.344 272.165 212.102 271.625C212.116 271.656 212.013 271.422 211.976 271.342C211.912 271.203 211.847 271.077 211.776 270.955C211.558 270.582 211.307 270.302 210.993 270.143C210.447 269.867 209.63 270.001 209.242 270.454C208.857 270.903 208.793 271.655 208.89 272.586C208.927 272.947 209.057 273.606 209.174 274.094C209.216 274.263 209.252 274.417 209.319 274.702C209.331 274.751 209.331 274.751 209.342 274.799C209.394 275.015 209.439 275.192 209.494 275.387C209.488 275.367 209.591 275.731 209.612 275.812C209.62 275.839 209.62 275.839 209.627 275.866C209.668 276.02 209.708 276.185 209.77 276.462C209.804 276.614 209.837 276.777 209.87 276.949C209.959 277.419 209.959 277.321 209.874 277.221C209.815 277.152 209.759 277.089 209.705 277.031C209.606 276.923 209.514 276.834 209.427 276.763C208.792 276.244 208.404 276.015 207.87 275.964C206.995 275.88 206.164 276.499 206.039 277.333C205.962 277.845 205.987 278.08 206.224 278.533C206.354 278.777 206.574 279.072 206.985 279.58C207.01 279.611 207.01 279.611 207.036 279.642C207.54 280.264 207.595 280.333 207.715 280.507C208.04 280.978 208.829 282.329 208.973 282.51L209.821 283.45Z" fill="black"/>
</g>
<path fill-rule="evenodd" clip-rule="evenodd" d="M207.618 279.169C207.593 279.139 207.593 279.139 207.568 279.108C207.191 278.642 206.984 278.365 206.887 278.182C206.734 277.89 206.726 277.811 206.781 277.444C206.845 277.012 207.312 276.664 207.799 276.711C208.136 276.743 208.43 276.916 208.952 277.344C209.009 277.39 209.077 277.456 209.155 277.541C209.201 277.591 209.25 277.646 209.303 277.708C209.383 277.801 209.65 278.128 209.611 278.081C209.669 278.151 209.711 278.205 209.758 278.271C209.852 278.406 209.905 278.48 209.977 278.576C209.943 278.531 210.192 278.874 210.244 278.924C210.523 279.19 210.926 278.966 210.901 278.612C210.897 278.553 210.883 278.489 210.854 278.377C210.739 277.558 210.699 277.295 210.607 276.81C210.573 276.63 210.538 276.459 210.502 276.298C210.437 276.012 210.395 275.838 210.352 275.673C210.344 275.644 210.344 275.644 210.336 275.616C210.313 275.531 210.209 275.161 210.216 275.186C210.165 275.001 210.121 274.832 210.072 274.624C210.06 274.577 210.06 274.577 210.049 274.529C209.983 274.246 209.945 274.088 209.903 273.916C209.793 273.461 209.669 272.829 209.636 272.509C209.56 271.784 209.612 271.174 209.812 270.942C209.967 270.76 210.408 270.688 210.654 270.812C210.815 270.894 210.976 271.074 211.129 271.334C211.186 271.433 211.24 271.538 211.296 271.658C211.329 271.73 211.429 271.956 211.418 271.931C211.628 272.401 211.772 272.962 211.905 273.798C211.945 274.045 211.994 274.326 212.056 274.669C212.075 274.771 212.075 274.771 212.093 274.872C212.395 276.508 212.373 276.384 212.377 276.514C212.393 276.99 213.095 277.001 213.126 276.526C213.136 276.375 213.132 276.241 213.115 275.855C213.112 275.8 213.112 275.8 213.11 275.746C213.095 275.39 213.096 275.185 213.117 275.068C213.155 274.856 213.346 274.618 213.521 274.566C213.768 274.493 214.038 274.474 214.254 274.519C214.461 274.561 214.703 274.721 214.772 274.84C214.855 274.984 214.927 275.203 214.982 275.475C215.026 275.694 215.057 275.93 215.078 276.181C215.085 276.259 215.089 276.32 215.096 276.42C215.099 276.462 215.099 276.462 215.102 276.496C215.103 276.513 215.103 276.513 215.107 276.541C215.11 276.56 215.11 276.56 215.124 276.608C215.132 276.746 215.132 276.746 215.685 276.797C215.851 276.598 215.851 276.598 215.846 276.563C215.873 276.444 215.89 276.312 215.913 276.064C215.928 275.903 215.936 275.824 215.945 275.742C215.982 275.402 216.028 275.186 216.085 275.091C216.156 274.972 216.405 274.808 216.517 274.788C216.797 274.738 217.105 274.733 217.343 274.779C217.451 274.8 217.714 275.003 217.776 275.1C217.904 275.302 218.028 275.951 218.098 276.596C218.087 276.638 218.087 276.638 218.259 276.884C218.849 276.816 218.849 276.816 218.832 276.71C218.848 276.672 218.86 276.628 218.878 276.56C218.92 276.4 218.948 276.307 218.99 276.203C219.019 276.132 219.049 276.07 219.08 276.021C219.201 275.831 219.513 275.702 219.787 275.744C220.081 275.79 220.269 276.011 220.287 276.473C220.302 276.854 220.306 277 220.307 277.144C220.307 277.197 220.307 277.239 220.307 277.359C220.307 277.433 220.307 277.433 220.307 277.523C220.307 278.012 220.296 278.316 220.268 278.697C220.217 279.35 220.132 280.04 220.039 280.364C219.945 280.694 219.663 281.315 219.439 281.637C219.424 281.653 219.356 281.734 219.269 281.841C219.124 282.019 218.98 282.206 218.844 282.392C218.771 282.492 218.703 282.589 218.64 282.683C218.397 283.047 218.24 283.344 218.19 283.587C218.123 283.904 218.099 284.072 218.092 284.254C218.091 284.305 218.091 284.305 218.089 284.355C218.087 284.473 218.085 284.521 218.08 284.607C218.075 284.698 218.077 284.794 218.084 284.896C218.094 285.042 218.084 285.242 218.084 285.242C218.084 285.242 217.957 285.23 217.816 285.233C217.644 285.237 217.5 285.231 217.401 285.215C217.258 285.192 216.872 284.709 216.674 284.332C216.372 283.756 215.638 283.784 215.337 284.293C215.066 284.755 214.677 285.21 214.562 285.225C214.187 285.272 213.607 285.277 212.49 285.258C212.383 285.256 212.383 285.256 212.277 285.254C211.848 285.247 211.864 285.319 211.873 285.242C211.898 285.021 211.895 285.063 211.873 284.842C211.836 284.473 211.722 284.172 211.484 283.972C211.362 283.868 211.215 283.731 210.919 283.451C210.582 283.13 210.477 283.031 210.346 282.917L209.545 282.026C209.457 281.914 208.685 280.592 208.333 280.081C208.195 279.882 208.144 279.818 207.618 279.169ZM217.127 279.173V282.632C217.127 283.132 217.877 283.132 217.877 282.632V279.173C217.877 278.673 217.127 278.673 217.127 279.173ZM215.095 279.173L215.111 282.646C215.113 283.146 215.863 283.142 215.861 282.642L215.845 279.169C215.843 278.669 215.093 278.673 215.095 279.173ZM213.886 282.626L213.865 279.2C213.862 278.7 213.112 278.705 213.115 279.205L213.136 282.631C213.139 283.131 213.889 283.126 213.886 282.626Z" fill="white"/>
<path d="M200 283.557L198.557 285L200 286.443L201.443 285L200 283.557ZM200 301H199.75V301.25H200V301ZM460.177 301.177C460.274 301.079 460.274 300.921 460.177 300.823L458.586 299.232C458.488 299.135 458.33 299.135 458.232 299.232C458.135 299.33 458.135 299.488 458.232 299.586L459.646 301L458.232 302.414C458.135 302.512 458.135 302.67 458.232 302.768C458.33 302.865 458.488 302.865 458.586 302.768L460.177 301.177ZM199.75 285V301H200.25V285H199.75ZM200 301.25H460V300.75H200V301.25Z" fill="#141415"/>
<path d="M200.112 326L204.448 315.024H206.448L210.8 326H209.152L208.08 323.28H202.736L201.68 326H200.112ZM203.232 321.984H207.568L206.24 318.544C206.208 318.448 206.16 318.315 206.096 318.144C206.032 317.973 205.963 317.787 205.888 317.584C205.813 317.371 205.739 317.157 205.664 316.944C205.589 316.72 205.52 316.517 205.456 316.336H205.36C205.285 316.549 205.2 316.795 205.104 317.072C205.008 317.349 204.912 317.621 204.816 317.888C204.72 318.144 204.64 318.363 204.576 318.544L203.232 321.984ZM214.874 326.192C214.181 326.192 213.584 326.037 213.082 325.728C212.592 325.419 212.208 324.939 211.93 324.288C211.664 323.627 211.53 322.773 211.53 321.728C211.53 320.736 211.669 319.92 211.946 319.28C212.224 318.64 212.608 318.165 213.098 317.856C213.589 317.547 214.16 317.392 214.81 317.392C215.184 317.392 215.53 317.435 215.85 317.52C216.17 317.605 216.453 317.739 216.698 317.92C216.954 318.101 217.178 318.341 217.37 318.64H217.466V314.432H218.874V326H217.738L217.61 324.8H217.498C217.21 325.269 216.837 325.621 216.378 325.856C215.92 326.08 215.418 326.192 214.874 326.192ZM215.21 324.96C215.744 324.96 216.176 324.843 216.506 324.608C216.837 324.373 217.077 324.032 217.226 323.584C217.386 323.136 217.466 322.581 217.466 321.92V321.664C217.466 321.088 217.408 320.603 217.29 320.208C217.173 319.813 217.013 319.499 216.81 319.264C216.608 319.029 216.373 318.864 216.106 318.768C215.84 318.672 215.557 318.624 215.258 318.624C214.736 318.624 214.309 318.731 213.978 318.944C213.648 319.147 213.402 319.472 213.242 319.92C213.082 320.357 213.002 320.928 213.002 321.632V321.968C213.002 322.693 213.088 323.28 213.258 323.728C213.429 324.165 213.674 324.48 213.994 324.672C214.325 324.864 214.73 324.96 215.21 324.96ZM223.952 326.192C223.259 326.192 222.662 326.037 222.16 325.728C221.67 325.419 221.286 324.939 221.008 324.288C220.742 323.627 220.608 322.773 220.608 321.728C220.608 320.736 220.747 319.92 221.024 319.28C221.302 318.64 221.686 318.165 222.176 317.856C222.667 317.547 223.238 317.392 223.888 317.392C224.262 317.392 224.608 317.435 224.928 317.52C225.248 317.605 225.531 317.739 225.776 317.92C226.032 318.101 226.256 318.341 226.448 318.64H226.544V314.432H227.952V326H226.816L226.688 324.8H226.576C226.288 325.269 225.915 325.621 225.456 325.856C224.998 326.08 224.496 326.192 223.952 326.192ZM224.288 324.96C224.822 324.96 225.254 324.843 225.584 324.608C225.915 324.373 226.155 324.032 226.304 323.584C226.464 323.136 226.544 322.581 226.544 321.92V321.664C226.544 321.088 226.486 320.603 226.368 320.208C226.251 319.813 226.091 319.499 225.888 319.264C225.686 319.029 225.451 318.864 225.184 318.768C224.918 318.672 224.635 318.624 224.336 318.624C223.814 318.624 223.387 318.731 223.056 318.944C222.726 319.147 222.48 319.472 222.32 319.92C222.16 320.357 222.08 320.928 222.08 321.632V321.968C222.08 322.693 222.166 323.28 222.336 323.728C222.507 324.165 222.752 324.48 223.072 324.672C223.403 324.864 223.808 324.96 224.288 324.96ZM235.622 326.192C235.313 326.192 235.004 326.155 234.694 326.08C234.385 326.005 234.097 325.883 233.83 325.712C233.564 325.541 233.35 325.307 233.19 325.008C233.03 324.699 232.95 324.315 232.95 323.856C232.95 323.28 233.089 322.805 233.366 322.432C233.644 322.059 234.028 321.771 234.518 321.568C235.02 321.355 235.612 321.211 236.294 321.136C236.977 321.051 237.718 321.008 238.518 321.008V320.048C238.518 319.739 238.465 319.472 238.358 319.248C238.252 319.024 238.06 318.853 237.782 318.736C237.516 318.608 237.132 318.544 236.63 318.544C236.15 318.544 235.766 318.608 235.478 318.736C235.201 318.853 235.004 319.008 234.886 319.2C234.78 319.392 234.726 319.605 234.726 319.84V320.08H233.366C233.356 320.027 233.35 319.973 233.35 319.92C233.35 319.867 233.35 319.803 233.35 319.728C233.35 319.216 233.489 318.789 233.766 318.448C234.054 318.096 234.454 317.835 234.966 317.664C235.478 317.483 236.065 317.392 236.726 317.392C237.43 317.392 238.017 317.493 238.486 317.696C238.966 317.899 239.324 318.187 239.558 318.56C239.804 318.933 239.926 319.381 239.926 319.904V324.464C239.926 324.667 239.974 324.811 240.07 324.896C240.166 324.971 240.284 325.008 240.422 325.008H241.046V325.936C240.897 326 240.732 326.053 240.55 326.096C240.369 326.149 240.161 326.176 239.926 326.176C239.649 326.176 239.42 326.117 239.238 326C239.057 325.893 238.918 325.744 238.822 325.552C238.726 325.349 238.662 325.125 238.63 324.88H238.518C238.326 325.147 238.081 325.381 237.782 325.584C237.494 325.776 237.169 325.925 236.806 326.032C236.444 326.139 236.049 326.192 235.622 326.192ZM235.974 325.008C236.316 325.008 236.636 324.955 236.934 324.848C237.244 324.741 237.516 324.592 237.75 324.4C237.985 324.197 238.172 323.957 238.31 323.68C238.449 323.403 238.518 323.099 238.518 322.768V322.064C237.654 322.064 236.918 322.112 236.31 322.208C235.702 322.304 235.233 322.475 234.902 322.72C234.582 322.965 234.422 323.312 234.422 323.76C234.422 324.048 234.486 324.283 234.614 324.464C234.742 324.645 234.924 324.784 235.158 324.88C235.393 324.965 235.665 325.008 235.974 325.008ZM251.029 328.768V324.944H250.933C250.741 325.232 250.511 325.472 250.245 325.664C249.989 325.845 249.701 325.979 249.381 326.064C249.061 326.149 248.725 326.192 248.373 326.192C247.722 326.192 247.151 326.037 246.661 325.728C246.17 325.419 245.786 324.944 245.509 324.304C245.231 323.653 245.093 322.837 245.093 321.856C245.093 320.811 245.226 319.963 245.493 319.312C245.77 318.651 246.154 318.165 246.645 317.856C247.146 317.547 247.743 317.392 248.437 317.392C249.002 317.392 249.509 317.509 249.957 317.744C250.405 317.968 250.773 318.315 251.061 318.784H251.173L251.301 317.584H252.437V328.768H251.029ZM248.821 324.96C249.13 324.96 249.418 324.912 249.685 324.816C249.951 324.72 250.181 324.555 250.373 324.32C250.575 324.085 250.735 323.776 250.853 323.392C250.97 322.997 251.029 322.507 251.029 321.92V321.68C251.029 321.019 250.949 320.459 250.789 320C250.639 319.541 250.399 319.2 250.069 318.976C249.738 318.741 249.306 318.624 248.773 318.624C248.293 318.624 247.887 318.72 247.557 318.912C247.237 319.104 246.991 319.424 246.821 319.872C246.65 320.309 246.565 320.896 246.565 321.632V321.968C246.565 322.661 246.645 323.232 246.805 323.68C246.965 324.117 247.21 324.443 247.541 324.656C247.871 324.859 248.298 324.96 248.821 324.96ZM257.259 326.192C256.448 326.192 255.798 325.984 255.307 325.568C254.816 325.152 254.571 324.427 254.571 323.392V317.584H255.979V323.2C255.979 323.552 256.022 323.84 256.107 324.064C256.192 324.288 256.315 324.464 256.475 324.592C256.635 324.72 256.822 324.811 257.035 324.864C257.259 324.917 257.499 324.944 257.755 324.944C258.16 324.944 258.534 324.848 258.875 324.656C259.216 324.464 259.494 324.187 259.707 323.824C259.931 323.451 260.043 323.019 260.043 322.528V317.584H261.451V326H260.315L260.187 324.736H260.075C259.851 325.077 259.595 325.355 259.307 325.568C259.03 325.781 258.715 325.936 258.363 326.032C258.022 326.139 257.654 326.192 257.259 326.192ZM266.995 326.192C266.163 326.192 265.459 326.037 264.883 325.728C264.318 325.408 263.886 324.923 263.587 324.272C263.299 323.621 263.155 322.795 263.155 321.792C263.155 320.779 263.299 319.952 263.587 319.312C263.886 318.661 264.323 318.181 264.899 317.872C265.475 317.552 266.195 317.392 267.059 317.392C267.849 317.392 268.51 317.547 269.043 317.856C269.577 318.155 269.977 318.608 270.243 319.216C270.521 319.813 270.659 320.565 270.659 321.472V322.144H264.611C264.633 322.816 264.729 323.371 264.899 323.808C265.081 324.235 265.347 324.549 265.699 324.752C266.051 324.944 266.494 325.04 267.027 325.04C267.39 325.04 267.705 324.997 267.971 324.912C268.249 324.816 268.478 324.683 268.659 324.512C268.851 324.341 268.995 324.139 269.091 323.904C269.187 323.669 269.241 323.413 269.251 323.136H270.627C270.617 323.584 270.531 324 270.371 324.384C270.211 324.757 269.977 325.077 269.667 325.344C269.358 325.611 268.979 325.819 268.531 325.968C268.083 326.117 267.571 326.192 266.995 326.192ZM264.643 321.088H269.203C269.203 320.619 269.15 320.224 269.043 319.904C268.937 319.584 268.782 319.323 268.579 319.12C268.387 318.917 268.158 318.773 267.891 318.688C267.635 318.592 267.342 318.544 267.011 318.544C266.521 318.544 266.105 318.635 265.763 318.816C265.422 318.997 265.161 319.275 264.979 319.648C264.798 320.021 264.686 320.501 264.643 321.088ZM275.345 326.192C274.769 326.192 274.262 326.133 273.825 326.016C273.388 325.899 273.025 325.728 272.737 325.504C272.449 325.28 272.23 325.013 272.081 324.704C271.932 324.395 271.857 324.043 271.857 323.648C271.857 323.595 271.857 323.547 271.857 323.504C271.857 323.451 271.862 323.408 271.873 323.376H273.265C273.254 323.419 273.249 323.456 273.249 323.488C273.249 323.52 273.249 323.552 273.249 323.584C273.26 323.957 273.356 324.251 273.537 324.464C273.729 324.677 273.99 324.827 274.321 324.912C274.652 324.997 275.02 325.04 275.425 325.04C275.777 325.04 276.102 324.997 276.401 324.912C276.7 324.816 276.934 324.677 277.105 324.496C277.286 324.304 277.377 324.064 277.377 323.776C277.377 323.424 277.26 323.157 277.025 322.976C276.801 322.784 276.502 322.635 276.129 322.528C275.756 322.421 275.366 322.309 274.961 322.192C274.62 322.096 274.278 321.989 273.937 321.872C273.596 321.755 273.286 321.611 273.009 321.44C272.742 321.269 272.524 321.051 272.353 320.784C272.193 320.507 272.113 320.16 272.113 319.744C272.113 319.371 272.188 319.04 272.337 318.752C272.497 318.464 272.721 318.219 273.009 318.016C273.297 317.813 273.644 317.664 274.049 317.568C274.465 317.461 274.924 317.408 275.425 317.408C275.958 317.408 276.422 317.467 276.817 317.584C277.222 317.701 277.558 317.867 277.825 318.08C278.092 318.293 278.289 318.539 278.417 318.816C278.545 319.083 278.609 319.371 278.609 319.68C278.609 319.744 278.609 319.808 278.609 319.872C278.609 319.925 278.604 319.968 278.593 320H277.217V319.824C277.217 319.611 277.158 319.408 277.041 319.216C276.934 319.013 276.742 318.853 276.465 318.736C276.198 318.608 275.825 318.544 275.345 318.544C275.036 318.544 274.769 318.571 274.545 318.624C274.321 318.667 274.134 318.741 273.985 318.848C273.836 318.944 273.724 319.061 273.649 319.2C273.574 319.328 273.537 319.477 273.537 319.648C273.537 319.925 273.628 320.139 273.809 320.288C273.99 320.437 274.23 320.56 274.529 320.656C274.838 320.752 275.169 320.859 275.521 320.976C275.894 321.083 276.273 321.195 276.657 321.312C277.052 321.419 277.409 321.557 277.729 321.728C278.06 321.899 278.321 322.133 278.513 322.432C278.716 322.72 278.817 323.104 278.817 323.584C278.817 324.032 278.732 324.421 278.561 324.752C278.39 325.083 278.145 325.355 277.825 325.568C277.516 325.781 277.148 325.936 276.721 326.032C276.305 326.139 275.846 326.192 275.345 326.192ZM282.525 326.192C282.088 326.192 281.746 326.112 281.501 325.952C281.256 325.781 281.08 325.563 280.973 325.296C280.866 325.019 280.813 324.725 280.813 324.416V318.768H279.725V317.584H280.845L281.101 315.232H282.221V317.584H283.805V318.768H282.221V324.208C282.221 324.475 282.269 324.677 282.365 324.816C282.461 324.944 282.642 325.008 282.909 325.008H283.805V325.936C283.698 325.989 283.57 326.032 283.421 326.064C283.272 326.096 283.117 326.123 282.957 326.144C282.808 326.176 282.664 326.192 282.525 326.192ZM285.307 316V314.432H286.715V316H285.307ZM285.307 326V317.584H286.715V326H285.307ZM292.357 326.192C291.504 326.192 290.784 326.037 290.197 325.728C289.621 325.408 289.178 324.923 288.869 324.272C288.57 323.621 288.421 322.795 288.421 321.792C288.421 320.779 288.57 319.952 288.869 319.312C289.178 318.661 289.621 318.181 290.197 317.872C290.784 317.552 291.504 317.392 292.357 317.392C293.21 317.392 293.925 317.552 294.501 317.872C295.088 318.181 295.53 318.661 295.829 319.312C296.128 319.952 296.277 320.779 296.277 321.792C296.277 322.795 296.128 323.621 295.829 324.272C295.53 324.923 295.088 325.408 294.501 325.728C293.925 326.037 293.21 326.192 292.357 326.192ZM292.357 325.008C292.901 325.008 293.354 324.901 293.717 324.688C294.08 324.475 294.352 324.144 294.533 323.696C294.725 323.237 294.821 322.661 294.821 321.968V321.616C294.821 320.912 294.725 320.336 294.533 319.888C294.352 319.44 294.08 319.109 293.717 318.896C293.354 318.683 292.901 318.576 292.357 318.576C291.813 318.576 291.354 318.683 290.981 318.896C290.618 319.109 290.346 319.44 290.165 319.888C289.984 320.336 289.893 320.912 289.893 321.616V321.968C289.893 322.661 289.984 323.237 290.165 323.696C290.346 324.144 290.618 324.475 290.981 324.688C291.354 324.901 291.813 325.008 292.357 325.008ZM298.026 326V317.584H299.162L299.29 318.848H299.402C299.626 318.507 299.877 318.229 300.154 318.016C300.442 317.803 300.757 317.648 301.098 317.552C301.45 317.445 301.823 317.392 302.218 317.392C302.751 317.392 303.215 317.483 303.61 317.664C304.015 317.845 304.33 318.139 304.554 318.544C304.789 318.949 304.906 319.499 304.906 320.192V326H303.498V320.384C303.498 320.032 303.45 319.744 303.354 319.52C303.269 319.296 303.146 319.12 302.986 318.992C302.837 318.864 302.65 318.773 302.426 318.72C302.213 318.667 301.973 318.64 301.706 318.64C301.311 318.64 300.938 318.736 300.586 318.928C300.234 319.12 299.951 319.397 299.738 319.76C299.535 320.123 299.434 320.555 299.434 321.056V326H298.026ZM314.385 326.192C313.82 326.192 313.313 326.08 312.865 325.856C312.417 325.621 312.049 325.269 311.761 324.8H311.649L311.505 326H310.385V314.432H311.793V318.64H311.889C312.081 318.341 312.305 318.101 312.561 317.92C312.817 317.739 313.105 317.605 313.425 317.52C313.745 317.435 314.087 317.392 314.449 317.392C315.1 317.392 315.671 317.547 316.161 317.856C316.652 318.165 317.031 318.64 317.297 319.28C317.575 319.92 317.713 320.736 317.713 321.728C317.713 322.773 317.58 323.627 317.313 324.288C317.047 324.939 316.668 325.419 316.177 325.728C315.687 326.037 315.089 326.192 314.385 326.192ZM314.049 324.96C314.529 324.96 314.929 324.864 315.249 324.672C315.58 324.48 315.831 324.165 316.001 323.728C316.172 323.28 316.257 322.693 316.257 321.968V321.632C316.257 320.928 316.177 320.357 316.017 319.92C315.857 319.472 315.612 319.147 315.281 318.944C314.951 318.731 314.524 318.624 314.001 318.624C313.703 318.624 313.42 318.672 313.153 318.768C312.887 318.864 312.647 319.029 312.433 319.264C312.231 319.499 312.071 319.813 311.953 320.208C311.847 320.603 311.793 321.088 311.793 321.664V321.92C311.793 322.581 311.868 323.136 312.017 323.584C312.177 324.032 312.423 324.373 312.753 324.608C313.095 324.843 313.527 324.96 314.049 324.96ZM319.463 326V314.432H320.871V326H319.463ZM326.513 326.192C325.66 326.192 324.94 326.037 324.353 325.728C323.777 325.408 323.334 324.923 323.025 324.272C322.726 323.621 322.577 322.795 322.577 321.792C322.577 320.779 322.726 319.952 323.025 319.312C323.334 318.661 323.777 318.181 324.353 317.872C324.94 317.552 325.66 317.392 326.513 317.392C327.366 317.392 328.081 317.552 328.657 317.872C329.244 318.181 329.686 318.661 329.985 319.312C330.284 319.952 330.433 320.779 330.433 321.792C330.433 322.795 330.284 323.621 329.985 324.272C329.686 324.923 329.244 325.408 328.657 325.728C328.081 326.037 327.366 326.192 326.513 326.192ZM326.513 325.008C327.057 325.008 327.51 324.901 327.873 324.688C328.236 324.475 328.508 324.144 328.689 323.696C328.881 323.237 328.977 322.661 328.977 321.968V321.616C328.977 320.912 328.881 320.336 328.689 319.888C328.508 319.44 328.236 319.109 327.873 318.896C327.51 318.683 327.057 318.576 326.513 318.576C325.969 318.576 325.51 318.683 325.137 318.896C324.774 319.109 324.502 319.44 324.321 319.888C324.14 320.336 324.049 320.912 324.049 321.616V321.968C324.049 322.661 324.14 323.237 324.321 323.696C324.502 324.144 324.774 324.475 325.137 324.688C325.51 324.901 325.969 325.008 326.513 325.008ZM335.382 326.192C334.571 326.192 333.889 326.037 333.334 325.728C332.79 325.408 332.374 324.923 332.086 324.272C331.809 323.611 331.67 322.784 331.67 321.792C331.67 320.8 331.809 319.979 332.086 319.328C332.374 318.677 332.795 318.192 333.35 317.872C333.915 317.552 334.609 317.392 335.43 317.392C336.006 317.392 336.502 317.467 336.918 317.616C337.345 317.765 337.697 317.984 337.974 318.272C338.251 318.56 338.454 318.907 338.582 319.312C338.721 319.717 338.79 320.181 338.79 320.704H337.366C337.366 320.213 337.297 319.813 337.158 319.504C337.03 319.184 336.822 318.949 336.534 318.8C336.246 318.64 335.867 318.56 335.398 318.56C334.929 318.56 334.523 318.667 334.182 318.88C333.841 319.083 333.579 319.408 333.398 319.856C333.217 320.304 333.126 320.896 333.126 321.632V321.968C333.126 322.661 333.211 323.237 333.382 323.696C333.563 324.155 333.825 324.491 334.166 324.704C334.507 324.917 334.923 325.024 335.414 325.024C335.894 325.024 336.278 324.939 336.566 324.768C336.865 324.597 337.078 324.352 337.206 324.032C337.345 323.712 337.414 323.328 337.414 322.88H338.79C338.79 323.349 338.721 323.787 338.582 324.192C338.454 324.597 338.251 324.949 337.974 325.248C337.697 325.547 337.345 325.781 336.918 325.952C336.491 326.112 335.979 326.192 335.382 326.192ZM340.479 326V314.432H341.887V321.664L345.455 317.584H347.119L344.239 320.848L347.279 326H345.663L343.327 321.888L341.887 323.344V326H340.479Z" fill="#141415"/>
<defs>
<filter id="filter0_d_347_11883" x="204" y="269" width="19.0572" height="20.0185" filterUnits="userSpaceOnUse" color-interpolation-filters="sRGB">
<feFlood flood-opacity="0" result="BackgroundImageFix"/>
<feColorMatrix in="SourceAlpha" type="matrix" values="0 0 0 0 0 0 0 0 0 0 0 0 0 0 0 0 0 0 127 0" result="hardAlpha"/>
<feOffset dy="1"/>
<feGaussianBlur stdDeviation="1"/>
<feColorMatrix type="matrix" values="0 0 0 0 0 0 0 0 0 0 0 0 0 0 0 0 0 0 0.4 0"/>
<feBlend mode="normal" in2="BackgroundImageFix" result="effect1_dropShadow_347_11883"/>
<feBlend mode="normal" in="SourceGraphic" in2="effect1_dropShadow_347_11883" result="shape"/>
</filter>
</defs>
</svg>
