<svg width="40" height="40" viewBox="0 0 40 40" fill="none" xmlns="http://www.w3.org/2000/svg">
<circle cx="20" cy="20" r="20" fill="white"/>
<path d="M15.454 12C15.0684 12 14.6985 12.1532 14.4259 12.4259C14.1532 12.6985 14 13.0684 14 13.454V25.09C14 25.4756 14.1532 25.8455 14.4259 26.1181C14.6985 26.3908 15.0684 26.544 15.454 26.544H20.006C19.8463 26.3136 19.7058 26.0704 19.586 25.817V25.817L19.579 25.8C19.4861 25.6007 19.4063 25.3956 19.34 25.186C19.176 24.6856 19.0917 24.1626 19.09 23.636C19.0838 22.9041 19.2368 22.1797 19.5382 21.5127C19.8396 20.8458 20.2824 20.2523 20.8358 19.7734C21.3892 19.2944 22.0401 18.9414 22.7434 18.7388C23.4467 18.5362 24.1856 18.4889 24.909 18.6V18.6C25.1549 18.6363 25.3978 18.6901 25.636 18.761V16.966C25.6358 16.5804 25.4826 16.2107 25.21 15.938L21.7 12.426C21.5647 12.2908 21.4041 12.1836 21.2274 12.1105C21.0507 12.0374 20.8613 11.9998 20.67 12H15.454ZM24.182 20C23.2212 20.0129 22.3033 20.4004 21.6239 21.0799C20.9444 21.7593 20.5569 22.6772 20.544 23.638C20.5393 24.1167 20.6302 24.5916 20.8113 25.0348C20.9923 25.478 21.26 25.8806 21.5986 26.2191C21.9372 26.5576 22.3399 26.8252 22.7831 27.0061C23.2264 27.1871 23.7013 27.2778 24.18 27.273C24.8996 27.27 25.6045 27.0687 26.217 26.691L27.317 27.791C27.3833 27.8602 27.4628 27.9155 27.5507 27.9536C27.6387 27.9917 27.7334 28.0118 27.8292 28.0129C27.925 28.0139 28.0201 27.9958 28.1089 27.9596C28.1976 27.9234 28.2782 27.8698 28.346 27.802C28.4138 27.7342 28.4674 27.6536 28.5036 27.5649C28.5398 27.4761 28.5579 27.381 28.5569 27.2852C28.5558 27.1894 28.5357 27.0947 28.4976 27.0067C28.4595 26.9188 28.4042 26.8393 28.335 26.773L27.235 25.673C27.6127 25.0605 27.814 24.3556 27.817 23.636C27.8218 23.1573 27.7311 22.6825 27.5502 22.2394C27.3693 21.7962 27.1018 21.3935 26.7635 21.055C26.4251 20.7164 26.0226 20.4487 25.5795 20.2676C25.1364 20.0864 24.6617 19.9955 24.183 20H24.182ZM24.182 21.454C24.6136 21.454 25.0354 21.582 25.3943 21.8217C25.7531 22.0615 26.0328 22.4023 26.1979 22.801C26.3631 23.1997 26.4063 23.6384 26.3221 24.0617C26.2379 24.485 26.0301 24.8738 25.7249 25.1789C25.4197 25.4841 25.031 25.6919 24.6077 25.7761C24.1844 25.8603 23.7457 25.8171 23.347 25.6519C22.9483 25.4868 22.6075 25.2071 22.3677 24.8483C22.128 24.4894 22 24.0676 22 23.636C21.9947 23.3481 22.0475 23.0621 22.1552 22.795C22.2629 22.5279 22.4234 22.2853 22.627 22.0817C22.8305 21.878 23.0731 21.7175 23.3401 21.6096C23.6071 21.5018 23.8931 21.4488 24.181 21.454H24.182Z" fill="#0E73B9"/>
</svg>
