<svg width="40" height="40" viewBox="0 0 40 40" fill="none" xmlns="http://www.w3.org/2000/svg">
<circle cx="20" cy="20" r="20" fill="white"/>
<path d="M25.6179 12C25.3048 11.9998 24.9947 12.0616 24.7055 12.1817C24.4163 12.3019 24.1538 12.478 23.9329 12.7L22.9459 13.687L26.3159 17.057L27.3029 16.07C27.6374 15.737 27.8653 15.3122 27.958 14.8495C28.0506 14.3867 28.0036 13.9069 27.8231 13.4708C27.6426 13.0348 27.3366 12.6622 26.944 12.4003C26.5514 12.1385 26.0899 11.9991 25.6179 12V12ZM21.6829 14.948L13.6829 22.948C14.1388 22.9474 14.5825 23.0952 14.9469 23.369C15.2182 23.7287 15.3618 24.1686 15.3549 24.619C15.8158 24.625 16.2629 24.7769 16.6319 25.053C16.9057 25.4175 17.0535 25.8611 17.0529 26.317L25.0529 18.317L21.6829 14.948ZM12.5589 24.636L12.0059 27.588C11.9955 27.6436 11.9988 27.7009 12.0156 27.7549C12.0323 27.8089 12.0619 27.858 12.1019 27.898C12.1419 27.938 12.191 27.9676 12.245 27.9843C12.2991 28.0011 12.3563 28.0044 12.4119 27.994L15.3639 27.441L12.5589 24.636Z" fill="#0E73B9"/>
</svg>
