<svg width="176" height="72" viewBox="0 0 176 72" fill="none" xmlns="http://www.w3.org/2000/svg">
<path d="M139.4 32.7C132.59 30.93 130.4 29.1 130.4 26.25C130.4 22.98 133.43 20.7 138.5 20.7C143.84 20.7 145.82 23.25 146 27H152.63C152.42 21.84 149.27 17.1 143 15.57V9H134V15.48C128.18 16.74 123.5 20.52 123.5 26.31C123.5 33.24 129.23 36.69 137.6 38.7C145.1 40.5 146.6 43.14 146.6 45.93C146.6 48 145.13 51.3 138.5 51.3C132.32 51.3 129.89 48.54 129.56 45H122.96C123.32 51.57 128.24 55.26 134 56.49V63H143V56.55C148.85 55.44 153.5 52.05 153.5 45.9C153.5 37.38 146.21 34.47 139.4 32.7Z" fill="#1B360A"/>
<path d="M35.4 32.7C28.59 30.93 26.4 29.1 26.4 26.25C26.4 22.98 29.43 20.7 34.5 20.7C39.84 20.7 41.82 23.25 42 27H48.63C48.42 21.84 45.27 17.1 39 15.57V9H30V15.48C24.18 16.74 19.5 20.52 19.5 26.31C19.5 33.24 25.23 36.69 33.6 38.7C41.1 40.5 42.6 43.14 42.6 45.93C42.6 48 41.13 51.3 34.5 51.3C28.32 51.3 25.89 48.54 25.56 45H18.96C19.32 51.57 24.24 55.26 30 56.49V63H39V56.55C44.85 55.44 49.5 52.05 49.5 45.9C49.5 37.38 42.21 34.47 35.4 32.7Z" fill="#1B360A"/>
<path d="M87.4 32.7C80.59 30.93 78.4 29.1 78.4 26.25C78.4 22.98 81.43 20.7 86.5 20.7C91.84 20.7 93.82 23.25 94 27H100.63C100.42 21.84 97.27 17.1 91 15.57V9H82V15.48C76.18 16.74 71.5 20.52 71.5 26.31C71.5 33.24 77.23 36.69 85.6 38.7C93.1 40.5 94.6 43.14 94.6 45.93C94.6 48 93.13 51.3 86.5 51.3C80.32 51.3 77.89 48.54 77.56 45H70.96C71.32 51.57 76.24 55.26 82 56.49V63H91V56.55C96.85 55.44 101.5 52.05 101.5 45.9C101.5 37.38 94.21 34.47 87.4 32.7Z" fill="#1B360A"/>
</svg>
