<svg width="904" height="546" viewBox="0 0 904 546" fill="none" xmlns="http://www.w3.org/2000/svg">
<rect x="408.5" y="0.5" width="87" height="63" rx="3.5" fill="white"/>
<path d="M438.355 22.7852V24.8359H432.555V40H430.188V24.8359H424.387V22.7852H438.355ZM441.084 36.6602C441.084 37.2695 441.307 37.75 441.752 38.1016C442.197 38.4531 442.725 38.6289 443.334 38.6289C444.076 38.6289 444.795 38.457 445.49 38.1133C446.662 37.543 447.248 36.6094 447.248 35.3125V33.6133C446.99 33.7773 446.658 33.9141 446.252 34.0234C445.846 34.1328 445.447 34.2109 445.057 34.2578L443.779 34.4219C443.014 34.5234 442.44 34.6836 442.057 34.9023C441.408 35.2695 441.084 35.8555 441.084 36.6602ZM446.193 32.3945C446.678 32.332 447.002 32.1289 447.166 31.7852C447.26 31.5977 447.307 31.3281 447.307 30.9766C447.307 30.2578 447.049 29.7383 446.533 29.418C446.025 29.0898 445.295 28.9258 444.342 28.9258C443.24 28.9258 442.459 29.2227 441.998 29.8164C441.74 30.1445 441.572 30.6328 441.494 31.2812H439.525C439.565 29.7344 440.065 28.6602 441.025 28.0586C441.994 27.4492 443.115 27.1445 444.389 27.1445C445.865 27.1445 447.065 27.4258 447.986 27.9883C448.9 28.5508 449.358 29.4258 449.358 30.6133V37.8438C449.358 38.0625 449.4 38.2383 449.486 38.3711C449.58 38.5039 449.772 38.5703 450.061 38.5703C450.154 38.5703 450.26 38.5664 450.377 38.5586C450.494 38.543 450.619 38.5234 450.752 38.5V40.0586C450.424 40.1523 450.174 40.2109 450.002 40.2344C449.83 40.2578 449.596 40.2695 449.299 40.2695C448.572 40.2695 448.045 40.0117 447.717 39.4961C447.545 39.2227 447.424 38.8359 447.354 38.3359C446.924 38.8984 446.307 39.3867 445.502 39.8008C444.697 40.2148 443.811 40.4219 442.842 40.4219C441.678 40.4219 440.725 40.0703 439.983 39.3672C439.248 38.6562 438.881 37.7695 438.881 36.707C438.881 35.543 439.244 34.6406 439.971 34C440.697 33.3594 441.65 32.9648 442.83 32.8164L446.193 32.3945ZM456 36.0625C456.063 36.7656 456.238 37.3047 456.528 37.6797C457.059 38.3594 457.981 38.6992 459.293 38.6992C460.074 38.6992 460.762 38.5312 461.356 38.1953C461.949 37.8516 462.246 37.3242 462.246 36.6133C462.246 36.0742 462.008 35.6641 461.531 35.3828C461.227 35.2109 460.625 35.0117 459.727 34.7852L458.051 34.3633C456.981 34.0977 456.192 33.8008 455.684 33.4727C454.778 32.9023 454.324 32.1133 454.324 31.1055C454.324 29.918 454.75 28.957 455.602 28.2227C456.461 27.4883 457.613 27.1211 459.059 27.1211C460.949 27.1211 462.313 27.6758 463.149 28.7852C463.672 29.4883 463.926 30.2461 463.91 31.0586H461.918C461.879 30.582 461.711 30.1484 461.414 29.7578C460.93 29.2031 460.09 28.9258 458.895 28.9258C458.098 28.9258 457.492 29.0781 457.078 29.3828C456.672 29.6875 456.469 30.0898 456.469 30.5898C456.469 31.1367 456.738 31.5742 457.278 31.9023C457.59 32.0977 458.051 32.2695 458.66 32.418L460.055 32.7578C461.57 33.125 462.586 33.4805 463.102 33.8242C463.922 34.3633 464.332 35.2109 464.332 36.3672C464.332 37.4844 463.906 38.4492 463.055 39.2617C462.211 40.0742 460.922 40.4805 459.188 40.4805C457.32 40.4805 455.996 40.0586 455.215 39.2148C454.442 38.3633 454.028 37.3125 453.973 36.0625H456ZM468.619 22.7852H470.647V32.7812L476.061 27.4492H478.756L473.951 32.1484L479.026 40H476.33L472.416 33.6719L470.647 35.2891V40H468.619V22.7852Z" fill="#1B360A"/>
<rect x="408.5" y="0.5" width="87" height="63" rx="3.5" stroke="#1B360A"/>
<rect x="0.5" y="162.5" width="279" height="143" rx="3.5" fill="white"/>
<path d="M26.6641 194.945L24.0508 187.34L21.2734 194.945H26.6641ZM22.832 184.785H25.4688L31.7148 202H29.1602L27.4141 196.844H20.6055L18.7422 202H16.3516L22.832 184.785ZM37.5841 189.449V197.781C37.5841 198.422 37.6856 198.945 37.8888 199.352C38.2638 200.102 38.963 200.477 39.9864 200.477C41.4552 200.477 42.4552 199.82 42.9864 198.508C43.2755 197.805 43.42 196.84 43.42 195.613V189.449H45.5294V202H43.5372L43.5606 200.148C43.2872 200.625 42.9473 201.027 42.5411 201.355C41.7364 202.012 40.7598 202.34 39.6114 202.34C37.8223 202.34 36.6036 201.742 35.9552 200.547C35.6036 199.906 35.4278 199.051 35.4278 197.98V189.449H37.5841ZM52.09 195.871C52.09 197.215 52.3752 198.34 52.9455 199.246C53.5158 200.152 54.4298 200.605 55.6877 200.605C56.6642 200.605 57.465 200.188 58.09 199.352C58.7228 198.508 59.0392 197.301 59.0392 195.73C59.0392 194.145 58.715 192.973 58.0666 192.215C57.4181 191.449 56.6173 191.066 55.6642 191.066C54.6017 191.066 53.7384 191.473 53.0744 192.285C52.4181 193.098 52.09 194.293 52.09 195.871ZM55.2658 189.227C56.2267 189.227 57.0314 189.43 57.6798 189.836C58.0548 190.07 58.4806 190.48 58.9572 191.066V184.727H60.9845V202H59.0861V200.254C58.5939 201.027 58.0119 201.586 57.34 201.93C56.6681 202.273 55.8986 202.445 55.0314 202.445C53.633 202.445 52.422 201.859 51.3986 200.688C50.3752 199.508 49.8634 197.941 49.8634 195.988C49.8634 194.16 50.3283 192.578 51.258 191.242C52.1955 189.898 53.5314 189.227 55.2658 189.227ZM66.0334 189.508H68.178V202H66.0334V189.508ZM66.0334 184.785H68.178V187.176H66.0334V184.785ZM73.7191 185.945H75.8519V189.449H77.8558V191.172H75.8519V199.363C75.8519 199.801 76.0003 200.094 76.2972 200.242C76.4613 200.328 76.7347 200.371 77.1175 200.371C77.2191 200.371 77.3284 200.371 77.4456 200.371C77.5628 200.363 77.6995 200.352 77.8558 200.336V202C77.6136 202.07 77.3597 202.121 77.0941 202.152C76.8363 202.184 76.555 202.199 76.2503 202.199C75.2659 202.199 74.598 201.949 74.2464 201.449C73.8948 200.941 73.7191 200.285 73.7191 199.48V191.172H72.0198V189.449H73.7191V185.945ZM90.9184 185.945H93.0512V189.449H95.0552V191.172H93.0512V199.363C93.0512 199.801 93.1997 200.094 93.4966 200.242C93.6606 200.328 93.9341 200.371 94.3169 200.371C94.4184 200.371 94.5278 200.371 94.645 200.371C94.7622 200.363 94.8989 200.352 95.0552 200.336V202C94.813 202.07 94.5591 202.121 94.2934 202.152C94.0356 202.184 93.7544 202.199 93.4497 202.199C92.4653 202.199 91.7973 201.949 91.4458 201.449C91.0942 200.941 90.9184 200.285 90.9184 199.48V191.172H89.2192V189.449H90.9184V185.945ZM99.1548 189.449H101.159V191.617C101.323 191.195 101.725 190.684 102.366 190.082C103.006 189.473 103.745 189.168 104.581 189.168C104.62 189.168 104.686 189.172 104.78 189.18C104.874 189.188 105.034 189.203 105.26 189.227V191.453C105.135 191.43 105.018 191.414 104.909 191.406C104.807 191.398 104.694 191.395 104.569 191.395C103.506 191.395 102.69 191.738 102.12 192.426C101.549 193.105 101.264 193.891 101.264 194.781V202H99.1548V189.449ZM110.626 198.66C110.626 199.27 110.848 199.75 111.294 200.102C111.739 200.453 112.266 200.629 112.876 200.629C113.618 200.629 114.337 200.457 115.032 200.113C116.204 199.543 116.79 198.609 116.79 197.312V195.613C116.532 195.777 116.2 195.914 115.794 196.023C115.387 196.133 114.989 196.211 114.598 196.258L113.321 196.422C112.555 196.523 111.981 196.684 111.598 196.902C110.95 197.27 110.626 197.855 110.626 198.66ZM115.735 194.395C116.219 194.332 116.544 194.129 116.708 193.785C116.801 193.598 116.848 193.328 116.848 192.977C116.848 192.258 116.59 191.738 116.075 191.418C115.567 191.09 114.837 190.926 113.883 190.926C112.782 190.926 112.001 191.223 111.54 191.816C111.282 192.145 111.114 192.633 111.036 193.281H109.067C109.106 191.734 109.606 190.66 110.567 190.059C111.536 189.449 112.657 189.145 113.93 189.145C115.407 189.145 116.606 189.426 117.528 189.988C118.442 190.551 118.899 191.426 118.899 192.613V199.844C118.899 200.062 118.942 200.238 119.028 200.371C119.122 200.504 119.313 200.57 119.602 200.57C119.696 200.57 119.801 200.566 119.919 200.559C120.036 200.543 120.161 200.523 120.294 200.5V202.059C119.965 202.152 119.715 202.211 119.544 202.234C119.372 202.258 119.137 202.27 118.84 202.27C118.114 202.27 117.587 202.012 117.258 201.496C117.087 201.223 116.965 200.836 116.895 200.336C116.465 200.898 115.848 201.387 115.044 201.801C114.239 202.215 113.352 202.422 112.383 202.422C111.219 202.422 110.266 202.07 109.524 201.367C108.79 200.656 108.423 199.77 108.423 198.707C108.423 197.543 108.786 196.641 109.512 196C110.239 195.359 111.192 194.965 112.372 194.816L115.735 194.395ZM124.288 189.508H126.432V202H124.288V189.508ZM124.288 184.785H126.432V187.176H124.288V184.785ZM131.61 184.785H133.72V202H131.61V184.785Z" fill="#1B360A"/>
<rect x="16.5" y="226.5" width="247" height="63" rx="3.5" fill="white"/>
<path d="M41.082 248.316C43.2617 248.316 44.9531 248.891 46.1562 250.039C47.3594 251.188 48.0273 252.492 48.1602 253.953H45.8867C45.6289 252.844 45.1133 251.965 44.3398 251.316C43.5742 250.668 42.4961 250.344 41.1055 250.344C39.4102 250.344 38.0391 250.941 36.9922 252.137C35.9531 253.324 35.4336 255.148 35.4336 257.609C35.4336 259.625 35.9023 261.262 36.8398 262.52C37.7852 263.77 39.1914 264.395 41.0586 264.395C42.7773 264.395 44.0859 263.734 44.9844 262.414C45.4609 261.719 45.8164 260.805 46.0508 259.672H48.3242C48.1211 261.484 47.4492 263.004 46.3086 264.23C44.9414 265.707 43.0977 266.445 40.7773 266.445C38.7773 266.445 37.0977 265.84 35.7383 264.629C33.9492 263.027 33.0547 260.555 33.0547 257.211C33.0547 254.672 33.7266 252.59 35.0703 250.965C36.5234 249.199 38.5273 248.316 41.082 248.316ZM57.7911 264.641C59.1895 264.641 60.1466 264.113 60.6622 263.059C61.1856 261.996 61.4473 260.816 61.4473 259.52C61.4473 258.348 61.2598 257.395 60.8848 256.66C60.2911 255.504 59.2677 254.926 57.8145 254.926C56.5255 254.926 55.588 255.418 55.002 256.402C54.4161 257.387 54.1231 258.574 54.1231 259.965C54.1231 261.301 54.4161 262.414 55.002 263.305C55.588 264.195 56.5177 264.641 57.7911 264.641ZM57.8731 253.086C59.4903 253.086 60.8575 253.625 61.9747 254.703C63.0919 255.781 63.6505 257.367 63.6505 259.461C63.6505 261.484 63.1583 263.156 62.1739 264.477C61.1895 265.797 59.6622 266.457 57.5919 266.457C55.8653 266.457 54.4942 265.875 53.4786 264.711C52.463 263.539 51.9552 261.969 51.9552 260C51.9552 257.891 52.4903 256.211 53.5606 254.961C54.6309 253.711 56.0684 253.086 57.8731 253.086ZM68.09 253.449H70.1759V255.23C70.6759 254.613 71.1291 254.164 71.5353 253.883C72.2306 253.406 73.0197 253.168 73.9025 253.168C74.9025 253.168 75.7072 253.414 76.3166 253.906C76.6603 254.188 76.9728 254.602 77.2541 255.148C77.7228 254.477 78.2736 253.98 78.9064 253.66C79.5392 253.332 80.2502 253.168 81.0392 253.168C82.7267 253.168 83.8752 253.777 84.4845 254.996C84.8127 255.652 84.9767 256.535 84.9767 257.645V266H82.7853V257.281C82.7853 256.445 82.5744 255.871 82.1525 255.559C81.7384 255.246 81.2306 255.09 80.6291 255.09C79.8009 255.09 79.0861 255.367 78.4845 255.922C77.8908 256.477 77.5939 257.402 77.5939 258.699V266H75.4494V257.809C75.4494 256.957 75.3478 256.336 75.1447 255.945C74.8244 255.359 74.2267 255.066 73.3517 255.066C72.5548 255.066 71.8283 255.375 71.172 255.992C70.5236 256.609 70.1994 257.727 70.1994 259.344V266H68.09V253.449ZM90.0022 253.449H92.0881V255.23C92.5881 254.613 93.0412 254.164 93.4475 253.883C94.1428 253.406 94.9319 253.168 95.8147 253.168C96.8147 253.168 97.6194 253.414 98.2287 253.906C98.5725 254.188 98.885 254.602 99.1662 255.148C99.635 254.477 100.186 253.98 100.819 253.66C101.451 253.332 102.162 253.168 102.951 253.168C104.639 253.168 105.787 253.777 106.397 254.996C106.725 255.652 106.889 256.535 106.889 257.645V266H104.697V257.281C104.697 256.445 104.487 255.871 104.065 255.559C103.651 255.246 103.143 255.09 102.541 255.09C101.713 255.09 100.998 255.367 100.397 255.922C99.803 256.477 99.5061 257.402 99.5061 258.699V266H97.3616V257.809C97.3616 256.957 97.26 256.336 97.0569 255.945C96.7366 255.359 96.1389 255.066 95.2639 255.066C94.467 255.066 93.7405 255.375 93.0842 255.992C92.4358 256.609 92.1116 257.727 92.1116 259.344V266H90.0022V253.449ZM117.141 253.168C118.032 253.168 118.895 253.379 119.731 253.801C120.567 254.215 121.203 254.754 121.641 255.418C122.063 256.051 122.344 256.789 122.485 257.633C122.61 258.211 122.672 259.133 122.672 260.398H113.473C113.512 261.672 113.813 262.695 114.375 263.469C114.938 264.234 115.809 264.617 116.989 264.617C118.09 264.617 118.969 264.254 119.625 263.527C120 263.105 120.266 262.617 120.422 262.062H122.496C122.442 262.523 122.258 263.039 121.946 263.609C121.641 264.172 121.297 264.633 120.914 264.992C120.274 265.617 119.481 266.039 118.535 266.258C118.028 266.383 117.453 266.445 116.813 266.445C115.25 266.445 113.926 265.879 112.84 264.746C111.754 263.605 111.211 262.012 111.211 259.965C111.211 257.949 111.758 256.312 112.852 255.055C113.946 253.797 115.375 253.168 117.141 253.168ZM120.504 258.723C120.418 257.809 120.219 257.078 119.907 256.531C119.328 255.516 118.364 255.008 117.012 255.008C116.043 255.008 115.231 255.359 114.575 256.062C113.918 256.758 113.571 257.645 113.532 258.723H120.504ZM127.194 253.449H129.198V255.23C129.791 254.496 130.42 253.969 131.084 253.648C131.748 253.328 132.487 253.168 133.299 253.168C135.08 253.168 136.284 253.789 136.909 255.031C137.252 255.711 137.424 256.684 137.424 257.949V266H135.28V258.09C135.28 257.324 135.166 256.707 134.94 256.238C134.565 255.457 133.885 255.066 132.901 255.066C132.401 255.066 131.991 255.117 131.67 255.219C131.092 255.391 130.584 255.734 130.147 256.25C129.795 256.664 129.565 257.094 129.455 257.539C129.354 257.977 129.303 258.605 129.303 259.426V266H127.194V253.449ZM142.895 249.945H145.028V253.449H147.032V255.172H145.028V263.363C145.028 263.801 145.176 264.094 145.473 264.242C145.637 264.328 145.911 264.371 146.293 264.371C146.395 264.371 146.504 264.371 146.622 264.371C146.739 264.363 146.875 264.352 147.032 264.336V266C146.79 266.07 146.536 266.121 146.27 266.152C146.012 266.184 145.731 266.199 145.426 266.199C144.442 266.199 143.774 265.949 143.422 265.449C143.071 264.941 142.895 264.285 142.895 263.48V255.172H141.196V253.449H142.895V249.945ZM152.327 262.062C152.389 262.766 152.565 263.305 152.854 263.68C153.385 264.359 154.307 264.699 155.62 264.699C156.401 264.699 157.088 264.531 157.682 264.195C158.276 263.852 158.573 263.324 158.573 262.613C158.573 262.074 158.335 261.664 157.858 261.383C157.553 261.211 156.952 261.012 156.053 260.785L154.378 260.363C153.307 260.098 152.518 259.801 152.01 259.473C151.104 258.902 150.651 258.113 150.651 257.105C150.651 255.918 151.077 254.957 151.928 254.223C152.788 253.488 153.94 253.121 155.385 253.121C157.276 253.121 158.639 253.676 159.475 254.785C159.999 255.488 160.253 256.246 160.237 257.059H158.245C158.206 256.582 158.038 256.148 157.741 255.758C157.256 255.203 156.417 254.926 155.221 254.926C154.424 254.926 153.819 255.078 153.405 255.383C152.999 255.688 152.795 256.09 152.795 256.59C152.795 257.137 153.065 257.574 153.604 257.902C153.917 258.098 154.378 258.27 154.987 258.418L156.381 258.758C157.897 259.125 158.913 259.48 159.428 259.824C160.249 260.363 160.659 261.211 160.659 262.367C160.659 263.484 160.233 264.449 159.381 265.262C158.538 266.074 157.249 266.48 155.514 266.48C153.647 266.48 152.323 266.059 151.542 265.215C150.768 264.363 150.354 263.312 150.299 262.062H152.327Z" fill="#1B360A"/>
<rect x="16.5" y="226.5" width="247" height="63" rx="3.5" stroke="#1B360A"/>
<rect x="0.5" y="162.5" width="279" height="143" rx="3.5" stroke="#1B360A"/>
<rect x="312.5" y="162.5" width="279" height="383" rx="3.5" fill="white"/>
<path d="M336.438 200.008C337.227 200.008 337.875 199.926 338.383 199.762C339.289 199.457 340.031 198.871 340.609 198.004C341.07 197.309 341.402 196.418 341.605 195.332C341.723 194.684 341.781 194.082 341.781 193.527C341.781 191.395 341.355 189.738 340.504 188.559C339.66 187.379 338.297 186.789 336.414 186.789H332.277V200.008H336.438ZM329.934 184.785H336.906C339.273 184.785 341.109 185.625 342.414 187.305C343.578 188.82 344.16 190.762 344.16 193.129C344.16 194.957 343.816 196.609 343.129 198.086C341.918 200.695 339.836 202 336.883 202H329.934V184.785ZM353.791 200.641C355.19 200.641 356.147 200.113 356.662 199.059C357.186 197.996 357.447 196.816 357.447 195.52C357.447 194.348 357.26 193.395 356.885 192.66C356.291 191.504 355.268 190.926 353.815 190.926C352.525 190.926 351.588 191.418 351.002 192.402C350.416 193.387 350.123 194.574 350.123 195.965C350.123 197.301 350.416 198.414 351.002 199.305C351.588 200.195 352.518 200.641 353.791 200.641ZM353.873 189.086C355.49 189.086 356.858 189.625 357.975 190.703C359.092 191.781 359.65 193.367 359.65 195.461C359.65 197.484 359.158 199.156 358.174 200.477C357.19 201.797 355.662 202.457 353.592 202.457C351.865 202.457 350.494 201.875 349.479 200.711C348.463 199.539 347.955 197.969 347.955 196C347.955 193.891 348.49 192.211 349.561 190.961C350.631 189.711 352.068 189.086 353.873 189.086ZM368.93 189.086C370.344 189.086 371.492 189.43 372.375 190.117C373.266 190.805 373.801 191.988 373.981 193.668H371.93C371.805 192.895 371.52 192.254 371.074 191.746C370.629 191.23 369.914 190.973 368.93 190.973C367.586 190.973 366.625 191.629 366.047 192.941C365.672 193.793 365.485 194.844 365.485 196.094C365.485 197.352 365.75 198.41 366.281 199.27C366.813 200.129 367.649 200.559 368.789 200.559C369.664 200.559 370.356 200.293 370.863 199.762C371.379 199.223 371.735 198.488 371.93 197.559H373.981C373.746 199.223 373.16 200.441 372.223 201.215C371.285 201.98 370.086 202.363 368.625 202.363C366.985 202.363 365.676 201.766 364.699 200.57C363.723 199.367 363.235 197.867 363.235 196.07C363.235 193.867 363.77 192.152 364.84 190.926C365.91 189.699 367.274 189.086 368.93 189.086ZM380.119 189.449V197.781C380.119 198.422 380.221 198.945 380.424 199.352C380.799 200.102 381.498 200.477 382.522 200.477C383.99 200.477 384.99 199.82 385.522 198.508C385.811 197.805 385.955 196.84 385.955 195.613V189.449H388.065V202H386.072L386.096 200.148C385.822 200.625 385.483 201.027 385.076 201.355C384.272 202.012 383.295 202.34 382.147 202.34C380.358 202.34 379.139 201.742 378.49 200.547C378.139 199.906 377.963 199.051 377.963 197.98V189.449H380.119ZM393.289 189.449H395.375V191.23C395.875 190.613 396.328 190.164 396.735 189.883C397.43 189.406 398.219 189.168 399.102 189.168C400.102 189.168 400.907 189.414 401.516 189.906C401.86 190.188 402.172 190.602 402.453 191.148C402.922 190.477 403.473 189.98 404.106 189.66C404.739 189.332 405.45 189.168 406.239 189.168C407.926 189.168 409.075 189.777 409.684 190.996C410.012 191.652 410.176 192.535 410.176 193.645V202H407.985V193.281C407.985 192.445 407.774 191.871 407.352 191.559C406.938 191.246 406.43 191.09 405.828 191.09C405 191.09 404.285 191.367 403.684 191.922C403.09 192.477 402.793 193.402 402.793 194.699V202H400.649V193.809C400.649 192.957 400.547 192.336 400.344 191.945C400.024 191.359 399.426 191.066 398.551 191.066C397.754 191.066 397.028 191.375 396.371 191.992C395.723 192.609 395.399 193.727 395.399 195.344V202H393.289V189.449ZM420.428 189.168C421.319 189.168 422.182 189.379 423.018 189.801C423.854 190.215 424.491 190.754 424.928 191.418C425.35 192.051 425.631 192.789 425.772 193.633C425.897 194.211 425.959 195.133 425.959 196.398H416.76C416.799 197.672 417.1 198.695 417.662 199.469C418.225 200.234 419.096 200.617 420.276 200.617C421.377 200.617 422.256 200.254 422.912 199.527C423.287 199.105 423.553 198.617 423.709 198.062H425.784C425.729 198.523 425.545 199.039 425.233 199.609C424.928 200.172 424.584 200.633 424.202 200.992C423.561 201.617 422.768 202.039 421.823 202.258C421.315 202.383 420.741 202.445 420.1 202.445C418.537 202.445 417.213 201.879 416.127 200.746C415.041 199.605 414.498 198.012 414.498 195.965C414.498 193.949 415.045 192.312 416.139 191.055C417.233 189.797 418.662 189.168 420.428 189.168ZM423.791 194.723C423.705 193.809 423.506 193.078 423.194 192.531C422.616 191.516 421.651 191.008 420.299 191.008C419.33 191.008 418.518 191.359 417.862 192.062C417.205 192.758 416.858 193.645 416.819 194.723H423.791ZM430.481 189.449H432.485V191.23C433.079 190.496 433.707 189.969 434.372 189.648C435.036 189.328 435.774 189.168 436.586 189.168C438.368 189.168 439.571 189.789 440.196 191.031C440.54 191.711 440.711 192.684 440.711 193.949V202H438.567V194.09C438.567 193.324 438.454 192.707 438.227 192.238C437.852 191.457 437.172 191.066 436.188 191.066C435.688 191.066 435.278 191.117 434.957 191.219C434.379 191.391 433.872 191.734 433.434 192.25C433.082 192.664 432.852 193.094 432.743 193.539C432.641 193.977 432.59 194.605 432.59 195.426V202H430.481V189.449ZM446.182 185.945H448.315V189.449H450.319V191.172H448.315V199.363C448.315 199.801 448.463 200.094 448.76 200.242C448.924 200.328 449.198 200.371 449.581 200.371C449.682 200.371 449.792 200.371 449.909 200.371C450.026 200.363 450.163 200.352 450.319 200.336V202C450.077 202.07 449.823 202.121 449.557 202.152C449.299 202.184 449.018 202.199 448.713 202.199C447.729 202.199 447.061 201.949 446.71 201.449C446.358 200.941 446.182 200.285 446.182 199.48V191.172H444.483V189.449H446.182V185.945ZM468.257 200.582C469.241 200.582 470.057 200.172 470.706 199.352C471.362 198.523 471.69 197.289 471.69 195.648C471.69 194.648 471.546 193.789 471.257 193.07C470.71 191.688 469.71 190.996 468.257 190.996C466.796 190.996 465.796 191.727 465.257 193.188C464.967 193.969 464.823 194.961 464.823 196.164C464.823 197.133 464.967 197.957 465.257 198.637C465.803 199.934 466.803 200.582 468.257 200.582ZM462.796 189.508H464.846V191.172C465.268 190.602 465.729 190.16 466.229 189.848C466.94 189.379 467.776 189.145 468.737 189.145C470.159 189.145 471.366 189.691 472.358 190.785C473.35 191.871 473.846 193.426 473.846 195.449C473.846 198.184 473.132 200.137 471.702 201.309C470.796 202.051 469.741 202.422 468.538 202.422C467.592 202.422 466.8 202.215 466.159 201.801C465.784 201.566 465.366 201.164 464.905 200.594V207.004H462.796V189.508ZM478.298 189.449H480.302V191.617C480.466 191.195 480.868 190.684 481.509 190.082C482.149 189.473 482.887 189.168 483.723 189.168C483.762 189.168 483.829 189.172 483.923 189.18C484.016 189.188 484.177 189.203 484.403 189.227V191.453C484.278 191.43 484.161 191.414 484.052 191.406C483.95 191.398 483.837 191.395 483.712 191.395C482.649 191.395 481.833 191.738 481.262 192.426C480.692 193.105 480.407 193.891 480.407 194.781V202H478.298V189.449ZM493.378 189.168C494.268 189.168 495.132 189.379 495.968 189.801C496.804 190.215 497.44 190.754 497.878 191.418C498.3 192.051 498.581 192.789 498.722 193.633C498.847 194.211 498.909 195.133 498.909 196.398H489.71C489.749 197.672 490.05 198.695 490.612 199.469C491.175 200.234 492.046 200.617 493.225 200.617C494.327 200.617 495.206 200.254 495.862 199.527C496.237 199.105 496.503 198.617 496.659 198.062H498.733C498.679 198.523 498.495 199.039 498.182 199.609C497.878 200.172 497.534 200.633 497.151 200.992C496.511 201.617 495.718 202.039 494.772 202.258C494.265 202.383 493.69 202.445 493.05 202.445C491.487 202.445 490.163 201.879 489.077 200.746C487.991 199.605 487.448 198.012 487.448 195.965C487.448 193.949 487.995 192.312 489.089 191.055C490.182 189.797 491.612 189.168 493.378 189.168ZM496.741 194.723C496.655 193.809 496.456 193.078 496.143 192.531C495.565 191.516 494.6 191.008 493.249 191.008C492.28 191.008 491.468 191.359 490.811 192.062C490.155 192.758 489.807 193.645 489.768 194.723H496.741ZM504.462 189.449L507.813 199.668L511.317 189.449H513.626L508.892 202H506.642L502.013 189.449H504.462ZM517.351 189.508H519.495V202H517.351V189.508ZM517.351 184.785H519.495V187.176H517.351V184.785ZM529.841 189.168C530.732 189.168 531.595 189.379 532.431 189.801C533.267 190.215 533.903 190.754 534.341 191.418C534.763 192.051 535.044 192.789 535.185 193.633C535.31 194.211 535.372 195.133 535.372 196.398H526.173C526.212 197.672 526.513 198.695 527.075 199.469C527.638 200.234 528.509 200.617 529.689 200.617C530.79 200.617 531.669 200.254 532.325 199.527C532.7 199.105 532.966 198.617 533.122 198.062H535.196C535.142 198.523 534.958 199.039 534.646 199.609C534.341 200.172 533.997 200.633 533.614 200.992C532.974 201.617 532.181 202.039 531.235 202.258C530.728 202.383 530.153 202.445 529.513 202.445C527.95 202.445 526.626 201.879 525.54 200.746C524.454 199.605 523.911 198.012 523.911 195.965C523.911 193.949 524.458 192.312 525.552 191.055C526.646 189.797 528.075 189.168 529.841 189.168ZM533.204 194.723C533.118 193.809 532.919 193.078 532.607 192.531C532.028 191.516 531.064 191.008 529.712 191.008C528.743 191.008 527.931 191.359 527.275 192.062C526.618 192.758 526.271 193.645 526.232 194.723H533.204ZM540.866 189.449L543.28 199.34L545.73 189.449H548.097L550.558 199.281L553.124 189.449H555.234L551.589 202H549.398L546.843 192.285L544.37 202H542.179L538.558 189.449H540.866ZM560.411 198.062C560.474 198.766 560.65 199.305 560.939 199.68C561.47 200.359 562.392 200.699 563.704 200.699C564.486 200.699 565.173 200.531 565.767 200.195C566.361 199.852 566.658 199.324 566.658 198.613C566.658 198.074 566.419 197.664 565.943 197.383C565.638 197.211 565.036 197.012 564.138 196.785L562.462 196.363C561.392 196.098 560.603 195.801 560.095 195.473C559.189 194.902 558.736 194.113 558.736 193.105C558.736 191.918 559.161 190.957 560.013 190.223C560.872 189.488 562.025 189.121 563.47 189.121C565.361 189.121 566.724 189.676 567.56 190.785C568.083 191.488 568.337 192.246 568.322 193.059H566.329C566.29 192.582 566.122 192.148 565.825 191.758C565.341 191.203 564.501 190.926 563.306 190.926C562.509 190.926 561.904 191.078 561.49 191.383C561.083 191.688 560.88 192.09 560.88 192.59C560.88 193.137 561.15 193.574 561.689 193.902C562.001 194.098 562.462 194.27 563.072 194.418L564.466 194.758C565.982 195.125 566.997 195.48 567.513 195.824C568.333 196.363 568.743 197.211 568.743 198.367C568.743 199.484 568.318 200.449 567.466 201.262C566.622 202.074 565.333 202.48 563.599 202.48C561.732 202.48 560.408 202.059 559.626 201.215C558.853 200.363 558.439 199.312 558.384 198.062H560.411Z" fill="#1B360A"/>
<rect x="328.5" y="226.5" width="247" height="63" rx="3.5" fill="white"/>
<path d="M354.664 258.945L352.051 251.34L349.273 258.945H354.664ZM350.832 248.785H353.469L359.715 266H357.16L355.414 260.844H348.605L346.742 266H344.352L350.832 248.785ZM364.729 262.062C364.791 262.766 364.967 263.305 365.256 263.68C365.787 264.359 366.709 264.699 368.022 264.699C368.803 264.699 369.49 264.531 370.084 264.195C370.678 263.852 370.975 263.324 370.975 262.613C370.975 262.074 370.736 261.664 370.26 261.383C369.955 261.211 369.354 261.012 368.455 260.785L366.779 260.363C365.709 260.098 364.92 259.801 364.412 259.473C363.506 258.902 363.053 258.113 363.053 257.105C363.053 255.918 363.479 254.957 364.33 254.223C365.19 253.488 366.342 253.121 367.787 253.121C369.678 253.121 371.041 253.676 371.877 254.785C372.4 255.488 372.654 256.246 372.639 257.059H370.647C370.608 256.582 370.44 256.148 370.143 255.758C369.658 255.203 368.818 254.926 367.623 254.926C366.826 254.926 366.221 255.078 365.807 255.383C365.4 255.688 365.197 256.09 365.197 256.59C365.197 257.137 365.467 257.574 366.006 257.902C366.318 258.098 366.779 258.27 367.389 258.418L368.783 258.758C370.299 259.125 371.315 259.48 371.83 259.824C372.65 260.363 373.061 261.211 373.061 262.367C373.061 263.484 372.635 264.449 371.783 265.262C370.94 266.074 369.65 266.48 367.916 266.48C366.049 266.48 364.725 266.059 363.943 265.215C363.17 264.363 362.756 263.312 362.701 262.062H364.729ZM378.649 262.062C378.711 262.766 378.887 263.305 379.176 263.68C379.707 264.359 380.629 264.699 381.942 264.699C382.723 264.699 383.41 264.531 384.004 264.195C384.598 263.852 384.895 263.324 384.895 262.613C384.895 262.074 384.656 261.664 384.18 261.383C383.875 261.211 383.274 261.012 382.375 260.785L380.699 260.363C379.629 260.098 378.84 259.801 378.332 259.473C377.426 258.902 376.973 258.113 376.973 257.105C376.973 255.918 377.399 254.957 378.25 254.223C379.11 253.488 380.262 253.121 381.707 253.121C383.598 253.121 384.961 253.676 385.797 254.785C386.32 255.488 386.574 256.246 386.559 257.059H384.567C384.528 256.582 384.36 256.148 384.063 255.758C383.578 255.203 382.738 254.926 381.543 254.926C380.746 254.926 380.141 255.078 379.727 255.383C379.32 255.688 379.117 256.09 379.117 256.59C379.117 257.137 379.387 257.574 379.926 257.902C380.238 258.098 380.699 258.27 381.309 258.418L382.703 258.758C384.219 259.125 385.235 259.48 385.75 259.824C386.57 260.363 386.981 261.211 386.981 262.367C386.981 263.484 386.555 264.449 385.703 265.262C384.86 266.074 383.57 266.48 381.836 266.48C379.969 266.48 378.645 266.059 377.863 265.215C377.09 264.363 376.676 263.312 376.621 262.062H378.649ZM391.315 253.508H393.459V266H391.315V253.508ZM391.315 248.785H393.459V251.176H391.315V248.785ZM403.008 253.227C403.993 253.227 404.852 253.469 405.586 253.953C405.985 254.227 406.391 254.625 406.805 255.148V253.566H408.75V264.98C408.75 266.574 408.516 267.832 408.047 268.754C407.172 270.457 405.52 271.309 403.09 271.309C401.739 271.309 400.602 271.004 399.68 270.395C398.758 269.793 398.243 268.848 398.133 267.559H400.278C400.379 268.121 400.582 268.555 400.887 268.859C401.364 269.328 402.114 269.562 403.137 269.562C404.754 269.562 405.813 268.992 406.313 267.852C406.61 267.18 406.746 265.98 406.723 264.254C406.301 264.895 405.793 265.371 405.2 265.684C404.606 265.996 403.821 266.152 402.844 266.152C401.485 266.152 400.293 265.672 399.27 264.711C398.254 263.742 397.746 262.145 397.746 259.918C397.746 257.816 398.258 256.176 399.282 254.996C400.313 253.816 401.555 253.227 403.008 253.227ZM406.805 259.672C406.805 258.117 406.485 256.965 405.844 256.215C405.203 255.465 404.387 255.09 403.395 255.09C401.91 255.09 400.895 255.785 400.348 257.176C400.059 257.918 399.914 258.891 399.914 260.094C399.914 261.508 400.2 262.586 400.77 263.328C401.348 264.062 402.121 264.43 403.09 264.43C404.606 264.43 405.672 263.746 406.289 262.379C406.633 261.605 406.805 260.703 406.805 259.672ZM413.858 253.449H415.862V255.23C416.455 254.496 417.084 253.969 417.748 253.648C418.412 253.328 419.151 253.168 419.963 253.168C421.745 253.168 422.948 253.789 423.573 255.031C423.916 255.711 424.088 256.684 424.088 257.949V266H421.944V258.09C421.944 257.324 421.83 256.707 421.604 256.238C421.229 255.457 420.549 255.066 419.565 255.066C419.065 255.066 418.655 255.117 418.334 255.219C417.756 255.391 417.248 255.734 416.811 256.25C416.459 256.664 416.229 257.094 416.12 257.539C416.018 257.977 415.967 258.605 415.967 259.426V266H413.858V253.449ZM434.364 253.168C435.254 253.168 436.118 253.379 436.954 253.801C437.79 254.215 438.426 254.754 438.864 255.418C439.286 256.051 439.567 256.789 439.707 257.633C439.832 258.211 439.895 259.133 439.895 260.398H430.696C430.735 261.672 431.036 262.695 431.598 263.469C432.161 264.234 433.032 264.617 434.211 264.617C435.313 264.617 436.192 264.254 436.848 263.527C437.223 263.105 437.489 262.617 437.645 262.062H439.719C439.665 262.523 439.481 263.039 439.168 263.609C438.864 264.172 438.52 264.633 438.137 264.992C437.497 265.617 436.704 266.039 435.758 266.258C435.25 266.383 434.676 266.445 434.036 266.445C432.473 266.445 431.149 265.879 430.063 264.746C428.977 263.605 428.434 262.012 428.434 259.965C428.434 257.949 428.981 256.312 430.075 255.055C431.168 253.797 432.598 253.168 434.364 253.168ZM437.727 258.723C437.641 257.809 437.442 257.078 437.129 256.531C436.551 255.516 435.586 255.008 434.235 255.008C433.266 255.008 432.454 255.359 431.797 256.062C431.141 256.758 430.793 257.645 430.754 258.723H437.727ZM445.753 259.871C445.753 261.215 446.038 262.34 446.608 263.246C447.178 264.152 448.092 264.605 449.35 264.605C450.327 264.605 451.128 264.188 451.753 263.352C452.385 262.508 452.702 261.301 452.702 259.73C452.702 258.145 452.378 256.973 451.729 256.215C451.081 255.449 450.28 255.066 449.327 255.066C448.264 255.066 447.401 255.473 446.737 256.285C446.081 257.098 445.753 258.293 445.753 259.871ZM448.928 253.227C449.889 253.227 450.694 253.43 451.342 253.836C451.717 254.07 452.143 254.48 452.62 255.066V248.727H454.647V266H452.749V264.254C452.256 265.027 451.674 265.586 451.003 265.93C450.331 266.273 449.561 266.445 448.694 266.445C447.295 266.445 446.085 265.859 445.061 264.688C444.038 263.508 443.526 261.941 443.526 259.988C443.526 258.16 443.991 256.578 444.92 255.242C445.858 253.898 447.194 253.227 448.928 253.227ZM469.55 262.062C469.612 262.766 469.788 263.305 470.077 263.68C470.608 264.359 471.53 264.699 472.842 264.699C473.624 264.699 474.311 264.531 474.905 264.195C475.499 263.852 475.796 263.324 475.796 262.613C475.796 262.074 475.557 261.664 475.081 261.383C474.776 261.211 474.175 261.012 473.276 260.785L471.6 260.363C470.53 260.098 469.741 259.801 469.233 259.473C468.327 258.902 467.874 258.113 467.874 257.105C467.874 255.918 468.3 254.957 469.151 254.223C470.01 253.488 471.163 253.121 472.608 253.121C474.499 253.121 475.862 253.676 476.698 254.785C477.221 255.488 477.475 256.246 477.46 257.059H475.467C475.428 256.582 475.26 256.148 474.964 255.758C474.479 255.203 473.639 254.926 472.444 254.926C471.647 254.926 471.042 255.078 470.628 255.383C470.221 255.688 470.018 256.09 470.018 256.59C470.018 257.137 470.288 257.574 470.827 257.902C471.139 258.098 471.6 258.27 472.21 258.418L473.604 258.758C475.12 259.125 476.135 259.48 476.651 259.824C477.471 260.363 477.882 261.211 477.882 262.367C477.882 263.484 477.456 264.449 476.604 265.262C475.76 266.074 474.471 266.48 472.737 266.48C470.87 266.48 469.546 266.059 468.764 265.215C467.991 264.363 467.577 263.312 467.522 262.062H469.55ZM487.442 253.168C488.333 253.168 489.196 253.379 490.032 253.801C490.868 254.215 491.505 254.754 491.942 255.418C492.364 256.051 492.645 256.789 492.786 257.633C492.911 258.211 492.973 259.133 492.973 260.398H483.774C483.813 261.672 484.114 262.695 484.677 263.469C485.239 264.234 486.11 264.617 487.29 264.617C488.391 264.617 489.27 264.254 489.927 263.527C490.302 263.105 490.567 262.617 490.723 262.062H492.798C492.743 262.523 492.559 263.039 492.247 263.609C491.942 264.172 491.598 264.633 491.216 264.992C490.575 265.617 489.782 266.039 488.837 266.258C488.329 266.383 487.755 266.445 487.114 266.445C485.552 266.445 484.227 265.879 483.141 264.746C482.055 263.605 481.512 262.012 481.512 259.965C481.512 257.949 482.059 256.312 483.153 255.055C484.247 253.797 485.677 253.168 487.442 253.168ZM490.805 258.723C490.72 257.809 490.52 257.078 490.208 256.531C489.63 255.516 488.665 255.008 487.313 255.008C486.345 255.008 485.532 255.359 484.876 256.062C484.22 256.758 483.872 257.645 483.833 258.723H490.805ZM502.335 253.086C503.749 253.086 504.897 253.43 505.78 254.117C506.671 254.805 507.206 255.988 507.386 257.668H505.335C505.21 256.895 504.925 256.254 504.479 255.746C504.034 255.23 503.319 254.973 502.335 254.973C500.991 254.973 500.03 255.629 499.452 256.941C499.077 257.793 498.89 258.844 498.89 260.094C498.89 261.352 499.155 262.41 499.686 263.27C500.218 264.129 501.054 264.559 502.194 264.559C503.069 264.559 503.761 264.293 504.268 263.762C504.784 263.223 505.14 262.488 505.335 261.559H507.386C507.151 263.223 506.565 264.441 505.628 265.215C504.69 265.98 503.491 266.363 502.03 266.363C500.39 266.363 499.081 265.766 498.104 264.57C497.128 263.367 496.64 261.867 496.64 260.07C496.64 257.867 497.175 256.152 498.245 254.926C499.315 253.699 500.679 253.086 502.335 253.086ZM511.837 249.945H513.97V253.449H515.974V255.172H513.97V263.363C513.97 263.801 514.118 264.094 514.415 264.242C514.579 264.328 514.852 264.371 515.235 264.371C515.337 264.371 515.446 264.371 515.563 264.371C515.681 264.363 515.817 264.352 515.974 264.336V266C515.731 266.07 515.477 266.121 515.212 266.152C514.954 266.184 514.673 266.199 514.368 266.199C513.384 266.199 512.716 265.949 512.364 265.449C512.013 264.941 511.837 264.285 511.837 263.48V255.172H510.138V253.449H511.837V249.945ZM520.015 253.508H522.159V266H520.015V253.508ZM520.015 248.785H522.159V251.176H520.015V248.785ZM532.259 264.641C533.657 264.641 534.614 264.113 535.13 263.059C535.653 261.996 535.915 260.816 535.915 259.52C535.915 258.348 535.728 257.395 535.353 256.66C534.759 255.504 533.735 254.926 532.282 254.926C530.993 254.926 530.056 255.418 529.47 256.402C528.884 257.387 528.591 258.574 528.591 259.965C528.591 261.301 528.884 262.414 529.47 263.305C530.056 264.195 530.985 264.641 532.259 264.641ZM532.341 253.086C533.958 253.086 535.325 253.625 536.443 254.703C537.56 255.781 538.118 257.367 538.118 259.461C538.118 261.484 537.626 263.156 536.642 264.477C535.657 265.797 534.13 266.457 532.06 266.457C530.333 266.457 528.962 265.875 527.946 264.711C526.931 263.539 526.423 261.969 526.423 260C526.423 257.891 526.958 256.211 528.028 254.961C529.099 253.711 530.536 253.086 532.341 253.086ZM542.558 253.449H544.562V255.23C545.155 254.496 545.784 253.969 546.448 253.648C547.113 253.328 547.851 253.168 548.663 253.168C550.445 253.168 551.648 253.789 552.273 255.031C552.616 255.711 552.788 256.684 552.788 257.949V266H550.644V258.09C550.644 257.324 550.53 256.707 550.304 256.238C549.929 255.457 549.249 255.066 548.265 255.066C547.765 255.066 547.355 255.117 547.034 255.219C546.456 255.391 545.948 255.734 545.511 256.25C545.159 256.664 544.929 257.094 544.82 257.539C544.718 257.977 544.667 258.605 544.667 259.426V266H542.558V253.449Z" fill="#1B360A"/>
<rect x="328.5" y="226.5" width="247" height="63" rx="3.5" stroke="#1B360A"/>
<rect x="328.5" y="306.5" width="247" height="63" rx="3.5" fill="white"/>
<path d="M353.258 328.316C356.297 328.316 358.547 329.293 360.008 331.246C361.148 332.77 361.719 334.719 361.719 337.094C361.719 339.664 361.066 341.801 359.762 343.504C358.23 345.504 356.047 346.504 353.211 346.504C350.562 346.504 348.48 345.629 346.965 343.879C345.613 342.191 344.938 340.059 344.938 337.48C344.938 335.152 345.516 333.16 346.672 331.504C348.156 329.379 350.352 328.316 353.258 328.316ZM353.492 344.418C355.547 344.418 357.031 343.684 357.945 342.215C358.867 340.738 359.328 339.043 359.328 337.129C359.328 335.105 358.797 333.477 357.734 332.242C356.68 331.008 355.234 330.391 353.398 330.391C351.617 330.391 350.164 331.004 349.039 332.23C347.914 333.449 347.352 335.25 347.352 337.633C347.352 339.539 347.832 341.148 348.793 342.461C349.762 343.766 351.328 344.418 353.492 344.418ZM366.205 333.449H368.209V335.617C368.373 335.195 368.775 334.684 369.416 334.082C370.057 333.473 370.795 333.168 371.631 333.168C371.67 333.168 371.736 333.172 371.83 333.18C371.924 333.188 372.084 333.203 372.311 333.227V335.453C372.186 335.43 372.068 335.414 371.959 335.406C371.858 335.398 371.744 335.395 371.619 335.395C370.557 335.395 369.74 335.738 369.17 336.426C368.6 337.105 368.315 337.891 368.315 338.781V346H366.205V333.449ZM376.059 333.508H378.203V346H376.059V333.508ZM376.059 328.785H378.203V331.176H376.059V328.785ZM387.752 333.227C388.737 333.227 389.596 333.469 390.33 333.953C390.729 334.227 391.135 334.625 391.549 335.148V333.566H393.494V344.98C393.494 346.574 393.26 347.832 392.791 348.754C391.916 350.457 390.264 351.309 387.834 351.309C386.483 351.309 385.346 351.004 384.424 350.395C383.502 349.793 382.987 348.848 382.877 347.559H385.022C385.123 348.121 385.326 348.555 385.631 348.859C386.108 349.328 386.858 349.562 387.881 349.562C389.498 349.562 390.557 348.992 391.057 347.852C391.354 347.18 391.49 345.98 391.467 344.254C391.045 344.895 390.537 345.371 389.944 345.684C389.35 345.996 388.565 346.152 387.588 346.152C386.229 346.152 385.037 345.672 384.014 344.711C382.998 343.742 382.49 342.145 382.49 339.918C382.49 337.816 383.002 336.176 384.026 334.996C385.057 333.816 386.299 333.227 387.752 333.227ZM391.549 339.672C391.549 338.117 391.229 336.965 390.588 336.215C389.947 335.465 389.131 335.09 388.139 335.09C386.655 335.09 385.639 335.785 385.092 337.176C384.803 337.918 384.658 338.891 384.658 340.094C384.658 341.508 384.944 342.586 385.514 343.328C386.092 344.062 386.865 344.43 387.834 344.43C389.35 344.43 390.416 343.746 391.033 342.379C391.377 341.605 391.549 340.703 391.549 339.672ZM398.602 333.508H400.746V346H398.602V333.508ZM398.602 328.785H400.746V331.176H398.602V328.785ZM405.866 333.449H407.87V335.23C408.463 334.496 409.092 333.969 409.756 333.648C410.42 333.328 411.159 333.168 411.971 333.168C413.752 333.168 414.955 333.789 415.58 335.031C415.924 335.711 416.096 336.684 416.096 337.949V346H413.952V338.09C413.952 337.324 413.838 336.707 413.612 336.238C413.237 335.457 412.557 335.066 411.573 335.066C411.073 335.066 410.662 335.117 410.342 335.219C409.764 335.391 409.256 335.734 408.819 336.25C408.467 336.664 408.237 337.094 408.127 337.539C408.026 337.977 407.975 338.605 407.975 339.426V346H405.866V333.449ZM422.762 342.66C422.762 343.27 422.985 343.75 423.43 344.102C423.875 344.453 424.403 344.629 425.012 344.629C425.754 344.629 426.473 344.457 427.168 344.113C428.34 343.543 428.926 342.609 428.926 341.312V339.613C428.668 339.777 428.336 339.914 427.93 340.023C427.524 340.133 427.125 340.211 426.735 340.258L425.457 340.422C424.692 340.523 424.118 340.684 423.735 340.902C423.086 341.27 422.762 341.855 422.762 342.66ZM427.872 338.395C428.356 338.332 428.68 338.129 428.844 337.785C428.938 337.598 428.985 337.328 428.985 336.977C428.985 336.258 428.727 335.738 428.211 335.418C427.704 335.09 426.973 334.926 426.02 334.926C424.918 334.926 424.137 335.223 423.676 335.816C423.418 336.145 423.25 336.633 423.172 337.281H421.204C421.243 335.734 421.743 334.66 422.704 334.059C423.672 333.449 424.793 333.145 426.067 333.145C427.543 333.145 428.743 333.426 429.665 333.988C430.579 334.551 431.036 335.426 431.036 336.613V343.844C431.036 344.062 431.079 344.238 431.165 344.371C431.258 344.504 431.45 344.57 431.739 344.57C431.832 344.57 431.938 344.566 432.055 344.559C432.172 344.543 432.297 344.523 432.43 344.5V346.059C432.102 346.152 431.852 346.211 431.68 346.234C431.508 346.258 431.274 346.27 430.977 346.27C430.25 346.27 429.723 346.012 429.395 345.496C429.223 345.223 429.102 344.836 429.032 344.336C428.602 344.898 427.985 345.387 427.18 345.801C426.375 346.215 425.489 346.422 424.52 346.422C423.356 346.422 422.403 346.07 421.661 345.367C420.926 344.656 420.559 343.77 420.559 342.707C420.559 341.543 420.922 340.641 421.649 340C422.375 339.359 423.329 338.965 424.508 338.816L427.872 338.395ZM436.483 328.785H438.592V346H436.483V328.785ZM457.128 333.086C458.542 333.086 459.69 333.43 460.573 334.117C461.464 334.805 461.999 335.988 462.178 337.668H460.128C460.003 336.895 459.717 336.254 459.272 335.746C458.827 335.23 458.112 334.973 457.128 334.973C455.784 334.973 454.823 335.629 454.245 336.941C453.87 337.793 453.682 338.844 453.682 340.094C453.682 341.352 453.948 342.41 454.479 343.27C455.01 344.129 455.846 344.559 456.987 344.559C457.862 344.559 458.553 344.293 459.061 343.762C459.577 343.223 459.932 342.488 460.128 341.559H462.178C461.944 343.223 461.358 344.441 460.421 345.215C459.483 345.98 458.284 346.363 456.823 346.363C455.182 346.363 453.874 345.766 452.897 344.57C451.921 343.367 451.432 341.867 451.432 340.07C451.432 337.867 451.967 336.152 453.038 334.926C454.108 333.699 455.471 333.086 457.128 333.086ZM471.188 344.641C472.587 344.641 473.544 344.113 474.059 343.059C474.583 341.996 474.845 340.816 474.845 339.52C474.845 338.348 474.657 337.395 474.282 336.66C473.688 335.504 472.665 334.926 471.212 334.926C469.923 334.926 468.985 335.418 468.399 336.402C467.813 337.387 467.52 338.574 467.52 339.965C467.52 341.301 467.813 342.414 468.399 343.305C468.985 344.195 469.915 344.641 471.188 344.641ZM471.27 333.086C472.887 333.086 474.255 333.625 475.372 334.703C476.489 335.781 477.048 337.367 477.048 339.461C477.048 341.484 476.555 343.156 475.571 344.477C474.587 345.797 473.059 346.457 470.989 346.457C469.262 346.457 467.891 345.875 466.876 344.711C465.86 343.539 465.352 341.969 465.352 340C465.352 337.891 465.887 336.211 466.958 334.961C468.028 333.711 469.466 333.086 471.27 333.086ZM481.487 333.449H483.491V335.23C484.085 334.496 484.714 333.969 485.378 333.648C486.042 333.328 486.78 333.168 487.593 333.168C489.374 333.168 490.577 333.789 491.202 335.031C491.546 335.711 491.718 336.684 491.718 337.949V346H489.573V338.09C489.573 337.324 489.46 336.707 489.233 336.238C488.858 335.457 488.179 335.066 487.194 335.066C486.694 335.066 486.284 335.117 485.964 335.219C485.386 335.391 484.878 335.734 484.44 336.25C484.089 336.664 483.858 337.094 483.749 337.539C483.647 337.977 483.597 338.605 483.597 339.426V346H481.487V333.449ZM497.188 329.945H499.321V333.449H501.325V335.172H499.321V343.363C499.321 343.801 499.47 344.094 499.767 344.242C499.931 344.328 500.204 344.371 500.587 344.371C500.688 344.371 500.798 344.371 500.915 344.371C501.032 344.363 501.169 344.352 501.325 344.336V346C501.083 346.07 500.829 346.121 500.563 346.152C500.306 346.184 500.024 346.199 499.72 346.199C498.735 346.199 498.067 345.949 497.716 345.449C497.364 344.941 497.188 344.285 497.188 343.48V335.172H495.489V333.449H497.188V329.945ZM510.593 333.168C511.483 333.168 512.347 333.379 513.183 333.801C514.019 334.215 514.655 334.754 515.093 335.418C515.515 336.051 515.796 336.789 515.937 337.633C516.062 338.211 516.124 339.133 516.124 340.398H506.925C506.964 341.672 507.265 342.695 507.827 343.469C508.39 344.234 509.261 344.617 510.44 344.617C511.542 344.617 512.421 344.254 513.077 343.527C513.452 343.105 513.718 342.617 513.874 342.062H515.948C515.894 342.523 515.71 343.039 515.398 343.609C515.093 344.172 514.749 344.633 514.366 344.992C513.726 345.617 512.933 346.039 511.987 346.258C511.48 346.383 510.905 346.445 510.265 346.445C508.702 346.445 507.378 345.879 506.292 344.746C505.206 343.605 504.663 342.012 504.663 339.965C504.663 337.949 505.21 336.312 506.304 335.055C507.398 333.797 508.827 333.168 510.593 333.168ZM513.956 338.723C513.87 337.809 513.671 337.078 513.358 336.531C512.78 335.516 511.815 335.008 510.464 335.008C509.495 335.008 508.683 335.359 508.026 336.062C507.37 336.758 507.023 337.645 506.983 338.723H513.956ZM520.646 333.449H522.65V335.23C523.243 334.496 523.872 333.969 524.536 333.648C525.2 333.328 525.939 333.168 526.751 333.168C528.532 333.168 529.735 333.789 530.36 335.031C530.704 335.711 530.876 336.684 530.876 337.949V346H528.732V338.09C528.732 337.324 528.618 336.707 528.392 336.238C528.017 335.457 527.337 335.066 526.353 335.066C525.853 335.066 525.443 335.117 525.122 335.219C524.544 335.391 524.036 335.734 523.599 336.25C523.247 336.664 523.017 337.094 522.907 337.539C522.806 337.977 522.755 338.605 522.755 339.426V346H520.646V333.449ZM536.347 329.945H538.48V333.449H540.484V335.172H538.48V343.363C538.48 343.801 538.628 344.094 538.925 344.242C539.089 344.328 539.363 344.371 539.745 344.371C539.847 344.371 539.956 344.371 540.073 344.371C540.191 344.363 540.327 344.352 540.484 344.336V346C540.241 346.07 539.988 346.121 539.722 346.152C539.464 346.184 539.183 346.199 538.878 346.199C537.894 346.199 537.226 345.949 536.874 345.449C536.523 344.941 536.347 344.285 536.347 343.48V335.172H534.648V333.449H536.347V329.945Z" fill="#1B360A"/>
<rect x="328.5" y="306.5" width="247" height="63" rx="3.5" stroke="#1B360A"/>
<rect x="328.5" y="386.5" width="247" height="63" rx="3.5" fill="white"/>
<path d="M353.082 408.316C355.262 408.316 356.953 408.891 358.156 410.039C359.359 411.188 360.027 412.492 360.16 413.953H357.887C357.629 412.844 357.113 411.965 356.34 411.316C355.574 410.668 354.496 410.344 353.105 410.344C351.41 410.344 350.039 410.941 348.992 412.137C347.953 413.324 347.434 415.148 347.434 417.609C347.434 419.625 347.902 421.262 348.84 422.52C349.785 423.77 351.191 424.395 353.059 424.395C354.777 424.395 356.086 423.734 356.984 422.414C357.461 421.719 357.816 420.805 358.051 419.672H360.324C360.121 421.484 359.449 423.004 358.309 424.23C356.941 425.707 355.098 426.445 352.777 426.445C350.777 426.445 349.098 425.84 347.738 424.629C345.949 423.027 345.055 420.555 345.055 417.211C345.055 414.672 345.727 412.59 347.07 410.965C348.523 409.199 350.527 408.316 353.082 408.316ZM364.811 408.727H366.92V415.148C367.42 414.516 367.869 414.07 368.268 413.812C368.947 413.367 369.795 413.145 370.811 413.145C372.631 413.145 373.865 413.781 374.514 415.055C374.865 415.75 375.041 416.715 375.041 417.949V426H372.873V418.09C372.873 417.168 372.756 416.492 372.522 416.062C372.139 415.375 371.42 415.031 370.365 415.031C369.49 415.031 368.697 415.332 367.986 415.934C367.275 416.535 366.92 417.672 366.92 419.344V426H364.811V408.727ZM381.707 422.66C381.707 423.27 381.93 423.75 382.375 424.102C382.82 424.453 383.348 424.629 383.957 424.629C384.699 424.629 385.418 424.457 386.113 424.113C387.285 423.543 387.871 422.609 387.871 421.312V419.613C387.613 419.777 387.281 419.914 386.875 420.023C386.469 420.133 386.07 420.211 385.68 420.258L384.403 420.422C383.637 420.523 383.063 420.684 382.68 420.902C382.031 421.27 381.707 421.855 381.707 422.66ZM386.817 418.395C387.301 418.332 387.625 418.129 387.789 417.785C387.883 417.598 387.93 417.328 387.93 416.977C387.93 416.258 387.672 415.738 387.156 415.418C386.649 415.09 385.918 414.926 384.965 414.926C383.863 414.926 383.082 415.223 382.621 415.816C382.363 416.145 382.195 416.633 382.117 417.281H380.149C380.188 415.734 380.688 414.66 381.649 414.059C382.617 413.449 383.738 413.145 385.012 413.145C386.488 413.145 387.688 413.426 388.61 413.988C389.524 414.551 389.981 415.426 389.981 416.613V423.844C389.981 424.062 390.024 424.238 390.11 424.371C390.203 424.504 390.395 424.57 390.684 424.57C390.778 424.57 390.883 424.566 391 424.559C391.117 424.543 391.242 424.523 391.375 424.5V426.059C391.047 426.152 390.797 426.211 390.625 426.234C390.453 426.258 390.219 426.27 389.922 426.27C389.195 426.27 388.668 426.012 388.34 425.496C388.168 425.223 388.047 424.836 387.977 424.336C387.547 424.898 386.93 425.387 386.125 425.801C385.32 426.215 384.434 426.422 383.465 426.422C382.301 426.422 381.348 426.07 380.606 425.367C379.871 424.656 379.504 423.77 379.504 422.707C379.504 421.543 379.867 420.641 380.594 420C381.32 419.359 382.274 418.965 383.453 418.816L386.817 418.395ZM395.369 413.449H397.373V415.23C397.967 414.496 398.596 413.969 399.26 413.648C399.924 413.328 400.662 413.168 401.475 413.168C403.256 413.168 404.459 413.789 405.084 415.031C405.428 415.711 405.6 416.684 405.6 417.949V426H403.455V418.09C403.455 417.324 403.342 416.707 403.115 416.238C402.74 415.457 402.061 415.066 401.076 415.066C400.576 415.066 400.166 415.117 399.846 415.219C399.268 415.391 398.76 415.734 398.322 416.25C397.971 416.664 397.74 417.094 397.631 417.539C397.53 417.977 397.479 418.605 397.479 419.426V426H395.369V413.449ZM415.078 413.227C416.063 413.227 416.922 413.469 417.657 413.953C418.055 414.227 418.461 414.625 418.875 415.148V413.566H420.821V424.98C420.821 426.574 420.586 427.832 420.118 428.754C419.243 430.457 417.59 431.309 415.16 431.309C413.809 431.309 412.672 431.004 411.75 430.395C410.828 429.793 410.313 428.848 410.203 427.559H412.348C412.45 428.121 412.653 428.555 412.957 428.859C413.434 429.328 414.184 429.562 415.207 429.562C416.825 429.562 417.883 428.992 418.383 427.852C418.68 427.18 418.817 425.98 418.793 424.254C418.371 424.895 417.864 425.371 417.27 425.684C416.676 425.996 415.891 426.152 414.914 426.152C413.555 426.152 412.364 425.672 411.34 424.711C410.325 423.742 409.817 422.145 409.817 419.918C409.817 417.816 410.328 416.176 411.352 414.996C412.383 413.816 413.625 413.227 415.078 413.227ZM418.875 419.672C418.875 418.117 418.555 416.965 417.914 416.215C417.274 415.465 416.457 415.09 415.465 415.09C413.981 415.09 412.965 415.785 412.418 417.176C412.129 417.918 411.985 418.891 411.985 420.094C411.985 421.508 412.27 422.586 412.84 423.328C413.418 424.062 414.192 424.43 415.16 424.43C416.676 424.43 417.743 423.746 418.36 422.379C418.703 421.605 418.875 420.703 418.875 419.672ZM431.155 413.168C432.045 413.168 432.909 413.379 433.745 413.801C434.58 414.215 435.217 414.754 435.655 415.418C436.077 416.051 436.358 416.789 436.498 417.633C436.623 418.211 436.686 419.133 436.686 420.398H427.487C427.526 421.672 427.827 422.695 428.389 423.469C428.952 424.234 429.823 424.617 431.002 424.617C432.104 424.617 432.983 424.254 433.639 423.527C434.014 423.105 434.28 422.617 434.436 422.062H436.51C436.455 422.523 436.272 423.039 435.959 423.609C435.655 424.172 435.311 424.633 434.928 424.992C434.287 425.617 433.495 426.039 432.549 426.258C432.041 426.383 431.467 426.445 430.827 426.445C429.264 426.445 427.94 425.879 426.854 424.746C425.768 423.605 425.225 422.012 425.225 419.965C425.225 417.949 425.772 416.312 426.866 415.055C427.959 413.797 429.389 413.168 431.155 413.168ZM434.518 418.723C434.432 417.809 434.233 417.078 433.92 416.531C433.342 415.516 432.377 415.008 431.026 415.008C430.057 415.008 429.245 415.359 428.588 416.062C427.932 416.758 427.584 417.645 427.545 418.723H434.518ZM442.543 419.871C442.543 421.215 442.829 422.34 443.399 423.246C443.969 424.152 444.883 424.605 446.141 424.605C447.118 424.605 447.918 424.188 448.543 423.352C449.176 422.508 449.493 421.301 449.493 419.73C449.493 418.145 449.168 416.973 448.52 416.215C447.872 415.449 447.071 415.066 446.118 415.066C445.055 415.066 444.192 415.473 443.528 416.285C442.872 417.098 442.543 418.293 442.543 419.871ZM445.719 413.227C446.68 413.227 447.485 413.43 448.133 413.836C448.508 414.07 448.934 414.48 449.411 415.066V408.727H451.438V426H449.54V424.254C449.047 425.027 448.465 425.586 447.793 425.93C447.122 426.273 446.352 426.445 445.485 426.445C444.086 426.445 442.875 425.859 441.852 424.688C440.829 423.508 440.317 421.941 440.317 419.988C440.317 418.16 440.782 416.578 441.711 415.242C442.649 413.898 443.985 413.227 445.719 413.227ZM469.926 413.086C471.34 413.086 472.489 413.43 473.372 414.117C474.262 414.805 474.798 415.988 474.977 417.668H472.926C472.801 416.895 472.516 416.254 472.071 415.746C471.626 415.23 470.911 414.973 469.926 414.973C468.583 414.973 467.622 415.629 467.044 416.941C466.669 417.793 466.481 418.844 466.481 420.094C466.481 421.352 466.747 422.41 467.278 423.27C467.809 424.129 468.645 424.559 469.786 424.559C470.661 424.559 471.352 424.293 471.86 423.762C472.376 423.223 472.731 422.488 472.926 421.559H474.977C474.743 423.223 474.157 424.441 473.219 425.215C472.282 425.98 471.083 426.363 469.622 426.363C467.981 426.363 466.673 425.766 465.696 424.57C464.719 423.367 464.231 421.867 464.231 420.07C464.231 417.867 464.766 416.152 465.837 414.926C466.907 413.699 468.27 413.086 469.926 413.086ZM483.987 424.641C485.385 424.641 486.342 424.113 486.858 423.059C487.382 421.996 487.643 420.816 487.643 419.52C487.643 418.348 487.456 417.395 487.081 416.66C486.487 415.504 485.464 414.926 484.01 414.926C482.721 414.926 481.784 415.418 481.198 416.402C480.612 417.387 480.319 418.574 480.319 419.965C480.319 421.301 480.612 422.414 481.198 423.305C481.784 424.195 482.714 424.641 483.987 424.641ZM484.069 413.086C485.686 413.086 487.053 413.625 488.171 414.703C489.288 415.781 489.846 417.367 489.846 419.461C489.846 421.484 489.354 423.156 488.37 424.477C487.385 425.797 485.858 426.457 483.788 426.457C482.061 426.457 480.69 425.875 479.675 424.711C478.659 423.539 478.151 421.969 478.151 420C478.151 417.891 478.686 416.211 479.757 414.961C480.827 413.711 482.264 413.086 484.069 413.086ZM494.286 413.449H496.29V415.23C496.884 414.496 497.512 413.969 498.177 413.648C498.841 413.328 499.579 413.168 500.391 413.168C502.173 413.168 503.376 413.789 504.001 415.031C504.345 415.711 504.516 416.684 504.516 417.949V426H502.372V418.09C502.372 417.324 502.259 416.707 502.032 416.238C501.657 415.457 500.977 415.066 499.993 415.066C499.493 415.066 499.083 415.117 498.762 415.219C498.184 415.391 497.677 415.734 497.239 416.25C496.887 416.664 496.657 417.094 496.548 417.539C496.446 417.977 496.395 418.605 496.395 419.426V426H494.286V413.449ZM509.987 409.945H512.12V413.449H514.124V415.172H512.12V423.363C512.12 423.801 512.268 424.094 512.565 424.242C512.729 424.328 513.003 424.371 513.386 424.371C513.487 424.371 513.597 424.371 513.714 424.371C513.831 424.363 513.968 424.352 514.124 424.336V426C513.882 426.07 513.628 426.121 513.362 426.152C513.104 426.184 512.823 426.199 512.518 426.199C511.534 426.199 510.866 425.949 510.515 425.449C510.163 424.941 509.987 424.285 509.987 423.48V415.172H508.288V413.449H509.987V409.945ZM523.392 413.168C524.282 413.168 525.145 413.379 525.981 413.801C526.817 414.215 527.454 414.754 527.892 415.418C528.313 416.051 528.595 416.789 528.735 417.633C528.86 418.211 528.923 419.133 528.923 420.398H519.724C519.763 421.672 520.063 422.695 520.626 423.469C521.188 424.234 522.06 424.617 523.239 424.617C524.341 424.617 525.22 424.254 525.876 423.527C526.251 423.105 526.517 422.617 526.673 422.062H528.747C528.692 422.523 528.509 423.039 528.196 423.609C527.892 424.172 527.548 424.633 527.165 424.992C526.524 425.617 525.731 426.039 524.786 426.258C524.278 426.383 523.704 426.445 523.063 426.445C521.501 426.445 520.177 425.879 519.091 424.746C518.005 423.605 517.462 422.012 517.462 419.965C517.462 417.949 518.009 416.312 519.102 415.055C520.196 413.797 521.626 413.168 523.392 413.168ZM526.755 418.723C526.669 417.809 526.47 417.078 526.157 416.531C525.579 415.516 524.614 415.008 523.263 415.008C522.294 415.008 521.481 415.359 520.825 416.062C520.169 416.758 519.821 417.645 519.782 418.723H526.755ZM533.444 413.449H535.448V415.23C536.042 414.496 536.671 413.969 537.335 413.648C537.999 413.328 538.737 413.168 539.55 413.168C541.331 413.168 542.534 413.789 543.159 415.031C543.503 415.711 543.675 416.684 543.675 417.949V426H541.53V418.09C541.53 417.324 541.417 416.707 541.19 416.238C540.815 415.457 540.136 415.066 539.151 415.066C538.651 415.066 538.241 415.117 537.921 415.219C537.343 415.391 536.835 415.734 536.398 416.25C536.046 416.664 535.815 417.094 535.706 417.539C535.605 417.977 535.554 418.605 535.554 419.426V426H533.444V413.449ZM549.146 409.945H551.278V413.449H553.282V415.172H551.278V423.363C551.278 423.801 551.427 424.094 551.724 424.242C551.888 424.328 552.161 424.371 552.544 424.371C552.646 424.371 552.755 424.371 552.872 424.371C552.989 424.363 553.126 424.352 553.282 424.336V426C553.04 426.07 552.786 426.121 552.521 426.152C552.263 426.184 551.982 426.199 551.677 426.199C550.693 426.199 550.025 425.949 549.673 425.449C549.321 424.941 549.146 424.285 549.146 423.48V415.172H547.446V413.449H549.146V409.945Z" fill="#1B360A"/>
<rect x="328.5" y="386.5" width="247" height="63" rx="3.5" stroke="#1B360A"/>
<rect x="328.5" y="466.5" width="247" height="63" rx="3.5" fill="white"/>
<path d="M348.359 488.785V499.426C348.359 500.676 348.594 501.715 349.062 502.543C349.758 503.793 350.93 504.418 352.578 504.418C354.555 504.418 355.898 503.742 356.609 502.391C356.992 501.656 357.184 500.668 357.184 499.426V488.785H359.551V498.453C359.551 500.57 359.266 502.199 358.695 503.34C357.648 505.418 355.672 506.457 352.766 506.457C349.859 506.457 347.887 505.418 346.848 503.34C346.277 502.199 345.992 500.57 345.992 498.453V488.785H348.359ZM370.108 504.582C371.092 504.582 371.908 504.172 372.557 503.352C373.213 502.523 373.541 501.289 373.541 499.648C373.541 498.648 373.397 497.789 373.108 497.07C372.561 495.688 371.561 494.996 370.108 494.996C368.647 494.996 367.647 495.727 367.108 497.188C366.818 497.969 366.674 498.961 366.674 500.164C366.674 501.133 366.818 501.957 367.108 502.637C367.654 503.934 368.654 504.582 370.108 504.582ZM364.647 493.508H366.697V495.172C367.119 494.602 367.58 494.16 368.08 493.848C368.791 493.379 369.627 493.145 370.588 493.145C372.01 493.145 373.217 493.691 374.209 494.785C375.201 495.871 375.697 497.426 375.697 499.449C375.697 502.184 374.983 504.137 373.553 505.309C372.647 506.051 371.592 506.422 370.389 506.422C369.443 506.422 368.65 506.215 368.01 505.801C367.635 505.566 367.217 505.164 366.756 504.594V511.004H364.647V493.508ZM381.426 499.871C381.426 501.215 381.711 502.34 382.281 503.246C382.852 504.152 383.766 504.605 385.024 504.605C386 504.605 386.801 504.188 387.426 503.352C388.059 502.508 388.375 501.301 388.375 499.73C388.375 498.145 388.051 496.973 387.403 496.215C386.754 495.449 385.953 495.066 385 495.066C383.938 495.066 383.074 495.473 382.41 496.285C381.754 497.098 381.426 498.293 381.426 499.871ZM384.602 493.227C385.563 493.227 386.367 493.43 387.016 493.836C387.391 494.07 387.817 494.48 388.293 495.066V488.727H390.32V506H388.422V504.254C387.93 505.027 387.348 505.586 386.676 505.93C386.004 506.273 385.235 506.445 384.367 506.445C382.969 506.445 381.758 505.859 380.735 504.688C379.711 503.508 379.199 501.941 379.199 499.988C379.199 498.16 379.664 496.578 380.594 495.242C381.531 493.898 382.867 493.227 384.602 493.227ZM396.987 502.66C396.987 503.27 397.209 503.75 397.655 504.102C398.1 504.453 398.627 504.629 399.237 504.629C399.979 504.629 400.697 504.457 401.393 504.113C402.565 503.543 403.151 502.609 403.151 501.312V499.613C402.893 499.777 402.561 499.914 402.155 500.023C401.748 500.133 401.35 500.211 400.959 500.258L399.682 500.422C398.916 500.523 398.342 500.684 397.959 500.902C397.311 501.27 396.987 501.855 396.987 502.66ZM402.096 498.395C402.58 498.332 402.905 498.129 403.069 497.785C403.162 497.598 403.209 497.328 403.209 496.977C403.209 496.258 402.951 495.738 402.436 495.418C401.928 495.09 401.197 494.926 400.244 494.926C399.143 494.926 398.362 495.223 397.901 495.816C397.643 496.145 397.475 496.633 397.397 497.281H395.428C395.467 495.734 395.967 494.66 396.928 494.059C397.897 493.449 399.018 493.145 400.291 493.145C401.768 493.145 402.967 493.426 403.889 493.988C404.803 494.551 405.26 495.426 405.26 496.613V503.844C405.26 504.062 405.303 504.238 405.389 504.371C405.483 504.504 405.674 504.57 405.963 504.57C406.057 504.57 406.162 504.566 406.28 504.559C406.397 504.543 406.522 504.523 406.655 504.5V506.059C406.326 506.152 406.076 506.211 405.905 506.234C405.733 506.258 405.498 506.27 405.201 506.27C404.475 506.27 403.947 506.012 403.619 505.496C403.447 505.223 403.326 504.836 403.256 504.336C402.826 504.898 402.209 505.387 401.405 505.801C400.6 506.215 399.713 506.422 398.744 506.422C397.58 506.422 396.627 506.07 395.885 505.367C395.151 504.656 394.783 503.77 394.783 502.707C394.783 501.543 395.147 500.641 395.873 500C396.6 499.359 397.553 498.965 398.733 498.816L402.096 498.395ZM411.071 489.945H413.203V493.449H415.207V495.172H413.203V503.363C413.203 503.801 413.352 504.094 413.649 504.242C413.813 504.328 414.086 504.371 414.469 504.371C414.571 504.371 414.68 504.371 414.797 504.371C414.914 504.363 415.051 504.352 415.207 504.336V506C414.965 506.07 414.711 506.121 414.446 506.152C414.188 506.184 413.907 506.199 413.602 506.199C412.618 506.199 411.95 505.949 411.598 505.449C411.246 504.941 411.071 504.285 411.071 503.48V495.172H409.371V493.449H411.071V489.945ZM424.475 493.168C425.366 493.168 426.229 493.379 427.065 493.801C427.901 494.215 428.537 494.754 428.975 495.418C429.397 496.051 429.678 496.789 429.819 497.633C429.944 498.211 430.006 499.133 430.006 500.398H420.807C420.846 501.672 421.147 502.695 421.709 503.469C422.272 504.234 423.143 504.617 424.323 504.617C425.424 504.617 426.303 504.254 426.959 503.527C427.334 503.105 427.6 502.617 427.756 502.062H429.83C429.776 502.523 429.592 503.039 429.28 503.609C428.975 504.172 428.631 504.633 428.248 504.992C427.608 505.617 426.815 506.039 425.87 506.258C425.362 506.383 424.787 506.445 424.147 506.445C422.584 506.445 421.26 505.879 420.174 504.746C419.088 503.605 418.545 502.012 418.545 499.965C418.545 497.949 419.092 496.312 420.186 495.055C421.28 493.797 422.709 493.168 424.475 493.168ZM427.838 498.723C427.752 497.809 427.553 497.078 427.241 496.531C426.662 495.516 425.698 495.008 424.346 495.008C423.377 495.008 422.565 495.359 421.909 496.062C421.252 496.758 420.905 497.645 420.866 498.723H427.838ZM435.864 499.871C435.864 501.215 436.149 502.34 436.719 503.246C437.29 504.152 438.204 504.605 439.461 504.605C440.438 504.605 441.239 504.188 441.864 503.352C442.497 502.508 442.813 501.301 442.813 499.73C442.813 498.145 442.489 496.973 441.84 496.215C441.192 495.449 440.391 495.066 439.438 495.066C438.375 495.066 437.512 495.473 436.848 496.285C436.192 497.098 435.864 498.293 435.864 499.871ZM439.04 493.227C440 493.227 440.805 493.43 441.454 493.836C441.829 494.07 442.254 494.48 442.731 495.066V488.727H444.758V506H442.86V504.254C442.368 505.027 441.786 505.586 441.114 505.93C440.442 506.273 439.672 506.445 438.805 506.445C437.407 506.445 436.196 505.859 435.172 504.688C434.149 503.508 433.637 501.941 433.637 499.988C433.637 498.16 434.102 496.578 435.032 495.242C435.969 493.898 437.305 493.227 439.04 493.227ZM463.247 493.086C464.661 493.086 465.809 493.43 466.692 494.117C467.583 494.805 468.118 495.988 468.298 497.668H466.247C466.122 496.895 465.837 496.254 465.391 495.746C464.946 495.23 464.231 494.973 463.247 494.973C461.903 494.973 460.942 495.629 460.364 496.941C459.989 497.793 459.801 498.844 459.801 500.094C459.801 501.352 460.067 502.41 460.598 503.27C461.13 504.129 461.965 504.559 463.106 504.559C463.981 504.559 464.673 504.293 465.18 503.762C465.696 503.223 466.051 502.488 466.247 501.559H468.298C468.063 503.223 467.477 504.441 466.54 505.215C465.602 505.98 464.403 506.363 462.942 506.363C461.301 506.363 459.993 505.766 459.016 504.57C458.04 503.367 457.551 501.867 457.551 500.07C457.551 497.867 458.087 496.152 459.157 494.926C460.227 493.699 461.59 493.086 463.247 493.086ZM477.307 504.641C478.706 504.641 479.663 504.113 480.178 503.059C480.702 501.996 480.964 500.816 480.964 499.52C480.964 498.348 480.776 497.395 480.401 496.66C479.807 495.504 478.784 494.926 477.331 494.926C476.042 494.926 475.104 495.418 474.518 496.402C473.932 497.387 473.639 498.574 473.639 499.965C473.639 501.301 473.932 502.414 474.518 503.305C475.104 504.195 476.034 504.641 477.307 504.641ZM477.389 493.086C479.007 493.086 480.374 493.625 481.491 494.703C482.608 495.781 483.167 497.367 483.167 499.461C483.167 501.484 482.675 503.156 481.69 504.477C480.706 505.797 479.178 506.457 477.108 506.457C475.382 506.457 474.01 505.875 472.995 504.711C471.979 503.539 471.471 501.969 471.471 500C471.471 497.891 472.007 496.211 473.077 494.961C474.147 493.711 475.585 493.086 477.389 493.086ZM487.606 493.449H489.61V495.23C490.204 494.496 490.833 493.969 491.497 493.648C492.161 493.328 492.899 493.168 493.712 493.168C495.493 493.168 496.696 493.789 497.321 495.031C497.665 495.711 497.837 496.684 497.837 497.949V506H495.692V498.09C495.692 497.324 495.579 496.707 495.352 496.238C494.977 495.457 494.298 495.066 493.313 495.066C492.813 495.066 492.403 495.117 492.083 495.219C491.505 495.391 490.997 495.734 490.559 496.25C490.208 496.664 489.977 497.094 489.868 497.539C489.766 497.977 489.716 498.605 489.716 499.426V506H487.606V493.449ZM503.307 489.945H505.44V493.449H507.444V495.172H505.44V503.363C505.44 503.801 505.589 504.094 505.886 504.242C506.05 504.328 506.323 504.371 506.706 504.371C506.807 504.371 506.917 504.371 507.034 504.371C507.151 504.363 507.288 504.352 507.444 504.336V506C507.202 506.07 506.948 506.121 506.682 506.152C506.425 506.184 506.143 506.199 505.839 506.199C504.854 506.199 504.186 505.949 503.835 505.449C503.483 504.941 503.307 504.285 503.307 503.48V495.172H501.608V493.449H503.307V489.945ZM516.712 493.168C517.602 493.168 518.466 493.379 519.302 493.801C520.138 494.215 520.774 494.754 521.212 495.418C521.634 496.051 521.915 496.789 522.056 497.633C522.181 498.211 522.243 499.133 522.243 500.398H513.044C513.083 501.672 513.384 502.695 513.946 503.469C514.509 504.234 515.38 504.617 516.56 504.617C517.661 504.617 518.54 504.254 519.196 503.527C519.571 503.105 519.837 502.617 519.993 502.062H522.067C522.013 502.523 521.829 503.039 521.517 503.609C521.212 504.172 520.868 504.633 520.485 504.992C519.845 505.617 519.052 506.039 518.106 506.258C517.599 506.383 517.024 506.445 516.384 506.445C514.821 506.445 513.497 505.879 512.411 504.746C511.325 503.605 510.782 502.012 510.782 499.965C510.782 497.949 511.329 496.312 512.423 495.055C513.517 493.797 514.946 493.168 516.712 493.168ZM520.075 498.723C519.989 497.809 519.79 497.078 519.477 496.531C518.899 495.516 517.935 495.008 516.583 495.008C515.614 495.008 514.802 495.359 514.145 496.062C513.489 496.758 513.142 497.645 513.102 498.723H520.075ZM526.765 493.449H528.769V495.23C529.362 494.496 529.991 493.969 530.655 493.648C531.319 493.328 532.058 493.168 532.87 493.168C534.651 493.168 535.855 493.789 536.48 495.031C536.823 495.711 536.995 496.684 536.995 497.949V506H534.851V498.09C534.851 497.324 534.737 496.707 534.511 496.238C534.136 495.457 533.456 495.066 532.472 495.066C531.972 495.066 531.562 495.117 531.241 495.219C530.663 495.391 530.155 495.734 529.718 496.25C529.366 496.664 529.136 497.094 529.026 497.539C528.925 497.977 528.874 498.605 528.874 499.426V506H526.765V493.449ZM542.466 489.945H544.599V493.449H546.603V495.172H544.599V503.363C544.599 503.801 544.747 504.094 545.044 504.242C545.208 504.328 545.482 504.371 545.864 504.371C545.966 504.371 546.075 504.371 546.193 504.371C546.31 504.363 546.446 504.352 546.603 504.336V506C546.36 506.07 546.107 506.121 545.841 506.152C545.583 506.184 545.302 506.199 544.997 506.199C544.013 506.199 543.345 505.949 542.993 505.449C542.642 504.941 542.466 504.285 542.466 503.48V495.172H540.767V493.449H542.466V489.945Z" fill="#1B360A"/>
<rect x="328.5" y="466.5" width="247" height="63" rx="3.5" stroke="#1B360A"/>
<rect x="312.5" y="162.5" width="279" height="383" rx="3.5" stroke="#1B360A"/>
<rect x="624.5" y="162.5" width="279" height="63" rx="3.5" fill="white"/>
<path d="M643.352 196.445C643.406 197.422 643.637 198.215 644.043 198.824C644.816 199.965 646.18 200.535 648.133 200.535C649.008 200.535 649.805 200.41 650.523 200.16C651.914 199.676 652.609 198.809 652.609 197.559C652.609 196.621 652.316 195.953 651.73 195.555C651.137 195.164 650.207 194.824 648.941 194.535L646.609 194.008C645.086 193.664 644.008 193.285 643.375 192.871C642.281 192.152 641.734 191.078 641.734 189.648C641.734 188.102 642.27 186.832 643.34 185.84C644.41 184.848 645.926 184.352 647.887 184.352C649.691 184.352 651.223 184.789 652.48 185.664C653.746 186.531 654.379 187.922 654.379 189.836H652.188C652.07 188.914 651.82 188.207 651.438 187.715C650.727 186.816 649.52 186.367 647.816 186.367C646.441 186.367 645.453 186.656 644.852 187.234C644.25 187.812 643.949 188.484 643.949 189.25C643.949 190.094 644.301 190.711 645.004 191.102C645.465 191.352 646.508 191.664 648.133 192.039L650.547 192.59C651.711 192.855 652.609 193.219 653.242 193.68C654.336 194.484 654.883 195.652 654.883 197.184C654.883 199.09 654.188 200.453 652.797 201.273C651.414 202.094 649.805 202.504 647.969 202.504C645.828 202.504 644.152 201.957 642.941 200.863C641.73 199.777 641.137 198.305 641.16 196.445H643.352ZM661.584 189.449V197.781C661.584 198.422 661.686 198.945 661.889 199.352C662.264 200.102 662.963 200.477 663.986 200.477C665.455 200.477 666.455 199.82 666.986 198.508C667.275 197.805 667.42 196.84 667.42 195.613V189.449H669.529V202H667.537L667.561 200.148C667.287 200.625 666.947 201.027 666.541 201.355C665.736 202.012 664.76 202.34 663.611 202.34C661.822 202.34 660.604 201.742 659.955 200.547C659.604 199.906 659.428 199.051 659.428 197.98V189.449H661.584ZM674.59 184.727H676.641V190.973C677.102 190.371 677.653 189.914 678.293 189.602C678.934 189.281 679.629 189.121 680.379 189.121C681.942 189.121 683.207 189.66 684.176 190.738C685.153 191.809 685.641 193.391 685.641 195.484C685.641 197.469 685.16 199.117 684.199 200.43C683.238 201.742 681.906 202.398 680.203 202.398C679.25 202.398 678.445 202.168 677.789 201.707C677.399 201.434 676.981 200.996 676.535 200.395V202H674.59V184.727ZM680.074 200.535C681.215 200.535 682.067 200.082 682.629 199.176C683.199 198.27 683.485 197.074 683.485 195.59C683.485 194.27 683.199 193.176 682.629 192.309C682.067 191.441 681.235 191.008 680.133 191.008C679.172 191.008 678.328 191.363 677.602 192.074C676.883 192.785 676.524 193.957 676.524 195.59C676.524 196.77 676.672 197.727 676.969 198.461C677.524 199.844 678.559 200.535 680.074 200.535ZM690.455 185.945H692.588V189.449H694.592V191.172H692.588V199.363C692.588 199.801 692.737 200.094 693.033 200.242C693.197 200.328 693.471 200.371 693.854 200.371C693.955 200.371 694.065 200.371 694.182 200.371C694.299 200.363 694.436 200.352 694.592 200.336V202C694.35 202.07 694.096 202.121 693.83 202.152C693.572 202.184 693.291 202.199 692.987 202.199C692.002 202.199 691.334 201.949 690.983 201.449C690.631 200.941 690.455 200.285 690.455 199.48V191.172H688.756V189.449H690.455V185.945ZM700.25 198.66C700.25 199.27 700.473 199.75 700.918 200.102C701.364 200.453 701.891 200.629 702.5 200.629C703.243 200.629 703.961 200.457 704.657 200.113C705.828 199.543 706.414 198.609 706.414 197.312V195.613C706.157 195.777 705.825 195.914 705.418 196.023C705.012 196.133 704.614 196.211 704.223 196.258L702.946 196.422C702.18 196.523 701.606 196.684 701.223 196.902C700.575 197.27 700.25 197.855 700.25 198.66ZM705.36 194.395C705.844 194.332 706.168 194.129 706.332 193.785C706.426 193.598 706.473 193.328 706.473 192.977C706.473 192.258 706.215 191.738 705.7 191.418C705.192 191.09 704.461 190.926 703.508 190.926C702.407 190.926 701.625 191.223 701.164 191.816C700.907 192.145 700.739 192.633 700.66 193.281H698.692C698.731 191.734 699.231 190.66 700.192 190.059C701.16 189.449 702.282 189.145 703.555 189.145C705.032 189.145 706.231 189.426 707.153 189.988C708.067 190.551 708.524 191.426 708.524 192.613V199.844C708.524 200.062 708.567 200.238 708.653 200.371C708.746 200.504 708.938 200.57 709.227 200.57C709.321 200.57 709.426 200.566 709.543 200.559C709.66 200.543 709.785 200.523 709.918 200.5V202.059C709.59 202.152 709.34 202.211 709.168 202.234C708.996 202.258 708.762 202.27 708.465 202.27C707.739 202.27 707.211 202.012 706.883 201.496C706.711 201.223 706.59 200.836 706.52 200.336C706.09 200.898 705.473 201.387 704.668 201.801C703.864 202.215 702.977 202.422 702.008 202.422C700.844 202.422 699.891 202.07 699.149 201.367C698.414 200.656 698.047 199.77 698.047 198.707C698.047 197.543 698.41 196.641 699.137 196C699.864 195.359 700.817 194.965 701.996 194.816L705.36 194.395ZM715.166 198.062C715.229 198.766 715.405 199.305 715.694 199.68C716.225 200.359 717.147 200.699 718.459 200.699C719.241 200.699 719.928 200.531 720.522 200.195C721.116 199.852 721.412 199.324 721.412 198.613C721.412 198.074 721.174 197.664 720.698 197.383C720.393 197.211 719.791 197.012 718.893 196.785L717.217 196.363C716.147 196.098 715.358 195.801 714.85 195.473C713.944 194.902 713.491 194.113 713.491 193.105C713.491 191.918 713.916 190.957 714.768 190.223C715.627 189.488 716.78 189.121 718.225 189.121C720.116 189.121 721.479 189.676 722.315 190.785C722.838 191.488 723.092 192.246 723.077 193.059H721.084C721.045 192.582 720.877 192.148 720.58 191.758C720.096 191.203 719.256 190.926 718.061 190.926C717.264 190.926 716.659 191.078 716.245 191.383C715.838 191.688 715.635 192.09 715.635 192.59C715.635 193.137 715.905 193.574 716.444 193.902C716.756 194.098 717.217 194.27 717.827 194.418L719.221 194.758C720.737 195.125 721.752 195.48 722.268 195.824C723.088 196.363 723.498 197.211 723.498 198.367C723.498 199.484 723.073 200.449 722.221 201.262C721.377 202.074 720.088 202.48 718.354 202.48C716.487 202.48 715.162 202.059 714.381 201.215C713.608 200.363 713.194 199.312 713.139 198.062H715.166ZM727.786 184.785H729.813V194.781L735.227 189.449H737.922L733.118 194.148L738.192 202H735.497L731.582 195.672L729.813 197.289V202H727.786V184.785ZM743.006 198.062C743.069 198.766 743.245 199.305 743.534 199.68C744.065 200.359 744.987 200.699 746.299 200.699C747.081 200.699 747.768 200.531 748.362 200.195C748.956 199.852 749.253 199.324 749.253 198.613C749.253 198.074 749.014 197.664 748.538 197.383C748.233 197.211 747.631 197.012 746.733 196.785L745.057 196.363C743.987 196.098 743.198 195.801 742.69 195.473C741.784 194.902 741.331 194.113 741.331 193.105C741.331 191.918 741.756 190.957 742.608 190.223C743.467 189.488 744.62 189.121 746.065 189.121C747.956 189.121 749.319 189.676 750.155 190.785C750.678 191.488 750.932 192.246 750.917 193.059H748.924C748.885 192.582 748.717 192.148 748.42 191.758C747.936 191.203 747.096 190.926 745.901 190.926C745.104 190.926 744.499 191.078 744.085 191.383C743.678 191.688 743.475 192.09 743.475 192.59C743.475 193.137 743.745 193.574 744.284 193.902C744.596 194.098 745.057 194.27 745.667 194.418L747.061 194.758C748.577 195.125 749.592 195.48 750.108 195.824C750.928 196.363 751.338 197.211 751.338 198.367C751.338 199.484 750.913 200.449 750.061 201.262C749.217 202.074 747.928 202.48 746.194 202.48C744.327 202.48 743.003 202.059 742.221 201.215C741.448 200.363 741.034 199.312 740.979 198.062H743.006Z" fill="#1B360A"/>
<rect x="624.5" y="162.5" width="279" height="63" rx="3.5" stroke="#1B360A"/>
<circle cx="452" cy="64" r="8" fill="#1B360A"/>
<circle cx="140" cy="162" r="8" fill="#1B360A"/>
<circle cx="452" cy="162" r="8" fill="#1B360A"/>
<circle cx="764" cy="162" r="8" fill="#1B360A"/>
<path d="M452 64V113M452 162V113M452 113H764V162M452 113H140V162" stroke="#1B360A" stroke-width="4"/>
</svg>
