<svg width="752" height="555" viewBox="0 0 752 555" fill="none" xmlns="http://www.w3.org/2000/svg">
<rect width="752" height="554.571" fill="#F9F9F9"/>
<path d="M65.4932 499.571V488.595H73.2692V489.907H67.0132V493.427H72.7092V494.723H67.0132V499.571H65.4932ZM75.0181 489.571V488.003H76.4261V489.571H75.0181ZM75.0181 499.571V491.155H76.4261V499.571H75.0181ZM78.6118 499.571V491.155H79.7478L79.8758 492.419H79.9878C80.2118 492.077 80.4625 491.8 80.7398 491.587C81.0278 491.373 81.3425 491.219 81.6838 491.123C82.0358 491.016 82.4091 490.963 82.8038 490.963C83.3371 490.963 83.8011 491.053 84.1958 491.235C84.6011 491.416 84.9158 491.709 85.1398 492.115C85.3745 492.52 85.4918 493.069 85.4918 493.763V499.571H84.0838V493.955C84.0838 493.603 84.0358 493.315 83.9398 493.091C83.8545 492.867 83.7318 492.691 83.5718 492.563C83.4225 492.435 83.2358 492.344 83.0118 492.291C82.7985 492.237 82.5585 492.211 82.2918 492.211C81.8971 492.211 81.5238 492.307 81.1718 492.499C80.8198 492.691 80.5371 492.968 80.3238 493.331C80.1211 493.693 80.0198 494.125 80.0198 494.627V499.571H78.6118ZM89.7394 499.763C89.4301 499.763 89.1208 499.725 88.8114 499.651C88.5021 499.576 88.2141 499.453 87.9474 499.283C87.6808 499.112 87.4674 498.877 87.3074 498.579C87.1474 498.269 87.0674 497.885 87.0674 497.427C87.0674 496.851 87.2061 496.376 87.4834 496.003C87.7608 495.629 88.1448 495.341 88.6354 495.139C89.1368 494.925 89.7288 494.781 90.4114 494.707C91.0941 494.621 91.8354 494.579 92.6354 494.579V493.619C92.6354 493.309 92.5821 493.043 92.4754 492.819C92.3688 492.595 92.1768 492.424 91.8994 492.307C91.6328 492.179 91.2488 492.115 90.7474 492.115C90.2674 492.115 89.8834 492.179 89.5954 492.307C89.3181 492.424 89.1208 492.579 89.0034 492.771C88.8968 492.963 88.8434 493.176 88.8434 493.411V493.651H87.4834C87.4728 493.597 87.4674 493.544 87.4674 493.491C87.4674 493.437 87.4674 493.373 87.4674 493.299C87.4674 492.787 87.6061 492.36 87.8834 492.019C88.1714 491.667 88.5714 491.405 89.0834 491.235C89.5954 491.053 90.1821 490.963 90.8434 490.963C91.5474 490.963 92.1341 491.064 92.6034 491.267C93.0834 491.469 93.4408 491.757 93.6754 492.131C93.9208 492.504 94.0434 492.952 94.0434 493.475V498.035C94.0434 498.237 94.0914 498.381 94.1874 498.467C94.2834 498.541 94.4008 498.579 94.5394 498.579H95.1634V499.507C95.0141 499.571 94.8488 499.624 94.6674 499.667C94.4861 499.72 94.2781 499.747 94.0434 499.747C93.7661 499.747 93.5368 499.688 93.3554 499.571C93.1741 499.464 93.0354 499.315 92.9394 499.123C92.8434 498.92 92.7794 498.696 92.7474 498.451H92.6354C92.4434 498.717 92.1981 498.952 91.8994 499.155C91.6114 499.347 91.2861 499.496 90.9234 499.603C90.5608 499.709 90.1661 499.763 89.7394 499.763ZM90.0914 498.579C90.4328 498.579 90.7528 498.525 91.0514 498.419C91.3608 498.312 91.6328 498.163 91.8674 497.971C92.1021 497.768 92.2888 497.528 92.4274 497.251C92.5661 496.973 92.6354 496.669 92.6354 496.339V495.635C91.7714 495.635 91.0354 495.683 90.4274 495.779C89.8194 495.875 89.3501 496.045 89.0194 496.291C88.6994 496.536 88.5394 496.883 88.5394 497.331C88.5394 497.619 88.6034 497.853 88.7314 498.035C88.8594 498.216 89.0408 498.355 89.2754 498.451C89.5101 498.536 89.7821 498.579 90.0914 498.579ZM96.3462 499.571V488.003H97.7542V499.571H96.3462ZM105.252 499.763C104.814 499.763 104.473 499.683 104.228 499.523C103.982 499.352 103.806 499.133 103.7 498.867C103.593 498.589 103.54 498.296 103.54 497.987V492.339H102.452V491.155H103.572L103.828 488.803H104.948V491.155H106.532V492.339H104.948V497.779C104.948 498.045 104.996 498.248 105.092 498.387C105.188 498.515 105.369 498.579 105.636 498.579H106.532V499.507C106.425 499.56 106.297 499.603 106.148 499.635C105.998 499.667 105.844 499.693 105.684 499.715C105.534 499.747 105.39 499.763 105.252 499.763ZM108.034 489.571V488.003H109.442V489.571H108.034ZM108.034 499.571V491.155H109.442V499.571H108.034ZM111.627 499.571V488.003H113.035V499.571H111.627ZM118.581 499.763C117.749 499.763 117.045 499.608 116.469 499.299C115.904 498.979 115.472 498.493 115.173 497.843C114.885 497.192 114.741 496.365 114.741 495.363C114.741 494.349 114.885 493.523 115.173 492.883C115.472 492.232 115.909 491.752 116.485 491.443C117.061 491.123 117.781 490.963 118.645 490.963C119.435 490.963 120.096 491.117 120.629 491.427C121.163 491.725 121.563 492.179 121.829 492.787C122.107 493.384 122.245 494.136 122.245 495.043V495.715H116.197C116.219 496.387 116.315 496.941 116.485 497.379C116.667 497.805 116.933 498.12 117.285 498.323C117.637 498.515 118.08 498.611 118.613 498.611C118.976 498.611 119.291 498.568 119.557 498.483C119.835 498.387 120.064 498.253 120.245 498.083C120.437 497.912 120.581 497.709 120.677 497.475C120.773 497.24 120.827 496.984 120.837 496.707H122.213C122.203 497.155 122.117 497.571 121.957 497.955C121.797 498.328 121.563 498.648 121.253 498.915C120.944 499.181 120.565 499.389 120.117 499.539C119.669 499.688 119.157 499.763 118.581 499.763ZM116.229 494.659H120.789C120.789 494.189 120.736 493.795 120.629 493.475C120.523 493.155 120.368 492.893 120.165 492.691C119.973 492.488 119.744 492.344 119.477 492.259C119.221 492.163 118.928 492.115 118.597 492.115C118.107 492.115 117.691 492.205 117.349 492.387C117.008 492.568 116.747 492.845 116.565 493.219C116.384 493.592 116.272 494.072 116.229 494.659ZM130.275 499.763C129.699 499.763 129.192 499.704 128.755 499.587C128.317 499.469 127.955 499.299 127.667 499.075C127.379 498.851 127.16 498.584 127.011 498.275C126.861 497.965 126.787 497.613 126.787 497.219C126.787 497.165 126.787 497.117 126.787 497.075C126.787 497.021 126.792 496.979 126.803 496.947H128.195C128.184 496.989 128.179 497.027 128.179 497.059C128.179 497.091 128.179 497.123 128.179 497.155C128.189 497.528 128.285 497.821 128.467 498.035C128.659 498.248 128.92 498.397 129.251 498.483C129.581 498.568 129.949 498.611 130.355 498.611C130.707 498.611 131.032 498.568 131.331 498.483C131.629 498.387 131.864 498.248 132.035 498.067C132.216 497.875 132.307 497.635 132.307 497.347C132.307 496.995 132.189 496.728 131.955 496.547C131.731 496.355 131.432 496.205 131.059 496.099C130.685 495.992 130.296 495.88 129.891 495.763C129.549 495.667 129.208 495.56 128.867 495.443C128.525 495.325 128.216 495.181 127.939 495.011C127.672 494.84 127.453 494.621 127.283 494.355C127.123 494.077 127.043 493.731 127.043 493.315C127.043 492.941 127.117 492.611 127.267 492.323C127.427 492.035 127.651 491.789 127.939 491.587C128.227 491.384 128.573 491.235 128.979 491.139C129.395 491.032 129.853 490.979 130.355 490.979C130.888 490.979 131.352 491.037 131.747 491.155C132.152 491.272 132.488 491.437 132.755 491.651C133.021 491.864 133.219 492.109 133.347 492.387C133.475 492.653 133.539 492.941 133.539 493.251C133.539 493.315 133.539 493.379 133.539 493.443C133.539 493.496 133.533 493.539 133.523 493.571H132.147V493.395C132.147 493.181 132.088 492.979 131.971 492.787C131.864 492.584 131.672 492.424 131.395 492.307C131.128 492.179 130.755 492.115 130.275 492.115C129.965 492.115 129.699 492.141 129.475 492.195C129.251 492.237 129.064 492.312 128.915 492.419C128.765 492.515 128.653 492.632 128.579 492.771C128.504 492.899 128.467 493.048 128.467 493.219C128.467 493.496 128.557 493.709 128.739 493.859C128.92 494.008 129.16 494.131 129.459 494.227C129.768 494.323 130.099 494.429 130.451 494.547C130.824 494.653 131.203 494.765 131.587 494.883C131.981 494.989 132.339 495.128 132.659 495.299C132.989 495.469 133.251 495.704 133.443 496.003C133.645 496.291 133.747 496.675 133.747 497.155C133.747 497.603 133.661 497.992 133.491 498.323C133.32 498.653 133.075 498.925 132.755 499.139C132.445 499.352 132.077 499.507 131.651 499.603C131.235 499.709 130.776 499.763 130.275 499.763ZM136.207 502.483C135.951 502.483 135.727 502.461 135.535 502.419C135.353 502.387 135.231 502.365 135.167 502.355V501.331H135.871C136.127 501.331 136.377 501.277 136.623 501.171C136.868 501.064 137.097 500.883 137.311 500.627C137.524 500.371 137.705 500.019 137.855 499.571L134.591 491.155H136.063L137.743 495.491C137.817 495.693 137.903 495.944 137.999 496.243C138.105 496.531 138.207 496.829 138.303 497.139C138.409 497.448 138.495 497.72 138.559 497.955H138.655C138.697 497.784 138.751 497.592 138.815 497.379C138.879 497.165 138.943 496.947 139.007 496.723C139.081 496.488 139.151 496.269 139.215 496.067C139.289 495.853 139.348 495.667 139.391 495.507L140.815 491.155H142.239L139.391 499.331C139.231 499.789 139.055 500.211 138.863 500.595C138.671 500.989 138.457 501.325 138.223 501.603C137.988 501.88 137.705 502.093 137.375 502.243C137.044 502.403 136.655 502.483 136.207 502.483ZM146.493 499.763C145.917 499.763 145.411 499.704 144.973 499.587C144.536 499.469 144.173 499.299 143.885 499.075C143.597 498.851 143.379 498.584 143.229 498.275C143.08 497.965 143.005 497.613 143.005 497.219C143.005 497.165 143.005 497.117 143.005 497.075C143.005 497.021 143.011 496.979 143.021 496.947H144.413C144.403 496.989 144.397 497.027 144.397 497.059C144.397 497.091 144.397 497.123 144.397 497.155C144.408 497.528 144.504 497.821 144.685 498.035C144.877 498.248 145.139 498.397 145.469 498.483C145.8 498.568 146.168 498.611 146.573 498.611C146.925 498.611 147.251 498.568 147.549 498.483C147.848 498.387 148.083 498.248 148.253 498.067C148.435 497.875 148.525 497.635 148.525 497.347C148.525 496.995 148.408 496.728 148.173 496.547C147.949 496.355 147.651 496.205 147.277 496.099C146.904 495.992 146.515 495.88 146.109 495.763C145.768 495.667 145.427 495.56 145.085 495.443C144.744 495.325 144.435 495.181 144.157 495.011C143.891 494.84 143.672 494.621 143.501 494.355C143.341 494.077 143.261 493.731 143.261 493.315C143.261 492.941 143.336 492.611 143.485 492.323C143.645 492.035 143.869 491.789 144.157 491.587C144.445 491.384 144.792 491.235 145.197 491.139C145.613 491.032 146.072 490.979 146.573 490.979C147.107 490.979 147.571 491.037 147.965 491.155C148.371 491.272 148.707 491.437 148.973 491.651C149.24 491.864 149.437 492.109 149.565 492.387C149.693 492.653 149.757 492.941 149.757 493.251C149.757 493.315 149.757 493.379 149.757 493.443C149.757 493.496 149.752 493.539 149.741 493.571H148.365V493.395C148.365 493.181 148.307 492.979 148.189 492.787C148.083 492.584 147.891 492.424 147.613 492.307C147.347 492.179 146.973 492.115 146.493 492.115C146.184 492.115 145.917 492.141 145.693 492.195C145.469 492.237 145.283 492.312 145.133 492.419C144.984 492.515 144.872 492.632 144.797 492.771C144.723 492.899 144.685 493.048 144.685 493.219C144.685 493.496 144.776 493.709 144.957 493.859C145.139 494.008 145.379 494.131 145.677 494.227C145.987 494.323 146.317 494.429 146.669 494.547C147.043 494.653 147.421 494.765 147.805 494.883C148.2 494.989 148.557 495.128 148.877 495.299C149.208 495.469 149.469 495.704 149.661 496.003C149.864 496.291 149.965 496.675 149.965 497.155C149.965 497.603 149.88 497.992 149.709 498.323C149.539 498.653 149.293 498.925 148.973 499.139C148.664 499.352 148.296 499.507 147.869 499.603C147.453 499.709 146.995 499.763 146.493 499.763ZM153.674 499.763C153.236 499.763 152.895 499.683 152.65 499.523C152.404 499.352 152.228 499.133 152.122 498.867C152.015 498.589 151.962 498.296 151.962 497.987V492.339H150.874V491.155H151.994L152.25 488.803H153.37V491.155H154.954V492.339H153.37V497.779C153.37 498.045 153.418 498.248 153.514 498.387C153.61 498.515 153.791 498.579 154.058 498.579H154.954V499.507C154.847 499.56 154.719 499.603 154.57 499.635C154.42 499.667 154.266 499.693 154.106 499.715C153.956 499.747 153.812 499.763 153.674 499.763ZM159.816 499.763C158.984 499.763 158.28 499.608 157.704 499.299C157.138 498.979 156.706 498.493 156.408 497.843C156.12 497.192 155.976 496.365 155.976 495.363C155.976 494.349 156.12 493.523 156.408 492.883C156.706 492.232 157.144 491.752 157.72 491.443C158.296 491.123 159.016 490.963 159.88 490.963C160.669 490.963 161.33 491.117 161.864 491.427C162.397 491.725 162.797 492.179 163.064 492.787C163.341 493.384 163.48 494.136 163.48 495.043V495.715H157.432C157.453 496.387 157.549 496.941 157.72 497.379C157.901 497.805 158.168 498.12 158.52 498.323C158.872 498.515 159.314 498.611 159.848 498.611C160.21 498.611 160.525 498.568 160.792 498.483C161.069 498.387 161.298 498.253 161.48 498.083C161.672 497.912 161.816 497.709 161.912 497.475C162.008 497.24 162.061 496.984 162.072 496.707H163.448C163.437 497.155 163.352 497.571 163.192 497.955C163.032 498.328 162.797 498.648 162.488 498.915C162.178 499.181 161.8 499.389 161.352 499.539C160.904 499.688 160.392 499.763 159.816 499.763ZM157.464 494.659H162.024C162.024 494.189 161.97 493.795 161.864 493.475C161.757 493.155 161.602 492.893 161.4 492.691C161.208 492.488 160.978 492.344 160.712 492.259C160.456 492.163 160.162 492.115 159.832 492.115C159.341 492.115 158.925 492.205 158.584 492.387C158.242 492.568 157.981 492.845 157.8 493.219C157.618 493.592 157.506 494.072 157.464 494.659ZM165.221 499.571V491.155H166.357L166.485 492.419H166.597C166.811 492.077 167.051 491.8 167.317 491.587C167.584 491.373 167.877 491.219 168.197 491.123C168.517 491.016 168.864 490.963 169.237 490.963C169.781 490.963 170.251 491.075 170.645 491.299C171.04 491.512 171.333 491.885 171.525 492.419H171.621C171.824 492.077 172.059 491.805 172.325 491.603C172.592 491.389 172.891 491.229 173.221 491.123C173.552 491.016 173.904 490.963 174.277 490.963C174.789 490.963 175.237 491.053 175.621 491.235C176.005 491.405 176.304 491.693 176.517 492.099C176.741 492.493 176.853 493.027 176.853 493.699V499.571H175.445V493.923C175.445 493.581 175.403 493.299 175.317 493.075C175.243 492.851 175.131 492.68 174.981 492.563C174.832 492.435 174.656 492.344 174.453 492.291C174.261 492.237 174.053 492.211 173.829 492.211C173.456 492.211 173.109 492.307 172.789 492.499C172.48 492.691 172.229 492.968 172.037 493.331C171.845 493.693 171.749 494.125 171.749 494.627V499.571H170.341V493.923C170.341 493.581 170.299 493.299 170.213 493.075C170.128 492.851 170.016 492.68 169.877 492.563C169.739 492.435 169.568 492.344 169.365 492.291C169.173 492.237 168.971 492.211 168.757 492.211C168.373 492.211 168.016 492.307 167.685 492.499C167.365 492.691 167.109 492.968 166.917 493.331C166.725 493.693 166.629 494.125 166.629 494.627V499.571H165.221Z" fill="#6C6E76"/>
<rect x="464" y="56.4852" width="5.33333" height="5.33333" rx="1.6" transform="rotate(-45 464 56.4852)" fill="#9747FF"/>
<rect x="468.714" y="61.1993" width="5.33333" height="5.33333" rx="1.6" transform="rotate(-45 468.714 61.1993)" fill="#9747FF"/>
<rect x="468.714" y="51.7711" width="5.33333" height="5.33333" rx="1.6" transform="rotate(-45 468.714 51.7711)" fill="#9747FF"/>
<rect x="473.428" y="56.4852" width="5.33333" height="5.33333" rx="1.6" transform="rotate(-45 473.428 56.4852)" fill="#9747FF"/>
<path d="M487.899 52.4062V51.2727H494.653V52.4062H491.93V60H490.618V52.4062H487.899ZM496.044 60V53.4545H497.318V60H496.044ZM496.687 52.4446C496.465 52.4446 496.275 52.3707 496.116 52.223C495.96 52.0724 495.882 51.8935 495.882 51.6861C495.882 51.4759 495.96 51.2969 496.116 51.1491C496.275 50.9986 496.465 50.9233 496.687 50.9233C496.909 50.9233 497.097 50.9986 497.254 51.1491C497.413 51.2969 497.492 51.4759 497.492 51.6861C497.492 51.8935 497.413 52.0724 497.254 52.223C497.097 52.3707 496.909 52.4446 496.687 52.4446ZM500.306 51.2727V60H499.032V51.2727H500.306ZM504.841 60.1321C504.196 60.1321 503.641 59.9943 503.175 59.7188C502.712 59.4403 502.354 59.0497 502.101 58.5469C501.851 58.0412 501.726 57.4489 501.726 56.7699C501.726 56.0994 501.851 55.5085 502.101 54.9972C502.354 54.4858 502.706 54.0866 503.158 53.7997C503.612 53.5128 504.144 53.3693 504.752 53.3693C505.121 53.3693 505.479 53.4304 505.825 53.5526C506.172 53.6747 506.483 53.8665 506.759 54.1278C507.034 54.3892 507.252 54.7287 507.411 55.1463C507.57 55.5611 507.649 56.0653 507.649 56.6591V57.1108H502.446V56.1562H506.401C506.401 55.821 506.333 55.5241 506.196 55.2656C506.06 55.0043 505.868 54.7983 505.621 54.6477C505.377 54.4972 505.09 54.4219 504.76 54.4219C504.402 54.4219 504.09 54.5099 503.823 54.6861C503.558 54.8594 503.354 55.0866 503.209 55.3679C503.067 55.6463 502.996 55.9489 502.996 56.2756V57.0213C502.996 57.4588 503.073 57.831 503.226 58.1378C503.382 58.4446 503.6 58.679 503.878 58.8409C504.156 59 504.482 59.0795 504.854 59.0795C505.095 59.0795 505.316 59.0455 505.514 58.9773C505.713 58.9062 505.885 58.8011 506.03 58.6619C506.175 58.5227 506.286 58.3509 506.362 58.1463L507.568 58.3636C507.472 58.7187 507.298 59.0298 507.048 59.2969C506.801 59.5611 506.49 59.767 506.115 59.9148C505.743 60.0597 505.318 60.1321 504.841 60.1321Z" fill="#9747FF"/>
<rect x="471.2" y="75.3704" width="209.6" height="113.6" rx="2.4" fill="white"/>
<path d="M560.989 130.37H560.144C560.135 130.052 560.071 129.758 559.953 129.489C559.835 129.216 559.669 128.978 559.457 128.775C559.245 128.572 558.992 128.414 558.698 128.302C558.407 128.19 558.082 128.134 557.721 128.134C557.127 128.134 556.559 128.29 556.016 128.602C555.474 128.911 555.007 129.366 554.616 129.966C554.226 130.566 553.959 131.299 553.816 132.166C553.674 133.02 553.697 133.74 553.885 134.325C554.073 134.907 554.38 135.348 554.807 135.648C555.238 135.948 555.742 136.098 556.321 136.098C556.691 136.098 557.045 136.042 557.385 135.929C557.724 135.817 558.036 135.661 558.321 135.461C558.606 135.258 558.856 135.02 559.071 134.748C559.286 134.475 559.453 134.179 559.571 133.861H560.426C560.277 134.289 560.069 134.687 559.803 135.057C559.536 135.423 559.221 135.745 558.857 136.02C558.497 136.296 558.098 136.511 557.662 136.666C557.229 136.82 556.768 136.898 556.28 136.898C555.486 136.898 554.815 136.699 554.266 136.302C553.721 135.905 553.333 135.346 553.103 134.625C552.876 133.901 552.844 133.048 553.007 132.066C553.168 131.102 553.476 130.266 553.93 129.557C554.388 128.848 554.948 128.301 555.612 127.916C556.276 127.528 556.997 127.334 557.776 127.334C558.273 127.334 558.718 127.411 559.112 127.566C559.506 127.717 559.841 127.933 560.116 128.211C560.395 128.487 560.609 128.808 560.757 129.175C560.906 129.542 560.983 129.94 560.989 130.37ZM564.513 136.916C563.901 136.916 563.386 136.761 562.968 136.452C562.549 136.14 562.254 135.708 562.081 135.157C561.908 134.605 561.88 133.969 561.995 133.248C562.11 132.545 562.339 131.926 562.681 131.393C563.027 130.857 563.451 130.44 563.954 130.143C564.457 129.843 565.004 129.693 565.595 129.693C566.21 129.693 566.725 129.849 567.14 130.161C567.558 130.473 567.854 130.905 568.027 131.457C568.202 132.008 568.233 132.646 568.118 133.37C568.002 134.07 567.772 134.687 567.427 135.22C567.081 135.751 566.657 136.166 566.154 136.466C565.654 136.766 565.107 136.916 564.513 136.916ZM564.522 136.175C565.019 136.175 565.462 136.043 565.849 135.779C566.24 135.513 566.563 135.158 566.818 134.716C567.072 134.27 567.243 133.781 567.331 133.248C567.413 132.739 567.404 132.27 567.304 131.843C567.204 131.416 567.012 131.073 566.727 130.816C566.442 130.558 566.063 130.429 565.59 130.429C565.096 130.429 564.654 130.564 564.263 130.834C563.872 131.101 563.549 131.458 563.295 131.907C563.04 132.352 562.871 132.84 562.786 133.37C562.701 133.883 562.707 134.351 562.804 134.775C562.904 135.199 563.096 135.539 563.381 135.793C563.669 136.048 564.049 136.175 564.522 136.175ZM570.862 132.407L570.139 136.77H569.33L570.494 129.789H571.28L571.098 130.884H571.171C571.389 130.526 571.691 130.24 572.076 130.025C572.463 129.807 572.913 129.698 573.426 129.698C573.892 129.698 574.286 129.796 574.607 129.993C574.932 130.187 575.162 130.473 575.298 130.852C575.438 131.231 575.462 131.696 575.371 132.248L574.612 136.77H573.803L574.548 132.298C574.642 131.728 574.559 131.276 574.298 130.943C574.041 130.607 573.642 130.439 573.103 130.439C572.736 130.439 572.395 130.517 572.08 130.675C571.768 130.833 571.504 131.06 571.289 131.357C571.074 131.651 570.932 132.001 570.862 132.407ZM580.656 129.789L580.543 130.493H577.206L577.324 129.789H580.656ZM578.638 128.116H579.452L578.315 134.948C578.267 135.239 578.279 135.467 578.352 135.634C578.424 135.798 578.537 135.914 578.688 135.984C578.84 136.051 579.006 136.084 579.188 136.084C579.294 136.084 579.385 136.078 579.461 136.066C579.54 136.051 579.609 136.036 579.67 136.02L579.729 136.752C579.641 136.783 579.537 136.81 579.415 136.834C579.294 136.861 579.149 136.875 578.979 136.875C578.682 136.875 578.408 136.81 578.156 136.679C577.905 136.549 577.714 136.355 577.583 136.098C577.453 135.84 577.418 135.52 577.479 135.139L578.638 128.116ZM584.06 136.916C583.408 136.916 582.87 136.764 582.446 136.461C582.022 136.155 581.725 135.733 581.555 135.193C581.385 134.651 581.36 134.026 581.478 133.32C581.596 132.617 581.829 131.993 582.178 131.448C582.526 130.899 582.957 130.47 583.469 130.161C583.981 129.849 584.537 129.693 585.137 129.693C585.516 129.693 585.87 129.763 586.201 129.902C586.531 130.039 586.811 130.249 587.041 130.534C587.275 130.816 587.437 131.172 587.528 131.602C587.619 132.029 587.616 132.536 587.519 133.12L587.455 133.52H582.001L582.114 132.807H586.746C586.822 132.358 586.801 131.955 586.682 131.598C586.564 131.24 586.363 130.957 586.078 130.748C585.796 130.536 585.446 130.429 585.028 130.429C584.601 130.429 584.196 130.549 583.814 130.789C583.435 131.028 583.114 131.34 582.851 131.725C582.59 132.107 582.422 132.514 582.346 132.948L582.255 133.484C582.158 134.075 582.17 134.57 582.291 134.97C582.413 135.367 582.632 135.667 582.951 135.87C583.269 136.073 583.676 136.175 584.173 136.175C584.507 136.175 584.808 136.123 585.078 136.02C585.348 135.917 585.582 135.779 585.782 135.607C585.982 135.431 586.143 135.239 586.264 135.029L586.987 135.279C586.832 135.573 586.614 135.845 586.332 136.093C586.054 136.342 585.722 136.542 585.337 136.693C584.955 136.842 584.529 136.916 584.06 136.916ZM590.224 132.407L589.502 136.77H588.693L589.856 129.789H590.643L590.461 130.884H590.533C590.752 130.526 591.053 130.24 591.438 130.025C591.826 129.807 592.276 129.698 592.788 129.698C593.255 129.698 593.649 129.796 593.97 129.993C594.294 130.187 594.524 130.473 594.661 130.852C594.8 131.231 594.824 131.696 594.733 132.248L593.974 136.77H593.165L593.911 132.298C594.005 131.728 593.921 131.276 593.661 130.943C593.403 130.607 593.005 130.439 592.465 130.439C592.099 130.439 591.758 130.517 591.443 130.675C591.13 130.833 590.867 131.06 590.652 131.357C590.437 131.651 590.294 132.001 590.224 132.407ZM600.019 129.789L599.905 130.493H596.569L596.687 129.789H600.019ZM598.001 128.116H598.814L597.678 134.948C597.629 135.239 597.641 135.467 597.714 135.634C597.787 135.798 597.899 135.914 598.051 135.984C598.202 136.051 598.369 136.084 598.551 136.084C598.657 136.084 598.748 136.078 598.823 136.066C598.902 136.051 598.972 136.036 599.032 136.02L599.091 136.752C599.004 136.783 598.899 136.81 598.778 136.834C598.657 136.861 598.511 136.875 598.341 136.875C598.044 136.875 597.77 136.81 597.519 136.679C597.267 136.549 597.076 136.355 596.946 136.098C596.816 135.84 596.781 135.52 596.841 135.139L598.001 128.116Z" fill="#B2B3B9"/>
<rect x="471.2" y="75.3704" width="209.6" height="113.6" rx="2.4" stroke="#EEEEEE" stroke-width="1.6"/>
<path d="M476.216 201.736C476.171 201.332 475.983 201.02 475.654 200.798C475.324 200.574 474.91 200.462 474.41 200.462C474.052 200.462 473.742 200.519 473.481 200.632C473.219 200.743 473.016 200.896 472.871 201.092C472.729 201.286 472.658 201.506 472.658 201.753C472.658 201.96 472.706 202.139 472.803 202.29C472.902 202.44 473.032 202.567 473.191 202.669C473.353 202.769 473.526 202.852 473.711 202.921C473.895 202.986 474.073 203.04 474.243 203.082L475.096 203.304C475.374 203.372 475.66 203.465 475.952 203.581C476.245 203.698 476.516 203.851 476.766 204.041C477.016 204.232 477.218 204.467 477.371 204.749C477.527 205.03 477.606 205.367 477.606 205.759C477.606 206.253 477.478 206.692 477.222 207.075C476.969 207.459 476.601 207.761 476.118 207.983C475.638 208.205 475.057 208.315 474.375 208.315C473.722 208.315 473.157 208.212 472.679 208.004C472.202 207.797 471.829 207.503 471.559 207.122C471.289 206.739 471.14 206.284 471.111 205.759H472.432C472.458 206.074 472.56 206.337 472.739 206.547C472.921 206.754 473.152 206.909 473.434 207.011C473.718 207.111 474.029 207.161 474.367 207.161C474.739 207.161 475.07 207.102 475.36 206.986C475.652 206.867 475.883 206.702 476.05 206.492C476.218 206.278 476.302 206.03 476.302 205.746C476.302 205.487 476.228 205.276 476.08 205.111C475.935 204.946 475.738 204.81 475.488 204.702C475.241 204.594 474.961 204.499 474.648 204.416L473.617 204.135C472.918 203.945 472.364 203.665 471.955 203.296C471.549 202.926 471.346 202.438 471.346 201.83C471.346 201.327 471.482 200.888 471.755 200.513C472.027 200.138 472.397 199.847 472.863 199.639C473.329 199.429 473.854 199.324 474.439 199.324C475.03 199.324 475.552 199.428 476.003 199.635C476.458 199.842 476.816 200.128 477.077 200.492C477.339 200.852 477.475 201.267 477.486 201.736H476.216ZM482.132 201.625V202.648H478.557V201.625H482.132ZM479.516 200.057H480.79V206.249C480.79 206.496 480.827 206.682 480.901 206.807C480.975 206.929 481.07 207.013 481.186 207.058C481.306 207.101 481.435 207.122 481.574 207.122C481.676 207.122 481.766 207.115 481.842 207.101C481.919 207.087 481.979 207.075 482.021 207.067L482.252 208.119C482.178 208.148 482.073 208.176 481.936 208.205C481.8 208.236 481.629 208.253 481.425 208.256C481.09 208.261 480.777 208.202 480.487 208.077C480.198 207.952 479.963 207.759 479.784 207.497C479.605 207.236 479.516 206.908 479.516 206.513V200.057ZM485.447 208.315C485.032 208.315 484.657 208.239 484.322 208.085C483.986 207.929 483.721 207.703 483.525 207.408C483.331 207.112 483.235 206.75 483.235 206.321C483.235 205.952 483.306 205.648 483.448 205.409C483.59 205.171 483.782 204.982 484.023 204.842C484.265 204.703 484.535 204.598 484.833 204.527C485.131 204.456 485.435 204.402 485.745 204.365C486.137 204.32 486.455 204.283 486.699 204.254C486.944 204.223 487.121 204.173 487.232 204.105C487.343 204.037 487.398 203.926 487.398 203.773V203.743C487.398 203.371 487.293 203.082 487.083 202.878C486.875 202.673 486.566 202.571 486.154 202.571C485.725 202.571 485.387 202.666 485.14 202.857C484.895 203.044 484.726 203.253 484.633 203.483L483.435 203.21C483.577 202.813 483.785 202.492 484.057 202.247C484.333 202 484.65 201.821 485.008 201.71C485.366 201.597 485.742 201.54 486.137 201.54C486.398 201.54 486.675 201.571 486.968 201.634C487.263 201.693 487.539 201.804 487.795 201.966C488.053 202.128 488.265 202.359 488.429 202.661C488.594 202.959 488.677 203.347 488.677 203.824V208.171H487.432V207.276H487.381C487.299 207.44 487.175 207.602 487.01 207.761C486.846 207.921 486.634 208.053 486.375 208.158C486.117 208.263 485.807 208.315 485.447 208.315ZM485.724 207.293C486.076 207.293 486.377 207.223 486.627 207.084C486.88 206.945 487.072 206.763 487.202 206.538C487.336 206.311 487.402 206.068 487.402 205.81V204.966C487.357 205.011 487.269 205.054 487.138 205.094C487.01 205.131 486.864 205.163 486.699 205.192C486.535 205.217 486.374 205.242 486.218 205.264C486.062 205.284 485.931 205.301 485.826 205.315C485.579 205.347 485.353 205.399 485.148 205.473C484.947 205.547 484.785 205.653 484.662 205.793C484.543 205.929 484.483 206.111 484.483 206.338C484.483 206.653 484.6 206.892 484.833 207.054C485.066 207.213 485.363 207.293 485.724 207.293ZM493.429 201.625V202.648H489.854V201.625H493.429ZM490.813 200.057H492.087V206.249C492.087 206.496 492.124 206.682 492.198 206.807C492.271 206.929 492.367 207.013 492.483 207.058C492.602 207.101 492.732 207.122 492.871 207.122C492.973 207.122 493.063 207.115 493.139 207.101C493.216 207.087 493.276 207.075 493.318 207.067L493.548 208.119C493.475 208.148 493.369 208.176 493.233 208.205C493.097 208.236 492.926 208.253 492.722 208.256C492.386 208.261 492.074 208.202 491.784 208.077C491.494 207.952 491.26 207.759 491.081 207.497C490.902 207.236 490.813 206.908 490.813 206.513V200.057ZM497.589 208.303C496.944 208.303 496.389 208.165 495.923 207.889C495.46 207.611 495.102 207.22 494.849 206.717C494.599 206.212 494.474 205.619 494.474 204.94C494.474 204.27 494.599 203.679 494.849 203.168C495.102 202.656 495.454 202.257 495.906 201.97C496.361 201.683 496.892 201.54 497.5 201.54C497.869 201.54 498.227 201.601 498.574 201.723C498.92 201.845 499.231 202.037 499.507 202.298C499.782 202.56 500 202.899 500.159 203.317C500.318 203.732 500.398 204.236 500.398 204.83V205.281H495.194V204.327H499.149C499.149 203.992 499.081 203.695 498.944 203.436C498.808 203.175 498.616 202.969 498.369 202.818C498.125 202.668 497.838 202.592 497.508 202.592C497.15 202.592 496.838 202.68 496.571 202.857C496.307 203.03 496.102 203.257 495.957 203.538C495.815 203.817 495.744 204.119 495.744 204.446V205.192C495.744 205.629 495.821 206.001 495.974 206.308C496.13 206.615 496.348 206.85 496.626 207.011C496.905 207.171 497.23 207.25 497.602 207.25C497.844 207.25 498.064 207.216 498.263 207.148C498.461 207.077 498.633 206.972 498.778 206.832C498.923 206.693 499.034 206.521 499.111 206.317L500.317 206.534C500.22 206.889 500.047 207.2 499.797 207.467C499.549 207.732 499.238 207.938 498.863 208.085C498.491 208.23 498.067 208.303 497.589 208.303ZM502.22 203.982V202.861H507.679V203.982H502.22ZM502.22 206.607V205.486H507.679V206.607H502.22ZM512.731 208.171H509.906V199.443H512.82C513.676 199.443 514.41 199.618 515.024 199.967C515.637 200.314 516.107 200.813 516.434 201.463C516.764 202.111 516.928 202.888 516.928 203.794C516.928 204.703 516.762 205.484 516.43 206.138C516.1 206.791 515.623 207.294 514.998 207.646C514.373 207.996 513.617 208.171 512.731 208.171ZM511.222 207.02H512.659C513.323 207.02 513.876 206.895 514.316 206.645C514.757 206.392 515.086 206.027 515.305 205.55C515.524 205.07 515.633 204.484 515.633 203.794C515.633 203.109 515.524 202.528 515.305 202.051C515.089 201.574 514.766 201.212 514.337 200.965C513.909 200.717 513.376 200.594 512.739 200.594H511.222V207.02ZM521.285 208.303C520.64 208.303 520.084 208.165 519.618 207.889C519.155 207.611 518.797 207.22 518.545 206.717C518.295 206.212 518.17 205.619 518.17 204.94C518.17 204.27 518.295 203.679 518.545 203.168C518.797 202.656 519.15 202.257 519.601 201.97C520.056 201.683 520.587 201.54 521.195 201.54C521.564 201.54 521.922 201.601 522.269 201.723C522.616 201.845 522.927 202.037 523.202 202.298C523.478 202.56 523.695 202.899 523.854 203.317C524.013 203.732 524.093 204.236 524.093 204.83V205.281H518.89V204.327H522.844C522.844 203.992 522.776 203.695 522.64 203.436C522.503 203.175 522.312 202.969 522.064 202.818C521.82 202.668 521.533 202.592 521.204 202.592C520.846 202.592 520.533 202.68 520.266 202.857C520.002 203.03 519.797 203.257 519.652 203.538C519.51 203.817 519.439 204.119 519.439 204.446V205.192C519.439 205.629 519.516 206.001 519.67 206.308C519.826 206.615 520.043 206.85 520.322 207.011C520.6 207.171 520.925 207.25 521.297 207.25C521.539 207.25 521.759 207.216 521.958 207.148C522.157 207.077 522.329 206.972 522.474 206.832C522.618 206.693 522.729 206.521 522.806 206.317L524.012 206.534C523.915 206.889 523.742 207.2 523.492 207.467C523.245 207.732 522.934 207.938 522.559 208.085C522.187 208.23 521.762 208.303 521.285 208.303ZM528.622 201.625V202.648H524.923V201.625H528.622ZM525.937 208.171V200.867C525.937 200.457 526.026 200.118 526.205 199.848C526.384 199.575 526.622 199.372 526.917 199.239C527.212 199.102 527.534 199.034 527.88 199.034C528.136 199.034 528.355 199.055 528.536 199.098C528.718 199.138 528.853 199.175 528.941 199.209L528.643 200.24C528.583 200.223 528.507 200.203 528.413 200.18C528.319 200.155 528.205 200.142 528.072 200.142C527.762 200.142 527.541 200.219 527.407 200.372C527.276 200.526 527.211 200.747 527.211 201.037V208.171H525.937ZM531.642 208.315C531.227 208.315 530.852 208.239 530.517 208.085C530.182 207.929 529.916 207.703 529.72 207.408C529.527 207.112 529.43 206.75 529.43 206.321C529.43 205.952 529.501 205.648 529.643 205.409C529.785 205.171 529.977 204.982 530.219 204.842C530.46 204.703 530.73 204.598 531.028 204.527C531.326 204.456 531.63 204.402 531.94 204.365C532.332 204.32 532.65 204.283 532.895 204.254C533.139 204.223 533.317 204.173 533.427 204.105C533.538 204.037 533.594 203.926 533.594 203.773V203.743C533.594 203.371 533.488 203.082 533.278 202.878C533.071 202.673 532.761 202.571 532.349 202.571C531.92 202.571 531.582 202.666 531.335 202.857C531.091 203.044 530.922 203.253 530.828 203.483L529.63 203.21C529.773 202.813 529.98 202.492 530.253 202.247C530.528 202 530.845 201.821 531.203 201.71C531.561 201.597 531.937 201.54 532.332 201.54C532.594 201.54 532.871 201.571 533.163 201.634C533.459 201.693 533.734 201.804 533.99 201.966C534.248 202.128 534.46 202.359 534.625 202.661C534.79 202.959 534.872 203.347 534.872 203.824V208.171H533.628V207.276H533.576C533.494 207.44 533.371 207.602 533.206 207.761C533.041 207.921 532.829 208.053 532.571 208.158C532.312 208.263 532.003 208.315 531.642 208.315ZM531.919 207.293C532.271 207.293 532.572 207.223 532.822 207.084C533.075 206.945 533.267 206.763 533.398 206.538C533.531 206.311 533.598 206.068 533.598 205.81V204.966C533.552 205.011 533.464 205.054 533.334 205.094C533.206 205.131 533.059 205.163 532.895 205.192C532.73 205.217 532.569 205.242 532.413 205.264C532.257 205.284 532.126 205.301 532.021 205.315C531.774 205.347 531.548 205.399 531.344 205.473C531.142 205.547 530.98 205.653 530.858 205.793C530.738 205.929 530.679 206.111 530.679 206.338C530.679 206.653 530.795 206.892 531.028 207.054C531.261 207.213 531.558 207.293 531.919 207.293ZM540.715 205.456V201.625H541.994V208.171H540.741V207.037H540.673C540.522 207.386 540.281 207.678 539.948 207.911C539.619 208.141 539.208 208.256 538.717 208.256C538.296 208.256 537.924 208.163 537.6 207.979C537.279 207.791 537.026 207.514 536.842 207.148C536.66 206.781 536.569 206.328 536.569 205.788V201.625H537.843V205.635C537.843 206.081 537.967 206.436 538.214 206.7C538.461 206.965 538.782 207.097 539.177 207.097C539.416 207.097 539.653 207.037 539.889 206.918C540.127 206.798 540.325 206.618 540.481 206.376C540.64 206.135 540.718 205.828 540.715 205.456ZM544.98 199.443V208.171H543.706V199.443H544.98ZM549.749 201.625V202.648H546.174V201.625H549.749ZM547.133 200.057H548.407V206.249C548.407 206.496 548.444 206.682 548.518 206.807C548.592 206.929 548.687 207.013 548.803 207.058C548.923 207.101 549.052 207.122 549.191 207.122C549.293 207.122 549.383 207.115 549.46 207.101C549.536 207.087 549.596 207.075 549.639 207.067L549.869 208.119C549.795 208.148 549.69 208.176 549.553 208.205C549.417 208.236 549.247 208.253 549.042 208.256C548.707 208.261 548.394 208.202 548.105 208.077C547.815 207.952 547.58 207.759 547.401 207.497C547.222 207.236 547.133 206.908 547.133 206.513V200.057Z" fill="#9747FF"/>
<rect x="472" y="220.171" width="208" height="112" rx="1.6" fill="#F0F8FF"/>
<path d="M560.989 273.77H560.144C560.135 273.452 560.071 273.158 559.953 272.889C559.835 272.616 559.669 272.378 559.457 272.175C559.245 271.972 558.992 271.814 558.698 271.702C558.407 271.59 558.082 271.534 557.721 271.534C557.127 271.534 556.559 271.69 556.016 272.002C555.474 272.311 555.007 272.766 554.616 273.366C554.226 273.966 553.959 274.699 553.816 275.566C553.674 276.42 553.697 277.14 553.885 277.725C554.073 278.307 554.38 278.748 554.807 279.048C555.238 279.348 555.742 279.498 556.321 279.498C556.691 279.498 557.045 279.442 557.385 279.33C557.724 279.217 558.036 279.061 558.321 278.861C558.606 278.658 558.856 278.42 559.071 278.148C559.286 277.875 559.453 277.58 559.571 277.261H560.426C560.277 277.689 560.069 278.087 559.803 278.457C559.536 278.823 559.221 279.145 558.857 279.42C558.497 279.696 558.098 279.911 557.662 280.066C557.229 280.22 556.768 280.298 556.28 280.298C555.486 280.298 554.815 280.099 554.266 279.702C553.721 279.305 553.333 278.746 553.103 278.025C552.876 277.301 552.844 276.448 553.007 275.466C553.168 274.502 553.476 273.666 553.93 272.957C554.388 272.248 554.948 271.701 555.612 271.316C556.276 270.928 556.997 270.734 557.776 270.734C558.273 270.734 558.718 270.811 559.112 270.966C559.506 271.117 559.841 271.333 560.116 271.611C560.395 271.887 560.609 272.208 560.757 272.575C560.906 272.942 560.983 273.34 560.989 273.77ZM564.513 280.316C563.901 280.316 563.386 280.161 562.968 279.852C562.549 279.54 562.254 279.108 562.081 278.557C561.908 278.005 561.88 277.369 561.995 276.648C562.11 275.945 562.339 275.326 562.681 274.793C563.027 274.257 563.451 273.84 563.954 273.543C564.457 273.243 565.004 273.093 565.595 273.093C566.21 273.093 566.725 273.249 567.14 273.561C567.558 273.873 567.854 274.305 568.027 274.857C568.202 275.408 568.233 276.046 568.118 276.77C568.002 277.47 567.772 278.087 567.427 278.62C567.081 279.151 566.657 279.566 566.154 279.866C565.654 280.166 565.107 280.316 564.513 280.316ZM564.522 279.575C565.019 279.575 565.462 279.443 565.849 279.18C566.24 278.913 566.563 278.558 566.818 278.116C567.072 277.67 567.243 277.181 567.331 276.648C567.413 276.139 567.404 275.67 567.304 275.243C567.204 274.816 567.012 274.473 566.727 274.216C566.442 273.958 566.063 273.83 565.59 273.83C565.096 273.83 564.654 273.964 564.263 274.234C563.872 274.501 563.549 274.858 563.295 275.307C563.04 275.752 562.871 276.24 562.786 276.77C562.701 277.283 562.707 277.751 562.804 278.175C562.904 278.599 563.096 278.939 563.381 279.193C563.669 279.448 564.049 279.575 564.522 279.575ZM570.862 275.807L570.139 280.17H569.33L570.494 273.189H571.28L571.098 274.284H571.171C571.389 273.926 571.691 273.64 572.076 273.425C572.463 273.207 572.913 273.098 573.426 273.098C573.892 273.098 574.286 273.196 574.607 273.393C574.932 273.587 575.162 273.873 575.298 274.252C575.438 274.631 575.462 275.096 575.371 275.648L574.612 280.17H573.803L574.548 275.698C574.642 275.128 574.559 274.676 574.298 274.343C574.041 274.007 573.642 273.839 573.103 273.839C572.736 273.839 572.395 273.917 572.08 274.075C571.768 274.233 571.504 274.46 571.289 274.757C571.074 275.051 570.932 275.401 570.862 275.807ZM580.656 273.189L580.543 273.893H577.206L577.324 273.189H580.656ZM578.638 271.516H579.452L578.315 278.348C578.267 278.639 578.279 278.867 578.352 279.034C578.424 279.198 578.537 279.314 578.688 279.384C578.84 279.451 579.006 279.484 579.188 279.484C579.294 279.484 579.385 279.478 579.461 279.466C579.54 279.451 579.609 279.436 579.67 279.42L579.729 280.152C579.641 280.183 579.537 280.21 579.415 280.234C579.294 280.261 579.149 280.275 578.979 280.275C578.682 280.275 578.408 280.21 578.156 280.08C577.905 279.949 577.714 279.755 577.583 279.498C577.453 279.24 577.418 278.92 577.479 278.539L578.638 271.516ZM584.06 280.316C583.408 280.316 582.87 280.164 582.446 279.861C582.022 279.555 581.725 279.133 581.555 278.593C581.385 278.051 581.36 277.426 581.478 276.72C581.596 276.017 581.829 275.393 582.178 274.848C582.526 274.299 582.957 273.87 583.469 273.561C583.981 273.249 584.537 273.093 585.137 273.093C585.516 273.093 585.87 273.163 586.201 273.302C586.531 273.439 586.811 273.649 587.041 273.934C587.275 274.216 587.437 274.572 587.528 275.002C587.619 275.43 587.616 275.936 587.519 276.52L587.455 276.92H582.001L582.114 276.207H586.746C586.822 275.758 586.801 275.355 586.682 274.998C586.564 274.64 586.363 274.357 586.078 274.148C585.796 273.936 585.446 273.83 585.028 273.83C584.601 273.83 584.196 273.949 583.814 274.189C583.435 274.428 583.114 274.74 582.851 275.125C582.59 275.507 582.422 275.914 582.346 276.348L582.255 276.884C582.158 277.475 582.17 277.97 582.291 278.37C582.413 278.767 582.632 279.067 582.951 279.27C583.269 279.473 583.676 279.575 584.173 279.575C584.507 279.575 584.808 279.523 585.078 279.42C585.348 279.317 585.582 279.18 585.782 279.007C585.982 278.831 586.143 278.639 586.264 278.43L586.987 278.68C586.832 278.973 586.614 279.245 586.332 279.493C586.054 279.742 585.722 279.942 585.337 280.093C584.955 280.242 584.529 280.316 584.06 280.316ZM590.224 275.807L589.502 280.17H588.693L589.856 273.189H590.643L590.461 274.284H590.533C590.752 273.926 591.053 273.64 591.438 273.425C591.826 273.207 592.276 273.098 592.788 273.098C593.255 273.098 593.649 273.196 593.97 273.393C594.294 273.587 594.524 273.873 594.661 274.252C594.8 274.631 594.824 275.096 594.733 275.648L593.974 280.17H593.165L593.911 275.698C594.005 275.128 593.921 274.676 593.661 274.343C593.403 274.007 593.005 273.839 592.465 273.839C592.099 273.839 591.758 273.917 591.443 274.075C591.13 274.233 590.867 274.46 590.652 274.757C590.437 275.051 590.294 275.401 590.224 275.807ZM600.019 273.189L599.905 273.893H596.569L596.687 273.189H600.019ZM598.001 271.516H598.814L597.678 278.348C597.629 278.639 597.641 278.867 597.714 279.034C597.787 279.198 597.899 279.314 598.051 279.384C598.202 279.451 598.369 279.484 598.551 279.484C598.657 279.484 598.748 279.478 598.823 279.466C598.902 279.451 598.972 279.436 599.032 279.42L599.091 280.152C599.004 280.183 598.899 280.21 598.778 280.234C598.657 280.261 598.511 280.275 598.341 280.275C598.044 280.275 597.77 280.21 597.519 280.08C597.267 279.949 597.076 279.755 596.946 279.498C596.816 279.24 596.781 278.92 596.841 278.539L598.001 271.516Z" fill="#B2B3B9"/>
<rect x="472" y="220.171" width="208" height="112" rx="1.6" stroke="#D1ECFF" stroke-width="3.2"/>
<path d="M476.326 345.736C476.28 345.332 476.093 345.02 475.763 344.798C475.434 344.574 475.019 344.462 474.519 344.462C474.161 344.462 473.851 344.519 473.59 344.632C473.329 344.743 473.125 344.896 472.981 345.092C472.839 345.286 472.768 345.506 472.768 345.753C472.768 345.96 472.816 346.139 472.912 346.29C473.012 346.44 473.141 346.567 473.3 346.669C473.462 346.769 473.635 346.852 473.82 346.921C474.005 346.986 474.182 347.04 474.353 347.082L475.205 347.304C475.483 347.372 475.769 347.465 476.062 347.581C476.354 347.698 476.625 347.851 476.875 348.041C477.125 348.232 477.327 348.467 477.481 348.749C477.637 349.03 477.715 349.367 477.715 349.759C477.715 350.253 477.587 350.692 477.331 351.075C477.079 351.459 476.711 351.761 476.228 351.983C475.748 352.205 475.167 352.315 474.485 352.315C473.831 352.315 473.266 352.212 472.789 352.004C472.312 351.797 471.938 351.503 471.668 351.122C471.398 350.739 471.249 350.284 471.221 349.759H472.542C472.567 350.074 472.67 350.337 472.849 350.547C473.03 350.754 473.262 350.909 473.543 351.011C473.827 351.111 474.138 351.161 474.476 351.161C474.849 351.161 475.179 351.102 475.469 350.986C475.762 350.867 475.992 350.702 476.16 350.492C476.327 350.278 476.411 350.03 476.411 349.746C476.411 349.487 476.337 349.276 476.189 349.111C476.045 348.946 475.847 348.81 475.597 348.702C475.35 348.594 475.07 348.499 474.758 348.416L473.726 348.135C473.027 347.945 472.474 347.665 472.064 347.296C471.658 346.926 471.455 346.438 471.455 345.83C471.455 345.327 471.591 344.888 471.864 344.513C472.137 344.138 472.506 343.847 472.972 343.639C473.438 343.429 473.964 343.324 474.549 343.324C475.14 343.324 475.661 343.428 476.113 343.635C476.567 343.842 476.925 344.128 477.187 344.492C477.448 344.852 477.584 345.267 477.596 345.736H476.326ZM482.242 345.625V346.648H478.666V345.625H482.242ZM479.625 344.057H480.899V350.249C480.899 350.496 480.936 350.682 481.01 350.807C481.084 350.929 481.179 351.013 481.296 351.058C481.415 351.101 481.544 351.122 481.683 351.122C481.786 351.122 481.875 351.115 481.952 351.101C482.029 351.087 482.088 351.075 482.131 351.067L482.361 352.119C482.287 352.148 482.182 352.176 482.046 352.205C481.909 352.236 481.739 352.253 481.534 352.256C481.199 352.261 480.886 352.202 480.597 352.077C480.307 351.952 480.073 351.759 479.894 351.497C479.715 351.236 479.625 350.908 479.625 350.513V344.057ZM485.556 352.315C485.141 352.315 484.766 352.239 484.431 352.085C484.096 351.929 483.83 351.703 483.634 351.408C483.441 351.112 483.344 350.75 483.344 350.321C483.344 349.952 483.415 349.648 483.557 349.409C483.699 349.171 483.891 348.982 484.133 348.842C484.374 348.703 484.644 348.598 484.942 348.527C485.241 348.456 485.545 348.402 485.854 348.365C486.246 348.32 486.564 348.283 486.809 348.254C487.053 348.223 487.231 348.173 487.341 348.105C487.452 348.037 487.508 347.926 487.508 347.773V347.743C487.508 347.371 487.402 347.082 487.192 346.878C486.985 346.673 486.675 346.571 486.263 346.571C485.834 346.571 485.496 346.666 485.249 346.857C485.005 347.044 484.836 347.253 484.742 347.483L483.545 347.21C483.687 346.813 483.894 346.492 484.167 346.247C484.442 346 484.759 345.821 485.117 345.71C485.475 345.597 485.851 345.54 486.246 345.54C486.508 345.54 486.785 345.571 487.077 345.634C487.373 345.693 487.648 345.804 487.904 345.966C488.162 346.128 488.374 346.359 488.539 346.661C488.704 346.959 488.786 347.347 488.786 347.824V352.171H487.542V351.276H487.491C487.408 351.44 487.285 351.602 487.12 351.761C486.955 351.921 486.743 352.053 486.485 352.158C486.226 352.263 485.917 352.315 485.556 352.315ZM485.833 351.293C486.185 351.293 486.486 351.223 486.736 351.084C486.989 350.945 487.181 350.763 487.312 350.538C487.445 350.311 487.512 350.068 487.512 349.81V348.966C487.466 349.011 487.378 349.054 487.248 349.094C487.12 349.131 486.974 349.163 486.809 349.192C486.644 349.217 486.483 349.242 486.327 349.264C486.171 349.284 486.04 349.301 485.935 349.315C485.688 349.347 485.462 349.399 485.258 349.473C485.056 349.547 484.894 349.653 484.772 349.793C484.652 349.929 484.593 350.111 484.593 350.338C484.593 350.653 484.709 350.892 484.942 351.054C485.175 351.213 485.472 351.293 485.833 351.293ZM493.538 345.625V346.648H489.963V345.625H493.538ZM490.922 344.057H492.196V350.249C492.196 350.496 492.233 350.682 492.307 350.807C492.381 350.929 492.476 351.013 492.592 351.058C492.712 351.101 492.841 351.122 492.98 351.122C493.083 351.122 493.172 351.115 493.249 351.101C493.325 351.087 493.385 351.075 493.428 351.067L493.658 352.119C493.584 352.148 493.479 352.176 493.342 352.205C493.206 352.236 493.036 352.253 492.831 352.256C492.496 352.261 492.183 352.202 491.894 352.077C491.604 351.952 491.369 351.759 491.19 351.497C491.011 351.236 490.922 350.908 490.922 350.513V344.057ZM497.699 352.303C497.054 352.303 496.498 352.165 496.032 351.889C495.569 351.611 495.211 351.22 494.959 350.717C494.709 350.212 494.584 349.619 494.584 348.94C494.584 348.27 494.709 347.679 494.959 347.168C495.211 346.656 495.564 346.257 496.015 345.97C496.47 345.683 497.001 345.54 497.609 345.54C497.978 345.54 498.336 345.601 498.683 345.723C499.03 345.845 499.341 346.037 499.616 346.298C499.892 346.56 500.109 346.899 500.268 347.317C500.427 347.732 500.507 348.236 500.507 348.83V349.281H495.304V348.327H499.258C499.258 347.992 499.19 347.695 499.054 347.436C498.917 347.175 498.726 346.969 498.478 346.818C498.234 346.668 497.947 346.592 497.618 346.592C497.26 346.592 496.947 346.68 496.68 346.857C496.416 347.03 496.211 347.257 496.067 347.538C495.924 347.817 495.853 348.119 495.853 348.446V349.192C495.853 349.629 495.93 350.001 496.084 350.308C496.24 350.615 496.457 350.85 496.736 351.011C497.014 351.171 497.339 351.25 497.711 351.25C497.953 351.25 498.173 351.216 498.372 351.148C498.571 351.077 498.743 350.972 498.888 350.832C499.032 350.693 499.143 350.521 499.22 350.317L500.426 350.534C500.329 350.889 500.156 351.2 499.906 351.467C499.659 351.732 499.348 351.938 498.973 352.085C498.601 352.23 498.176 352.303 497.699 352.303ZM502.33 347.982V346.861H507.788V347.982H502.33ZM502.33 350.607V349.486H507.788V350.607H502.33ZM510.015 352.171V343.443H511.332V347.236H515.683V343.443H517.004V352.171H515.683V348.365H511.332V352.171H510.015ZM521.576 352.303C520.962 352.303 520.427 352.162 519.97 351.881C519.512 351.6 519.157 351.206 518.904 350.7C518.651 350.195 518.525 349.604 518.525 348.928C518.525 348.249 518.651 347.655 518.904 347.146C519.157 346.638 519.512 346.243 519.97 345.962C520.427 345.68 520.962 345.54 521.576 345.54C522.19 345.54 522.725 345.68 523.183 345.962C523.64 346.243 523.995 346.638 524.248 347.146C524.501 347.655 524.627 348.249 524.627 348.928C524.627 349.604 524.501 350.195 524.248 350.7C523.995 351.206 523.64 351.6 523.183 351.881C522.725 352.162 522.19 352.303 521.576 352.303ZM521.58 351.233C521.978 351.233 522.308 351.128 522.569 350.918C522.83 350.707 523.024 350.428 523.149 350.078C523.276 349.729 523.34 349.344 523.34 348.923C523.34 348.506 523.276 348.122 523.149 347.773C523.024 347.421 522.83 347.138 522.569 346.925C522.308 346.712 521.978 346.605 521.58 346.605C521.18 346.605 520.847 346.712 520.583 346.925C520.322 347.138 520.127 347.421 519.999 347.773C519.874 348.122 519.812 348.506 519.812 348.923C519.812 349.344 519.874 349.729 519.999 350.078C520.127 350.428 520.322 350.707 520.583 350.918C520.847 351.128 521.18 351.233 521.58 351.233ZM531.426 345.625L529.053 352.171H527.689L525.311 345.625H526.679L528.337 350.662H528.405L530.058 345.625H531.426ZM535.222 352.303C534.577 352.303 534.022 352.165 533.556 351.889C533.093 351.611 532.735 351.22 532.482 350.717C532.232 350.212 532.107 349.619 532.107 348.94C532.107 348.27 532.232 347.679 532.482 347.168C532.735 346.656 533.087 346.257 533.539 345.97C533.993 345.683 534.525 345.54 535.133 345.54C535.502 345.54 535.86 345.601 536.206 345.723C536.553 345.845 536.864 346.037 537.14 346.298C537.415 346.56 537.633 346.899 537.792 347.317C537.951 347.732 538.03 348.236 538.03 348.83V349.281H532.827V348.327H536.782C536.782 347.992 536.714 347.695 536.577 347.436C536.441 347.175 536.249 346.969 536.002 346.818C535.758 346.668 535.471 346.592 535.141 346.592C534.783 346.592 534.471 346.68 534.204 346.857C533.939 347.03 533.735 347.257 533.59 347.538C533.448 347.817 533.377 348.119 533.377 348.446V349.192C533.377 349.629 533.454 350.001 533.607 350.308C533.763 350.615 533.981 350.85 534.259 351.011C534.537 351.171 534.863 351.25 535.235 351.25C535.476 351.25 535.697 351.216 535.895 351.148C536.094 351.077 536.266 350.972 536.411 350.832C536.556 350.693 536.667 350.521 536.743 350.317L537.949 350.534C537.853 350.889 537.679 351.2 537.429 351.467C537.182 351.732 536.871 351.938 536.496 352.085C536.124 352.23 535.699 352.303 535.222 352.303ZM539.444 352.171V345.625H540.676V346.665H540.744C540.863 346.313 541.073 346.036 541.374 345.834C541.678 345.629 542.022 345.527 542.406 345.527C542.485 345.527 542.579 345.53 542.687 345.536C542.798 345.541 542.884 345.548 542.947 345.557V346.776C542.896 346.761 542.805 346.746 542.674 346.729C542.543 346.709 542.413 346.699 542.282 346.699C541.981 346.699 541.712 346.763 541.477 346.891C541.244 347.016 541.059 347.19 540.923 347.415C540.786 347.636 540.718 347.889 540.718 348.173V352.171H539.444Z" fill="#9747FF"/>
<rect x="471.2" y="363.371" width="209.6" height="113.6" rx="2.4" fill="white"/>
<path d="M560.989 418.171H560.144C560.135 417.852 560.071 417.558 559.953 417.289C559.835 417.016 559.669 416.778 559.457 416.575C559.245 416.372 558.992 416.214 558.698 416.102C558.407 415.99 558.082 415.934 557.721 415.934C557.127 415.934 556.559 416.09 556.016 416.402C555.474 416.711 555.007 417.166 554.616 417.766C554.226 418.366 553.959 419.099 553.816 419.966C553.674 420.821 553.697 421.54 553.885 422.125C554.073 422.707 554.38 423.148 554.807 423.448C555.238 423.748 555.742 423.898 556.321 423.898C556.691 423.898 557.045 423.842 557.385 423.73C557.724 423.618 558.036 423.461 558.321 423.261C558.606 423.058 558.856 422.821 559.071 422.548C559.286 422.275 559.453 421.98 559.571 421.661H560.426C560.277 422.089 560.069 422.487 559.803 422.857C559.536 423.224 559.221 423.545 558.857 423.821C558.497 424.096 558.098 424.311 557.662 424.466C557.229 424.621 556.768 424.698 556.28 424.698C555.486 424.698 554.815 424.499 554.266 424.102C553.721 423.705 553.333 423.146 553.103 422.425C552.876 421.701 552.844 420.848 553.007 419.866C553.168 418.902 553.476 418.066 553.93 417.357C554.388 416.648 554.948 416.101 555.612 415.716C556.276 415.328 556.997 415.134 557.776 415.134C558.273 415.134 558.718 415.211 559.112 415.366C559.506 415.518 559.841 415.733 560.116 416.011C560.395 416.287 560.609 416.608 560.757 416.975C560.906 417.342 560.983 417.74 560.989 418.171ZM564.513 424.716C563.901 424.716 563.386 424.561 562.968 424.252C562.549 423.94 562.254 423.508 562.081 422.957C561.908 422.405 561.88 421.769 561.995 421.048C562.11 420.345 562.339 419.727 562.681 419.193C563.027 418.657 563.451 418.24 563.954 417.943C564.457 417.643 565.004 417.493 565.595 417.493C566.21 417.493 566.725 417.649 567.14 417.961C567.558 418.274 567.854 418.705 568.027 419.257C568.202 419.808 568.233 420.446 568.118 421.171C568.002 421.871 567.772 422.487 567.427 423.021C567.081 423.551 566.657 423.966 566.154 424.266C565.654 424.566 565.107 424.716 564.513 424.716ZM564.522 423.975C565.019 423.975 565.462 423.843 565.849 423.58C566.24 423.313 566.563 422.958 566.818 422.516C567.072 422.071 567.243 421.581 567.331 421.048C567.413 420.539 567.404 420.071 567.304 419.643C567.204 419.216 567.012 418.874 566.727 418.616C566.442 418.358 566.063 418.23 565.59 418.23C565.096 418.23 564.654 418.364 564.263 418.634C563.872 418.901 563.549 419.258 563.295 419.707C563.04 420.152 562.871 420.64 562.786 421.171C562.701 421.683 562.707 422.151 562.804 422.575C562.904 422.999 563.096 423.339 563.381 423.593C563.669 423.848 564.049 423.975 564.522 423.975ZM570.862 420.207L570.139 424.571H569.33L570.494 417.589H571.28L571.098 418.684H571.171C571.389 418.327 571.691 418.04 572.076 417.825C572.463 417.607 572.913 417.498 573.426 417.498C573.892 417.498 574.286 417.596 574.607 417.793C574.932 417.987 575.162 418.274 575.298 418.652C575.438 419.031 575.462 419.496 575.371 420.048L574.612 424.571H573.803L574.548 420.098C574.642 419.528 574.559 419.077 574.298 418.743C574.041 418.407 573.642 418.239 573.103 418.239C572.736 418.239 572.395 418.318 572.08 418.475C571.768 418.633 571.504 418.86 571.289 419.157C571.074 419.451 570.932 419.801 570.862 420.207ZM580.656 417.589L580.543 418.293H577.206L577.324 417.589H580.656ZM578.638 415.916H579.452L578.315 422.748C578.267 423.039 578.279 423.268 578.352 423.434C578.424 423.598 578.537 423.714 578.688 423.784C578.84 423.851 579.006 423.884 579.188 423.884C579.294 423.884 579.385 423.878 579.461 423.866C579.54 423.851 579.609 423.836 579.67 423.821L579.729 424.552C579.641 424.583 579.537 424.61 579.415 424.634C579.294 424.661 579.149 424.675 578.979 424.675C578.682 424.675 578.408 424.61 578.156 424.48C577.905 424.349 577.714 424.155 577.583 423.898C577.453 423.64 577.418 423.321 577.479 422.939L578.638 415.916ZM584.06 424.716C583.408 424.716 582.87 424.564 582.446 424.261C582.022 423.955 581.725 423.533 581.555 422.993C581.385 422.451 581.36 421.827 581.478 421.121C581.596 420.418 581.829 419.793 582.178 419.248C582.526 418.699 582.957 418.271 583.469 417.961C583.981 417.649 584.537 417.493 585.137 417.493C585.516 417.493 585.87 417.563 586.201 417.702C586.531 417.839 586.811 418.049 587.041 418.334C587.275 418.616 587.437 418.972 587.528 419.402C587.619 419.83 587.616 420.336 587.519 420.921L587.455 421.321H582.001L582.114 420.607H586.746C586.822 420.158 586.801 419.755 586.682 419.398C586.564 419.04 586.363 418.757 586.078 418.548C585.796 418.336 585.446 418.23 585.028 418.23C584.601 418.23 584.196 418.349 583.814 418.589C583.435 418.828 583.114 419.14 582.851 419.525C582.59 419.907 582.422 420.314 582.346 420.748L582.255 421.284C582.158 421.875 582.17 422.371 582.291 422.771C582.413 423.168 582.632 423.468 582.951 423.671C583.269 423.874 583.676 423.975 584.173 423.975C584.507 423.975 584.808 423.924 585.078 423.821C585.348 423.718 585.582 423.58 585.782 423.407C585.982 423.231 586.143 423.039 586.264 422.83L586.987 423.08C586.832 423.374 586.614 423.645 586.332 423.893C586.054 424.142 585.722 424.342 585.337 424.493C584.955 424.642 584.529 424.716 584.06 424.716ZM590.224 420.207L589.502 424.571H588.693L589.856 417.589H590.643L590.461 418.684H590.533C590.752 418.327 591.053 418.04 591.438 417.825C591.826 417.607 592.276 417.498 592.788 417.498C593.255 417.498 593.649 417.596 593.97 417.793C594.294 417.987 594.524 418.274 594.661 418.652C594.8 419.031 594.824 419.496 594.733 420.048L593.974 424.571H593.165L593.911 420.098C594.005 419.528 593.921 419.077 593.661 418.743C593.403 418.407 593.005 418.239 592.465 418.239C592.099 418.239 591.758 418.318 591.443 418.475C591.13 418.633 590.867 418.86 590.652 419.157C590.437 419.451 590.294 419.801 590.224 420.207ZM600.019 417.589L599.905 418.293H596.569L596.687 417.589H600.019ZM598.001 415.916H598.814L597.678 422.748C597.629 423.039 597.641 423.268 597.714 423.434C597.787 423.598 597.899 423.714 598.051 423.784C598.202 423.851 598.369 423.884 598.551 423.884C598.657 423.884 598.748 423.878 598.823 423.866C598.902 423.851 598.972 423.836 599.032 423.821L599.091 424.552C599.004 424.583 598.899 424.61 598.778 424.634C598.657 424.661 598.511 424.675 598.341 424.675C598.044 424.675 597.77 424.61 597.519 424.48C597.267 424.349 597.076 424.155 596.946 423.898C596.816 423.64 596.781 423.321 596.841 422.939L598.001 415.916Z" fill="#B2B3B9"/>
<rect x="471.2" y="363.371" width="209.6" height="113.6" rx="2.4" stroke="#0E75BB" stroke-width="1.6"/>
<path d="M476.314 489.736C476.269 489.332 476.081 489.02 475.752 488.798C475.422 488.574 475.007 488.462 474.507 488.462C474.149 488.462 473.84 488.518 473.578 488.632C473.317 488.743 473.114 488.896 472.969 489.092C472.827 489.285 472.756 489.506 472.756 489.753C472.756 489.96 472.804 490.139 472.901 490.29C473 490.44 473.129 490.567 473.288 490.669C473.45 490.768 473.624 490.852 473.808 490.92C473.993 490.986 474.171 491.04 474.341 491.082L475.193 491.304C475.472 491.372 475.757 491.464 476.05 491.581C476.342 491.697 476.614 491.851 476.864 492.041C477.114 492.231 477.315 492.467 477.469 492.749C477.625 493.03 477.703 493.366 477.703 493.758C477.703 494.253 477.575 494.692 477.32 495.075C477.067 495.459 476.699 495.761 476.216 495.983C475.736 496.205 475.155 496.315 474.473 496.315C473.82 496.315 473.254 496.212 472.777 496.004C472.3 495.797 471.926 495.503 471.656 495.122C471.386 494.739 471.237 494.284 471.209 493.758H472.53C472.556 494.074 472.658 494.337 472.837 494.547C473.019 494.754 473.25 494.909 473.531 495.011C473.815 495.111 474.127 495.16 474.465 495.16C474.837 495.16 475.168 495.102 475.458 494.986C475.75 494.866 475.98 494.702 476.148 494.491C476.315 494.278 476.399 494.03 476.399 493.746C476.399 493.487 476.325 493.276 476.178 493.111C476.033 492.946 475.835 492.81 475.585 492.702C475.338 492.594 475.058 492.499 474.746 492.416L473.715 492.135C473.016 491.945 472.462 491.665 472.053 491.295C471.646 490.926 471.443 490.437 471.443 489.83C471.443 489.327 471.58 488.888 471.852 488.513C472.125 488.138 472.494 487.847 472.96 487.639C473.426 487.429 473.952 487.324 474.537 487.324C475.128 487.324 475.649 487.428 476.101 487.635C476.556 487.842 476.913 488.128 477.175 488.491C477.436 488.852 477.573 489.267 477.584 489.736H476.314ZM482.23 489.625V490.648H478.655V489.625H482.23ZM479.613 488.057H480.888V494.249C480.888 494.496 480.924 494.682 480.998 494.807C481.072 494.929 481.167 495.013 481.284 495.058C481.403 495.101 481.532 495.122 481.672 495.122C481.774 495.122 481.863 495.115 481.94 495.101C482.017 495.087 482.076 495.075 482.119 495.067L482.349 496.119C482.275 496.148 482.17 496.176 482.034 496.205C481.898 496.236 481.727 496.253 481.523 496.256C481.187 496.261 480.875 496.202 480.585 496.077C480.295 495.952 480.061 495.758 479.882 495.497C479.703 495.236 479.613 494.908 479.613 494.513V488.057ZM485.544 496.315C485.129 496.315 484.754 496.239 484.419 496.085C484.084 495.929 483.818 495.703 483.622 495.408C483.429 495.112 483.333 494.75 483.333 494.321C483.333 493.952 483.404 493.648 483.546 493.409C483.688 493.17 483.879 492.981 484.121 492.842C484.362 492.703 484.632 492.598 484.931 492.527C485.229 492.456 485.533 492.402 485.842 492.365C486.235 492.32 486.553 492.283 486.797 492.254C487.041 492.223 487.219 492.173 487.33 492.105C487.44 492.037 487.496 491.926 487.496 491.773V491.743C487.496 491.371 487.391 491.082 487.181 490.878C486.973 490.673 486.663 490.571 486.252 490.571C485.823 490.571 485.485 490.666 485.237 490.856C484.993 491.044 484.824 491.253 484.73 491.483L483.533 491.21C483.675 490.812 483.882 490.491 484.155 490.247C484.431 490 484.747 489.821 485.105 489.71C485.463 489.597 485.84 489.54 486.235 489.54C486.496 489.54 486.773 489.571 487.065 489.633C487.361 489.693 487.636 489.804 487.892 489.966C488.151 490.128 488.362 490.359 488.527 490.66C488.692 490.959 488.774 491.347 488.774 491.824V496.17H487.53V495.276H487.479C487.396 495.44 487.273 495.602 487.108 495.761C486.943 495.92 486.732 496.053 486.473 496.158C486.215 496.263 485.905 496.315 485.544 496.315ZM485.821 495.293C486.173 495.293 486.475 495.223 486.725 495.084C486.977 494.945 487.169 494.763 487.3 494.538C487.433 494.311 487.5 494.068 487.5 493.81V492.966C487.455 493.011 487.367 493.054 487.236 493.094C487.108 493.131 486.962 493.163 486.797 493.192C486.632 493.217 486.472 493.241 486.315 493.264C486.159 493.284 486.029 493.301 485.923 493.315C485.676 493.347 485.45 493.399 485.246 493.473C485.044 493.547 484.882 493.653 484.76 493.793C484.641 493.929 484.581 494.111 484.581 494.338C484.581 494.653 484.698 494.892 484.931 495.054C485.163 495.213 485.46 495.293 485.821 495.293ZM493.527 489.625V490.648H489.951V489.625H493.527ZM490.91 488.057H492.184V494.249C492.184 494.496 492.221 494.682 492.295 494.807C492.369 494.929 492.464 495.013 492.581 495.058C492.7 495.101 492.829 495.122 492.969 495.122C493.071 495.122 493.16 495.115 493.237 495.101C493.314 495.087 493.373 495.075 493.416 495.067L493.646 496.119C493.572 496.148 493.467 496.176 493.331 496.205C493.194 496.236 493.024 496.253 492.819 496.256C492.484 496.261 492.172 496.202 491.882 496.077C491.592 495.952 491.358 495.758 491.179 495.497C491 495.236 490.91 494.908 490.91 494.513V488.057ZM497.687 496.303C497.042 496.303 496.487 496.165 496.021 495.889C495.558 495.611 495.2 495.22 494.947 494.717C494.697 494.212 494.572 493.619 494.572 492.94C494.572 492.27 494.697 491.679 494.947 491.168C495.2 490.656 495.552 490.257 496.004 489.97C496.458 489.683 496.989 489.54 497.597 489.54C497.967 489.54 498.325 489.601 498.671 489.723C499.018 489.845 499.329 490.037 499.605 490.298C499.88 490.56 500.097 490.899 500.257 491.317C500.416 491.731 500.495 492.236 500.495 492.83V493.281H495.292V492.327H499.247C499.247 491.991 499.178 491.695 499.042 491.436C498.906 491.175 498.714 490.969 498.467 490.818C498.222 490.668 497.936 490.592 497.606 490.592C497.248 490.592 496.936 490.68 496.668 490.856C496.404 491.03 496.2 491.257 496.055 491.538C495.913 491.817 495.842 492.119 495.842 492.446V493.192C495.842 493.629 495.918 494.001 496.072 494.308C496.228 494.615 496.445 494.849 496.724 495.011C497.002 495.17 497.328 495.25 497.7 495.25C497.941 495.25 498.161 495.216 498.36 495.148C498.559 495.077 498.731 494.972 498.876 494.832C499.021 494.693 499.132 494.521 499.208 494.317L500.414 494.534C500.318 494.889 500.144 495.2 499.894 495.467C499.647 495.731 499.336 495.937 498.961 496.085C498.589 496.23 498.164 496.303 497.687 496.303ZM502.318 491.981V490.861H507.777V491.981H502.318ZM502.318 494.606V493.486H507.777V494.606H502.318ZM510.003 496.17V487.443H515.415V488.577H511.32V491.236H515.027V492.365H511.32V496.17H510.003ZM519.209 496.303C518.595 496.303 518.06 496.162 517.602 495.881C517.145 495.599 516.79 495.206 516.537 494.7C516.284 494.195 516.158 493.604 516.158 492.928C516.158 492.249 516.284 491.655 516.537 491.146C516.79 490.638 517.145 490.243 517.602 489.962C518.06 489.68 518.595 489.54 519.209 489.54C519.823 489.54 520.358 489.68 520.815 489.962C521.273 490.243 521.628 490.638 521.881 491.146C522.134 491.655 522.26 492.249 522.26 492.928C522.26 493.604 522.134 494.195 521.881 494.7C521.628 495.206 521.273 495.599 520.815 495.881C520.358 496.162 519.823 496.303 519.209 496.303ZM519.213 495.233C519.611 495.233 519.94 495.128 520.202 494.918C520.463 494.707 520.656 494.428 520.781 494.078C520.909 493.729 520.973 493.344 520.973 492.923C520.973 492.506 520.909 492.122 520.781 491.773C520.656 491.42 520.463 491.138 520.202 490.925C519.94 490.712 519.611 490.605 519.213 490.605C518.813 490.605 518.48 490.712 518.216 490.925C517.955 491.138 517.76 491.42 517.632 491.773C517.507 492.122 517.445 492.506 517.445 492.923C517.445 493.344 517.507 493.729 517.632 494.078C517.76 494.428 517.955 494.707 518.216 494.918C518.48 495.128 518.813 495.233 519.213 495.233ZM526.439 496.303C525.806 496.303 525.26 496.159 524.803 495.872C524.349 495.582 523.999 495.183 523.755 494.675C523.51 494.166 523.388 493.584 523.388 492.928C523.388 492.263 523.513 491.676 523.763 491.168C524.013 490.656 524.366 490.257 524.82 489.97C525.275 489.683 525.81 489.54 526.427 489.54C526.924 489.54 527.367 489.632 527.756 489.817C528.145 489.999 528.459 490.254 528.698 490.584C528.939 490.913 529.083 491.298 529.128 491.739H527.888C527.82 491.432 527.664 491.168 527.42 490.946C527.178 490.724 526.854 490.614 526.448 490.614C526.093 490.614 525.782 490.707 525.515 490.895C525.25 491.08 525.045 491.344 524.897 491.687C524.749 492.028 524.675 492.432 524.675 492.898C524.675 493.375 524.748 493.787 524.893 494.133C525.037 494.48 525.242 494.749 525.506 494.939C525.773 495.129 526.087 495.224 526.448 495.224C526.689 495.224 526.908 495.18 527.104 495.092C527.303 495.001 527.469 494.872 527.603 494.705C527.739 494.537 527.834 494.335 527.888 494.099H529.128C529.083 494.523 528.945 494.901 528.715 495.233C528.485 495.565 528.177 495.827 527.79 496.017C527.407 496.207 526.956 496.303 526.439 496.303ZM534.637 493.456V489.625H535.916V496.17H534.663V495.037H534.595C534.444 495.386 534.203 495.678 533.87 495.91C533.541 496.141 533.13 496.256 532.639 496.256C532.218 496.256 531.846 496.163 531.522 495.979C531.201 495.791 530.948 495.514 530.764 495.148C530.582 494.781 530.491 494.328 530.491 493.788V489.625H531.765V493.635C531.765 494.081 531.889 494.436 532.136 494.7C532.383 494.964 532.704 495.097 533.099 495.097C533.337 495.097 533.575 495.037 533.811 494.918C534.049 494.798 534.247 494.618 534.403 494.376C534.562 494.135 534.64 493.828 534.637 493.456ZM542.532 491.223L541.378 491.428C541.329 491.28 541.253 491.139 541.148 491.006C541.045 490.872 540.906 490.763 540.73 490.678C540.554 490.592 540.334 490.55 540.069 490.55C539.709 490.55 539.407 490.631 539.166 490.793C538.924 490.952 538.804 491.158 538.804 491.41C538.804 491.629 538.885 491.805 539.047 491.939C539.209 492.072 539.47 492.182 539.831 492.267L540.871 492.506C541.473 492.645 541.922 492.859 542.217 493.149C542.513 493.439 542.66 493.815 542.66 494.278C542.66 494.67 542.547 495.02 542.319 495.327C542.095 495.631 541.781 495.869 541.378 496.043C540.977 496.216 540.513 496.303 539.984 496.303C539.251 496.303 538.653 496.146 538.19 495.834C537.727 495.518 537.443 495.071 537.338 494.491L538.569 494.304C538.646 494.625 538.804 494.868 539.042 495.033C539.281 495.195 539.592 495.276 539.976 495.276C540.393 495.276 540.727 495.189 540.977 495.016C541.227 494.839 541.352 494.625 541.352 494.372C541.352 494.168 541.275 493.996 541.122 493.856C540.971 493.717 540.74 493.612 540.427 493.541L539.319 493.298C538.709 493.159 538.257 492.937 537.964 492.633C537.674 492.33 537.53 491.945 537.53 491.479C537.53 491.092 537.638 490.754 537.853 490.464C538.069 490.175 538.368 489.949 538.748 489.787C539.129 489.622 539.565 489.54 540.057 489.54C540.764 489.54 541.321 489.693 541.727 490C542.133 490.304 542.402 490.712 542.532 491.223Z" fill="#9747FF"/>
<rect x="464.8" y="68.9705" width="222.4" height="436.8" rx="2.4" stroke="#9747FF" stroke-width="1.6" stroke-dasharray="3.2 3.2"/>
</svg>
