<svg width="72" height="72" viewBox="0 0 72 72" fill="none" xmlns="http://www.w3.org/2000/svg">
<path d="M68.97 27.0001C57.45 15.4801 41.4 11.2801 26.52 14.3401L34.08 21.9001C44.49 21.3901 55.05 25.0501 62.97 33.0001L68.97 27.0001ZM56.97 39.0001C53.1 35.1301 48.45 32.6101 43.5 31.3201L54.09 41.9101L56.97 39.0001ZM6 9.15012L15.21 18.3001C10.8 20.4601 6.66 23.3401 3 27.0001L8.97 33.0001C12.69 29.2801 16.98 26.5201 21.57 24.6901L28.29 31.4101C23.43 32.6701 18.81 35.1901 15 39.0001V39.0301L20.97 45.0001C25.05 40.9201 30.39 38.8801 35.73 38.8201L56.94 60.0001L60.75 56.2201L9.87 5.37012L6 9.15012ZM27 51.0001L36 60.0001L45 51.0001C40.05 46.0201 31.98 46.0201 27 51.0001Z" fill="#FF4141"/>
</svg>
