<svg width="40" height="40" viewBox="0 0 40 40" fill="none" xmlns="http://www.w3.org/2000/svg">
<circle cx="20" cy="20" r="20" fill="white"/>
<path d="M14.386 12C14.2809 12.0018 14.1773 12.0243 14.0809 12.0662C13.9845 12.1081 13.8974 12.1686 13.8244 12.2442C13.7514 12.3198 13.694 12.409 13.6555 12.5068C13.617 12.6045 13.5981 12.7089 13.6 12.814V13.614H13.2C12.8817 13.614 12.5765 13.7404 12.3515 13.9655C12.1264 14.1905 12 14.4957 12 14.814C12 15.1323 12.1264 15.4375 12.3515 15.6625C12.5765 15.8876 12.8817 16.014 13.2 16.014H15.6C15.9183 16.014 16.2235 15.8876 16.4485 15.6625C16.6736 15.4375 16.8 15.1323 16.8 14.814C16.8 14.4957 16.6736 14.1905 16.4485 13.9655C16.2235 13.7404 15.9183 13.614 15.6 13.614H15.2V12.814C15.2013 12.7071 15.1813 12.601 15.1409 12.502C15.1005 12.403 15.0407 12.313 14.9651 12.2375C14.8894 12.162 14.7993 12.1024 14.7002 12.0623C14.6011 12.0222 14.4949 12.0024 14.388 12.004L14.386 12ZM19.986 12C19.8809 12.0018 19.7773 12.0243 19.6809 12.0662C19.5845 12.1081 19.4974 12.1686 19.4244 12.2442C19.3514 12.3198 19.294 12.409 19.2555 12.5068C19.217 12.6045 19.1981 12.7089 19.2 12.814V21.608H18.8C18.4817 21.608 18.1765 21.7344 17.9515 21.9595C17.7264 22.1845 17.6 22.4897 17.6 22.808C17.6 23.1263 17.7264 23.4315 17.9515 23.6565C18.1765 23.8816 18.4817 24.008 18.8 24.008H21.2C21.5183 24.008 21.8235 23.8816 22.0485 23.6565C22.2736 23.4315 22.4 23.1263 22.4 22.808C22.4 22.4897 22.2736 22.1845 22.0485 21.9595C21.8235 21.7344 21.5183 21.608 21.2 21.608H20.8V12.814C20.8013 12.7071 20.7813 12.601 20.7409 12.502C20.7005 12.403 20.6407 12.313 20.5651 12.2375C20.4894 12.162 20.3993 12.1024 20.3002 12.0623C20.2011 12.0222 20.0949 12.0024 19.988 12.004L19.986 12ZM25.586 12C25.3743 12.0034 25.1727 12.0906 25.0252 12.2424C24.8777 12.3942 24.7963 12.5983 24.799 12.81V17.61H24.399C24.0807 17.61 23.7755 17.7364 23.5505 17.9615C23.3254 18.1865 23.199 18.4917 23.199 18.81C23.199 19.1283 23.3254 19.4335 23.5505 19.6585C23.7755 19.8836 24.0807 20.01 24.399 20.01H26.799C27.1173 20.01 27.4225 19.8836 27.6475 19.6585C27.8726 19.4335 27.999 19.1283 27.999 18.81C27.999 18.4917 27.8726 18.1865 27.6475 17.9615C27.4225 17.7364 27.1173 17.61 26.799 17.61H26.399V12.814C26.4003 12.7071 26.3803 12.601 26.3399 12.502C26.2995 12.403 26.2397 12.313 26.1641 12.2375C26.0884 12.162 25.9983 12.1024 25.8992 12.0623C25.8001 12.0222 25.6939 12.0024 25.587 12.004L25.586 12ZM13.6 17.607V27.2C13.6 27.4122 13.6843 27.6157 13.8343 27.7657C13.9843 27.9157 14.1878 28 14.4 28C14.6122 28 14.8157 27.9157 14.9657 27.7657C15.1157 27.6157 15.2 27.4122 15.2 27.2V17.607H13.6ZM24.792 21.607V27.207C24.792 27.4192 24.8763 27.6227 25.0263 27.7727C25.1763 27.9227 25.3798 28.007 25.592 28.007C25.8042 28.007 26.0077 27.9227 26.1577 27.7727C26.3077 27.6227 26.392 27.4192 26.392 27.207V21.607H24.792ZM19.192 25.607V27.207C19.192 27.4192 19.2763 27.6227 19.4263 27.7727C19.5763 27.9227 19.7798 28.007 19.992 28.007C20.2042 28.007 20.4077 27.9227 20.5577 27.7727C20.7077 27.6227 20.792 27.4192 20.792 27.207V25.607H19.192Z" fill="#0E73B9"/>
</svg>
