<svg width="534" height="345" viewBox="0 0 534 345" fill="none" xmlns="http://www.w3.org/2000/svg">
<rect x="1" y="1" width="532" height="343" rx="11" fill="white"/>
<circle cx="307" cy="73" r="28" fill="#4D4F83"/>
<circle cx="153" cy="271" r="18" fill="#302C27"/>
<path d="M59.04 275.12L53.724 267.548H53.676V272.708C53.676 273.108 53.688 273.424 53.712 273.656C53.744 273.888 53.804 274.068 53.892 274.196C53.988 274.324 54.116 274.408 54.276 274.448C54.444 274.488 54.66 274.512 54.924 274.52V275H51.36V274.52C51.656 274.512 51.892 274.488 52.068 274.448C52.252 274.4 52.392 274.316 52.488 274.196C52.592 274.076 52.66 273.908 52.692 273.692C52.724 273.468 52.74 273.168 52.74 272.792V267.968C52.74 267.632 52.724 267.356 52.692 267.14C52.66 266.916 52.6 266.74 52.512 266.612C52.424 266.484 52.296 266.396 52.128 266.348C51.968 266.292 51.752 266.256 51.48 266.24V265.76H54.828L59.664 272.696H59.712V268.052C59.712 267.66 59.696 267.348 59.664 267.116C59.64 266.876 59.58 266.692 59.484 266.564C59.396 266.436 59.268 266.352 59.1 266.312C58.94 266.272 58.728 266.248 58.464 266.24V265.76H62.028V266.24C61.732 266.248 61.492 266.276 61.308 266.324C61.132 266.364 60.992 266.444 60.888 266.564C60.792 266.684 60.728 266.856 60.696 267.08C60.664 267.304 60.648 267.6 60.648 267.968V275.12H59.04ZM68.4488 273.884C67.7208 274.708 66.8128 275.12 65.7248 275.12C65.2288 275.12 64.7768 275.044 64.3688 274.892C63.9688 274.732 63.6248 274.512 63.3368 274.232C63.0488 273.944 62.8248 273.604 62.6648 273.212C62.5048 272.82 62.4248 272.384 62.4248 271.904C62.4248 271.408 62.5088 270.956 62.6768 270.548C62.8448 270.132 63.0808 269.776 63.3848 269.48C63.6968 269.176 64.0608 268.94 64.4768 268.772C64.9008 268.604 65.3648 268.52 65.8688 268.52C66.7168 268.52 67.3768 268.748 67.8488 269.204C68.3208 269.66 68.5568 270.3 68.5568 271.124C68.5568 271.252 68.5368 271.332 68.4968 271.364C68.4568 271.388 68.3448 271.4 68.1608 271.4H64.2968C64.2648 271.472 64.2488 271.604 64.2488 271.796C64.2488 272.58 64.4168 273.2 64.7528 273.656C65.0968 274.112 65.5608 274.34 66.1448 274.34C66.4808 274.34 66.8128 274.264 67.1408 274.112C67.4768 273.96 67.8008 273.744 68.1128 273.464L68.4488 273.884ZM66.1208 270.728C66.4408 270.728 66.6448 270.712 66.7328 270.68C66.8288 270.64 66.8768 270.552 66.8768 270.416C66.8768 270.064 66.7768 269.776 66.5768 269.552C66.3768 269.328 66.1248 269.216 65.8208 269.216C65.4768 269.216 65.1688 269.36 64.8968 269.648C64.6328 269.928 64.4608 270.288 64.3808 270.728H66.1208ZM74.5683 270.608C74.5683 270.288 74.5603 270.036 74.5443 269.852C74.5283 269.66 74.4843 269.516 74.4123 269.42C74.3403 269.316 74.2323 269.248 74.0883 269.216C73.9523 269.176 73.7643 269.144 73.5243 269.12V268.64H76.2363V272.276C76.2363 272.764 76.2403 273.148 76.2483 273.428C76.2643 273.7 76.2883 273.904 76.3203 274.04C76.3443 274.144 76.3723 274.228 76.4043 274.292C76.4363 274.348 76.4883 274.396 76.5603 274.436C76.6323 274.468 76.7283 274.492 76.8483 274.508C76.9763 274.516 77.1403 274.52 77.3403 274.52V274.988L74.9523 275.132L74.8203 274.064H74.7723C74.5643 274.4 74.2723 274.66 73.8963 274.844C73.5203 275.028 73.1003 275.12 72.6363 275.12C71.7803 275.12 71.1283 274.816 70.6803 274.208C70.3363 273.744 70.1643 273.084 70.1643 272.228V270.608C70.1643 270.28 70.1563 270.024 70.1403 269.84C70.1243 269.648 70.0803 269.504 70.0083 269.408C69.9443 269.312 69.8443 269.248 69.7083 269.216C69.5723 269.176 69.3843 269.144 69.1443 269.12V268.64H71.8323V272.036C71.8323 272.844 71.9323 273.432 72.1323 273.8C72.3323 274.16 72.6523 274.34 73.0923 274.34C73.5643 274.34 73.9283 274.124 74.1843 273.692C74.4403 273.276 74.5683 272.664 74.5683 271.856V270.608ZM77.7961 269.3V268.76C78.2761 268.624 78.6761 268.42 78.9961 268.148C79.3241 267.868 79.5681 267.548 79.7281 267.188H80.3401V268.64H81.7201V269.3H80.3401V272.984C80.3401 273.48 80.3921 273.832 80.4961 274.04C80.6081 274.248 80.7921 274.352 81.0481 274.352C81.3601 274.352 81.5961 274.208 81.7561 273.92L82.0081 274.268C81.7841 274.836 81.2561 275.12 80.4241 275.12C79.8721 275.12 79.4401 274.992 79.1281 274.736C78.8241 274.48 78.6721 274.12 78.6721 273.656V269.3H77.7961ZM85.1741 273.14C85.1741 273.452 85.1861 273.7 85.2101 273.884C85.2421 274.06 85.3021 274.196 85.3901 274.292C85.4781 274.388 85.6061 274.452 85.7741 274.484C85.9421 274.508 86.1661 274.52 86.4461 274.52V275H82.4381V274.52C82.6781 274.504 82.8701 274.48 83.0141 274.448C83.1581 274.416 83.2661 274.352 83.3381 274.256C83.4101 274.16 83.4541 274.024 83.4701 273.848C83.4941 273.664 83.5061 273.42 83.5061 273.116V271.652C83.5061 271.156 83.4941 270.76 83.4701 270.464C83.4461 270.168 83.3941 269.94 83.3141 269.78C83.2341 269.62 83.1181 269.516 82.9661 269.468C82.8221 269.412 82.6301 269.384 82.3901 269.384V268.964L84.7901 268.52L84.9821 269.9H85.0301C85.2461 269.476 85.5301 269.14 85.8821 268.892C86.2341 268.644 86.6061 268.52 86.9981 268.52C87.3021 268.52 87.5501 268.596 87.7421 268.748C87.9341 268.9 88.0301 269.092 88.0301 269.324C88.0301 269.58 87.9541 269.796 87.8021 269.972C87.6581 270.148 87.4581 270.236 87.2021 270.236C87.0821 270.236 86.9741 270.212 86.8781 270.164C86.7821 270.116 86.6941 270.064 86.6141 270.008C86.5421 269.944 86.4661 269.888 86.3861 269.84C86.3141 269.784 86.2381 269.756 86.1581 269.756C86.0061 269.756 85.8621 269.856 85.7261 270.056C85.5901 270.256 85.4781 270.524 85.3901 270.86C85.3261 271.1 85.2741 271.372 85.2341 271.676C85.1941 271.972 85.1741 272.268 85.1741 272.564V273.14ZM92.1827 271.58C91.5107 271.884 91.0027 272.168 90.6587 272.432C90.3227 272.688 90.1547 272.956 90.1547 273.236C90.1547 273.468 90.2187 273.652 90.3467 273.788C90.4747 273.924 90.6347 273.992 90.8267 273.992C91.0187 273.992 91.1987 273.96 91.3667 273.896C91.5347 273.824 91.6787 273.732 91.7987 273.62C91.9187 273.508 92.0107 273.376 92.0747 273.224C92.1467 273.064 92.1827 272.896 92.1827 272.72V271.58ZM92.1827 270.944V270.44C92.1827 269.976 92.0987 269.64 91.9307 269.432C91.7707 269.216 91.5187 269.108 91.1747 269.108C90.9427 269.108 90.7667 269.172 90.6467 269.3C90.5267 269.42 90.4147 269.624 90.3107 269.912C90.2387 270.112 90.1347 270.268 89.9987 270.38C89.8707 270.492 89.6907 270.548 89.4587 270.548C89.2347 270.548 89.0627 270.48 88.9427 270.344C88.8227 270.208 88.7627 270.016 88.7627 269.768C88.7627 269.384 88.9707 269.08 89.3867 268.856C89.8107 268.632 90.4467 268.52 91.2947 268.52C92.1907 268.52 92.8307 268.684 93.2147 269.012C93.5987 269.332 93.7907 269.872 93.7907 270.632V273.26C93.7907 273.94 93.9267 274.28 94.1987 274.28C94.3507 274.28 94.4907 274.228 94.6187 274.124L94.7987 274.472C94.6867 274.672 94.5107 274.832 94.2707 274.952C94.0387 275.064 93.7747 275.12 93.4787 275.12C93.1107 275.12 92.8307 275.008 92.6387 274.784C92.4467 274.56 92.3507 274.244 92.3507 273.836H92.2907C92.0587 274.252 91.7587 274.568 91.3907 274.784C91.0227 275 90.6027 275.108 90.1307 275.108C89.6267 275.108 89.2227 274.968 88.9187 274.688C88.6147 274.4 88.4627 274.028 88.4627 273.572C88.4627 273.22 88.6187 272.892 88.9307 272.588C89.2427 272.276 89.7627 271.972 90.4907 271.676L92.1827 270.944ZM97.9093 273.032C97.9093 273.352 97.9213 273.608 97.9453 273.8C97.9693 273.992 98.0173 274.14 98.0893 274.244C98.1613 274.348 98.2653 274.42 98.4013 274.46C98.5373 274.492 98.7213 274.512 98.9533 274.52V275H95.1733V274.52C95.3973 274.512 95.5773 274.488 95.7133 274.448C95.8573 274.4 95.9653 274.328 96.0373 274.232C96.1173 274.128 96.1693 273.988 96.1933 273.812C96.2253 273.628 96.2413 273.396 96.2413 273.116V268.16C96.2413 267.696 96.2333 267.316 96.2173 267.02C96.2013 266.716 96.1813 266.508 96.1573 266.396C96.1173 266.196 96.0253 266.064 95.8813 266C95.7453 265.936 95.4933 265.904 95.1253 265.904V265.496L97.9093 265.04V273.032ZM100.231 275H99.8589V272.816H100.363C100.499 273.392 100.695 273.812 100.951 274.076C101.207 274.34 101.539 274.472 101.947 274.472C102.243 274.472 102.471 274.412 102.631 274.292C102.799 274.164 102.883 273.992 102.883 273.776C102.883 273.552 102.783 273.336 102.583 273.128C102.383 272.912 102.059 272.684 101.611 272.444C101.003 272.116 100.567 271.792 100.303 271.472C100.039 271.144 99.9069 270.776 99.9069 270.368C99.9069 270.104 99.9549 269.86 100.051 269.636C100.155 269.404 100.291 269.204 100.459 269.036C100.635 268.868 100.843 268.74 101.083 268.652C101.323 268.556 101.583 268.508 101.863 268.508C102.111 268.508 102.355 268.544 102.595 268.616C102.843 268.688 103.059 268.788 103.243 268.916L103.459 268.628H103.771V270.44H103.303C103.119 269.984 102.927 269.656 102.727 269.456C102.535 269.256 102.299 269.156 102.019 269.156C101.795 269.156 101.615 269.216 101.479 269.336C101.351 269.456 101.287 269.616 101.287 269.816C101.287 270.04 101.383 270.252 101.575 270.452C101.775 270.652 102.103 270.872 102.559 271.112C102.879 271.288 103.155 271.46 103.387 271.628C103.619 271.796 103.807 271.968 103.951 272.144C104.095 272.312 104.199 272.492 104.263 272.684C104.335 272.868 104.371 273.068 104.371 273.284C104.371 273.564 104.319 273.816 104.215 274.04C104.111 274.264 103.963 274.456 103.771 274.616C103.579 274.776 103.347 274.9 103.075 274.988C102.811 275.076 102.515 275.12 102.187 275.12C101.843 275.12 101.523 275.076 101.227 274.988C100.931 274.892 100.687 274.756 100.495 274.58L100.231 275Z" fill="#302C27"/>
<path d="M51.648 211.94H52.116C52.228 212.7 52.532 213.3 53.028 213.74C53.524 214.172 54.136 214.388 54.864 214.388C55.16 214.388 55.432 214.352 55.68 214.28C55.928 214.208 56.14 214.108 56.316 213.98C56.492 213.844 56.628 213.688 56.724 213.512C56.82 213.328 56.868 213.124 56.868 212.9C56.868 212.708 56.836 212.544 56.772 212.408C56.716 212.264 56.604 212.128 56.436 212C56.268 211.864 56.036 211.728 55.74 211.592C55.452 211.456 55.076 211.3 54.612 211.124C53.676 210.764 52.984 210.348 52.536 209.876C52.088 209.396 51.864 208.832 51.864 208.184C51.864 207.808 51.936 207.464 52.08 207.152C52.224 206.84 52.424 206.572 52.68 206.348C52.944 206.124 53.256 205.952 53.616 205.832C53.984 205.704 54.388 205.64 54.828 205.64C55.236 205.64 55.62 205.704 55.98 205.832C56.34 205.96 56.696 206.152 57.048 206.408L57.264 205.808H57.552L57.684 208.4H57.216C57.024 207.744 56.724 207.244 56.316 206.9C55.908 206.548 55.436 206.372 54.9 206.372C54.404 206.372 54 206.496 53.688 206.744C53.384 206.984 53.232 207.296 53.232 207.68C53.232 207.848 53.26 208 53.316 208.136C53.372 208.264 53.476 208.388 53.628 208.508C53.78 208.628 53.988 208.752 54.252 208.88C54.516 209 54.856 209.136 55.272 209.288C55.832 209.504 56.308 209.724 56.7 209.948C57.1 210.164 57.424 210.4 57.672 210.656C57.928 210.904 58.116 211.168 58.236 211.448C58.356 211.728 58.416 212.036 58.416 212.372C58.416 212.78 58.328 213.152 58.152 213.488C57.976 213.824 57.728 214.112 57.408 214.352C57.096 214.592 56.72 214.78 56.28 214.916C55.848 215.052 55.368 215.12 54.84 215.12C54.36 215.12 53.928 215.056 53.544 214.928C53.16 214.792 52.764 214.576 52.356 214.28L52.116 215H51.828L51.648 211.94ZM61.885 213.032C61.885 213.36 61.893 213.62 61.909 213.812C61.933 213.996 61.977 214.14 62.041 214.244C62.113 214.348 62.217 214.416 62.353 214.448C62.497 214.48 62.689 214.504 62.929 214.52V215H59.149V214.52C59.389 214.504 59.581 214.48 59.725 214.448C59.869 214.416 59.977 214.352 60.049 214.256C60.121 214.16 60.165 214.024 60.181 213.848C60.205 213.664 60.217 213.42 60.217 213.116V208.184C60.217 207.704 60.209 207.328 60.193 207.056C60.185 206.776 60.165 206.564 60.133 206.42C60.109 206.316 60.081 206.236 60.049 206.18C60.017 206.116 59.965 206.068 59.893 206.036C59.829 205.996 59.737 205.972 59.617 205.964C59.505 205.948 59.361 205.94 59.185 205.94V205.496L61.861 205.04V209.468H61.909C62.157 209.14 62.433 208.9 62.737 208.748C63.049 208.596 63.421 208.52 63.853 208.52C64.637 208.52 65.245 208.76 65.677 209.24C65.885 209.48 66.049 209.772 66.169 210.116C66.289 210.452 66.349 210.804 66.349 211.172V213.032C66.349 213.368 66.357 213.632 66.373 213.824C66.389 214.008 66.429 214.152 66.493 214.256C66.565 214.352 66.669 214.416 66.805 214.448C66.941 214.48 67.129 214.504 67.369 214.52V215H63.613V214.52C63.853 214.512 64.041 214.492 64.177 214.46C64.321 214.42 64.429 214.352 64.501 214.256C64.581 214.16 64.629 214.024 64.645 213.848C64.669 213.664 64.681 213.42 64.681 213.116V211.64C64.681 210.792 64.589 210.192 64.405 209.84C64.221 209.488 63.905 209.312 63.457 209.312C62.977 209.312 62.597 209.488 62.317 209.84C62.181 210.024 62.073 210.252 61.993 210.524C61.921 210.796 61.885 211.1 61.885 211.436V213.032ZM71.6514 211.58C70.9794 211.884 70.4714 212.168 70.1274 212.432C69.7914 212.688 69.6234 212.956 69.6234 213.236C69.6234 213.468 69.6874 213.652 69.8154 213.788C69.9434 213.924 70.1034 213.992 70.2954 213.992C70.4874 213.992 70.6674 213.96 70.8354 213.896C71.0034 213.824 71.1474 213.732 71.2674 213.62C71.3874 213.508 71.4794 213.376 71.5434 213.224C71.6154 213.064 71.6514 212.896 71.6514 212.72V211.58ZM71.6514 210.944V210.44C71.6514 209.976 71.5674 209.64 71.3994 209.432C71.2394 209.216 70.9874 209.108 70.6434 209.108C70.4114 209.108 70.2354 209.172 70.1154 209.3C69.9954 209.42 69.8834 209.624 69.7794 209.912C69.7074 210.112 69.6034 210.268 69.4674 210.38C69.3394 210.492 69.1594 210.548 68.9274 210.548C68.7034 210.548 68.5314 210.48 68.4114 210.344C68.2914 210.208 68.2314 210.016 68.2314 209.768C68.2314 209.384 68.4394 209.08 68.8554 208.856C69.2794 208.632 69.9154 208.52 70.7634 208.52C71.6594 208.52 72.2994 208.684 72.6834 209.012C73.0674 209.332 73.2594 209.872 73.2594 210.632V213.26C73.2594 213.94 73.3954 214.28 73.6674 214.28C73.8194 214.28 73.9594 214.228 74.0874 214.124L74.2674 214.472C74.1554 214.672 73.9794 214.832 73.7394 214.952C73.5074 215.064 73.2434 215.12 72.9474 215.12C72.5794 215.12 72.2994 215.008 72.1074 214.784C71.9154 214.56 71.8194 214.244 71.8194 213.836H71.7594C71.5274 214.252 71.2274 214.568 70.8594 214.784C70.4914 215 70.0714 215.108 69.5994 215.108C69.0954 215.108 68.6914 214.968 68.3874 214.688C68.0834 214.4 67.9314 214.028 67.9314 213.572C67.9314 213.22 68.0874 212.892 68.3994 212.588C68.7114 212.276 69.2314 211.972 69.9594 211.676L71.6514 210.944ZM80.1861 214.232H80.1381C79.5861 214.824 78.8701 215.12 77.9901 215.12C77.5341 215.12 77.1141 215.04 76.7301 214.88C76.3541 214.72 76.0261 214.496 75.7461 214.208C75.4741 213.92 75.2621 213.58 75.1101 213.188C74.9581 212.788 74.8821 212.348 74.8821 211.868C74.8821 211.388 74.9581 210.944 75.1101 210.536C75.2701 210.128 75.4821 209.776 75.7461 209.48C76.0181 209.176 76.3381 208.94 76.7061 208.772C77.0821 208.604 77.4861 208.52 77.9181 208.52C78.3181 208.52 78.6701 208.58 78.9741 208.7C79.2861 208.82 79.5581 209.024 79.7901 209.312H79.8381V208.292C79.8381 207.82 79.8301 207.416 79.8141 207.08C79.8061 206.736 79.7901 206.512 79.7661 206.408C79.7261 206.24 79.6021 206.12 79.3941 206.048C79.1941 205.968 78.8821 205.928 78.4581 205.928V205.52L81.4941 205.04V211.904C81.4941 212.504 81.4981 212.968 81.5061 213.296C81.5221 213.616 81.5461 213.86 81.5781 214.028C81.5941 214.132 81.6181 214.216 81.6501 214.28C81.6821 214.344 81.7301 214.396 81.7941 214.436C81.8581 214.468 81.9421 214.492 82.0461 214.508C82.1581 214.516 82.2981 214.52 82.4661 214.52V214.988L80.1861 215.12V214.232ZM79.8141 211.556C79.8141 211.252 79.7821 210.972 79.7181 210.716C79.6541 210.452 79.5581 210.22 79.4301 210.02C79.2861 209.788 79.1021 209.612 78.8781 209.492C78.6541 209.372 78.4141 209.312 78.1581 209.312C77.6861 209.312 77.3261 209.528 77.0781 209.96C76.8301 210.392 76.7061 211.02 76.7061 211.844C76.7061 212.676 76.8301 213.316 77.0781 213.764C77.3261 214.212 77.6821 214.436 78.1461 214.436C78.4101 214.436 78.6621 214.368 78.9021 214.232C79.1421 214.096 79.3381 213.912 79.4901 213.68C79.6021 213.504 79.6821 213.288 79.7301 213.032C79.7861 212.768 79.8141 212.432 79.8141 212.024V211.556ZM89.2261 213.884C88.4981 214.708 87.5901 215.12 86.5021 215.12C86.0061 215.12 85.5541 215.044 85.1461 214.892C84.7461 214.732 84.4021 214.512 84.1141 214.232C83.8261 213.944 83.6021 213.604 83.4421 213.212C83.2821 212.82 83.2021 212.384 83.2021 211.904C83.2021 211.408 83.2861 210.956 83.4541 210.548C83.6221 210.132 83.8581 209.776 84.1621 209.48C84.4741 209.176 84.8381 208.94 85.2541 208.772C85.6781 208.604 86.1421 208.52 86.6461 208.52C87.4941 208.52 88.1541 208.748 88.6261 209.204C89.0981 209.66 89.3341 210.3 89.3341 211.124C89.3341 211.252 89.3141 211.332 89.2741 211.364C89.2341 211.388 89.1221 211.4 88.9381 211.4H85.0741C85.0421 211.472 85.0261 211.604 85.0261 211.796C85.0261 212.58 85.1941 213.2 85.5301 213.656C85.8741 214.112 86.3381 214.34 86.9221 214.34C87.2581 214.34 87.5901 214.264 87.9181 214.112C88.2541 213.96 88.5781 213.744 88.8901 213.464L89.2261 213.884ZM86.8981 210.728C87.2181 210.728 87.4221 210.712 87.5101 210.68C87.6061 210.64 87.6541 210.552 87.6541 210.416C87.6541 210.064 87.5541 209.776 87.3541 209.552C87.1541 209.328 86.9021 209.216 86.5981 209.216C86.2541 209.216 85.9461 209.36 85.6741 209.648C85.4101 209.928 85.2381 210.288 85.1581 210.728H86.8981ZM90.7856 215H90.4136V212.816H90.9176C91.0536 213.392 91.2496 213.812 91.5056 214.076C91.7616 214.34 92.0936 214.472 92.5016 214.472C92.7976 214.472 93.0256 214.412 93.1856 214.292C93.3536 214.164 93.4376 213.992 93.4376 213.776C93.4376 213.552 93.3376 213.336 93.1376 213.128C92.9376 212.912 92.6136 212.684 92.1656 212.444C91.5576 212.116 91.1216 211.792 90.8576 211.472C90.5936 211.144 90.4616 210.776 90.4616 210.368C90.4616 210.104 90.5096 209.86 90.6056 209.636C90.7096 209.404 90.8456 209.204 91.0136 209.036C91.1896 208.868 91.3976 208.74 91.6376 208.652C91.8776 208.556 92.1376 208.508 92.4176 208.508C92.6656 208.508 92.9096 208.544 93.1496 208.616C93.3976 208.688 93.6136 208.788 93.7976 208.916L94.0136 208.628H94.3256V210.44H93.8576C93.6736 209.984 93.4816 209.656 93.2816 209.456C93.0896 209.256 92.8536 209.156 92.5736 209.156C92.3496 209.156 92.1696 209.216 92.0336 209.336C91.9056 209.456 91.8416 209.616 91.8416 209.816C91.8416 210.04 91.9376 210.252 92.1296 210.452C92.3296 210.652 92.6576 210.872 93.1136 211.112C93.4336 211.288 93.7096 211.46 93.9416 211.628C94.1736 211.796 94.3616 211.968 94.5056 212.144C94.6496 212.312 94.7536 212.492 94.8176 212.684C94.8896 212.868 94.9256 213.068 94.9256 213.284C94.9256 213.564 94.8736 213.816 94.7696 214.04C94.6656 214.264 94.5176 214.456 94.3256 214.616C94.1336 214.776 93.9016 214.9 93.6296 214.988C93.3656 215.076 93.0696 215.12 92.7416 215.12C92.3976 215.12 92.0776 215.076 91.7816 214.988C91.4856 214.892 91.2416 214.756 91.0496 214.58L90.7856 215Z" fill="#302C27"/>
<circle cx="453" cy="271" r="17.5" fill="white" stroke="black"/>
<circle cx="79" cy="73" r="28" fill="#DB9224"/>
<path d="M146.2 58.104C146.2 59.256 145.752 60.136 144.856 60.744C143.96 61.3413 142.659 61.64 140.952 61.64H139.592V64.456C139.592 64.8613 139.619 65.192 139.672 65.448C139.725 65.6933 139.837 65.8853 140.008 66.024C140.179 66.1627 140.413 66.2533 140.712 66.296C141.011 66.3387 141.411 66.36 141.912 66.36V67H135.56V66.36C135.912 66.3493 136.2 66.3173 136.424 66.264C136.648 66.2107 136.819 66.12 136.936 65.992C137.053 65.864 137.133 65.6827 137.176 65.448C137.219 65.2133 137.24 64.9093 137.24 64.536V57.144C137.24 56.7707 137.219 56.472 137.176 56.248C137.144 56.0133 137.075 55.832 136.968 55.704C136.861 55.5653 136.707 55.4747 136.504 55.432C136.312 55.3787 136.056 55.3413 135.736 55.32V54.68H141.272C142.893 54.68 144.12 54.968 144.952 55.544C145.784 56.12 146.2 56.9733 146.2 58.104ZM139.592 60.68H140.632C141.667 60.68 142.424 60.472 142.904 60.056C143.384 59.64 143.624 58.984 143.624 58.088C143.624 57.288 143.421 56.6693 143.016 56.232C142.611 55.7947 141.976 55.576 141.112 55.576H139.88C139.688 55.576 139.592 55.6667 139.592 55.848V60.68ZM150.597 64.52C150.597 64.936 150.613 65.2667 150.645 65.512C150.687 65.7467 150.767 65.928 150.885 66.056C151.002 66.184 151.173 66.2693 151.397 66.312C151.621 66.344 151.919 66.36 152.293 66.36V67H146.949V66.36C147.269 66.3387 147.525 66.3067 147.717 66.264C147.909 66.2213 148.053 66.136 148.149 66.008C148.245 65.88 148.303 65.6987 148.325 65.464C148.357 65.2187 148.373 64.8933 148.373 64.488V62.536C148.373 61.8747 148.357 61.3467 148.325 60.952C148.293 60.5573 148.223 60.2533 148.117 60.04C148.01 59.8267 147.855 59.688 147.653 59.624C147.461 59.5493 147.205 59.512 146.885 59.512V58.952L150.085 58.36L150.341 60.2H150.405C150.693 59.6347 151.071 59.1867 151.541 58.856C152.01 58.5253 152.506 58.36 153.029 58.36C153.434 58.36 153.765 58.4613 154.021 58.664C154.277 58.8667 154.405 59.1227 154.405 59.432C154.405 59.7733 154.303 60.0613 154.101 60.296C153.909 60.5307 153.642 60.648 153.301 60.648C153.141 60.648 152.997 60.616 152.869 60.552C152.741 60.488 152.623 60.4187 152.517 60.344C152.421 60.2587 152.319 60.184 152.213 60.12C152.117 60.0453 152.015 60.008 151.909 60.008C151.706 60.008 151.514 60.1413 151.333 60.408C151.151 60.6747 151.002 61.032 150.885 61.48C150.799 61.8 150.73 62.1627 150.677 62.568C150.623 62.9627 150.597 63.3573 150.597 63.752V64.52ZM158.549 64.376C158.549 64.8027 158.566 65.144 158.598 65.4C158.63 65.656 158.694 65.8533 158.79 65.992C158.886 66.1307 159.024 66.2267 159.206 66.28C159.387 66.3227 159.632 66.3493 159.942 66.36V67H154.902V66.36C155.2 66.3493 155.44 66.3173 155.622 66.264C155.814 66.2 155.958 66.104 156.054 65.976C156.16 65.8373 156.23 65.6507 156.262 65.416C156.304 65.1707 156.326 64.8613 156.326 64.488V62.52C156.326 61.9013 156.315 61.3947 156.294 61C156.272 60.5947 156.246 60.3173 156.214 60.168C156.16 59.9013 156.038 59.7253 155.846 59.64C155.664 59.5547 155.328 59.512 154.838 59.512V58.968L158.549 58.36V64.376ZM156.198 54.968C156.198 54.616 156.315 54.3227 156.549 54.088C156.795 53.8427 157.088 53.72 157.43 53.72C157.782 53.72 158.075 53.8427 158.31 54.088C158.555 54.3227 158.678 54.616 158.678 54.968C158.678 55.3093 158.555 55.6027 158.31 55.848C158.075 56.0827 157.782 56.2 157.43 56.2C157.088 56.2 156.795 56.0827 156.549 55.848C156.315 55.6027 156.198 55.3093 156.198 54.968ZM164.347 64.36C164.347 64.808 164.357 65.16 164.379 65.416C164.4 65.672 164.459 65.8693 164.555 66.008C164.651 66.136 164.789 66.2213 164.971 66.264C165.152 66.3067 165.403 66.3387 165.723 66.36V67H160.667V66.36C160.987 66.3387 161.243 66.3067 161.435 66.264C161.627 66.2213 161.771 66.136 161.867 66.008C161.963 65.88 162.027 65.6987 162.059 65.464C162.091 65.2187 162.107 64.8933 162.107 64.488V62.504C162.107 61.896 162.096 61.3893 162.075 60.984C162.064 60.5787 162.037 60.3013 161.995 60.152C161.963 60.0133 161.92 59.9067 161.867 59.832C161.824 59.7467 161.749 59.6827 161.643 59.64C161.547 59.5867 161.419 59.5547 161.259 59.544C161.099 59.5227 160.891 59.512 160.635 59.512V58.968L163.723 58.36L163.915 59.752H164.011C164.459 59.2507 164.907 58.8933 165.355 58.68C165.813 58.4667 166.341 58.36 166.939 58.36C167.643 58.36 168.224 58.4827 168.683 58.728C169.141 58.9733 169.488 59.3253 169.723 59.784H169.787C170.171 59.336 170.629 58.9893 171.163 58.744C171.696 58.488 172.267 58.36 172.875 58.36C173.515 58.36 174.069 58.44 174.539 58.6C175.019 58.76 175.392 58.9893 175.659 59.288C175.872 59.5333 176.027 59.8533 176.123 60.248C176.229 60.6427 176.283 61.192 176.283 61.896V64.36C176.283 64.7973 176.293 65.144 176.315 65.4C176.347 65.656 176.411 65.8533 176.507 65.992C176.603 66.1307 176.741 66.2213 176.923 66.264C177.104 66.3067 177.355 66.3387 177.675 66.36V67H172.619V66.36C172.939 66.3493 173.189 66.3227 173.371 66.28C173.563 66.2267 173.707 66.136 173.803 66.008C173.909 65.8693 173.973 65.6827 173.995 65.448C174.027 65.2133 174.043 64.8933 174.043 64.488V62.392C174.043 61.8373 174.011 61.368 173.947 60.984C173.883 60.6 173.781 60.2907 173.643 60.056C173.504 59.8213 173.317 59.656 173.083 59.56C172.859 59.4533 172.581 59.4 172.251 59.4C171.877 59.4 171.568 59.4907 171.323 59.672C171.088 59.8533 170.891 60.088 170.731 60.376C170.453 60.8773 170.315 61.5013 170.315 62.248V64.36C170.315 64.7973 170.325 65.144 170.347 65.4C170.368 65.656 170.427 65.8533 170.523 65.992C170.619 66.1307 170.757 66.2213 170.939 66.264C171.131 66.3067 171.392 66.3387 171.723 66.36V67H166.651V66.36C166.971 66.3387 167.221 66.3067 167.403 66.264C167.595 66.2213 167.739 66.136 167.835 66.008C167.941 65.88 168.005 65.6987 168.027 65.464C168.059 65.2187 168.075 64.8933 168.075 64.488V62.392C168.075 61.8373 168.043 61.368 167.979 60.984C167.915 60.6 167.808 60.2907 167.659 60.056C167.52 59.8213 167.333 59.656 167.099 59.56C166.864 59.4533 166.571 59.4 166.219 59.4C165.867 59.4 165.573 59.4853 165.339 59.656C165.115 59.8267 164.928 60.056 164.779 60.344C164.64 60.6 164.533 60.8933 164.459 61.224C164.384 61.5547 164.347 61.896 164.347 62.248V64.36ZM183.426 62.44C182.53 62.8453 181.853 63.224 181.394 63.576C180.946 63.9173 180.722 64.2747 180.722 64.648C180.722 64.9573 180.807 65.2027 180.978 65.384C181.149 65.5653 181.362 65.656 181.618 65.656C181.874 65.656 182.114 65.6133 182.338 65.528C182.562 65.432 182.754 65.3093 182.914 65.16C183.074 65.0107 183.197 64.8347 183.282 64.632C183.378 64.4187 183.426 64.1947 183.426 63.96V62.44ZM183.426 61.592V60.92C183.426 60.3013 183.314 59.8533 183.09 59.576C182.877 59.288 182.541 59.144 182.082 59.144C181.773 59.144 181.538 59.2293 181.378 59.4C181.218 59.56 181.069 59.832 180.93 60.216C180.834 60.4827 180.695 60.6907 180.514 60.84C180.343 60.9893 180.103 61.064 179.794 61.064C179.495 61.064 179.266 60.9733 179.106 60.792C178.946 60.6107 178.866 60.3547 178.866 60.024C178.866 59.512 179.143 59.1067 179.698 58.808C180.263 58.5093 181.111 58.36 182.242 58.36C183.437 58.36 184.29 58.5787 184.802 59.016C185.314 59.4427 185.57 60.1627 185.57 61.176V64.68C185.57 65.5867 185.751 66.04 186.114 66.04C186.317 66.04 186.503 65.9707 186.674 65.832L186.914 66.296C186.765 66.5627 186.53 66.776 186.21 66.936C185.901 67.0853 185.549 67.16 185.154 67.16C184.663 67.16 184.29 67.0107 184.034 66.712C183.778 66.4133 183.65 65.992 183.65 65.448H183.57C183.261 66.0027 182.861 66.424 182.37 66.712C181.879 67 181.319 67.144 180.69 67.144C180.018 67.144 179.479 66.9573 179.074 66.584C178.669 66.2 178.466 65.704 178.466 65.096C178.466 64.6267 178.674 64.1893 179.09 63.784C179.506 63.368 180.199 62.9627 181.17 62.568L183.426 61.592ZM191.237 64.52C191.237 64.936 191.253 65.2667 191.285 65.512C191.328 65.7467 191.408 65.928 191.525 66.056C191.643 66.184 191.813 66.2693 192.037 66.312C192.261 66.344 192.56 66.36 192.933 66.36V67H187.589V66.36C187.909 66.3387 188.165 66.3067 188.357 66.264C188.549 66.2213 188.693 66.136 188.789 66.008C188.885 65.88 188.944 65.6987 188.965 65.464C188.997 65.2187 189.013 64.8933 189.013 64.488V62.536C189.013 61.8747 188.997 61.3467 188.965 60.952C188.933 60.5573 188.864 60.2533 188.757 60.04C188.651 59.8267 188.496 59.688 188.293 59.624C188.101 59.5493 187.845 59.512 187.525 59.512V58.952L190.725 58.36L190.981 60.2H191.045C191.333 59.6347 191.712 59.1867 192.181 58.856C192.651 58.5253 193.147 58.36 193.669 58.36C194.075 58.36 194.405 58.4613 194.661 58.664C194.917 58.8667 195.045 59.1227 195.045 59.432C195.045 59.7733 194.944 60.0613 194.741 60.296C194.549 60.5307 194.283 60.648 193.941 60.648C193.781 60.648 193.637 60.616 193.509 60.552C193.381 60.488 193.264 60.4187 193.157 60.344C193.061 60.2587 192.96 60.184 192.853 60.12C192.757 60.0453 192.656 60.008 192.549 60.008C192.347 60.008 192.155 60.1413 191.973 60.408C191.792 60.6747 191.643 61.032 191.525 61.48C191.44 61.8 191.371 62.1627 191.317 62.568C191.264 62.9627 191.237 63.3573 191.237 63.752V64.52ZM199.67 69.512C199.553 69.7467 199.403 69.9653 199.222 70.168C199.051 70.3707 198.854 70.5413 198.63 70.68C198.417 70.8293 198.193 70.9467 197.958 71.032C197.723 71.1173 197.489 71.16 197.254 71.16C196.902 71.16 196.619 71.0747 196.406 70.904C196.193 70.7333 196.086 70.504 196.086 70.216C196.086 69.9493 196.177 69.7413 196.358 69.592C196.55 69.4427 196.854 69.352 197.27 69.32C198.219 69.2453 198.833 68.9467 199.11 68.424L199.542 67.592L196.71 60.584C196.582 60.2747 196.47 60.0293 196.374 59.848C196.289 59.6667 196.193 59.528 196.086 59.432C195.979 59.3253 195.857 59.256 195.718 59.224C195.579 59.192 195.409 59.1707 195.206 59.16V58.52H200.054V59.16C199.638 59.16 199.345 59.2027 199.174 59.288C199.014 59.3627 198.934 59.5067 198.934 59.72C198.934 59.8053 198.945 59.9067 198.966 60.024C198.998 60.1307 199.035 60.2427 199.078 60.36L200.71 65.032H200.774L202.15 61.912C202.289 61.5813 202.406 61.3093 202.502 61.096C202.598 60.872 202.667 60.6853 202.71 60.536C202.763 60.376 202.801 60.248 202.822 60.152C202.843 60.056 202.854 59.96 202.854 59.864C202.854 59.5867 202.774 59.4 202.614 59.304C202.465 59.208 202.155 59.16 201.686 59.16V58.52H205.542V59.16C205.329 59.16 205.147 59.192 204.998 59.256C204.849 59.3093 204.694 59.4267 204.534 59.608C204.385 59.7893 204.214 60.0613 204.022 60.424C203.841 60.776 203.611 61.2453 203.334 61.832L199.67 69.512Z" fill="#302C27"/>
<path d="M136.08 103V94.6H137.616V98.092H141.384V94.6H142.92V103H141.384V99.34H137.616V103H136.08Z" fill="#302C27"/>
<path d="M164.504 103.144C163.968 103.144 163.484 103.048 163.052 102.856C162.62 102.656 162.272 102.36 162.008 101.968C161.752 101.576 161.616 101.088 161.6 100.504H162.62C162.628 100.984 162.796 101.4 163.124 101.752C163.452 102.096 163.912 102.268 164.504 102.268C165.096 102.268 165.54 102.104 165.836 101.776C166.14 101.448 166.292 101.052 166.292 100.588C166.292 100.196 166.196 99.876 166.004 99.628C165.82 99.38 165.568 99.196 165.248 99.076C164.936 98.956 164.592 98.896 164.216 98.896H163.592V98.044H164.216C164.76 98.044 165.184 97.92 165.488 97.672C165.8 97.424 165.956 97.076 165.956 96.628C165.956 96.252 165.832 95.944 165.584 95.704C165.344 95.456 164.984 95.332 164.504 95.332C164.04 95.332 163.668 95.472 163.388 95.752C163.108 96.024 162.952 96.368 162.92 96.784H161.9C161.924 96.328 162.044 95.924 162.26 95.572C162.484 95.22 162.788 94.948 163.172 94.756C163.556 94.556 164 94.456 164.504 94.456C165.048 94.456 165.5 94.552 165.86 94.744C166.228 94.936 166.504 95.192 166.688 95.512C166.88 95.832 166.976 96.184 166.976 96.568C166.976 96.992 166.86 97.38 166.628 97.732C166.396 98.076 166.048 98.308 165.584 98.428C166.08 98.532 166.492 98.768 166.82 99.136C167.148 99.504 167.312 99.988 167.312 100.588C167.312 101.052 167.204 101.48 166.988 101.872C166.78 102.256 166.468 102.564 166.052 102.796C165.636 103.028 165.12 103.144 164.504 103.144ZM172.747 103V101.2H168.487V100.42L172.567 94.6H173.743V100.312H174.991V101.2H173.743V103H172.747ZM169.603 100.312H172.795V95.716L169.603 100.312Z" fill="#302C27"/>
<path d="M164.66 123.144C164.108 123.144 163.612 123.044 163.172 122.844C162.732 122.636 162.384 122.352 162.128 121.992C161.88 121.624 161.756 121.2 161.756 120.72C161.756 120.208 161.904 119.748 162.2 119.34C162.504 118.932 162.904 118.66 163.4 118.524C162.944 118.372 162.592 118.128 162.344 117.792C162.096 117.456 161.972 117.088 161.972 116.688C161.972 116.28 162.08 115.908 162.296 115.572C162.512 115.228 162.82 114.956 163.22 114.756C163.62 114.556 164.1 114.456 164.66 114.456C165.22 114.456 165.7 114.556 166.1 114.756C166.5 114.956 166.808 115.228 167.024 115.572C167.24 115.908 167.348 116.28 167.348 116.688C167.348 117.08 167.224 117.448 166.976 117.792C166.728 118.128 166.376 118.372 165.92 118.524C166.416 118.66 166.812 118.932 167.108 119.34C167.412 119.748 167.564 120.208 167.564 120.72C167.564 121.2 167.436 121.624 167.18 121.992C166.932 122.352 166.588 122.636 166.148 122.844C165.708 123.044 165.212 123.144 164.66 123.144ZM164.66 118.164C165.172 118.164 165.576 118.036 165.872 117.78C166.176 117.516 166.328 117.172 166.328 116.748C166.328 116.276 166.18 115.92 165.884 115.68C165.588 115.44 165.18 115.32 164.66 115.32C164.14 115.32 163.732 115.44 163.436 115.68C163.148 115.92 163.004 116.276 163.004 116.748C163.004 117.172 163.152 117.516 163.448 117.78C163.744 118.036 164.148 118.164 164.66 118.164ZM164.66 122.256C165.292 122.256 165.764 122.112 166.076 121.824C166.396 121.528 166.556 121.14 166.556 120.66C166.556 120.116 166.384 119.704 166.04 119.424C165.696 119.144 165.236 119.004 164.66 119.004C164.084 119.004 163.624 119.144 163.28 119.424C162.936 119.704 162.764 120.116 162.764 120.66C162.764 121.14 162.92 121.528 163.232 121.824C163.552 122.112 164.028 122.256 164.66 122.256ZM173.016 123V121.2H168.756V120.42L172.836 114.6H174.012V120.312H175.26V121.2H174.012V123H173.016ZM169.872 120.312H173.064V115.716L169.872 120.312Z" fill="#302C27"/>
<path d="M164.66 143.144C164.108 143.144 163.612 143.044 163.172 142.844C162.732 142.636 162.384 142.352 162.128 141.992C161.88 141.624 161.756 141.2 161.756 140.72C161.756 140.208 161.904 139.748 162.2 139.34C162.504 138.932 162.904 138.66 163.4 138.524C162.944 138.372 162.592 138.128 162.344 137.792C162.096 137.456 161.972 137.088 161.972 136.688C161.972 136.28 162.08 135.908 162.296 135.572C162.512 135.228 162.82 134.956 163.22 134.756C163.62 134.556 164.1 134.456 164.66 134.456C165.22 134.456 165.7 134.556 166.1 134.756C166.5 134.956 166.808 135.228 167.024 135.572C167.24 135.908 167.348 136.28 167.348 136.688C167.348 137.08 167.224 137.448 166.976 137.792C166.728 138.128 166.376 138.372 165.92 138.524C166.416 138.66 166.812 138.932 167.108 139.34C167.412 139.748 167.564 140.208 167.564 140.72C167.564 141.2 167.436 141.624 167.18 141.992C166.932 142.352 166.588 142.636 166.148 142.844C165.708 143.044 165.212 143.144 164.66 143.144ZM164.66 138.164C165.172 138.164 165.576 138.036 165.872 137.78C166.176 137.516 166.328 137.172 166.328 136.748C166.328 136.276 166.18 135.92 165.884 135.68C165.588 135.44 165.18 135.32 164.66 135.32C164.14 135.32 163.732 135.44 163.436 135.68C163.148 135.92 163.004 136.276 163.004 136.748C163.004 137.172 163.152 137.516 163.448 137.78C163.744 138.036 164.148 138.164 164.66 138.164ZM164.66 142.256C165.292 142.256 165.764 142.112 166.076 141.824C166.396 141.528 166.556 141.14 166.556 140.66C166.556 140.116 166.384 139.704 166.04 139.424C165.696 139.144 165.236 139.004 164.66 139.004C164.084 139.004 163.624 139.144 163.28 139.424C162.936 139.704 162.764 140.116 162.764 140.66C162.764 141.14 162.92 141.528 163.232 141.824C163.552 142.112 164.028 142.256 164.66 142.256ZM172.236 143.144C171.628 143.144 171.116 143.032 170.7 142.808C170.284 142.576 169.948 142.268 169.692 141.884C169.444 141.5 169.26 141.072 169.14 140.6C169.028 140.12 168.972 139.632 168.972 139.136C168.972 138.208 169.1 137.396 169.356 136.7C169.612 135.996 169.98 135.448 170.46 135.056C170.948 134.656 171.536 134.456 172.224 134.456C172.752 134.456 173.204 134.56 173.58 134.768C173.956 134.976 174.252 135.256 174.468 135.608C174.692 135.952 174.832 136.336 174.888 136.76H173.952C173.864 136.304 173.668 135.952 173.364 135.704C173.06 135.456 172.676 135.332 172.212 135.332C171.58 135.332 171.048 135.632 170.616 136.232C170.192 136.824 169.964 137.752 169.932 139.016C170.124 138.64 170.428 138.316 170.844 138.044C171.268 137.764 171.776 137.624 172.368 137.624C172.848 137.624 173.296 137.736 173.712 137.96C174.136 138.184 174.48 138.5 174.744 138.908C175.008 139.308 175.14 139.78 175.14 140.324C175.14 140.796 175.024 141.248 174.792 141.68C174.56 142.112 174.224 142.464 173.784 142.736C173.352 143.008 172.836 143.144 172.236 143.144ZM172.164 142.256C172.54 142.256 172.876 142.176 173.172 142.016C173.468 141.856 173.7 141.636 173.868 141.356C174.036 141.068 174.12 140.74 174.12 140.372C174.12 139.804 173.932 139.352 173.556 139.016C173.188 138.672 172.724 138.5 172.164 138.5C171.788 138.5 171.452 138.588 171.156 138.764C170.86 138.932 170.624 139.16 170.448 139.448C170.28 139.736 170.196 140.048 170.196 140.384C170.196 140.744 170.28 141.068 170.448 141.356C170.624 141.636 170.86 141.856 171.156 142.016C171.452 142.176 171.788 142.256 172.164 142.256Z" fill="#302C27"/>
<path d="M139.604 123.144C138.988 123.144 138.444 123.04 137.972 122.832C137.5 122.616 137.128 122.312 136.856 121.92C136.584 121.52 136.444 121.036 136.436 120.468H138.056C138.072 120.86 138.212 121.192 138.476 121.464C138.748 121.728 139.12 121.86 139.592 121.86C140 121.86 140.324 121.764 140.564 121.572C140.804 121.372 140.924 121.108 140.924 120.78C140.924 120.436 140.816 120.168 140.6 119.976C140.392 119.784 140.112 119.628 139.76 119.508C139.408 119.388 139.032 119.26 138.632 119.124C137.984 118.9 137.488 118.612 137.144 118.26C136.808 117.908 136.64 117.44 136.64 116.856C136.632 116.36 136.748 115.936 136.988 115.584C137.236 115.224 137.572 114.948 137.996 114.756C138.42 114.556 138.908 114.456 139.46 114.456C140.02 114.456 140.512 114.556 140.936 114.756C141.368 114.956 141.704 115.236 141.944 115.596C142.192 115.956 142.324 116.384 142.34 116.88H140.696C140.688 116.584 140.572 116.324 140.348 116.1C140.132 115.868 139.828 115.752 139.436 115.752C139.1 115.744 138.816 115.828 138.584 116.004C138.36 116.172 138.248 116.42 138.248 116.748C138.248 117.028 138.336 117.252 138.512 117.42C138.688 117.58 138.928 117.716 139.232 117.828C139.536 117.94 139.884 118.06 140.276 118.188C140.692 118.332 141.072 118.5 141.416 118.692C141.76 118.884 142.036 119.14 142.244 119.46C142.452 119.772 142.556 120.176 142.556 120.672C142.556 121.112 142.444 121.52 142.22 121.896C141.996 122.272 141.664 122.576 141.224 122.808C140.784 123.032 140.244 123.144 139.604 123.144Z" fill="#302C27"/>
<path d="M136.531 143V134.6H139.903C140.775 134.6 141.439 134.804 141.895 135.212C142.359 135.612 142.591 136.128 142.591 136.76C142.591 137.288 142.447 137.712 142.159 138.032C141.879 138.344 141.535 138.556 141.127 138.668C141.607 138.764 142.003 139.004 142.315 139.388C142.627 139.764 142.783 140.204 142.783 140.708C142.783 141.372 142.543 141.92 142.063 142.352C141.583 142.784 140.903 143 140.023 143H136.531ZM138.067 138.128H139.675C140.107 138.128 140.439 138.028 140.671 137.828C140.903 137.628 141.019 137.344 141.019 136.976C141.019 136.624 140.903 136.348 140.671 136.148C140.447 135.94 140.107 135.836 139.651 135.836H138.067V138.128ZM138.067 141.752H139.783C140.239 141.752 140.591 141.648 140.839 141.44C141.095 141.224 141.223 140.924 141.223 140.54C141.223 140.148 141.091 139.84 140.827 139.616C140.563 139.392 140.207 139.28 139.759 139.28H138.067V141.752Z" fill="#302C27"/>
<path d="M363.864 62.92H364.488C364.637 63.9333 365.043 64.7333 365.704 65.32C366.365 65.896 367.181 66.184 368.152 66.184C368.547 66.184 368.909 66.136 369.24 66.04C369.571 65.944 369.853 65.8107 370.088 65.64C370.323 65.4587 370.504 65.2507 370.632 65.016C370.76 64.7707 370.824 64.4987 370.824 64.2C370.824 63.944 370.781 63.7253 370.696 63.544C370.621 63.352 370.472 63.1707 370.248 63C370.024 62.8187 369.715 62.6373 369.32 62.456C368.936 62.2747 368.435 62.0667 367.816 61.832C366.568 61.352 365.645 60.7973 365.048 60.168C364.451 59.528 364.152 58.776 364.152 57.912C364.152 57.4107 364.248 56.952 364.44 56.536C364.632 56.12 364.899 55.7627 365.24 55.464C365.592 55.1653 366.008 54.936 366.488 54.776C366.979 54.6053 367.517 54.52 368.104 54.52C368.648 54.52 369.16 54.6053 369.64 54.776C370.12 54.9467 370.595 55.2027 371.064 55.544L371.352 54.744H371.736L371.912 58.2H371.288C371.032 57.3253 370.632 56.6587 370.088 56.2C369.544 55.7307 368.915 55.496 368.2 55.496C367.539 55.496 367 55.6613 366.584 55.992C366.179 56.312 365.976 56.728 365.976 57.24C365.976 57.464 366.013 57.6667 366.088 57.848C366.163 58.0187 366.301 58.184 366.504 58.344C366.707 58.504 366.984 58.6693 367.336 58.84C367.688 59 368.141 59.1813 368.696 59.384C369.443 59.672 370.077 59.9653 370.6 60.264C371.133 60.552 371.565 60.8667 371.896 61.208C372.237 61.5387 372.488 61.8907 372.648 62.264C372.808 62.6373 372.888 63.048 372.888 63.496C372.888 64.04 372.771 64.536 372.536 64.984C372.301 65.432 371.971 65.816 371.544 66.136C371.128 66.456 370.627 66.7067 370.04 66.888C369.464 67.0693 368.824 67.16 368.12 67.16C367.48 67.16 366.904 67.0747 366.392 66.904C365.88 66.7227 365.352 66.4347 364.808 66.04L364.488 67H364.104L363.864 62.92ZM382.249 65.512C381.279 66.6107 380.068 67.16 378.617 67.16C377.956 67.16 377.353 67.0587 376.809 66.856C376.276 66.6427 375.817 66.3493 375.433 65.976C375.049 65.592 374.751 65.1387 374.537 64.616C374.324 64.0933 374.217 63.512 374.217 62.872C374.217 62.2107 374.329 61.608 374.553 61.064C374.777 60.5093 375.092 60.0347 375.497 59.64C375.913 59.2347 376.399 58.92 376.953 58.696C377.519 58.472 378.137 58.36 378.809 58.36C379.94 58.36 380.82 58.664 381.449 59.272C382.079 59.88 382.393 60.7333 382.393 61.832C382.393 62.0027 382.367 62.1093 382.313 62.152C382.26 62.184 382.111 62.2 381.865 62.2H376.713C376.671 62.296 376.649 62.472 376.649 62.728C376.649 63.7733 376.873 64.6 377.321 65.208C377.78 65.816 378.399 66.12 379.177 66.12C379.625 66.12 380.068 66.0187 380.505 65.816C380.953 65.6133 381.385 65.3253 381.801 64.952L382.249 65.512ZM379.145 61.304C379.572 61.304 379.844 61.2827 379.961 61.24C380.089 61.1867 380.153 61.0693 380.153 60.888C380.153 60.4187 380.02 60.0347 379.753 59.736C379.487 59.4373 379.151 59.288 378.745 59.288C378.287 59.288 377.876 59.48 377.513 59.864C377.161 60.2373 376.932 60.7173 376.825 61.304H379.145ZM391.417 65.672C391.011 66.12 390.505 66.4667 389.897 66.712C389.299 66.9573 388.649 67.08 387.945 67.08C387.294 67.08 386.702 66.9787 386.169 66.776C385.635 66.5627 385.177 66.2693 384.793 65.896C384.409 65.5227 384.11 65.0747 383.897 64.552C383.694 64.0187 383.593 63.432 383.593 62.792C383.593 62.1307 383.705 61.528 383.929 60.984C384.153 60.44 384.467 59.976 384.873 59.592C385.278 59.1973 385.763 58.8933 386.329 58.68C386.894 58.4667 387.518 58.36 388.201 58.36C388.681 58.36 389.123 58.408 389.529 58.504C389.945 58.6 390.297 58.7333 390.585 58.904C390.883 59.0747 391.118 59.2773 391.289 59.512C391.459 59.736 391.545 59.9813 391.545 60.248C391.545 60.5573 391.454 60.8027 391.273 60.984C391.102 61.1653 390.867 61.256 390.569 61.256C390.323 61.256 390.105 61.192 389.913 61.064C389.731 60.936 389.55 60.728 389.369 60.44C389.209 60.184 389.07 59.9813 388.953 59.832C388.846 59.6827 388.745 59.5707 388.649 59.496C388.553 59.4107 388.457 59.3573 388.361 59.336C388.265 59.304 388.147 59.288 388.009 59.288C387.39 59.288 386.91 59.576 386.569 60.152C386.227 60.728 386.057 61.5333 386.057 62.568C386.057 63.6773 386.259 64.5307 386.665 65.128C387.081 65.7253 387.673 66.024 388.441 66.024C388.878 66.024 389.315 65.944 389.753 65.784C390.19 65.6133 390.606 65.3733 391.001 65.064L391.417 65.672ZM397.248 58.36C397.888 58.36 398.491 58.472 399.056 58.696C399.632 58.9093 400.133 59.208 400.56 59.592C400.997 59.976 401.339 60.4347 401.584 60.968C401.84 61.4907 401.968 62.0667 401.968 62.696C401.968 63.3467 401.84 63.944 401.584 64.488C401.339 65.032 400.997 65.5013 400.56 65.896C400.133 66.2907 399.632 66.6 399.056 66.824C398.491 67.048 397.888 67.16 397.248 67.16C396.619 67.16 396.021 67.0533 395.456 66.84C394.891 66.616 394.395 66.3067 393.968 65.912C393.541 65.5173 393.205 65.048 392.96 64.504C392.715 63.9493 392.592 63.3467 392.592 62.696C392.592 62.0667 392.715 61.4853 392.96 60.952C393.205 60.4187 393.541 59.96 393.968 59.576C394.395 59.192 394.891 58.8933 395.456 58.68C396.021 58.4667 396.619 58.36 397.248 58.36ZM397.248 59.288C396.928 59.288 396.635 59.3733 396.368 59.544C396.101 59.704 395.872 59.9333 395.68 60.232C395.499 60.5307 395.355 60.8933 395.248 61.32C395.152 61.736 395.104 62.2 395.104 62.712C395.104 63.2453 395.152 63.7253 395.248 64.152C395.355 64.5787 395.499 64.9413 395.68 65.24C395.872 65.5387 396.096 65.7733 396.352 65.944C396.619 66.104 396.917 66.184 397.248 66.184C397.579 66.184 397.877 66.104 398.144 65.944C398.421 65.7733 398.656 65.5387 398.848 65.24C399.04 64.9307 399.189 64.5627 399.296 64.136C399.403 63.7093 399.456 63.2347 399.456 62.712C399.456 62.2 399.403 61.736 399.296 61.32C399.189 60.904 399.04 60.5467 398.848 60.248C398.656 59.9387 398.421 59.704 398.144 59.544C397.877 59.3733 397.579 59.288 397.248 59.288ZM406.674 64.392C406.674 64.8293 406.685 65.176 406.707 65.432C406.739 65.6773 406.797 65.8693 406.883 66.008C406.979 66.136 407.117 66.2213 407.299 66.264C407.491 66.3067 407.747 66.3387 408.067 66.36V67H403.027V66.36C403.336 66.3387 403.581 66.3067 403.763 66.264C403.955 66.2213 404.099 66.136 404.195 66.008C404.301 65.88 404.371 65.6987 404.403 65.464C404.435 65.2293 404.451 64.9093 404.451 64.504V62.504C404.451 61.8747 404.44 61.368 404.419 60.984C404.397 60.5893 404.371 60.3227 404.339 60.184C404.307 60.0453 404.264 59.9333 404.211 59.848C404.157 59.752 404.077 59.6827 403.971 59.64C403.864 59.5867 403.731 59.5547 403.571 59.544C403.411 59.5227 403.208 59.512 402.963 59.512V58.968L406.051 58.36L406.259 59.768H406.323C406.675 59.32 407.091 58.9733 407.571 58.728C408.051 58.4827 408.579 58.36 409.155 58.36C409.837 58.36 410.387 58.456 410.803 58.648C411.229 58.8293 411.608 59.1387 411.939 59.576C412.12 59.8213 412.28 60.1413 412.419 60.536C412.557 60.92 412.627 61.4533 412.627 62.136V64.392C412.627 64.8293 412.637 65.176 412.659 65.432C412.691 65.6773 412.749 65.8693 412.835 66.008C412.931 66.136 413.069 66.2213 413.251 66.264C413.432 66.3067 413.677 66.3387 413.987 66.36V67H408.979V66.36C409.299 66.3493 409.549 66.3227 409.731 66.28C409.923 66.2267 410.067 66.136 410.163 66.008C410.259 65.88 410.323 65.6987 410.355 65.464C410.387 65.2187 410.403 64.8987 410.403 64.504V62.328C410.403 61.784 410.371 61.3253 410.307 60.952C410.243 60.5787 410.136 60.28 409.987 60.056C409.848 59.8213 409.661 59.656 409.427 59.56C409.192 59.4533 408.899 59.4 408.547 59.4C408.205 59.4 407.912 59.496 407.667 59.688C407.421 59.88 407.208 60.1467 407.027 60.488C406.931 60.68 406.845 60.9307 406.771 61.24C406.707 61.5387 406.674 61.8533 406.674 62.184V64.392ZM421.884 65.976H421.82C421.084 66.7653 420.129 67.16 418.956 67.16C418.348 67.16 417.788 67.0533 417.276 66.84C416.774 66.6267 416.337 66.328 415.964 65.944C415.601 65.56 415.318 65.1067 415.116 64.584C414.913 64.0507 414.812 63.464 414.812 62.824C414.812 62.184 414.913 61.592 415.116 61.048C415.329 60.504 415.612 60.0347 415.964 59.64C416.326 59.2347 416.753 58.92 417.244 58.696C417.745 58.472 418.284 58.36 418.86 58.36C419.393 58.36 419.862 58.44 420.268 58.6C420.684 58.76 421.046 59.032 421.356 59.416H421.42V58.056C421.42 57.4267 421.409 56.888 421.388 56.44C421.377 55.9813 421.356 55.6827 421.324 55.544C421.27 55.32 421.105 55.16 420.828 55.064C420.561 54.9573 420.145 54.904 419.58 54.904V54.36L423.628 53.72V62.872C423.628 63.672 423.633 64.2907 423.644 64.728C423.665 65.1547 423.697 65.48 423.74 65.704C423.761 65.8427 423.793 65.9547 423.836 66.04C423.878 66.1253 423.942 66.1947 424.028 66.248C424.113 66.2907 424.225 66.3227 424.364 66.344C424.513 66.3547 424.7 66.36 424.924 66.36V66.984L421.884 67.16V65.976ZM421.388 62.408C421.388 62.0027 421.345 61.6293 421.26 61.288C421.174 60.936 421.046 60.6267 420.876 60.36C420.684 60.0507 420.438 59.816 420.14 59.656C419.841 59.496 419.521 59.416 419.18 59.416C418.55 59.416 418.07 59.704 417.74 60.28C417.409 60.856 417.244 61.6933 417.244 62.792C417.244 63.9013 417.409 64.7547 417.74 65.352C418.07 65.9493 418.545 66.248 419.164 66.248C419.516 66.248 419.852 66.1573 420.172 65.976C420.492 65.7947 420.753 65.5493 420.956 65.24C421.105 65.0053 421.212 64.7173 421.276 64.376C421.35 64.024 421.388 63.576 421.388 63.032V62.408ZM430.801 62.44C429.905 62.8453 429.228 63.224 428.769 63.576C428.321 63.9173 428.097 64.2747 428.097 64.648C428.097 64.9573 428.182 65.2027 428.353 65.384C428.524 65.5653 428.737 65.656 428.993 65.656C429.249 65.656 429.489 65.6133 429.713 65.528C429.937 65.432 430.129 65.3093 430.289 65.16C430.449 65.0107 430.572 64.8347 430.657 64.632C430.753 64.4187 430.801 64.1947 430.801 63.96V62.44ZM430.801 61.592V60.92C430.801 60.3013 430.689 59.8533 430.465 59.576C430.252 59.288 429.916 59.144 429.457 59.144C429.148 59.144 428.913 59.2293 428.753 59.4C428.593 59.56 428.444 59.832 428.305 60.216C428.209 60.4827 428.07 60.6907 427.889 60.84C427.718 60.9893 427.478 61.064 427.169 61.064C426.87 61.064 426.641 60.9733 426.481 60.792C426.321 60.6107 426.241 60.3547 426.241 60.024C426.241 59.512 426.518 59.1067 427.073 58.808C427.638 58.5093 428.486 58.36 429.617 58.36C430.812 58.36 431.665 58.5787 432.177 59.016C432.689 59.4427 432.945 60.1627 432.945 61.176V64.68C432.945 65.5867 433.126 66.04 433.489 66.04C433.692 66.04 433.878 65.9707 434.049 65.832L434.289 66.296C434.14 66.5627 433.905 66.776 433.585 66.936C433.276 67.0853 432.924 67.16 432.529 67.16C432.038 67.16 431.665 67.0107 431.409 66.712C431.153 66.4133 431.025 65.992 431.025 65.448H430.945C430.636 66.0027 430.236 66.424 429.745 66.712C429.254 67 428.694 67.144 428.065 67.144C427.393 67.144 426.854 66.9573 426.449 66.584C426.044 66.2 425.841 65.704 425.841 65.096C425.841 64.6267 426.049 64.1893 426.465 63.784C426.881 63.368 427.574 62.9627 428.545 62.568L430.801 61.592ZM438.612 64.52C438.612 64.936 438.628 65.2667 438.66 65.512C438.703 65.7467 438.783 65.928 438.9 66.056C439.018 66.184 439.188 66.2693 439.412 66.312C439.636 66.344 439.935 66.36 440.308 66.36V67H434.964V66.36C435.284 66.3387 435.54 66.3067 435.732 66.264C435.924 66.2213 436.068 66.136 436.164 66.008C436.26 65.88 436.319 65.6987 436.34 65.464C436.372 65.2187 436.388 64.8933 436.388 64.488V62.536C436.388 61.8747 436.372 61.3467 436.34 60.952C436.308 60.5573 436.239 60.2533 436.132 60.04C436.026 59.8267 435.871 59.688 435.668 59.624C435.476 59.5493 435.22 59.512 434.9 59.512V58.952L438.1 58.36L438.356 60.2H438.42C438.708 59.6347 439.087 59.1867 439.556 58.856C440.026 58.5253 440.522 58.36 441.044 58.36C441.45 58.36 441.78 58.4613 442.036 58.664C442.292 58.8667 442.42 59.1227 442.42 59.432C442.42 59.7733 442.319 60.0613 442.116 60.296C441.924 60.5307 441.658 60.648 441.316 60.648C441.156 60.648 441.012 60.616 440.884 60.552C440.756 60.488 440.639 60.4187 440.532 60.344C440.436 60.2587 440.335 60.184 440.228 60.12C440.132 60.0453 440.031 60.008 439.924 60.008C439.722 60.008 439.53 60.1413 439.348 60.408C439.167 60.6747 439.018 61.032 438.9 61.48C438.815 61.8 438.746 62.1627 438.692 62.568C438.639 62.9627 438.612 63.3573 438.612 63.752V64.52ZM447.045 69.512C446.928 69.7467 446.778 69.9653 446.597 70.168C446.426 70.3707 446.229 70.5413 446.005 70.68C445.792 70.8293 445.568 70.9467 445.333 71.032C445.098 71.1173 444.864 71.16 444.629 71.16C444.277 71.16 443.994 71.0747 443.781 70.904C443.568 70.7333 443.461 70.504 443.461 70.216C443.461 69.9493 443.552 69.7413 443.733 69.592C443.925 69.4427 444.229 69.352 444.645 69.32C445.594 69.2453 446.208 68.9467 446.485 68.424L446.917 67.592L444.085 60.584C443.957 60.2747 443.845 60.0293 443.749 59.848C443.664 59.6667 443.568 59.528 443.461 59.432C443.354 59.3253 443.232 59.256 443.093 59.224C442.954 59.192 442.784 59.1707 442.581 59.16V58.52H447.429V59.16C447.013 59.16 446.72 59.2027 446.549 59.288C446.389 59.3627 446.309 59.5067 446.309 59.72C446.309 59.8053 446.32 59.9067 446.341 60.024C446.373 60.1307 446.41 60.2427 446.453 60.36L448.085 65.032H448.149L449.525 61.912C449.664 61.5813 449.781 61.3093 449.877 61.096C449.973 60.872 450.042 60.6853 450.085 60.536C450.138 60.376 450.176 60.248 450.197 60.152C450.218 60.056 450.229 59.96 450.229 59.864C450.229 59.5867 450.149 59.4 449.989 59.304C449.84 59.208 449.53 59.16 449.061 59.16V58.52H452.917V59.16C452.704 59.16 452.522 59.192 452.373 59.256C452.224 59.3093 452.069 59.4267 451.909 59.608C451.76 59.7893 451.589 60.0613 451.397 60.424C451.216 60.776 450.986 61.2453 450.709 61.832L447.045 69.512Z" fill="#302C27"/>
<path d="M364.08 103V94.6H365.616V98.092H369.384V94.6H370.92V103H369.384V99.34H365.616V103H364.08Z" fill="#302C27"/>
<path d="M389.756 103V102.292C390.324 101.844 390.86 101.392 391.364 100.936C391.876 100.472 392.328 100.016 392.72 99.568C393.12 99.12 393.432 98.68 393.656 98.248C393.888 97.816 394.004 97.4 394.004 97C394.004 96.704 393.952 96.428 393.848 96.172C393.752 95.916 393.592 95.712 393.368 95.56C393.144 95.4 392.84 95.32 392.456 95.32C392.088 95.32 391.78 95.404 391.532 95.572C391.284 95.732 391.096 95.948 390.968 96.22C390.848 96.492 390.788 96.784 390.788 97.096H389.816C389.816 96.544 389.932 96.072 390.164 95.68C390.396 95.28 390.712 94.976 391.112 94.768C391.512 94.56 391.964 94.456 392.468 94.456C393.212 94.456 393.82 94.668 394.292 95.092C394.772 95.508 395.012 96.132 395.012 96.964C395.012 97.46 394.888 97.952 394.64 98.44C394.392 98.92 394.076 99.388 393.692 99.844C393.308 100.292 392.896 100.712 392.456 101.104C392.024 101.496 391.62 101.848 391.244 102.16H395.3V103H389.756ZM399.371 103.144C398.835 103.144 398.351 103.048 397.919 102.856C397.487 102.656 397.139 102.36 396.875 101.968C396.619 101.576 396.483 101.088 396.467 100.504H397.487C397.495 100.984 397.663 101.4 397.991 101.752C398.319 102.096 398.779 102.268 399.371 102.268C399.963 102.268 400.407 102.104 400.703 101.776C401.007 101.448 401.159 101.052 401.159 100.588C401.159 100.196 401.063 99.876 400.871 99.628C400.687 99.38 400.435 99.196 400.115 99.076C399.803 98.956 399.459 98.896 399.083 98.896H398.459V98.044H399.083C399.627 98.044 400.051 97.92 400.355 97.672C400.667 97.424 400.823 97.076 400.823 96.628C400.823 96.252 400.699 95.944 400.451 95.704C400.211 95.456 399.851 95.332 399.371 95.332C398.907 95.332 398.535 95.472 398.255 95.752C397.975 96.024 397.819 96.368 397.787 96.784H396.767C396.791 96.328 396.911 95.924 397.127 95.572C397.351 95.22 397.655 94.948 398.039 94.756C398.423 94.556 398.867 94.456 399.371 94.456C399.915 94.456 400.367 94.552 400.727 94.744C401.095 94.936 401.371 95.192 401.555 95.512C401.747 95.832 401.843 96.184 401.843 96.568C401.843 96.992 401.727 97.38 401.495 97.732C401.263 98.076 400.915 98.308 400.451 98.428C400.947 98.532 401.359 98.768 401.687 99.136C402.015 99.504 402.179 99.988 402.179 100.588C402.179 101.052 402.071 101.48 401.855 101.872C401.647 102.256 401.335 102.564 400.919 102.796C400.503 103.028 399.987 103.144 399.371 103.144ZM406.582 103.144C406.03 103.144 405.534 103.044 405.094 102.844C404.654 102.636 404.306 102.352 404.05 101.992C403.802 101.624 403.678 101.2 403.678 100.72C403.678 100.208 403.826 99.748 404.122 99.34C404.426 98.932 404.826 98.66 405.322 98.524C404.866 98.372 404.514 98.128 404.266 97.792C404.018 97.456 403.894 97.088 403.894 96.688C403.894 96.28 404.002 95.908 404.218 95.572C404.434 95.228 404.742 94.956 405.142 94.756C405.542 94.556 406.022 94.456 406.582 94.456C407.142 94.456 407.622 94.556 408.022 94.756C408.422 94.956 408.73 95.228 408.946 95.572C409.162 95.908 409.27 96.28 409.27 96.688C409.27 97.08 409.146 97.448 408.898 97.792C408.65 98.128 408.298 98.372 407.842 98.524C408.338 98.66 408.734 98.932 409.03 99.34C409.334 99.748 409.486 100.208 409.486 100.72C409.486 101.2 409.358 101.624 409.102 101.992C408.854 102.352 408.51 102.636 408.07 102.844C407.63 103.044 407.134 103.144 406.582 103.144ZM406.582 98.164C407.094 98.164 407.498 98.036 407.794 97.78C408.098 97.516 408.25 97.172 408.25 96.748C408.25 96.276 408.102 95.92 407.806 95.68C407.51 95.44 407.102 95.32 406.582 95.32C406.062 95.32 405.654 95.44 405.358 95.68C405.07 95.92 404.926 96.276 404.926 96.748C404.926 97.172 405.074 97.516 405.37 97.78C405.666 98.036 406.07 98.164 406.582 98.164ZM406.582 102.256C407.214 102.256 407.686 102.112 407.998 101.824C408.318 101.528 408.478 101.14 408.478 100.66C408.478 100.116 408.306 99.704 407.962 99.424C407.618 99.144 407.158 99.004 406.582 99.004C406.006 99.004 405.546 99.144 405.202 99.424C404.858 99.704 404.686 100.116 404.686 100.66C404.686 101.14 404.842 101.528 405.154 101.824C405.474 102.112 405.95 102.256 406.582 102.256Z" fill="#302C27"/>
<path d="M393.692 123V121.2H389.432V120.42L393.512 114.6H394.688V120.312H395.936V121.2H394.688V123H393.692ZM390.548 120.312H393.74V115.716L390.548 120.312ZM397.982 123V115.728L396.626 116.028V115.332L398.318 114.6H399.002V123H397.982Z" fill="#302C27"/>
<path d="M392.744 143.144C392.168 143.144 391.668 143.04 391.244 142.832C390.82 142.624 390.48 142.34 390.224 141.98C389.976 141.612 389.824 141.196 389.768 140.732H390.752C390.848 141.196 391.072 141.572 391.424 141.86C391.776 142.14 392.22 142.28 392.756 142.28C393.156 142.28 393.5 142.188 393.788 142.004C394.076 141.812 394.296 141.556 394.448 141.236C394.608 140.916 394.688 140.56 394.688 140.168C394.688 139.544 394.512 139.04 394.16 138.656C393.808 138.272 393.352 138.08 392.792 138.08C392.328 138.08 391.932 138.184 391.604 138.392C391.276 138.6 391.036 138.872 390.884 139.208H389.924L390.644 134.6H395.048V135.476H391.424L390.932 138.032C391.124 137.8 391.388 137.608 391.724 137.456C392.068 137.304 392.46 137.228 392.9 137.228C393.452 137.228 393.932 137.356 394.34 137.612C394.756 137.868 395.08 138.216 395.312 138.656C395.544 139.096 395.66 139.596 395.66 140.156C395.66 140.692 395.544 141.188 395.312 141.644C395.088 142.1 394.756 142.464 394.316 142.736C393.884 143.008 393.36 143.144 392.744 143.144ZM398.064 143V135.728L396.708 136.028V135.332L398.4 134.6H399.084V143H398.064Z" fill="#302C27"/>
<path d="M367.604 123.144C366.988 123.144 366.444 123.04 365.972 122.832C365.5 122.616 365.128 122.312 364.856 121.92C364.584 121.52 364.444 121.036 364.436 120.468H366.056C366.072 120.86 366.212 121.192 366.476 121.464C366.748 121.728 367.12 121.86 367.592 121.86C368 121.86 368.324 121.764 368.564 121.572C368.804 121.372 368.924 121.108 368.924 120.78C368.924 120.436 368.816 120.168 368.6 119.976C368.392 119.784 368.112 119.628 367.76 119.508C367.408 119.388 367.032 119.26 366.632 119.124C365.984 118.9 365.488 118.612 365.144 118.26C364.808 117.908 364.64 117.44 364.64 116.856C364.632 116.36 364.748 115.936 364.988 115.584C365.236 115.224 365.572 114.948 365.996 114.756C366.42 114.556 366.908 114.456 367.46 114.456C368.02 114.456 368.512 114.556 368.936 114.756C369.368 114.956 369.704 115.236 369.944 115.596C370.192 115.956 370.324 116.384 370.34 116.88H368.696C368.688 116.584 368.572 116.324 368.348 116.1C368.132 115.868 367.828 115.752 367.436 115.752C367.1 115.744 366.816 115.828 366.584 116.004C366.36 116.172 366.248 116.42 366.248 116.748C366.248 117.028 366.336 117.252 366.512 117.42C366.688 117.58 366.928 117.716 367.232 117.828C367.536 117.94 367.884 118.06 368.276 118.188C368.692 118.332 369.072 118.5 369.416 118.692C369.76 118.884 370.036 119.14 370.244 119.46C370.452 119.772 370.556 120.176 370.556 120.672C370.556 121.112 370.444 121.52 370.22 121.896C369.996 122.272 369.664 122.576 369.224 122.808C368.784 123.032 368.244 123.144 367.604 123.144Z" fill="#302C27"/>
<path d="M364.531 143V134.6H367.903C368.775 134.6 369.439 134.804 369.895 135.212C370.359 135.612 370.591 136.128 370.591 136.76C370.591 137.288 370.447 137.712 370.159 138.032C369.879 138.344 369.535 138.556 369.127 138.668C369.607 138.764 370.003 139.004 370.315 139.388C370.627 139.764 370.783 140.204 370.783 140.708C370.783 141.372 370.543 141.92 370.063 142.352C369.583 142.784 368.903 143 368.023 143H364.531ZM366.067 138.128H367.675C368.107 138.128 368.439 138.028 368.671 137.828C368.903 137.628 369.019 137.344 369.019 136.976C369.019 136.624 368.903 136.348 368.671 136.148C368.447 135.94 368.107 135.836 367.651 135.836H366.067V138.128ZM366.067 141.752H367.783C368.239 141.752 368.591 141.648 368.839 141.44C369.095 141.224 369.223 140.924 369.223 140.54C369.223 140.148 369.091 139.84 368.827 139.616C368.563 139.392 368.207 139.28 367.759 139.28H366.067V141.752Z" fill="#302C27"/>
<circle cx="333" cy="271" r="18" fill="#F1F1F1"/>
<circle cx="393" cy="271" r="18" fill="#FAFAFA"/>
<circle cx="213" cy="271" r="18" fill="#5F5954"/>
<circle cx="273" cy="271" r="18" fill="#938E89"/>
<circle cx="153" cy="211" r="18" fill="#EDD4BD"/>
<circle cx="213" cy="211" r="18" fill="#F9F3EE"/>
<circle cx="273" cy="211" r="18" fill="#D8D9E7"/>
<rect x="1" y="1" width="532" height="343" rx="11" stroke="#DADADA" stroke-width="2"/>
</svg>
