<svg width="296" height="164" viewBox="0 0 296 164" fill="none" xmlns="http://www.w3.org/2000/svg">
<rect width="296" height="164" rx="4" fill="#1B360A"/>
<rect x="32" y="32" width="93" height="28" rx="14" fill="#FFFBF5"/>
<path d="M48.9395 41.8125H54.042V43.0771H50.4336V44.7324H53.5928V45.9824H50.4336V49H48.9395V41.8125ZM58.6311 43.5508C58.6571 43.5508 58.6783 43.5524 58.6945 43.5557C58.7141 43.5557 58.7548 43.5573 58.8166 43.5605V44.9863C58.7287 44.9766 58.6506 44.9701 58.5822 44.9668C58.5139 44.9635 58.4585 44.9619 58.4162 44.9619C57.8563 44.9619 57.4803 45.1442 57.2883 45.5088C57.1809 45.7139 57.1271 46.0296 57.1271 46.4561V49H55.7258V43.6777H57.0539V44.6055C57.2688 44.2507 57.4559 44.0081 57.6154 43.8779C57.8758 43.6598 58.2144 43.5508 58.6311 43.5508ZM61.8236 43.6777V46.8857C61.8236 47.1885 61.8594 47.4163 61.9311 47.5693C62.058 47.8395 62.307 47.9746 62.6781 47.9746C63.1534 47.9746 63.4789 47.7826 63.6547 47.3984C63.7458 47.1901 63.7914 46.915 63.7914 46.5732V43.6777H65.2025V49H63.85V48.248C63.837 48.2643 63.8044 48.3132 63.7523 48.3945C63.7003 48.4759 63.6384 48.5475 63.5668 48.6094C63.3487 48.8047 63.1371 48.9382 62.932 49.0098C62.7302 49.0814 62.4926 49.1172 62.2191 49.1172C61.4314 49.1172 60.9008 48.834 60.6273 48.2676C60.4743 47.9551 60.3979 47.4945 60.3979 46.8857V43.6777H61.8236ZM68.4342 47.3008C68.4635 47.5482 68.527 47.724 68.6246 47.8281C68.7971 48.0137 69.1161 48.1064 69.5816 48.1064C69.8551 48.1064 70.0715 48.0658 70.2311 47.9844C70.3938 47.903 70.4752 47.7809 70.4752 47.6182C70.4752 47.4619 70.4101 47.3431 70.2799 47.2617C70.1497 47.1803 69.6663 47.0404 68.8297 46.8418C68.2275 46.6921 67.8027 46.5049 67.5553 46.2803C67.3079 46.0589 67.1842 45.7399 67.1842 45.3232C67.1842 44.8317 67.3762 44.4102 67.7604 44.0586C68.1477 43.7038 68.6913 43.5264 69.3912 43.5264C70.0553 43.5264 70.5956 43.6598 71.0123 43.9268C71.4322 44.1904 71.6731 44.6478 71.735 45.2988H70.3434C70.3238 45.1198 70.2734 44.9782 70.192 44.874C70.039 44.6852 69.7786 44.5908 69.4107 44.5908C69.108 44.5908 68.8915 44.638 68.7613 44.7324C68.6344 44.8268 68.5709 44.9375 68.5709 45.0645C68.5709 45.224 68.6393 45.3395 68.776 45.4111C68.9127 45.486 69.3961 45.6146 70.2262 45.7969C70.7796 45.9271 71.1946 46.124 71.4713 46.3877C71.7447 46.6546 71.8814 46.9883 71.8814 47.3887C71.8814 47.916 71.6845 48.3473 71.2906 48.6826C70.9 49.0146 70.2945 49.1807 69.4742 49.1807C68.6376 49.1807 68.0191 49.0049 67.6187 48.6533C67.2216 48.2985 67.023 47.8477 67.023 47.3008H68.4342ZM73.1697 44.7178V43.7266H73.9119V42.2422H75.2889V43.7266H76.1531V44.7178H75.2889V47.5303C75.2889 47.7484 75.3165 47.8851 75.3719 47.9404C75.4272 47.9925 75.5965 48.0186 75.8797 48.0186C75.922 48.0186 75.966 48.0186 76.0115 48.0186C76.0604 48.0153 76.1076 48.012 76.1531 48.0088V49.0488L75.4939 49.0732C74.8364 49.096 74.3872 48.9821 74.1463 48.7314C73.99 48.5719 73.9119 48.3262 73.9119 47.9941V44.7178H73.1697ZM80.7373 43.5508C80.7633 43.5508 80.7845 43.5524 80.8008 43.5557C80.8203 43.5557 80.861 43.5573 80.9229 43.5605V44.9863C80.835 44.9766 80.7568 44.9701 80.6885 44.9668C80.6201 44.9635 80.5648 44.9619 80.5225 44.9619C79.9626 44.9619 79.5866 45.1442 79.3945 45.5088C79.2871 45.7139 79.2334 46.0296 79.2334 46.4561V49H77.832V43.6777H79.1602V44.6055C79.375 44.2507 79.5622 44.0081 79.7217 43.8779C79.9821 43.6598 80.3206 43.5508 80.7373 43.5508ZM85.4777 46.4121C85.3898 46.4674 85.3003 46.513 85.2092 46.5488C85.1213 46.5814 84.9992 46.6123 84.843 46.6416L84.5305 46.7002C84.2375 46.7523 84.0275 46.8158 83.9006 46.8906C83.6857 47.0176 83.5783 47.2145 83.5783 47.4814C83.5783 47.7191 83.6434 47.8916 83.7736 47.999C83.9071 48.1032 84.0682 48.1553 84.257 48.1553C84.5565 48.1553 84.8316 48.0674 85.0822 47.8916C85.3361 47.7158 85.468 47.3952 85.4777 46.9297V46.4121ZM84.633 45.7627C84.8902 45.7301 85.0741 45.6895 85.1848 45.6406C85.3833 45.556 85.4826 45.4242 85.4826 45.2451C85.4826 45.027 85.4061 44.8773 85.2531 44.7959C85.1034 44.7113 84.882 44.6689 84.5891 44.6689C84.2603 44.6689 84.0275 44.7503 83.8908 44.9131C83.7932 45.0335 83.7281 45.1963 83.6955 45.4014H82.3527C82.382 44.9359 82.5122 44.5534 82.7434 44.2539C83.1112 43.7852 83.7427 43.5508 84.6379 43.5508C85.2206 43.5508 85.7382 43.6663 86.1906 43.8975C86.6431 44.1286 86.8693 44.5648 86.8693 45.2061V47.6475C86.8693 47.8167 86.8726 48.0218 86.8791 48.2627C86.8889 48.445 86.9165 48.5687 86.9621 48.6338C87.0077 48.6989 87.076 48.7526 87.1672 48.7949V49H85.6535C85.6112 48.8926 85.5819 48.7917 85.5656 48.6973C85.5493 48.6029 85.5363 48.4954 85.5266 48.375C85.3345 48.5833 85.1132 48.7607 84.8625 48.9072C84.563 49.0798 84.2245 49.166 83.8469 49.166C83.3651 49.166 82.9663 49.0293 82.6506 48.7559C82.3381 48.4792 82.1818 48.0885 82.1818 47.584C82.1818 46.9297 82.4341 46.4561 82.9387 46.1631C83.2154 46.0036 83.6223 45.8896 84.1594 45.8213L84.633 45.7627ZM88.3627 44.7178V43.7266H89.1049V42.2422H90.4818V43.7266H91.3461V44.7178H90.4818V47.5303C90.4818 47.7484 90.5095 47.8851 90.5648 47.9404C90.6202 47.9925 90.7895 48.0186 91.0727 48.0186C91.115 48.0186 91.1589 48.0186 91.2045 48.0186C91.2533 48.0153 91.3005 48.012 91.3461 48.0088V49.0488L90.6869 49.0732C90.0294 49.096 89.5801 48.9821 89.3393 48.7314C89.183 48.5719 89.1049 48.3262 89.1049 47.9941V44.7178H88.3627ZM94.4703 43.043H93.0592V41.7588H94.4703V43.043ZM93.0592 43.6777H94.4703V49H93.0592V43.6777ZM99.0105 48.0186C99.4174 48.0186 99.7299 47.8737 99.948 47.584C100.166 47.2943 100.275 46.8825 100.275 46.3486C100.275 45.8148 100.166 45.4046 99.948 45.1182C99.7299 44.8285 99.4174 44.6836 99.0105 44.6836C98.6036 44.6836 98.2895 44.8285 98.0682 45.1182C97.8501 45.4046 97.741 45.8148 97.741 46.3486C97.741 46.8825 97.8501 47.2943 98.0682 47.584C98.2895 47.8737 98.6036 48.0186 99.0105 48.0186ZM101.735 46.3486C101.735 47.1299 101.511 47.7988 101.061 48.3555C100.612 48.9089 99.9301 49.1855 99.0154 49.1855C98.1007 49.1855 97.4188 48.9089 96.9695 48.3555C96.5203 47.7988 96.2957 47.1299 96.2957 46.3486C96.2957 45.5804 96.5203 44.9147 96.9695 44.3516C97.4188 43.7884 98.1007 43.5068 99.0154 43.5068C99.9301 43.5068 100.612 43.7884 101.061 44.3516C101.511 44.9147 101.735 45.5804 101.735 46.3486ZM106.485 43.5508C107.035 43.5508 107.485 43.6956 107.833 43.9854C108.185 44.2718 108.36 44.7487 108.36 45.416V49H106.935V45.7627C106.935 45.4827 106.897 45.2679 106.822 45.1182C106.686 44.8447 106.425 44.708 106.041 44.708C105.569 44.708 105.245 44.9082 105.069 45.3086C104.978 45.5202 104.933 45.7904 104.933 46.1191V49H103.546V43.6875H104.889V44.4639C105.068 44.1904 105.237 43.9935 105.396 43.873C105.683 43.6582 106.046 43.5508 106.485 43.5508Z" fill="#1B360A"/>
<path d="M33.1777 97.3926H34.3555V106H33.1777V97.3926ZM37.2842 97.9727H38.3506V99.7246H39.3526V100.586H38.3506V104.682C38.3506 104.9 38.4248 105.047 38.5733 105.121C38.6553 105.164 38.792 105.186 38.9834 105.186C39.0342 105.186 39.0889 105.186 39.1475 105.186C39.2061 105.182 39.2745 105.176 39.3526 105.168V106C39.2315 106.035 39.1045 106.061 38.9717 106.076C38.8428 106.092 38.7022 106.1 38.5498 106.1C38.0577 106.1 37.7237 105.975 37.5479 105.725C37.3721 105.471 37.2842 105.143 37.2842 104.74V100.586H36.4346V99.7246H37.2842V97.9727ZM45.673 99.7539H46.7452V106H45.673V99.7539ZM45.673 97.3926H46.7452V98.5879H45.673V97.3926ZM49.9318 104.031C49.963 104.383 50.0509 104.652 50.1955 104.84C50.4611 105.18 50.922 105.35 51.5783 105.35C51.9689 105.35 52.3127 105.266 52.6095 105.098C52.9064 104.926 53.0548 104.662 53.0548 104.307C53.0548 104.037 52.9357 103.832 52.6974 103.691C52.5451 103.605 52.2443 103.506 51.7951 103.393L50.9572 103.182C50.422 103.049 50.0275 102.9 49.7736 102.736C49.3205 102.451 49.0939 102.057 49.0939 101.553C49.0939 100.959 49.3068 100.479 49.7326 100.111C50.1623 99.7441 50.7384 99.5605 51.4611 99.5605C52.4064 99.5605 53.088 99.8379 53.506 100.393C53.7677 100.744 53.8947 101.123 53.8869 101.529H52.8908C52.8713 101.291 52.7873 101.074 52.6388 100.879C52.3966 100.602 51.9767 100.463 51.3791 100.463C50.9806 100.463 50.6779 100.539 50.4709 100.691C50.2677 100.844 50.1662 101.045 50.1662 101.295C50.1662 101.568 50.3009 101.787 50.5705 101.951C50.7267 102.049 50.9572 102.135 51.2619 102.209L51.9591 102.379C52.717 102.562 53.2248 102.74 53.4826 102.912C53.8927 103.182 54.0978 103.605 54.0978 104.184C54.0978 104.742 53.8849 105.225 53.4591 105.631C53.0373 106.037 52.3927 106.24 51.5255 106.24C50.592 106.24 49.9298 106.029 49.5392 105.607C49.1525 105.182 48.9455 104.656 48.9181 104.031H49.9318ZM61.2327 102.936C61.2327 103.607 61.3752 104.17 61.6604 104.623C61.9455 105.076 62.4026 105.303 63.0315 105.303C63.5198 105.303 63.9202 105.094 64.2327 104.676C64.5491 104.254 64.7073 103.65 64.7073 102.865C64.7073 102.072 64.5452 101.486 64.2209 101.107C63.8967 100.725 63.4963 100.533 63.0198 100.533C62.4885 100.533 62.0569 100.736 61.7248 101.143C61.3967 101.549 61.2327 102.146 61.2327 102.936ZM62.8205 99.6133C63.301 99.6133 63.7034 99.7148 64.0276 99.918C64.2151 100.035 64.428 100.24 64.6663 100.533V97.3633H65.6799V106H64.7307V105.127C64.4846 105.514 64.1936 105.793 63.8577 105.965C63.5217 106.137 63.137 106.223 62.7034 106.223C62.0041 106.223 61.3987 105.93 60.887 105.344C60.3752 104.754 60.1194 103.971 60.1194 102.994C60.1194 102.08 60.3518 101.289 60.8166 100.621C61.2854 99.9492 61.9534 99.6133 62.8205 99.6133ZM68.2044 99.7539H69.2766V106H68.2044V99.7539ZM68.2044 97.3926H69.2766V98.5879H68.2044V97.3926ZM72.0999 98.7695C72.1155 98.332 72.1917 98.0117 72.3284 97.8086C72.5745 97.4492 73.0491 97.2695 73.7523 97.2695C73.8187 97.2695 73.887 97.2715 73.9573 97.2754C74.0277 97.2793 74.1077 97.2852 74.1976 97.293V98.2539C74.0882 98.2461 74.0081 98.2422 73.9573 98.2422C73.9105 98.2383 73.8655 98.2363 73.8226 98.2363C73.5023 98.2363 73.3109 98.3203 73.2484 98.4883C73.1859 98.6523 73.1546 99.0742 73.1546 99.7539H74.1976V100.586H73.1429V106H72.0999V100.586H71.2269V99.7539H72.0999V98.7695ZM76.3998 98.7695C76.4154 98.332 76.4916 98.0117 76.6283 97.8086C76.8744 97.4492 77.349 97.2695 78.0521 97.2695C78.1185 97.2695 78.1869 97.2715 78.2572 97.2754C78.3275 97.2793 78.4076 97.2852 78.4974 97.293V98.2539C78.388 98.2461 78.308 98.2422 78.2572 98.2422C78.2103 98.2383 78.1654 98.2363 78.1224 98.2363C77.8021 98.2363 77.6107 98.3203 77.5482 98.4883C77.4857 98.6523 77.4545 99.0742 77.4545 99.7539H78.4974V100.586H77.4427V106H76.3998V100.586H75.5267V99.7539H76.3998V98.7695ZM79.5111 98.5879V97.3926H80.5658V98.5879H79.5111ZM79.5111 99.7539H80.5658V106H79.5111V99.7539ZM85.516 99.543C86.223 99.543 86.7973 99.7148 87.2387 100.059C87.684 100.402 87.9516 100.994 88.0414 101.834H87.016C86.9535 101.447 86.8109 101.127 86.5883 100.873C86.3656 100.615 86.0082 100.486 85.516 100.486C84.8441 100.486 84.3637 100.814 84.0746 101.471C83.8871 101.896 83.7934 102.422 83.7934 103.047C83.7934 103.676 83.9262 104.205 84.1918 104.635C84.4574 105.064 84.8754 105.279 85.4457 105.279C85.8832 105.279 86.2289 105.146 86.4828 104.881C86.7406 104.611 86.9184 104.244 87.016 103.779H88.0414C87.9242 104.611 87.6312 105.221 87.1625 105.607C86.6937 105.99 86.0941 106.182 85.3637 106.182C84.5434 106.182 83.8891 105.883 83.4008 105.285C82.9125 104.684 82.6684 103.934 82.6684 103.035C82.6684 101.934 82.9359 101.076 83.4711 100.463C84.0062 99.8496 84.6879 99.543 85.516 99.543ZM91.1108 99.7246V103.891C91.1108 104.211 91.1616 104.473 91.2631 104.676C91.4506 105.051 91.8002 105.238 92.312 105.238C93.0463 105.238 93.5463 104.91 93.812 104.254C93.9565 103.902 94.0288 103.42 94.0288 102.807V99.7246H95.0834V106H94.0873L94.0991 105.074C93.9623 105.312 93.7924 105.514 93.5893 105.678C93.187 106.006 92.6987 106.17 92.1245 106.17C91.2299 106.17 90.6205 105.871 90.2963 105.273C90.1205 104.953 90.0327 104.525 90.0327 103.99V99.7246H91.1108ZM97.7251 97.3926H98.7798V106H97.7251V97.3926ZM101.539 97.9727H102.605V99.7246H103.607V100.586H102.605V104.682C102.605 104.9 102.679 105.047 102.828 105.121C102.91 105.164 103.046 105.186 103.238 105.186C103.289 105.186 103.343 105.186 103.402 105.186C103.46 105.182 103.529 105.176 103.607 105.168V106C103.486 106.035 103.359 106.061 103.226 106.076C103.097 106.092 102.957 106.1 102.804 106.1C102.312 106.1 101.978 105.975 101.802 105.725C101.626 105.471 101.539 105.143 101.539 104.74V100.586H100.689V99.7246H101.539V97.9727ZM110.191 98.7695C110.207 98.332 110.283 98.0117 110.42 97.8086C110.666 97.4492 111.14 97.2695 111.843 97.2695C111.91 97.2695 111.978 97.2715 112.048 97.2754C112.119 97.2793 112.199 97.2852 112.289 97.293V98.2539C112.179 98.2461 112.099 98.2422 112.048 98.2422C112.002 98.2383 111.957 98.2363 111.914 98.2363C111.593 98.2363 111.402 98.3203 111.339 98.4883C111.277 98.6523 111.246 99.0742 111.246 99.7539H112.289V100.586H111.234V106H110.191V100.586H109.318V99.7539H110.191V98.7695ZM116.717 105.32C117.417 105.32 117.895 105.057 118.153 104.529C118.415 103.998 118.546 103.408 118.546 102.76C118.546 102.174 118.452 101.697 118.264 101.33C117.967 100.752 117.456 100.463 116.729 100.463C116.085 100.463 115.616 100.709 115.323 101.201C115.03 101.693 114.883 102.287 114.883 102.982C114.883 103.65 115.03 104.207 115.323 104.652C115.616 105.098 116.081 105.32 116.717 105.32ZM116.758 99.543C117.567 99.543 118.251 99.8125 118.809 100.352C119.368 100.891 119.647 101.684 119.647 102.73C119.647 103.742 119.401 104.578 118.909 105.238C118.417 105.898 117.653 106.229 116.618 106.229C115.755 106.229 115.069 105.938 114.561 105.355C114.053 104.77 113.799 103.984 113.799 103C113.799 101.945 114.067 101.105 114.602 100.48C115.137 99.8555 115.856 99.543 116.758 99.543ZM121.896 99.7246H122.898V100.809C122.98 100.598 123.181 100.342 123.502 100.041C123.822 99.7363 124.191 99.584 124.609 99.584C124.629 99.584 124.662 99.5859 124.709 99.5898C124.756 99.5938 124.836 99.6016 124.949 99.6133V100.727C124.886 100.715 124.828 100.707 124.773 100.703C124.722 100.699 124.666 100.697 124.603 100.697C124.072 100.697 123.664 100.869 123.379 101.213C123.093 101.553 122.951 101.945 122.951 102.391V106H121.896V99.7246ZM132.177 99.7246V103.891C132.177 104.211 132.228 104.473 132.33 104.676C132.517 105.051 132.867 105.238 133.379 105.238C134.113 105.238 134.613 104.91 134.879 104.254C135.023 103.902 135.095 103.42 135.095 102.807V99.7246H136.15V106H135.154L135.166 105.074C135.029 105.312 134.859 105.514 134.656 105.678C134.254 106.006 133.765 106.17 133.191 106.17C132.297 106.17 131.687 105.871 131.363 105.273C131.187 104.953 131.099 104.525 131.099 103.99V99.7246H132.177ZM139.389 104.031C139.421 104.383 139.509 104.652 139.653 104.84C139.919 105.18 140.38 105.35 141.036 105.35C141.427 105.35 141.77 105.266 142.067 105.098C142.364 104.926 142.512 104.662 142.512 104.307C142.512 104.037 142.393 103.832 142.155 103.691C142.003 103.605 141.702 103.506 141.253 103.393L140.415 103.182C139.88 103.049 139.485 102.9 139.231 102.736C138.778 102.451 138.552 102.057 138.552 101.553C138.552 100.959 138.764 100.479 139.19 100.111C139.62 99.7441 140.196 99.5605 140.919 99.5605C141.864 99.5605 142.546 99.8379 142.964 100.393C143.225 100.744 143.352 101.123 143.345 101.529H142.348C142.329 101.291 142.245 101.074 142.096 100.879C141.854 100.602 141.434 100.463 140.837 100.463C140.438 100.463 140.136 100.539 139.929 100.691C139.725 100.844 139.624 101.045 139.624 101.295C139.624 101.568 139.759 101.787 140.028 101.951C140.184 102.049 140.415 102.135 140.72 102.209L141.417 102.379C142.175 102.562 142.682 102.74 142.94 102.912C143.35 103.182 143.555 103.605 143.555 104.184C143.555 104.742 143.343 105.225 142.917 105.631C142.495 106.037 141.85 106.24 140.983 106.24C140.05 106.24 139.387 106.029 138.997 105.607C138.61 105.182 138.403 104.656 138.376 104.031H139.389ZM148.336 99.584C148.781 99.584 149.213 99.6895 149.631 99.9004C150.049 100.107 150.367 100.377 150.586 100.709C150.797 101.025 150.937 101.395 151.008 101.816C151.07 102.105 151.101 102.566 151.101 103.199H146.502C146.521 103.836 146.672 104.348 146.953 104.734C147.234 105.117 147.67 105.309 148.26 105.309C148.81 105.309 149.25 105.127 149.578 104.764C149.765 104.553 149.898 104.309 149.976 104.031H151.014C150.986 104.262 150.894 104.52 150.738 104.805C150.586 105.086 150.414 105.316 150.222 105.496C149.902 105.809 149.506 106.02 149.033 106.129C148.779 106.191 148.492 106.223 148.172 106.223C147.39 106.223 146.728 105.939 146.185 105.373C145.642 104.803 145.371 104.006 145.371 102.982C145.371 101.975 145.644 101.156 146.191 100.527C146.738 99.8984 147.453 99.584 148.336 99.584ZM150.017 102.361C149.974 101.904 149.875 101.539 149.719 101.266C149.43 100.758 148.947 100.504 148.271 100.504C147.787 100.504 147.381 100.68 147.053 101.031C146.724 101.379 146.551 101.822 146.531 102.361H150.017ZM153.391 99.7246H154.393V100.809C154.475 100.598 154.677 100.342 154.997 100.041C155.317 99.7363 155.686 99.584 156.104 99.584C156.124 99.584 156.157 99.5859 156.204 99.5898C156.251 99.5938 156.331 99.6016 156.444 99.6133V100.727C156.382 100.715 156.323 100.707 156.268 100.703C156.218 100.699 156.161 100.697 156.099 100.697C155.567 100.697 155.159 100.869 154.874 101.213C154.589 101.553 154.446 101.945 154.446 102.391V106H153.391V99.7246ZM158.945 104.031C158.976 104.383 159.064 104.652 159.209 104.84C159.475 105.18 159.935 105.35 160.592 105.35C160.982 105.35 161.326 105.266 161.623 105.098C161.92 104.926 162.068 104.662 162.068 104.307C162.068 104.037 161.949 103.832 161.711 103.691C161.559 103.605 161.258 103.506 160.809 103.393L159.971 103.182C159.435 103.049 159.041 102.9 158.787 102.736C158.334 102.451 158.107 102.057 158.107 101.553C158.107 100.959 158.32 100.479 158.746 100.111C159.176 99.7441 159.752 99.5605 160.475 99.5605C161.42 99.5605 162.101 99.8379 162.519 100.393C162.781 100.744 162.908 101.123 162.9 101.529H161.904C161.885 101.291 161.801 101.074 161.652 100.879C161.41 100.602 160.99 100.463 160.393 100.463C159.994 100.463 159.691 100.539 159.484 100.691C159.281 100.844 159.18 101.045 159.18 101.295C159.18 101.568 159.314 101.787 159.584 101.951C159.74 102.049 159.971 102.135 160.275 102.209L160.973 102.379C161.73 102.562 162.238 102.74 162.496 102.912C162.906 103.182 163.111 103.605 163.111 104.184C163.111 104.742 162.898 105.225 162.473 105.631C162.051 106.037 161.406 106.24 160.539 106.24C159.605 106.24 158.943 106.029 158.553 105.607C158.166 105.182 157.959 104.656 157.932 104.031H158.945ZM169.789 97.9727H170.855V99.7246H171.857V100.586H170.855V104.682C170.855 104.9 170.93 105.047 171.078 105.121C171.16 105.164 171.297 105.186 171.488 105.186C171.539 105.186 171.594 105.186 171.652 105.186C171.711 105.182 171.779 105.176 171.857 105.168V106C171.736 106.035 171.609 106.061 171.477 106.076C171.348 106.092 171.207 106.1 171.055 106.1C170.562 106.1 170.229 105.975 170.053 105.725C169.877 105.471 169.789 105.143 169.789 104.74V100.586H168.939V99.7246H169.789V97.9727ZM176.368 105.32C177.067 105.32 177.546 105.057 177.804 104.529C178.065 103.998 178.196 103.408 178.196 102.76C178.196 102.174 178.103 101.697 177.915 101.33C177.618 100.752 177.106 100.463 176.38 100.463C175.735 100.463 175.267 100.709 174.974 101.201C174.681 101.693 174.534 102.287 174.534 102.982C174.534 103.65 174.681 104.207 174.974 104.652C175.267 105.098 175.731 105.32 176.368 105.32ZM176.409 99.543C177.218 99.543 177.901 99.8125 178.46 100.352C179.019 100.891 179.298 101.684 179.298 102.73C179.298 103.742 179.052 104.578 178.56 105.238C178.067 105.898 177.304 106.229 176.269 106.229C175.405 106.229 174.72 105.938 174.212 105.355C173.704 104.77 173.45 103.984 173.45 103C173.45 101.945 173.718 101.105 174.253 100.48C174.788 99.8555 175.507 99.543 176.409 99.543ZM185.818 99.7246H186.86V100.615C187.11 100.307 187.337 100.082 187.54 99.9414C187.888 99.7031 188.282 99.584 188.724 99.584C189.224 99.584 189.626 99.707 189.931 99.9531C190.103 100.094 190.259 100.301 190.4 100.574C190.634 100.238 190.909 99.9902 191.226 99.8301C191.542 99.666 191.898 99.584 192.292 99.584C193.136 99.584 193.71 99.8887 194.015 100.498C194.179 100.826 194.261 101.268 194.261 101.822V106H193.165V101.641C193.165 101.223 193.06 100.936 192.849 100.779C192.642 100.623 192.388 100.545 192.087 100.545C191.673 100.545 191.316 100.684 191.015 100.961C190.718 101.238 190.569 101.701 190.569 102.35V106H189.497V101.904C189.497 101.479 189.446 101.168 189.345 100.973C189.185 100.68 188.886 100.533 188.448 100.533C188.05 100.533 187.687 100.688 187.359 100.996C187.034 101.305 186.872 101.863 186.872 102.672V106H185.818V99.7246ZM199.264 105.32C199.963 105.32 200.442 105.057 200.699 104.529C200.961 103.998 201.092 103.408 201.092 102.76C201.092 102.174 200.998 101.697 200.811 101.33C200.514 100.752 200.002 100.463 199.276 100.463C198.631 100.463 198.162 100.709 197.869 101.201C197.576 101.693 197.43 102.287 197.43 102.982C197.43 103.65 197.576 104.207 197.869 104.652C198.162 105.098 198.627 105.32 199.264 105.32ZM199.305 99.543C200.113 99.543 200.797 99.8125 201.356 100.352C201.914 100.891 202.194 101.684 202.194 102.73C202.194 103.742 201.947 104.578 201.455 105.238C200.963 105.898 200.199 106.229 199.164 106.229C198.301 106.229 197.615 105.938 197.108 105.355C196.6 104.77 196.346 103.984 196.346 103C196.346 101.945 196.613 101.105 197.149 100.48C197.684 99.8555 198.402 99.543 199.305 99.543ZM204.624 97.9727H205.691V99.7246H206.693V100.586H205.691V104.682C205.691 104.9 205.765 105.047 205.913 105.121C205.995 105.164 206.132 105.186 206.323 105.186C206.374 105.186 206.429 105.186 206.488 105.186C206.546 105.182 206.614 105.176 206.693 105.168V106C206.571 106.035 206.445 106.061 206.312 106.076C206.183 106.092 206.042 106.1 205.89 106.1C205.398 106.1 205.064 105.975 204.888 105.725C204.712 105.471 204.624 105.143 204.624 104.74V100.586H203.775V99.7246H204.624V97.9727ZM208.713 99.7539H209.785V106H208.713V99.7539ZM208.713 97.3926H209.785V98.5879H208.713V97.3926ZM212.861 99.7246L214.536 104.834L216.288 99.7246H217.443L215.075 106H213.95L211.636 99.7246H212.861ZM220.114 104.33C220.114 104.635 220.225 104.875 220.448 105.051C220.67 105.227 220.934 105.314 221.239 105.314C221.61 105.314 221.969 105.229 222.317 105.057C222.903 104.771 223.196 104.305 223.196 103.656V102.807C223.067 102.889 222.901 102.957 222.698 103.012C222.494 103.066 222.295 103.105 222.1 103.129L221.461 103.211C221.078 103.262 220.791 103.342 220.6 103.451C220.276 103.635 220.114 103.928 220.114 104.33ZM222.668 102.197C222.91 102.166 223.073 102.064 223.155 101.893C223.201 101.799 223.225 101.664 223.225 101.488C223.225 101.129 223.096 100.869 222.838 100.709C222.584 100.545 222.219 100.463 221.742 100.463C221.192 100.463 220.801 100.611 220.571 100.908C220.442 101.072 220.358 101.316 220.319 101.641H219.334C219.354 100.867 219.604 100.33 220.084 100.029C220.569 99.7246 221.129 99.5723 221.766 99.5723C222.504 99.5723 223.104 99.7129 223.565 99.9941C224.022 100.275 224.25 100.713 224.25 101.307V104.922C224.25 105.031 224.272 105.119 224.315 105.186C224.362 105.252 224.457 105.285 224.602 105.285C224.649 105.285 224.701 105.283 224.76 105.279C224.819 105.271 224.881 105.262 224.948 105.25V106.029C224.784 106.076 224.659 106.105 224.573 106.117C224.487 106.129 224.369 106.135 224.221 106.135C223.858 106.135 223.594 106.006 223.43 105.748C223.344 105.611 223.284 105.418 223.248 105.168C223.034 105.449 222.725 105.693 222.323 105.9C221.92 106.107 221.477 106.211 220.992 106.211C220.41 106.211 219.934 106.035 219.563 105.684C219.196 105.328 219.012 104.885 219.012 104.354C219.012 103.771 219.194 103.32 219.557 103C219.92 102.68 220.397 102.482 220.987 102.408L222.668 102.197ZM227.156 97.9727H228.222V99.7246H229.224V100.586H228.222V104.682C228.222 104.9 228.296 105.047 228.445 105.121C228.527 105.164 228.663 105.186 228.855 105.186C228.906 105.186 228.96 105.186 229.019 105.186C229.077 105.182 229.146 105.176 229.224 105.168V106C229.103 106.035 228.976 106.061 228.843 106.076C228.714 106.092 228.574 106.1 228.421 106.1C227.929 106.1 227.595 105.975 227.419 105.725C227.244 105.471 227.156 105.143 227.156 104.74V100.586H226.306V99.7246H227.156V97.9727ZM233.858 99.584C234.303 99.584 234.735 99.6895 235.153 99.9004C235.571 100.107 235.889 100.377 236.108 100.709C236.319 101.025 236.459 101.395 236.53 101.816C236.592 102.105 236.623 102.566 236.623 103.199H232.024C232.043 103.836 232.194 104.348 232.475 104.734C232.756 105.117 233.192 105.309 233.782 105.309C234.332 105.309 234.772 105.127 235.1 104.764C235.288 104.553 235.42 104.309 235.498 104.031H236.536C236.508 104.262 236.416 104.52 236.26 104.805C236.108 105.086 235.936 105.316 235.745 105.496C235.424 105.809 235.028 106.02 234.555 106.129C234.301 106.191 234.014 106.223 233.694 106.223C232.913 106.223 232.25 105.939 231.707 105.373C231.164 104.803 230.893 104.006 230.893 102.982C230.893 101.975 231.166 101.156 231.713 100.527C232.26 99.8984 232.975 99.584 233.858 99.584ZM235.539 102.361C235.496 101.904 235.397 101.539 235.241 101.266C234.952 100.758 234.469 100.504 233.793 100.504C233.309 100.504 232.903 100.68 232.575 101.031C232.246 101.379 232.073 101.822 232.053 102.361H235.539ZM32.9844 117.973H34.0508V119.725H35.0527V120.586H34.0508V124.682C34.0508 124.9 34.125 125.047 34.2734 125.121C34.3555 125.164 34.4922 125.186 34.6836 125.186C34.7344 125.186 34.7891 125.186 34.8477 125.186C34.9062 125.182 34.9746 125.176 35.0527 125.168V126C34.9316 126.035 34.8047 126.061 34.6719 126.076C34.543 126.092 34.4023 126.1 34.25 126.1C33.7578 126.1 33.4238 125.975 33.248 125.725C33.0723 125.471 32.9844 125.143 32.9844 124.74V120.586H32.1348V119.725H32.9844V117.973ZM37.0733 117.363H38.128V120.574C38.378 120.258 38.6026 120.035 38.8018 119.906C39.1416 119.684 39.5655 119.572 40.0733 119.572C40.9834 119.572 41.6006 119.891 41.9248 120.527C42.1006 120.875 42.1885 121.357 42.1885 121.975V126H41.1045V122.045C41.1045 121.584 41.0459 121.246 40.9288 121.031C40.7373 120.688 40.378 120.516 39.8506 120.516C39.4131 120.516 39.0166 120.666 38.6612 120.967C38.3057 121.268 38.128 121.836 38.128 122.672V126H37.0733V117.363ZM47.3263 119.584C47.7716 119.584 48.2032 119.689 48.6212 119.9C49.0391 120.107 49.3575 120.377 49.5763 120.709C49.7872 121.025 49.9278 121.395 49.9981 121.816C50.0606 122.105 50.0919 122.566 50.0919 123.199H45.4923C45.5118 123.836 45.6622 124.348 45.9434 124.734C46.2247 125.117 46.6602 125.309 47.2501 125.309C47.8009 125.309 48.2403 125.127 48.5684 124.764C48.7559 124.553 48.8888 124.309 48.9669 124.031H50.004C49.9766 124.262 49.8848 124.52 49.7286 124.805C49.5763 125.086 49.4044 125.316 49.213 125.496C48.8927 125.809 48.4962 126.02 48.0235 126.129C47.7696 126.191 47.4825 126.223 47.1622 126.223C46.3809 126.223 45.7188 125.939 45.1759 125.373C44.6329 124.803 44.3614 124.006 44.3614 122.982C44.3614 121.975 44.6348 121.156 45.1817 120.527C45.7286 119.898 46.4434 119.584 47.3263 119.584ZM49.0079 122.361C48.9649 121.904 48.8653 121.539 48.7091 121.266C48.42 120.758 47.9376 120.504 47.2618 120.504C46.7774 120.504 46.3712 120.68 46.043 121.031C45.7149 121.379 45.5411 121.822 45.5216 122.361H49.0079ZM52.3527 119.725H53.3956V120.615C53.6456 120.307 53.8722 120.082 54.0753 119.941C54.423 119.703 54.8175 119.584 55.2589 119.584C55.7589 119.584 56.1612 119.707 56.4659 119.953C56.6378 120.094 56.7941 120.301 56.9347 120.574C57.1691 120.238 57.4445 119.99 57.7609 119.83C58.0773 119.666 58.4327 119.584 58.8273 119.584C59.671 119.584 60.2452 119.889 60.5499 120.498C60.714 120.826 60.796 121.268 60.796 121.822V126H59.7003V121.641C59.7003 121.223 59.5948 120.936 59.3839 120.779C59.1769 120.623 58.923 120.545 58.6222 120.545C58.2081 120.545 57.8507 120.684 57.5499 120.961C57.253 121.238 57.1046 121.701 57.1046 122.35V126H56.0323V121.904C56.0323 121.479 55.9816 121.168 55.88 120.973C55.7198 120.68 55.421 120.533 54.9835 120.533C54.5851 120.533 54.2218 120.688 53.8937 120.996C53.5695 121.305 53.4073 121.863 53.4073 122.672V126H52.3527V119.725ZM63.9357 124.031C63.967 124.383 64.0548 124.652 64.1994 124.84C64.465 125.18 64.9259 125.35 65.5822 125.35C65.9728 125.35 66.3166 125.266 66.6134 125.098C66.9103 124.926 67.0588 124.662 67.0588 124.307C67.0588 124.037 66.9396 123.832 66.7013 123.691C66.549 123.605 66.2482 123.506 65.799 123.393L64.9611 123.182C64.4259 123.049 64.0314 122.9 63.7775 122.736C63.3244 122.451 63.0978 122.057 63.0978 121.553C63.0978 120.959 63.3107 120.479 63.7365 120.111C64.1662 119.744 64.7423 119.561 65.465 119.561C66.4103 119.561 67.092 119.838 67.5099 120.393C67.7716 120.744 67.8986 121.123 67.8908 121.529H66.8947C66.8752 121.291 66.7912 121.074 66.6427 120.879C66.4005 120.602 65.9806 120.463 65.383 120.463C64.9845 120.463 64.6818 120.539 64.4748 120.691C64.2716 120.844 64.1701 121.045 64.1701 121.295C64.1701 121.568 64.3048 121.787 64.5744 121.951C64.7306 122.049 64.9611 122.135 65.2658 122.209L65.963 122.379C66.7209 122.562 67.2287 122.74 67.4865 122.912C67.8966 123.182 68.1017 123.605 68.1017 124.184C68.1017 124.742 67.8888 125.225 67.463 125.631C67.0412 126.037 66.3966 126.24 65.5295 126.24C64.5959 126.24 63.9338 126.029 63.5431 125.607C63.1564 125.182 62.9494 124.656 62.922 124.031H63.9357ZM72.882 119.584C73.3273 119.584 73.759 119.689 74.177 119.9C74.5949 120.107 74.9133 120.377 75.132 120.709C75.343 121.025 75.4836 121.395 75.5539 121.816C75.6164 122.105 75.6477 122.566 75.6477 123.199H71.048C71.0676 123.836 71.218 124.348 71.4992 124.734C71.7805 125.117 72.216 125.309 72.8059 125.309C73.3566 125.309 73.7961 125.127 74.1242 124.764C74.3117 124.553 74.4445 124.309 74.5227 124.031H75.5598C75.5324 124.262 75.4406 124.52 75.2844 124.805C75.132 125.086 74.9602 125.316 74.7687 125.496C74.4484 125.809 74.052 126.02 73.5793 126.129C73.3254 126.191 73.0383 126.223 72.718 126.223C71.9367 126.223 71.2746 125.939 70.7316 125.373C70.1887 124.803 69.9172 124.006 69.9172 122.982C69.9172 121.975 70.1906 121.156 70.7375 120.527C71.2844 119.898 71.9992 119.584 72.882 119.584ZM74.5637 122.361C74.5207 121.904 74.4211 121.539 74.2648 121.266C73.9758 120.758 73.4934 120.504 72.8176 120.504C72.3332 120.504 71.927 120.68 71.5988 121.031C71.2707 121.379 71.0969 121.822 71.0773 122.361H74.5637ZM77.9377 117.393H78.9924V126H77.9377V117.393ZM82.0559 119.725L83.7317 124.834L85.4837 119.725H86.638L84.2708 126H83.1458L80.8313 119.725H82.0559ZM91.1136 119.584C91.5589 119.584 91.9905 119.689 92.4085 119.9C92.8265 120.107 93.1448 120.377 93.3636 120.709C93.5745 121.025 93.7152 121.395 93.7855 121.816C93.848 122.105 93.8792 122.566 93.8792 123.199H89.2796C89.2991 123.836 89.4495 124.348 89.7308 124.734C90.012 125.117 90.4476 125.309 91.0374 125.309C91.5882 125.309 92.0277 125.127 92.3558 124.764C92.5433 124.553 92.6761 124.309 92.7542 124.031H93.7913C93.764 124.262 93.6722 124.52 93.5159 124.805C93.3636 125.086 93.1917 125.316 93.0003 125.496C92.68 125.809 92.2835 126.02 91.8109 126.129C91.557 126.191 91.2698 126.223 90.9495 126.223C90.1683 126.223 89.5062 125.939 88.9632 125.373C88.4202 124.803 88.1488 124.006 88.1488 122.982C88.1488 121.975 88.4222 121.156 88.9691 120.527C89.5159 119.898 90.2308 119.584 91.1136 119.584ZM92.7952 122.361C92.7523 121.904 92.6527 121.539 92.4964 121.266C92.2073 120.758 91.7249 120.504 91.0491 120.504C90.5648 120.504 90.1585 120.68 89.8304 121.031C89.5023 121.379 89.3284 121.822 89.3089 122.361H92.7952ZM96.767 124.031C96.7982 124.383 96.8861 124.652 97.0306 124.84C97.2962 125.18 97.7572 125.35 98.4134 125.35C98.8041 125.35 99.1478 125.266 99.4447 125.098C99.7416 124.926 99.89 124.662 99.89 124.307C99.89 124.037 99.7709 123.832 99.5326 123.691C99.3802 123.605 99.0795 123.506 98.6302 123.393L97.7923 123.182C97.2572 123.049 96.8627 122.9 96.6087 122.736C96.1556 122.451 95.9291 122.057 95.9291 121.553C95.9291 120.959 96.142 120.479 96.5677 120.111C96.9974 119.744 97.5736 119.561 98.2962 119.561C99.2416 119.561 99.9232 119.838 100.341 120.393C100.603 120.744 100.73 121.123 100.722 121.529H99.7259C99.7064 121.291 99.6224 121.074 99.474 120.879C99.2318 120.602 98.8119 120.463 98.2142 120.463C97.8158 120.463 97.513 120.539 97.306 120.691C97.1029 120.844 97.0013 121.045 97.0013 121.295C97.0013 121.568 97.1361 121.787 97.4056 121.951C97.5619 122.049 97.7923 122.135 98.097 122.209L98.7943 122.379C99.5521 122.562 100.06 122.74 100.318 122.912C100.728 123.182 100.933 123.605 100.933 124.184C100.933 124.742 100.72 125.225 100.294 125.631C99.8724 126.037 99.2279 126.24 98.3607 126.24C97.4271 126.24 96.765 126.029 96.3744 125.607C95.9877 125.182 95.7806 124.656 95.7533 124.031H96.767ZM107.611 117.973H108.677V119.725H109.679V120.586H108.677V124.682C108.677 124.9 108.751 125.047 108.9 125.121C108.982 125.164 109.119 125.186 109.31 125.186C109.361 125.186 109.415 125.186 109.474 125.186C109.533 125.182 109.601 125.176 109.679 125.168V126C109.558 126.035 109.431 126.061 109.298 126.076C109.169 126.092 109.029 126.1 108.876 126.1C108.384 126.1 108.05 125.975 107.874 125.725C107.699 125.471 107.611 125.143 107.611 124.74V120.586H106.761V119.725H107.611V117.973ZM114.19 125.32C114.889 125.32 115.368 125.057 115.625 124.529C115.887 123.998 116.018 123.408 116.018 122.76C116.018 122.174 115.924 121.697 115.737 121.33C115.44 120.752 114.928 120.463 114.202 120.463C113.557 120.463 113.088 120.709 112.795 121.201C112.502 121.693 112.356 122.287 112.356 122.982C112.356 123.65 112.502 124.207 112.795 124.652C113.088 125.098 113.553 125.32 114.19 125.32ZM114.231 119.543C115.04 119.543 115.723 119.812 116.282 120.352C116.84 120.891 117.12 121.684 117.12 122.73C117.12 123.742 116.874 124.578 116.381 125.238C115.889 125.898 115.125 126.229 114.09 126.229C113.227 126.229 112.541 125.938 112.034 125.355C111.526 124.77 111.272 123.984 111.272 123C111.272 121.945 111.54 121.105 112.075 120.48C112.61 119.855 113.329 119.543 114.231 119.543ZM123.669 117.393H124.723V126H123.669V117.393ZM127.271 119.754H128.343V126H127.271V119.754ZM127.271 117.393H128.343V118.588H127.271V117.393ZM131.53 124.031C131.561 124.383 131.649 124.652 131.794 124.84C132.059 125.18 132.52 125.35 133.176 125.35C133.567 125.35 133.911 125.266 134.208 125.098C134.505 124.926 134.653 124.662 134.653 124.307C134.653 124.037 134.534 123.832 134.296 123.691C134.143 123.605 133.842 123.506 133.393 123.393L132.555 123.182C132.02 123.049 131.626 122.9 131.372 122.736C130.919 122.451 130.692 122.057 130.692 121.553C130.692 120.959 130.905 120.479 131.331 120.111C131.76 119.744 132.337 119.561 133.059 119.561C134.005 119.561 134.686 119.838 135.104 120.393C135.366 120.744 135.493 121.123 135.485 121.529H134.489C134.469 121.291 134.385 121.074 134.237 120.879C133.995 120.602 133.575 120.463 132.977 120.463C132.579 120.463 132.276 120.539 132.069 120.691C131.866 120.844 131.764 121.045 131.764 121.295C131.764 121.568 131.899 121.787 132.169 121.951C132.325 122.049 132.555 122.135 132.86 122.209L133.557 122.379C134.315 122.562 134.823 122.74 135.081 122.912C135.491 123.182 135.696 123.605 135.696 124.184C135.696 124.742 135.483 125.225 135.057 125.631C134.635 126.037 133.991 126.24 133.124 126.24C132.19 126.24 131.528 126.029 131.137 125.607C130.751 125.182 130.544 124.656 130.516 124.031H131.53ZM138.074 117.973H139.14V119.725H140.142V120.586H139.14V124.682C139.14 124.9 139.215 125.047 139.363 125.121C139.445 125.164 139.582 125.186 139.773 125.186C139.824 125.186 139.879 125.186 139.937 125.186C139.996 125.182 140.064 125.176 140.142 125.168V126C140.021 126.035 139.894 126.061 139.761 126.076C139.632 126.092 139.492 126.1 139.34 126.1C138.847 126.1 138.513 125.975 138.338 125.725C138.162 125.471 138.074 125.143 138.074 124.74V120.586H137.224V119.725H138.074V117.973ZM144.776 119.584C145.221 119.584 145.653 119.689 146.071 119.9C146.489 120.107 146.807 120.377 147.026 120.709C147.237 121.025 147.378 121.395 147.448 121.816C147.51 122.105 147.542 122.566 147.542 123.199H142.942C142.962 123.836 143.112 124.348 143.393 124.734C143.675 125.117 144.11 125.309 144.7 125.309C145.251 125.309 145.69 125.127 146.018 124.764C146.206 124.553 146.339 124.309 146.417 124.031H147.454C147.426 124.262 147.335 124.52 147.178 124.805C147.026 125.086 146.854 125.316 146.663 125.496C146.342 125.809 145.946 126.02 145.473 126.129C145.219 126.191 144.932 126.223 144.612 126.223C143.831 126.223 143.169 125.939 142.626 125.373C142.083 124.803 141.811 124.006 141.811 122.982C141.811 121.975 142.085 121.156 142.632 120.527C143.178 119.898 143.893 119.584 144.776 119.584ZM146.458 122.361C146.415 121.904 146.315 121.539 146.159 121.266C145.87 120.758 145.387 120.504 144.712 120.504C144.227 120.504 143.821 120.68 143.493 121.031C143.165 121.379 142.991 121.822 142.971 122.361H146.458ZM149.802 119.725H150.804V120.615C151.101 120.248 151.416 119.984 151.748 119.824C152.08 119.664 152.449 119.584 152.855 119.584C153.746 119.584 154.347 119.895 154.66 120.516C154.832 120.855 154.918 121.342 154.918 121.975V126H153.845V122.045C153.845 121.662 153.789 121.354 153.676 121.119C153.488 120.729 153.148 120.533 152.656 120.533C152.406 120.533 152.201 120.559 152.041 120.609C151.752 120.695 151.498 120.867 151.279 121.125C151.103 121.332 150.988 121.547 150.933 121.77C150.883 121.988 150.857 122.303 150.857 122.713V126H149.802V119.725ZM161.953 117.973H163.019V119.725H164.021V120.586H163.019V124.682C163.019 124.9 163.094 125.047 163.242 125.121C163.324 125.164 163.461 125.186 163.652 125.186C163.703 125.186 163.758 125.186 163.816 125.186C163.875 125.182 163.943 125.176 164.021 125.168V126C163.9 126.035 163.773 126.061 163.64 126.076C163.512 126.092 163.371 126.1 163.219 126.1C162.726 126.1 162.392 125.975 162.217 125.725C162.041 125.471 161.953 125.143 161.953 124.74V120.586H161.103V119.725H161.953V117.973ZM168.532 125.32C169.231 125.32 169.71 125.057 169.968 124.529C170.229 123.998 170.36 123.408 170.36 122.76C170.36 122.174 170.266 121.697 170.079 121.33C169.782 120.752 169.27 120.463 168.544 120.463C167.899 120.463 167.431 120.709 167.138 121.201C166.845 121.693 166.698 122.287 166.698 122.982C166.698 123.65 166.845 124.207 167.138 124.652C167.431 125.098 167.895 125.32 168.532 125.32ZM168.573 119.543C169.382 119.543 170.065 119.812 170.624 120.352C171.182 120.891 171.462 121.684 171.462 122.73C171.462 123.742 171.216 124.578 170.724 125.238C170.231 125.898 169.468 126.229 168.432 126.229C167.569 126.229 166.884 125.938 166.376 125.355C165.868 124.77 165.614 123.984 165.614 123C165.614 121.945 165.882 121.105 166.417 120.48C166.952 119.855 167.671 119.543 168.573 119.543ZM177.981 119.725H178.983V120.615C179.28 120.248 179.595 119.984 179.927 119.824C180.259 119.664 180.628 119.584 181.034 119.584C181.925 119.584 182.526 119.895 182.839 120.516C183.011 120.855 183.097 121.342 183.097 121.975V126H182.024V122.045C182.024 121.662 181.968 121.354 181.854 121.119C181.667 120.729 181.327 120.533 180.835 120.533C180.585 120.533 180.38 120.559 180.22 120.609C179.931 120.695 179.677 120.867 179.458 121.125C179.282 121.332 179.167 121.547 179.112 121.77C179.061 121.988 179.036 122.303 179.036 122.713V126H177.981V119.725ZM188.234 119.584C188.68 119.584 189.111 119.689 189.529 119.9C189.947 120.107 190.266 120.377 190.484 120.709C190.695 121.025 190.836 121.395 190.906 121.816C190.969 122.105 191 122.566 191 123.199H186.4C186.42 123.836 186.57 124.348 186.852 124.734C187.133 125.117 187.568 125.309 188.158 125.309C188.709 125.309 189.148 125.127 189.477 124.764C189.664 124.553 189.797 124.309 189.875 124.031H190.912C190.885 124.262 190.793 124.52 190.637 124.805C190.484 125.086 190.312 125.316 190.121 125.496C189.801 125.809 189.404 126.02 188.932 126.129C188.678 126.191 188.391 126.223 188.07 126.223C187.289 126.223 186.627 125.939 186.084 125.373C185.541 124.803 185.27 124.006 185.27 122.982C185.27 121.975 185.543 121.156 186.09 120.527C186.637 119.898 187.352 119.584 188.234 119.584ZM189.916 122.361C189.873 121.904 189.773 121.539 189.617 121.266C189.328 120.758 188.846 120.504 188.17 120.504C187.686 120.504 187.279 120.68 186.951 121.031C186.623 121.379 186.449 121.822 186.43 122.361H189.916ZM193.747 119.725L194.954 124.67L196.179 119.725H197.362L198.593 124.641L199.876 119.725H200.931L199.108 126H198.013L196.735 121.143L195.499 126H194.403L192.593 119.725H193.747ZM207.193 119.725H208.235V120.615C208.485 120.307 208.712 120.082 208.915 119.941C209.263 119.703 209.657 119.584 210.099 119.584C210.599 119.584 211.001 119.707 211.306 119.953C211.478 120.094 211.634 120.301 211.775 120.574C212.009 120.238 212.284 119.99 212.601 119.83C212.917 119.666 213.273 119.584 213.667 119.584C214.511 119.584 215.085 119.889 215.39 120.498C215.554 120.826 215.636 121.268 215.636 121.822V126H214.54V121.641C214.54 121.223 214.435 120.936 214.224 120.779C214.017 120.623 213.763 120.545 213.462 120.545C213.048 120.545 212.691 120.684 212.39 120.961C212.093 121.238 211.944 121.701 211.944 122.35V126H210.872V121.904C210.872 121.479 210.821 121.168 210.72 120.973C210.56 120.68 210.261 120.533 209.823 120.533C209.425 120.533 209.062 120.688 208.734 120.996C208.409 121.305 208.247 121.863 208.247 122.672V126H207.193V119.725ZM219.203 119.725V123.891C219.203 124.211 219.254 124.473 219.356 124.676C219.543 125.051 219.893 125.238 220.404 125.238C221.139 125.238 221.639 124.91 221.904 124.254C222.049 123.902 222.121 123.42 222.121 122.807V119.725H223.176V126H222.18L222.192 125.074C222.055 125.312 221.885 125.514 221.682 125.678C221.279 126.006 220.791 126.17 220.217 126.17C219.322 126.17 218.713 125.871 218.389 125.273C218.213 124.953 218.125 124.525 218.125 123.99V119.725H219.203ZM226.415 124.031C226.446 124.383 226.534 124.652 226.679 124.84C226.945 125.18 227.405 125.35 228.062 125.35C228.452 125.35 228.796 125.266 229.093 125.098C229.39 124.926 229.538 124.662 229.538 124.307C229.538 124.037 229.419 123.832 229.181 123.691C229.029 123.605 228.728 123.506 228.279 123.393L227.441 123.182C226.905 123.049 226.511 122.9 226.257 122.736C225.804 122.451 225.577 122.057 225.577 121.553C225.577 120.959 225.79 120.479 226.216 120.111C226.646 119.744 227.222 119.561 227.945 119.561C228.89 119.561 229.571 119.838 229.989 120.393C230.251 120.744 230.378 121.123 230.37 121.529H229.374C229.355 121.291 229.271 121.074 229.122 120.879C228.88 120.602 228.46 120.463 227.863 120.463C227.464 120.463 227.161 120.539 226.954 120.691C226.751 120.844 226.65 121.045 226.65 121.295C226.65 121.568 226.784 121.787 227.054 121.951C227.21 122.049 227.441 122.135 227.745 122.209L228.443 122.379C229.2 122.562 229.708 122.74 229.966 122.912C230.376 123.182 230.581 123.605 230.581 124.184C230.581 124.742 230.368 125.225 229.943 125.631C229.521 126.037 228.876 126.24 228.009 126.24C227.075 126.24 226.413 126.029 226.023 125.607C225.636 125.182 225.429 124.656 225.402 124.031H226.415ZM232.748 119.754H233.821V126H232.748V119.754ZM232.748 117.393H233.821V118.588H232.748V117.393ZM238.8 119.543C239.507 119.543 240.081 119.715 240.523 120.059C240.968 120.402 241.236 120.994 241.325 121.834H240.3C240.238 121.447 240.095 121.127 239.872 120.873C239.65 120.615 239.292 120.486 238.8 120.486C238.128 120.486 237.648 120.814 237.359 121.471C237.171 121.896 237.077 122.422 237.077 123.047C237.077 123.676 237.21 124.205 237.476 124.635C237.741 125.064 238.159 125.279 238.73 125.279C239.167 125.279 239.513 125.146 239.767 124.881C240.025 124.611 240.202 124.244 240.3 123.779H241.325C241.208 124.611 240.915 125.221 240.447 125.607C239.978 125.99 239.378 126.182 238.648 126.182C237.827 126.182 237.173 125.883 236.685 125.285C236.197 124.684 235.952 123.934 235.952 123.035C235.952 121.934 236.22 121.076 236.755 120.463C237.29 119.85 237.972 119.543 238.8 119.543ZM243.592 124.723H244.817V126H243.592V124.723Z" fill="white"/>
</svg>
