<svg width="296" height="164" viewBox="0 0 296 164" fill="none" xmlns="http://www.w3.org/2000/svg">
<rect width="296" height="164" rx="4" fill="#1B360A"/>
<rect x="32" y="32" width="90" height="28" rx="14" fill="#FFFBF5"/>
<path d="M54.3029 41.8027H56.466V49H55.0646V44.1318C55.0646 43.9919 55.0663 43.7965 55.0695 43.5459C55.0728 43.292 55.0744 43.0967 55.0744 42.96L53.7121 49H52.2521L50.8996 42.96C50.8996 43.0967 50.9012 43.292 50.9045 43.5459C50.9077 43.7965 50.9094 43.9919 50.9094 44.1318V49H49.508V41.8027H51.6955L53.0041 47.4619L54.3029 41.8027ZM60.9379 48.0186C61.3448 48.0186 61.6573 47.8737 61.8754 47.584C62.0935 47.2943 62.2025 46.8825 62.2025 46.3486C62.2025 45.8148 62.0935 45.4046 61.8754 45.1182C61.6573 44.8285 61.3448 44.6836 60.9379 44.6836C60.531 44.6836 60.2169 44.8285 59.9955 45.1182C59.7774 45.4046 59.6684 45.8148 59.6684 46.3486C59.6684 46.8825 59.7774 47.2943 59.9955 47.584C60.2169 47.8737 60.531 48.0186 60.9379 48.0186ZM63.6625 46.3486C63.6625 47.1299 63.4379 47.7988 62.9887 48.3555C62.5395 48.9089 61.8575 49.1855 60.9428 49.1855C60.0281 49.1855 59.3461 48.9089 58.8969 48.3555C58.4477 47.7988 58.223 47.1299 58.223 46.3486C58.223 45.5804 58.4477 44.9147 58.8969 44.3516C59.3461 43.7884 60.0281 43.5068 60.9428 43.5068C61.8575 43.5068 62.5395 43.7884 62.9887 44.3516C63.4379 44.9147 63.6625 45.5804 63.6625 46.3486ZM64.9166 44.7178V43.7266H65.6588V42.2422H67.0357V43.7266H67.9V44.7178H67.0357V47.5303C67.0357 47.7484 67.0634 47.8851 67.1187 47.9404C67.1741 47.9925 67.3434 48.0186 67.6266 48.0186C67.6689 48.0186 67.7128 48.0186 67.7584 48.0186C67.8072 48.0153 67.8544 48.012 67.9 48.0088V49.0488L67.2408 49.0732C66.5833 49.096 66.134 48.9821 65.8932 48.7314C65.7369 48.5719 65.6588 48.3262 65.6588 47.9941V44.7178H64.9166ZM71.0242 43.043H69.6131V41.7588H71.0242V43.043ZM69.6131 43.6777H71.0242V49H69.6131V43.6777ZM76.458 43.6777H77.9521L76.0332 49H74.5635L72.6543 43.6777H74.2168L75.3252 47.6035L76.458 43.6777ZM82.4777 46.4121C82.3898 46.4674 82.3003 46.513 82.2092 46.5488C82.1213 46.5814 81.9992 46.6123 81.843 46.6416L81.5305 46.7002C81.2375 46.7523 81.0275 46.8158 80.9006 46.8906C80.6857 47.0176 80.5783 47.2145 80.5783 47.4814C80.5783 47.7191 80.6434 47.8916 80.7736 47.999C80.9071 48.1032 81.0682 48.1553 81.257 48.1553C81.5565 48.1553 81.8316 48.0674 82.0822 47.8916C82.3361 47.7158 82.468 47.3952 82.4777 46.9297V46.4121ZM81.633 45.7627C81.8902 45.7301 82.0741 45.6895 82.1848 45.6406C82.3833 45.556 82.4826 45.4242 82.4826 45.2451C82.4826 45.027 82.4061 44.8773 82.2531 44.7959C82.1034 44.7113 81.882 44.6689 81.5891 44.6689C81.2603 44.6689 81.0275 44.7503 80.8908 44.9131C80.7932 45.0335 80.7281 45.1963 80.6955 45.4014H79.3527C79.382 44.9359 79.5122 44.5534 79.7434 44.2539C80.1112 43.7852 80.7427 43.5508 81.6379 43.5508C82.2206 43.5508 82.7382 43.6663 83.1906 43.8975C83.6431 44.1286 83.8693 44.5648 83.8693 45.2061V47.6475C83.8693 47.8167 83.8726 48.0218 83.8791 48.2627C83.8889 48.445 83.9165 48.5687 83.9621 48.6338C84.0077 48.6989 84.076 48.7526 84.1672 48.7949V49H82.6535C82.6112 48.8926 82.5819 48.7917 82.5656 48.6973C82.5493 48.6029 82.5363 48.4954 82.5266 48.375C82.3345 48.5833 82.1132 48.7607 81.8625 48.9072C81.563 49.0798 81.2245 49.166 80.8469 49.166C80.3651 49.166 79.9663 49.0293 79.6506 48.7559C79.3381 48.4792 79.1818 48.0885 79.1818 47.584C79.1818 46.9297 79.4341 46.4561 79.9387 46.1631C80.2154 46.0036 80.6223 45.8896 81.1594 45.8213L81.633 45.7627ZM85.3627 44.7178V43.7266H86.1049V42.2422H87.4818V43.7266H88.3461V44.7178H87.4818V47.5303C87.4818 47.7484 87.5095 47.8851 87.5648 47.9404C87.6202 47.9925 87.7895 48.0186 88.0727 48.0186C88.115 48.0186 88.1589 48.0186 88.2045 48.0186C88.2533 48.0153 88.3005 48.012 88.3461 48.0088V49.0488L87.6869 49.0732C87.0294 49.096 86.5801 48.9821 86.3393 48.7314C86.183 48.5719 86.1049 48.3262 86.1049 47.9941V44.7178H85.3627ZM91.4703 43.043H90.0592V41.7588H91.4703V43.043ZM90.0592 43.6777H91.4703V49H90.0592V43.6777ZM96.0105 48.0186C96.4174 48.0186 96.7299 47.8737 96.948 47.584C97.1661 47.2943 97.2752 46.8825 97.2752 46.3486C97.2752 45.8148 97.1661 45.4046 96.948 45.1182C96.7299 44.8285 96.4174 44.6836 96.0105 44.6836C95.6036 44.6836 95.2895 44.8285 95.0682 45.1182C94.8501 45.4046 94.741 45.8148 94.741 46.3486C94.741 46.8825 94.8501 47.2943 95.0682 47.584C95.2895 47.8737 95.6036 48.0186 96.0105 48.0186ZM98.7352 46.3486C98.7352 47.1299 98.5105 47.7988 98.0613 48.3555C97.6121 48.9089 96.9301 49.1855 96.0154 49.1855C95.1007 49.1855 94.4188 48.9089 93.9695 48.3555C93.5203 47.7988 93.2957 47.1299 93.2957 46.3486C93.2957 45.5804 93.5203 44.9147 93.9695 44.3516C94.4188 43.7884 95.1007 43.5068 96.0154 43.5068C96.9301 43.5068 97.6121 43.7884 98.0613 44.3516C98.5105 44.9147 98.7352 45.5804 98.7352 46.3486ZM103.485 43.5508C104.035 43.5508 104.485 43.6956 104.833 43.9854C105.185 44.2718 105.36 44.7487 105.36 45.416V49H103.935V45.7627C103.935 45.4827 103.897 45.2679 103.822 45.1182C103.686 44.8447 103.425 44.708 103.041 44.708C102.569 44.708 102.245 44.9082 102.069 45.3086C101.978 45.5202 101.933 45.7904 101.933 46.1191V49H100.546V43.6875H101.889V44.4639C102.068 44.1904 102.237 43.9935 102.396 43.873C102.683 43.6582 103.046 43.5508 103.485 43.5508Z" fill="#1B360A"/>
<path d="M34.1797 97.3926V102.713C34.1797 103.338 34.2969 103.857 34.5312 104.271C34.8789 104.896 35.4648 105.209 36.2891 105.209C37.2773 105.209 37.9492 104.871 38.3047 104.195C38.4961 103.828 38.5918 103.334 38.5918 102.713V97.3926H39.7754V102.227C39.7754 103.285 39.6328 104.1 39.3477 104.67C38.8242 105.709 37.8359 106.229 36.3828 106.229C34.9297 106.229 33.9434 105.709 33.4238 104.67C33.1387 104.1 32.9961 103.285 32.9961 102.227V97.3926H34.1797ZM43.0323 104.031C43.0635 104.383 43.1514 104.652 43.2959 104.84C43.5616 105.18 44.0225 105.35 44.6788 105.35C45.0694 105.35 45.4131 105.266 45.71 105.098C46.0069 104.926 46.1553 104.662 46.1553 104.307C46.1553 104.037 46.0362 103.832 45.7979 103.691C45.6455 103.605 45.3448 103.506 44.8955 103.393L44.0577 103.182C43.5225 103.049 43.128 102.9 42.8741 102.736C42.4209 102.451 42.1944 102.057 42.1944 101.553C42.1944 100.959 42.4073 100.479 42.833 100.111C43.2627 99.7441 43.8389 99.5605 44.5616 99.5605C45.5069 99.5605 46.1885 99.8379 46.6065 100.393C46.8682 100.744 46.9952 101.123 46.9873 101.529H45.9913C45.9717 101.291 45.8877 101.074 45.7393 100.879C45.4971 100.602 45.0772 100.463 44.4795 100.463C44.0811 100.463 43.7784 100.539 43.5713 100.691C43.3682 100.844 43.2666 101.045 43.2666 101.295C43.2666 101.568 43.4014 101.787 43.6709 101.951C43.8272 102.049 44.0577 102.135 44.3623 102.209L45.0596 102.379C45.8174 102.562 46.3252 102.74 46.583 102.912C46.9932 103.182 47.1983 103.605 47.1983 104.184C47.1983 104.742 46.9854 105.225 46.5596 105.631C46.1377 106.037 45.4932 106.24 44.626 106.24C43.6924 106.24 43.0303 106.029 42.6397 105.607C42.253 105.182 42.0459 104.656 42.0186 104.031H43.0323ZM51.9786 99.584C52.4239 99.584 52.8555 99.6895 53.2735 99.9004C53.6915 100.107 54.0098 100.377 54.2286 100.709C54.4395 101.025 54.5802 101.395 54.6505 101.816C54.713 102.105 54.7442 102.566 54.7442 103.199H50.1446C50.1641 103.836 50.3145 104.348 50.5958 104.734C50.877 105.117 51.3126 105.309 51.9024 105.309C52.4532 105.309 52.8927 105.127 53.2208 104.764C53.4083 104.553 53.5411 104.309 53.6192 104.031H54.6563C54.629 104.262 54.5372 104.52 54.3809 104.805C54.2286 105.086 54.0567 105.316 53.8653 105.496C53.545 105.809 53.1485 106.02 52.6759 106.129C52.422 106.191 52.1348 106.223 51.8145 106.223C51.0333 106.223 50.3712 105.939 49.8282 105.373C49.2852 104.803 49.0138 104.006 49.0138 102.982C49.0138 101.975 49.2872 101.156 49.8341 100.527C50.3809 99.8984 51.0958 99.584 51.9786 99.584ZM53.6602 102.361C53.6173 101.904 53.5177 101.539 53.3614 101.266C53.0723 100.758 52.5899 100.504 51.9141 100.504C51.4298 100.504 51.0235 100.68 50.6954 101.031C50.3673 101.379 50.1934 101.822 50.1739 102.361H53.6602ZM57.0343 99.7246H58.0362V100.809C58.1183 100.598 58.3195 100.342 58.6398 100.041C58.9601 99.7363 59.3292 99.584 59.7472 99.584C59.7667 99.584 59.7999 99.5859 59.8468 99.5898C59.8937 99.5938 59.9737 99.6016 60.087 99.6133V100.727C60.0245 100.715 59.9659 100.707 59.9112 100.703C59.8605 100.699 59.8038 100.697 59.7413 100.697C59.2101 100.697 58.8019 100.869 58.5167 101.213C58.2316 101.553 58.089 101.945 58.089 102.391V106H57.0343V99.7246ZM62.588 104.031C62.6193 104.383 62.7072 104.652 62.8517 104.84C63.1173 105.18 63.5783 105.35 64.2345 105.35C64.6252 105.35 64.9689 105.266 65.2658 105.098C65.5627 104.926 65.7111 104.662 65.7111 104.307C65.7111 104.037 65.592 103.832 65.3537 103.691C65.2013 103.605 64.9005 103.506 64.4513 103.393L63.6134 103.182C63.0783 103.049 62.6838 102.9 62.4298 102.736C61.9767 102.451 61.7502 102.057 61.7502 101.553C61.7502 100.959 61.963 100.479 62.3888 100.111C62.8185 99.7441 63.3947 99.5605 64.1173 99.5605C65.0627 99.5605 65.7443 99.8379 66.1623 100.393C66.424 100.744 66.5509 101.123 66.5431 101.529H65.547C65.5275 101.291 65.4435 101.074 65.2951 100.879C65.0529 100.602 64.633 100.463 64.0353 100.463C63.6369 100.463 63.3341 100.539 63.1271 100.691C62.924 100.844 62.8224 101.045 62.8224 101.295C62.8224 101.568 62.9572 101.787 63.2267 101.951C63.383 102.049 63.6134 102.135 63.9181 102.209L64.6154 102.379C65.3732 102.562 65.881 102.74 66.1388 102.912C66.549 103.182 66.7541 103.605 66.7541 104.184C66.7541 104.742 66.5412 105.225 66.1154 105.631C65.6935 106.037 65.049 106.24 64.1818 106.24C63.2482 106.24 62.5861 106.029 62.1955 105.607C61.8088 105.182 61.6017 104.656 61.5744 104.031H62.588ZM73.7073 99.7246L74.9143 104.67L76.1389 99.7246H77.3225L78.553 104.641L79.8362 99.7246H80.8909L79.0686 106H77.9729L76.6955 101.143L75.4592 106H74.3635L72.553 99.7246H73.7073ZM83.6614 104.33C83.6614 104.635 83.7727 104.875 83.9954 105.051C84.218 105.227 84.4817 105.314 84.7864 105.314C85.1575 105.314 85.5169 105.229 85.8645 105.057C86.4505 104.771 86.7434 104.305 86.7434 103.656V102.807C86.6145 102.889 86.4485 102.957 86.2454 103.012C86.0423 103.066 85.843 103.105 85.6477 103.129L85.0091 103.211C84.6263 103.262 84.3391 103.342 84.1477 103.451C83.8235 103.635 83.6614 103.928 83.6614 104.33ZM86.2161 102.197C86.4583 102.166 86.6204 102.064 86.7024 101.893C86.7493 101.799 86.7727 101.664 86.7727 101.488C86.7727 101.129 86.6438 100.869 86.386 100.709C86.1321 100.545 85.7669 100.463 85.2903 100.463C84.7395 100.463 84.3489 100.611 84.1184 100.908C83.9895 101.072 83.9055 101.316 83.8665 101.641H82.8821C82.9016 100.867 83.1516 100.33 83.6321 100.029C84.1165 99.7246 84.677 99.5723 85.3138 99.5723C86.052 99.5723 86.6516 99.7129 87.1126 99.9941C87.5696 100.275 87.7981 100.713 87.7981 101.307V104.922C87.7981 105.031 87.8196 105.119 87.8626 105.186C87.9095 105.252 88.0052 105.285 88.1497 105.285C88.1966 105.285 88.2493 105.283 88.3079 105.279C88.3665 105.271 88.429 105.262 88.4954 105.25V106.029C88.3313 106.076 88.2063 106.105 88.1204 106.117C88.0345 106.129 87.9173 106.135 87.7688 106.135C87.4055 106.135 87.1419 106.006 86.9778 105.748C86.8919 105.611 86.8313 105.418 86.7962 105.168C86.5813 105.449 86.2727 105.693 85.8704 105.9C85.468 106.107 85.0247 106.211 84.5403 106.211C83.9583 106.211 83.4817 106.035 83.1106 105.684C82.7434 105.328 82.5598 104.885 82.5598 104.354C82.5598 103.771 82.7415 103.32 83.1048 103C83.468 102.68 83.9446 102.482 84.5345 102.408L86.2161 102.197ZM90.4925 99.7246H91.4945V100.615C91.7913 100.248 92.1058 99.9844 92.4378 99.8242C92.7698 99.6641 93.139 99.584 93.5452 99.584C94.4359 99.584 95.0374 99.8945 95.3499 100.516C95.5218 100.855 95.6077 101.342 95.6077 101.975V106H94.5355V102.045C94.5355 101.662 94.4788 101.354 94.3655 101.119C94.178 100.729 93.8382 100.533 93.346 100.533C93.096 100.533 92.8909 100.559 92.7308 100.609C92.4417 100.695 92.1878 100.867 91.9691 101.125C91.7933 101.332 91.678 101.547 91.6234 101.77C91.5726 101.988 91.5472 102.303 91.5472 102.713V106H90.4925V99.7246ZM98.3431 97.9727H99.4095V99.7246H100.411V100.586H99.4095V104.682C99.4095 104.9 99.4837 105.047 99.6322 105.121C99.7142 105.164 99.8509 105.186 100.042 105.186C100.093 105.186 100.148 105.186 100.206 105.186C100.265 105.182 100.333 105.176 100.411 105.168V106C100.29 106.035 100.163 106.061 100.031 106.076C99.9017 106.092 99.7611 106.1 99.6087 106.1C99.1166 106.1 98.7826 105.975 98.6068 105.725C98.431 105.471 98.3431 105.143 98.3431 104.74V100.586H97.4935V99.7246H98.3431V97.9727ZM106.943 97.9727H108.009V99.7246H109.011V100.586H108.009V104.682C108.009 104.9 108.083 105.047 108.232 105.121C108.314 105.164 108.451 105.186 108.642 105.186C108.693 105.186 108.747 105.186 108.806 105.186C108.865 105.182 108.933 105.176 109.011 105.168V106C108.89 106.035 108.763 106.061 108.63 106.076C108.501 106.092 108.361 106.1 108.208 106.1C107.716 106.1 107.382 105.975 107.206 105.725C107.031 105.471 106.943 105.143 106.943 104.74V100.586H106.093V99.7246H106.943V97.9727ZM113.522 105.32C114.221 105.32 114.7 105.057 114.957 104.529C115.219 103.998 115.35 103.408 115.35 102.76C115.35 102.174 115.256 101.697 115.069 101.33C114.772 100.752 114.26 100.463 113.534 100.463C112.889 100.463 112.42 100.709 112.127 101.201C111.834 101.693 111.688 102.287 111.688 102.982C111.688 103.65 111.834 104.207 112.127 104.652C112.42 105.098 112.885 105.32 113.522 105.32ZM113.563 99.543C114.372 99.543 115.055 99.8125 115.614 100.352C116.172 100.891 116.452 101.684 116.452 102.73C116.452 103.742 116.206 104.578 115.713 105.238C115.221 105.898 114.457 106.229 113.422 106.229C112.559 106.229 111.874 105.938 111.366 105.355C110.858 104.77 110.604 103.984 110.604 103C110.604 101.945 110.872 101.105 111.407 100.48C111.942 99.8555 112.661 99.543 113.563 99.543ZM123.001 97.3926H124.055V106H123.001V97.3926ZM126.603 99.7539H127.675V106H126.603V99.7539ZM126.603 97.3926H127.675V98.5879H126.603V97.3926ZM130.862 104.031C130.893 104.383 130.981 104.652 131.126 104.84C131.391 105.18 131.852 105.35 132.508 105.35C132.899 105.35 133.243 105.266 133.54 105.098C133.837 104.926 133.985 104.662 133.985 104.307C133.985 104.037 133.866 103.832 133.628 103.691C133.475 103.605 133.174 103.506 132.725 103.393L131.887 103.182C131.352 103.049 130.958 102.9 130.704 102.736C130.251 102.451 130.024 102.057 130.024 101.553C130.024 100.959 130.237 100.479 130.663 100.111C131.092 99.7441 131.669 99.5605 132.391 99.5605C133.337 99.5605 134.018 99.8379 134.436 100.393C134.698 100.744 134.825 101.123 134.817 101.529H133.821C133.801 101.291 133.717 101.074 133.569 100.879C133.327 100.602 132.907 100.463 132.309 100.463C131.911 100.463 131.608 100.539 131.401 100.691C131.198 100.844 131.096 101.045 131.096 101.295C131.096 101.568 131.231 101.787 131.501 101.951C131.657 102.049 131.887 102.135 132.192 102.209L132.889 102.379C133.647 102.562 134.155 102.74 134.413 102.912C134.823 103.182 135.028 103.605 135.028 104.184C135.028 104.742 134.815 105.225 134.389 105.631C133.967 106.037 133.323 106.24 132.456 106.24C131.522 106.24 130.86 106.029 130.469 105.607C130.083 105.182 129.876 104.656 129.848 104.031H130.862ZM137.406 97.9727H138.472V99.7246H139.474V100.586H138.472V104.682C138.472 104.9 138.547 105.047 138.695 105.121C138.777 105.164 138.914 105.186 139.105 105.186C139.156 105.186 139.211 105.186 139.269 105.186C139.328 105.182 139.396 105.176 139.474 105.168V106C139.353 106.035 139.226 106.061 139.093 106.076C138.965 106.092 138.824 106.1 138.672 106.1C138.179 106.1 137.845 105.975 137.67 105.725C137.494 105.471 137.406 105.143 137.406 104.74V100.586H136.556V99.7246H137.406V97.9727ZM144.108 99.584C144.553 99.584 144.985 99.6895 145.403 99.9004C145.821 100.107 146.139 100.377 146.358 100.709C146.569 101.025 146.71 101.395 146.78 101.816C146.842 102.105 146.874 102.566 146.874 103.199H142.274C142.294 103.836 142.444 104.348 142.725 104.734C143.007 105.117 143.442 105.309 144.032 105.309C144.583 105.309 145.022 105.127 145.35 104.764C145.538 104.553 145.671 104.309 145.749 104.031H146.786C146.759 104.262 146.667 104.52 146.51 104.805C146.358 105.086 146.186 105.316 145.995 105.496C145.675 105.809 145.278 106.02 144.805 106.129C144.551 106.191 144.264 106.223 143.944 106.223C143.163 106.223 142.501 105.939 141.958 105.373C141.415 104.803 141.143 104.006 141.143 102.982C141.143 101.975 141.417 101.156 141.964 100.527C142.51 99.8984 143.225 99.584 144.108 99.584ZM145.79 102.361C145.747 101.904 145.647 101.539 145.491 101.266C145.202 100.758 144.719 100.504 144.044 100.504C143.559 100.504 143.153 100.68 142.825 101.031C142.497 101.379 142.323 101.822 142.303 102.361H145.79ZM149.135 99.7246H150.136V100.615C150.433 100.248 150.748 99.9844 151.08 99.8242C151.412 99.6641 151.781 99.584 152.187 99.584C153.078 99.584 153.679 99.8945 153.992 100.516C154.164 100.855 154.25 101.342 154.25 101.975V106H153.177V102.045C153.177 101.662 153.121 101.354 153.008 101.119C152.82 100.729 152.48 100.533 151.988 100.533C151.738 100.533 151.533 100.559 151.373 100.609C151.084 100.695 150.83 100.867 150.611 101.125C150.435 101.332 150.32 101.547 150.265 101.77C150.215 101.988 150.189 102.303 150.189 102.713V106H149.135V99.7246ZM161.285 97.9727H162.351V99.7246H163.353V100.586H162.351V104.682C162.351 104.9 162.426 105.047 162.574 105.121C162.656 105.164 162.793 105.186 162.984 105.186C163.035 105.186 163.09 105.186 163.148 105.186C163.207 105.182 163.275 105.176 163.353 105.168V106C163.232 106.035 163.105 106.061 162.973 106.076C162.844 106.092 162.703 106.1 162.551 106.1C162.058 106.1 161.724 105.975 161.549 105.725C161.373 105.471 161.285 105.143 161.285 104.74V100.586H160.435V99.7246H161.285V97.9727ZM167.864 105.32C168.563 105.32 169.042 105.057 169.3 104.529C169.561 103.998 169.692 103.408 169.692 102.76C169.692 102.174 169.599 101.697 169.411 101.33C169.114 100.752 168.602 100.463 167.876 100.463C167.231 100.463 166.763 100.709 166.47 101.201C166.177 101.693 166.03 102.287 166.03 102.982C166.03 103.65 166.177 104.207 166.47 104.652C166.763 105.098 167.227 105.32 167.864 105.32ZM167.905 99.543C168.714 99.543 169.397 99.8125 169.956 100.352C170.515 100.891 170.794 101.684 170.794 102.73C170.794 103.742 170.548 104.578 170.056 105.238C169.563 105.898 168.8 106.229 167.765 106.229C166.901 106.229 166.216 105.938 165.708 105.355C165.2 104.77 164.946 103.984 164.946 103C164.946 101.945 165.214 101.105 165.749 100.48C166.284 99.8555 167.003 99.543 167.905 99.543ZM179.528 99.6133C180.02 99.6133 180.45 99.7344 180.817 99.9766C181.017 100.113 181.22 100.312 181.427 100.574V99.7832H182.399V105.49C182.399 106.287 182.282 106.916 182.048 107.377C181.61 108.229 180.784 108.654 179.569 108.654C178.894 108.654 178.325 108.502 177.864 108.197C177.403 107.896 177.145 107.424 177.091 106.779H178.163C178.214 107.061 178.315 107.277 178.468 107.43C178.706 107.664 179.081 107.781 179.593 107.781C180.401 107.781 180.931 107.496 181.181 106.926C181.329 106.59 181.397 105.99 181.386 105.127C181.175 105.447 180.921 105.686 180.624 105.842C180.327 105.998 179.935 106.076 179.446 106.076C178.767 106.076 178.171 105.836 177.659 105.355C177.151 104.871 176.897 104.072 176.897 102.959C176.897 101.908 177.153 101.088 177.665 100.498C178.181 99.9082 178.802 99.6133 179.528 99.6133ZM181.427 102.836C181.427 102.059 181.267 101.482 180.946 101.107C180.626 100.732 180.218 100.545 179.722 100.545C178.979 100.545 178.472 100.893 178.198 101.588C178.054 101.959 177.981 102.445 177.981 103.047C177.981 103.754 178.124 104.293 178.409 104.664C178.698 105.031 179.085 105.215 179.569 105.215C180.327 105.215 180.86 104.873 181.169 104.189C181.341 103.803 181.427 103.352 181.427 102.836ZM184.982 99.7246H185.984V100.809C186.066 100.598 186.268 100.342 186.588 100.041C186.908 99.7363 187.277 99.584 187.695 99.584C187.715 99.584 187.748 99.5859 187.795 99.5898C187.842 99.5938 187.922 99.6016 188.035 99.6133V100.727C187.973 100.715 187.914 100.707 187.859 100.703C187.809 100.699 187.752 100.697 187.689 100.697C187.158 100.697 186.75 100.869 186.465 101.213C186.18 101.553 186.037 101.945 186.037 102.391V106H184.982V99.7246ZM192.523 99.584C192.968 99.584 193.399 99.6895 193.817 99.9004C194.235 100.107 194.554 100.377 194.773 100.709C194.983 101.025 195.124 101.395 195.194 101.816C195.257 102.105 195.288 102.566 195.288 103.199H190.689C190.708 103.836 190.858 104.348 191.14 104.734C191.421 105.117 191.856 105.309 192.446 105.309C192.997 105.309 193.437 105.127 193.765 104.764C193.952 104.553 194.085 104.309 194.163 104.031H195.2C195.173 104.262 195.081 104.52 194.925 104.805C194.773 105.086 194.601 105.316 194.409 105.496C194.089 105.809 193.692 106.02 193.22 106.129C192.966 106.191 192.679 106.223 192.358 106.223C191.577 106.223 190.915 105.939 190.372 105.373C189.829 104.803 189.558 104.006 189.558 102.982C189.558 101.975 189.831 101.156 190.378 100.527C190.925 99.8984 191.64 99.584 192.523 99.584ZM194.204 102.361C194.161 101.904 194.062 101.539 193.905 101.266C193.616 100.758 193.134 100.504 192.458 100.504C191.974 100.504 191.567 100.68 191.239 101.031C190.911 101.379 190.737 101.822 190.718 102.361H194.204ZM198.357 104.33C198.357 104.635 198.469 104.875 198.691 105.051C198.914 105.227 199.178 105.314 199.482 105.314C199.854 105.314 200.213 105.229 200.561 105.057C201.147 104.771 201.44 104.305 201.44 103.656V102.807C201.311 102.889 201.145 102.957 200.941 103.012C200.738 103.066 200.539 103.105 200.344 103.129L199.705 103.211C199.322 103.262 199.035 103.342 198.844 103.451C198.52 103.635 198.357 103.928 198.357 104.33ZM200.912 102.197C201.154 102.166 201.316 102.064 201.399 101.893C201.445 101.799 201.469 101.664 201.469 101.488C201.469 101.129 201.34 100.869 201.082 100.709C200.828 100.545 200.463 100.463 199.986 100.463C199.436 100.463 199.045 100.611 198.815 100.908C198.686 101.072 198.602 101.316 198.563 101.641H197.578C197.598 100.867 197.848 100.33 198.328 100.029C198.813 99.7246 199.373 99.5723 200.01 99.5723C200.748 99.5723 201.348 99.7129 201.809 99.9941C202.266 100.275 202.494 100.713 202.494 101.307V104.922C202.494 105.031 202.516 105.119 202.559 105.186C202.606 105.252 202.701 105.285 202.846 105.285C202.893 105.285 202.945 105.283 203.004 105.279C203.063 105.271 203.125 105.262 203.191 105.25V106.029C203.027 106.076 202.902 106.105 202.816 106.117C202.731 106.129 202.613 106.135 202.465 106.135C202.102 106.135 201.838 106.006 201.674 105.748C201.588 105.611 201.527 105.418 201.492 105.168C201.277 105.449 200.969 105.693 200.566 105.9C200.164 106.107 199.721 106.211 199.236 106.211C198.654 106.211 198.178 106.035 197.807 105.684C197.44 105.328 197.256 104.885 197.256 104.354C197.256 103.771 197.438 103.32 197.801 103C198.164 102.68 198.641 102.482 199.231 102.408L200.912 102.197ZM205.4 97.9727H206.466V99.7246H207.468V100.586H206.466V104.682C206.466 104.9 206.54 105.047 206.689 105.121C206.771 105.164 206.907 105.186 207.099 105.186C207.15 105.186 207.204 105.186 207.263 105.186C207.321 105.182 207.39 105.176 207.468 105.168V106C207.347 106.035 207.22 106.061 207.087 106.076C206.958 106.092 206.818 106.1 206.665 106.1C206.173 106.1 205.839 105.975 205.663 105.725C205.487 105.471 205.4 105.143 205.4 104.74V100.586H204.55V99.7246H205.4V97.9727ZM212.102 99.584C212.547 99.584 212.979 99.6895 213.397 99.9004C213.815 100.107 214.133 100.377 214.352 100.709C214.563 101.025 214.703 101.395 214.774 101.816C214.836 102.105 214.867 102.566 214.867 103.199H210.268C210.287 103.836 210.438 104.348 210.719 104.734C211 105.117 211.436 105.309 212.026 105.309C212.576 105.309 213.016 105.127 213.344 104.764C213.531 104.553 213.664 104.309 213.742 104.031H214.779C214.752 104.262 214.66 104.52 214.504 104.805C214.352 105.086 214.18 105.316 213.988 105.496C213.668 105.809 213.272 106.02 212.799 106.129C212.545 106.191 212.258 106.223 211.938 106.223C211.156 106.223 210.494 105.939 209.951 105.373C209.408 104.803 209.137 104.006 209.137 102.982C209.137 101.975 209.41 101.156 209.957 100.527C210.504 99.8984 211.219 99.584 212.102 99.584ZM213.783 102.361C213.74 101.904 213.641 101.539 213.485 101.266C213.195 100.758 212.713 100.504 212.037 100.504C211.553 100.504 211.147 100.68 210.819 101.031C210.49 101.379 210.317 101.822 210.297 102.361H213.783ZM217.157 99.7246H218.159V100.809C218.241 100.598 218.443 100.342 218.763 100.041C219.083 99.7363 219.452 99.584 219.87 99.584C219.89 99.584 219.923 99.5859 219.97 99.5898C220.017 99.5938 220.097 99.6016 220.21 99.6133V100.727C220.148 100.715 220.089 100.707 220.034 100.703C219.984 100.699 219.927 100.697 219.864 100.697C219.333 100.697 218.925 100.869 218.64 101.213C218.355 101.553 218.212 101.945 218.212 102.391V106H217.157V99.7246ZM227.193 104.33C227.193 104.635 227.304 104.875 227.527 105.051C227.749 105.227 228.013 105.314 228.318 105.314C228.689 105.314 229.048 105.229 229.396 105.057C229.982 104.771 230.275 104.305 230.275 103.656V102.807C230.146 102.889 229.98 102.957 229.777 103.012C229.574 103.066 229.374 103.105 229.179 103.129L228.54 103.211C228.158 103.262 227.87 103.342 227.679 103.451C227.355 103.635 227.193 103.928 227.193 104.33ZM229.747 102.197C229.99 102.166 230.152 102.064 230.234 101.893C230.281 101.799 230.304 101.664 230.304 101.488C230.304 101.129 230.175 100.869 229.917 100.709C229.663 100.545 229.298 100.463 228.822 100.463C228.271 100.463 227.88 100.611 227.65 100.908C227.521 101.072 227.437 101.316 227.398 101.641H226.413C226.433 100.867 226.683 100.33 227.163 100.029C227.648 99.7246 228.208 99.5723 228.845 99.5723C229.583 99.5723 230.183 99.7129 230.644 99.9941C231.101 100.275 231.329 100.713 231.329 101.307V104.922C231.329 105.031 231.351 105.119 231.394 105.186C231.441 105.252 231.536 105.285 231.681 105.285C231.728 105.285 231.781 105.283 231.839 105.279C231.898 105.271 231.96 105.262 232.027 105.25V106.029C231.863 106.076 231.738 106.105 231.652 106.117C231.566 106.129 231.449 106.135 231.3 106.135C230.937 106.135 230.673 106.006 230.509 105.748C230.423 105.611 230.363 105.418 230.327 105.168C230.113 105.449 229.804 105.693 229.402 105.9C228.999 106.107 228.556 106.211 228.072 106.211C227.49 106.211 227.013 106.035 226.642 105.684C226.275 105.328 226.091 104.885 226.091 104.354C226.091 103.771 226.273 103.32 226.636 103C226.999 102.68 227.476 102.482 228.066 102.408L229.747 102.197ZM33.2891 119.725L34.9648 124.834L36.7168 119.725H37.8711L35.5039 126H34.3789L32.0645 119.725H33.2891ZM40.542 124.33C40.542 124.635 40.6534 124.875 40.876 125.051C41.0987 125.227 41.3623 125.314 41.667 125.314C42.0381 125.314 42.3975 125.229 42.7452 125.057C43.3311 124.771 43.6241 124.305 43.6241 123.656V122.807C43.4952 122.889 43.3291 122.957 43.126 123.012C42.9229 123.066 42.7237 123.105 42.5284 123.129L41.8897 123.211C41.5069 123.262 41.2198 123.342 41.0284 123.451C40.7041 123.635 40.542 123.928 40.542 124.33ZM43.0967 122.197C43.3389 122.166 43.501 122.064 43.583 121.893C43.6299 121.799 43.6534 121.664 43.6534 121.488C43.6534 121.129 43.5245 120.869 43.2666 120.709C43.0127 120.545 42.6475 120.463 42.1709 120.463C41.6202 120.463 41.2295 120.611 40.9991 120.908C40.8702 121.072 40.7862 121.316 40.7471 121.641H39.7627C39.7823 120.867 40.0323 120.33 40.5127 120.029C40.9971 119.725 41.5577 119.572 42.1944 119.572C42.9327 119.572 43.5323 119.713 43.9932 119.994C44.4502 120.275 44.6788 120.713 44.6788 121.307V124.922C44.6788 125.031 44.7002 125.119 44.7432 125.186C44.7901 125.252 44.8858 125.285 45.0303 125.285C45.0772 125.285 45.1299 125.283 45.1885 125.279C45.2471 125.271 45.3096 125.262 45.376 125.25V126.029C45.212 126.076 45.087 126.105 45.001 126.117C44.9151 126.129 44.7979 126.135 44.6495 126.135C44.2862 126.135 44.0225 126.006 43.8584 125.748C43.7725 125.611 43.712 125.418 43.6768 125.168C43.462 125.449 43.1534 125.693 42.751 125.9C42.3487 126.107 41.9053 126.211 41.4209 126.211C40.8389 126.211 40.3623 126.035 39.9913 125.684C39.6241 125.328 39.4405 124.885 39.4405 124.354C39.4405 123.771 39.6221 123.32 39.9854 123C40.3487 122.68 40.8252 122.482 41.4151 122.408L43.0967 122.197ZM47.4024 119.725H48.4044V120.809C48.4864 120.598 48.6876 120.342 49.0079 120.041C49.3282 119.736 49.6973 119.584 50.1153 119.584C50.1348 119.584 50.168 119.586 50.2149 119.59C50.2618 119.594 50.3419 119.602 50.4552 119.613V120.727C50.3927 120.715 50.3341 120.707 50.2794 120.703C50.2286 120.699 50.172 120.697 50.1095 120.697C49.5782 120.697 49.17 120.869 48.8848 121.213C48.5997 121.553 48.4571 121.945 48.4571 122.391V126H47.4024V119.725ZM52.3292 119.754H53.4015V126H52.3292V119.754ZM52.3292 117.393H53.4015V118.588H52.3292V117.393ZM58.5744 119.584C59.0197 119.584 59.4513 119.689 59.8693 119.9C60.2873 120.107 60.6056 120.377 60.8244 120.709C61.0353 121.025 61.1759 121.395 61.2463 121.816C61.3088 122.105 61.34 122.566 61.34 123.199H56.7404C56.7599 123.836 56.9103 124.348 57.1916 124.734C57.4728 125.117 57.9084 125.309 58.4982 125.309C59.049 125.309 59.4884 125.127 59.8166 124.764C60.0041 124.553 60.1369 124.309 60.215 124.031H61.2521C61.2248 124.262 61.133 124.52 60.9767 124.805C60.8244 125.086 60.6525 125.316 60.4611 125.496C60.1408 125.809 59.7443 126.02 59.2716 126.129C59.0177 126.191 58.7306 126.223 58.4103 126.223C57.6291 126.223 56.967 125.939 56.424 125.373C55.881 124.803 55.6095 124.006 55.6095 122.982C55.6095 121.975 55.883 121.156 56.4298 120.527C56.9767 119.898 57.6916 119.584 58.5744 119.584ZM60.256 122.361C60.213 121.904 60.1134 121.539 59.9572 121.266C59.6681 120.758 59.1857 120.504 58.5099 120.504C58.0255 120.504 57.6193 120.68 57.2912 121.031C56.963 121.379 56.7892 121.822 56.7697 122.361H60.256ZM63.8117 117.973H64.8781V119.725H65.8801V120.586H64.8781V124.682C64.8781 124.9 64.9523 125.047 65.1008 125.121C65.1828 125.164 65.3195 125.186 65.5109 125.186C65.5617 125.186 65.6164 125.186 65.675 125.186C65.7336 125.182 65.802 125.176 65.8801 125.168V126C65.759 126.035 65.632 126.061 65.4992 126.076C65.3703 126.092 65.2297 126.1 65.0773 126.1C64.5852 126.1 64.2512 125.975 64.0754 125.725C63.8996 125.471 63.8117 125.143 63.8117 124.74V120.586H62.9621V119.725H63.8117V117.973ZM71.8205 119.725H72.9866C72.8381 120.127 72.508 121.045 71.9963 122.479C71.6135 123.557 71.2932 124.436 71.0354 125.115C70.426 126.717 69.9963 127.693 69.7463 128.045C69.4963 128.396 69.0666 128.572 68.4573 128.572C68.3088 128.572 68.1936 128.566 68.1116 128.555C68.0334 128.543 67.9358 128.521 67.8186 128.49V127.529C68.0022 127.58 68.135 127.611 68.217 127.623C68.2991 127.635 68.3713 127.641 68.4338 127.641C68.6291 127.641 68.7717 127.607 68.8616 127.541C68.9553 127.479 69.0334 127.4 69.0959 127.307C69.1155 127.275 69.1858 127.115 69.3069 126.826C69.428 126.537 69.5159 126.322 69.5705 126.182L67.2502 119.725H68.4455L70.1272 124.834L71.8205 119.725ZM81.6507 125.32C82.3499 125.32 82.8284 125.057 83.0863 124.529C83.348 123.998 83.4788 123.408 83.4788 122.76C83.4788 122.174 83.3851 121.697 83.1976 121.33C82.9007 120.752 82.389 120.463 81.6624 120.463C81.0179 120.463 80.5491 120.709 80.2562 121.201C79.9632 121.693 79.8167 122.287 79.8167 122.982C79.8167 123.65 79.9632 124.207 80.2562 124.652C80.5491 125.098 81.014 125.32 81.6507 125.32ZM81.6917 119.543C82.5003 119.543 83.1839 119.812 83.7425 120.352C84.3011 120.891 84.5804 121.684 84.5804 122.73C84.5804 123.742 84.3343 124.578 83.8421 125.238C83.3499 125.898 82.5863 126.229 81.5511 126.229C80.6878 126.229 80.0023 125.938 79.4945 125.355C78.9866 124.77 78.7327 123.984 78.7327 123C78.7327 121.945 79.0003 121.105 79.5355 120.48C80.0706 119.855 80.7894 119.543 81.6917 119.543ZM87.0638 118.77C87.0795 118.332 87.1556 118.012 87.2923 117.809C87.5384 117.449 88.013 117.27 88.7162 117.27C88.7826 117.27 88.8509 117.271 88.9212 117.275C88.9916 117.279 89.0716 117.285 89.1615 117.293V118.254C89.0521 118.246 88.972 118.242 88.9212 118.242C88.8744 118.238 88.8295 118.236 88.7865 118.236C88.4662 118.236 88.2748 118.32 88.2123 118.488C88.1498 118.652 88.1185 119.074 88.1185 119.754H89.1615V120.586H88.1068V126H87.0638V120.586H86.1908V119.754H87.0638V118.77ZM95.3998 119.725H96.4428V120.615C96.6928 120.307 96.9194 120.082 97.1225 119.941C97.4702 119.703 97.8647 119.584 98.3061 119.584C98.8061 119.584 99.2084 119.707 99.5131 119.953C99.685 120.094 99.8413 120.301 99.9819 120.574C100.216 120.238 100.492 119.99 100.808 119.83C101.124 119.666 101.48 119.584 101.874 119.584C102.718 119.584 103.292 119.889 103.597 120.498C103.761 120.826 103.843 121.268 103.843 121.822V126H102.748V121.641C102.748 121.223 102.642 120.936 102.431 120.779C102.224 120.623 101.97 120.545 101.669 120.545C101.255 120.545 100.898 120.684 100.597 120.961C100.3 121.238 100.152 121.701 100.152 122.35V126H99.0795V121.904C99.0795 121.479 99.0288 121.168 98.9272 120.973C98.767 120.68 98.4682 120.533 98.0307 120.533C97.6323 120.533 97.269 120.688 96.9409 120.996C96.6166 121.305 96.4545 121.863 96.4545 122.672V126H95.3998V119.725ZM107.411 119.725V123.891C107.411 124.211 107.461 124.473 107.563 124.676C107.75 125.051 108.1 125.238 108.612 125.238C109.346 125.238 109.846 124.91 110.112 124.254C110.256 123.902 110.329 123.42 110.329 122.807V119.725H111.383V126H110.387L110.399 125.074C110.262 125.312 110.092 125.514 109.889 125.678C109.487 126.006 108.999 126.17 108.424 126.17C107.53 126.17 106.92 125.871 106.596 125.273C106.42 124.953 106.332 124.525 106.332 123.99V119.725H107.411ZM114.623 124.031C114.654 124.383 114.742 124.652 114.886 124.84C115.152 125.18 115.613 125.35 116.269 125.35C116.66 125.35 117.003 125.266 117.3 125.098C117.597 124.926 117.746 124.662 117.746 124.307C117.746 124.037 117.626 123.832 117.388 123.691C117.236 123.605 116.935 123.506 116.486 123.393L115.648 123.182C115.113 123.049 114.718 122.9 114.464 122.736C114.011 122.451 113.785 122.057 113.785 121.553C113.785 120.959 113.998 120.479 114.423 120.111C114.853 119.744 115.429 119.561 116.152 119.561C117.097 119.561 117.779 119.838 118.197 120.393C118.459 120.744 118.585 121.123 118.578 121.529H117.582C117.562 121.291 117.478 121.074 117.33 120.879C117.087 120.602 116.668 120.463 116.07 120.463C115.671 120.463 115.369 120.539 115.162 120.691C114.959 120.844 114.857 121.045 114.857 121.295C114.857 121.568 114.992 121.787 115.261 121.951C115.418 122.049 115.648 122.135 115.953 122.209L116.65 122.379C117.408 122.562 117.916 122.74 118.173 122.912C118.584 123.182 118.789 123.605 118.789 124.184C118.789 124.742 118.576 125.225 118.15 125.631C117.728 126.037 117.084 126.24 116.216 126.24C115.283 126.24 114.621 126.029 114.23 125.607C113.843 125.182 113.636 124.656 113.609 124.031H114.623ZM120.956 119.754H122.028V126H120.956V119.754ZM120.956 117.393H122.028V118.588H120.956V117.393ZM127.007 119.543C127.714 119.543 128.289 119.715 128.73 120.059C129.175 120.402 129.443 120.994 129.533 121.834H128.507C128.445 121.447 128.302 121.127 128.08 120.873C127.857 120.615 127.5 120.486 127.007 120.486C126.336 120.486 125.855 120.814 125.566 121.471C125.379 121.896 125.285 122.422 125.285 123.047C125.285 123.676 125.418 124.205 125.683 124.635C125.949 125.064 126.367 125.279 126.937 125.279C127.375 125.279 127.72 125.146 127.974 124.881C128.232 124.611 128.41 124.244 128.507 123.779H129.533C129.416 124.611 129.123 125.221 128.654 125.607C128.185 125.99 127.586 126.182 126.855 126.182C126.035 126.182 125.38 125.883 124.892 125.285C124.404 124.684 124.16 123.934 124.16 123.035C124.16 121.934 124.427 121.076 124.963 120.463C125.498 119.85 126.179 119.543 127.007 119.543ZM131.799 124.723H133.024V126H131.799V124.723Z" fill="white"/>
</svg>
