<svg width="296" height="164" viewBox="0 0 296 164" fill="none" xmlns="http://www.w3.org/2000/svg">
<rect x="0.5" y="0.5" width="295" height="163" rx="3.5" fill="#1B360A"/>
<rect x="32" y="32" width="98" height="28" rx="14" fill="#FFFBF5"/>
<path d="M52.6895 47.9258C53.2852 47.9258 53.7572 47.7061 54.1055 47.2666C54.457 46.8271 54.6328 46.2021 54.6328 45.3916C54.6328 44.5843 54.457 43.9609 54.1055 43.5215C53.7572 43.0788 53.2852 42.8574 52.6895 42.8574C52.0938 42.8574 51.6185 43.0771 51.2637 43.5166C50.9089 43.9561 50.7314 44.5811 50.7314 45.3916C50.7314 46.2021 50.9089 46.8271 51.2637 47.2666C51.6185 47.7061 52.0938 47.9258 52.6895 47.9258ZM56.1367 45.3916C56.1367 46.6839 55.7738 47.6735 55.0479 48.3604C54.5042 48.9202 53.7181 49.2002 52.6895 49.2002C51.6608 49.2002 50.8747 48.9202 50.3311 48.3604C49.6019 47.6735 49.2373 46.6839 49.2373 45.3916C49.2373 44.0732 49.6019 43.0837 50.3311 42.4229C50.8747 41.863 51.6608 41.583 52.6895 41.583C53.7181 41.583 54.5042 41.863 55.0479 42.4229C55.7738 43.0837 56.1367 44.0732 56.1367 45.3916ZM61.6438 46.3389C61.6438 45.9287 61.5493 45.5658 61.3605 45.25C61.175 44.9342 60.8723 44.7764 60.4523 44.7764C59.9478 44.7764 59.6011 45.0156 59.4123 45.4941C59.3146 45.748 59.2658 46.0703 59.2658 46.4609C59.2658 47.0794 59.4302 47.514 59.759 47.7646C59.9543 47.9111 60.1854 47.9844 60.4523 47.9844C60.8397 47.9844 61.1343 47.8346 61.3361 47.5352C61.5412 47.2357 61.6438 46.8369 61.6438 46.3389ZM60.8527 43.5605C61.4745 43.5605 62.0002 43.79 62.4299 44.249C62.8628 44.708 63.0793 45.3818 63.0793 46.2705C63.0793 47.208 62.8677 47.9225 62.4445 48.4141C62.0246 48.9056 61.4826 49.1514 60.8186 49.1514C60.3954 49.1514 60.0438 49.0456 59.7639 48.834C59.6109 48.7168 59.4611 48.5459 59.3146 48.3213V51.0947H57.9377V43.6777H59.2707V44.4639C59.4204 44.2327 59.5799 44.0505 59.7492 43.917C60.0585 43.6794 60.4263 43.5605 60.8527 43.5605ZM68.557 46.3389C68.557 45.9287 68.4626 45.5658 68.2738 45.25C68.0883 44.9342 67.7855 44.7764 67.3656 44.7764C66.8611 44.7764 66.5144 45.0156 66.3256 45.4941C66.2279 45.748 66.1791 46.0703 66.1791 46.4609C66.1791 47.0794 66.3435 47.514 66.6723 47.7646C66.8676 47.9111 67.0987 47.9844 67.3656 47.9844C67.753 47.9844 68.0476 47.8346 68.2494 47.5352C68.4545 47.2357 68.557 46.8369 68.557 46.3389ZM67.766 43.5605C68.3878 43.5605 68.9135 43.79 69.3432 44.249C69.7761 44.708 69.9926 45.3818 69.9926 46.2705C69.9926 47.208 69.781 47.9225 69.3578 48.4141C68.9379 48.9056 68.3959 49.1514 67.7318 49.1514C67.3087 49.1514 66.9571 49.0456 66.6771 48.834C66.5242 48.7168 66.3744 48.5459 66.2279 48.3213V51.0947H64.851V43.6777H66.184V44.4639C66.3337 44.2327 66.4932 44.0505 66.6625 43.917C66.9717 43.6794 67.3396 43.5605 67.766 43.5605ZM74.191 48.0186C74.5979 48.0186 74.9104 47.8737 75.1285 47.584C75.3466 47.2943 75.4557 46.8825 75.4557 46.3486C75.4557 45.8148 75.3466 45.4046 75.1285 45.1182C74.9104 44.8285 74.5979 44.6836 74.191 44.6836C73.7841 44.6836 73.47 44.8285 73.2486 45.1182C73.0305 45.4046 72.9215 45.8148 72.9215 46.3486C72.9215 46.8825 73.0305 47.2943 73.2486 47.584C73.47 47.8737 73.7841 48.0186 74.191 48.0186ZM76.9156 46.3486C76.9156 47.1299 76.691 47.7988 76.2418 48.3555C75.7926 48.9089 75.1106 49.1855 74.1959 49.1855C73.2812 49.1855 72.5992 48.9089 72.15 48.3555C71.7008 47.7988 71.4762 47.1299 71.4762 46.3486C71.4762 45.5804 71.7008 44.9147 72.15 44.3516C72.5992 43.7884 73.2812 43.5068 74.1959 43.5068C75.1106 43.5068 75.7926 43.7884 76.2418 44.3516C76.691 44.9147 76.9156 45.5804 76.9156 46.3486ZM81.6072 43.5508C81.6333 43.5508 81.6544 43.5524 81.6707 43.5557C81.6902 43.5557 81.7309 43.5573 81.7928 43.5605V44.9863C81.7049 44.9766 81.6268 44.9701 81.5584 44.9668C81.49 44.9635 81.4347 44.9619 81.3924 44.9619C80.8325 44.9619 80.4565 45.1442 80.2645 45.5088C80.157 45.7139 80.1033 46.0296 80.1033 46.4561V49H78.702V43.6777H80.0301V44.6055C80.2449 44.2507 80.4321 44.0081 80.5916 43.8779C80.852 43.6598 81.1906 43.5508 81.6072 43.5508ZM82.8662 44.7178V43.7266H83.6084V42.2422H84.9854V43.7266H85.8496V44.7178H84.9854V47.5303C84.9854 47.7484 85.013 47.8851 85.0684 47.9404C85.1237 47.9925 85.293 48.0186 85.5762 48.0186C85.6185 48.0186 85.6624 48.0186 85.708 48.0186C85.7568 48.0153 85.804 48.012 85.8496 48.0088V49.0488L85.1904 49.0732C84.5329 49.096 84.0837 48.9821 83.8428 48.7314C83.6865 48.5719 83.6084 48.3262 83.6084 47.9941V44.7178H82.8662ZM88.9299 43.6777V46.8857C88.9299 47.1885 88.9657 47.4163 89.0373 47.5693C89.1643 47.8395 89.4133 47.9746 89.7844 47.9746C90.2596 47.9746 90.5852 47.7826 90.7609 47.3984C90.8521 47.1901 90.8977 46.915 90.8977 46.5732V43.6777H92.3088V49H90.9562V48.248C90.9432 48.2643 90.9107 48.3132 90.8586 48.3945C90.8065 48.4759 90.7447 48.5475 90.673 48.6094C90.4549 48.8047 90.2434 48.9382 90.0383 49.0098C89.8365 49.0814 89.5988 49.1172 89.3254 49.1172C88.5376 49.1172 88.007 48.834 87.7336 48.2676C87.5806 47.9551 87.5041 47.4945 87.5041 46.8857V43.6777H88.9299ZM97.4057 43.5508C97.9558 43.5508 98.405 43.6956 98.7533 43.9854C99.1049 44.2718 99.2807 44.7487 99.2807 45.416V49H97.8549V45.7627C97.8549 45.4827 97.8174 45.2679 97.7426 45.1182C97.6059 44.8447 97.3454 44.708 96.9613 44.708C96.4893 44.708 96.1654 44.9082 95.9896 45.3086C95.8985 45.5202 95.8529 45.7904 95.8529 46.1191V49H94.4662V43.6875H95.809V44.4639C95.988 44.1904 96.1573 43.9935 96.3168 43.873C96.6033 43.6582 96.9662 43.5508 97.4057 43.5508ZM102.8 43.043H101.389V41.7588H102.8V43.043ZM101.389 43.6777H102.8V49H101.389V43.6777ZM104.406 44.7178V43.7266H105.148V42.2422H106.525V43.7266H107.389V44.7178H106.525V47.5303C106.525 47.7484 106.553 47.8851 106.608 47.9404C106.664 47.9925 106.833 48.0186 107.116 48.0186C107.158 48.0186 107.202 48.0186 107.248 48.0186C107.297 48.0153 107.344 48.012 107.389 48.0088V49.0488L106.73 49.0732C106.073 49.096 105.624 48.9821 105.383 48.7314C105.226 48.5719 105.148 48.3262 105.148 47.9941V44.7178H104.406ZM109.298 50.0205L109.474 50.0303C109.61 50.0368 109.741 50.0319 109.864 50.0156C109.988 49.9993 110.092 49.9619 110.177 49.9033C110.258 49.848 110.333 49.7324 110.401 49.5566C110.473 49.3809 110.502 49.2734 110.489 49.2344L108.536 43.6777H110.084L111.246 47.6035L112.345 43.6777H113.824L111.998 48.9121C111.646 49.9212 111.368 50.5462 111.163 50.7871C110.958 51.0312 110.548 51.1533 109.933 51.1533C109.809 51.1533 109.71 51.1517 109.635 51.1484C109.56 51.1484 109.448 51.1436 109.298 51.1338V50.0205Z" fill="#1B360A"/>
<path d="M32.9434 97.3926H34.1211V100.949H38.5977V97.3926H39.7754V106H38.5977V101.975H34.1211V106H32.9434V97.3926ZM45.0186 99.584C45.4639 99.584 45.8955 99.6895 46.3135 99.9004C46.7315 100.107 47.0498 100.377 47.2686 100.709C47.4795 101.025 47.6202 101.395 47.6905 101.816C47.753 102.105 47.7842 102.566 47.7842 103.199H43.1846C43.2041 103.836 43.3545 104.348 43.6358 104.734C43.917 105.117 44.3526 105.309 44.9424 105.309C45.4932 105.309 45.9327 105.127 46.2608 104.764C46.4483 104.553 46.5811 104.309 46.6592 104.031H47.6963C47.669 104.262 47.5772 104.52 47.4209 104.805C47.2686 105.086 47.0967 105.316 46.9053 105.496C46.585 105.809 46.1885 106.02 45.7159 106.129C45.462 106.191 45.1748 106.223 44.8545 106.223C44.0733 106.223 43.4112 105.939 42.8682 105.373C42.3252 104.803 42.0538 104.006 42.0538 102.982C42.0538 101.975 42.3272 101.156 42.8741 100.527C43.4209 99.8984 44.1358 99.584 45.0186 99.584ZM46.7002 102.361C46.6573 101.904 46.5577 101.539 46.4014 101.266C46.1123 100.758 45.6299 100.504 44.9541 100.504C44.4698 100.504 44.0635 100.68 43.7354 101.031C43.4073 101.379 43.2334 101.822 43.2139 102.361H46.7002ZM50.0743 97.3926H51.129V106H50.0743V97.3926ZM56.3253 105.291C56.8175 105.291 57.2257 105.086 57.5499 104.676C57.878 104.262 58.0421 103.645 58.0421 102.824C58.0421 102.324 57.9698 101.895 57.8253 101.535C57.5519 100.844 57.0519 100.498 56.3253 100.498C55.5948 100.498 55.0948 100.863 54.8253 101.594C54.6808 101.984 54.6085 102.48 54.6085 103.082C54.6085 103.566 54.6808 103.979 54.8253 104.318C55.0987 104.967 55.5987 105.291 56.3253 105.291ZM53.5948 99.7539H54.6202V100.586C54.8312 100.301 55.0616 100.08 55.3116 99.9238C55.6671 99.6895 56.0851 99.5723 56.5655 99.5723C57.2765 99.5723 57.88 99.8457 58.3761 100.393C58.8722 100.936 59.1202 101.713 59.1202 102.725C59.1202 104.092 58.7628 105.068 58.048 105.654C57.5948 106.025 57.0675 106.211 56.4659 106.211C55.9933 106.211 55.5968 106.107 55.2765 105.9C55.089 105.783 54.88 105.582 54.6495 105.297V108.502H53.5948V99.7539ZM66.6711 99.7246V103.891C66.6711 104.211 66.7219 104.473 66.8234 104.676C67.0109 105.051 67.3605 105.238 67.8723 105.238C68.6066 105.238 69.1066 104.91 69.3723 104.254C69.5168 103.902 69.5891 103.42 69.5891 102.807V99.7246H70.6437V106H69.6477L69.6594 105.074C69.5227 105.312 69.3527 105.514 69.1496 105.678C68.7473 106.006 68.259 106.17 67.6848 106.17C66.7902 106.17 66.1809 105.871 65.8566 105.273C65.6809 104.953 65.593 104.525 65.593 103.99V99.7246H66.6711ZM73.883 104.031C73.9143 104.383 74.0022 104.652 74.1467 104.84C74.4123 105.18 74.8733 105.35 75.5295 105.35C75.9202 105.35 76.2639 105.266 76.5608 105.098C76.8577 104.926 77.0061 104.662 77.0061 104.307C77.0061 104.037 76.887 103.832 76.6487 103.691C76.4963 103.605 76.1955 103.506 75.7463 103.393L74.9084 103.182C74.3733 103.049 73.9787 102.9 73.7248 102.736C73.2717 102.451 73.0452 102.057 73.0452 101.553C73.0452 100.959 73.258 100.479 73.6838 100.111C74.1135 99.7441 74.6897 99.5605 75.4123 99.5605C76.3577 99.5605 77.0393 99.8379 77.4573 100.393C77.719 100.744 77.8459 101.123 77.8381 101.529H76.842C76.8225 101.291 76.7385 101.074 76.5901 100.879C76.3479 100.602 75.928 100.463 75.3303 100.463C74.9319 100.463 74.6291 100.539 74.4221 100.691C74.219 100.844 74.1174 101.045 74.1174 101.295C74.1174 101.568 74.2522 101.787 74.5217 101.951C74.678 102.049 74.9084 102.135 75.2131 102.209L75.9104 102.379C76.6682 102.562 77.176 102.74 77.4338 102.912C77.844 103.182 78.0491 103.605 78.0491 104.184C78.0491 104.742 77.8362 105.225 77.4104 105.631C76.9885 106.037 76.344 106.24 75.4768 106.24C74.5432 106.24 73.8811 106.029 73.4905 105.607C73.1037 105.182 72.8967 104.656 72.8694 104.031H73.883ZM82.8294 99.584C83.2747 99.584 83.7063 99.6895 84.1243 99.9004C84.5423 100.107 84.8606 100.377 85.0794 100.709C85.2903 101.025 85.4309 101.395 85.5013 101.816C85.5638 102.105 85.595 102.566 85.595 103.199H80.9954C81.0149 103.836 81.1653 104.348 81.4466 104.734C81.7278 105.117 82.1634 105.309 82.7532 105.309C83.304 105.309 83.7434 105.127 84.0716 104.764C84.2591 104.553 84.3919 104.309 84.47 104.031H85.5071C85.4798 104.262 85.388 104.52 85.2317 104.805C85.0794 105.086 84.9075 105.316 84.7161 105.496C84.3958 105.809 83.9993 106.02 83.5266 106.129C83.2727 106.191 82.9856 106.223 82.6653 106.223C81.8841 106.223 81.222 105.939 80.679 105.373C80.136 104.803 79.8645 104.006 79.8645 102.982C79.8645 101.975 80.138 101.156 80.6848 100.527C81.2317 99.8984 81.9466 99.584 82.8294 99.584ZM84.511 102.361C84.468 101.904 84.3684 101.539 84.2122 101.266C83.9231 100.758 83.4407 100.504 82.7649 100.504C82.2805 100.504 81.8743 100.68 81.5462 101.031C81.218 101.379 81.0442 101.822 81.0247 102.361H84.511ZM87.8851 99.7246H88.887V100.809C88.9691 100.598 89.1702 100.342 89.4905 100.041C89.8109 99.7363 90.18 99.584 90.598 99.584C90.6175 99.584 90.6507 99.5859 90.6976 99.5898C90.7445 99.5938 90.8245 99.6016 90.9378 99.6133V100.727C90.8753 100.715 90.8167 100.707 90.762 100.703C90.7113 100.699 90.6546 100.697 90.5921 100.697C90.0609 100.697 89.6527 100.869 89.3675 101.213C89.0823 101.553 88.9398 101.945 88.9398 102.391V106H87.8851V99.7246ZM93.4388 104.031C93.4701 104.383 93.558 104.652 93.7025 104.84C93.9681 105.18 94.4291 105.35 95.0853 105.35C95.4759 105.35 95.8197 105.266 96.1166 105.098C96.4134 104.926 96.5619 104.662 96.5619 104.307C96.5619 104.037 96.4427 103.832 96.2045 103.691C96.0521 103.605 95.7513 103.506 95.3021 103.393L94.4642 103.182C93.9291 103.049 93.5345 102.9 93.2806 102.736C92.8275 102.451 92.6009 102.057 92.6009 101.553C92.6009 100.959 92.8138 100.479 93.2396 100.111C93.6693 99.7441 94.2455 99.5605 94.9681 99.5605C95.9134 99.5605 96.5951 99.8379 97.013 100.393C97.2748 100.744 97.4017 101.123 97.3939 101.529H96.3978C96.3783 101.291 96.2943 101.074 96.1459 100.879C95.9037 100.602 95.4837 100.463 94.8861 100.463C94.4877 100.463 94.1849 100.539 93.9779 100.691C93.7748 100.844 93.6732 101.045 93.6732 101.295C93.6732 101.568 93.808 101.787 94.0775 101.951C94.2337 102.049 94.4642 102.135 94.7689 102.209L95.4662 102.379C96.224 102.562 96.7318 102.74 96.9896 102.912C97.3998 103.182 97.6048 103.605 97.6048 104.184C97.6048 104.742 97.392 105.225 96.9662 105.631C96.5443 106.037 95.8998 106.24 95.0326 106.24C94.099 106.24 93.4369 106.029 93.0462 105.607C92.6595 105.182 92.4525 104.656 92.4252 104.031H93.4388ZM104.88 104.33C104.88 104.635 104.992 104.875 105.214 105.051C105.437 105.227 105.701 105.314 106.005 105.314C106.376 105.314 106.736 105.229 107.083 105.057C107.669 104.771 107.962 104.305 107.962 103.656V102.807C107.833 102.889 107.667 102.957 107.464 103.012C107.261 103.066 107.062 103.105 106.867 103.129L106.228 103.211C105.845 103.262 105.558 103.342 105.367 103.451C105.042 103.635 104.88 103.928 104.88 104.33ZM107.435 102.197C107.677 102.166 107.839 102.064 107.921 101.893C107.968 101.799 107.992 101.664 107.992 101.488C107.992 101.129 107.863 100.869 107.605 100.709C107.351 100.545 106.986 100.463 106.509 100.463C105.958 100.463 105.568 100.611 105.337 100.908C105.208 101.072 105.124 101.316 105.085 101.641H104.101C104.121 100.867 104.371 100.33 104.851 100.029C105.335 99.7246 105.896 99.5723 106.533 99.5723C107.271 99.5723 107.871 99.7129 108.331 99.9941C108.789 100.275 109.017 100.713 109.017 101.307V104.922C109.017 105.031 109.039 105.119 109.081 105.186C109.128 105.252 109.224 105.285 109.369 105.285C109.415 105.285 109.468 105.283 109.527 105.279C109.585 105.271 109.648 105.262 109.714 105.25V106.029C109.55 106.076 109.425 106.105 109.339 106.117C109.253 106.129 109.136 106.135 108.988 106.135C108.624 106.135 108.361 106.006 108.197 105.748C108.111 105.611 108.05 105.418 108.015 105.168C107.8 105.449 107.492 105.693 107.089 105.9C106.687 106.107 106.244 106.211 105.759 106.211C105.177 106.211 104.701 106.035 104.33 105.684C103.962 105.328 103.779 104.885 103.779 104.354C103.779 103.771 103.96 103.32 104.324 103C104.687 102.68 105.164 102.482 105.753 102.408L107.435 102.197ZM112.766 99.7246V103.891C112.766 104.211 112.817 104.473 112.918 104.676C113.106 105.051 113.456 105.238 113.967 105.238C114.702 105.238 115.202 104.91 115.467 104.254C115.612 103.902 115.684 103.42 115.684 102.807V99.7246H116.739V106H115.743L115.754 105.074C115.618 105.312 115.448 105.514 115.245 105.678C114.842 106.006 114.354 106.17 113.78 106.17C112.885 106.17 112.276 105.871 111.952 105.273C111.776 104.953 111.688 104.525 111.688 103.99V99.7246H112.766ZM119.562 97.9727H120.628V99.7246H121.63V100.586H120.628V104.682C120.628 104.9 120.703 105.047 120.851 105.121C120.933 105.164 121.07 105.186 121.261 105.186C121.312 105.186 121.367 105.186 121.425 105.186C121.484 105.182 121.552 105.176 121.63 105.168V106C121.509 106.035 121.382 106.061 121.25 106.076C121.121 106.092 120.98 106.1 120.828 106.1C120.335 106.1 120.001 105.975 119.826 105.725C119.65 105.471 119.562 105.143 119.562 104.74V100.586H118.712V99.7246H119.562V97.9727ZM126.141 105.32C126.84 105.32 127.319 105.057 127.577 104.529C127.838 103.998 127.969 103.408 127.969 102.76C127.969 102.174 127.876 101.697 127.688 101.33C127.391 100.752 126.879 100.463 126.153 100.463C125.508 100.463 125.04 100.709 124.747 101.201C124.454 101.693 124.307 102.287 124.307 102.982C124.307 103.65 124.454 104.207 124.747 104.652C125.04 105.098 125.504 105.32 126.141 105.32ZM126.182 99.543C126.991 99.543 127.674 99.8125 128.233 100.352C128.792 100.891 129.071 101.684 129.071 102.73C129.071 103.742 128.825 104.578 128.333 105.238C127.84 105.898 127.077 106.229 126.042 106.229C125.178 106.229 124.493 105.938 123.985 105.355C123.477 104.77 123.223 103.984 123.223 103C123.223 101.945 123.491 101.105 124.026 100.48C124.561 99.8555 125.28 99.543 126.182 99.543ZM131.291 99.7246H132.293V100.615C132.589 100.248 132.904 99.9844 133.236 99.8242C133.568 99.6641 133.937 99.584 134.343 99.584C135.234 99.584 135.836 99.8945 136.148 100.516C136.32 100.855 136.406 101.342 136.406 101.975V106H135.334V102.045C135.334 101.662 135.277 101.354 135.164 101.119C134.976 100.729 134.636 100.533 134.144 100.533C133.894 100.533 133.689 100.559 133.529 100.609C133.24 100.695 132.986 100.867 132.767 101.125C132.591 101.332 132.476 101.547 132.421 101.77C132.371 101.988 132.345 102.303 132.345 102.713V106H131.291V99.7246ZM141.421 105.32C142.12 105.32 142.598 105.057 142.856 104.529C143.118 103.998 143.249 103.408 143.249 102.76C143.249 102.174 143.155 101.697 142.967 101.33C142.671 100.752 142.159 100.463 141.432 100.463C140.788 100.463 140.319 100.709 140.026 101.201C139.733 101.693 139.587 102.287 139.587 102.982C139.587 103.65 139.733 104.207 140.026 104.652C140.319 105.098 140.784 105.32 141.421 105.32ZM141.462 99.543C142.27 99.543 142.954 99.8125 143.512 100.352C144.071 100.891 144.35 101.684 144.35 102.73C144.35 103.742 144.104 104.578 143.612 105.238C143.12 105.898 142.356 106.229 141.321 106.229C140.458 106.229 139.772 105.938 139.264 105.355C138.756 104.77 138.503 103.984 138.503 103C138.503 101.945 138.77 101.105 139.305 100.48C139.84 99.8555 140.559 99.543 141.462 99.543ZM146.57 99.7246H147.613V100.615C147.863 100.307 148.09 100.082 148.293 99.9414C148.64 99.7031 149.035 99.584 149.476 99.584C149.976 99.584 150.379 99.707 150.683 99.9531C150.855 100.094 151.011 100.301 151.152 100.574C151.386 100.238 151.662 99.9902 151.978 99.8301C152.295 99.666 152.65 99.584 153.045 99.584C153.888 99.584 154.463 99.8887 154.767 100.498C154.931 100.826 155.013 101.268 155.013 101.822V106H153.918V101.641C153.918 101.223 153.812 100.936 153.601 100.779C153.394 100.623 153.14 100.545 152.84 100.545C152.425 100.545 152.068 100.684 151.767 100.961C151.47 101.238 151.322 101.701 151.322 102.35V106H150.25V101.904C150.25 101.479 150.199 101.168 150.097 100.973C149.937 100.68 149.638 100.533 149.201 100.533C148.802 100.533 148.439 100.688 148.111 100.996C147.787 101.305 147.625 101.863 147.625 102.672V106H146.57V99.7246ZM160.016 105.32C160.716 105.32 161.194 105.057 161.452 104.529C161.714 103.998 161.844 103.408 161.844 102.76C161.844 102.174 161.751 101.697 161.563 101.33C161.266 100.752 160.755 100.463 160.028 100.463C159.384 100.463 158.915 100.709 158.622 101.201C158.329 101.693 158.182 102.287 158.182 102.982C158.182 103.65 158.329 104.207 158.622 104.652C158.915 105.098 159.38 105.32 160.016 105.32ZM160.057 99.543C160.866 99.543 161.55 99.8125 162.108 100.352C162.667 100.891 162.946 101.684 162.946 102.73C162.946 103.742 162.7 104.578 162.208 105.238C161.716 105.898 160.952 106.229 159.917 106.229C159.053 106.229 158.368 105.938 157.86 105.355C157.352 104.77 157.098 103.984 157.098 103C157.098 101.945 157.366 101.105 157.901 100.48C158.436 99.8555 159.155 99.543 160.057 99.543ZM166.22 99.7246V103.891C166.22 104.211 166.271 104.473 166.373 104.676C166.56 105.051 166.91 105.238 167.422 105.238C168.156 105.238 168.656 104.91 168.922 104.254C169.066 103.902 169.138 103.42 169.138 102.807V99.7246H170.193V106H169.197L169.209 105.074C169.072 105.312 168.902 105.514 168.699 105.678C168.297 106.006 167.808 106.17 167.234 106.17C166.34 106.17 165.73 105.871 165.406 105.273C165.23 104.953 165.142 104.525 165.142 103.99V99.7246H166.22ZM173.432 104.031C173.464 104.383 173.552 104.652 173.696 104.84C173.962 105.18 174.423 105.35 175.079 105.35C175.47 105.35 175.813 105.266 176.11 105.098C176.407 104.926 176.555 104.662 176.555 104.307C176.555 104.037 176.436 103.832 176.198 103.691C176.046 103.605 175.745 103.506 175.296 103.393L174.458 103.182C173.923 103.049 173.528 102.9 173.274 102.736C172.821 102.451 172.595 102.057 172.595 101.553C172.595 100.959 172.807 100.479 173.233 100.111C173.663 99.7441 174.239 99.5605 174.962 99.5605C175.907 99.5605 176.589 99.8379 177.007 100.393C177.268 100.744 177.395 101.123 177.387 101.529H176.391C176.372 101.291 176.288 101.074 176.139 100.879C175.897 100.602 175.477 100.463 174.88 100.463C174.481 100.463 174.179 100.539 173.971 100.691C173.768 100.844 173.667 101.045 173.667 101.295C173.667 101.568 173.802 101.787 174.071 101.951C174.227 102.049 174.458 102.135 174.762 102.209L175.46 102.379C176.218 102.562 176.725 102.74 176.983 102.912C177.393 103.182 177.598 103.605 177.598 104.184C177.598 104.742 177.386 105.225 176.96 105.631C176.538 106.037 175.893 106.24 175.026 106.24C174.093 106.24 173.43 106.029 173.04 105.607C172.653 105.182 172.446 104.656 172.419 104.031H173.432ZM179.795 97.3926H180.849V106H179.795V97.3926ZM187.317 99.7246H188.483C188.335 100.127 188.005 101.045 187.493 102.479C187.11 103.557 186.79 104.436 186.532 105.115C185.923 106.717 185.493 107.693 185.243 108.045C184.993 108.396 184.563 108.572 183.954 108.572C183.806 108.572 183.69 108.566 183.608 108.555C183.53 108.543 183.432 108.521 183.315 108.49V107.529C183.499 107.58 183.632 107.611 183.714 107.623C183.796 107.635 183.868 107.641 183.931 107.641C184.126 107.641 184.268 107.607 184.358 107.541C184.452 107.479 184.53 107.4 184.593 107.307C184.612 107.275 184.682 107.115 184.804 106.826C184.925 106.537 185.013 106.322 185.067 106.182L182.747 99.7246H183.942L185.624 104.834L187.317 99.7246ZM195.325 102.936C195.325 103.607 195.468 104.17 195.753 104.623C196.038 105.076 196.495 105.303 197.124 105.303C197.612 105.303 198.013 105.094 198.325 104.676C198.642 104.254 198.8 103.65 198.8 102.865C198.8 102.072 198.638 101.486 198.313 101.107C197.989 100.725 197.589 100.533 197.112 100.533C196.581 100.533 196.149 100.736 195.817 101.143C195.489 101.549 195.325 102.146 195.325 102.936ZM196.913 99.6133C197.394 99.6133 197.796 99.7148 198.12 99.918C198.308 100.035 198.52 100.24 198.759 100.533V97.3633H199.772V106H198.823V105.127C198.577 105.514 198.286 105.793 197.95 105.965C197.614 106.137 197.229 106.223 196.796 106.223C196.097 106.223 195.491 105.93 194.979 105.344C194.468 104.754 194.212 103.971 194.212 102.994C194.212 102.08 194.444 101.289 194.909 100.621C195.378 99.9492 196.046 99.6133 196.913 99.6133ZM204.91 99.584C205.355 99.584 205.787 99.6895 206.205 99.9004C206.623 100.107 206.941 100.377 207.16 100.709C207.371 101.025 207.512 101.395 207.582 101.816C207.645 102.105 207.676 102.566 207.676 103.199H203.076C203.096 103.836 203.246 104.348 203.527 104.734C203.809 105.117 204.244 105.309 204.834 105.309C205.385 105.309 205.824 105.127 206.152 104.764C206.34 104.553 206.473 104.309 206.551 104.031H207.588C207.561 104.262 207.469 104.52 207.312 104.805C207.16 105.086 206.988 105.316 206.797 105.496C206.477 105.809 206.08 106.02 205.607 106.129C205.354 106.191 205.066 106.223 204.746 106.223C203.965 106.223 203.303 105.939 202.76 105.373C202.217 104.803 201.945 104.006 201.945 102.982C201.945 101.975 202.219 101.156 202.766 100.527C203.312 99.8984 204.027 99.584 204.91 99.584ZM206.592 102.361C206.549 101.904 206.449 101.539 206.293 101.266C206.004 100.758 205.521 100.504 204.846 100.504C204.361 100.504 203.955 100.68 203.627 101.031C203.299 101.379 203.125 101.822 203.105 102.361H206.592ZM212.356 99.543C213.064 99.543 213.638 99.7148 214.079 100.059C214.524 100.402 214.792 100.994 214.882 101.834H213.856C213.794 101.447 213.651 101.127 213.429 100.873C213.206 100.615 212.849 100.486 212.356 100.486C211.685 100.486 211.204 100.814 210.915 101.471C210.728 101.896 210.634 102.422 210.634 103.047C210.634 103.676 210.767 104.205 211.032 104.635C211.298 105.064 211.716 105.279 212.286 105.279C212.724 105.279 213.069 105.146 213.323 104.881C213.581 104.611 213.759 104.244 213.856 103.779H214.882C214.765 104.611 214.472 105.221 214.003 105.607C213.534 105.99 212.935 106.182 212.204 106.182C211.384 106.182 210.73 105.883 210.241 105.285C209.753 104.684 209.509 103.934 209.509 103.035C209.509 101.934 209.776 101.076 210.312 100.463C210.847 99.8496 211.528 99.543 212.356 99.543ZM216.897 99.7539H217.969V106H216.897V99.7539ZM216.897 97.3926H217.969V98.5879H216.897V97.3926ZM221.196 102.936C221.196 103.607 221.339 104.17 221.624 104.623C221.909 105.076 222.366 105.303 222.995 105.303C223.484 105.303 223.884 105.094 224.196 104.676C224.513 104.254 224.671 103.65 224.671 102.865C224.671 102.072 224.509 101.486 224.185 101.107C223.86 100.725 223.46 100.533 222.984 100.533C222.452 100.533 222.021 100.736 221.689 101.143C221.36 101.549 221.196 102.146 221.196 102.936ZM222.784 99.6133C223.265 99.6133 223.667 99.7148 223.991 99.918C224.179 100.035 224.392 100.24 224.63 100.533V97.3633H225.644V106H224.694V105.127C224.448 105.514 224.157 105.793 223.821 105.965C223.485 106.137 223.101 106.223 222.667 106.223C221.968 106.223 221.362 105.93 220.851 105.344C220.339 104.754 220.083 103.971 220.083 102.994C220.083 102.08 220.316 101.289 220.78 100.621C221.249 99.9492 221.917 99.6133 222.784 99.6133ZM230.781 99.584C231.227 99.584 231.658 99.6895 232.076 99.9004C232.494 100.107 232.813 100.377 233.031 100.709C233.242 101.025 233.383 101.395 233.453 101.816C233.516 102.105 233.547 102.566 233.547 103.199H228.947C228.967 103.836 229.117 104.348 229.399 104.734C229.68 105.117 230.115 105.309 230.705 105.309C231.256 105.309 231.695 105.127 232.024 104.764C232.211 104.553 232.344 104.309 232.422 104.031H233.459C233.432 104.262 233.34 104.52 233.184 104.805C233.031 105.086 232.86 105.316 232.668 105.496C232.348 105.809 231.951 106.02 231.479 106.129C231.225 106.191 230.938 106.223 230.617 106.223C229.836 106.223 229.174 105.939 228.631 105.373C228.088 104.803 227.817 104.006 227.817 102.982C227.817 101.975 228.09 101.156 228.637 100.527C229.184 99.8984 229.899 99.584 230.781 99.584ZM232.463 102.361C232.42 101.904 232.32 101.539 232.164 101.266C231.875 100.758 231.393 100.504 230.717 100.504C230.233 100.504 229.826 100.68 229.498 101.031C229.17 101.379 228.996 101.822 228.977 102.361H232.463ZM33.2598 119.725L34.4668 124.67L35.6914 119.725H36.875L38.1055 124.641L39.3887 119.725H40.4434L38.6211 126H37.5254L36.248 121.143L35.0117 126H33.916L32.1055 119.725H33.2598ZM42.4053 117.363H43.46V120.574C43.71 120.258 43.9346 120.035 44.1338 119.906C44.4737 119.684 44.8975 119.572 45.4053 119.572C46.3155 119.572 46.9327 119.891 47.2569 120.527C47.4327 120.875 47.5205 121.357 47.5205 121.975V126H46.4366V122.045C46.4366 121.584 46.378 121.246 46.2608 121.031C46.0694 120.688 45.71 120.516 45.1827 120.516C44.7452 120.516 44.3487 120.666 43.9932 120.967C43.6377 121.268 43.46 121.836 43.46 122.672V126H42.4053V117.363ZM50.8536 124.33C50.8536 124.635 50.9649 124.875 51.1876 125.051C51.4102 125.227 51.6739 125.314 51.9786 125.314C52.3497 125.314 52.7091 125.229 53.0567 125.057C53.6427 124.771 53.9356 124.305 53.9356 123.656V122.807C53.8067 122.889 53.6407 122.957 53.4376 123.012C53.2345 123.066 53.0352 123.105 52.8399 123.129L52.2013 123.211C51.8184 123.262 51.5313 123.342 51.3399 123.451C51.0157 123.635 50.8536 123.928 50.8536 124.33ZM53.4083 122.197C53.6505 122.166 53.8126 122.064 53.8946 121.893C53.9415 121.799 53.9649 121.664 53.9649 121.488C53.9649 121.129 53.836 120.869 53.5782 120.709C53.3243 120.545 52.9591 120.463 52.4825 120.463C51.9317 120.463 51.5411 120.611 51.3106 120.908C51.1817 121.072 51.0977 121.316 51.0587 121.641H50.0743C50.0938 120.867 50.3438 120.33 50.8243 120.029C51.3087 119.725 51.8692 119.572 52.5059 119.572C53.2442 119.572 53.8438 119.713 54.3048 119.994C54.7618 120.275 54.9903 120.713 54.9903 121.307V124.922C54.9903 125.031 55.0118 125.119 55.0548 125.186C55.1016 125.252 55.1973 125.285 55.3419 125.285C55.3888 125.285 55.4415 125.283 55.5001 125.279C55.5587 125.271 55.6212 125.262 55.6876 125.25V126.029C55.5235 126.076 55.3985 126.105 55.3126 126.117C55.2266 126.129 55.1095 126.135 54.961 126.135C54.5977 126.135 54.3341 126.006 54.17 125.748C54.0841 125.611 54.0235 125.418 53.9884 125.168C53.7735 125.449 53.4649 125.693 53.0626 125.9C52.6602 126.107 52.2169 126.211 51.7325 126.211C51.1505 126.211 50.6739 126.035 50.3028 125.684C49.9356 125.328 49.752 124.885 49.752 124.354C49.752 123.771 49.9337 123.32 50.297 123C50.6602 122.68 51.1368 122.482 51.7266 122.408L53.4083 122.197ZM57.8956 117.973H58.962V119.725H59.964V120.586H58.962V124.682C58.962 124.9 59.0362 125.047 59.1847 125.121C59.2667 125.164 59.4034 125.186 59.5948 125.186C59.6456 125.186 59.7003 125.186 59.7589 125.186C59.8175 125.182 59.8859 125.176 59.964 125.168V126C59.8429 126.035 59.7159 126.061 59.5831 126.076C59.4542 126.092 59.3136 126.1 59.1612 126.1C58.6691 126.1 58.3351 125.975 58.1593 125.725C57.9835 125.471 57.8956 125.143 57.8956 124.74V120.586H57.046V119.725H57.8956V117.973ZM66.2844 119.725H67.2863V120.615C67.5832 120.248 67.8977 119.984 68.2297 119.824C68.5617 119.664 68.9309 119.584 69.3371 119.584C70.2277 119.584 70.8293 119.895 71.1418 120.516C71.3137 120.855 71.3996 121.342 71.3996 121.975V126H70.3273V122.045C70.3273 121.662 70.2707 121.354 70.1574 121.119C69.9699 120.729 69.6301 120.533 69.1379 120.533C68.8879 120.533 68.6828 120.559 68.5227 120.609C68.2336 120.695 67.9797 120.867 67.7609 121.125C67.5852 121.332 67.4699 121.547 67.4152 121.77C67.3645 121.988 67.3391 122.303 67.3391 122.713V126H66.2844V119.725ZM76.5373 119.584C76.9827 119.584 77.4143 119.689 77.8323 119.9C78.2502 120.107 78.5686 120.377 78.7873 120.709C78.9983 121.025 79.1389 121.395 79.2092 121.816C79.2717 122.105 79.303 122.566 79.303 123.199H74.7034C74.7229 123.836 74.8733 124.348 75.1545 124.734C75.4358 125.117 75.8713 125.309 76.4612 125.309C77.012 125.309 77.4514 125.127 77.7795 124.764C77.967 124.553 78.0998 124.309 78.178 124.031H79.2151C79.1877 124.262 79.0959 124.52 78.9397 124.805C78.7873 125.086 78.6155 125.316 78.4241 125.496C78.1037 125.809 77.7073 126.02 77.2346 126.129C76.9807 126.191 76.6936 126.223 76.3733 126.223C75.592 126.223 74.9299 125.939 74.387 125.373C73.844 124.803 73.5725 124.006 73.5725 122.982C73.5725 121.975 73.8459 121.156 74.3928 120.527C74.9397 119.898 75.6545 119.584 76.5373 119.584ZM78.219 122.361C78.176 121.904 78.0764 121.539 77.9202 121.266C77.6311 120.758 77.1487 120.504 76.4729 120.504C75.9885 120.504 75.5823 120.68 75.2541 121.031C74.926 121.379 74.7522 121.822 74.7327 122.361H78.219ZM82.0501 119.725L83.2571 124.67L84.4817 119.725H85.6653L86.8958 124.641L88.179 119.725H89.2337L87.4114 126H86.3157L85.0384 121.143L83.802 126H82.7063L80.8958 119.725H82.0501ZM95.4955 119.725H96.5384V120.615C96.7884 120.307 97.015 120.082 97.2181 119.941C97.5658 119.703 97.9603 119.584 98.4017 119.584C98.9017 119.584 99.3041 119.707 99.6087 119.953C99.7806 120.094 99.9369 120.301 100.077 120.574C100.312 120.238 100.587 119.99 100.904 119.83C101.22 119.666 101.576 119.584 101.97 119.584C102.814 119.584 103.388 119.889 103.693 120.498C103.857 120.826 103.939 121.268 103.939 121.822V126H102.843V121.641C102.843 121.223 102.738 120.936 102.527 120.779C102.32 120.623 102.066 120.545 101.765 120.545C101.351 120.545 100.994 120.684 100.693 120.961C100.396 121.238 100.247 121.701 100.247 122.35V126H99.1752V121.904C99.1752 121.479 99.1244 121.168 99.0228 120.973C98.8627 120.68 98.5638 120.533 98.1263 120.533C97.7279 120.533 97.3646 120.688 97.0365 120.996C96.7123 121.305 96.5502 121.863 96.5502 122.672V126H95.4955V119.725ZM107.506 119.725V123.891C107.506 124.211 107.557 124.473 107.659 124.676C107.846 125.051 108.196 125.238 108.707 125.238C109.442 125.238 109.942 124.91 110.207 124.254C110.352 123.902 110.424 123.42 110.424 122.807V119.725H111.479V126H110.483L110.495 125.074C110.358 125.312 110.188 125.514 109.985 125.678C109.582 126.006 109.094 126.17 108.52 126.17C107.625 126.17 107.016 125.871 106.692 125.273C106.516 124.953 106.428 124.525 106.428 123.99V119.725H107.506ZM114.718 124.031C114.749 124.383 114.837 124.652 114.982 124.84C115.247 125.18 115.708 125.35 116.365 125.35C116.755 125.35 117.099 125.266 117.396 125.098C117.693 124.926 117.841 124.662 117.841 124.307C117.841 124.037 117.722 123.832 117.484 123.691C117.331 123.605 117.031 123.506 116.581 123.393L115.744 123.182C115.208 123.049 114.814 122.9 114.56 122.736C114.107 122.451 113.88 122.057 113.88 121.553C113.88 120.959 114.093 120.479 114.519 120.111C114.949 119.744 115.525 119.561 116.247 119.561C117.193 119.561 117.874 119.838 118.292 120.393C118.554 120.744 118.681 121.123 118.673 121.529H117.677C117.658 121.291 117.574 121.074 117.425 120.879C117.183 120.602 116.763 120.463 116.165 120.463C115.767 120.463 115.464 120.539 115.257 120.691C115.054 120.844 114.953 121.045 114.953 121.295C114.953 121.568 115.087 121.787 115.357 121.951C115.513 122.049 115.744 122.135 116.048 122.209L116.746 122.379C117.503 122.562 118.011 122.74 118.269 122.912C118.679 123.182 118.884 123.605 118.884 124.184C118.884 124.742 118.671 125.225 118.246 125.631C117.824 126.037 117.179 126.24 116.312 126.24C115.378 126.24 114.716 126.029 114.326 125.607C113.939 125.182 113.732 124.656 113.705 124.031H114.718ZM121.051 119.754H122.124V126H121.051V119.754ZM121.051 117.393H122.124V118.588H121.051V117.393ZM127.103 119.543C127.81 119.543 128.384 119.715 128.826 120.059C129.271 120.402 129.539 120.994 129.628 121.834H128.603C128.541 121.447 128.398 121.127 128.175 120.873C127.953 120.615 127.595 120.486 127.103 120.486C126.431 120.486 125.951 120.814 125.662 121.471C125.474 121.896 125.38 122.422 125.38 123.047C125.38 123.676 125.513 124.205 125.779 124.635C126.044 125.064 126.462 125.279 127.033 125.279C127.47 125.279 127.816 125.146 128.07 124.881C128.328 124.611 128.505 124.244 128.603 123.779H129.628C129.511 124.611 129.218 125.221 128.75 125.607C128.281 125.99 127.681 126.182 126.951 126.182C126.13 126.182 125.476 125.883 124.988 125.285C124.5 124.684 124.255 123.934 124.255 123.035C124.255 121.934 124.523 121.076 125.058 120.463C125.593 119.85 126.275 119.543 127.103 119.543ZM136.154 117.973H137.22V119.725H138.222V120.586H137.22V124.682C137.22 124.9 137.295 125.047 137.443 125.121C137.525 125.164 137.662 125.186 137.853 125.186C137.904 125.186 137.959 125.186 138.017 125.186C138.076 125.182 138.144 125.176 138.222 125.168V126C138.101 126.035 137.974 126.061 137.841 126.076C137.713 126.092 137.572 126.1 137.42 126.1C136.927 126.1 136.593 125.975 136.418 125.725C136.242 125.471 136.154 125.143 136.154 124.74V120.586H135.304V119.725H136.154V117.973ZM142.733 125.32C143.432 125.32 143.911 125.057 144.169 124.529C144.43 123.998 144.561 123.408 144.561 122.76C144.561 122.174 144.467 121.697 144.28 121.33C143.983 120.752 143.471 120.463 142.745 120.463C142.1 120.463 141.631 120.709 141.339 121.201C141.046 121.693 140.899 122.287 140.899 122.982C140.899 123.65 141.046 124.207 141.339 124.652C141.631 125.098 142.096 125.32 142.733 125.32ZM142.774 119.543C143.583 119.543 144.266 119.812 144.825 120.352C145.383 120.891 145.663 121.684 145.663 122.73C145.663 123.742 145.417 124.578 144.924 125.238C144.432 125.898 143.669 126.229 142.633 126.229C141.77 126.229 141.085 125.938 140.577 125.355C140.069 124.77 139.815 123.984 139.815 123C139.815 121.945 140.083 121.105 140.618 120.48C141.153 119.855 141.872 119.543 142.774 119.543ZM154.831 125.291C155.323 125.291 155.731 125.086 156.055 124.676C156.384 124.262 156.548 123.645 156.548 122.824C156.548 122.324 156.475 121.895 156.331 121.535C156.057 120.844 155.557 120.498 154.831 120.498C154.1 120.498 153.6 120.863 153.331 121.594C153.186 121.984 153.114 122.48 153.114 123.082C153.114 123.566 153.186 123.979 153.331 124.318C153.604 124.967 154.104 125.291 154.831 125.291ZM152.1 119.754H153.126V120.586C153.337 120.301 153.567 120.08 153.817 119.924C154.173 119.689 154.591 119.572 155.071 119.572C155.782 119.572 156.385 119.846 156.882 120.393C157.378 120.936 157.626 121.713 157.626 122.725C157.626 124.092 157.268 125.068 156.553 125.654C156.1 126.025 155.573 126.211 154.971 126.211C154.499 126.211 154.102 126.107 153.782 125.9C153.594 125.783 153.385 125.582 153.155 125.297V128.502H152.1V119.754ZM159.851 117.393H160.906V126H159.851V117.393ZM164.262 124.33C164.262 124.635 164.374 124.875 164.596 125.051C164.819 125.227 165.083 125.314 165.387 125.314C165.759 125.314 166.118 125.229 166.466 125.057C167.052 124.771 167.345 124.305 167.345 123.656V122.807C167.216 122.889 167.05 122.957 166.846 123.012C166.643 123.066 166.444 123.105 166.249 123.129L165.61 123.211C165.227 123.262 164.94 123.342 164.749 123.451C164.425 123.635 164.262 123.928 164.262 124.33ZM166.817 122.197C167.059 122.166 167.221 122.064 167.304 121.893C167.35 121.799 167.374 121.664 167.374 121.488C167.374 121.129 167.245 120.869 166.987 120.709C166.733 120.545 166.368 120.463 165.891 120.463C165.341 120.463 164.95 120.611 164.72 120.908C164.591 121.072 164.507 121.316 164.468 121.641H163.483C163.503 120.867 163.753 120.33 164.233 120.029C164.718 119.725 165.278 119.572 165.915 119.572C166.653 119.572 167.253 119.713 167.714 119.994C168.171 120.275 168.399 120.713 168.399 121.307V124.922C168.399 125.031 168.421 125.119 168.464 125.186C168.511 125.252 168.606 125.285 168.751 125.285C168.798 125.285 168.85 125.283 168.909 125.279C168.968 125.271 169.03 125.262 169.096 125.25V126.029C168.932 126.076 168.807 126.105 168.721 126.117C168.636 126.129 168.518 126.135 168.37 126.135C168.007 126.135 167.743 126.006 167.579 125.748C167.493 125.611 167.432 125.418 167.397 125.168C167.182 125.449 166.874 125.693 166.471 125.9C166.069 126.107 165.626 126.211 165.141 126.211C164.559 126.211 164.083 126.035 163.712 125.684C163.345 125.328 163.161 124.885 163.161 124.354C163.161 123.771 163.343 123.32 163.706 123C164.069 122.68 164.546 122.482 165.136 122.408L166.817 122.197ZM175.014 119.725H176.18C176.031 120.127 175.701 121.045 175.189 122.479C174.806 123.557 174.486 124.436 174.228 125.115C173.619 126.717 173.189 127.693 172.939 128.045C172.689 128.396 172.26 128.572 171.65 128.572C171.502 128.572 171.387 128.566 171.305 128.555C171.226 128.543 171.129 128.521 171.012 128.49V127.529C171.195 127.58 171.328 127.611 171.41 127.623C171.492 127.635 171.564 127.641 171.627 127.641C171.822 127.641 171.965 127.607 172.055 127.541C172.148 127.479 172.226 127.4 172.289 127.307C172.308 127.275 172.379 127.115 172.5 126.826C172.621 126.537 172.709 126.322 172.764 126.182L170.443 119.725H171.639L173.32 124.834L175.014 119.725ZM177.415 124.723H178.64V126H177.415V124.723Z" fill="white"/>
<rect x="0.5" y="0.5" width="295" height="163" rx="3.5" stroke="#1B360A"/>
</svg>
