<svg width="225" height="182" viewBox="0 0 225 182" fill="none" xmlns="http://www.w3.org/2000/svg">
<path d="M224.537 18.4929C203.987 34.1288 189.245 49.0946 180.31 63.3903C171.822 77.2393 167.578 92.6518 167.578 109.628C173.385 106.054 180.086 104.267 187.681 104.267C197.956 104.267 206.221 107.841 212.475 114.989C219.176 121.69 222.527 130.401 222.527 141.123C222.527 153.185 218.283 163.013 209.795 170.608C201.753 178.203 190.808 182 176.959 182C145.241 182 129.381 161.003 129.381 119.01C129.381 107.841 130.722 97.566 133.402 88.1844C136.082 78.3562 140.326 68.9746 146.134 60.0398C152.388 50.6582 160.653 41.2767 170.928 31.8951C181.203 22.0668 193.935 11.5684 209.124 0.399902L224.537 18.4929ZM95.8757 18.4929C75.3257 34.1288 60.5832 49.0946 51.6484 63.3903C43.1603 77.2393 38.9163 92.6518 38.9163 109.628C44.7239 106.054 51.425 104.267 59.0196 104.267C69.2947 104.267 77.5594 107.841 83.8137 114.989C90.5148 121.69 93.8654 130.401 93.8654 141.123C93.8654 153.185 89.6214 163.013 81.1333 170.608C73.092 178.203 62.1468 182 48.2979 182C16.5793 182 0.719971 161.003 0.719971 119.01C0.719971 107.841 2.06019 97.566 4.74064 88.1844C7.42108 78.3562 11.6651 68.9746 17.4727 60.0398C23.7271 50.6582 31.9918 41.2767 42.2669 31.8951C52.5419 22.0668 65.274 11.5684 80.4632 0.399902L95.8757 18.4929Z" fill="#F87676"/>
</svg>
