<svg width="80" height="65" viewBox="0 0 80 65" fill="none" xmlns="http://www.w3.org/2000/svg">
<path d="M80 6.47602C72.6547 12.0726 67.3852 17.4293 64.1916 22.5461C61.1577 27.5031 59.6407 33.0197 59.6407 39.0959C61.7166 37.8167 64.1118 37.1771 66.8263 37.1771C70.499 37.1771 73.4531 38.4563 75.6886 41.0148C78.0838 43.4133 79.2814 46.5314 79.2814 50.369C79.2814 54.6863 77.7645 58.2042 74.7305 60.9225C71.8563 63.6408 67.9441 65 62.994 65C51.6567 65 45.988 57.4846 45.988 42.4539C45.988 38.4563 46.4671 34.7786 47.4252 31.4207C48.3832 27.9028 49.9002 24.5449 51.976 21.3469C54.2116 17.9889 57.1657 14.631 60.8383 11.2731C64.511 7.75522 69.0619 3.99754 74.491 0L80 6.47602ZM34.012 6.47602C26.6667 12.0726 21.3972 17.4293 18.2036 22.5461C15.1697 27.5031 13.6527 33.0197 13.6527 39.0959C15.7285 37.8167 18.1238 37.1771 20.8383 37.1771C24.511 37.1771 27.4651 38.4563 29.7006 41.0148C32.0958 43.4133 33.2934 46.5314 33.2934 50.369C33.2934 54.6863 31.7764 58.2042 28.7425 60.9225C25.8683 63.6408 21.9561 65 17.006 65C5.66866 65 0 57.4846 0 42.4539C0 38.4563 0.479042 34.7786 1.43713 31.4207C2.39521 27.9028 3.91218 24.5449 5.98802 21.3469C8.22355 17.9889 11.1776 14.631 14.8503 11.2731C18.523 7.75522 23.0739 3.99754 28.503 0L34.012 6.47602Z" fill="#1B360A"/>
</svg>
