<svg width="411" height="365" viewBox="0 0 411 365" fill="none" xmlns="http://www.w3.org/2000/svg">
<path d="M205.277 364.71C297.082 364.71 371.505 290.287 371.505 198.482C371.505 106.677 297.082 32.2537 205.277 32.2537C113.472 32.2537 39.0488 106.677 39.0488 198.482C39.0488 290.287 113.472 364.71 205.277 364.71Z" fill="#05022B"/>
<path d="M100.626 211.826C104.754 206.883 109.917 202.908 115.751 200.179C121.584 197.451 127.946 196.037 134.385 196.037C140.825 196.037 147.186 197.451 153.02 200.179C158.853 202.908 164.016 206.883 168.145 211.826C175.209 205.082 180.092 196.377 182.163 186.833C184.235 177.289 183.401 167.343 179.768 158.278C176.136 149.212 169.872 141.442 161.783 135.969C153.694 130.496 144.152 127.571 134.385 127.571C124.619 127.571 115.077 130.496 106.988 135.969C98.899 141.442 92.6347 149.212 89.0022 158.278C85.3697 167.343 84.5356 177.289 86.6073 186.833C88.679 196.377 93.5616 205.082 100.626 211.826V211.826Z" fill="white"/>
<path d="M232.631 211.826C236.759 206.883 241.922 202.908 247.756 200.179C253.589 197.451 259.95 196.037 266.39 196.037C272.83 196.037 279.191 197.451 285.025 200.179C290.858 202.908 296.021 206.883 300.15 211.826C307.214 205.082 312.096 196.377 314.168 186.833C316.24 177.289 315.406 167.343 311.773 158.278C308.141 149.212 301.876 141.442 293.788 135.969C285.699 130.496 276.156 127.571 266.39 127.571C256.624 127.571 247.081 130.496 238.993 135.969C230.904 141.442 224.64 149.212 221.007 158.278C217.375 167.343 216.54 177.289 218.612 186.833C220.684 196.377 225.567 205.082 232.631 211.826Z" fill="white"/>
<path d="M117.708 176.632C126.996 176.632 134.525 169.102 134.525 159.814C134.525 150.526 126.996 142.996 117.708 142.996C108.419 142.996 100.89 150.526 100.89 159.814C100.89 169.102 108.419 176.632 117.708 176.632Z" fill="#3F3D56"/>
<path d="M249.708 176.632C258.996 176.632 266.525 169.102 266.525 159.814C266.525 150.526 258.996 142.996 249.708 142.996C240.419 142.996 232.89 150.526 232.89 159.814C232.89 169.102 240.419 176.632 249.708 176.632Z" fill="#3F3D56"/>
<path d="M207.722 20.031C203.16 20.031 199.137 23.574 196.447 29.016C194.076 20.8328 189.094 15.142 183.276 15.142C182.881 15.1813 182.489 15.2472 182.102 15.3392C179.866 6.60223 174.669 0.474792 168.609 0.474792C160.509 0.474792 153.942 11.4194 153.942 24.9201C153.942 38.4209 160.509 49.3655 168.609 49.3655C169.004 49.3262 169.397 49.2603 169.783 49.1682C172.02 57.9052 177.217 64.0327 183.276 64.0327C187.837 64.0327 191.861 60.4897 194.551 55.0477C196.922 63.2308 201.904 68.9217 207.722 68.9217C215.822 68.9217 222.389 57.977 222.389 44.4763C222.389 30.9756 215.822 20.031 207.722 20.031Z" fill="#05022B"/>
<path d="M49.2505 261.475C42.8301 261.475 36.4725 260.21 30.5409 257.754C24.6092 255.297 19.2195 251.695 14.6796 247.155C10.1397 242.615 6.53843 237.226 4.08145 231.294C1.62447 225.362 0.359894 219.005 0.359894 212.584V188.139C0.359894 175.172 5.51083 162.737 14.6796 153.568C23.8484 144.399 36.2839 139.248 49.2505 139.248V139.248L49.2505 261.475Z" fill="#F87676"/>
<path d="M361.304 139.248C367.724 139.248 374.082 140.513 380.013 142.97C385.945 145.427 391.335 149.028 395.875 153.568C400.415 158.108 404.016 163.498 406.473 169.429C408.93 175.361 410.194 181.719 410.194 188.139V212.584C410.194 219.005 408.93 225.362 406.473 231.294C404.016 237.226 400.415 242.615 395.875 247.155C391.335 251.695 385.945 255.296 380.013 257.753C374.082 260.21 367.724 261.475 361.304 261.475V261.475V139.248H361.304Z" fill="#F87676"/>
<path d="M386.923 191.98H379.166C379.166 93.6031 299.13 13.5667 200.752 13.5667C102.375 13.5667 22.3382 93.6031 22.3382 191.98H14.5811C14.5811 89.3255 98.097 5.80963 200.752 5.80963C303.408 5.80963 386.923 89.3255 386.923 191.98Z" fill="#F87676"/>
<path d="M132 255C153.5 284.667 210.9 326.2 268.5 255" stroke="white" stroke-width="16" stroke-linecap="round"/>
</svg>
