<svg width="556" height="546" viewBox="0 0 556 546" fill="none" xmlns="http://www.w3.org/2000/svg">
<path d="M388.917 364.235C480.723 364.235 555.145 289.812 555.145 198.007C555.145 106.202 480.723 31.7789 388.917 31.7789C297.112 31.7789 222.689 106.202 222.689 198.007C222.689 289.812 297.112 364.235 388.917 364.235Z" fill="#05022B"/>
<circle cx="306" cy="204" r="48" fill="white"/>
<circle cx="438" cy="204" r="48" fill="white"/>
<path d="M289.348 240.157C298.636 240.157 306.166 232.627 306.166 223.339C306.166 214.051 298.636 206.521 289.348 206.521C280.059 206.521 272.53 214.051 272.53 223.339C272.53 232.627 280.059 240.157 289.348 240.157Z" fill="#3F3D56"/>
<path d="M421.348 240.157C430.636 240.157 438.166 232.627 438.166 223.339C438.166 214.051 430.636 206.521 421.348 206.521C412.059 206.521 404.53 214.051 404.53 223.339C404.53 232.627 412.059 240.157 421.348 240.157Z" fill="#3F3D56"/>
<path d="M391.362 19.5562C386.801 19.5562 382.777 23.0992 380.087 28.5412C377.716 20.358 372.734 14.6672 366.916 14.6672C366.521 14.7065 366.129 14.7724 365.742 14.8644C363.506 6.12744 358.309 0 352.249 0C344.149 0 337.582 10.9446 337.582 24.4453C337.582 37.9461 344.149 48.8907 352.249 48.8907C352.645 48.8514 353.037 48.7855 353.423 48.6934C355.66 57.4304 360.857 63.5579 366.916 63.5579C371.478 63.5579 375.501 60.0149 378.191 54.5729C380.562 62.756 385.544 68.4469 391.362 68.4469C399.462 68.4469 406.029 57.5023 406.029 44.0015C406.029 30.5008 399.462 19.5562 391.362 19.5562Z" fill="#05022B"/>
<circle cx="383.5" cy="303.5" r="16.5" fill="white"/>
<path d="M28 520V480L355 493.5V546L28 520Z" fill="#F87676"/>
<path d="M355 546L353 492.239L478 443V475.659L355 546Z" fill="#9F5656"/>
<path d="M161.09 441.119L25.9402 474.865C21.4823 475.978 22.1116 482.5 26.7 482.74L355.332 499.951C355.943 499.983 356.554 499.875 357.116 499.634L476.078 448.677C480.077 446.964 478.853 441 474.503 441H162.059C161.732 441 161.407 441.04 161.09 441.119Z" fill="#FDA3A3"/>
<ellipse cx="247" cy="447.5" rx="174" ry="32.5" fill="#05022B"/>
<ellipse cx="246.5" cy="448" rx="48.5" ry="7" fill="white"/>
</svg>
