<svg width="704" height="163" viewBox="0 0 704 163" fill="none" xmlns="http://www.w3.org/2000/svg">
<rect x="0.326715" y="0.326715" width="295.347" height="162.051" rx="2.287" fill="white"/>
<path d="M46.1372 38.7187C43.7374 40.5753 42.0158 42.3523 40.9724 44.0498C39.9811 45.6942 39.4855 47.5243 39.4855 49.54C40.1637 49.1157 40.9463 48.9035 41.8332 48.9035C43.0331 48.9035 43.9982 49.3279 44.7286 50.1766C45.5111 50.9723 45.9024 52.0067 45.9024 53.2798C45.9024 54.712 45.4068 55.879 44.4156 56.7808C43.4765 57.6826 42.1983 58.1335 40.5811 58.1335C36.877 58.1335 35.025 55.6403 35.025 50.654C35.025 49.3279 35.1815 48.1078 35.4945 46.9938C35.8075 45.8268 36.3031 44.7129 36.9813 43.6519C37.7117 42.538 38.6769 41.424 39.8768 40.3101C41.0767 39.143 42.5635 37.8965 44.3373 36.5703L46.1372 38.7187ZM31.1122 38.7187C28.7124 40.5753 26.9908 42.3523 25.9474 44.0498C24.9562 45.6942 24.4605 47.5243 24.4605 49.54C25.1387 49.1157 25.9213 48.9035 26.8082 48.9035C28.0081 48.9035 28.9732 49.3279 29.7036 50.1766C30.4862 50.9723 30.8774 52.0067 30.8774 53.2798C30.8774 54.712 30.3818 55.879 29.3906 56.7808C28.4515 57.6826 27.1734 58.1335 25.5561 58.1335C21.852 58.1335 20 55.6403 20 50.654C20 49.3279 20.1565 48.1078 20.4695 46.9938C20.7826 45.8268 21.2782 44.7129 21.9564 43.6519C22.6868 42.538 23.6519 41.424 24.8518 40.3101C26.0517 39.143 27.5386 37.8965 29.3124 36.5703L31.1122 38.7187Z" fill="#062510"/>
<path d="M23.0059 85.5261H24.1836L22.3555 94.1335H21.1777L23.0059 85.5261ZM31.7579 87.8582L30.8731 92.0242C30.8067 92.3445 30.8028 92.6062 30.8614 92.8093C30.9669 93.1843 31.2755 93.3718 31.7872 93.3718C32.5216 93.3718 33.0919 93.0437 33.4981 92.3875C33.7169 92.0359 33.8907 91.5535 34.0196 90.9402L34.6759 87.8582H35.7305L34.4005 94.1335H33.4044L33.6095 93.2078C33.422 93.446 33.2091 93.6472 32.9708 93.8113C32.4981 94.1394 31.9747 94.3035 31.4005 94.3035C30.5059 94.3035 29.961 94.0046 29.7657 93.407C29.6563 93.0867 29.6583 92.6589 29.7716 92.1238L30.6798 87.8582H31.7579ZM38.0558 92.1648C38.0128 92.5164 38.0441 92.7859 38.1495 92.9734C38.3409 93.3132 38.7648 93.4832 39.421 93.4832C39.8116 93.4832 40.173 93.3992 40.505 93.2312C40.8409 93.0593 41.046 92.7957 41.1202 92.4402C41.1788 92.1707 41.1027 91.9656 40.8917 91.825C40.7589 91.739 40.4796 91.6394 40.0538 91.5261L39.2628 91.3152C38.755 91.1824 38.3917 91.0339 38.173 90.8699C37.7784 90.5847 37.6359 90.1902 37.7452 89.6863C37.8702 89.0925 38.1847 88.6121 38.6886 88.2449C39.1964 87.8777 39.8116 87.6941 40.5343 87.6941C41.4796 87.6941 42.1027 87.9714 42.4034 88.5261C42.5909 88.8777 42.6378 89.2566 42.5441 89.6628H41.548C41.5792 89.4246 41.5402 89.2078 41.4308 89.0125C41.2472 88.7351 40.8566 88.5964 40.2589 88.5964C39.8605 88.5964 39.5421 88.6726 39.3038 88.825C39.0695 88.9773 38.9249 89.1785 38.8702 89.4285C38.8116 89.7019 38.8995 89.9207 39.1339 90.0847C39.2706 90.1824 39.4835 90.2683 39.7726 90.3425L40.4347 90.5125C41.1534 90.696 41.6241 90.8738 41.8468 91.0457C42.1984 91.3152 42.3116 91.739 42.1866 92.3171C42.0695 92.8757 41.755 93.3582 41.2433 93.7644C40.7355 94.1707 40.048 94.3738 39.1808 94.3738C38.2472 94.3738 37.63 94.1628 37.3292 93.741C37.0323 93.3152 36.9366 92.7898 37.0421 92.1648H38.0558ZM46.3576 87.8582L45.4728 92.0242C45.4064 92.3445 45.4025 92.6062 45.4611 92.8093C45.5666 93.1843 45.8752 93.3718 46.3869 93.3718C47.1213 93.3718 47.6916 93.0437 48.0978 92.3875C48.3166 92.0359 48.4904 91.5535 48.6193 90.9402L49.2755 87.8582H50.3302L49.0002 94.1335H48.0041L48.2091 93.2078C48.0216 93.446 47.8088 93.6472 47.5705 93.8113C47.0978 94.1394 46.5744 94.3035 46.0002 94.3035C45.1056 94.3035 44.5607 94.0046 44.3654 93.407C44.256 93.0867 44.258 92.6589 44.3713 92.1238L45.2795 87.8582H46.3576ZM53.6867 93.448C54.0578 93.448 54.4367 93.3621 54.8234 93.1902C55.468 92.905 55.8605 92.4382 56.0012 91.7898L56.177 90.9402C56.0324 91.0222 55.8527 91.0906 55.6379 91.1453C55.423 91.2 55.216 91.239 55.0168 91.2625L54.3605 91.3445C53.966 91.3953 53.6613 91.4753 53.4465 91.5847C53.0832 91.7683 52.8586 92.0613 52.7727 92.4636C52.7062 92.7683 52.7648 93.0085 52.9484 93.1843C53.1359 93.3601 53.382 93.448 53.6867 93.448ZM55.7785 90.3308C56.0285 90.2996 56.2141 90.198 56.3352 90.0261C56.4016 89.9324 56.4523 89.7976 56.4875 89.6218C56.5656 89.2625 56.4934 89.0027 56.2707 88.8425C56.048 88.6785 55.6984 88.5964 55.2219 88.5964C54.6711 88.5964 54.2492 88.7449 53.9562 89.0417C53.7922 89.2058 53.6574 89.45 53.552 89.7742H52.5676C52.7512 89.0007 53.1164 88.4636 53.6633 88.1628C54.2102 87.8582 54.802 87.7058 55.4387 87.7058C56.177 87.7058 56.7453 87.8464 57.1437 88.1277C57.5422 88.4089 57.6789 88.8464 57.5539 89.4402L56.7863 93.0554C56.7629 93.1648 56.7648 93.2527 56.7922 93.3191C56.8234 93.3855 56.9113 93.4187 57.0559 93.4187C57.1027 93.4187 57.1555 93.4167 57.2141 93.4128C57.2766 93.405 57.343 93.3953 57.4133 93.3835L57.2434 94.1628C57.0715 94.2097 56.9406 94.239 56.8508 94.2507C56.7648 94.2625 56.6477 94.2683 56.4992 94.2683C56.1359 94.2683 55.8996 94.1394 55.7902 93.8816C55.7316 93.7449 55.7121 93.5515 55.7316 93.3015C55.4543 93.5828 55.093 93.8269 54.6477 94.0339C54.2023 94.241 53.7375 94.3445 53.2531 94.3445C52.6711 94.3445 52.2316 94.1687 51.9348 93.8171C51.6418 93.4617 51.552 93.0183 51.6652 92.4871C51.7902 91.905 52.0676 91.4539 52.4973 91.1335C52.9309 90.8132 53.4504 90.616 54.0559 90.5417L55.7785 90.3308ZM61.1096 85.5261H62.1643L60.3362 94.1335H59.2815L61.1096 85.5261ZM64.7415 85.5261H65.7962L63.968 94.1335H62.9134L64.7415 85.5261ZM71.7659 87.8582H72.932C72.6976 88.2605 72.1722 89.1785 71.3558 90.6121C70.7464 91.6902 70.2405 92.5691 69.8382 93.2488C68.8851 94.8503 68.2464 95.8269 67.9222 96.1785C67.598 96.53 67.1312 96.7058 66.5218 96.7058C66.3734 96.7058 66.2601 96.7 66.182 96.6882C66.1038 96.6765 66.0101 96.655 65.9007 96.6238L66.1058 95.6628C66.2777 95.7136 66.4027 95.7449 66.4808 95.7566C66.5628 95.7683 66.6351 95.7742 66.6976 95.7742C66.8929 95.7742 67.0433 95.741 67.1488 95.6746C67.2542 95.6121 67.348 95.5339 67.43 95.4402C67.4573 95.4089 67.5609 95.2488 67.7405 94.9597C67.9241 94.6707 68.0589 94.4558 68.1448 94.3152L67.1956 87.8582H68.3909L68.9886 92.9675L71.7659 87.8582ZM80.0082 85.9421C80.3285 85.5828 80.8402 85.4031 81.5434 85.4031C81.6098 85.4031 81.6781 85.405 81.7484 85.4089C81.8187 85.4128 81.8969 85.4187 81.9828 85.4265L81.7777 86.3875C81.6723 86.3796 81.5941 86.3757 81.5434 86.3757C81.4965 86.3718 81.4516 86.3699 81.4086 86.3699C81.0883 86.3699 80.8793 86.4539 80.7816 86.6218C80.684 86.7859 80.5629 87.2078 80.4184 87.8875H81.4613L81.2855 88.7195H80.2309L79.0824 94.1335H78.0395L79.1879 88.7195H78.3148L78.4906 87.8875H79.3637L79.5746 86.9031C79.684 86.4656 79.8285 86.1453 80.0082 85.9421ZM84.1498 93.448C84.5209 93.448 84.8998 93.3621 85.2866 93.1902C85.9311 92.905 86.3237 92.4382 86.4643 91.7898L86.6401 90.9402C86.4955 91.0222 86.3159 91.0906 86.101 91.1453C85.8862 91.2 85.6791 91.239 85.4799 91.2625L84.8237 91.3445C84.4291 91.3953 84.1245 91.4753 83.9096 91.5847C83.5463 91.7683 83.3217 92.0613 83.2358 92.4636C83.1694 92.7683 83.228 93.0085 83.4116 93.1843C83.5991 93.3601 83.8452 93.448 84.1498 93.448ZM86.2416 90.3308C86.4916 90.2996 86.6772 90.198 86.7983 90.0261C86.8647 89.9324 86.9155 89.7976 86.9506 89.6218C87.0288 89.2625 86.9565 89.0027 86.7338 88.8425C86.5112 88.6785 86.1616 88.5964 85.685 88.5964C85.1342 88.5964 84.7123 88.7449 84.4194 89.0417C84.2553 89.2058 84.1205 89.45 84.0151 89.7742H83.0307C83.2143 89.0007 83.5795 88.4636 84.1264 88.1628C84.6733 87.8582 85.2651 87.7058 85.9018 87.7058C86.6401 87.7058 87.2084 87.8464 87.6069 88.1277C88.0053 88.4089 88.142 88.8464 88.017 89.4402L87.2495 93.0554C87.226 93.1648 87.228 93.2527 87.2553 93.3191C87.2866 93.3855 87.3745 93.4187 87.519 93.4187C87.5659 93.4187 87.6186 93.4167 87.6772 93.4128C87.7397 93.405 87.8061 93.3953 87.8764 93.3835L87.7065 94.1628C87.5346 94.2097 87.4038 94.239 87.3139 94.2507C87.228 94.2625 87.1108 94.2683 86.9623 94.2683C86.5991 94.2683 86.3627 94.1394 86.2534 93.8816C86.1948 93.7449 86.1752 93.5515 86.1948 93.3015C85.9174 93.5828 85.5561 93.8269 85.1108 94.0339C84.6655 94.241 84.2006 94.3445 83.7163 94.3445C83.1342 94.3445 82.6948 94.1687 82.3979 93.8171C82.1049 93.4617 82.0151 93.0183 82.1284 92.4871C82.2534 91.905 82.5307 91.4539 82.9604 91.1335C83.394 90.8132 83.9135 90.616 84.519 90.5417L86.2416 90.3308ZM91.5727 85.5261H92.6274L90.7993 94.1335H89.7446L91.5727 85.5261ZM95.2046 85.5261H96.2593L94.4312 94.1335H93.3765L95.2046 85.5261ZM103.031 85.4968H104.056L103.394 88.6199C103.687 88.3191 104.009 88.0906 104.361 87.9343C104.716 87.7742 105.082 87.6941 105.457 87.6941C106.238 87.6941 106.814 87.9636 107.185 88.5027C107.56 89.0378 107.636 89.8289 107.414 90.8757C107.203 91.8679 106.787 92.6921 106.166 93.3484C105.545 94.0046 104.808 94.3328 103.957 94.3328C103.48 94.3328 103.103 94.2175 102.826 93.9871C102.658 93.8503 102.496 93.6316 102.339 93.3308L102.17 94.1335H101.197L103.031 85.4968ZM106.324 90.9285C106.464 90.2683 106.439 89.7214 106.248 89.2878C106.056 88.8542 105.685 88.6375 105.134 88.6375C104.654 88.6375 104.195 88.8152 103.757 89.1707C103.32 89.5261 103.015 90.1121 102.843 90.9285C102.718 91.5183 102.691 91.9968 102.761 92.364C102.89 93.0554 103.334 93.4011 104.091 93.4011C104.662 93.4011 105.136 93.1746 105.515 92.7214C105.894 92.2683 106.164 91.6707 106.324 90.9285ZM110.993 93.448C111.364 93.448 111.743 93.3621 112.13 93.1902C112.774 92.905 113.167 92.4382 113.307 91.7898L113.483 90.9402C113.339 91.0222 113.159 91.0906 112.944 91.1453C112.729 91.2 112.522 91.239 112.323 91.2625L111.667 91.3445C111.272 91.3953 110.967 91.4753 110.753 91.5847C110.389 91.7683 110.165 92.0613 110.079 92.4636C110.012 92.7683 110.071 93.0085 110.255 93.1843C110.442 93.3601 110.688 93.448 110.993 93.448ZM113.085 90.3308C113.335 90.2996 113.52 90.198 113.641 90.0261C113.708 89.9324 113.758 89.7976 113.794 89.6218C113.872 89.2625 113.799 89.0027 113.577 88.8425C113.354 88.6785 113.005 88.5964 112.528 88.5964C111.977 88.5964 111.555 88.7449 111.262 89.0417C111.098 89.2058 110.964 89.45 110.858 89.7742H109.874C110.057 89.0007 110.423 88.4636 110.969 88.1628C111.516 87.8582 112.108 87.7058 112.745 87.7058C113.483 87.7058 114.051 87.8464 114.45 88.1277C114.848 88.4089 114.985 88.8464 114.86 89.4402L114.092 93.0554C114.069 93.1648 114.071 93.2527 114.098 93.3191C114.13 93.3855 114.217 93.4187 114.362 93.4187C114.409 93.4187 114.462 93.4167 114.52 93.4128C114.583 93.405 114.649 93.3953 114.719 93.3835L114.549 94.1628C114.378 94.2097 114.247 94.239 114.157 94.2507C114.071 94.2625 113.954 94.2683 113.805 94.2683C113.442 94.2683 113.206 94.1394 113.096 93.8816C113.038 93.7449 113.018 93.5515 113.038 93.3015C112.76 93.5828 112.399 93.8269 111.954 94.0339C111.508 94.241 111.044 94.3445 110.559 94.3445C109.977 94.3445 109.538 94.1687 109.241 93.8171C108.948 93.4617 108.858 93.0183 108.971 92.4871C109.096 91.905 109.374 91.4539 109.803 91.1335C110.237 90.8132 110.756 90.616 111.362 90.5417L113.085 90.3308ZM122.388 89.9675H121.363C121.382 89.5808 121.308 89.2605 121.14 89.0066C120.972 88.7488 120.642 88.6199 120.15 88.6199C119.478 88.6199 118.927 88.948 118.498 89.6042C118.22 90.03 118.015 90.5554 117.882 91.1804C117.746 91.8093 117.765 92.3386 117.941 92.7683C118.117 93.198 118.49 93.4128 119.06 93.4128C119.498 93.4128 119.873 93.28 120.185 93.0144C120.498 92.7449 120.752 92.3777 120.947 91.9128H121.972C121.679 92.7449 121.257 93.3542 120.707 93.741C120.156 94.1238 119.515 94.3152 118.785 94.3152C117.965 94.3152 117.373 94.0164 117.009 93.4187C116.65 92.8171 116.566 92.0671 116.757 91.1687C116.992 90.0671 117.441 89.2097 118.105 88.5964C118.773 87.9832 119.521 87.6765 120.349 87.6765C121.056 87.6765 121.593 87.8484 121.961 88.1921C122.332 88.5359 122.474 89.1277 122.388 89.9675ZM125.323 85.5261H126.337L125.27 90.5242L128.546 87.8582H129.893L126.993 90.2078L128.698 94.1335H127.35L126.061 90.9695L125.007 91.7781L124.509 94.1335H123.495L125.323 85.5261ZM139.782 90.8933C139.907 90.3074 139.915 89.8308 139.805 89.4636C139.63 88.8855 139.179 88.5964 138.452 88.5964C137.807 88.5964 137.286 88.8425 136.887 89.3347C136.493 89.8269 136.221 90.4207 136.073 91.116C135.932 91.7839 135.96 92.3406 136.155 92.7859C136.354 93.2312 136.772 93.4539 137.409 93.4539C138.108 93.4539 138.643 93.1902 139.014 92.6628C139.389 92.1316 139.645 91.5417 139.782 90.8933ZM140.889 90.864C140.675 91.8757 140.251 92.7117 139.618 93.3718C138.985 94.032 138.151 94.3621 137.116 94.3621C136.253 94.3621 135.63 94.071 135.247 93.489C134.864 92.9031 134.776 92.1179 134.983 91.1335C135.21 90.0789 135.657 89.239 136.325 88.614C136.993 87.989 137.778 87.6765 138.68 87.6765C139.489 87.6765 140.114 87.946 140.555 88.4851C141.001 89.0242 141.112 89.8171 140.889 90.864ZM143.748 87.8582H144.75L144.562 88.7488C144.937 88.3816 145.306 88.1179 145.67 87.9578C146.037 87.7976 146.424 87.7175 146.83 87.7175C147.721 87.7175 148.256 88.0281 148.435 88.6492C148.537 88.989 148.521 89.4753 148.389 90.1082L147.533 94.1335H146.461L147.299 90.1785C147.381 89.7957 147.39 89.4871 147.328 89.2527C147.222 88.8621 146.924 88.6667 146.431 88.6667C146.181 88.6667 145.971 88.6921 145.799 88.7429C145.49 88.8289 145.199 89.0007 144.926 89.2585C144.707 89.4656 144.547 89.6804 144.445 89.9031C144.347 90.1218 144.256 90.4363 144.17 90.8464L143.472 94.1335H142.418L143.748 87.8582ZM155.687 87.8582H156.73L156.543 88.7488C156.859 88.4402 157.133 88.2156 157.363 88.075C157.762 87.8367 158.182 87.7175 158.623 87.7175C159.123 87.7175 159.5 87.8406 159.754 88.0867C159.894 88.2273 160.006 88.4343 160.088 88.7078C160.396 88.3718 160.725 88.1238 161.072 87.9636C161.424 87.7996 161.797 87.7175 162.191 87.7175C163.035 87.7175 163.545 88.0222 163.721 88.6316C163.814 88.9597 163.803 89.4011 163.685 89.9558L162.801 94.1335H161.705L162.631 89.7742C162.717 89.3562 162.672 89.0691 162.496 88.9128C162.32 88.7566 162.082 88.6785 161.781 88.6785C161.367 88.6785 160.98 88.8171 160.621 89.0945C160.266 89.3718 160.019 89.8347 159.883 90.4832L159.109 94.1335H158.037L158.904 90.0378C158.994 89.6121 159.01 89.3015 158.951 89.1062C158.853 88.8132 158.586 88.6667 158.148 88.6667C157.75 88.6667 157.353 88.821 156.959 89.1296C156.568 89.4382 156.287 89.9968 156.115 90.8054L155.412 94.1335H154.357L155.687 87.8582ZM167.698 87.8582L166.813 92.0242C166.747 92.3445 166.743 92.6062 166.802 92.8093C166.907 93.1843 167.216 93.3718 167.727 93.3718C168.462 93.3718 169.032 93.0437 169.438 92.3875C169.657 92.0359 169.831 91.5535 169.96 90.9402L170.616 87.8582H171.671L170.341 94.1335H169.345L169.55 93.2078C169.362 93.446 169.149 93.6472 168.911 93.8113C168.438 94.1394 167.915 94.3035 167.341 94.3035C166.446 94.3035 165.901 94.0046 165.706 93.407C165.597 93.0867 165.599 92.6589 165.712 92.1238L166.62 87.8582H167.698ZM173.996 92.1648C173.953 92.5164 173.984 92.7859 174.09 92.9734C174.281 93.3132 174.705 93.4832 175.361 93.4832C175.752 93.4832 176.113 93.3992 176.445 93.2312C176.781 93.0593 176.986 92.7957 177.061 92.4402C177.119 92.1707 177.043 91.9656 176.832 91.825C176.699 91.739 176.42 91.6394 175.994 91.5261L175.203 91.3152C174.695 91.1824 174.332 91.0339 174.113 90.8699C173.719 90.5847 173.576 90.1902 173.686 89.6863C173.811 89.0925 174.125 88.6121 174.629 88.2449C175.137 87.8777 175.752 87.6941 176.475 87.6941C177.42 87.6941 178.043 87.9714 178.344 88.5261C178.531 88.8777 178.578 89.2566 178.484 89.6628H177.488C177.52 89.4246 177.48 89.2078 177.371 89.0125C177.188 88.7351 176.797 88.5964 176.199 88.5964C175.801 88.5964 175.482 88.6726 175.244 88.825C175.01 88.9773 174.865 89.1785 174.811 89.4285C174.752 89.7019 174.84 89.9207 175.074 90.0847C175.211 90.1824 175.424 90.2683 175.713 90.3425L176.375 90.5125C177.094 90.696 177.564 90.8738 177.787 91.0457C178.139 91.3152 178.252 91.739 178.127 92.3171C178.01 92.8757 177.695 93.3582 177.184 93.7644C176.676 94.1707 175.988 94.3738 175.121 94.3738C174.188 94.3738 173.57 94.1628 173.27 93.741C172.973 93.3152 172.877 92.7898 172.982 92.1648H173.996ZM181.237 87.8875H182.31L180.985 94.1335H179.913L181.237 87.8875ZM181.741 85.5261H182.814L182.556 86.7214H181.483L181.741 85.5261ZM189.375 89.9675H188.35C188.369 89.5808 188.295 89.2605 188.127 89.0066C187.959 88.7488 187.629 88.6199 187.137 88.6199C186.465 88.6199 185.914 88.948 185.484 89.6042C185.207 90.03 185.002 90.5554 184.869 91.1804C184.732 91.8093 184.752 92.3386 184.928 92.7683C185.104 93.198 185.477 93.4128 186.047 93.4128C186.484 93.4128 186.859 93.28 187.172 93.0144C187.484 92.7449 187.738 92.3777 187.934 91.9128H188.959C188.666 92.7449 188.244 93.3542 187.693 93.741C187.143 94.1238 186.502 94.3152 185.772 94.3152C184.951 94.3152 184.359 94.0164 183.996 93.4187C183.637 92.8171 183.553 92.0671 183.744 91.1687C183.979 90.0671 184.428 89.2097 185.092 88.5964C185.76 87.9832 186.508 87.6765 187.336 87.6765C188.043 87.6765 188.58 87.8484 188.947 88.1921C189.318 88.5359 189.461 89.1277 189.375 89.9675ZM197.037 85.5261H198.215L196.387 94.1335H195.209L197.037 85.5261ZM205.239 85.4968H206.293L205.608 88.7078C205.928 88.3914 206.201 88.1687 206.428 88.0398C206.815 87.8171 207.262 87.7058 207.77 87.7058C208.68 87.7058 209.229 88.0242 209.416 88.6609C209.518 89.0085 209.504 89.491 209.375 90.1082L208.52 94.1335H207.436L208.274 90.1785C208.371 89.7175 208.385 89.3796 208.315 89.1648C208.194 88.821 207.869 88.6492 207.342 88.6492C206.905 88.6492 206.477 88.7996 206.059 89.1003C205.641 89.4011 205.342 89.9695 205.162 90.8054L204.459 94.1335H203.405L205.239 85.4968ZM213.118 93.448C213.49 93.448 213.868 93.3621 214.255 93.1902C214.9 92.905 215.292 92.4382 215.433 91.7898L215.609 90.9402C215.464 91.0222 215.284 91.0906 215.07 91.1453C214.855 91.2 214.648 91.239 214.449 91.2625L213.792 91.3445C213.398 91.3953 213.093 91.4753 212.878 91.5847C212.515 91.7683 212.29 92.0613 212.204 92.4636C212.138 92.7683 212.197 93.0085 212.38 93.1843C212.568 93.3601 212.814 93.448 213.118 93.448ZM215.21 90.3308C215.46 90.2996 215.646 90.198 215.767 90.0261C215.833 89.9324 215.884 89.7976 215.919 89.6218C215.997 89.2625 215.925 89.0027 215.702 88.8425C215.48 88.6785 215.13 88.5964 214.654 88.5964C214.103 88.5964 213.681 88.7449 213.388 89.0417C213.224 89.2058 213.089 89.45 212.984 89.7742H211.999C212.183 89.0007 212.548 88.4636 213.095 88.1628C213.642 87.8582 214.234 87.7058 214.87 87.7058C215.609 87.7058 216.177 87.8464 216.575 88.1277C216.974 88.4089 217.111 88.8464 216.986 89.4402L216.218 93.0554C216.195 93.1648 216.197 93.2527 216.224 93.3191C216.255 93.3855 216.343 93.4187 216.488 93.4187C216.534 93.4187 216.587 93.4167 216.646 93.4128C216.708 93.405 216.775 93.3953 216.845 93.3835L216.675 94.1628C216.503 94.2097 216.372 94.239 216.283 94.2507C216.197 94.2625 216.079 94.2683 215.931 94.2683C215.568 94.2683 215.331 94.1394 215.222 93.8816C215.163 93.7449 215.144 93.5515 215.163 93.3015C214.886 93.5828 214.525 93.8269 214.079 94.0339C213.634 94.241 213.169 94.3445 212.685 94.3445C212.103 94.3445 211.663 94.1687 211.366 93.8171C211.074 93.4617 210.984 93.0183 211.097 92.4871C211.222 91.905 211.499 91.4539 211.929 91.1335C212.363 90.8132 212.882 90.616 213.488 90.5417L215.21 90.3308ZM220.53 87.8582L221.121 92.9675L223.957 87.8582H225.112L221.414 94.1335H220.289L219.305 87.8582H220.53ZM231.626 88.8425C231.771 89.1589 231.833 89.5281 231.814 89.95C231.818 90.239 231.751 90.7 231.615 91.3328H227.015C226.898 91.9695 226.939 92.4812 227.138 92.8679C227.341 93.2507 227.738 93.4421 228.327 93.4421C228.878 93.4421 229.355 93.2605 229.757 92.8972C229.992 92.6863 230.177 92.4421 230.314 92.1648H231.351C231.273 92.3953 231.126 92.6531 230.911 92.9382C230.701 93.2195 230.48 93.45 230.249 93.6296C229.863 93.9421 229.421 94.1531 228.925 94.2625C228.656 94.325 228.361 94.3562 228.04 94.3562C227.259 94.3562 226.658 94.073 226.236 93.5066C225.814 92.9363 225.712 92.1394 225.931 91.116C226.146 90.1082 226.593 89.2898 227.273 88.6609C227.952 88.032 228.734 87.7175 229.617 87.7175C230.062 87.7175 230.472 87.823 230.847 88.0339C231.222 88.241 231.482 88.5105 231.626 88.8425ZM230.706 90.4949C230.761 90.0378 230.74 89.6726 230.642 89.3992C230.462 88.8914 230.035 88.6375 229.359 88.6375C228.874 88.6375 228.431 88.8132 228.029 89.1648C227.626 89.5125 227.357 89.9558 227.22 90.4949H230.706ZM22.8477 117.448C23.2188 117.448 23.5977 117.362 23.9844 117.19C24.6289 116.905 25.0215 116.438 25.1621 115.79L25.3379 114.94C25.1934 115.022 25.0137 115.091 24.7988 115.145C24.584 115.2 24.377 115.239 24.1777 115.262L23.5215 115.344C23.127 115.395 22.8223 115.475 22.6074 115.585C22.2441 115.768 22.0195 116.061 21.9336 116.464C21.8672 116.768 21.9258 117.009 22.1094 117.184C22.2969 117.36 22.543 117.448 22.8477 117.448ZM24.9395 114.331C25.1895 114.3 25.375 114.198 25.4961 114.026C25.5625 113.932 25.6133 113.798 25.6484 113.622C25.7266 113.262 25.6543 113.003 25.4316 112.843C25.209 112.678 24.8594 112.596 24.3828 112.596C23.832 112.596 23.4102 112.745 23.1172 113.042C22.9531 113.206 22.8184 113.45 22.7129 113.774H21.7285C21.9121 113.001 22.2773 112.464 22.8242 112.163C23.3711 111.858 23.9629 111.706 24.5996 111.706C25.3379 111.706 25.9062 111.846 26.3047 112.128C26.7031 112.409 26.8398 112.846 26.7148 113.44L25.9473 117.055C25.9238 117.165 25.9258 117.253 25.9531 117.319C25.9844 117.385 26.0723 117.419 26.2168 117.419C26.2637 117.419 26.3164 117.417 26.375 117.413C26.4375 117.405 26.5039 117.395 26.5742 117.384L26.4043 118.163C26.2324 118.21 26.1016 118.239 26.0117 118.251C25.9258 118.262 25.8086 118.268 25.6602 118.268C25.2969 118.268 25.0605 118.139 24.9512 117.882C24.8926 117.745 24.873 117.552 24.8926 117.302C24.6152 117.583 24.2539 117.827 23.8086 118.034C23.3633 118.241 22.8984 118.344 22.4141 118.344C21.832 118.344 21.3926 118.169 21.0957 117.817C20.8027 117.462 20.7129 117.018 20.8262 116.487C20.9512 115.905 21.2285 115.454 21.6582 115.134C22.0918 114.813 22.6113 114.616 23.2168 114.542L24.9395 114.331ZM30.2705 109.526H31.3252L29.4971 118.134H28.4424L30.2705 109.526ZM33.4044 111.858H34.4063L34.1778 112.942C34.3028 112.731 34.5567 112.475 34.9395 112.175C35.3263 111.87 35.7286 111.718 36.1466 111.718C36.1661 111.718 36.1993 111.719 36.2462 111.723C36.293 111.727 36.3712 111.735 36.4805 111.747L36.2462 112.86C36.1837 112.848 36.127 112.841 36.0763 112.837C36.0255 112.833 35.9688 112.831 35.9063 112.831C35.3751 112.831 34.9298 113.003 34.5704 113.346C34.2149 113.686 33.9884 114.079 33.8907 114.524L33.129 118.134H32.0743L33.4044 111.858ZM42.9835 112.843C43.128 113.159 43.1905 113.528 43.171 113.95C43.1749 114.239 43.1085 114.7 42.9718 115.333H38.3722C38.255 115.969 38.296 116.481 38.4952 116.868C38.6984 117.251 39.0948 117.442 39.6847 117.442C40.2355 117.442 40.712 117.26 41.1144 116.897C41.3487 116.686 41.5343 116.442 41.671 116.165H42.7081C42.63 116.395 42.4835 116.653 42.2687 116.938C42.0577 117.219 41.837 117.45 41.6066 117.63C41.2198 117.942 40.7784 118.153 40.2823 118.262C40.0128 118.325 39.7179 118.356 39.3976 118.356C38.6163 118.356 38.0148 118.073 37.5929 117.507C37.171 116.936 37.0695 116.139 37.2882 115.116C37.503 114.108 37.9503 113.29 38.63 112.661C39.3097 112.032 40.0909 111.718 40.9737 111.718C41.4191 111.718 41.8292 111.823 42.2042 112.034C42.5792 112.241 42.839 112.51 42.9835 112.843ZM42.0636 114.495C42.1183 114.038 42.0968 113.673 41.9991 113.399C41.8195 112.891 41.3917 112.637 40.7159 112.637C40.2316 112.637 39.7882 112.813 39.3859 113.165C38.9835 113.512 38.714 113.956 38.5773 114.495H42.0636ZM46.715 117.448C47.0861 117.448 47.465 117.362 47.8517 117.19C48.4963 116.905 48.8888 116.438 49.0295 115.79L49.2052 114.94C49.0607 115.022 48.881 115.091 48.6662 115.145C48.4513 115.2 48.2443 115.239 48.0451 115.262L47.3888 115.344C46.9943 115.395 46.6896 115.475 46.4748 115.585C46.1115 115.768 45.8869 116.061 45.8009 116.464C45.7345 116.768 45.7931 117.009 45.9767 117.184C46.1642 117.36 46.4103 117.448 46.715 117.448ZM48.8068 114.331C49.0568 114.3 49.2423 114.198 49.3634 114.026C49.4298 113.932 49.4806 113.798 49.5158 113.622C49.5939 113.262 49.5216 113.003 49.299 112.843C49.0763 112.678 48.7267 112.596 48.2502 112.596C47.6994 112.596 47.2775 112.745 46.9845 113.042C46.8205 113.206 46.6857 113.45 46.5802 113.774H45.5959C45.7795 113.001 46.1447 112.464 46.6916 112.163C47.2384 111.858 47.8302 111.706 48.467 111.706C49.2052 111.706 49.7736 111.846 50.172 112.128C50.5705 112.409 50.7072 112.846 50.5822 113.44L49.8146 117.055C49.7912 117.165 49.7931 117.253 49.8205 117.319C49.8517 117.385 49.9396 117.419 50.0841 117.419C50.131 117.419 50.1838 117.417 50.2423 117.413C50.3048 117.405 50.3713 117.395 50.4416 117.384L50.2716 118.163C50.0998 118.21 49.9689 118.239 49.8791 118.251C49.7931 118.262 49.6759 118.268 49.5275 118.268C49.1642 118.268 48.9279 118.139 48.8185 117.882C48.7599 117.745 48.7404 117.552 48.7599 117.302C48.4826 117.583 48.1213 117.827 47.6759 118.034C47.2306 118.241 46.7658 118.344 46.2814 118.344C45.6994 118.344 45.2599 118.169 44.963 117.817C44.6701 117.462 44.5802 117.018 44.6935 116.487C44.8185 115.905 45.0959 115.454 45.5255 115.134C45.9591 114.813 46.4787 114.616 47.0841 114.542L48.8068 114.331ZM54.8937 117.436C55.382 117.436 55.8273 117.227 56.2297 116.809C56.632 116.387 56.9172 115.784 57.0852 114.999C57.2531 114.206 57.216 113.62 56.9738 113.241C56.7316 112.858 56.3723 112.667 55.8957 112.667C55.3645 112.667 54.8898 112.87 54.4719 113.276C54.0578 113.682 53.7668 114.28 53.5988 115.069C53.4543 115.741 53.4758 116.303 53.6633 116.757C53.8547 117.21 54.2648 117.436 54.8937 117.436ZM57.0324 112.052C57.1965 112.169 57.3664 112.374 57.5422 112.667L58.216 109.497H59.2297L57.3957 118.134H56.4465L56.6281 117.26C56.3 117.647 55.9484 117.927 55.5734 118.098C55.2023 118.27 54.8 118.356 54.3664 118.356C53.6672 118.356 53.1242 118.063 52.7375 117.477C52.3508 116.887 52.2629 116.104 52.4738 115.128C52.6652 114.214 53.0656 113.423 53.675 112.755C54.2844 112.083 55.0227 111.747 55.8898 111.747C56.3703 111.747 56.7512 111.848 57.0324 112.052ZM65.1702 111.858H66.3362C66.1018 112.26 65.5764 113.178 64.76 114.612C64.1506 115.69 63.6448 116.569 63.2424 117.249C62.2893 118.85 61.6506 119.827 61.3264 120.178C61.0022 120.53 60.5354 120.706 59.926 120.706C59.7776 120.706 59.6643 120.7 59.5862 120.688C59.508 120.677 59.4143 120.655 59.3049 120.624L59.51 119.663C59.6819 119.714 59.8069 119.745 59.885 119.757C59.967 119.768 60.0393 119.774 60.1018 119.774C60.2971 119.774 60.4475 119.741 60.553 119.675C60.6584 119.612 60.7522 119.534 60.8342 119.44C60.8616 119.409 60.9651 119.249 61.1448 118.96C61.3284 118.671 61.4631 118.456 61.5491 118.315L60.5998 111.858H61.7952L62.3928 116.968L65.1702 111.858ZM73.0374 109.526H74.0921L72.264 118.134H71.2093L73.0374 109.526ZM76.1361 111.887H77.2084L75.8841 118.134H74.8119L76.1361 111.887ZM76.64 109.526H77.7123L77.4545 110.721H76.3822L76.64 109.526ZM79.4867 116.165C79.4437 116.516 79.475 116.786 79.5805 116.973C79.7719 117.313 80.1957 117.483 80.852 117.483C81.2426 117.483 81.6039 117.399 81.9359 117.231C82.2719 117.059 82.477 116.796 82.5512 116.44C82.6098 116.171 82.5336 115.966 82.3227 115.825C82.1898 115.739 81.9105 115.639 81.4848 115.526L80.6937 115.315C80.1859 115.182 79.8227 115.034 79.6039 114.87C79.2094 114.585 79.0668 114.19 79.1762 113.686C79.3012 113.093 79.6156 112.612 80.1195 112.245C80.6273 111.878 81.2426 111.694 81.9652 111.694C82.9105 111.694 83.5336 111.971 83.8344 112.526C84.0219 112.878 84.0687 113.257 83.975 113.663H82.9789C83.0102 113.425 82.9711 113.208 82.8617 113.012C82.6781 112.735 82.2875 112.596 81.6898 112.596C81.2914 112.596 80.973 112.673 80.7348 112.825C80.5004 112.977 80.3559 113.178 80.3012 113.428C80.2426 113.702 80.3305 113.921 80.5648 114.085C80.7016 114.182 80.9145 114.268 81.2035 114.343L81.8656 114.512C82.5844 114.696 83.0551 114.874 83.2777 115.046C83.6293 115.315 83.7426 115.739 83.6176 116.317C83.5004 116.876 83.1859 117.358 82.6742 117.764C82.1664 118.171 81.4789 118.374 80.6117 118.374C79.6781 118.374 79.0609 118.163 78.7602 117.741C78.4633 117.315 78.3676 116.79 78.473 116.165H79.4867ZM87.3198 110.106H88.3862L88.0112 111.858H89.0131L88.8315 112.719H87.8295L86.9565 116.815C86.9096 117.034 86.9526 117.18 87.0854 117.255C87.1596 117.298 87.2924 117.319 87.4838 117.319C87.5346 117.319 87.5893 117.319 87.6479 117.319C87.7065 117.315 87.7768 117.309 87.8588 117.302L87.683 118.134C87.5541 118.169 87.4213 118.194 87.2846 118.21C87.1518 118.225 87.0092 118.233 86.8569 118.233C86.3647 118.233 86.0561 118.108 85.9311 117.858C85.81 117.604 85.7924 117.276 85.8784 116.874L86.7631 112.719H85.9135L86.0952 111.858H86.9448L87.3198 110.106ZM95.686 112.843C95.8305 113.159 95.893 113.528 95.8735 113.95C95.8774 114.239 95.811 114.7 95.6743 115.333H91.0747C90.9575 115.969 90.9985 116.481 91.1977 116.868C91.4009 117.251 91.7973 117.442 92.3872 117.442C92.938 117.442 93.4145 117.26 93.8169 116.897C94.0512 116.686 94.2368 116.442 94.3735 116.165H95.4106C95.3325 116.395 95.186 116.653 94.9712 116.938C94.7602 117.219 94.5395 117.45 94.3091 117.63C93.9223 117.942 93.4809 118.153 92.9848 118.262C92.7153 118.325 92.4204 118.356 92.1001 118.356C91.3188 118.356 90.7173 118.073 90.2954 117.507C89.8735 116.936 89.7719 116.139 89.9907 115.116C90.2055 114.108 90.6528 113.29 91.3325 112.661C92.0122 112.032 92.7934 111.718 93.6762 111.718C94.1216 111.718 94.5317 111.823 94.9067 112.034C95.2817 112.241 95.5415 112.51 95.686 112.843ZM94.7661 114.495C94.8208 114.038 94.7993 113.673 94.7016 113.399C94.5219 112.891 94.0942 112.637 93.4184 112.637C92.9341 112.637 92.4907 112.813 92.0884 113.165C91.686 113.512 91.4165 113.956 91.2798 114.495H94.7661ZM98.6734 111.858H99.6753L99.4878 112.749C99.8628 112.382 100.232 112.118 100.595 111.958C100.962 111.798 101.349 111.718 101.755 111.718C102.646 111.718 103.181 112.028 103.361 112.649C103.462 112.989 103.447 113.475 103.314 114.108L102.459 118.134H101.386L102.224 114.178C102.306 113.796 102.316 113.487 102.253 113.253C102.148 112.862 101.849 112.667 101.357 112.667C101.107 112.667 100.896 112.692 100.724 112.743C100.416 112.829 100.125 113.001 99.8511 113.259C99.6323 113.466 99.4722 113.68 99.3706 113.903C99.273 114.122 99.1812 114.436 99.0952 114.846L98.398 118.134H97.3433L98.6734 111.858ZM110.965 112.843C111.11 113.159 111.172 113.528 111.153 113.95C111.157 114.239 111.09 114.7 110.954 115.333H106.354C106.237 115.969 106.278 116.481 106.477 116.868C106.68 117.251 107.077 117.442 107.667 117.442C108.217 117.442 108.694 117.26 109.096 116.897C109.331 116.686 109.516 116.442 109.653 116.165H110.69C110.612 116.395 110.465 116.653 110.251 116.938C110.04 117.219 109.819 117.45 109.588 117.63C109.202 117.942 108.76 118.153 108.264 118.262C107.995 118.325 107.7 118.356 107.379 118.356C106.598 118.356 105.997 118.073 105.575 117.507C105.153 116.936 105.051 116.139 105.27 115.116C105.485 114.108 105.932 113.29 106.612 112.661C107.292 112.032 108.073 111.718 108.956 111.718C109.401 111.718 109.811 111.823 110.186 112.034C110.561 112.241 110.821 112.51 110.965 112.843ZM110.045 114.495C110.1 114.038 110.079 113.673 109.981 113.399C109.801 112.891 109.374 112.637 108.698 112.637C108.213 112.637 107.77 112.813 107.368 113.165C106.965 113.512 106.696 113.956 106.559 114.495H110.045ZM115.236 117.436C115.724 117.436 116.17 117.227 116.572 116.809C116.974 116.387 117.259 115.784 117.427 114.999C117.595 114.206 117.558 113.62 117.316 113.241C117.074 112.858 116.714 112.667 116.238 112.667C115.707 112.667 115.232 112.87 114.814 113.276C114.4 113.682 114.109 114.28 113.941 115.069C113.796 115.741 113.818 116.303 114.005 116.757C114.197 117.21 114.607 117.436 115.236 117.436ZM117.375 112.052C117.539 112.169 117.709 112.374 117.884 112.667L118.558 109.497H119.572L117.738 118.134H116.789L116.97 117.26C116.642 117.647 116.291 117.927 115.916 118.098C115.545 118.27 115.142 118.356 114.709 118.356C114.009 118.356 113.466 118.063 113.08 117.477C112.693 116.887 112.605 116.104 112.816 115.128C113.007 114.214 113.408 113.423 114.017 112.755C114.627 112.083 115.365 111.747 116.232 111.747C116.713 111.747 117.093 111.848 117.375 112.052ZM126.478 110.106H127.545L127.17 111.858H128.172L127.99 112.719H126.988L126.115 116.815C126.068 117.034 126.111 117.18 126.244 117.255C126.318 117.298 126.451 117.319 126.642 117.319C126.693 117.319 126.748 117.319 126.806 117.319C126.865 117.315 126.935 117.309 127.017 117.302L126.841 118.134C126.713 118.169 126.58 118.194 126.443 118.21C126.31 118.225 126.168 118.233 126.015 118.233C125.523 118.233 125.215 118.108 125.09 117.858C124.968 117.604 124.951 117.276 125.037 116.874L125.922 112.719H125.072L125.254 111.858H126.103L126.478 110.106ZM133.866 114.893C133.991 114.307 133.999 113.831 133.889 113.464C133.714 112.885 133.262 112.596 132.536 112.596C131.891 112.596 131.37 112.843 130.971 113.335C130.577 113.827 130.305 114.421 130.157 115.116C130.016 115.784 130.044 116.341 130.239 116.786C130.438 117.231 130.856 117.454 131.493 117.454C132.192 117.454 132.727 117.19 133.098 116.663C133.473 116.132 133.729 115.542 133.866 114.893ZM134.973 114.864C134.759 115.876 134.335 116.712 133.702 117.372C133.069 118.032 132.235 118.362 131.2 118.362C130.337 118.362 129.714 118.071 129.331 117.489C128.948 116.903 128.86 116.118 129.067 115.134C129.294 114.079 129.741 113.239 130.409 112.614C131.077 111.989 131.862 111.677 132.764 111.677C133.573 111.677 134.198 111.946 134.639 112.485C135.085 113.024 135.196 113.817 134.973 114.864ZM142.876 117.448C143.247 117.448 143.626 117.362 144.012 117.19C144.657 116.905 145.05 116.438 145.19 115.79L145.366 114.94C145.221 115.022 145.042 115.091 144.827 115.145C144.612 115.2 144.405 115.239 144.206 115.262L143.55 115.344C143.155 115.395 142.85 115.475 142.636 115.585C142.272 115.768 142.048 116.061 141.962 116.464C141.895 116.768 141.954 117.009 142.137 117.184C142.325 117.36 142.571 117.448 142.876 117.448ZM144.968 114.331C145.218 114.3 145.403 114.198 145.524 114.026C145.591 113.932 145.641 113.798 145.677 113.622C145.755 113.262 145.682 113.003 145.46 112.843C145.237 112.678 144.887 112.596 144.411 112.596C143.86 112.596 143.438 112.745 143.145 113.042C142.981 113.206 142.846 113.45 142.741 113.774H141.757C141.94 113.001 142.305 112.464 142.852 112.163C143.399 111.858 143.991 111.706 144.628 111.706C145.366 111.706 145.934 111.846 146.333 112.128C146.731 112.409 146.868 112.846 146.743 113.44L145.975 117.055C145.952 117.165 145.954 117.253 145.981 117.319C146.012 117.385 146.1 117.419 146.245 117.419C146.292 117.419 146.345 117.417 146.403 117.413C146.466 117.405 146.532 117.395 146.602 117.384L146.432 118.163C146.261 118.21 146.13 118.239 146.04 118.251C145.954 118.262 145.837 118.268 145.688 118.268C145.325 118.268 145.089 118.139 144.979 117.882C144.921 117.745 144.901 117.552 144.921 117.302C144.643 117.583 144.282 117.827 143.837 118.034C143.391 118.241 142.927 118.344 142.442 118.344C141.86 118.344 141.421 118.169 141.124 117.817C140.831 117.462 140.741 117.018 140.854 116.487C140.979 115.905 141.257 115.454 141.686 115.134C142.12 114.813 142.639 114.616 143.245 114.542L144.968 114.331ZM149.771 111.858H150.773L150.586 112.749C150.961 112.382 151.33 112.118 151.693 111.958C152.06 111.798 152.447 111.718 152.853 111.718C153.744 111.718 154.279 112.028 154.459 112.649C154.56 112.989 154.545 113.475 154.412 114.108L153.556 118.134H152.484L153.322 114.178C153.404 113.796 153.414 113.487 153.351 113.253C153.246 112.862 152.947 112.667 152.455 112.667C152.205 112.667 151.994 112.692 151.822 112.743C151.514 112.829 151.222 113.001 150.949 113.259C150.73 113.466 150.57 113.68 150.469 113.903C150.371 114.122 150.279 114.436 150.193 114.846L149.496 118.134H148.441L149.771 111.858ZM158.694 117.436C159.182 117.436 159.628 117.227 160.03 116.809C160.432 116.387 160.718 115.784 160.886 114.999C161.054 114.206 161.016 113.62 160.774 113.241C160.532 112.858 160.173 112.667 159.696 112.667C159.165 112.667 158.69 112.87 158.272 113.276C157.858 113.682 157.567 114.28 157.399 115.069C157.255 115.741 157.276 116.303 157.464 116.757C157.655 117.21 158.065 117.436 158.694 117.436ZM160.833 112.052C160.997 112.169 161.167 112.374 161.343 112.667L162.016 109.497H163.03L161.196 118.134H160.247L160.429 117.26C160.1 117.647 159.749 117.927 159.374 118.098C159.003 118.27 158.6 118.356 158.167 118.356C157.468 118.356 156.925 118.063 156.538 117.477C156.151 116.887 156.063 116.104 156.274 115.128C156.466 114.214 156.866 113.423 157.475 112.755C158.085 112.083 158.823 111.747 159.69 111.747C160.171 111.747 160.552 111.848 160.833 112.052ZM174.003 112.843C174.147 113.159 174.21 113.528 174.19 113.95C174.194 114.239 174.128 114.7 173.991 115.333H169.392C169.274 115.969 169.315 116.481 169.515 116.868C169.718 117.251 170.114 117.442 170.704 117.442C171.255 117.442 171.731 117.26 172.134 116.897C172.368 116.686 172.554 116.442 172.69 116.165H173.727C173.649 116.395 173.503 116.653 173.288 116.938C173.077 117.219 172.856 117.45 172.626 117.63C172.239 117.942 171.798 118.153 171.302 118.262C171.032 118.325 170.737 118.356 170.417 118.356C169.636 118.356 169.034 118.073 168.612 117.507C168.19 116.936 168.089 116.139 168.308 115.116C168.522 114.108 168.97 113.29 169.649 112.661C170.329 112.032 171.11 111.718 171.993 111.718C172.438 111.718 172.849 111.823 173.224 112.034C173.599 112.241 173.858 112.51 174.003 112.843ZM173.083 114.495C173.138 114.038 173.116 113.673 173.019 113.399C172.839 112.891 172.411 112.637 171.735 112.637C171.251 112.637 170.808 112.813 170.405 113.165C170.003 113.512 169.733 113.956 169.597 114.495H173.083ZM176.99 111.858H177.992L177.805 112.749C178.18 112.382 178.549 112.118 178.912 111.958C179.279 111.798 179.666 111.718 180.072 111.718C180.963 111.718 181.498 112.028 181.678 112.649C181.779 112.989 181.764 113.475 181.631 114.108L180.775 118.134H179.703L180.541 114.178C180.623 113.796 180.633 113.487 180.57 113.253C180.465 112.862 180.166 112.667 179.674 112.667C179.424 112.667 179.213 112.692 179.041 112.743C178.732 112.829 178.441 113.001 178.168 113.259C177.949 113.466 177.789 113.68 177.688 113.903C177.59 114.122 177.498 114.436 177.412 114.846L176.715 118.134H175.66L176.99 111.858ZM185.925 110.745H184.87L185.128 109.526H186.183L185.925 110.745ZM181.97 119.721C182.442 119.706 182.733 119.663 182.843 119.593C182.952 119.526 183.046 119.313 183.124 118.954L184.624 111.887H185.679L184.155 119.065C184.058 119.522 183.911 119.864 183.716 120.091C183.388 120.473 182.882 120.665 182.198 120.665C182.148 120.665 182.095 120.663 182.04 120.659C181.981 120.655 181.894 120.647 181.776 120.635L181.97 119.721ZM191.936 114.893C192.061 114.307 192.068 113.831 191.959 113.464C191.783 112.885 191.332 112.596 190.606 112.596C189.961 112.596 189.44 112.843 189.041 113.335C188.647 113.827 188.375 114.421 188.227 115.116C188.086 115.784 188.113 116.341 188.309 116.786C188.508 117.231 188.926 117.454 189.563 117.454C190.262 117.454 190.797 117.19 191.168 116.663C191.543 116.132 191.799 115.542 191.936 114.893ZM193.043 114.864C192.828 115.876 192.404 116.712 191.772 117.372C191.139 118.032 190.305 118.362 189.27 118.362C188.406 118.362 187.783 118.071 187.4 117.489C187.018 116.903 186.93 116.118 187.137 115.134C187.363 114.079 187.811 113.239 188.479 112.614C189.147 111.989 189.932 111.677 190.834 111.677C191.643 111.677 192.268 111.946 192.709 112.485C193.154 113.024 193.266 113.817 193.043 114.864ZM199.821 111.858H200.987C200.753 112.26 200.228 113.178 199.411 114.612C198.802 115.69 198.296 116.569 197.894 117.249C196.941 118.85 196.302 119.827 195.978 120.178C195.653 120.53 195.187 120.706 194.577 120.706C194.429 120.706 194.316 120.7 194.237 120.688C194.159 120.677 194.066 120.655 193.956 120.624L194.161 119.663C194.333 119.714 194.458 119.745 194.536 119.757C194.618 119.768 194.691 119.774 194.753 119.774C194.948 119.774 195.099 119.741 195.204 119.675C195.31 119.612 195.403 119.534 195.485 119.44C195.513 119.409 195.616 119.249 195.796 118.96C195.98 118.671 196.114 118.456 196.2 118.315L195.251 111.858H196.446L197.044 116.968L199.821 111.858ZM207.514 112.843C207.658 113.159 207.721 113.528 207.701 113.95C207.705 114.239 207.639 114.7 207.502 115.333H202.902C202.785 115.969 202.826 116.481 203.026 116.868C203.229 117.251 203.625 117.442 204.215 117.442C204.766 117.442 205.242 117.26 205.645 116.897C205.879 116.686 206.065 116.442 206.201 116.165H207.238C207.16 116.395 207.014 116.653 206.799 116.938C206.588 117.219 206.367 117.45 206.137 117.63C205.75 117.942 205.309 118.153 204.813 118.262C204.543 118.325 204.248 118.356 203.928 118.356C203.147 118.356 202.545 118.073 202.123 117.507C201.701 116.936 201.6 116.139 201.819 115.116C202.033 114.108 202.481 113.29 203.16 112.661C203.84 112.032 204.621 111.718 205.504 111.718C205.949 111.718 206.36 111.823 206.735 112.034C207.11 112.241 207.369 112.51 207.514 112.843ZM206.594 114.495C206.649 114.038 206.627 113.673 206.529 113.399C206.35 112.891 205.922 112.637 205.246 112.637C204.762 112.637 204.319 112.813 203.916 113.165C203.514 113.512 203.244 113.956 203.108 114.495H206.594ZM211.784 117.436C212.273 117.436 212.718 117.227 213.12 116.809C213.523 116.387 213.808 115.784 213.976 114.999C214.144 114.206 214.107 113.62 213.864 113.241C213.622 112.858 213.263 112.667 212.786 112.667C212.255 112.667 211.78 112.87 211.363 113.276C210.948 113.682 210.657 114.28 210.489 115.069C210.345 115.741 210.366 116.303 210.554 116.757C210.745 117.21 211.155 117.436 211.784 117.436ZM213.923 112.052C214.087 112.169 214.257 112.374 214.433 112.667L215.107 109.497H216.12L214.286 118.134H213.337L213.519 117.26C213.191 117.647 212.839 117.927 212.464 118.098C212.093 118.27 211.691 118.356 211.257 118.356C210.558 118.356 210.015 118.063 209.628 117.477C209.241 116.887 209.154 116.104 209.364 115.128C209.556 114.214 209.956 113.423 210.566 112.755C211.175 112.083 211.913 111.747 212.78 111.747C213.261 111.747 213.642 111.848 213.923 112.052ZM217.332 116.856H218.557L218.287 118.134H217.063L217.332 116.856Z" fill="#062510"/>
<rect x="0.326715" y="0.326715" width="295.347" height="162.051" rx="2.287" stroke="#062510" stroke-width="0.65343"/>
<path d="M376.462 81.8141C376.717 81.5589 376.717 81.1452 376.462 80.89L372.304 76.7316C372.048 76.4764 371.635 76.4764 371.38 76.7316C371.124 76.9868 371.124 77.4005 371.38 77.6557L375.076 81.3521L371.38 85.0484C371.124 85.3036 371.124 85.7173 371.38 85.9725C371.635 86.2277 372.048 86.2277 372.304 85.9725L376.462 81.8141ZM328 82.0055H376V80.6986H328V82.0055Z" fill="#062510"/>
<rect x="408" width="296" height="162.704" rx="2.61372" fill="#1B360A"/>
<rect x="428" y="37.3521" width="93" height="28" rx="14" fill="#FFFBF5"/>
<path d="M444.762 47.1646H449.864V48.4292H446.256V50.0845H449.415V51.3345H446.256V54.3521H444.762V47.1646ZM454.453 48.9028C454.479 48.9028 454.501 48.9045 454.517 48.9077C454.536 48.9077 454.577 48.9093 454.639 48.9126V50.3384C454.551 50.3286 454.473 50.3221 454.404 50.3188C454.336 50.3156 454.281 50.314 454.238 50.314C453.679 50.314 453.303 50.4963 453.111 50.8608C453.003 51.0659 452.949 51.3817 452.949 51.8081V54.3521H451.548V49.0298H452.876V49.9575C453.091 49.6027 453.278 49.3602 453.438 49.23C453.698 49.0119 454.037 48.9028 454.453 48.9028ZM457.646 49.0298V52.2378C457.646 52.5405 457.682 52.7684 457.753 52.9214C457.88 53.1916 458.129 53.3267 458.5 53.3267C458.976 53.3267 459.301 53.1346 459.477 52.7505C459.568 52.5422 459.614 52.2671 459.614 51.9253V49.0298H461.025V54.3521H459.672V53.6001C459.659 53.6164 459.627 53.6652 459.575 53.7466C459.523 53.828 459.461 53.8996 459.389 53.9614C459.171 54.1567 458.959 54.2902 458.754 54.3618C458.552 54.4334 458.315 54.4692 458.041 54.4692C457.254 54.4692 456.723 54.186 456.45 53.6196C456.297 53.3071 456.22 52.8465 456.22 52.2378V49.0298H457.646ZM464.256 52.6528C464.286 52.9002 464.349 53.076 464.447 53.1802C464.619 53.3657 464.938 53.4585 465.404 53.4585C465.677 53.4585 465.894 53.4178 466.053 53.3364C466.216 53.255 466.297 53.133 466.297 52.9702C466.297 52.814 466.232 52.6951 466.102 52.6138C465.972 52.5324 465.489 52.3924 464.652 52.1938C464.05 52.0441 463.625 51.8569 463.378 51.6323C463.13 51.411 463.006 51.092 463.006 50.6753C463.006 50.1838 463.199 49.7622 463.583 49.4106C463.97 49.0558 464.514 48.8784 465.213 48.8784C465.878 48.8784 466.418 49.0119 466.835 49.2788C467.254 49.5425 467.495 49.9998 467.557 50.6509H466.166C466.146 50.4718 466.096 50.3302 466.014 50.2261C465.861 50.0373 465.601 49.9429 465.233 49.9429C464.93 49.9429 464.714 49.9901 464.584 50.0845C464.457 50.1789 464.393 50.2896 464.393 50.4165C464.393 50.576 464.462 50.6916 464.598 50.7632C464.735 50.8381 465.218 50.9666 466.048 51.1489C466.602 51.2791 467.017 51.4761 467.294 51.7397C467.567 52.0067 467.704 52.3403 467.704 52.7407C467.704 53.2681 467.507 53.6994 467.113 54.0347C466.722 54.3667 466.117 54.5327 465.296 54.5327C464.46 54.5327 463.841 54.3569 463.441 54.0054C463.044 53.6506 462.845 53.1997 462.845 52.6528H464.256ZM468.992 50.0698V49.0786H469.734V47.5942H471.111V49.0786H471.975V50.0698H471.111V52.8823C471.111 53.1004 471.139 53.2371 471.194 53.2925C471.249 53.3446 471.419 53.3706 471.702 53.3706C471.744 53.3706 471.788 53.3706 471.834 53.3706C471.883 53.3674 471.93 53.3641 471.975 53.3608V54.4009L471.316 54.4253C470.659 54.4481 470.209 54.3341 469.969 54.0835C469.812 53.924 469.734 53.6782 469.734 53.3462V50.0698H468.992ZM476.56 48.9028C476.586 48.9028 476.607 48.9045 476.623 48.9077C476.643 48.9077 476.683 48.9093 476.745 48.9126V50.3384C476.657 50.3286 476.579 50.3221 476.511 50.3188C476.442 50.3156 476.387 50.314 476.345 50.314C475.785 50.314 475.409 50.4963 475.217 50.8608C475.109 51.0659 475.056 51.3817 475.056 51.8081V54.3521H473.654V49.0298H474.982V49.9575C475.197 49.6027 475.384 49.3602 475.544 49.23C475.804 49.0119 476.143 48.9028 476.56 48.9028ZM481.3 51.7642C481.212 51.8195 481.123 51.8651 481.031 51.9009C480.944 51.9334 480.821 51.9644 480.665 51.9937L480.353 52.0522C480.06 52.1043 479.85 52.1678 479.723 52.2427C479.508 52.3696 479.401 52.5666 479.401 52.8335C479.401 53.0711 479.466 53.2437 479.596 53.3511C479.729 53.4552 479.89 53.5073 480.079 53.5073C480.379 53.5073 480.654 53.4194 480.904 53.2437C481.158 53.0679 481.29 52.7472 481.3 52.2817V51.7642ZM480.455 51.1147C480.712 51.0822 480.896 51.0415 481.007 50.9927C481.206 50.908 481.305 50.7762 481.305 50.5972C481.305 50.3791 481.228 50.2293 481.075 50.1479C480.926 50.0633 480.704 50.021 480.411 50.021C480.083 50.021 479.85 50.1024 479.713 50.2651C479.615 50.3856 479.55 50.5483 479.518 50.7534H478.175C478.204 50.2879 478.335 49.9054 478.566 49.606C478.933 49.1372 479.565 48.9028 480.46 48.9028C481.043 48.9028 481.56 49.0184 482.013 49.2495C482.465 49.4806 482.692 49.9168 482.692 50.5581V52.9995C482.692 53.1688 482.695 53.3739 482.701 53.6147C482.711 53.797 482.739 53.9207 482.784 53.9858C482.83 54.0509 482.898 54.1047 482.989 54.147V54.3521H481.476C481.433 54.2446 481.404 54.1437 481.388 54.0493C481.372 53.9549 481.359 53.8475 481.349 53.7271C481.157 53.9354 480.935 54.1128 480.685 54.2593C480.385 54.4318 480.047 54.5181 479.669 54.5181C479.187 54.5181 478.789 54.3813 478.473 54.1079C478.16 53.8312 478.004 53.4406 478.004 52.936C478.004 52.2817 478.256 51.8081 478.761 51.5151C479.038 51.3556 479.445 51.2417 479.982 51.1733L480.455 51.1147ZM484.185 50.0698V49.0786H484.927V47.5942H486.304V49.0786H487.168V50.0698H486.304V52.8823C486.304 53.1004 486.332 53.2371 486.387 53.2925C486.442 53.3446 486.612 53.3706 486.895 53.3706C486.937 53.3706 486.981 53.3706 487.027 53.3706C487.076 53.3674 487.123 53.3641 487.168 53.3608V54.4009L486.509 54.4253C485.852 54.4481 485.402 54.3341 485.162 54.0835C485.005 53.924 484.927 53.6782 484.927 53.3462V50.0698H484.185ZM490.293 48.395H488.881V47.1108H490.293V48.395ZM488.881 49.0298H490.293V54.3521H488.881V49.0298ZM494.833 53.3706C495.24 53.3706 495.552 53.2257 495.77 52.936C495.988 52.6463 496.097 52.2345 496.097 51.7007C496.097 51.1668 495.988 50.7567 495.77 50.4702C495.552 50.1805 495.24 50.0356 494.833 50.0356C494.426 50.0356 494.112 50.1805 493.89 50.4702C493.672 50.7567 493.563 51.1668 493.563 51.7007C493.563 52.2345 493.672 52.6463 493.89 52.936C494.112 53.2257 494.426 53.3706 494.833 53.3706ZM497.557 51.7007C497.557 52.4819 497.333 53.1509 496.884 53.7075C496.434 54.2609 495.752 54.5376 494.838 54.5376C493.923 54.5376 493.241 54.2609 492.792 53.7075C492.343 53.1509 492.118 52.4819 492.118 51.7007C492.118 50.9325 492.343 50.2668 492.792 49.7036C493.241 49.1405 493.923 48.8589 494.838 48.8589C495.752 48.8589 496.434 49.1405 496.884 49.7036C497.333 50.2668 497.557 50.9325 497.557 51.7007ZM502.308 48.9028C502.858 48.9028 503.307 49.0477 503.655 49.3374C504.007 49.6239 504.183 50.1007 504.183 50.7681V54.3521H502.757V51.1147C502.757 50.8348 502.719 50.62 502.645 50.4702C502.508 50.1968 502.247 50.0601 501.863 50.0601C501.391 50.0601 501.067 50.2603 500.892 50.6606C500.8 50.8722 500.755 51.1424 500.755 51.4712V54.3521H499.368V49.0396H500.711V49.8159C500.89 49.5425 501.059 49.3455 501.219 49.2251C501.505 49.0103 501.868 48.9028 502.308 48.9028Z" fill="#062510"/>
<path d="M429.178 90.7446H430.355V99.3521H429.178V90.7446ZM433.284 91.3247H434.351V93.0767H435.353V93.938H434.351V98.0337C434.351 98.2524 434.425 98.3989 434.573 98.4731C434.655 98.5161 434.792 98.5376 434.983 98.5376C435.034 98.5376 435.089 98.5376 435.148 98.5376C435.206 98.5337 435.274 98.5278 435.353 98.52V99.3521C435.231 99.3872 435.105 99.4126 434.972 99.4282C434.843 99.4438 434.702 99.4517 434.55 99.4517C434.058 99.4517 433.724 99.3267 433.548 99.0767C433.372 98.8228 433.284 98.4946 433.284 98.0923V93.938H432.435V93.0767H433.284V91.3247ZM441.673 93.106H442.745V99.3521H441.673V93.106ZM441.673 90.7446H442.745V91.9399H441.673V90.7446ZM445.932 97.3833C445.963 97.7349 446.051 98.0044 446.195 98.1919C446.461 98.5317 446.922 98.7017 447.578 98.7017C447.969 98.7017 448.313 98.6177 448.61 98.4497C448.906 98.2778 449.055 98.0142 449.055 97.6587C449.055 97.3892 448.936 97.1841 448.697 97.0435C448.545 96.9575 448.244 96.8579 447.795 96.7446L446.957 96.5337C446.422 96.4009 446.028 96.2524 445.774 96.0884C445.32 95.8032 445.094 95.4087 445.094 94.9048C445.094 94.311 445.307 93.8306 445.733 93.4634C446.162 93.0962 446.738 92.9126 447.461 92.9126C448.406 92.9126 449.088 93.1899 449.506 93.7446C449.768 94.0962 449.895 94.4751 449.887 94.8813H448.891C448.871 94.6431 448.787 94.4263 448.639 94.231C448.397 93.9536 447.977 93.8149 447.379 93.8149C446.981 93.8149 446.678 93.8911 446.471 94.0435C446.268 94.1958 446.166 94.397 446.166 94.647C446.166 94.9204 446.301 95.1392 446.57 95.3032C446.727 95.4009 446.957 95.4868 447.262 95.561L447.959 95.731C448.717 95.9146 449.225 96.0923 449.483 96.2642C449.893 96.5337 450.098 96.9575 450.098 97.5356C450.098 98.0942 449.885 98.5767 449.459 98.9829C449.037 99.3892 448.393 99.5923 447.526 99.5923C446.592 99.5923 445.93 99.3813 445.539 98.9595C445.153 98.5337 444.945 98.0083 444.918 97.3833H445.932ZM457.233 96.2876C457.233 96.9595 457.375 97.522 457.66 97.9751C457.946 98.4282 458.403 98.6548 459.031 98.6548C459.52 98.6548 459.92 98.4458 460.233 98.0278C460.549 97.606 460.707 97.0024 460.707 96.2173C460.707 95.4243 460.545 94.8384 460.221 94.4595C459.897 94.0767 459.496 93.8853 459.02 93.8853C458.489 93.8853 458.057 94.0884 457.725 94.4946C457.397 94.9009 457.233 95.4985 457.233 96.2876ZM458.821 92.9653C459.301 92.9653 459.703 93.0669 460.028 93.27C460.215 93.3872 460.428 93.5923 460.666 93.8853V90.7153H461.68V99.3521H460.731V98.479C460.485 98.8657 460.194 99.145 459.858 99.3169C459.522 99.4888 459.137 99.5747 458.703 99.5747C458.004 99.5747 457.399 99.2817 456.887 98.6958C456.375 98.106 456.119 97.3228 456.119 96.3462C456.119 95.4321 456.352 94.6411 456.817 93.9731C457.285 93.3013 457.953 92.9653 458.821 92.9653ZM464.204 93.106H465.277V99.3521H464.204V93.106ZM464.204 90.7446H465.277V91.9399H464.204V90.7446ZM468.1 92.1216C468.116 91.6841 468.192 91.3638 468.328 91.1606C468.575 90.8013 469.049 90.6216 469.752 90.6216C469.819 90.6216 469.887 90.6235 469.957 90.6274C470.028 90.6313 470.108 90.6372 470.198 90.645V91.606C470.088 91.5981 470.008 91.5942 469.957 91.5942C469.91 91.5903 469.866 91.5884 469.823 91.5884C469.502 91.5884 469.311 91.6724 469.248 91.8403C469.186 92.0044 469.155 92.4263 469.155 93.106H470.198V93.938H469.143V99.3521H468.1V93.938H467.227V93.106H468.1V92.1216ZM472.4 92.1216C472.415 91.6841 472.492 91.3638 472.628 91.1606C472.874 90.8013 473.349 90.6216 474.052 90.6216C474.119 90.6216 474.187 90.6235 474.257 90.6274C474.327 90.6313 474.408 90.6372 474.497 90.645V91.606C474.388 91.5981 474.308 91.5942 474.257 91.5942C474.21 91.5903 474.165 91.5884 474.122 91.5884C473.802 91.5884 473.611 91.6724 473.548 91.8403C473.486 92.0044 473.454 92.4263 473.454 93.106H474.497V93.938H473.443V99.3521H472.4V93.938H471.527V93.106H472.4V92.1216ZM475.511 91.9399V90.7446H476.566V91.9399H475.511ZM475.511 93.106H476.566V99.3521H475.511V93.106ZM481.516 92.895C482.223 92.895 482.797 93.0669 483.239 93.4106C483.684 93.7544 483.952 94.3462 484.041 95.186H483.016C482.954 94.7993 482.811 94.479 482.588 94.2251C482.366 93.9673 482.008 93.8384 481.516 93.8384C480.844 93.8384 480.364 94.1665 480.075 94.8228C479.887 95.2485 479.793 95.7739 479.793 96.3989C479.793 97.0278 479.926 97.5571 480.192 97.9868C480.457 98.4165 480.875 98.6313 481.446 98.6313C481.883 98.6313 482.229 98.4985 482.483 98.2329C482.741 97.9634 482.918 97.5962 483.016 97.1313H484.041C483.924 97.9634 483.631 98.5728 483.162 98.9595C482.694 99.3423 482.094 99.5337 481.364 99.5337C480.543 99.5337 479.889 99.2349 479.401 98.6372C478.912 98.0356 478.668 97.2856 478.668 96.3872C478.668 95.2856 478.936 94.4282 479.471 93.8149C480.006 93.2017 480.688 92.895 481.516 92.895ZM487.111 93.0767V97.2427C487.111 97.563 487.162 97.8247 487.263 98.0278C487.451 98.4028 487.8 98.5903 488.312 98.5903C489.046 98.5903 489.546 98.2622 489.812 97.606C489.956 97.2544 490.029 96.772 490.029 96.1587V93.0767H491.083V99.3521H490.087L490.099 98.4263C489.962 98.6646 489.792 98.8657 489.589 99.0298C489.187 99.3579 488.699 99.522 488.124 99.522C487.23 99.522 486.621 99.2231 486.296 98.6255C486.121 98.3052 486.033 97.8774 486.033 97.3423V93.0767H487.111ZM493.725 90.7446H494.78V99.3521H493.725V90.7446ZM497.539 91.3247H498.605V93.0767H499.607V93.938H498.605V98.0337C498.605 98.2524 498.679 98.3989 498.828 98.4731C498.91 98.5161 499.046 98.5376 499.238 98.5376C499.289 98.5376 499.343 98.5376 499.402 98.5376C499.46 98.5337 499.529 98.5278 499.607 98.52V99.3521C499.486 99.3872 499.359 99.4126 499.226 99.4282C499.097 99.4438 498.957 99.4517 498.804 99.4517C498.312 99.4517 497.978 99.3267 497.802 99.0767C497.626 98.8228 497.539 98.4946 497.539 98.0923V93.938H496.689V93.0767H497.539V91.3247ZM506.191 92.1216C506.207 91.6841 506.283 91.3638 506.42 91.1606C506.666 90.8013 507.14 90.6216 507.843 90.6216C507.91 90.6216 507.978 90.6235 508.048 90.6274C508.119 90.6313 508.199 90.6372 508.289 90.645V91.606C508.179 91.5981 508.099 91.5942 508.048 91.5942C508.002 91.5903 507.957 91.5884 507.914 91.5884C507.593 91.5884 507.402 91.6724 507.339 91.8403C507.277 92.0044 507.246 92.4263 507.246 93.106H508.289V93.938H507.234V99.3521H506.191V93.938H505.318V93.106H506.191V92.1216ZM512.717 98.6724C513.417 98.6724 513.895 98.4087 514.153 97.8813C514.415 97.3501 514.546 96.7603 514.546 96.1118C514.546 95.5259 514.452 95.0493 514.264 94.6821C513.967 94.104 513.456 93.8149 512.729 93.8149C512.085 93.8149 511.616 94.061 511.323 94.5532C511.03 95.0454 510.883 95.6392 510.883 96.3345C510.883 97.0024 511.03 97.5591 511.323 98.0044C511.616 98.4497 512.081 98.6724 512.717 98.6724ZM512.758 92.895C513.567 92.895 514.251 93.1646 514.809 93.7036C515.368 94.2427 515.647 95.0356 515.647 96.0825C515.647 97.0942 515.401 97.9302 514.909 98.5903C514.417 99.2505 513.653 99.5806 512.618 99.5806C511.755 99.5806 511.069 99.2896 510.561 98.7075C510.053 98.1216 509.799 97.3364 509.799 96.3521C509.799 95.2974 510.067 94.4575 510.602 93.8325C511.137 93.2075 511.856 92.895 512.758 92.895ZM517.896 93.0767H518.898V94.1606C518.98 93.9497 519.181 93.6938 519.502 93.3931C519.822 93.0884 520.191 92.936 520.609 92.936C520.629 92.936 520.662 92.938 520.709 92.9419C520.756 92.9458 520.836 92.9536 520.949 92.9653V94.0786C520.886 94.0669 520.828 94.0591 520.773 94.0552C520.722 94.0513 520.666 94.0493 520.603 94.0493C520.072 94.0493 519.664 94.2212 519.379 94.5649C519.093 94.9048 518.951 95.2974 518.951 95.7427V99.3521H517.896V93.0767ZM528.177 93.0767V97.2427C528.177 97.563 528.228 97.8247 528.33 98.0278C528.517 98.4028 528.867 98.5903 529.379 98.5903C530.113 98.5903 530.613 98.2622 530.879 97.606C531.023 97.2544 531.095 96.772 531.095 96.1587V93.0767H532.15V99.3521H531.154L531.166 98.4263C531.029 98.6646 530.859 98.8657 530.656 99.0298C530.254 99.3579 529.765 99.522 529.191 99.522C528.297 99.522 527.687 99.2231 527.363 98.6255C527.187 98.3052 527.099 97.8774 527.099 97.3423V93.0767H528.177ZM535.389 97.3833C535.421 97.7349 535.509 98.0044 535.653 98.1919C535.919 98.5317 536.38 98.7017 537.036 98.7017C537.427 98.7017 537.77 98.6177 538.067 98.4497C538.364 98.2778 538.512 98.0142 538.512 97.6587C538.512 97.3892 538.393 97.1841 538.155 97.0435C538.003 96.9575 537.702 96.8579 537.253 96.7446L536.415 96.5337C535.88 96.4009 535.485 96.2524 535.231 96.0884C534.778 95.8032 534.552 95.4087 534.552 94.9048C534.552 94.311 534.764 93.8306 535.19 93.4634C535.62 93.0962 536.196 92.9126 536.919 92.9126C537.864 92.9126 538.546 93.1899 538.964 93.7446C539.225 94.0962 539.352 94.4751 539.345 94.8813H538.348C538.329 94.6431 538.245 94.4263 538.096 94.231C537.854 93.9536 537.434 93.8149 536.837 93.8149C536.438 93.8149 536.136 93.8911 535.929 94.0435C535.725 94.1958 535.624 94.397 535.624 94.647C535.624 94.9204 535.759 95.1392 536.028 95.3032C536.184 95.4009 536.415 95.4868 536.72 95.561L537.417 95.731C538.175 95.9146 538.682 96.0923 538.94 96.2642C539.35 96.5337 539.555 96.9575 539.555 97.5356C539.555 98.0942 539.343 98.5767 538.917 98.9829C538.495 99.3892 537.85 99.5923 536.983 99.5923C536.05 99.5923 535.387 99.3813 534.997 98.9595C534.61 98.5337 534.403 98.0083 534.376 97.3833H535.389ZM544.336 92.936C544.781 92.936 545.213 93.0415 545.631 93.2524C546.049 93.4595 546.367 93.729 546.586 94.061C546.797 94.3774 546.937 94.7466 547.008 95.1685C547.07 95.4575 547.101 95.9185 547.101 96.5513H542.502C542.521 97.188 542.672 97.6997 542.953 98.0864C543.234 98.4692 543.67 98.6606 544.26 98.6606C544.81 98.6606 545.25 98.479 545.578 98.1157C545.765 97.9048 545.898 97.6606 545.976 97.3833H547.014C546.986 97.6138 546.894 97.8716 546.738 98.1567C546.586 98.438 546.414 98.6685 546.222 98.8481C545.902 99.1606 545.506 99.3716 545.033 99.481C544.779 99.5435 544.492 99.5747 544.172 99.5747C543.39 99.5747 542.728 99.2915 542.185 98.7251C541.642 98.1548 541.371 97.3579 541.371 96.3345C541.371 95.3267 541.644 94.5083 542.191 93.8794C542.738 93.2505 543.453 92.936 544.336 92.936ZM546.017 95.7134C545.974 95.2563 545.875 94.8911 545.719 94.6177C545.43 94.1099 544.947 93.856 544.271 93.856C543.787 93.856 543.381 94.0317 543.053 94.3833C542.724 94.731 542.551 95.1743 542.531 95.7134H546.017ZM549.391 93.0767H550.393V94.1606C550.475 93.9497 550.677 93.6938 550.997 93.3931C551.317 93.0884 551.686 92.936 552.104 92.936C552.124 92.936 552.157 92.938 552.204 92.9419C552.251 92.9458 552.331 92.9536 552.444 92.9653V94.0786C552.382 94.0669 552.323 94.0591 552.268 94.0552C552.218 94.0513 552.161 94.0493 552.099 94.0493C551.567 94.0493 551.159 94.2212 550.874 94.5649C550.589 94.9048 550.446 95.2974 550.446 95.7427V99.3521H549.391V93.0767ZM554.945 97.3833C554.976 97.7349 555.064 98.0044 555.209 98.1919C555.475 98.5317 555.935 98.7017 556.592 98.7017C556.982 98.7017 557.326 98.6177 557.623 98.4497C557.92 98.2778 558.068 98.0142 558.068 97.6587C558.068 97.3892 557.949 97.1841 557.711 97.0435C557.559 96.9575 557.258 96.8579 556.809 96.7446L555.971 96.5337C555.435 96.4009 555.041 96.2524 554.787 96.0884C554.334 95.8032 554.107 95.4087 554.107 94.9048C554.107 94.311 554.32 93.8306 554.746 93.4634C555.176 93.0962 555.752 92.9126 556.475 92.9126C557.42 92.9126 558.101 93.1899 558.519 93.7446C558.781 94.0962 558.908 94.4751 558.9 94.8813H557.904C557.885 94.6431 557.801 94.4263 557.652 94.231C557.41 93.9536 556.99 93.8149 556.393 93.8149C555.994 93.8149 555.691 93.8911 555.484 94.0435C555.281 94.1958 555.18 94.397 555.18 94.647C555.18 94.9204 555.314 95.1392 555.584 95.3032C555.74 95.4009 555.971 95.4868 556.275 95.561L556.973 95.731C557.73 95.9146 558.238 96.0923 558.496 96.2642C558.906 96.5337 559.111 96.9575 559.111 97.5356C559.111 98.0942 558.898 98.5767 558.473 98.9829C558.051 99.3892 557.406 99.5923 556.539 99.5923C555.605 99.5923 554.943 99.3813 554.553 98.9595C554.166 98.5337 553.959 98.0083 553.932 97.3833H554.945ZM565.789 91.3247H566.855V93.0767H567.857V93.938H566.855V98.0337C566.855 98.2524 566.93 98.3989 567.078 98.4731C567.16 98.5161 567.297 98.5376 567.488 98.5376C567.539 98.5376 567.594 98.5376 567.652 98.5376C567.711 98.5337 567.779 98.5278 567.857 98.52V99.3521C567.736 99.3872 567.609 99.4126 567.477 99.4282C567.348 99.4438 567.207 99.4517 567.055 99.4517C566.562 99.4517 566.229 99.3267 566.053 99.0767C565.877 98.8228 565.789 98.4946 565.789 98.0923V93.938H564.939V93.0767H565.789V91.3247ZM572.368 98.6724C573.067 98.6724 573.546 98.4087 573.804 97.8813C574.065 97.3501 574.196 96.7603 574.196 96.1118C574.196 95.5259 574.103 95.0493 573.915 94.6821C573.618 94.104 573.106 93.8149 572.38 93.8149C571.735 93.8149 571.267 94.061 570.974 94.5532C570.681 95.0454 570.534 95.6392 570.534 96.3345C570.534 97.0024 570.681 97.5591 570.974 98.0044C571.267 98.4497 571.731 98.6724 572.368 98.6724ZM572.409 92.895C573.218 92.895 573.901 93.1646 574.46 93.7036C575.019 94.2427 575.298 95.0356 575.298 96.0825C575.298 97.0942 575.052 97.9302 574.56 98.5903C574.067 99.2505 573.304 99.5806 572.269 99.5806C571.405 99.5806 570.72 99.2896 570.212 98.7075C569.704 98.1216 569.45 97.3364 569.45 96.3521C569.45 95.2974 569.718 94.4575 570.253 93.8325C570.788 93.2075 571.507 92.895 572.409 92.895ZM581.818 93.0767H582.86V93.9673C583.11 93.6587 583.337 93.4341 583.54 93.2935C583.888 93.0552 584.282 92.936 584.724 92.936C585.224 92.936 585.626 93.0591 585.931 93.3052C586.103 93.4458 586.259 93.6528 586.4 93.9263C586.634 93.5903 586.909 93.3423 587.226 93.1821C587.542 93.0181 587.898 92.936 588.292 92.936C589.136 92.936 589.71 93.2407 590.015 93.8501C590.179 94.1782 590.261 94.6196 590.261 95.1743V99.3521H589.165V94.9927C589.165 94.5747 589.06 94.2876 588.849 94.1313C588.642 93.9751 588.388 93.897 588.087 93.897C587.673 93.897 587.316 94.0356 587.015 94.313C586.718 94.5903 586.569 95.0532 586.569 95.7017V99.3521H585.497V95.2563C585.497 94.8306 585.446 94.52 585.345 94.3247C585.185 94.0317 584.886 93.8853 584.448 93.8853C584.05 93.8853 583.687 94.0396 583.359 94.3481C583.034 94.6567 582.872 95.2153 582.872 96.0239V99.3521H581.818V93.0767ZM595.264 98.6724C595.963 98.6724 596.442 98.4087 596.699 97.8813C596.961 97.3501 597.092 96.7603 597.092 96.1118C597.092 95.5259 596.998 95.0493 596.811 94.6821C596.514 94.104 596.002 93.8149 595.276 93.8149C594.631 93.8149 594.162 94.061 593.869 94.5532C593.576 95.0454 593.43 95.6392 593.43 96.3345C593.43 97.0024 593.576 97.5591 593.869 98.0044C594.162 98.4497 594.627 98.6724 595.264 98.6724ZM595.305 92.895C596.113 92.895 596.797 93.1646 597.356 93.7036C597.914 94.2427 598.194 95.0356 598.194 96.0825C598.194 97.0942 597.947 97.9302 597.455 98.5903C596.963 99.2505 596.199 99.5806 595.164 99.5806C594.301 99.5806 593.615 99.2896 593.108 98.7075C592.6 98.1216 592.346 97.3364 592.346 96.3521C592.346 95.2974 592.613 94.4575 593.149 93.8325C593.684 93.2075 594.402 92.895 595.305 92.895ZM600.624 91.3247H601.691V93.0767H602.693V93.938H601.691V98.0337C601.691 98.2524 601.765 98.3989 601.913 98.4731C601.995 98.5161 602.132 98.5376 602.323 98.5376C602.374 98.5376 602.429 98.5376 602.488 98.5376C602.546 98.5337 602.614 98.5278 602.693 98.52V99.3521C602.571 99.3872 602.445 99.4126 602.312 99.4282C602.183 99.4438 602.042 99.4517 601.89 99.4517C601.398 99.4517 601.064 99.3267 600.888 99.0767C600.712 98.8228 600.624 98.4946 600.624 98.0923V93.938H599.775V93.0767H600.624V91.3247ZM604.713 93.106H605.785V99.3521H604.713V93.106ZM604.713 90.7446H605.785V91.9399H604.713V90.7446ZM608.861 93.0767L610.536 98.186L612.288 93.0767H613.443L611.075 99.3521H609.95L607.636 93.0767H608.861ZM616.114 97.6821C616.114 97.9868 616.225 98.2271 616.448 98.4028C616.67 98.5786 616.934 98.6665 617.239 98.6665C617.61 98.6665 617.969 98.5806 618.317 98.4087C618.903 98.1235 619.196 97.6567 619.196 97.0083V96.1587C619.067 96.2407 618.901 96.3091 618.698 96.3638C618.494 96.4185 618.295 96.4575 618.1 96.481L617.461 96.563C617.078 96.6138 616.791 96.6938 616.6 96.8032C616.276 96.9868 616.114 97.2798 616.114 97.6821ZM618.668 95.5493C618.91 95.5181 619.073 95.4165 619.155 95.2446C619.201 95.1509 619.225 95.0161 619.225 94.8403C619.225 94.481 619.096 94.2212 618.838 94.061C618.584 93.897 618.219 93.8149 617.742 93.8149C617.192 93.8149 616.801 93.9634 616.571 94.2603C616.442 94.4243 616.358 94.6685 616.319 94.9927H615.334C615.354 94.2192 615.604 93.6821 616.084 93.3813C616.569 93.0767 617.129 92.9243 617.766 92.9243C618.504 92.9243 619.104 93.0649 619.565 93.3462C620.022 93.6274 620.25 94.0649 620.25 94.6587V98.2739C620.25 98.3833 620.272 98.4712 620.315 98.5376C620.362 98.604 620.457 98.6372 620.602 98.6372C620.649 98.6372 620.701 98.6353 620.76 98.6313C620.819 98.6235 620.881 98.6138 620.948 98.6021V99.3813C620.784 99.4282 620.659 99.4575 620.573 99.4692C620.487 99.481 620.369 99.4868 620.221 99.4868C619.858 99.4868 619.594 99.3579 619.43 99.1001C619.344 98.9634 619.284 98.77 619.248 98.52C619.034 98.8013 618.725 99.0454 618.323 99.2524C617.92 99.4595 617.477 99.563 616.992 99.563C616.41 99.563 615.934 99.3872 615.563 99.0356C615.196 98.6802 615.012 98.2368 615.012 97.7056C615.012 97.1235 615.194 96.6724 615.557 96.3521C615.92 96.0317 616.397 95.8345 616.987 95.7603L618.668 95.5493ZM623.156 91.3247H624.222V93.0767H625.224V93.938H624.222V98.0337C624.222 98.2524 624.296 98.3989 624.445 98.4731C624.527 98.5161 624.663 98.5376 624.855 98.5376C624.906 98.5376 624.96 98.5376 625.019 98.5376C625.077 98.5337 625.146 98.5278 625.224 98.52V99.3521C625.103 99.3872 624.976 99.4126 624.843 99.4282C624.714 99.4438 624.574 99.4517 624.421 99.4517C623.929 99.4517 623.595 99.3267 623.419 99.0767C623.244 98.8228 623.156 98.4946 623.156 98.0923V93.938H622.306V93.0767H623.156V91.3247ZM629.858 92.936C630.303 92.936 630.735 93.0415 631.153 93.2524C631.571 93.4595 631.889 93.729 632.108 94.061C632.319 94.3774 632.459 94.7466 632.53 95.1685C632.592 95.4575 632.623 95.9185 632.623 96.5513H628.024C628.043 97.188 628.194 97.6997 628.475 98.0864C628.756 98.4692 629.192 98.6606 629.782 98.6606C630.332 98.6606 630.772 98.479 631.1 98.1157C631.288 97.9048 631.42 97.6606 631.498 97.3833H632.536C632.508 97.6138 632.416 97.8716 632.26 98.1567C632.108 98.438 631.936 98.6685 631.745 98.8481C631.424 99.1606 631.028 99.3716 630.555 99.481C630.301 99.5435 630.014 99.5747 629.694 99.5747C628.913 99.5747 628.25 99.2915 627.707 98.7251C627.164 98.1548 626.893 97.3579 626.893 96.3345C626.893 95.3267 627.166 94.5083 627.713 93.8794C628.26 93.2505 628.975 92.936 629.858 92.936ZM631.539 95.7134C631.496 95.2563 631.397 94.8911 631.241 94.6177C630.952 94.1099 630.469 93.856 629.793 93.856C629.309 93.856 628.903 94.0317 628.575 94.3833C628.246 94.731 628.073 95.1743 628.053 95.7134H631.539ZM428.984 111.325H430.051V113.077H431.053V113.938H430.051V118.034C430.051 118.252 430.125 118.399 430.273 118.473C430.355 118.516 430.492 118.538 430.684 118.538C430.734 118.538 430.789 118.538 430.848 118.538C430.906 118.534 430.975 118.528 431.053 118.52V119.352C430.932 119.387 430.805 119.413 430.672 119.428C430.543 119.444 430.402 119.452 430.25 119.452C429.758 119.452 429.424 119.327 429.248 119.077C429.072 118.823 428.984 118.495 428.984 118.092V113.938H428.135V113.077H428.984V111.325ZM433.073 110.715H434.128V113.926C434.378 113.61 434.603 113.387 434.802 113.258C435.142 113.036 435.565 112.924 436.073 112.924C436.983 112.924 437.601 113.243 437.925 113.879C438.101 114.227 438.189 114.709 438.189 115.327V119.352H437.105V115.397C437.105 114.936 437.046 114.598 436.929 114.383C436.737 114.04 436.378 113.868 435.851 113.868C435.413 113.868 435.017 114.018 434.661 114.319C434.306 114.62 434.128 115.188 434.128 116.024V119.352H433.073V110.715ZM443.326 112.936C443.772 112.936 444.203 113.042 444.621 113.252C445.039 113.459 445.358 113.729 445.576 114.061C445.787 114.377 445.928 114.747 445.998 115.168C446.061 115.458 446.092 115.918 446.092 116.551H441.492C441.512 117.188 441.662 117.7 441.943 118.086C442.225 118.469 442.66 118.661 443.25 118.661C443.801 118.661 444.24 118.479 444.568 118.116C444.756 117.905 444.889 117.661 444.967 117.383H446.004C445.977 117.614 445.885 117.872 445.729 118.157C445.576 118.438 445.404 118.668 445.213 118.848C444.893 119.161 444.496 119.372 444.024 119.481C443.77 119.543 443.483 119.575 443.162 119.575C442.381 119.575 441.719 119.292 441.176 118.725C440.633 118.155 440.361 117.358 440.361 116.334C440.361 115.327 440.635 114.508 441.182 113.879C441.729 113.25 442.443 112.936 443.326 112.936ZM445.008 115.713C444.965 115.256 444.865 114.891 444.709 114.618C444.42 114.11 443.938 113.856 443.262 113.856C442.777 113.856 442.371 114.032 442.043 114.383C441.715 114.731 441.541 115.174 441.522 115.713H445.008ZM448.353 113.077H449.396V113.967C449.646 113.659 449.872 113.434 450.075 113.293C450.423 113.055 450.817 112.936 451.259 112.936C451.759 112.936 452.161 113.059 452.466 113.305C452.638 113.446 452.794 113.653 452.935 113.926C453.169 113.59 453.444 113.342 453.761 113.182C454.077 113.018 454.433 112.936 454.827 112.936C455.671 112.936 456.245 113.241 456.55 113.85C456.714 114.178 456.796 114.62 456.796 115.174V119.352H455.7V114.993C455.7 114.575 455.595 114.288 455.384 114.131C455.177 113.975 454.923 113.897 454.622 113.897C454.208 113.897 453.851 114.036 453.55 114.313C453.253 114.59 453.105 115.053 453.105 115.702V119.352H452.032V115.256C452.032 114.831 451.982 114.52 451.88 114.325C451.72 114.032 451.421 113.885 450.984 113.885C450.585 113.885 450.222 114.04 449.894 114.348C449.569 114.657 449.407 115.215 449.407 116.024V119.352H448.353V113.077ZM459.936 117.383C459.967 117.735 460.055 118.004 460.199 118.192C460.465 118.532 460.926 118.702 461.582 118.702C461.973 118.702 462.317 118.618 462.613 118.45C462.91 118.278 463.059 118.014 463.059 117.659C463.059 117.389 462.94 117.184 462.701 117.043C462.549 116.958 462.248 116.858 461.799 116.745L460.961 116.534C460.426 116.401 460.031 116.252 459.778 116.088C459.324 115.803 459.098 115.409 459.098 114.905C459.098 114.311 459.311 113.831 459.736 113.463C460.166 113.096 460.742 112.913 461.465 112.913C462.41 112.913 463.092 113.19 463.51 113.745C463.772 114.096 463.899 114.475 463.891 114.881H462.895C462.875 114.643 462.791 114.426 462.643 114.231C462.401 113.954 461.981 113.815 461.383 113.815C460.985 113.815 460.682 113.891 460.475 114.043C460.272 114.196 460.17 114.397 460.17 114.647C460.17 114.92 460.305 115.139 460.574 115.303C460.731 115.401 460.961 115.487 461.266 115.561L461.963 115.731C462.721 115.915 463.229 116.092 463.486 116.264C463.897 116.534 464.102 116.958 464.102 117.536C464.102 118.094 463.889 118.577 463.463 118.983C463.041 119.389 462.397 119.592 461.529 119.592C460.596 119.592 459.934 119.381 459.543 118.959C459.156 118.534 458.949 118.008 458.922 117.383H459.936ZM468.882 112.936C469.327 112.936 469.759 113.042 470.177 113.252C470.595 113.459 470.913 113.729 471.132 114.061C471.343 114.377 471.484 114.747 471.554 115.168C471.616 115.458 471.648 115.918 471.648 116.551H467.048C467.068 117.188 467.218 117.7 467.499 118.086C467.78 118.469 468.216 118.661 468.806 118.661C469.357 118.661 469.796 118.479 470.124 118.116C470.312 117.905 470.445 117.661 470.523 117.383H471.56C471.532 117.614 471.441 117.872 471.284 118.157C471.132 118.438 470.96 118.668 470.769 118.848C470.448 119.161 470.052 119.372 469.579 119.481C469.325 119.543 469.038 119.575 468.718 119.575C467.937 119.575 467.275 119.292 466.732 118.725C466.189 118.155 465.917 117.358 465.917 116.334C465.917 115.327 466.191 114.508 466.737 113.879C467.284 113.25 467.999 112.936 468.882 112.936ZM470.564 115.713C470.521 115.256 470.421 114.891 470.265 114.618C469.976 114.11 469.493 113.856 468.818 113.856C468.333 113.856 467.927 114.032 467.599 114.383C467.271 114.731 467.097 115.174 467.077 115.713H470.564ZM473.938 110.745H474.992V119.352H473.938V110.745ZM478.056 113.077L479.732 118.186L481.484 113.077H482.638L480.271 119.352H479.146L476.831 113.077H478.056ZM487.114 112.936C487.559 112.936 487.991 113.042 488.409 113.252C488.826 113.459 489.145 113.729 489.364 114.061C489.575 114.377 489.715 114.747 489.785 115.168C489.848 115.458 489.879 115.918 489.879 116.551H485.28C485.299 117.188 485.45 117.7 485.731 118.086C486.012 118.469 486.448 118.661 487.037 118.661C487.588 118.661 488.028 118.479 488.356 118.116C488.543 117.905 488.676 117.661 488.754 117.383H489.791C489.764 117.614 489.672 117.872 489.516 118.157C489.364 118.438 489.192 118.668 489 118.848C488.68 119.161 488.284 119.372 487.811 119.481C487.557 119.543 487.27 119.575 486.95 119.575C486.168 119.575 485.506 119.292 484.963 118.725C484.42 118.155 484.149 117.358 484.149 116.334C484.149 115.327 484.422 114.508 484.969 113.879C485.516 113.25 486.231 112.936 487.114 112.936ZM488.795 115.713C488.752 115.256 488.653 114.891 488.496 114.618C488.207 114.11 487.725 113.856 487.049 113.856C486.565 113.856 486.159 114.032 485.83 114.383C485.502 114.731 485.328 115.174 485.309 115.713H488.795ZM492.767 117.383C492.798 117.735 492.886 118.004 493.031 118.192C493.296 118.532 493.757 118.702 494.413 118.702C494.804 118.702 495.148 118.618 495.445 118.45C495.742 118.278 495.89 118.014 495.89 117.659C495.89 117.389 495.771 117.184 495.533 117.043C495.38 116.958 495.079 116.858 494.63 116.745L493.792 116.534C493.257 116.401 492.863 116.252 492.609 116.088C492.156 115.803 491.929 115.409 491.929 114.905C491.929 114.311 492.142 113.831 492.568 113.463C492.997 113.096 493.574 112.913 494.296 112.913C495.242 112.913 495.923 113.19 496.341 113.745C496.603 114.096 496.73 114.475 496.722 114.881H495.726C495.706 114.643 495.622 114.426 495.474 114.231C495.232 113.954 494.812 113.815 494.214 113.815C493.816 113.815 493.513 113.891 493.306 114.043C493.103 114.196 493.001 114.397 493.001 114.647C493.001 114.92 493.136 115.139 493.406 115.303C493.562 115.401 493.792 115.487 494.097 115.561L494.794 115.731C495.552 115.915 496.06 116.092 496.318 116.264C496.728 116.534 496.933 116.958 496.933 117.536C496.933 118.094 496.72 118.577 496.294 118.983C495.872 119.389 495.228 119.592 494.361 119.592C493.427 119.592 492.765 119.381 492.374 118.959C491.988 118.534 491.781 118.008 491.753 117.383H492.767ZM503.611 111.325H504.677V113.077H505.679V113.938H504.677V118.034C504.677 118.252 504.751 118.399 504.9 118.473C504.982 118.516 505.119 118.538 505.31 118.538C505.361 118.538 505.415 118.538 505.474 118.538C505.533 118.534 505.601 118.528 505.679 118.52V119.352C505.558 119.387 505.431 119.413 505.298 119.428C505.169 119.444 505.029 119.452 504.876 119.452C504.384 119.452 504.05 119.327 503.874 119.077C503.699 118.823 503.611 118.495 503.611 118.092V113.938H502.761V113.077H503.611V111.325ZM510.19 118.672C510.889 118.672 511.368 118.409 511.625 117.881C511.887 117.35 512.018 116.76 512.018 116.112C512.018 115.526 511.924 115.049 511.737 114.682C511.44 114.104 510.928 113.815 510.202 113.815C509.557 113.815 509.088 114.061 508.795 114.553C508.502 115.045 508.356 115.639 508.356 116.334C508.356 117.002 508.502 117.559 508.795 118.004C509.088 118.45 509.553 118.672 510.19 118.672ZM510.231 112.895C511.04 112.895 511.723 113.165 512.282 113.704C512.84 114.243 513.12 115.036 513.12 116.083C513.12 117.094 512.874 117.93 512.381 118.59C511.889 119.25 511.125 119.581 510.09 119.581C509.227 119.581 508.541 119.29 508.034 118.708C507.526 118.122 507.272 117.336 507.272 116.352C507.272 115.297 507.54 114.458 508.075 113.833C508.61 113.208 509.329 112.895 510.231 112.895ZM519.669 110.745H520.723V119.352H519.669V110.745ZM523.271 113.106H524.343V119.352H523.271V113.106ZM523.271 110.745H524.343V111.94H523.271V110.745ZM527.53 117.383C527.561 117.735 527.649 118.004 527.794 118.192C528.059 118.532 528.52 118.702 529.176 118.702C529.567 118.702 529.911 118.618 530.208 118.45C530.505 118.278 530.653 118.014 530.653 117.659C530.653 117.389 530.534 117.184 530.296 117.043C530.143 116.958 529.842 116.858 529.393 116.745L528.555 116.534C528.02 116.401 527.626 116.252 527.372 116.088C526.919 115.803 526.692 115.409 526.692 114.905C526.692 114.311 526.905 113.831 527.331 113.463C527.76 113.096 528.337 112.913 529.059 112.913C530.005 112.913 530.686 113.19 531.104 113.745C531.366 114.096 531.493 114.475 531.485 114.881H530.489C530.469 114.643 530.385 114.426 530.237 114.231C529.995 113.954 529.575 113.815 528.977 113.815C528.579 113.815 528.276 113.891 528.069 114.043C527.866 114.196 527.764 114.397 527.764 114.647C527.764 114.92 527.899 115.139 528.169 115.303C528.325 115.401 528.555 115.487 528.86 115.561L529.557 115.731C530.315 115.915 530.823 116.092 531.081 116.264C531.491 116.534 531.696 116.958 531.696 117.536C531.696 118.094 531.483 118.577 531.057 118.983C530.635 119.389 529.991 119.592 529.124 119.592C528.19 119.592 527.528 119.381 527.137 118.959C526.751 118.534 526.544 118.008 526.516 117.383H527.53ZM534.074 111.325H535.14V113.077H536.142V113.938H535.14V118.034C535.14 118.252 535.215 118.399 535.363 118.473C535.445 118.516 535.582 118.538 535.773 118.538C535.824 118.538 535.879 118.538 535.937 118.538C535.996 118.534 536.064 118.528 536.142 118.52V119.352C536.021 119.387 535.894 119.413 535.761 119.428C535.632 119.444 535.492 119.452 535.34 119.452C534.847 119.452 534.513 119.327 534.338 119.077C534.162 118.823 534.074 118.495 534.074 118.092V113.938H533.224V113.077H534.074V111.325ZM540.776 112.936C541.221 112.936 541.653 113.042 542.071 113.252C542.489 113.459 542.807 113.729 543.026 114.061C543.237 114.377 543.378 114.747 543.448 115.168C543.51 115.458 543.542 115.918 543.542 116.551H538.942C538.962 117.188 539.112 117.7 539.393 118.086C539.675 118.469 540.11 118.661 540.7 118.661C541.251 118.661 541.69 118.479 542.018 118.116C542.206 117.905 542.339 117.661 542.417 117.383H543.454C543.426 117.614 543.335 117.872 543.178 118.157C543.026 118.438 542.854 118.668 542.663 118.848C542.342 119.161 541.946 119.372 541.473 119.481C541.219 119.543 540.932 119.575 540.612 119.575C539.831 119.575 539.169 119.292 538.626 118.725C538.083 118.155 537.811 117.358 537.811 116.334C537.811 115.327 538.085 114.508 538.632 113.879C539.178 113.25 539.893 112.936 540.776 112.936ZM542.458 115.713C542.415 115.256 542.315 114.891 542.159 114.618C541.87 114.11 541.387 113.856 540.712 113.856C540.227 113.856 539.821 114.032 539.493 114.383C539.165 114.731 538.991 115.174 538.971 115.713H542.458ZM545.802 113.077H546.804V113.967C547.101 113.6 547.416 113.336 547.748 113.176C548.08 113.016 548.449 112.936 548.855 112.936C549.746 112.936 550.347 113.247 550.66 113.868C550.832 114.208 550.918 114.694 550.918 115.327V119.352H549.845V115.397C549.845 115.014 549.789 114.706 549.676 114.471C549.488 114.081 549.148 113.885 548.656 113.885C548.406 113.885 548.201 113.911 548.041 113.961C547.752 114.047 547.498 114.219 547.279 114.477C547.103 114.684 546.988 114.899 546.933 115.122C546.883 115.34 546.857 115.655 546.857 116.065V119.352H545.802V113.077ZM557.953 111.325H559.019V113.077H560.021V113.938H559.019V118.034C559.019 118.252 559.094 118.399 559.242 118.473C559.324 118.516 559.461 118.538 559.652 118.538C559.703 118.538 559.758 118.538 559.816 118.538C559.875 118.534 559.943 118.528 560.021 118.52V119.352C559.9 119.387 559.773 119.413 559.64 119.428C559.512 119.444 559.371 119.452 559.219 119.452C558.726 119.452 558.392 119.327 558.217 119.077C558.041 118.823 557.953 118.495 557.953 118.092V113.938H557.103V113.077H557.953V111.325ZM564.532 118.672C565.231 118.672 565.71 118.409 565.968 117.881C566.229 117.35 566.36 116.76 566.36 116.112C566.36 115.526 566.266 115.049 566.079 114.682C565.782 114.104 565.27 113.815 564.544 113.815C563.899 113.815 563.431 114.061 563.138 114.553C562.845 115.045 562.698 115.639 562.698 116.334C562.698 117.002 562.845 117.559 563.138 118.004C563.431 118.45 563.895 118.672 564.532 118.672ZM564.573 112.895C565.382 112.895 566.065 113.165 566.624 113.704C567.182 114.243 567.462 115.036 567.462 116.083C567.462 117.094 567.216 117.93 566.724 118.59C566.231 119.25 565.468 119.581 564.432 119.581C563.569 119.581 562.884 119.29 562.376 118.708C561.868 118.122 561.614 117.336 561.614 116.352C561.614 115.297 561.882 114.458 562.417 113.833C562.952 113.208 563.671 112.895 564.573 112.895ZM573.981 113.077H574.983V113.967C575.28 113.6 575.595 113.336 575.927 113.176C576.259 113.016 576.628 112.936 577.034 112.936C577.925 112.936 578.526 113.247 578.839 113.868C579.011 114.208 579.097 114.694 579.097 115.327V119.352H578.024V115.397C578.024 115.014 577.968 114.706 577.854 114.471C577.667 114.081 577.327 113.885 576.835 113.885C576.585 113.885 576.38 113.911 576.22 113.961C575.931 114.047 575.677 114.219 575.458 114.477C575.282 114.684 575.167 114.899 575.112 115.122C575.061 115.34 575.036 115.655 575.036 116.065V119.352H573.981V113.077ZM584.234 112.936C584.68 112.936 585.111 113.042 585.529 113.252C585.947 113.459 586.266 113.729 586.484 114.061C586.695 114.377 586.836 114.747 586.906 115.168C586.969 115.458 587 115.918 587 116.551H582.4C582.42 117.188 582.57 117.7 582.852 118.086C583.133 118.469 583.568 118.661 584.158 118.661C584.709 118.661 585.148 118.479 585.477 118.116C585.664 117.905 585.797 117.661 585.875 117.383H586.912C586.885 117.614 586.793 117.872 586.637 118.157C586.484 118.438 586.312 118.668 586.121 118.848C585.801 119.161 585.404 119.372 584.932 119.481C584.678 119.543 584.391 119.575 584.07 119.575C583.289 119.575 582.627 119.292 582.084 118.725C581.541 118.155 581.27 117.358 581.27 116.334C581.27 115.327 581.543 114.508 582.09 113.879C582.637 113.25 583.352 112.936 584.234 112.936ZM585.916 115.713C585.873 115.256 585.773 114.891 585.617 114.618C585.328 114.11 584.846 113.856 584.17 113.856C583.686 113.856 583.279 114.032 582.951 114.383C582.623 114.731 582.449 115.174 582.43 115.713H585.916ZM589.747 113.077L590.954 118.022L592.179 113.077H593.362L594.593 117.993L595.876 113.077H596.931L595.108 119.352H594.013L592.735 114.495L591.499 119.352H590.403L588.593 113.077H589.747ZM603.193 113.077H604.235V113.967C604.485 113.659 604.712 113.434 604.915 113.293C605.263 113.055 605.657 112.936 606.099 112.936C606.599 112.936 607.001 113.059 607.306 113.305C607.478 113.446 607.634 113.653 607.775 113.926C608.009 113.59 608.284 113.342 608.601 113.182C608.917 113.018 609.273 112.936 609.667 112.936C610.511 112.936 611.085 113.241 611.39 113.85C611.554 114.178 611.636 114.62 611.636 115.174V119.352H610.54V114.993C610.54 114.575 610.435 114.288 610.224 114.131C610.017 113.975 609.763 113.897 609.462 113.897C609.048 113.897 608.691 114.036 608.39 114.313C608.093 114.59 607.944 115.053 607.944 115.702V119.352H606.872V115.256C606.872 114.831 606.821 114.52 606.72 114.325C606.56 114.032 606.261 113.885 605.823 113.885C605.425 113.885 605.062 114.04 604.734 114.348C604.409 114.657 604.247 115.215 604.247 116.024V119.352H603.193V113.077ZM615.203 113.077V117.243C615.203 117.563 615.254 117.825 615.356 118.028C615.543 118.403 615.893 118.59 616.404 118.59C617.139 118.59 617.639 118.262 617.904 117.606C618.049 117.254 618.121 116.772 618.121 116.159V113.077H619.176V119.352H618.18L618.192 118.426C618.055 118.665 617.885 118.866 617.682 119.03C617.279 119.358 616.791 119.522 616.217 119.522C615.322 119.522 614.713 119.223 614.389 118.625C614.213 118.305 614.125 117.877 614.125 117.342V113.077H615.203ZM622.415 117.383C622.446 117.735 622.534 118.004 622.679 118.192C622.945 118.532 623.405 118.702 624.062 118.702C624.452 118.702 624.796 118.618 625.093 118.45C625.39 118.278 625.538 118.014 625.538 117.659C625.538 117.389 625.419 117.184 625.181 117.043C625.029 116.958 624.728 116.858 624.279 116.745L623.441 116.534C622.905 116.401 622.511 116.252 622.257 116.088C621.804 115.803 621.577 115.409 621.577 114.905C621.577 114.311 621.79 113.831 622.216 113.463C622.646 113.096 623.222 112.913 623.945 112.913C624.89 112.913 625.571 113.19 625.989 113.745C626.251 114.096 626.378 114.475 626.37 114.881H625.374C625.355 114.643 625.271 114.426 625.122 114.231C624.88 113.954 624.46 113.815 623.863 113.815C623.464 113.815 623.161 113.891 622.954 114.043C622.751 114.196 622.65 114.397 622.65 114.647C622.65 114.92 622.784 115.139 623.054 115.303C623.21 115.401 623.441 115.487 623.745 115.561L624.443 115.731C625.2 115.915 625.708 116.092 625.966 116.264C626.376 116.534 626.581 116.958 626.581 117.536C626.581 118.094 626.368 118.577 625.943 118.983C625.521 119.389 624.876 119.592 624.009 119.592C623.075 119.592 622.413 119.381 622.023 118.959C621.636 118.534 621.429 118.008 621.402 117.383H622.415ZM628.748 113.106H629.821V119.352H628.748V113.106ZM628.748 110.745H629.821V111.94H628.748V110.745ZM634.8 112.895C635.507 112.895 636.081 113.067 636.523 113.411C636.968 113.754 637.236 114.346 637.325 115.186H636.3C636.238 114.799 636.095 114.479 635.872 114.225C635.65 113.967 635.292 113.838 634.8 113.838C634.128 113.838 633.648 114.167 633.359 114.823C633.171 115.249 633.077 115.774 633.077 116.399C633.077 117.028 633.21 117.557 633.476 117.987C633.741 118.417 634.159 118.631 634.73 118.631C635.167 118.631 635.513 118.499 635.767 118.233C636.025 117.963 636.202 117.596 636.3 117.131H637.325C637.208 117.963 636.915 118.573 636.447 118.959C635.978 119.342 635.378 119.534 634.648 119.534C633.827 119.534 633.173 119.235 632.685 118.637C632.197 118.036 631.952 117.286 631.952 116.387C631.952 115.286 632.22 114.428 632.755 113.815C633.29 113.202 633.972 112.895 634.8 112.895ZM639.592 118.075H640.817V119.352H639.592V118.075Z" fill="white"/>
</svg>
