<svg width="893" height="288" viewBox="0 0 893 288" fill="none" xmlns="http://www.w3.org/2000/svg">
<path d="M6.856 44V14.6H16.894C20.338 14.6 23.166 15.216 25.378 16.448C27.618 17.652 29.27 19.36 30.334 21.572C31.426 23.756 31.972 26.332 31.972 29.3C31.972 32.268 31.426 34.858 30.334 37.07C29.27 39.254 27.618 40.962 25.378 42.194C23.166 43.398 20.338 44 16.894 44H6.856ZM12.232 39.38H16.642C19.106 39.38 21.052 38.988 22.48 38.204C23.908 37.392 24.93 36.244 25.546 34.76C26.162 33.248 26.47 31.428 26.47 29.3C26.47 27.2 26.162 25.394 25.546 23.882C24.93 22.37 23.908 21.208 22.48 20.396C21.052 19.584 19.106 19.178 16.642 19.178H12.232V39.38ZM48.2654 44.504C46.2494 44.504 44.4294 44.042 42.8054 43.118C41.2094 42.194 39.9354 40.92 38.9834 39.296C38.0594 37.644 37.5974 35.74 37.5974 33.584C37.5974 31.428 38.0734 29.538 39.0254 27.914C39.9774 26.262 41.2514 24.974 42.8474 24.05C44.4714 23.126 46.2914 22.664 48.3074 22.664C50.2954 22.664 52.0874 23.126 53.6834 24.05C55.3074 24.974 56.5814 26.262 57.5054 27.914C58.4574 29.538 58.9334 31.428 58.9334 33.584C58.9334 35.74 58.4574 37.644 57.5054 39.296C56.5814 40.92 55.3074 42.194 53.6834 43.118C52.0594 44.042 50.2534 44.504 48.2654 44.504ZM48.2654 39.842C49.6654 39.842 50.8834 39.324 51.9194 38.288C52.9554 37.224 53.4734 35.656 53.4734 33.584C53.4734 31.512 52.9554 29.958 51.9194 28.922C50.8834 27.858 49.6794 27.326 48.3074 27.326C46.8794 27.326 45.6474 27.858 44.6114 28.922C43.6034 29.958 43.0994 31.512 43.0994 33.584C43.0994 35.656 43.6034 37.224 44.6114 38.288C45.6474 39.324 46.8654 39.842 48.2654 39.842ZM68.3181 19.934C67.3381 19.934 66.5261 19.64 65.8821 19.052C65.2661 18.464 64.9581 17.722 64.9581 16.826C64.9581 15.93 65.2661 15.202 65.8821 14.642C66.5261 14.054 67.3381 13.76 68.3181 13.76C69.2981 13.76 70.0961 14.054 70.7121 14.642C71.3561 15.202 71.6781 15.93 71.6781 16.826C71.6781 17.722 71.3561 18.464 70.7121 19.052C70.0961 19.64 69.2981 19.934 68.3181 19.934ZM65.6301 44V23.168H71.0061V44H65.6301ZM78.2973 44V23.168H83.0433L83.4633 26.696C84.1073 25.464 85.0313 24.484 86.2353 23.756C87.4673 23.028 88.9093 22.664 90.5613 22.664C93.1373 22.664 95.1393 23.476 96.5673 25.1C97.9953 26.724 98.7093 29.104 98.7093 32.24V44H93.3333V32.744C93.3333 30.952 92.9693 29.58 92.2413 28.628C91.5133 27.676 90.3793 27.2 88.8393 27.2C87.3273 27.2 86.0813 27.732 85.1013 28.796C84.1493 29.86 83.6733 31.344 83.6733 33.248V44H78.2973ZM114.35 37.784C113.342 37.784 112.404 37.672 111.536 37.448L109.982 39.002C110.458 39.254 111.102 39.464 111.914 39.632C112.726 39.8 114.042 39.968 115.862 40.136C118.634 40.388 120.65 41.046 121.91 42.11C123.17 43.174 123.8 44.644 123.8 46.52C123.8 47.752 123.464 48.914 122.792 50.006C122.12 51.126 121.084 52.022 119.684 52.694C118.284 53.394 116.492 53.744 114.308 53.744C111.34 53.744 108.946 53.184 107.126 52.064C105.306 50.972 104.396 49.32 104.396 47.108C104.396 45.232 105.306 43.608 107.126 42.236C106.566 41.984 106.076 41.718 105.656 41.438C105.264 41.158 104.914 40.864 104.606 40.556V39.59L108.26 35.726C106.636 34.298 105.824 32.464 105.824 30.224C105.824 28.824 106.16 27.55 106.832 26.402C107.532 25.254 108.512 24.344 109.772 23.672C111.032 23 112.558 22.664 114.35 22.664C115.526 22.664 116.618 22.832 117.626 23.168H125.522V26.444L121.952 26.696C122.512 27.76 122.792 28.936 122.792 30.224C122.792 31.624 122.456 32.898 121.784 34.046C121.112 35.194 120.132 36.104 118.844 36.776C117.584 37.448 116.086 37.784 114.35 37.784ZM114.35 33.668C115.442 33.668 116.338 33.374 117.038 32.786C117.766 32.198 118.13 31.358 118.13 30.266C118.13 29.174 117.766 28.334 117.038 27.746C116.338 27.158 115.442 26.864 114.35 26.864C113.202 26.864 112.278 27.158 111.578 27.746C110.878 28.334 110.528 29.174 110.528 30.266C110.528 31.358 110.878 32.198 111.578 32.786C112.278 33.374 113.202 33.668 114.35 33.668ZM109.31 46.562C109.31 47.598 109.786 48.368 110.738 48.872C111.718 49.404 112.908 49.67 114.308 49.67C115.652 49.67 116.744 49.39 117.584 48.83C118.424 48.298 118.844 47.57 118.844 46.646C118.844 45.89 118.564 45.26 118.004 44.756C117.472 44.252 116.394 43.944 114.77 43.832C113.622 43.748 112.558 43.622 111.578 43.454C110.766 43.902 110.178 44.392 109.814 44.924C109.478 45.456 109.31 46.002 109.31 46.562Z" fill="#371E37"/>
<g filter="url(#filter0_d)">
<rect x="4" y="76" width="275" height="204" fill="#371E37"/>
</g>
<path d="M61.9297 140V123.9H67.8407C69.1287 123.9 70.1867 124.122 71.0147 124.567C71.858 124.996 72.4867 125.587 72.9007 126.338C73.3147 127.074 73.5217 127.894 73.5217 128.799C73.5217 129.78 73.261 130.677 72.7397 131.49C72.2337 132.303 71.4363 132.893 70.3477 133.261L73.6827 140H70.3017L67.3117 133.652H64.8737V140H61.9297ZM64.8737 131.49H67.6567C68.638 131.49 69.3587 131.252 69.8187 130.777C70.2787 130.302 70.5087 129.673 70.5087 128.891C70.5087 128.124 70.2787 127.511 69.8187 127.051C69.374 126.591 68.6457 126.361 67.6337 126.361H64.8737V131.49ZM81.9575 140.276C80.8075 140.276 79.7878 140.031 78.8985 139.54C78.0091 139.049 77.3115 138.359 76.8055 137.47C76.2995 136.581 76.0465 135.553 76.0465 134.388C76.0465 133.207 76.2918 132.157 76.7825 131.237C77.2885 130.317 77.9785 129.604 78.8525 129.098C79.7418 128.577 80.7845 128.316 81.9805 128.316C83.0998 128.316 84.0888 128.561 84.9475 129.052C85.8061 129.543 86.4731 130.217 86.9485 131.076C87.4391 131.919 87.6845 132.862 87.6845 133.905C87.6845 134.074 87.6768 134.25 87.6615 134.434C87.6615 134.618 87.6538 134.81 87.6385 135.009H78.9675C79.0288 135.898 79.3355 136.596 79.8875 137.102C80.4548 137.608 81.1371 137.861 81.9345 137.861C82.5325 137.861 83.0308 137.731 83.4295 137.47C83.8435 137.194 84.1501 136.841 84.3495 136.412H87.3395C87.1248 137.133 86.7645 137.792 86.2585 138.39C85.7678 138.973 85.1545 139.433 84.4185 139.77C83.6978 140.107 82.8775 140.276 81.9575 140.276ZM81.9805 130.708C81.2598 130.708 80.6235 130.915 80.0715 131.329C79.5195 131.728 79.1668 132.341 79.0135 133.169H84.6945C84.6485 132.418 84.3725 131.82 83.8665 131.375C83.3605 130.93 82.7318 130.708 81.9805 130.708ZM96.6696 140.276C95.5042 140.276 94.4769 140.023 93.5876 139.517C92.6982 139.011 91.9929 138.306 91.4716 137.401C90.9656 136.496 90.7126 135.461 90.7126 134.296C90.7126 133.131 90.9656 132.096 91.4716 131.191C91.9929 130.286 92.6982 129.581 93.5876 129.075C94.4769 128.569 95.5042 128.316 96.6696 128.316C98.1262 128.316 99.3529 128.699 100.35 129.466C101.346 130.217 101.983 131.26 102.259 132.594H99.1536C99.0002 132.042 98.6936 131.613 98.2336 131.306C97.7889 130.984 97.2599 130.823 96.6466 130.823C95.8339 130.823 95.1439 131.13 94.5766 131.743C94.0092 132.356 93.7256 133.207 93.7256 134.296C93.7256 135.385 94.0092 136.236 94.5766 136.849C95.1439 137.462 95.8339 137.769 96.6466 137.769C97.2599 137.769 97.7889 137.616 98.2336 137.309C98.6936 137.002 99.0002 136.565 99.1536 135.998H102.259C101.983 137.286 101.346 138.321 100.35 139.103C99.3529 139.885 98.1262 140.276 96.6696 140.276ZM109.725 140.276C108.743 140.276 107.938 140.123 107.31 139.816C106.681 139.494 106.213 139.072 105.907 138.551C105.6 138.03 105.447 137.455 105.447 136.826C105.447 135.768 105.861 134.909 106.689 134.25C107.517 133.591 108.759 133.261 110.415 133.261H113.313V132.985C113.313 132.203 113.09 131.628 112.646 131.26C112.201 130.892 111.649 130.708 110.99 130.708C110.392 130.708 109.87 130.854 109.426 131.145C108.981 131.421 108.705 131.835 108.598 132.387H105.723C105.799 131.559 106.075 130.838 106.551 130.225C107.041 129.612 107.67 129.144 108.437 128.822C109.203 128.485 110.062 128.316 111.013 128.316C112.638 128.316 113.918 128.722 114.854 129.535C115.789 130.348 116.257 131.498 116.257 132.985V140H113.75L113.474 138.16C113.136 138.773 112.661 139.279 112.048 139.678C111.45 140.077 110.675 140.276 109.725 140.276ZM110.392 137.976C111.235 137.976 111.887 137.7 112.347 137.148C112.822 136.596 113.121 135.914 113.244 135.101H110.737C109.955 135.101 109.395 135.247 109.058 135.538C108.72 135.814 108.552 136.159 108.552 136.573C108.552 137.018 108.72 137.363 109.058 137.608C109.395 137.853 109.84 137.976 110.392 137.976ZM119.986 140V123.44H122.93V140H119.986ZM126.858 140V123.44H129.802V140H126.858ZM146.893 140.276C146.034 140.276 145.283 140.115 144.639 139.793C143.995 139.471 143.473 139.019 143.075 138.436L142.753 140H140.131V123.44H143.075V130.225C143.443 129.719 143.926 129.274 144.524 128.891C145.137 128.508 145.927 128.316 146.893 128.316C147.966 128.316 148.924 128.577 149.768 129.098C150.611 129.619 151.278 130.332 151.769 131.237C152.259 132.142 152.505 133.169 152.505 134.319C152.505 135.469 152.259 136.496 151.769 137.401C151.278 138.29 150.611 138.996 149.768 139.517C148.924 140.023 147.966 140.276 146.893 140.276ZM146.272 137.7C147.207 137.7 147.981 137.386 148.595 136.757C149.208 136.128 149.515 135.316 149.515 134.319C149.515 133.322 149.208 132.502 148.595 131.858C147.981 131.214 147.207 130.892 146.272 130.892C145.321 130.892 144.539 131.214 143.926 131.858C143.328 132.487 143.029 133.299 143.029 134.296C143.029 135.293 143.328 136.113 143.926 136.757C144.539 137.386 145.321 137.7 146.272 137.7ZM156.055 140V128.592H158.677L158.953 130.731C159.367 129.995 159.926 129.412 160.632 128.983C161.352 128.538 162.196 128.316 163.162 128.316V131.421H162.334C161.69 131.421 161.115 131.521 160.609 131.72C160.103 131.919 159.704 132.264 159.413 132.755C159.137 133.246 158.999 133.928 158.999 134.802V140H156.055ZM170.027 140.276C169.045 140.276 168.24 140.123 167.612 139.816C166.983 139.494 166.515 139.072 166.209 138.551C165.902 138.03 165.749 137.455 165.749 136.826C165.749 135.768 166.163 134.909 166.991 134.25C167.819 133.591 169.061 133.261 170.717 133.261H173.615V132.985C173.615 132.203 173.392 131.628 172.948 131.26C172.503 130.892 171.951 130.708 171.292 130.708C170.694 130.708 170.172 130.854 169.728 131.145C169.283 131.421 169.007 131.835 168.9 132.387H166.025C166.101 131.559 166.377 130.838 166.853 130.225C167.343 129.612 167.972 129.144 168.739 128.822C169.505 128.485 170.364 128.316 171.315 128.316C172.94 128.316 174.22 128.722 175.156 129.535C176.091 130.348 176.559 131.498 176.559 132.985V140H174.052L173.776 138.16C173.438 138.773 172.963 139.279 172.35 139.678C171.752 140.077 170.977 140.276 170.027 140.276ZM170.694 137.976C171.537 137.976 172.189 137.7 172.649 137.148C173.124 136.596 173.423 135.914 173.546 135.101H171.039C170.257 135.101 169.697 135.247 169.36 135.538C169.022 135.814 168.854 136.159 168.854 136.573C168.854 137.018 169.022 137.363 169.36 137.608C169.697 137.853 170.142 137.976 170.694 137.976ZM180.288 140V128.592H182.887L183.117 130.524C183.47 129.849 183.976 129.313 184.635 128.914C185.31 128.515 186.1 128.316 187.004 128.316C188.415 128.316 189.511 128.761 190.293 129.65C191.075 130.539 191.466 131.843 191.466 133.56V140H188.522V133.836C188.522 132.855 188.323 132.103 187.924 131.582C187.526 131.061 186.905 130.8 186.061 130.8C185.233 130.8 184.551 131.091 184.014 131.674C183.493 132.257 183.232 133.069 183.232 134.112V140H180.288ZM200.445 140.276C199.372 140.276 198.414 140.015 197.57 139.494C196.727 138.973 196.06 138.26 195.569 137.355C195.079 136.45 194.833 135.423 194.833 134.273C194.833 133.123 195.079 132.103 195.569 131.214C196.06 130.309 196.727 129.604 197.57 129.098C198.414 128.577 199.372 128.316 200.445 128.316C201.304 128.316 202.055 128.477 202.699 128.799C203.343 129.121 203.865 129.573 204.263 130.156V123.44H207.207V140H204.585L204.263 138.367C203.895 138.873 203.405 139.318 202.791 139.701C202.193 140.084 201.411 140.276 200.445 140.276ZM201.066 137.7C202.017 137.7 202.791 137.386 203.389 136.757C204.003 136.113 204.309 135.293 204.309 134.296C204.309 133.299 204.003 132.487 203.389 131.858C202.791 131.214 202.017 130.892 201.066 130.892C200.131 130.892 199.357 131.206 198.743 131.835C198.13 132.464 197.823 133.276 197.823 134.273C197.823 135.27 198.13 136.09 198.743 136.734C199.357 137.378 200.131 137.7 201.066 137.7ZM215.84 140.276C214.828 140.276 213.939 140.115 213.172 139.793C212.406 139.456 211.792 138.996 211.332 138.413C210.872 137.83 210.596 137.156 210.504 136.389H213.471C213.563 136.834 213.809 137.217 214.207 137.539C214.621 137.846 215.15 137.999 215.794 137.999C216.438 137.999 216.906 137.869 217.197 137.608C217.504 137.347 217.657 137.048 217.657 136.711C217.657 136.22 217.443 135.891 217.013 135.722C216.584 135.538 215.986 135.362 215.219 135.193C214.729 135.086 214.23 134.955 213.724 134.802C213.218 134.649 212.751 134.457 212.321 134.227C211.907 133.982 211.57 133.675 211.309 133.307C211.049 132.924 210.918 132.456 210.918 131.904C210.918 130.892 211.317 130.041 212.114 129.351C212.927 128.661 214.062 128.316 215.518 128.316C216.868 128.316 217.941 128.63 218.738 129.259C219.551 129.888 220.034 130.754 220.187 131.858H217.404C217.236 131.015 216.599 130.593 215.495 130.593C214.943 130.593 214.514 130.7 214.207 130.915C213.916 131.13 213.77 131.398 213.77 131.72C213.77 132.057 213.993 132.326 214.437 132.525C214.882 132.724 215.472 132.908 216.208 133.077C217.006 133.261 217.734 133.468 218.393 133.698C219.068 133.913 219.605 134.242 220.003 134.687C220.402 135.116 220.601 135.737 220.601 136.55C220.617 137.255 220.433 137.892 220.049 138.459C219.666 139.026 219.114 139.471 218.393 139.793C217.673 140.115 216.822 140.276 215.84 140.276ZM52.7942 170C51.5982 170 50.6398 169.709 49.9192 169.126C49.1985 168.543 48.8382 167.508 48.8382 166.021V161.053H46.8832V158.592H48.8382L49.1832 155.533H51.7822V158.592H54.8642V161.053H51.7822V166.044C51.7822 166.596 51.8972 166.979 52.1272 167.194C52.3725 167.393 52.7865 167.493 53.3692 167.493H54.7952V170H52.7942ZM58.3118 170V153.44H61.2558V160.34C61.6392 159.711 62.1528 159.221 62.7968 158.868C63.4562 158.5 64.2075 158.316 65.0508 158.316C66.4615 158.316 67.5502 158.761 68.3168 159.65C69.0988 160.539 69.4898 161.843 69.4898 163.56V170H66.5688V163.836C66.5688 162.855 66.3695 162.103 65.9708 161.582C65.5875 161.061 64.9742 160.8 64.1308 160.8C63.3028 160.8 62.6128 161.091 62.0608 161.674C61.5242 162.257 61.2558 163.069 61.2558 164.112V170H58.3118ZM77.158 170.276C76.1767 170.276 75.3717 170.123 74.743 169.816C74.1143 169.494 73.6467 169.072 73.34 168.551C73.0333 168.03 72.88 167.455 72.88 166.826C72.88 165.768 73.294 164.909 74.122 164.25C74.95 163.591 76.192 163.261 77.848 163.261H80.746V162.985C80.746 162.203 80.5237 161.628 80.079 161.26C79.6343 160.892 79.0823 160.708 78.423 160.708C77.825 160.708 77.3037 160.854 76.859 161.145C76.4143 161.421 76.1383 161.835 76.031 162.387H73.156C73.2327 161.559 73.5087 160.838 73.984 160.225C74.4747 159.612 75.1033 159.144 75.87 158.822C76.6367 158.485 77.4953 158.316 78.446 158.316C80.0713 158.316 81.3517 158.722 82.287 159.535C83.2223 160.348 83.69 161.498 83.69 162.985V170H81.183L80.907 168.16C80.5697 168.773 80.0943 169.279 79.481 169.678C78.883 170.077 78.1087 170.276 77.158 170.276ZM77.825 167.976C78.6683 167.976 79.32 167.7 79.78 167.148C80.2553 166.596 80.5543 165.914 80.677 165.101H78.17C77.388 165.101 76.8283 165.247 76.491 165.538C76.1537 165.814 75.985 166.159 75.985 166.573C75.985 167.018 76.1537 167.363 76.491 167.608C76.8283 167.853 77.273 167.976 77.825 167.976ZM92.3452 170C91.1492 170 90.1909 169.709 89.4702 169.126C88.7495 168.543 88.3892 167.508 88.3892 166.021V161.053H86.4342V158.592H88.3892L88.7342 155.533H91.3332V158.592H94.4152V161.053H91.3332V166.044C91.3332 166.596 91.4482 166.979 91.6782 167.194C91.9235 167.393 92.3375 167.493 92.9202 167.493H94.3462V170H92.3452ZM105.85 156.821C105.314 156.821 104.869 156.66 104.516 156.338C104.179 156.016 104.01 155.61 104.01 155.119C104.01 154.628 104.179 154.23 104.516 153.923C104.869 153.601 105.314 153.44 105.85 153.44C106.387 153.44 106.824 153.601 107.161 153.923C107.514 154.23 107.69 154.628 107.69 155.119C107.69 155.61 107.514 156.016 107.161 156.338C106.824 156.66 106.387 156.821 105.85 156.821ZM104.378 170V158.592H107.322V170H104.378ZM111.315 170V158.592H113.914L114.144 160.524C114.497 159.849 115.003 159.313 115.662 158.914C116.337 158.515 117.126 158.316 118.031 158.316C119.442 158.316 120.538 158.761 121.32 159.65C122.102 160.539 122.493 161.843 122.493 163.56V170H119.549V163.836C119.549 162.855 119.35 162.103 118.951 161.582C118.552 161.061 117.931 160.8 117.088 160.8C116.26 160.8 115.578 161.091 115.041 161.674C114.52 162.257 114.259 163.069 114.259 164.112V170H111.315ZM126.757 170V161.053H125.193V158.592H126.757V157.258C126.757 155.878 127.102 154.897 127.792 154.314C128.498 153.731 129.448 153.44 130.644 153.44H131.909V155.947H131.104C130.598 155.947 130.238 156.047 130.023 156.246C129.809 156.445 129.701 156.783 129.701 157.258V158.592H132.162V161.053H129.701V170H126.757ZM134.485 170V153.44H137.429V170H134.485ZM152.36 158.592V170H149.761L149.531 168.068C149.178 168.743 148.665 169.279 147.99 169.678C147.331 170.077 146.549 170.276 145.644 170.276C144.233 170.276 143.137 169.831 142.355 168.942C141.573 168.053 141.182 166.749 141.182 165.032V158.592H144.126V164.756C144.126 165.737 144.325 166.489 144.724 167.01C145.123 167.531 145.744 167.792 146.587 167.792C147.415 167.792 148.09 167.501 148.611 166.918C149.148 166.335 149.416 165.523 149.416 164.48V158.592H152.36ZM161.822 170.276C160.672 170.276 159.653 170.031 158.763 169.54C157.874 169.049 157.176 168.359 156.67 167.47C156.164 166.581 155.911 165.553 155.911 164.388C155.911 163.207 156.157 162.157 156.647 161.237C157.153 160.317 157.843 159.604 158.717 159.098C159.607 158.577 160.649 158.316 161.845 158.316C162.965 158.316 163.954 158.561 164.812 159.052C165.671 159.543 166.338 160.217 166.813 161.076C167.304 161.919 167.549 162.862 167.549 163.905C167.549 164.074 167.542 164.25 167.526 164.434C167.526 164.618 167.519 164.81 167.503 165.009H158.832C158.894 165.898 159.2 166.596 159.752 167.102C160.32 167.608 161.002 167.861 161.799 167.861C162.397 167.861 162.896 167.731 163.294 167.47C163.708 167.194 164.015 166.841 164.214 166.412H167.204C166.99 167.133 166.629 167.792 166.123 168.39C165.633 168.973 165.019 169.433 164.283 169.77C163.563 170.107 162.742 170.276 161.822 170.276ZM161.845 160.708C161.125 160.708 160.488 160.915 159.936 161.329C159.384 161.728 159.032 162.341 158.878 163.169H164.559C164.513 162.418 164.237 161.82 163.731 161.375C163.225 160.93 162.597 160.708 161.845 160.708ZM170.945 170V158.592H173.544L173.774 160.524C174.127 159.849 174.633 159.313 175.292 158.914C175.967 158.515 176.757 158.316 177.661 158.316C179.072 158.316 180.168 158.761 180.95 159.65C181.732 160.539 182.123 161.843 182.123 163.56V170H179.179V163.836C179.179 162.855 178.98 162.103 178.581 161.582C178.183 161.061 177.562 160.8 176.718 160.8C175.89 160.8 175.208 161.091 174.671 161.674C174.15 162.257 173.889 163.069 173.889 164.112V170H170.945ZM191.448 170.276C190.282 170.276 189.255 170.023 188.366 169.517C187.476 169.011 186.771 168.306 186.25 167.401C185.744 166.496 185.491 165.461 185.491 164.296C185.491 163.131 185.744 162.096 186.25 161.191C186.771 160.286 187.476 159.581 188.366 159.075C189.255 158.569 190.282 158.316 191.448 158.316C192.904 158.316 194.131 158.699 195.128 159.466C196.124 160.217 196.761 161.26 197.037 162.594H193.932C193.778 162.042 193.472 161.613 193.012 161.306C192.567 160.984 192.038 160.823 191.425 160.823C190.612 160.823 189.922 161.13 189.355 161.743C188.787 162.356 188.504 163.207 188.504 164.296C188.504 165.385 188.787 166.236 189.355 166.849C189.922 167.462 190.612 167.769 191.425 167.769C192.038 167.769 192.567 167.616 193.012 167.309C193.472 167.002 193.778 166.565 193.932 165.998H197.037C196.761 167.286 196.124 168.321 195.128 169.103C194.131 169.885 192.904 170.276 191.448 170.276ZM206.113 170.276C204.963 170.276 203.943 170.031 203.054 169.54C202.164 169.049 201.467 168.359 200.961 167.47C200.455 166.581 200.202 165.553 200.202 164.388C200.202 163.207 200.447 162.157 200.938 161.237C201.444 160.317 202.134 159.604 203.008 159.098C203.897 158.577 204.94 158.316 206.136 158.316C207.255 158.316 208.244 158.561 209.103 159.052C209.961 159.543 210.628 160.217 211.104 161.076C211.594 161.919 211.84 162.862 211.84 163.905C211.84 164.074 211.832 164.25 211.817 164.434C211.817 164.618 211.809 164.81 211.794 165.009H203.123C203.184 165.898 203.491 166.596 204.043 167.102C204.61 167.608 205.292 167.861 206.09 167.861C206.688 167.861 207.186 167.731 207.585 167.47C207.999 167.194 208.305 166.841 208.505 166.412H211.495C211.28 167.133 210.92 167.792 210.414 168.39C209.923 168.973 209.31 169.433 208.574 169.77C207.853 170.107 207.033 170.276 206.113 170.276ZM206.136 160.708C205.415 160.708 204.779 160.915 204.227 161.329C203.675 161.728 203.322 162.341 203.169 163.169H208.85C208.804 162.418 208.528 161.82 208.022 161.375C207.516 160.93 206.887 160.708 206.136 160.708ZM215.236 170V158.592H217.858L218.134 160.731C218.548 159.995 219.107 159.412 219.813 158.983C220.533 158.538 221.377 158.316 222.343 158.316V161.421H221.515C220.871 161.421 220.296 161.521 219.79 161.72C219.284 161.919 218.885 162.264 218.594 162.755C218.318 163.246 218.18 163.928 218.18 164.802V170H215.236ZM229.99 170.276C228.978 170.276 228.088 170.115 227.322 169.793C226.555 169.456 225.942 168.996 225.482 168.413C225.022 167.83 224.746 167.156 224.654 166.389H227.621C227.713 166.834 227.958 167.217 228.357 167.539C228.771 167.846 229.3 167.999 229.944 167.999C230.588 167.999 231.055 167.869 231.347 167.608C231.653 167.347 231.807 167.048 231.807 166.711C231.807 166.22 231.592 165.891 231.163 165.722C230.733 165.538 230.135 165.362 229.369 165.193C228.878 165.086 228.38 164.955 227.874 164.802C227.368 164.649 226.9 164.457 226.471 164.227C226.057 163.982 225.719 163.675 225.459 163.307C225.198 162.924 225.068 162.456 225.068 161.904C225.068 160.892 225.466 160.041 226.264 159.351C227.076 158.661 228.211 158.316 229.668 158.316C231.017 158.316 232.09 158.63 232.888 159.259C233.7 159.888 234.183 160.754 234.337 161.858H231.554C231.385 161.015 230.749 160.593 229.645 160.593C229.093 160.593 228.663 160.7 228.357 160.915C228.065 161.13 227.92 161.398 227.92 161.72C227.92 162.057 228.142 162.326 228.587 162.525C229.031 162.724 229.622 162.908 230.358 163.077C231.155 163.261 231.883 163.468 232.543 163.698C233.217 163.913 233.754 164.242 234.153 164.687C234.551 165.116 234.751 165.737 234.751 166.55C234.766 167.255 234.582 167.892 234.199 168.459C233.815 169.026 233.263 169.471 232.543 169.793C231.822 170.115 230.971 170.276 229.99 170.276ZM70.2027 200.276C69.1907 200.276 68.3013 200.115 67.5347 199.793C66.768 199.456 66.1547 198.996 65.6947 198.413C65.2347 197.83 64.9587 197.156 64.8667 196.389H67.8337C67.9257 196.834 68.171 197.217 68.5697 197.539C68.9837 197.846 69.5127 197.999 70.1567 197.999C70.8007 197.999 71.2683 197.869 71.5597 197.608C71.8663 197.347 72.0197 197.048 72.0197 196.711C72.0197 196.22 71.805 195.891 71.3757 195.722C70.9463 195.538 70.3483 195.362 69.5817 195.193C69.091 195.086 68.5927 194.955 68.0867 194.802C67.5807 194.649 67.113 194.457 66.6837 194.227C66.2697 193.982 65.9323 193.675 65.6717 193.307C65.411 192.924 65.2807 192.456 65.2807 191.904C65.2807 190.892 65.6793 190.041 66.4767 189.351C67.2893 188.661 68.424 188.316 69.8807 188.316C71.23 188.316 72.3033 188.63 73.1007 189.259C73.9133 189.888 74.3963 190.754 74.5497 191.858H71.7667C71.598 191.015 70.9617 190.593 69.8577 190.593C69.3057 190.593 68.8763 190.7 68.5697 190.915C68.2783 191.13 68.1327 191.398 68.1327 191.72C68.1327 192.057 68.355 192.326 68.7997 192.525C69.2443 192.724 69.8347 192.908 70.5707 193.077C71.368 193.261 72.0963 193.468 72.7557 193.698C73.4303 193.913 73.967 194.242 74.3657 194.687C74.7643 195.116 74.9637 195.737 74.9637 196.55C74.979 197.255 74.795 197.892 74.4117 198.459C74.0283 199.026 73.4763 199.471 72.7557 199.793C72.035 200.115 71.184 200.276 70.2027 200.276ZM89.4857 188.592V200H86.8867L86.6567 198.068C86.304 198.743 85.7903 199.279 85.1157 199.678C84.4563 200.077 83.6743 200.276 82.7697 200.276C81.359 200.276 80.2627 199.831 79.4807 198.942C78.6987 198.053 78.3077 196.749 78.3077 195.032V188.592H81.2517V194.756C81.2517 195.737 81.451 196.489 81.8497 197.01C82.2483 197.531 82.8693 197.792 83.7127 197.792C84.5407 197.792 85.2153 197.501 85.7367 196.918C86.2733 196.335 86.5417 195.523 86.5417 194.48V188.592H89.4857ZM98.2348 196.596C97.6828 196.596 97.1692 196.535 96.6938 196.412L95.8428 197.263C96.1035 197.401 96.4562 197.516 96.9008 197.608C97.3455 197.7 98.0662 197.792 99.0628 197.884C100.581 198.022 101.685 198.382 102.375 198.965C103.065 199.548 103.41 200.353 103.41 201.38C103.41 202.055 103.226 202.691 102.858 203.289C102.49 203.902 101.922 204.393 101.156 204.761C100.389 205.144 99.4078 205.336 98.2118 205.336C96.5865 205.336 95.2755 205.029 94.2788 204.416C93.2822 203.818 92.7838 202.913 92.7838 201.702C92.7838 200.675 93.2822 199.785 94.2788 199.034C93.9722 198.896 93.7038 198.75 93.4738 198.597C93.2592 198.444 93.0675 198.283 92.8988 198.114V197.585L94.8998 195.469C94.0105 194.687 93.5658 193.683 93.5658 192.456C93.5658 191.689 93.7498 190.992 94.1178 190.363C94.5012 189.734 95.0378 189.236 95.7278 188.868C96.4178 188.5 97.2535 188.316 98.2348 188.316C98.8788 188.316 99.4768 188.408 100.029 188.592H104.353V190.386L102.398 190.524C102.704 191.107 102.858 191.751 102.858 192.456C102.858 193.223 102.674 193.92 102.306 194.549C101.938 195.178 101.401 195.676 100.696 196.044C100.006 196.412 99.1855 196.596 98.2348 196.596ZM98.2348 194.342C98.8328 194.342 99.3235 194.181 99.7068 193.859C100.105 193.537 100.305 193.077 100.305 192.479C100.305 191.881 100.105 191.421 99.7068 191.099C99.3235 190.777 98.8328 190.616 98.2348 190.616C97.6062 190.616 97.1002 190.777 96.7168 191.099C96.3335 191.421 96.1418 191.881 96.1418 192.479C96.1418 193.077 96.3335 193.537 96.7168 193.859C97.1002 194.181 97.6062 194.342 98.2348 194.342ZM95.4748 201.403C95.4748 201.97 95.7355 202.392 96.2568 202.668C96.7935 202.959 97.4452 203.105 98.2118 203.105C98.9478 203.105 99.5458 202.952 100.006 202.645C100.466 202.354 100.696 201.955 100.696 201.449C100.696 201.035 100.542 200.69 100.236 200.414C99.9445 200.138 99.3542 199.969 98.4648 199.908C97.8362 199.862 97.2535 199.793 96.7168 199.701C96.2722 199.946 95.9502 200.215 95.7508 200.506C95.5668 200.797 95.4748 201.096 95.4748 201.403ZM112.25 196.596C111.698 196.596 111.184 196.535 110.709 196.412L109.858 197.263C110.118 197.401 110.471 197.516 110.916 197.608C111.36 197.7 112.081 197.792 113.078 197.884C114.596 198.022 115.7 198.382 116.39 198.965C117.08 199.548 117.425 200.353 117.425 201.38C117.425 202.055 117.241 202.691 116.873 203.289C116.505 203.902 115.937 204.393 115.171 204.761C114.404 205.144 113.423 205.336 112.227 205.336C110.601 205.336 109.29 205.029 108.294 204.416C107.297 203.818 106.799 202.913 106.799 201.702C106.799 200.675 107.297 199.785 108.294 199.034C107.987 198.896 107.719 198.75 107.489 198.597C107.274 198.444 107.082 198.283 106.914 198.114V197.585L108.915 195.469C108.025 194.687 107.581 193.683 107.581 192.456C107.581 191.689 107.765 190.992 108.133 190.363C108.516 189.734 109.053 189.236 109.743 188.868C110.433 188.5 111.268 188.316 112.25 188.316C112.894 188.316 113.492 188.408 114.044 188.592H118.368V190.386L116.413 190.524C116.719 191.107 116.873 191.751 116.873 192.456C116.873 193.223 116.689 193.92 116.321 194.549C115.953 195.178 115.416 195.676 114.711 196.044C114.021 196.412 113.2 196.596 112.25 196.596ZM112.25 194.342C112.848 194.342 113.338 194.181 113.722 193.859C114.12 193.537 114.32 193.077 114.32 192.479C114.32 191.881 114.12 191.421 113.722 191.099C113.338 190.777 112.848 190.616 112.25 190.616C111.621 190.616 111.115 190.777 110.732 191.099C110.348 191.421 110.157 191.881 110.157 192.479C110.157 193.077 110.348 193.537 110.732 193.859C111.115 194.181 111.621 194.342 112.25 194.342ZM109.49 201.403C109.49 201.97 109.75 202.392 110.272 202.668C110.808 202.959 111.46 203.105 112.227 203.105C112.963 203.105 113.561 202.952 114.021 202.645C114.481 202.354 114.711 201.955 114.711 201.449C114.711 201.035 114.557 200.69 114.251 200.414C113.959 200.138 113.369 199.969 112.48 199.908C111.851 199.862 111.268 199.793 110.732 199.701C110.287 199.946 109.965 200.215 109.766 200.506C109.582 200.797 109.49 201.096 109.49 201.403ZM126.528 200.276C125.378 200.276 124.358 200.031 123.469 199.54C122.58 199.049 121.882 198.359 121.376 197.47C120.87 196.581 120.617 195.553 120.617 194.388C120.617 193.207 120.862 192.157 121.353 191.237C121.859 190.317 122.549 189.604 123.423 189.098C124.312 188.577 125.355 188.316 126.551 188.316C127.67 188.316 128.659 188.561 129.518 189.052C130.377 189.543 131.044 190.217 131.519 191.076C132.01 191.919 132.255 192.862 132.255 193.905C132.255 194.074 132.247 194.25 132.232 194.434C132.232 194.618 132.224 194.81 132.209 195.009H123.538C123.599 195.898 123.906 196.596 124.458 197.102C125.025 197.608 125.708 197.861 126.505 197.861C127.103 197.861 127.601 197.731 128 197.47C128.414 197.194 128.721 196.841 128.92 196.412H131.91C131.695 197.133 131.335 197.792 130.829 198.39C130.338 198.973 129.725 199.433 128.989 199.77C128.268 200.107 127.448 200.276 126.528 200.276ZM126.551 190.708C125.83 190.708 125.194 190.915 124.642 191.329C124.09 191.728 123.737 192.341 123.584 193.169H129.265C129.219 192.418 128.943 191.82 128.437 191.375C127.931 190.93 127.302 190.708 126.551 190.708ZM140.366 200.276C139.354 200.276 138.465 200.115 137.698 199.793C136.931 199.456 136.318 198.996 135.858 198.413C135.398 197.83 135.122 197.156 135.03 196.389H137.997C138.089 196.834 138.334 197.217 138.733 197.539C139.147 197.846 139.676 197.999 140.32 197.999C140.964 197.999 141.432 197.869 141.723 197.608C142.03 197.347 142.183 197.048 142.183 196.711C142.183 196.22 141.968 195.891 141.539 195.722C141.11 195.538 140.512 195.362 139.745 195.193C139.254 195.086 138.756 194.955 138.25 194.802C137.744 194.649 137.276 194.457 136.847 194.227C136.433 193.982 136.096 193.675 135.835 193.307C135.574 192.924 135.444 192.456 135.444 191.904C135.444 190.892 135.843 190.041 136.64 189.351C137.453 188.661 138.587 188.316 140.044 188.316C141.393 188.316 142.467 188.63 143.264 189.259C144.077 189.888 144.56 190.754 144.713 191.858H141.93C141.761 191.015 141.125 190.593 140.021 190.593C139.469 190.593 139.04 190.7 138.733 190.915C138.442 191.13 138.296 191.398 138.296 191.72C138.296 192.057 138.518 192.326 138.963 192.525C139.408 192.724 139.998 192.908 140.734 193.077C141.531 193.261 142.26 193.468 142.919 193.698C143.594 193.913 144.13 194.242 144.529 194.687C144.928 195.116 145.127 195.737 145.127 196.55C145.142 197.255 144.958 197.892 144.575 198.459C144.192 199.026 143.64 199.471 142.919 199.793C142.198 200.115 141.347 200.276 140.366 200.276ZM153.379 200C152.183 200 151.224 199.709 150.504 199.126C149.783 198.543 149.423 197.508 149.423 196.021V191.053H147.468V188.592H149.423L149.768 185.533H152.367V188.592H155.449V191.053H152.367V196.044C152.367 196.596 152.482 196.979 152.712 197.194C152.957 197.393 153.371 197.493 153.954 197.493H155.38V200H153.379ZM164.147 200.276C162.997 200.276 161.978 200.031 161.088 199.54C160.199 199.049 159.501 198.359 158.995 197.47C158.489 196.581 158.236 195.553 158.236 194.388C158.236 193.207 158.482 192.157 158.972 191.237C159.478 190.317 160.168 189.604 161.042 189.098C161.932 188.577 162.974 188.316 164.17 188.316C165.29 188.316 166.279 188.561 167.137 189.052C167.996 189.543 168.663 190.217 169.138 191.076C169.629 191.919 169.874 192.862 169.874 193.905C169.874 194.074 169.867 194.25 169.851 194.434C169.851 194.618 169.844 194.81 169.828 195.009H161.157C161.219 195.898 161.525 196.596 162.077 197.102C162.645 197.608 163.327 197.861 164.124 197.861C164.722 197.861 165.221 197.731 165.619 197.47C166.033 197.194 166.34 196.841 166.539 196.412H169.529C169.315 197.133 168.954 197.792 168.448 198.39C167.958 198.973 167.344 199.433 166.608 199.77C165.888 200.107 165.067 200.276 164.147 200.276ZM164.17 190.708C163.45 190.708 162.813 190.915 162.261 191.329C161.709 191.728 161.357 192.341 161.203 193.169H166.884C166.838 192.418 166.562 191.82 166.056 191.375C165.55 190.93 164.922 190.708 164.17 190.708ZM178.515 200.276C177.441 200.276 176.483 200.015 175.64 199.494C174.796 198.973 174.129 198.26 173.639 197.355C173.148 196.45 172.903 195.423 172.903 194.273C172.903 193.123 173.148 192.103 173.639 191.214C174.129 190.309 174.796 189.604 175.64 189.098C176.483 188.577 177.441 188.316 178.515 188.316C179.373 188.316 180.125 188.477 180.769 188.799C181.413 189.121 181.934 189.573 182.333 190.156V183.44H185.277V200H182.655L182.333 198.367C181.965 198.873 181.474 199.318 180.861 199.701C180.263 200.084 179.481 200.276 178.515 200.276ZM179.136 197.7C180.086 197.7 180.861 197.386 181.459 196.757C182.072 196.113 182.379 195.293 182.379 194.296C182.379 193.299 182.072 192.487 181.459 191.858C180.861 191.214 180.086 190.892 179.136 190.892C178.2 190.892 177.426 191.206 176.813 191.835C176.199 192.464 175.893 193.276 175.893 194.273C175.893 195.27 176.199 196.09 176.813 196.734C177.426 197.378 178.2 197.7 179.136 197.7ZM201.069 200.276C199.965 200.276 198.968 200.023 198.079 199.517C197.205 199.011 196.507 198.313 195.986 197.424C195.48 196.519 195.227 195.477 195.227 194.296C195.227 193.115 195.488 192.08 196.009 191.191C196.53 190.286 197.228 189.581 198.102 189.075C198.991 188.569 199.988 188.316 201.092 188.316C202.181 188.316 203.162 188.569 204.036 189.075C204.925 189.581 205.623 190.286 206.129 191.191C206.65 192.08 206.911 193.115 206.911 194.296C206.911 195.477 206.65 196.519 206.129 197.424C205.623 198.313 204.925 199.011 204.036 199.517C203.147 200.023 202.158 200.276 201.069 200.276ZM201.069 197.723C201.836 197.723 202.503 197.439 203.07 196.872C203.637 196.289 203.921 195.431 203.921 194.296C203.921 193.161 203.637 192.31 203.07 191.743C202.503 191.16 201.843 190.869 201.092 190.869C200.31 190.869 199.635 191.16 199.068 191.743C198.516 192.31 198.24 193.161 198.24 194.296C198.24 195.431 198.516 196.289 199.068 196.872C199.635 197.439 200.302 197.723 201.069 197.723ZM210.463 200V188.592H213.085L213.361 190.731C213.775 189.995 214.335 189.412 215.04 188.983C215.761 188.538 216.604 188.316 217.57 188.316V191.421H216.742C216.098 191.421 215.523 191.521 215.017 191.72C214.511 191.919 214.112 192.264 213.821 192.755C213.545 193.246 213.407 193.928 213.407 194.802V200H210.463ZM88.7442 230V218.592H91.3662L91.6422 220.731C92.0562 219.995 92.6158 219.412 93.3212 218.983C94.0418 218.538 94.8852 218.316 95.8512 218.316V221.421H95.0232C94.3792 221.421 93.8042 221.521 93.2982 221.72C92.7922 221.919 92.3935 222.264 92.1022 222.755C91.8262 223.246 91.6882 223.928 91.6882 224.802V230H88.7442ZM104.124 230.276C102.974 230.276 101.954 230.031 101.065 229.54C100.176 229.049 99.4782 228.359 98.9722 227.47C98.4662 226.581 98.2132 225.553 98.2132 224.388C98.2132 223.207 98.4585 222.157 98.9492 221.237C99.4552 220.317 100.145 219.604 101.019 219.098C101.908 218.577 102.951 218.316 104.147 218.316C105.266 218.316 106.255 218.561 107.114 219.052C107.973 219.543 108.64 220.217 109.115 221.076C109.606 221.919 109.851 222.862 109.851 223.905C109.851 224.074 109.843 224.25 109.828 224.434C109.828 224.618 109.82 224.81 109.805 225.009H101.134C101.195 225.898 101.502 226.596 102.054 227.102C102.621 227.608 103.304 227.861 104.101 227.861C104.699 227.861 105.197 227.731 105.596 227.47C106.01 227.194 106.317 226.841 106.516 226.412H109.506C109.291 227.133 108.931 227.792 108.425 228.39C107.934 228.973 107.321 229.433 106.585 229.77C105.864 230.107 105.044 230.276 104.124 230.276ZM104.147 220.708C103.426 220.708 102.79 220.915 102.238 221.329C101.686 221.728 101.333 222.341 101.18 223.169H106.861C106.815 222.418 106.539 221.82 106.033 221.375C105.527 220.93 104.898 220.708 104.147 220.708ZM115.88 230L111.694 218.592H114.776L117.674 227.217L120.572 218.592H123.654L119.445 230H115.88ZM128.018 216.821C127.481 216.821 127.037 216.66 126.684 216.338C126.347 216.016 126.178 215.61 126.178 215.119C126.178 214.628 126.347 214.23 126.684 213.923C127.037 213.601 127.481 213.44 128.018 213.44C128.555 213.44 128.992 213.601 129.329 213.923C129.682 214.23 129.858 214.628 129.858 215.119C129.858 215.61 129.682 216.016 129.329 216.338C128.992 216.66 128.555 216.821 128.018 216.821ZM126.546 230V218.592H129.49V230H126.546ZM139.026 230.276C137.876 230.276 136.856 230.031 135.967 229.54C135.077 229.049 134.38 228.359 133.874 227.47C133.368 226.581 133.115 225.553 133.115 224.388C133.115 223.207 133.36 222.157 133.851 221.237C134.357 220.317 135.047 219.604 135.921 219.098C136.81 218.577 137.853 218.316 139.049 218.316C140.168 218.316 141.157 218.561 142.016 219.052C142.874 219.543 143.541 220.217 144.017 221.076C144.507 221.919 144.753 222.862 144.753 223.905C144.753 224.074 144.745 224.25 144.73 224.434C144.73 224.618 144.722 224.81 144.707 225.009H136.036C136.097 225.898 136.404 226.596 136.956 227.102C137.523 227.608 138.205 227.861 139.003 227.861C139.601 227.861 140.099 227.731 140.498 227.47C140.912 227.194 141.218 226.841 141.418 226.412H144.408C144.193 227.133 143.833 227.792 143.327 228.39C142.836 228.973 142.223 229.433 141.487 229.77C140.766 230.107 139.946 230.276 139.026 230.276ZM139.049 220.708C138.328 220.708 137.692 220.915 137.14 221.329C136.588 221.728 136.235 222.341 136.082 223.169H141.763C141.717 222.418 141.441 221.82 140.935 221.375C140.429 220.93 139.8 220.708 139.049 220.708ZM149.931 230L146.596 218.592H149.517L151.495 226.803L153.795 218.592H157.061L159.361 226.803L161.362 218.592H164.283L160.925 230H157.866L155.428 221.467L152.99 230H149.931ZM172.199 230.276C171.049 230.276 170.029 230.031 169.14 229.54C168.25 229.049 167.553 228.359 167.047 227.47C166.541 226.581 166.288 225.553 166.288 224.388C166.288 223.207 166.533 222.157 167.024 221.237C167.53 220.317 168.22 219.604 169.094 219.098C169.983 218.577 171.026 218.316 172.222 218.316C173.341 218.316 174.33 218.561 175.189 219.052C176.047 219.543 176.714 220.217 177.19 221.076C177.68 221.919 177.926 222.862 177.926 223.905C177.926 224.074 177.918 224.25 177.903 224.434C177.903 224.618 177.895 224.81 177.88 225.009H169.209C169.27 225.898 169.577 226.596 170.129 227.102C170.696 227.608 171.378 227.861 172.176 227.861C172.774 227.861 173.272 227.731 173.671 227.47C174.085 227.194 174.391 226.841 174.591 226.412H177.581C177.366 227.133 177.006 227.792 176.5 228.39C176.009 228.973 175.396 229.433 174.66 229.77C173.939 230.107 173.119 230.276 172.199 230.276ZM172.222 220.708C171.501 220.708 170.865 220.915 170.313 221.329C169.761 221.728 169.408 222.341 169.255 223.169H174.936C174.89 222.418 174.614 221.82 174.108 221.375C173.602 220.93 172.973 220.708 172.222 220.708ZM186.566 230.276C185.493 230.276 184.534 230.015 183.691 229.494C182.848 228.973 182.181 228.26 181.69 227.355C181.199 226.45 180.954 225.423 180.954 224.273C180.954 223.123 181.199 222.103 181.69 221.214C182.181 220.309 182.848 219.604 183.691 219.098C184.534 218.577 185.493 218.316 186.566 218.316C187.425 218.316 188.176 218.477 188.82 218.799C189.464 219.121 189.985 219.573 190.384 220.156V213.44H193.328V230H190.706L190.384 228.367C190.016 228.873 189.525 229.318 188.912 229.701C188.314 230.084 187.532 230.276 186.566 230.276ZM187.187 227.7C188.138 227.7 188.912 227.386 189.51 226.757C190.123 226.113 190.43 225.293 190.43 224.296C190.43 223.299 190.123 222.487 189.51 221.858C188.912 221.214 188.138 220.892 187.187 220.892C186.252 220.892 185.477 221.206 184.864 221.835C184.251 222.464 183.944 223.276 183.944 224.273C183.944 225.27 184.251 226.09 184.864 226.734C185.477 227.378 186.252 227.7 187.187 227.7Z" fill="white"/>
<g filter="url(#filter1_d)">
<rect x="614" y="76" width="275" height="204" fill="#371E37"/>
</g>
<path d="M678.432 155V138.9H684.343C685.631 138.9 686.689 139.122 687.517 139.567C688.36 139.996 688.989 140.587 689.403 141.338C689.817 142.074 690.024 142.894 690.024 143.799C690.024 144.78 689.763 145.677 689.242 146.49C688.736 147.303 687.938 147.893 686.85 148.261L690.185 155H686.804L683.814 148.652H681.376V155H678.432ZM681.376 146.49H684.159C685.14 146.49 685.861 146.252 686.321 145.777C686.781 145.302 687.011 144.673 687.011 143.891C687.011 143.124 686.781 142.511 686.321 142.051C685.876 141.591 685.148 141.361 684.136 141.361H681.376V146.49ZM698.459 155.276C697.309 155.276 696.29 155.031 695.4 154.54C694.511 154.049 693.813 153.359 693.307 152.47C692.801 151.581 692.548 150.553 692.548 149.388C692.548 148.207 692.794 147.157 693.284 146.237C693.79 145.317 694.48 144.604 695.354 144.098C696.244 143.577 697.286 143.316 698.482 143.316C699.602 143.316 700.591 143.561 701.449 144.052C702.308 144.543 702.975 145.217 703.45 146.076C703.941 146.919 704.186 147.862 704.186 148.905C704.186 149.074 704.179 149.25 704.163 149.434C704.163 149.618 704.156 149.81 704.14 150.009H695.469C695.531 150.898 695.837 151.596 696.389 152.102C696.957 152.608 697.639 152.861 698.436 152.861C699.034 152.861 699.533 152.731 699.931 152.47C700.345 152.194 700.652 151.841 700.851 151.412H703.841C703.627 152.133 703.266 152.792 702.76 153.39C702.27 153.973 701.656 154.433 700.92 154.77C700.2 155.107 699.379 155.276 698.459 155.276ZM698.482 145.708C697.762 145.708 697.125 145.915 696.573 146.329C696.021 146.728 695.669 147.341 695.515 148.169H701.196C701.15 147.418 700.874 146.82 700.368 146.375C699.862 145.93 699.234 145.708 698.482 145.708ZM713.172 155.276C712.006 155.276 710.979 155.023 710.09 154.517C709.2 154.011 708.495 153.306 707.974 152.401C707.468 151.496 707.215 150.461 707.215 149.296C707.215 148.131 707.468 147.096 707.974 146.191C708.495 145.286 709.2 144.581 710.09 144.075C710.979 143.569 712.006 143.316 713.172 143.316C714.628 143.316 715.855 143.699 716.852 144.466C717.848 145.217 718.485 146.26 718.761 147.594H715.656C715.502 147.042 715.196 146.613 714.736 146.306C714.291 145.984 713.762 145.823 713.149 145.823C712.336 145.823 711.646 146.13 711.079 146.743C710.511 147.356 710.228 148.207 710.228 149.296C710.228 150.385 710.511 151.236 711.079 151.849C711.646 152.462 712.336 152.769 713.149 152.769C713.762 152.769 714.291 152.616 714.736 152.309C715.196 152.002 715.502 151.565 715.656 150.998H718.761C718.485 152.286 717.848 153.321 716.852 154.103C715.855 154.885 714.628 155.276 713.172 155.276ZM726.227 155.276C725.245 155.276 724.44 155.123 723.812 154.816C723.183 154.494 722.715 154.072 722.409 153.551C722.102 153.03 721.949 152.455 721.949 151.826C721.949 150.768 722.363 149.909 723.191 149.25C724.019 148.591 725.261 148.261 726.917 148.261H729.815V147.985C729.815 147.203 729.592 146.628 729.148 146.26C728.703 145.892 728.151 145.708 727.492 145.708C726.894 145.708 726.372 145.854 725.928 146.145C725.483 146.421 725.207 146.835 725.1 147.387H722.225C722.301 146.559 722.577 145.838 723.053 145.225C723.543 144.612 724.172 144.144 724.939 143.822C725.705 143.485 726.564 143.316 727.515 143.316C729.14 143.316 730.42 143.722 731.356 144.535C732.291 145.348 732.759 146.498 732.759 147.985V155H730.252L729.976 153.16C729.638 153.773 729.163 154.279 728.55 154.678C727.952 155.077 727.177 155.276 726.227 155.276ZM726.894 152.976C727.737 152.976 728.389 152.7 728.849 152.148C729.324 151.596 729.623 150.914 729.746 150.101H727.239C726.457 150.101 725.897 150.247 725.56 150.538C725.222 150.814 725.054 151.159 725.054 151.573C725.054 152.018 725.222 152.363 725.56 152.608C725.897 152.853 726.342 152.976 726.894 152.976ZM736.488 155V138.44H739.432V155H736.488ZM743.36 155V138.44H746.304V155H743.36ZM763.395 155.276C762.536 155.276 761.785 155.115 761.141 154.793C760.497 154.471 759.975 154.019 759.577 153.436L759.255 155H756.633V138.44H759.577V145.225C759.945 144.719 760.428 144.274 761.026 143.891C761.639 143.508 762.429 143.316 763.395 143.316C764.468 143.316 765.426 143.577 766.27 144.098C767.113 144.619 767.78 145.332 768.271 146.237C768.761 147.142 769.007 148.169 769.007 149.319C769.007 150.469 768.761 151.496 768.271 152.401C767.78 153.29 767.113 153.996 766.27 154.517C765.426 155.023 764.468 155.276 763.395 155.276ZM762.774 152.7C763.709 152.7 764.483 152.386 765.097 151.757C765.71 151.128 766.017 150.316 766.017 149.319C766.017 148.322 765.71 147.502 765.097 146.858C764.483 146.214 763.709 145.892 762.774 145.892C761.823 145.892 761.041 146.214 760.428 146.858C759.83 147.487 759.531 148.299 759.531 149.296C759.531 150.293 759.83 151.113 760.428 151.757C761.041 152.386 761.823 152.7 762.774 152.7ZM772.557 155V143.592H775.179L775.455 145.731C775.869 144.995 776.428 144.412 777.134 143.983C777.854 143.538 778.698 143.316 779.664 143.316V146.421H778.836C778.192 146.421 777.617 146.521 777.111 146.72C776.605 146.919 776.206 147.264 775.915 147.755C775.639 148.246 775.501 148.928 775.501 149.802V155H772.557ZM786.529 155.276C785.547 155.276 784.742 155.123 784.114 154.816C783.485 154.494 783.017 154.072 782.711 153.551C782.404 153.03 782.251 152.455 782.251 151.826C782.251 150.768 782.665 149.909 783.493 149.25C784.321 148.591 785.563 148.261 787.219 148.261H790.117V147.985C790.117 147.203 789.894 146.628 789.45 146.26C789.005 145.892 788.453 145.708 787.794 145.708C787.196 145.708 786.674 145.854 786.23 146.145C785.785 146.421 785.509 146.835 785.402 147.387H782.527C782.603 146.559 782.879 145.838 783.355 145.225C783.845 144.612 784.474 144.144 785.241 143.822C786.007 143.485 786.866 143.316 787.817 143.316C789.442 143.316 790.722 143.722 791.658 144.535C792.593 145.348 793.061 146.498 793.061 147.985V155H790.554L790.278 153.16C789.94 153.773 789.465 154.279 788.852 154.678C788.254 155.077 787.479 155.276 786.529 155.276ZM787.196 152.976C788.039 152.976 788.691 152.7 789.151 152.148C789.626 151.596 789.925 150.914 790.048 150.101H787.541C786.759 150.101 786.199 150.247 785.862 150.538C785.524 150.814 785.356 151.159 785.356 151.573C785.356 152.018 785.524 152.363 785.862 152.608C786.199 152.853 786.644 152.976 787.196 152.976ZM796.79 155V143.592H799.389L799.619 145.524C799.972 144.849 800.478 144.313 801.137 143.914C801.812 143.515 802.602 143.316 803.506 143.316C804.917 143.316 806.013 143.761 806.795 144.65C807.577 145.539 807.968 146.843 807.968 148.56V155H805.024V148.836C805.024 147.855 804.825 147.103 804.426 146.582C804.028 146.061 803.407 145.8 802.563 145.8C801.735 145.8 801.053 146.091 800.516 146.674C799.995 147.257 799.734 148.069 799.734 149.112V155H796.79ZM816.947 155.276C815.874 155.276 814.916 155.015 814.072 154.494C813.229 153.973 812.562 153.26 812.071 152.355C811.581 151.45 811.335 150.423 811.335 149.273C811.335 148.123 811.581 147.103 812.071 146.214C812.562 145.309 813.229 144.604 814.072 144.098C814.916 143.577 815.874 143.316 816.947 143.316C817.806 143.316 818.557 143.477 819.201 143.799C819.845 144.121 820.367 144.573 820.765 145.156V138.44H823.709V155H821.087L820.765 153.367C820.397 153.873 819.907 154.318 819.293 154.701C818.695 155.084 817.913 155.276 816.947 155.276ZM817.568 152.7C818.519 152.7 819.293 152.386 819.891 151.757C820.505 151.113 820.811 150.293 820.811 149.296C820.811 148.299 820.505 147.487 819.891 146.858C819.293 146.214 818.519 145.892 817.568 145.892C816.633 145.892 815.859 146.206 815.245 146.835C814.632 147.464 814.325 148.276 814.325 149.273C814.325 150.27 814.632 151.09 815.245 151.734C815.859 152.378 816.633 152.7 817.568 152.7ZM643.505 185V173.592H646.127L646.403 175.731C646.817 174.995 647.376 174.412 648.082 173.983C648.802 173.538 649.646 173.316 650.612 173.316V176.421H649.784C649.14 176.421 648.565 176.521 648.059 176.72C647.553 176.919 647.154 177.264 646.863 177.755C646.587 178.246 646.449 178.928 646.449 179.802V185H643.505ZM658.885 185.276C657.735 185.276 656.715 185.031 655.826 184.54C654.936 184.049 654.239 183.359 653.733 182.47C653.227 181.581 652.974 180.553 652.974 179.388C652.974 178.207 653.219 177.157 653.71 176.237C654.216 175.317 654.906 174.604 655.78 174.098C656.669 173.577 657.712 173.316 658.908 173.316C660.027 173.316 661.016 173.561 661.875 174.052C662.733 174.543 663.4 175.217 663.876 176.076C664.366 176.919 664.612 177.862 664.612 178.905C664.612 179.074 664.604 179.25 664.589 179.434C664.589 179.618 664.581 179.81 664.566 180.009H655.895C655.956 180.898 656.263 181.596 656.815 182.102C657.382 182.608 658.064 182.861 658.862 182.861C659.46 182.861 659.958 182.731 660.357 182.47C660.771 182.194 661.077 181.841 661.277 181.412H664.267C664.052 182.133 663.692 182.792 663.186 183.39C662.695 183.973 662.082 184.433 661.346 184.77C660.625 185.107 659.805 185.276 658.885 185.276ZM658.908 175.708C658.187 175.708 657.551 175.915 656.999 176.329C656.447 176.728 656.094 177.341 655.941 178.169H661.622C661.576 177.418 661.3 176.82 660.794 176.375C660.288 175.93 659.659 175.708 658.908 175.708ZM673.597 185.276C672.431 185.276 671.404 185.023 670.515 184.517C669.625 184.011 668.92 183.306 668.399 182.401C667.893 181.496 667.64 180.461 667.64 179.296C667.64 178.131 667.893 177.096 668.399 176.191C668.92 175.286 669.625 174.581 670.515 174.075C671.404 173.569 672.431 173.316 673.597 173.316C675.053 173.316 676.28 173.699 677.277 174.466C678.273 175.217 678.91 176.26 679.186 177.594H676.081C675.927 177.042 675.621 176.613 675.161 176.306C674.716 175.984 674.187 175.823 673.574 175.823C672.761 175.823 672.071 176.13 671.504 176.743C670.936 177.356 670.653 178.207 670.653 179.296C670.653 180.385 670.936 181.236 671.504 181.849C672.071 182.462 672.761 182.769 673.574 182.769C674.187 182.769 674.716 182.616 675.161 182.309C675.621 182.002 675.927 181.565 676.081 180.998H679.186C678.91 182.286 678.273 183.321 677.277 184.103C676.28 184.885 675.053 185.276 673.597 185.276ZM688.193 185.276C687.089 185.276 686.092 185.023 685.203 184.517C684.329 184.011 683.631 183.313 683.11 182.424C682.604 181.519 682.351 180.477 682.351 179.296C682.351 178.115 682.611 177.08 683.133 176.191C683.654 175.286 684.352 174.581 685.226 174.075C686.115 173.569 687.112 173.316 688.216 173.316C689.304 173.316 690.286 173.569 691.16 174.075C692.049 174.581 692.747 175.286 693.253 176.191C693.774 177.08 694.035 178.115 694.035 179.296C694.035 180.477 693.774 181.519 693.253 182.424C692.747 183.313 692.049 184.011 691.16 184.517C690.27 185.023 689.281 185.276 688.193 185.276ZM688.193 182.723C688.959 182.723 689.626 182.439 690.194 181.872C690.761 181.289 691.045 180.431 691.045 179.296C691.045 178.161 690.761 177.31 690.194 176.743C689.626 176.16 688.967 175.869 688.216 175.869C687.434 175.869 686.759 176.16 686.192 176.743C685.64 177.31 685.364 178.161 685.364 179.296C685.364 180.431 685.64 181.289 686.192 181.872C686.759 182.439 687.426 182.723 688.193 182.723ZM697.587 185V173.592H700.186L700.439 175.133C700.807 174.581 701.29 174.144 701.888 173.822C702.501 173.485 703.207 173.316 704.004 173.316C705.767 173.316 707.017 173.998 707.753 175.363C708.167 174.734 708.719 174.236 709.409 173.868C710.114 173.5 710.881 173.316 711.709 173.316C713.196 173.316 714.339 173.761 715.136 174.65C715.933 175.539 716.332 176.843 716.332 178.56V185H713.388V178.836C713.388 177.855 713.196 177.103 712.813 176.582C712.445 176.061 711.87 175.8 711.088 175.8C710.291 175.8 709.647 176.091 709.156 176.674C708.681 177.257 708.443 178.069 708.443 179.112V185H705.499V178.836C705.499 177.855 705.307 177.103 704.924 176.582C704.541 176.061 703.95 175.8 703.153 175.8C702.371 175.8 701.735 176.091 701.244 176.674C700.769 177.257 700.531 178.069 700.531 179.112V185H697.587ZM720.047 185V173.592H722.646L722.899 175.133C723.267 174.581 723.75 174.144 724.348 173.822C724.961 173.485 725.667 173.316 726.464 173.316C728.227 173.316 729.477 173.998 730.213 175.363C730.627 174.734 731.179 174.236 731.869 173.868C732.574 173.5 733.341 173.316 734.169 173.316C735.656 173.316 736.799 173.761 737.596 174.65C738.393 175.539 738.792 176.843 738.792 178.56V185H735.848V178.836C735.848 177.855 735.656 177.103 735.273 176.582C734.905 176.061 734.33 175.8 733.548 175.8C732.751 175.8 732.107 176.091 731.616 176.674C731.141 177.257 730.903 178.069 730.903 179.112V185H727.959V178.836C727.959 177.855 727.767 177.103 727.384 176.582C727.001 176.061 726.41 175.8 725.613 175.8C724.831 175.8 724.195 176.091 723.704 176.674C723.229 177.257 722.991 178.069 722.991 179.112V185H720.047ZM748.05 185.276C746.9 185.276 745.88 185.031 744.991 184.54C744.102 184.049 743.404 183.359 742.898 182.47C742.392 181.581 742.139 180.553 742.139 179.388C742.139 178.207 742.384 177.157 742.875 176.237C743.381 175.317 744.071 174.604 744.945 174.098C745.834 173.577 746.877 173.316 748.073 173.316C749.192 173.316 750.181 173.561 751.04 174.052C751.899 174.543 752.566 175.217 753.041 176.076C753.532 176.919 753.777 177.862 753.777 178.905C753.777 179.074 753.769 179.25 753.754 179.434C753.754 179.618 753.746 179.81 753.731 180.009H745.06C745.121 180.898 745.428 181.596 745.98 182.102C746.547 182.608 747.23 182.861 748.027 182.861C748.625 182.861 749.123 182.731 749.522 182.47C749.936 182.194 750.243 181.841 750.442 181.412H753.432C753.217 182.133 752.857 182.792 752.351 183.39C751.86 183.973 751.247 184.433 750.511 184.77C749.79 185.107 748.97 185.276 748.05 185.276ZM748.073 175.708C747.352 175.708 746.716 175.915 746.164 176.329C745.612 176.728 745.259 177.341 745.106 178.169H750.787C750.741 177.418 750.465 176.82 749.959 176.375C749.453 175.93 748.824 175.708 748.073 175.708ZM757.173 185V173.592H759.772L760.002 175.524C760.355 174.849 760.861 174.313 761.52 173.914C762.195 173.515 762.985 173.316 763.889 173.316C765.3 173.316 766.396 173.761 767.178 174.65C767.96 175.539 768.351 176.843 768.351 178.56V185H765.407V178.836C765.407 177.855 765.208 177.103 764.809 176.582C764.411 176.061 763.79 175.8 762.946 175.8C762.118 175.8 761.436 176.091 760.899 176.674C760.378 177.257 760.117 178.069 760.117 179.112V185H757.173ZM777.33 185.276C776.257 185.276 775.299 185.015 774.455 184.494C773.612 183.973 772.945 183.26 772.454 182.355C771.964 181.45 771.718 180.423 771.718 179.273C771.718 178.123 771.964 177.103 772.454 176.214C772.945 175.309 773.612 174.604 774.455 174.098C775.299 173.577 776.257 173.316 777.33 173.316C778.189 173.316 778.94 173.477 779.584 173.799C780.228 174.121 780.75 174.573 781.148 175.156V168.44H784.092V185H781.47L781.148 183.367C780.78 183.873 780.29 184.318 779.676 184.701C779.078 185.084 778.296 185.276 777.33 185.276ZM777.951 182.7C778.902 182.7 779.676 182.386 780.274 181.757C780.888 181.113 781.194 180.293 781.194 179.296C781.194 178.299 780.888 177.487 780.274 176.858C779.676 176.214 778.902 175.892 777.951 175.892C777.016 175.892 776.242 176.206 775.628 176.835C775.015 177.464 774.708 178.276 774.708 179.273C774.708 180.27 775.015 181.09 775.628 181.734C776.242 182.378 777.016 182.7 777.951 182.7ZM791.943 185.276C790.962 185.276 790.157 185.123 789.528 184.816C788.9 184.494 788.432 184.072 788.125 183.551C787.819 183.03 787.665 182.455 787.665 181.826C787.665 180.768 788.079 179.909 788.907 179.25C789.735 178.591 790.977 178.261 792.633 178.261H795.531V177.985C795.531 177.203 795.309 176.628 794.864 176.26C794.42 175.892 793.868 175.708 793.208 175.708C792.61 175.708 792.089 175.854 791.644 176.145C791.2 176.421 790.924 176.835 790.816 177.387H787.941C788.018 176.559 788.294 175.838 788.769 175.225C789.26 174.612 789.889 174.144 790.655 173.822C791.422 173.485 792.281 173.316 793.231 173.316C794.857 173.316 796.137 173.722 797.072 174.535C798.008 175.348 798.475 176.498 798.475 177.985V185H795.968L795.692 183.16C795.355 183.773 794.88 184.279 794.266 184.678C793.668 185.077 792.894 185.276 791.943 185.276ZM792.61 182.976C793.454 182.976 794.105 182.7 794.565 182.148C795.041 181.596 795.34 180.914 795.462 180.101H792.955C792.173 180.101 791.614 180.247 791.276 180.538C790.939 180.814 790.77 181.159 790.77 181.573C790.77 182.018 790.939 182.363 791.276 182.608C791.614 182.853 792.058 182.976 792.61 182.976ZM807.13 185C805.934 185 804.976 184.709 804.255 184.126C803.535 183.543 803.174 182.508 803.174 181.021V176.053H801.219V173.592H803.174L803.519 170.533H806.118V173.592H809.2V176.053H806.118V181.044C806.118 181.596 806.233 181.979 806.463 182.194C806.709 182.393 807.123 182.493 807.705 182.493H809.131V185H807.13ZM814.235 171.821C813.698 171.821 813.254 171.66 812.901 171.338C812.564 171.016 812.395 170.61 812.395 170.119C812.395 169.628 812.564 169.23 812.901 168.923C813.254 168.601 813.698 168.44 814.235 168.44C814.772 168.44 815.209 168.601 815.546 168.923C815.899 169.23 816.075 169.628 816.075 170.119C816.075 170.61 815.899 171.016 815.546 171.338C815.209 171.66 814.772 171.821 814.235 171.821ZM812.763 185V173.592H815.707V185H812.763ZM825.174 185.276C824.07 185.276 823.073 185.023 822.184 184.517C821.31 184.011 820.612 183.313 820.091 182.424C819.585 181.519 819.332 180.477 819.332 179.296C819.332 178.115 819.593 177.08 820.114 176.191C820.635 175.286 821.333 174.581 822.207 174.075C823.096 173.569 824.093 173.316 825.197 173.316C826.286 173.316 827.267 173.569 828.141 174.075C829.03 174.581 829.728 175.286 830.234 176.191C830.755 177.08 831.016 178.115 831.016 179.296C831.016 180.477 830.755 181.519 830.234 182.424C829.728 183.313 829.03 184.011 828.141 184.517C827.252 185.023 826.263 185.276 825.174 185.276ZM825.174 182.723C825.941 182.723 826.608 182.439 827.175 181.872C827.742 181.289 828.026 180.431 828.026 179.296C828.026 178.161 827.742 177.31 827.175 176.743C826.608 176.16 825.948 175.869 825.197 175.869C824.415 175.869 823.74 176.16 823.173 176.743C822.621 177.31 822.345 178.161 822.345 179.296C822.345 180.431 822.621 181.289 823.173 181.872C823.74 182.439 824.407 182.723 825.174 182.723ZM834.568 185V173.592H837.167L837.397 175.524C837.75 174.849 838.256 174.313 838.915 173.914C839.59 173.515 840.38 173.316 841.284 173.316C842.695 173.316 843.791 173.761 844.573 174.65C845.355 175.539 845.746 176.843 845.746 178.56V185H842.802V178.836C842.802 177.855 842.603 177.103 842.204 176.582C841.806 176.061 841.185 175.8 840.341 175.8C839.513 175.8 838.831 176.091 838.294 176.674C837.773 177.257 837.512 178.069 837.512 179.112V185H834.568ZM854.196 185.276C853.184 185.276 852.295 185.115 851.528 184.793C850.762 184.456 850.148 183.996 849.688 183.413C849.228 182.83 848.952 182.156 848.86 181.389H851.827C851.919 181.834 852.165 182.217 852.563 182.539C852.977 182.846 853.506 182.999 854.15 182.999C854.794 182.999 855.262 182.869 855.553 182.608C855.86 182.347 856.013 182.048 856.013 181.711C856.013 181.22 855.799 180.891 855.369 180.722C854.94 180.538 854.342 180.362 853.575 180.193C853.085 180.086 852.586 179.955 852.08 179.802C851.574 179.649 851.107 179.457 850.677 179.227C850.263 178.982 849.926 178.675 849.665 178.307C849.405 177.924 849.274 177.456 849.274 176.904C849.274 175.892 849.673 175.041 850.47 174.351C851.283 173.661 852.418 173.316 853.874 173.316C855.224 173.316 856.297 173.63 857.094 174.259C857.907 174.888 858.39 175.754 858.543 176.858H855.76C855.592 176.015 854.955 175.593 853.851 175.593C853.299 175.593 852.87 175.7 852.563 175.915C852.272 176.13 852.126 176.398 852.126 176.72C852.126 177.057 852.349 177.326 852.793 177.525C853.238 177.724 853.828 177.908 854.564 178.077C855.362 178.261 856.09 178.468 856.749 178.698C857.424 178.913 857.961 179.242 858.359 179.687C858.758 180.116 858.957 180.737 858.957 181.55C858.973 182.255 858.789 182.892 858.405 183.459C858.022 184.026 857.47 184.471 856.749 184.793C856.029 185.115 855.178 185.276 854.196 185.276ZM679.756 215V206.053H678.192V203.592H679.756V202.258C679.756 200.878 680.101 199.897 680.791 199.314C681.497 198.731 682.447 198.44 683.643 198.44H684.908V200.947H684.103C683.597 200.947 683.237 201.047 683.022 201.246C682.808 201.445 682.7 201.783 682.7 202.258V203.592H685.161V206.053H682.7V215H679.756ZM688.413 215V203.592H691.035L691.311 205.731C691.725 204.995 692.285 204.412 692.99 203.983C693.711 203.538 694.554 203.316 695.52 203.316V206.421H694.692C694.048 206.421 693.473 206.521 692.967 206.72C692.461 206.919 692.062 207.264 691.771 207.755C691.495 208.246 691.357 208.928 691.357 209.802V215H688.413ZM703.724 215.276C702.62 215.276 701.623 215.023 700.734 214.517C699.86 214.011 699.162 213.313 698.641 212.424C698.135 211.519 697.882 210.477 697.882 209.296C697.882 208.115 698.143 207.08 698.664 206.191C699.185 205.286 699.883 204.581 700.757 204.075C701.646 203.569 702.643 203.316 703.747 203.316C704.836 203.316 705.817 203.569 706.691 204.075C707.58 204.581 708.278 205.286 708.784 206.191C709.305 207.08 709.566 208.115 709.566 209.296C709.566 210.477 709.305 211.519 708.784 212.424C708.278 213.313 707.58 214.011 706.691 214.517C705.802 215.023 704.813 215.276 703.724 215.276ZM703.724 212.723C704.491 212.723 705.158 212.439 705.725 211.872C706.292 211.289 706.576 210.431 706.576 209.296C706.576 208.161 706.292 207.31 705.725 206.743C705.158 206.16 704.498 205.869 703.747 205.869C702.965 205.869 702.29 206.16 701.723 206.743C701.171 207.31 700.895 208.161 700.895 209.296C700.895 210.431 701.171 211.289 701.723 211.872C702.29 212.439 702.957 212.723 703.724 212.723ZM713.118 215V203.592H715.717L715.97 205.133C716.338 204.581 716.821 204.144 717.419 203.822C718.033 203.485 718.738 203.316 719.535 203.316C721.299 203.316 722.548 203.998 723.284 205.363C723.698 204.734 724.25 204.236 724.94 203.868C725.646 203.5 726.412 203.316 727.24 203.316C728.728 203.316 729.87 203.761 730.667 204.65C731.465 205.539 731.863 206.843 731.863 208.56V215H728.919V208.836C728.919 207.855 728.728 207.103 728.344 206.582C727.976 206.061 727.401 205.8 726.619 205.8C725.822 205.8 725.178 206.091 724.687 206.674C724.212 207.257 723.974 208.069 723.974 209.112V215H721.03V208.836C721.03 207.855 720.839 207.103 720.455 206.582C720.072 206.061 719.482 205.8 718.684 205.8C717.902 205.8 717.266 206.091 716.775 206.674C716.3 207.257 716.062 208.069 716.062 209.112V215H713.118ZM742.508 215V206.053H740.944V203.592H742.508V202.258C742.508 200.878 742.853 199.897 743.543 199.314C744.248 198.731 745.199 198.44 746.395 198.44H747.66V200.947H746.855C746.349 200.947 745.988 201.047 745.774 201.246C745.559 201.445 745.452 201.783 745.452 202.258V203.592H747.913V206.053H745.452V215H742.508ZM751.164 215V203.592H753.786L754.062 205.731C754.476 204.995 755.036 204.412 755.741 203.983C756.462 203.538 757.305 203.316 758.271 203.316V206.421H757.443C756.799 206.421 756.224 206.521 755.718 206.72C755.212 206.919 754.814 207.264 754.522 207.755C754.246 208.246 754.108 208.928 754.108 209.802V215H751.164ZM762.791 201.821C762.254 201.821 761.809 201.66 761.457 201.338C761.119 201.016 760.951 200.61 760.951 200.119C760.951 199.628 761.119 199.23 761.457 198.923C761.809 198.601 762.254 198.44 762.791 198.44C763.327 198.44 763.764 198.601 764.102 198.923C764.454 199.23 764.631 199.628 764.631 200.119C764.631 200.61 764.454 201.016 764.102 201.338C763.764 201.66 763.327 201.821 762.791 201.821ZM761.319 215V203.592H764.263V215H761.319ZM773.798 215.276C772.648 215.276 771.629 215.031 770.739 214.54C769.85 214.049 769.152 213.359 768.646 212.47C768.14 211.581 767.887 210.553 767.887 209.388C767.887 208.207 768.133 207.157 768.623 206.237C769.129 205.317 769.819 204.604 770.693 204.098C771.583 203.577 772.625 203.316 773.821 203.316C774.941 203.316 775.93 203.561 776.788 204.052C777.647 204.543 778.314 205.217 778.789 206.076C779.28 206.919 779.525 207.862 779.525 208.905C779.525 209.074 779.518 209.25 779.502 209.434C779.502 209.618 779.495 209.81 779.479 210.009H770.808C770.87 210.898 771.176 211.596 771.728 212.102C772.296 212.608 772.978 212.861 773.775 212.861C774.373 212.861 774.872 212.731 775.27 212.47C775.684 212.194 775.991 211.841 776.19 211.412H779.18C778.966 212.133 778.605 212.792 778.099 213.39C777.609 213.973 776.995 214.433 776.259 214.77C775.539 215.107 774.718 215.276 773.798 215.276ZM773.821 205.708C773.101 205.708 772.464 205.915 771.912 206.329C771.36 206.728 771.008 207.341 770.854 208.169H776.535C776.489 207.418 776.213 206.82 775.707 206.375C775.201 205.93 774.573 205.708 773.821 205.708ZM782.922 215V203.592H785.521L785.751 205.524C786.103 204.849 786.609 204.313 787.269 203.914C787.943 203.515 788.733 203.316 789.638 203.316C791.048 203.316 792.145 203.761 792.927 204.65C793.709 205.539 794.1 206.843 794.1 208.56V215H791.156V208.836C791.156 207.855 790.956 207.103 790.558 206.582C790.159 206.061 789.538 205.8 788.695 205.8C787.867 205.8 787.184 206.091 786.648 206.674C786.126 207.257 785.866 208.069 785.866 209.112V215H782.922ZM803.079 215.276C802.005 215.276 801.047 215.015 800.204 214.494C799.36 213.973 798.693 213.26 798.203 212.355C797.712 211.45 797.467 210.423 797.467 209.273C797.467 208.123 797.712 207.103 798.203 206.214C798.693 205.309 799.36 204.604 800.204 204.098C801.047 203.577 802.005 203.316 803.079 203.316C803.937 203.316 804.689 203.477 805.333 203.799C805.977 204.121 806.498 204.573 806.897 205.156V198.44H809.841V215H807.219L806.897 213.367C806.529 213.873 806.038 214.318 805.425 214.701C804.827 215.084 804.045 215.276 803.079 215.276ZM803.7 212.7C804.65 212.7 805.425 212.386 806.023 211.757C806.636 211.113 806.943 210.293 806.943 209.296C806.943 208.299 806.636 207.487 806.023 206.858C805.425 206.214 804.65 205.892 803.7 205.892C802.764 205.892 801.99 206.206 801.377 206.835C800.763 207.464 800.457 208.276 800.457 209.273C800.457 210.27 800.763 211.09 801.377 211.734C801.99 212.378 802.764 212.7 803.7 212.7ZM818.474 215.276C817.462 215.276 816.572 215.115 815.806 214.793C815.039 214.456 814.426 213.996 813.966 213.413C813.506 212.83 813.23 212.156 813.138 211.389H816.105C816.197 211.834 816.442 212.217 816.841 212.539C817.255 212.846 817.784 212.999 818.428 212.999C819.072 212.999 819.539 212.869 819.831 212.608C820.137 212.347 820.291 212.048 820.291 211.711C820.291 211.22 820.076 210.891 819.647 210.722C819.217 210.538 818.619 210.362 817.853 210.193C817.362 210.086 816.864 209.955 816.358 209.802C815.852 209.649 815.384 209.457 814.955 209.227C814.541 208.982 814.203 208.675 813.943 208.307C813.682 207.924 813.552 207.456 813.552 206.904C813.552 205.892 813.95 205.041 814.748 204.351C815.56 203.661 816.695 203.316 818.152 203.316C819.501 203.316 820.574 203.63 821.372 204.259C822.184 204.888 822.667 205.754 822.821 206.858H820.038C819.869 206.015 819.233 205.593 818.129 205.593C817.577 205.593 817.147 205.7 816.841 205.915C816.549 206.13 816.404 206.398 816.404 206.72C816.404 207.057 816.626 207.326 817.071 207.525C817.515 207.724 818.106 207.908 818.842 208.077C819.639 208.261 820.367 208.468 821.027 208.698C821.701 208.913 822.238 209.242 822.637 209.687C823.035 210.116 823.235 210.737 823.235 211.55C823.25 212.255 823.066 212.892 822.683 213.459C822.299 214.026 821.747 214.471 821.027 214.793C820.306 215.115 819.455 215.276 818.474 215.276Z" fill="white"/>
<g filter="url(#filter2_d)">
<rect x="309" y="76" width="275" height="204" fill="#371E37"/>
</g>
<path d="M358.945 140V123.9H361.889V137.7H369.019V140H358.945ZM377.422 140.276C376.318 140.276 375.321 140.023 374.432 139.517C373.558 139.011 372.86 138.313 372.339 137.424C371.833 136.519 371.58 135.477 371.58 134.296C371.58 133.115 371.84 132.08 372.362 131.191C372.883 130.286 373.581 129.581 374.455 129.075C375.344 128.569 376.341 128.316 377.445 128.316C378.533 128.316 379.515 128.569 380.389 129.075C381.278 129.581 381.976 130.286 382.482 131.191C383.003 132.08 383.264 133.115 383.264 134.296C383.264 135.477 383.003 136.519 382.482 137.424C381.976 138.313 381.278 139.011 380.389 139.517C379.499 140.023 378.51 140.276 377.422 140.276ZM377.422 137.723C378.188 137.723 378.855 137.439 379.423 136.872C379.99 136.289 380.274 135.431 380.274 134.296C380.274 133.161 379.99 132.31 379.423 131.743C378.855 131.16 378.196 130.869 377.445 130.869C376.663 130.869 375.988 131.16 375.421 131.743C374.869 132.31 374.593 133.161 374.593 134.296C374.593 135.431 374.869 136.289 375.421 136.872C375.988 137.439 376.655 137.723 377.422 137.723ZM392.29 140.276C391.186 140.276 390.189 140.023 389.3 139.517C388.426 139.011 387.728 138.313 387.207 137.424C386.701 136.519 386.448 135.477 386.448 134.296C386.448 133.115 386.709 132.08 387.23 131.191C387.751 130.286 388.449 129.581 389.323 129.075C390.212 128.569 391.209 128.316 392.313 128.316C393.402 128.316 394.383 128.569 395.257 129.075C396.146 129.581 396.844 130.286 397.35 131.191C397.871 132.08 398.132 133.115 398.132 134.296C398.132 135.477 397.871 136.519 397.35 137.424C396.844 138.313 396.146 139.011 395.257 139.517C394.368 140.023 393.379 140.276 392.29 140.276ZM392.29 137.723C393.057 137.723 393.724 137.439 394.291 136.872C394.858 136.289 395.142 135.431 395.142 134.296C395.142 133.161 394.858 132.31 394.291 131.743C393.724 131.16 393.064 130.869 392.313 130.869C391.531 130.869 390.856 131.16 390.289 131.743C389.737 132.31 389.461 133.161 389.461 134.296C389.461 135.431 389.737 136.289 390.289 136.872C390.856 137.439 391.523 137.723 392.29 137.723ZM401.684 140V123.44H404.628V133.215L408.676 128.592H412.172L407.503 133.79L412.931 140H409.251L404.628 134.273V140H401.684ZM426.01 140.276C425.029 140.276 424.224 140.123 423.595 139.816C422.966 139.494 422.499 139.072 422.192 138.551C421.885 138.03 421.732 137.455 421.732 136.826C421.732 135.768 422.146 134.909 422.974 134.25C423.802 133.591 425.044 133.261 426.7 133.261H429.598V132.985C429.598 132.203 429.376 131.628 428.931 131.26C428.486 130.892 427.934 130.708 427.275 130.708C426.677 130.708 426.156 130.854 425.711 131.145C425.266 131.421 424.99 131.835 424.883 132.387H422.008C422.085 131.559 422.361 130.838 422.836 130.225C423.327 129.612 423.955 129.144 424.722 128.822C425.489 128.485 426.347 128.316 427.298 128.316C428.923 128.316 430.204 128.722 431.139 129.535C432.074 130.348 432.542 131.498 432.542 132.985V140H430.035L429.759 138.16C429.422 138.773 428.946 139.279 428.333 139.678C427.735 140.077 426.961 140.276 426.01 140.276ZM426.677 137.976C427.52 137.976 428.172 137.7 428.632 137.148C429.107 136.596 429.406 135.914 429.529 135.101H427.022C426.24 135.101 425.68 135.247 425.343 135.538C425.006 135.814 424.837 136.159 424.837 136.573C424.837 137.018 425.006 137.363 425.343 137.608C425.68 137.853 426.125 137.976 426.677 137.976ZM441.197 140C440.001 140 439.043 139.709 438.322 139.126C437.601 138.543 437.241 137.508 437.241 136.021V131.053H435.286V128.592H437.241L437.586 125.533H440.185V128.592H443.267V131.053H440.185V136.044C440.185 136.596 440.3 136.979 440.53 137.194C440.775 137.393 441.189 137.493 441.772 137.493H443.198V140H441.197ZM459.877 140.276C459.019 140.276 458.267 140.115 457.623 139.793C456.979 139.471 456.458 139.019 456.059 138.436L455.737 140H453.115V123.44H456.059V130.225C456.427 129.719 456.91 129.274 457.508 128.891C458.122 128.508 458.911 128.316 459.877 128.316C460.951 128.316 461.909 128.577 462.752 129.098C463.596 129.619 464.263 130.332 464.753 131.237C465.244 132.142 465.489 133.169 465.489 134.319C465.489 135.469 465.244 136.496 464.753 137.401C464.263 138.29 463.596 138.996 462.752 139.517C461.909 140.023 460.951 140.276 459.877 140.276ZM459.256 137.7C460.192 137.7 460.966 137.386 461.579 136.757C462.193 136.128 462.499 135.316 462.499 134.319C462.499 133.322 462.193 132.502 461.579 131.858C460.966 131.214 460.192 130.892 459.256 130.892C458.306 130.892 457.524 131.214 456.91 131.858C456.312 132.487 456.013 133.299 456.013 134.296C456.013 135.293 456.312 136.113 456.91 136.757C457.524 137.386 458.306 137.7 459.256 137.7ZM469.039 140V128.592H471.661L471.937 130.731C472.351 129.995 472.911 129.412 473.616 128.983C474.337 128.538 475.18 128.316 476.146 128.316V131.421H475.318C474.674 131.421 474.099 131.521 473.593 131.72C473.087 131.919 472.688 132.264 472.397 132.755C472.121 133.246 471.983 133.928 471.983 134.802V140H469.039ZM483.011 140.276C482.03 140.276 481.225 140.123 480.596 139.816C479.968 139.494 479.5 139.072 479.193 138.551C478.887 138.03 478.733 137.455 478.733 136.826C478.733 135.768 479.147 134.909 479.975 134.25C480.803 133.591 482.045 133.261 483.701 133.261H486.599V132.985C486.599 132.203 486.377 131.628 485.932 131.26C485.488 130.892 484.936 130.708 484.276 130.708C483.678 130.708 483.157 130.854 482.712 131.145C482.268 131.421 481.992 131.835 481.884 132.387H479.009C479.086 131.559 479.362 130.838 479.837 130.225C480.328 129.612 480.957 129.144 481.723 128.822C482.49 128.485 483.349 128.316 484.299 128.316C485.925 128.316 487.205 128.722 488.14 129.535C489.076 130.348 489.543 131.498 489.543 132.985V140H487.036L486.76 138.16C486.423 138.773 485.948 139.279 485.334 139.678C484.736 140.077 483.962 140.276 483.011 140.276ZM483.678 137.976C484.522 137.976 485.173 137.7 485.633 137.148C486.109 136.596 486.408 135.914 486.53 135.101H484.023C483.241 135.101 482.682 135.247 482.344 135.538C482.007 135.814 481.838 136.159 481.838 136.573C481.838 137.018 482.007 137.363 482.344 137.608C482.682 137.853 483.126 137.976 483.678 137.976ZM493.273 140V128.592H495.872L496.102 130.524C496.454 129.849 496.96 129.313 497.62 128.914C498.294 128.515 499.084 128.316 499.989 128.316C501.399 128.316 502.496 128.761 503.278 129.65C504.06 130.539 504.451 131.843 504.451 133.56V140H501.507V133.836C501.507 132.855 501.307 132.103 500.909 131.582C500.51 131.061 499.889 130.8 499.046 130.8C498.218 130.8 497.535 131.091 496.999 131.674C496.477 132.257 496.217 133.069 496.217 134.112V140H493.273ZM513.43 140.276C512.356 140.276 511.398 140.015 510.555 139.494C509.711 138.973 509.044 138.26 508.554 137.355C508.063 136.45 507.818 135.423 507.818 134.273C507.818 133.123 508.063 132.103 508.554 131.214C509.044 130.309 509.711 129.604 510.555 129.098C511.398 128.577 512.356 128.316 513.43 128.316C514.288 128.316 515.04 128.477 515.684 128.799C516.328 129.121 516.849 129.573 517.248 130.156V123.44H520.192V140H517.57L517.248 138.367C516.88 138.873 516.389 139.318 515.776 139.701C515.178 140.084 514.396 140.276 513.43 140.276ZM514.051 137.7C515.001 137.7 515.776 137.386 516.374 136.757C516.987 136.113 517.294 135.293 517.294 134.296C517.294 133.299 516.987 132.487 516.374 131.858C515.776 131.214 515.001 130.892 514.051 130.892C513.115 130.892 512.341 131.206 511.728 131.835C511.114 132.464 510.808 133.276 510.808 134.273C510.808 135.27 511.114 136.09 511.728 136.734C512.341 137.378 513.115 137.7 514.051 137.7ZM528.825 140.276C527.813 140.276 526.923 140.115 526.157 139.793C525.39 139.456 524.777 138.996 524.317 138.413C523.857 137.83 523.581 137.156 523.489 136.389H526.456C526.548 136.834 526.793 137.217 527.192 137.539C527.606 137.846 528.135 137.999 528.779 137.999C529.423 137.999 529.89 137.869 530.182 137.608C530.488 137.347 530.642 137.048 530.642 136.711C530.642 136.22 530.427 135.891 529.998 135.722C529.568 135.538 528.97 135.362 528.204 135.193C527.713 135.086 527.215 134.955 526.709 134.802C526.203 134.649 525.735 134.457 525.306 134.227C524.892 133.982 524.554 133.675 524.294 133.307C524.033 132.924 523.903 132.456 523.903 131.904C523.903 130.892 524.301 130.041 525.099 129.351C525.911 128.661 527.046 128.316 528.503 128.316C529.852 128.316 530.925 128.63 531.723 129.259C532.535 129.888 533.018 130.754 533.172 131.858H530.389C530.22 131.015 529.584 130.593 528.48 130.593C527.928 130.593 527.498 130.7 527.192 130.915C526.9 131.13 526.755 131.398 526.755 131.72C526.755 132.057 526.977 132.326 527.422 132.525C527.866 132.724 528.457 132.908 529.193 133.077C529.99 133.261 530.718 133.468 531.378 133.698C532.052 133.913 532.589 134.242 532.988 134.687C533.386 135.116 533.586 135.737 533.586 136.55C533.601 137.255 533.417 137.892 533.034 138.459C532.65 139.026 532.098 139.471 531.378 139.793C530.657 140.115 529.806 140.276 528.825 140.276ZM403.949 170C402.753 170 401.794 169.709 401.074 169.126C400.353 168.543 399.993 167.508 399.993 166.021V161.053H398.038V158.592H399.993L400.338 155.533H402.937V158.592H406.019V161.053H402.937V166.044C402.937 166.596 403.052 166.979 403.282 167.194C403.527 167.393 403.941 167.493 404.524 167.493H405.95V170H403.949ZM409.466 170V153.44H412.41V160.34C412.794 159.711 413.307 159.221 413.951 158.868C414.611 158.5 415.362 158.316 416.205 158.316C417.616 158.316 418.705 158.761 419.471 159.65C420.253 160.539 420.644 161.843 420.644 163.56V170H417.723V163.836C417.723 162.855 417.524 162.103 417.125 161.582C416.742 161.061 416.129 160.8 415.285 160.8C414.457 160.8 413.767 161.091 413.215 161.674C412.679 162.257 412.41 163.069 412.41 164.112V170H409.466ZM428.313 170.276C427.331 170.276 426.526 170.123 425.898 169.816C425.269 169.494 424.801 169.072 424.495 168.551C424.188 168.03 424.035 167.455 424.035 166.826C424.035 165.768 424.449 164.909 425.277 164.25C426.105 163.591 427.347 163.261 429.003 163.261H431.901V162.985C431.901 162.203 431.678 161.628 431.234 161.26C430.789 160.892 430.237 160.708 429.578 160.708C428.98 160.708 428.458 160.854 428.014 161.145C427.569 161.421 427.293 161.835 427.186 162.387H424.311C424.387 161.559 424.663 160.838 425.139 160.225C425.629 159.612 426.258 159.144 427.025 158.822C427.791 158.485 428.65 158.316 429.601 158.316C431.226 158.316 432.506 158.722 433.442 159.535C434.377 160.348 434.845 161.498 434.845 162.985V170H432.338L432.062 168.16C431.724 168.773 431.249 169.279 430.636 169.678C430.038 170.077 429.263 170.276 428.313 170.276ZM428.98 167.976C429.823 167.976 430.475 167.7 430.935 167.148C431.41 166.596 431.709 165.914 431.832 165.101H429.325C428.543 165.101 427.983 165.247 427.646 165.538C427.308 165.814 427.14 166.159 427.14 166.573C427.14 167.018 427.308 167.363 427.646 167.608C427.983 167.853 428.428 167.976 428.98 167.976ZM443.5 170C442.304 170 441.345 169.709 440.625 169.126C439.904 168.543 439.544 167.508 439.544 166.021V161.053H437.589V158.592H439.544L439.889 155.533H442.488V158.592H445.57V161.053H442.488V166.044C442.488 166.596 442.603 166.979 442.833 167.194C443.078 167.393 443.492 167.493 444.075 167.493H445.501V170H443.5ZM455.487 170V153.9H458.431V170H455.487ZM461.85 159.558L463.115 153.9H466.22L463.874 159.558H461.85ZM472.469 170L468.283 158.592H471.365L474.263 167.217L477.161 158.592H480.243L476.034 170H472.469ZM488.001 170.276C486.851 170.276 485.831 170.031 484.942 169.54C484.053 169.049 483.355 168.359 482.849 167.47C482.343 166.581 482.09 165.553 482.09 164.388C482.09 163.207 482.335 162.157 482.826 161.237C483.332 160.317 484.022 159.604 484.896 159.098C485.785 158.577 486.828 158.316 488.024 158.316C489.143 158.316 490.132 158.561 490.991 159.052C491.85 159.543 492.517 160.217 492.992 161.076C493.483 161.919 493.728 162.862 493.728 163.905C493.728 164.074 493.72 164.25 493.705 164.434C493.705 164.618 493.697 164.81 493.682 165.009H485.011C485.072 165.898 485.379 166.596 485.931 167.102C486.498 167.608 487.181 167.861 487.978 167.861C488.576 167.861 489.074 167.731 489.473 167.47C489.887 167.194 490.194 166.841 490.393 166.412H493.383C493.168 167.133 492.808 167.792 492.302 168.39C491.811 168.973 491.198 169.433 490.462 169.77C489.741 170.107 488.921 170.276 488.001 170.276ZM488.024 160.708C487.303 160.708 486.667 160.915 486.115 161.329C485.563 161.728 485.21 162.341 485.057 163.169H490.738C490.692 162.418 490.416 161.82 489.91 161.375C489.404 160.93 488.775 160.708 488.024 160.708ZM385.513 205.06V188.592H388.135L388.457 190.225C388.825 189.719 389.308 189.274 389.906 188.891C390.519 188.508 391.309 188.316 392.275 188.316C393.348 188.316 394.307 188.577 395.15 189.098C395.993 189.619 396.66 190.332 397.151 191.237C397.642 192.142 397.887 193.169 397.887 194.319C397.887 195.469 397.642 196.496 397.151 197.401C396.66 198.29 395.993 198.996 395.15 199.517C394.307 200.023 393.348 200.276 392.275 200.276C391.416 200.276 390.665 200.115 390.021 199.793C389.377 199.471 388.856 199.019 388.457 198.436V205.06H385.513ZM391.654 197.7C392.589 197.7 393.364 197.386 393.977 196.757C394.59 196.128 394.897 195.316 394.897 194.319C394.897 193.322 394.59 192.502 393.977 191.858C393.364 191.214 392.589 190.892 391.654 190.892C390.703 190.892 389.921 191.214 389.308 191.858C388.71 192.487 388.411 193.299 388.411 194.296C388.411 195.293 388.71 196.113 389.308 196.757C389.921 197.386 390.703 197.7 391.654 197.7ZM401.437 200V188.592H404.059L404.335 190.731C404.749 189.995 405.309 189.412 406.014 188.983C406.735 188.538 407.578 188.316 408.544 188.316V191.421H407.716C407.072 191.421 406.497 191.521 405.991 191.72C405.485 191.919 405.086 192.264 404.795 192.755C404.519 193.246 404.381 193.928 404.381 194.802V200H401.437ZM416.817 200.276C415.667 200.276 414.647 200.031 413.758 199.54C412.869 199.049 412.171 198.359 411.665 197.47C411.159 196.581 410.906 195.553 410.906 194.388C410.906 193.207 411.151 192.157 411.642 191.237C412.148 190.317 412.838 189.604 413.712 189.098C414.601 188.577 415.644 188.316 416.84 188.316C417.959 188.316 418.948 188.561 419.807 189.052C420.666 189.543 421.333 190.217 421.808 191.076C422.299 191.919 422.544 192.862 422.544 193.905C422.544 194.074 422.536 194.25 422.521 194.434C422.521 194.618 422.513 194.81 422.498 195.009H413.827C413.888 195.898 414.195 196.596 414.747 197.102C415.314 197.608 415.997 197.861 416.794 197.861C417.392 197.861 417.89 197.731 418.289 197.47C418.703 197.194 419.01 196.841 419.209 196.412H422.199C421.984 197.133 421.624 197.792 421.118 198.39C420.627 198.973 420.014 199.433 419.278 199.77C418.557 200.107 417.737 200.276 416.817 200.276ZM416.84 190.708C416.119 190.708 415.483 190.915 414.931 191.329C414.379 191.728 414.026 192.341 413.873 193.169H419.554C419.508 192.418 419.232 191.82 418.726 191.375C418.22 190.93 417.591 190.708 416.84 190.708ZM428.573 200L424.387 188.592H427.469L430.367 197.217L433.265 188.592H436.347L432.138 200H428.573ZM440.711 186.821C440.174 186.821 439.729 186.66 439.377 186.338C439.039 186.016 438.871 185.61 438.871 185.119C438.871 184.628 439.039 184.23 439.377 183.923C439.729 183.601 440.174 183.44 440.711 183.44C441.247 183.44 441.684 183.601 442.022 183.923C442.374 184.23 442.551 184.628 442.551 185.119C442.551 185.61 442.374 186.016 442.022 186.338C441.684 186.66 441.247 186.821 440.711 186.821ZM439.239 200V188.592H442.183V200H439.239ZM451.65 200.276C450.546 200.276 449.549 200.023 448.66 199.517C447.786 199.011 447.088 198.313 446.567 197.424C446.061 196.519 445.808 195.477 445.808 194.296C445.808 193.115 446.068 192.08 446.59 191.191C447.111 190.286 447.809 189.581 448.683 189.075C449.572 188.569 450.569 188.316 451.673 188.316C452.761 188.316 453.743 188.569 454.617 189.075C455.506 189.581 456.204 190.286 456.71 191.191C457.231 192.08 457.492 193.115 457.492 194.296C457.492 195.477 457.231 196.519 456.71 197.424C456.204 198.313 455.506 199.011 454.617 199.517C453.727 200.023 452.738 200.276 451.65 200.276ZM451.65 197.723C452.416 197.723 453.083 197.439 453.651 196.872C454.218 196.289 454.502 195.431 454.502 194.296C454.502 193.161 454.218 192.31 453.651 191.743C453.083 191.16 452.424 190.869 451.673 190.869C450.891 190.869 450.216 191.16 449.649 191.743C449.097 192.31 448.821 193.161 448.821 194.296C448.821 195.431 449.097 196.289 449.649 196.872C450.216 197.439 450.883 197.723 451.65 197.723ZM472.038 188.592V200H469.439L469.209 198.068C468.856 198.743 468.343 199.279 467.668 199.678C467.009 200.077 466.227 200.276 465.322 200.276C463.911 200.276 462.815 199.831 462.033 198.942C461.251 198.053 460.86 196.749 460.86 195.032V188.592H463.804V194.756C463.804 195.737 464.003 196.489 464.402 197.01C464.801 197.531 465.422 197.792 466.265 197.792C467.093 197.792 467.768 197.501 468.289 196.918C468.826 196.335 469.094 195.523 469.094 194.48V188.592H472.038ZM480.672 200.276C479.66 200.276 478.771 200.115 478.004 199.793C477.237 199.456 476.624 198.996 476.164 198.413C475.704 197.83 475.428 197.156 475.336 196.389H478.303C478.395 196.834 478.64 197.217 479.039 197.539C479.453 197.846 479.982 197.999 480.626 197.999C481.27 197.999 481.738 197.869 482.029 197.608C482.336 197.347 482.489 197.048 482.489 196.711C482.489 196.22 482.274 195.891 481.845 195.722C481.416 195.538 480.818 195.362 480.051 195.193C479.56 195.086 479.062 194.955 478.556 194.802C478.05 194.649 477.582 194.457 477.153 194.227C476.739 193.982 476.402 193.675 476.141 193.307C475.88 192.924 475.75 192.456 475.75 191.904C475.75 190.892 476.149 190.041 476.946 189.351C477.759 188.661 478.893 188.316 480.35 188.316C481.699 188.316 482.773 188.63 483.57 189.259C484.383 189.888 484.866 190.754 485.019 191.858H482.236C482.067 191.015 481.431 190.593 480.327 190.593C479.775 190.593 479.346 190.7 479.039 190.915C478.748 191.13 478.602 191.398 478.602 191.72C478.602 192.057 478.824 192.326 479.269 192.525C479.714 192.724 480.304 192.908 481.04 193.077C481.837 193.261 482.566 193.468 483.225 193.698C483.9 193.913 484.436 194.242 484.835 194.687C485.234 195.116 485.433 195.737 485.433 196.55C485.448 197.255 485.264 197.892 484.881 198.459C484.498 199.026 483.946 199.471 483.225 199.793C482.504 200.115 481.653 200.276 480.672 200.276ZM488.961 200V183.44H491.905V200H488.961ZM497.259 205.06L499.904 199.241H499.214L494.775 188.592H497.972L501.169 196.619L504.504 188.592H507.632L500.387 205.06H497.259ZM370.935 230.276C369.923 230.276 369.034 230.115 368.267 229.793C367.5 229.456 366.887 228.996 366.427 228.413C365.967 227.83 365.691 227.156 365.599 226.389H368.566C368.658 226.834 368.903 227.217 369.302 227.539C369.716 227.846 370.245 227.999 370.889 227.999C371.533 227.999 372.001 227.869 372.292 227.608C372.599 227.347 372.752 227.048 372.752 226.711C372.752 226.22 372.537 225.891 372.108 225.722C371.679 225.538 371.081 225.362 370.314 225.193C369.823 225.086 369.325 224.955 368.819 224.802C368.313 224.649 367.845 224.457 367.416 224.227C367.002 223.982 366.665 223.675 366.404 223.307C366.143 222.924 366.013 222.456 366.013 221.904C366.013 220.892 366.412 220.041 367.209 219.351C368.022 218.661 369.156 218.316 370.613 218.316C371.962 218.316 373.036 218.63 373.833 219.259C374.646 219.888 375.129 220.754 375.282 221.858H372.499C372.33 221.015 371.694 220.593 370.59 220.593C370.038 220.593 369.609 220.7 369.302 220.915C369.011 221.13 368.865 221.398 368.865 221.72C368.865 222.057 369.087 222.326 369.532 222.525C369.977 222.724 370.567 222.908 371.303 223.077C372.1 223.261 372.829 223.468 373.488 223.698C374.163 223.913 374.699 224.242 375.098 224.687C375.497 225.116 375.696 225.737 375.696 226.55C375.711 227.255 375.527 227.892 375.144 228.459C374.761 229.026 374.209 229.471 373.488 229.793C372.767 230.115 371.916 230.276 370.935 230.276ZM379.224 230V213.44H382.168V220.34C382.551 219.711 383.065 219.221 383.709 218.868C384.368 218.5 385.12 218.316 385.963 218.316C387.374 218.316 388.462 218.761 389.229 219.65C390.011 220.539 390.402 221.843 390.402 223.56V230H387.481V223.836C387.481 222.855 387.282 222.103 386.883 221.582C386.5 221.061 385.886 220.8 385.043 220.8C384.215 220.8 383.525 221.091 382.973 221.674C382.436 222.257 382.168 223.069 382.168 224.112V230H379.224ZM399.611 230.276C398.507 230.276 397.511 230.023 396.621 229.517C395.747 229.011 395.05 228.313 394.528 227.424C394.022 226.519 393.769 225.477 393.769 224.296C393.769 223.115 394.03 222.08 394.551 221.191C395.073 220.286 395.77 219.581 396.644 219.075C397.534 218.569 398.53 218.316 399.634 218.316C400.723 218.316 401.704 218.569 402.578 219.075C403.468 219.581 404.165 220.286 404.671 221.191C405.193 222.08 405.453 223.115 405.453 224.296C405.453 225.477 405.193 226.519 404.671 227.424C404.165 228.313 403.468 229.011 402.578 229.517C401.689 230.023 400.7 230.276 399.611 230.276ZM399.611 227.723C400.378 227.723 401.045 227.439 401.612 226.872C402.18 226.289 402.463 225.431 402.463 224.296C402.463 223.161 402.18 222.31 401.612 221.743C401.045 221.16 400.386 220.869 399.634 220.869C398.852 220.869 398.178 221.16 397.61 221.743C397.058 222.31 396.782 223.161 396.782 224.296C396.782 225.431 397.058 226.289 397.61 226.872C398.178 227.439 398.845 227.723 399.611 227.723ZM409.006 235.06V218.592H411.628L411.95 220.225C412.318 219.719 412.801 219.274 413.399 218.891C414.012 218.508 414.802 218.316 415.768 218.316C416.841 218.316 417.799 218.577 418.643 219.098C419.486 219.619 420.153 220.332 420.644 221.237C421.134 222.142 421.38 223.169 421.38 224.319C421.38 225.469 421.134 226.496 420.644 227.401C420.153 228.29 419.486 228.996 418.643 229.517C417.799 230.023 416.841 230.276 415.768 230.276C414.909 230.276 414.158 230.115 413.514 229.793C412.87 229.471 412.348 229.019 411.95 228.436V235.06H409.006ZM415.147 227.7C416.082 227.7 416.856 227.386 417.47 226.757C418.083 226.128 418.39 225.316 418.39 224.319C418.39 223.322 418.083 222.502 417.47 221.858C416.856 221.214 416.082 220.892 415.147 220.892C414.196 220.892 413.414 221.214 412.801 221.858C412.203 222.487 411.904 223.299 411.904 224.296C411.904 225.293 412.203 226.113 412.801 226.757C413.414 227.386 414.196 227.7 415.147 227.7ZM424.929 235.06V218.592H427.551L427.873 220.225C428.241 219.719 428.724 219.274 429.322 218.891C429.936 218.508 430.725 218.316 431.691 218.316C432.765 218.316 433.723 218.577 434.566 219.098C435.41 219.619 436.077 220.332 436.567 221.237C437.058 222.142 437.303 223.169 437.303 224.319C437.303 225.469 437.058 226.496 436.567 227.401C436.077 228.29 435.41 228.996 434.566 229.517C433.723 230.023 432.765 230.276 431.691 230.276C430.833 230.276 430.081 230.115 429.437 229.793C428.793 229.471 428.272 229.019 427.873 228.436V235.06H424.929ZM431.07 227.7C432.006 227.7 432.78 227.386 433.393 226.757C434.007 226.128 434.313 225.316 434.313 224.319C434.313 223.322 434.007 222.502 433.393 221.858C432.78 221.214 432.006 220.892 431.07 220.892C430.12 220.892 429.338 221.214 428.724 221.858C428.126 222.487 427.827 223.299 427.827 224.296C427.827 225.293 428.126 226.113 428.724 226.757C429.338 227.386 430.12 227.7 431.07 227.7ZM446.396 230.276C445.246 230.276 444.227 230.031 443.337 229.54C442.448 229.049 441.75 228.359 441.244 227.47C440.738 226.581 440.485 225.553 440.485 224.388C440.485 223.207 440.731 222.157 441.221 221.237C441.727 220.317 442.417 219.604 443.291 219.098C444.181 218.577 445.223 218.316 446.419 218.316C447.539 218.316 448.528 218.561 449.386 219.052C450.245 219.543 450.912 220.217 451.387 221.076C451.878 221.919 452.123 222.862 452.123 223.905C452.123 224.074 452.116 224.25 452.1 224.434C452.1 224.618 452.093 224.81 452.077 225.009H443.406C443.468 225.898 443.774 226.596 444.326 227.102C444.894 227.608 445.576 227.861 446.373 227.861C446.971 227.861 447.47 227.731 447.868 227.47C448.282 227.194 448.589 226.841 448.788 226.412H451.778C451.564 227.133 451.203 227.792 450.697 228.39C450.207 228.973 449.593 229.433 448.857 229.77C448.137 230.107 447.316 230.276 446.396 230.276ZM446.419 220.708C445.699 220.708 445.062 220.915 444.51 221.329C443.958 221.728 443.606 222.341 443.452 223.169H449.133C449.087 222.418 448.811 221.82 448.305 221.375C447.799 220.93 447.171 220.708 446.419 220.708ZM460.763 230.276C459.69 230.276 458.732 230.015 457.888 229.494C457.045 228.973 456.378 228.26 455.887 227.355C455.397 226.45 455.151 225.423 455.151 224.273C455.151 223.123 455.397 222.103 455.887 221.214C456.378 220.309 457.045 219.604 457.888 219.098C458.732 218.577 459.69 218.316 460.763 218.316C461.622 218.316 462.373 218.477 463.017 218.799C463.661 219.121 464.183 219.573 464.581 220.156V213.44H467.525V230H464.903L464.581 228.367C464.213 228.873 463.723 229.318 463.109 229.701C462.511 230.084 461.729 230.276 460.763 230.276ZM461.384 227.7C462.335 227.7 463.109 227.386 463.707 226.757C464.321 226.113 464.627 225.293 464.627 224.296C464.627 223.299 464.321 222.487 463.707 221.858C463.109 221.214 462.335 220.892 461.384 220.892C460.449 220.892 459.675 221.206 459.061 221.835C458.448 222.464 458.141 223.276 458.141 224.273C458.141 225.27 458.448 226.09 459.061 226.734C459.675 227.378 460.449 227.7 461.384 227.7ZM480.075 230L476.74 218.592H479.661L481.639 226.803L483.939 218.592H487.205L489.505 226.803L491.506 218.592H494.427L491.069 230H488.01L485.572 221.467L483.134 230H480.075ZM498.791 216.821C498.255 216.821 497.81 216.66 497.457 216.338C497.12 216.016 496.951 215.61 496.951 215.119C496.951 214.628 497.12 214.23 497.457 213.923C497.81 213.601 498.255 213.44 498.791 213.44C499.328 213.44 499.765 213.601 500.102 213.923C500.455 214.23 500.631 214.628 500.631 215.119C500.631 215.61 500.455 216.016 500.102 216.338C499.765 216.66 499.328 216.821 498.791 216.821ZM497.319 230V218.592H500.263V230H497.319ZM509.339 230C508.143 230 507.185 229.709 506.464 229.126C505.743 228.543 505.383 227.508 505.383 226.021V221.053H503.428V218.592H505.383L505.728 215.533H508.327V218.592H511.409V221.053H508.327V226.044C508.327 226.596 508.442 226.979 508.672 227.194C508.917 227.393 509.331 227.493 509.914 227.493H511.34V230H509.339ZM514.857 230V213.44H517.801V220.34C518.184 219.711 518.698 219.221 519.342 218.868C520.001 218.5 520.752 218.316 521.596 218.316C523.006 218.316 524.095 218.761 524.862 219.65C525.644 220.539 526.035 221.843 526.035 223.56V230H523.114V223.836C523.114 222.855 522.914 222.103 522.516 221.582C522.132 221.061 521.519 220.8 520.676 220.8C519.848 220.8 519.158 221.091 518.606 221.674C518.069 222.257 517.801 223.069 517.801 224.112V230H514.857Z" fill="white"/>
<defs>
<filter id="filter0_d" x="0" y="76" width="283" height="212" filterUnits="userSpaceOnUse" color-interpolation-filters="sRGB">
<feFlood flood-opacity="0" result="BackgroundImageFix"/>
<feColorMatrix in="SourceAlpha" type="matrix" values="0 0 0 0 0 0 0 0 0 0 0 0 0 0 0 0 0 0 127 0"/>
<feOffset dy="4"/>
<feGaussianBlur stdDeviation="2"/>
<feColorMatrix type="matrix" values="0 0 0 0 0 0 0 0 0 0 0 0 0 0 0 0 0 0 0.25 0"/>
<feBlend mode="normal" in2="BackgroundImageFix" result="effect1_dropShadow"/>
<feBlend mode="normal" in="SourceGraphic" in2="effect1_dropShadow" result="shape"/>
</filter>
<filter id="filter1_d" x="610" y="76" width="283" height="212" filterUnits="userSpaceOnUse" color-interpolation-filters="sRGB">
<feFlood flood-opacity="0" result="BackgroundImageFix"/>
<feColorMatrix in="SourceAlpha" type="matrix" values="0 0 0 0 0 0 0 0 0 0 0 0 0 0 0 0 0 0 127 0"/>
<feOffset dy="4"/>
<feGaussianBlur stdDeviation="2"/>
<feColorMatrix type="matrix" values="0 0 0 0 0 0 0 0 0 0 0 0 0 0 0 0 0 0 0.25 0"/>
<feBlend mode="normal" in2="BackgroundImageFix" result="effect1_dropShadow"/>
<feBlend mode="normal" in="SourceGraphic" in2="effect1_dropShadow" result="shape"/>
</filter>
<filter id="filter2_d" x="305" y="76" width="283" height="212" filterUnits="userSpaceOnUse" color-interpolation-filters="sRGB">
<feFlood flood-opacity="0" result="BackgroundImageFix"/>
<feColorMatrix in="SourceAlpha" type="matrix" values="0 0 0 0 0 0 0 0 0 0 0 0 0 0 0 0 0 0 127 0"/>
<feOffset dy="4"/>
<feGaussianBlur stdDeviation="2"/>
<feColorMatrix type="matrix" values="0 0 0 0 0 0 0 0 0 0 0 0 0 0 0 0 0 0 0.25 0"/>
<feBlend mode="normal" in2="BackgroundImageFix" result="effect1_dropShadow"/>
<feBlend mode="normal" in="SourceGraphic" in2="effect1_dropShadow" result="shape"/>
</filter>
</defs>
</svg>
