<svg width="32" height="32" viewBox="0 0 32 32" fill="none" xmlns="http://www.w3.org/2000/svg">
<path fill-rule="evenodd" clip-rule="evenodd" d="M8.7392 10.9742C11.2122 8.50118 12.8333 5.22537 12.8333 2H15.1667C15.1667 5.22537 16.7878 8.50118 19.2608 10.9742C21.7448 13.4582 24.9476 15 28 15V17C24.9476 17 21.7448 18.5418 19.2608 21.0258C16.7878 23.4988 15.1667 26.7746 15.1667 30H12.8333C12.8333 26.7746 11.2122 23.4988 8.7392 21.0258C6.25519 18.5418 3.05244 17 0 17V15C3.05244 15 6.25519 13.4582 8.7392 10.9742ZM4.95194 16C7.03047 16.8389 8.93747 18.1509 10.5108 19.7242C11.9687 21.1821 13.1791 22.9011 14 24.7514C14.8209 22.9011 16.0313 21.1821 17.4892 19.7242C19.0625 18.1509 20.9695 16.8389 23.0481 16C20.9695 15.1611 19.0625 13.8491 17.4892 12.2758C16.0313 10.8179 14.8209 9.0989 14 7.2486C13.1791 9.0989 11.9687 10.8179 10.5108 12.2758C8.93747 13.8491 7.03047 15.1611 4.95194 16Z" fill="#909090"/>
</svg>
