<svg width="32" height="32" viewBox="0 0 32 32" fill="none" xmlns="http://www.w3.org/2000/svg">
<path fill-rule="evenodd" clip-rule="evenodd" d="M16 28.25C22.7655 28.25 28.25 22.7655 28.25 16C28.25 9.23451 22.7655 3.75 16 3.75C9.23451 3.75 3.75 9.23451 3.75 16C3.75 22.7655 9.23451 28.25 16 28.25ZM16 30C23.732 30 30 23.732 30 16C30 8.26801 23.732 2 16 2C8.26801 2 2 8.26801 2 16C2 23.732 8.26801 30 16 30Z" fill="#909090"/>
<path fill-rule="evenodd" clip-rule="evenodd" d="M21.8797 16C21.8797 16.7721 21.7277 17.5367 21.4322 18.2501C21.1367 18.9634 20.7036 19.6116 20.1576 20.1576C19.6116 20.7036 18.9634 21.1367 18.2501 21.4322C17.5367 21.7277 16.7721 21.8797 16 21.8797C15.2279 21.8797 14.4633 21.7277 13.7499 21.4322C13.0366 21.1367 12.3884 20.7036 11.8424 20.1576C11.2964 19.6116 10.8633 18.9634 10.5678 18.2501C10.2723 17.5367 10.1203 16.7721 10.1203 16H9C9 16.5917 9.07501 17.1796 9.22228 17.75C9.30381 18.0658 9.40749 18.3761 9.53284 18.6788C9.88463 19.5281 10.4002 20.2997 11.0503 20.9497C11.7003 21.5998 12.4719 22.1154 13.3212 22.4672C14.1705 22.8189 15.0807 23 16 23C16.9193 23 17.8295 22.8189 18.6788 22.4672C19.5281 22.1154 20.2997 21.5998 20.9497 20.9497C21.5998 20.2997 22.1154 19.5281 22.4672 18.6788C22.5925 18.3761 22.6962 18.0658 22.7777 17.75C22.925 17.1796 23 16.5917 23 16H21.8797Z" fill="#909090"/>
<path d="M13.375 12.5C13.375 12.9832 12.9832 13.375 12.5 13.375C12.0168 13.375 11.625 12.9832 11.625 12.5C11.625 12.0168 12.0168 11.625 12.5 11.625C12.9832 11.625 13.375 12.0168 13.375 12.5Z" fill="#909090"/>
<path d="M20.375 12.5C20.375 12.9832 19.9832 13.375 19.5 13.375C19.0168 13.375 18.625 12.9832 18.625 12.5C18.625 12.0168 19.0168 11.625 19.5 11.625C19.9832 11.625 20.375 12.0168 20.375 12.5Z" fill="#909090"/>
</svg>
