<svg width="304" height="424" viewBox="0 0 304 424" fill="none" xmlns="http://www.w3.org/2000/svg">
<path d="M296.027 133.821L296.025 133.833L296.023 133.845C295.739 135.595 295.459 137.36 295.178 139.131L295.174 139.151C291.892 159.835 288.451 181.087 276.323 196.736C269.745 205.223 260.63 212.069 251.25 215.519C241.872 218.969 232.575 218.926 225.161 214.287C221.452 211.904 218.043 208.245 214.668 203.642C211.291 199.036 208.085 193.678 204.691 188.001L204.539 187.747C197.82 176.508 190.36 164.03 179.887 155.748C168.808 146.84 154.573 142.911 142.87 139.68L142.616 139.61C137.406 138.172 132.755 136.884 128.885 135.373C124.979 133.848 122.263 132.238 120.658 130.375L120.649 130.365L120.641 130.356C118.338 127.728 117.683 123.883 118.542 118.199C119.401 112.517 121.649 105.764 124.269 97.9251L124.286 97.8741C126.545 91.1165 129.036 83.6659 130.906 75.8356L130.908 75.8252L130.911 75.8148C132.716 68.0067 133.901 59.868 135.034 52.0887L135.043 52.0269C136.366 42.9397 137.615 34.3951 139.673 27.0304C141.734 19.6564 144.507 13.8599 148.614 10.0243C154.48 4.62292 163.826 2.55622 174.874 3.07793C185.833 3.59542 197.899 6.64088 208.526 10.774C227.822 18.2785 242.249 29.0077 256.776 39.8283L256.79 39.8387C258.228 40.9095 259.668 41.982 261.111 43.0499C262.535 44.1042 263.961 45.1505 265.377 46.1889C272.664 51.5354 279.631 56.6517 285.452 62.1105C291.265 67.5609 295.75 73.1879 298.204 79.453L298.209 79.4655L298.214 79.4779C300.701 85.664 301.324 92.7646 300.856 100.834C300.387 108.921 298.843 117.732 297.157 127.326C296.783 129.458 296.402 131.626 296.027 133.821ZM174.668 355.917L174.664 355.93L174.661 355.943C168.474 378.699 157.18 402.468 138.995 413.17C129.871 418.408 118.741 420.613 106.431 420.953C94.1194 421.292 80.8425 419.762 67.5604 417.707C54.3279 415.645 41.4936 413.164 31.0469 409.012C20.586 404.854 13.0119 399.217 9.58145 391.153C7.02361 385.14 6.55916 377.39 7.29684 368.592C8.03141 359.831 9.91658 350.414 11.7684 341.183L11.7813 341.118C13.1197 334.446 14.4416 327.856 15.2293 321.858C17.9704 302.099 14.765 288.907 10.7673 272.455L10.7408 272.345C10.1478 269.905 9.53828 267.397 8.92483 264.775L8.92277 264.766L8.92065 264.757C6.45173 254.485 3.96213 242.729 3.22066 231.322C2.4769 219.881 3.51899 209.131 7.80882 200.673C16.5582 183.922 39.0888 175.386 57.5719 182.081C67.1532 185.604 75.8106 193.16 85.2836 201.486L85.4553 201.637C94.3194 209.427 103.838 217.793 114.966 222.783C125.857 227.703 138.146 229.232 148.959 230.576L149.167 230.602C155.081 231.338 160.513 232.016 165.28 233.12C170.054 234.224 173.87 235.695 176.655 237.84C181.686 241.714 184.145 248.42 184.989 257.407C185.829 266.35 185.011 276.815 184.168 287.491L184.167 287.502C184.083 288.566 183.999 289.631 183.916 290.694C183.689 293.374 183.473 296.033 183.259 298.672L183.258 298.682C181.692 317.979 180.203 336.239 174.668 355.917Z" fill="url(#paint0_linear_230_1978)" stroke="url(#paint1_linear_230_1978)" stroke-width="6"/>
<defs>
<linearGradient id="paint0_linear_230_1978" x1="36" y1="206" x2="187.608" y2="300.551" gradientUnits="userSpaceOnUse">
<stop stop-color="#4D4F5F"/>
<stop offset="1" stop-color="#5872CE"/>
</linearGradient>
<linearGradient id="paint1_linear_230_1978" x1="296.5" y1="32.5" x2="172.247" y2="388.163" gradientUnits="userSpaceOnUse">
<stop stop-color="#4D4F5F"/>
<stop offset="1" stop-color="#5872CE"/>
</linearGradient>
</defs>
</svg>
