<svg width="304" height="412" viewBox="0 0 304 412" fill="none" xmlns="http://www.w3.org/2000/svg">
<g filter="url(#filter0_d_77_265)">
<path d="M142.89 127.714C153.506 130.65 165.797 134.049 175.278 141.687C184.265 148.803 190.731 159.635 196.841 169.871C202.884 179.996 208.579 189.537 216.022 194.32C231.127 203.803 253.024 193.908 265.358 177.967C276.707 163.298 279.843 143.509 282.754 125.132C283.007 123.538 283.258 121.955 283.512 120.387C283.846 118.427 284.186 116.49 284.521 114.579C287.524 97.4592 290.176 82.342 285.314 70.2273C280.516 57.9575 268.011 48.7675 255.03 39.2279C253.763 38.2968 252.492 37.3623 251.222 36.4212C249.931 35.464 248.642 34.5022 247.351 33.539C234.371 23.8549 221.196 14.0246 203.549 7.15013C184.147 -0.408146 159.202 -4.11857 147.145 7.0127C138.73 14.8782 136.526 30.0415 134.171 46.2405C133.153 53.2493 132.106 60.4521 130.515 67.3415C128.87 74.2436 126.673 80.8273 124.643 86.9106C120.003 100.812 116.236 112.1 121.923 118.6C125.665 122.951 133.642 125.157 142.89 127.714Z" fill="url(#paint0_linear_77_265)" fill-opacity="0.9" shape-rendering="crispEdges"/>
<path d="M141.714 372.618C158.951 362.464 169.293 340.241 174.866 319.711C179.898 301.788 181.244 285.173 182.643 267.904C182.835 265.532 183.028 263.147 183.232 260.746C183.306 259.789 183.382 258.83 183.457 257.869C184.957 238.86 186.496 219.357 175.697 211.028C169.826 206.499 160.308 205.313 149.797 204.004C140 202.783 129.34 201.455 119.966 197.212C110.378 192.906 102.116 185.633 94.0783 178.557C85.7014 171.183 77.568 164.023 68.431 160.66C50.6785 154.215 29.0729 162.349 20.6001 178.618C12.2789 195.033 16.9387 219.435 21.3717 237.911C21.9236 240.273 22.4717 242.533 23.0018 244.718C26.5846 259.487 29.3509 270.891 26.9661 288.098C26.2733 293.386 25.1045 299.222 23.8978 305.248C20.5974 321.729 17.0129 339.629 22.1029 351.614C29.0539 367.982 52.3322 373.317 76.0383 377.017C99.8941 380.714 124.326 382.625 141.714 372.618Z" fill="url(#paint1_linear_77_265)" fill-opacity="0.9" shape-rendering="crispEdges"/>
</g>
<defs>
<filter id="filter0_d_77_265" x="0" y="0" width="304" height="412" filterUnits="userSpaceOnUse" color-interpolation-filters="sRGB">
<feFlood flood-opacity="0" result="BackgroundImageFix"/>
<feColorMatrix in="SourceAlpha" type="matrix" values="0 0 0 0 0 0 0 0 0 0 0 0 0 0 0 0 0 0 127 0" result="hardAlpha"/>
<feOffset dy="16"/>
<feGaussianBlur stdDeviation="8"/>
<feComposite in2="hardAlpha" operator="out"/>
<feColorMatrix type="matrix" values="0 0 0 0 0 0 0 0 0 0 0 0 0 0 0 0 0 0 0.2 0"/>
<feBlend mode="normal" in2="BackgroundImageFix" result="effect1_dropShadow_77_265"/>
<feBlend mode="normal" in="SourceGraphic" in2="effect1_dropShadow_77_265" result="shape"/>
</filter>
<linearGradient id="paint0_linear_77_265" x1="48.2105" y1="184.623" x2="183.986" y2="269.159" gradientUnits="userSpaceOnUse">
<stop stop-color="#D1C4F7"/>
<stop offset="1" stop-color="#92A5EA"/>
</linearGradient>
<linearGradient id="paint1_linear_77_265" x1="48.2105" y1="184.623" x2="183.986" y2="269.159" gradientUnits="userSpaceOnUse">
<stop stop-color="#D1C4F7"/>
<stop offset="1" stop-color="#92A5EA"/>
</linearGradient>
</defs>
</svg>
