<svg width="304" height="424" viewBox="0 0 304 424" fill="none" xmlns="http://www.w3.org/2000/svg">
<path d="M297.013 133.99L297.011 133.998L297.01 134.006C296.726 135.755 296.446 137.521 296.164 139.294L296.162 139.308C292.889 159.932 289.427 181.46 277.113 197.349C270.431 205.971 261.166 212.937 251.595 216.458C242.026 219.978 232.381 219.988 224.624 215.131C220.766 212.653 217.27 208.882 213.861 204.233C210.452 199.582 207.221 194.182 203.833 188.514L203.729 188.34C196.975 177.044 189.593 164.697 179.263 156.529C168.345 147.75 154.277 143.867 142.523 140.622L142.35 140.574C137.154 139.139 132.449 137.838 128.521 136.305C124.57 134.762 121.667 133.078 119.9 131.027L119.894 131.021L119.889 131.015C117.294 128.054 116.679 123.837 117.554 118.049C118.428 112.263 120.709 105.419 123.321 97.6081L123.332 97.5739C125.595 90.8064 128.074 83.3907 129.933 75.6034L129.935 75.5964L129.936 75.5895C131.733 67.8218 132.912 59.7172 134.047 51.9244L134.053 51.8828C135.374 42.8123 136.631 34.1997 138.71 26.7612C140.791 19.3164 143.629 13.3109 147.934 9.29113C154.091 3.62023 163.768 1.55235 174.921 2.07906C186.016 2.60294 198.19 5.68104 208.889 9.84204C228.327 17.4019 242.854 28.2108 257.374 39.0264L257.385 39.0351C258.824 40.1067 260.263 41.1787 261.706 42.2461C263.128 43.2989 264.553 44.3441 265.968 45.3826C273.244 50.721 280.263 55.8734 286.136 61.3811C292.004 66.8831 296.606 72.6298 299.136 79.0883L299.139 79.0966L299.142 79.1049C301.706 85.4819 302.327 92.7477 301.855 100.892C301.381 109.048 299.825 117.92 298.142 127.499C297.768 129.632 297.387 131.797 297.013 133.99ZM175.63 356.188L175.628 356.197L175.626 356.205C169.425 379.012 158.043 403.123 139.499 414.034C130.177 419.387 118.862 421.611 106.458 421.952C94.0552 422.294 80.7073 420.753 67.4095 418.695C54.1712 416.633 41.2383 414.138 30.6775 409.941C20.1079 405.741 12.243 399.964 8.66125 391.544C6.00788 385.307 5.55804 377.361 6.30034 368.508C7.04056 359.68 8.93858 350.205 10.7879 340.986L10.7966 340.943C12.1383 334.254 13.455 327.69 14.2383 321.724C16.9541 302.152 13.7866 289.116 9.78694 272.655L9.76904 272.582C9.17625 270.142 8.56569 267.629 7.95116 265.003L7.94834 264.991C5.47663 254.707 2.97002 242.883 2.22276 231.387C1.47399 219.868 2.50973 208.907 6.91957 200.215C15.9085 182.998 38.9761 174.282 57.9114 181.14C67.7041 184.739 76.5066 192.441 85.9437 200.735L86.0606 200.837C94.9626 208.661 104.386 216.943 115.376 221.871C126.129 226.729 138.293 228.242 149.149 229.592L149.291 229.61C155.191 230.344 160.678 231.028 165.505 232.145C170.337 233.264 174.315 234.775 177.265 237.047C182.631 241.179 185.132 248.238 185.985 257.314C186.835 266.36 186.006 276.917 185.165 287.57L185.162 287.598C185.079 288.657 184.995 289.717 184.913 290.774C184.685 293.453 184.47 296.112 184.255 298.752L184.255 298.763C182.69 318.05 181.195 336.403 175.63 356.188Z" fill="url(#paint0_linear_145_2844)" stroke="url(#paint1_linear_145_2844)" stroke-width="4"/>
<defs>
<linearGradient id="paint0_linear_145_2844" x1="42.5774" y1="80.5792" x2="382.68" y2="308.272" gradientUnits="userSpaceOnUse">
<stop stop-color="#D7FF39"/>
<stop offset="1" stop-color="#2704FF"/>
</linearGradient>
<linearGradient id="paint1_linear_145_2844" x1="14.5198" y1="193.461" x2="206.158" y2="368.811" gradientUnits="userSpaceOnUse">
<stop stop-color="#D7FF39"/>
<stop offset="1" stop-color="#2704FF"/>
</linearGradient>
</defs>
</svg>
