<svg width="1136" height="403" viewBox="0 0 1136 403" fill="none" xmlns="http://www.w3.org/2000/svg">
<rect width="1136" height="403" rx="4" fill="#F9F9F9"/>
<g clip-path="url(#clip0_104_1599)">
<path d="M217.5 307C275.766 307 323 259.766 323 201.5C323 143.234 275.766 96 217.5 96C159.234 96 112 143.234 112 201.5C112 259.766 159.234 307 217.5 307Z" fill="white"/>
<path d="M270.802 253.269V204.434C270.793 203.446 269.994 202.646 269.005 202.637H244.007C243.51 202.646 243.016 202.554 242.556 202.365C241.227 201.81 240.362 200.509 240.364 199.069V174.012C240.364 173.02 239.559 172.215 238.567 172.215H218.069L224.836 179.04C225.579 179.972 225.946 181.148 225.866 182.337L226.064 233.125H211.73V253.261L270.802 253.269Z" fill="#8B1D41"/>
<path d="M242.425 174.779V198.78C242.425 199.772 243.229 200.577 244.222 200.577H268.223L242.425 174.779Z" fill="#C42040"/>
<path d="M195.576 152.574V176.576C195.581 177.566 196.383 178.368 197.373 178.372H221.374L195.576 152.574Z" fill="#8B1D41"/>
<path d="M223.937 231.073V182.238C223.928 181.249 223.129 180.45 222.141 180.441H197.06C195.093 180.441 193.499 178.847 193.499 176.881V151.824C193.501 151.346 193.313 150.887 192.976 150.548C192.638 150.21 192.18 150.019 191.702 150.019H164.841V231.073H223.937Z" fill="#C42040"/>
<path d="M230.433 222.443L236.672 228.559L238.485 226.886L235.279 223.713H254.014V222.443V221.174H235.279L238.485 218.001L236.672 216.328L230.433 222.443Z" fill="white"/>
<path d="M207.033 204.929L200.793 211.044L198.98 209.371L202.186 206.19H183.46V204.929V203.659H202.186L198.98 200.486L200.793 198.813L207.033 204.929Z" fill="white"/>
</g>
<g clip-path="url(#clip1_104_1599)">
<path d="M568 307C626.542 307 674 259.766 674 201.5C674 143.234 626.542 96 568 96C509.458 96 462 143.234 462 201.5C462 259.766 509.458 307 568 307Z" fill="white"/>
<path d="M593.49 187.892H518.851C516.02 187.892 513.725 190.176 513.725 192.994V241.186C513.725 244.004 516.02 246.288 518.851 246.288H593.49C596.321 246.288 598.616 244.004 598.616 241.186V192.994C598.616 190.176 596.321 187.892 593.49 187.892Z" fill="#C42040"/>
<path d="M588.091 200.618H567.048V217.086H588.091V200.618Z" fill="white"/>
<path d="M622.432 161.938V209.742C622.428 212.648 620.06 215.001 617.14 215.001H600.686V191.098C600.375 188.331 598.182 186.145 595.402 185.832H537.541V161.938C537.541 159.029 539.91 156.671 542.833 156.671H617.14C620.063 156.671 622.432 159.029 622.432 161.938Z" fill="#C42040"/>
<path d="M622.432 169.364H537.541V180.936H622.432V169.364Z" fill="white"/>
<path d="M600.686 198.558V207.492H615.691V198.17H600.686V198.558Z" fill="#8B1D41"/>
<path d="M535.115 231.765H518.908V238.615H535.115V231.765Z" fill="#8B1D41"/>
<path d="M554.551 231.765H538.345V238.615H554.551V231.765Z" fill="#8B1D41"/>
<path d="M573.995 231.765H557.789V238.615H573.995V231.765Z" fill="#8B1D41"/>
<path d="M593.432 231.765H577.226V238.615H593.432V231.765Z" fill="#8B1D41"/>
</g>
<g clip-path="url(#clip2_104_1599)">
<path d="M918.5 307C976.766 307 1024 259.766 1024 201.5C1024 143.234 976.766 96 918.5 96C860.234 96 813 143.234 813 201.5C813 259.766 860.234 307 918.5 307Z" fill="white"/>
<path d="M946.639 182.09L938.561 174.614H898.471L890.716 182.09C888.426 184.954 887.18 188.511 887.18 192.178V247.697C887.18 252.564 891.124 256.508 895.991 256.508H941.364C943.701 256.511 945.944 255.583 947.596 253.93C949.249 252.277 950.177 250.035 950.175 247.697V192.178C950.175 188.511 948.928 184.954 946.639 182.09Z" fill="#C41F3F"/>
<path d="M937.498 167.509H899.51C898.09 167.509 896.938 168.661 896.938 170.081V170.089C896.938 171.509 898.09 172.661 899.51 172.661H937.498C938.919 172.661 940.07 171.509 940.07 170.089V170.081C940.07 168.661 938.919 167.509 937.498 167.509Z" fill="#C41F3F"/>
<path d="M929.388 208.061C936.089 208.061 941.521 202.629 941.521 195.928C941.521 189.228 936.089 183.796 929.388 183.796C922.688 183.796 917.256 189.228 917.256 195.928C917.256 202.629 922.688 208.061 929.388 208.061Z" fill="white"/>
<path d="M935.026 158.402C935.027 160.929 934.237 163.393 932.768 165.449H912.986C909.947 161.183 909.991 155.449 913.094 151.23C916.197 147.01 921.658 145.261 926.635 146.891C931.612 148.522 934.98 153.164 934.985 158.402H935.026Z" fill="#8B1D41"/>
<path d="M907.959 233.71C914.659 233.71 920.091 228.279 920.091 221.578C920.091 214.877 914.659 209.445 907.959 209.445C901.258 209.445 895.826 214.877 895.826 221.578C895.826 228.279 901.258 233.71 907.959 233.71Z" fill="white"/>
<path d="M937.293 240.823H916.432C915.294 240.823 914.371 241.746 914.371 242.884V243.708C914.371 244.846 915.294 245.769 916.432 245.769H937.293C938.431 245.769 939.353 244.846 939.353 243.708V242.884C939.353 241.746 938.431 240.823 937.293 240.823Z" fill="white"/>
<path d="M932.545 247.384H911.684C910.546 247.384 909.623 248.307 909.623 249.445V250.269C909.623 251.407 910.546 252.33 911.684 252.33H932.545C933.683 252.33 934.605 251.407 934.605 250.269V249.445C934.605 248.307 933.683 247.384 932.545 247.384Z" fill="white"/>
<path d="M929.396 199.357C930.616 199.357 931.234 198.854 931.234 197.956C931.234 197.28 930.954 196.835 929.792 196.423L929.347 199.357H929.396ZM929.396 191.799C928.325 191.799 927.805 192.261 927.805 193.011C927.805 193.761 928.127 194.016 929.19 194.395L929.594 191.799H929.396ZM932.512 191.032L932.256 192.607C931.721 192.286 931.136 192.054 930.525 191.923L930.105 194.7C932.009 195.343 932.907 196.143 932.907 197.783C932.907 199.753 931.473 200.808 929.314 200.808H929.215L928.943 202.613L927.88 202.382C927.88 202.382 928.143 200.734 928.127 200.734C927.356 200.61 926.61 200.362 925.918 200L926.157 198.426C926.879 198.838 927.669 199.117 928.49 199.25L928.951 196.085C927.113 195.459 926.173 194.807 926.173 193.208C926.173 191.379 927.509 190.373 929.619 190.373H929.767L929.948 189.227L931.02 189.466L930.863 190.497C931.435 190.598 931.99 190.778 932.512 191.032Z" fill="#8B1D41"/>
<path d="M907.966 225.584C909.186 225.584 909.804 225.081 909.804 224.182C909.804 223.507 909.524 223.062 908.362 222.658L907.917 225.584H907.966ZM907.966 218.026C906.895 218.026 906.376 218.487 906.376 219.237C906.376 219.987 906.697 220.243 907.76 220.622L908.164 218.026H907.966ZM911.082 217.259L910.81 218.809C910.274 218.487 909.69 218.256 909.079 218.124L908.659 220.902C910.563 221.545 911.461 222.344 911.461 223.985C911.461 225.955 910.027 227.01 907.868 227.01H907.785L907.513 228.815L906.45 228.584C906.45 228.584 906.714 226.935 906.697 226.935C905.928 226.82 905.182 226.58 904.488 226.227L904.727 224.652C905.449 225.064 906.239 225.344 907.06 225.477L907.521 222.312C905.683 221.685 904.744 221.034 904.744 219.435C904.744 217.605 906.079 216.6 908.189 216.6H908.337L908.478 215.512L909.549 215.759L909.434 216.723C910.005 216.824 910.56 217.005 911.082 217.259Z" fill="#8B1D41"/>
<path d="M922.91 161.377C924.13 161.377 924.74 160.866 924.74 159.968C924.74 159.292 924.468 158.855 923.306 158.443L922.861 161.377H922.91ZM922.861 153.811C921.797 153.811 921.27 154.272 921.27 155.022C921.27 155.772 921.6 156.028 922.663 156.415L923.067 153.811H922.861ZM926.009 153.052L925.754 154.618C925.218 154.297 924.633 154.066 924.023 153.934L923.602 156.712C925.506 157.355 926.405 158.154 926.405 159.795C926.405 161.773 924.971 162.819 922.811 162.819H922.737L922.465 164.624L921.402 164.41C921.402 164.41 921.665 162.762 921.649 162.762C920.861 162.646 920.098 162.401 919.391 162.036L919.63 160.47C920.347 160.886 921.135 161.166 921.954 161.295L922.424 158.138C920.586 157.511 919.646 156.852 919.646 155.253C919.646 153.423 920.981 152.418 923.091 152.418H923.24L923.446 151.223L924.517 151.47L924.369 152.475C924.939 152.595 925.49 152.789 926.009 153.052Z" fill="white"/>
</g>
<defs>
<clipPath id="clip0_104_1599">
<rect width="211" height="211" fill="white" transform="translate(112 96)"/>
</clipPath>
<clipPath id="clip1_104_1599">
<rect width="212" height="211" fill="white" transform="translate(462 96)"/>
</clipPath>
<clipPath id="clip2_104_1599">
<rect width="211" height="211" fill="white" transform="translate(813 96)"/>
</clipPath>
</defs>
</svg>
