<svg width="464" height="364" viewBox="0 0 464 364" fill="none" xmlns="http://www.w3.org/2000/svg">
<rect width="464" height="364" rx="8" fill="url(#paint0_linear_409_3340)"/>
<rect x="52" y="50" width="360" height="264" rx="4" fill="white"/>
<path d="M70.912 132V123.768H73.636L74.812 127.98C74.86 128.132 74.908 128.312 74.956 128.52C75.004 128.728 75.052 128.936 75.1 129.144C75.156 129.344 75.2 129.524 75.232 129.684H75.328C75.344 129.548 75.372 129.388 75.412 129.204C75.452 129.012 75.496 128.808 75.544 128.592C75.592 128.376 75.644 128.168 75.7 127.968L76.876 123.768H79.552V132H77.788V128.1C77.788 127.74 77.788 127.38 77.788 127.02C77.796 126.652 77.804 126.332 77.812 126.06C77.828 125.788 77.836 125.612 77.836 125.532H77.74C77.724 125.62 77.684 125.784 77.62 126.024C77.564 126.256 77.5 126.504 77.428 126.768C77.364 127.032 77.304 127.26 77.248 127.452L75.964 132H74.404L73.108 127.464C73.06 127.296 73.004 127.1 72.94 126.876C72.884 126.644 72.828 126.408 72.772 126.168C72.724 125.92 72.676 125.708 72.628 125.532H72.532C72.54 125.748 72.548 126.008 72.556 126.312C72.564 126.608 72.572 126.916 72.58 127.236C72.588 127.548 72.592 127.836 72.592 128.1V132H70.912ZM82.1448 134.256C81.8488 134.256 81.6008 134.232 81.4008 134.184C81.2088 134.144 81.0848 134.116 81.0288 134.1V132.972H81.7608C81.9608 132.972 82.1408 132.924 82.3008 132.828C82.4608 132.74 82.6008 132.62 82.7208 132.468C82.8408 132.324 82.9288 132.168 82.9848 132L80.5128 125.688H82.2768L83.3568 128.604C83.4048 128.74 83.4568 128.912 83.5128 129.12C83.5768 129.32 83.6408 129.532 83.7048 129.756C83.7688 129.972 83.8208 130.164 83.8608 130.332H83.9208C83.9528 130.22 83.9888 130.088 84.0288 129.936C84.0688 129.784 84.1088 129.628 84.1488 129.468C84.1968 129.308 84.2408 129.156 84.2808 129.012C84.3288 128.86 84.3688 128.728 84.4008 128.616L85.3008 125.688H86.9808L84.8328 131.7C84.7128 132.052 84.5728 132.38 84.4128 132.684C84.2608 132.996 84.0808 133.268 83.8728 133.5C83.6648 133.74 83.4168 133.924 83.1288 134.052C82.8488 134.188 82.5208 134.256 82.1448 134.256ZM93.9788 132.144C93.1228 132.144 92.3908 131.996 91.7828 131.7C91.1748 131.396 90.7108 130.928 90.3908 130.296C90.0788 129.664 89.9228 128.86 89.9228 127.884C89.9228 126.444 90.2748 125.376 90.9788 124.68C91.6908 123.976 92.6908 123.624 93.9788 123.624C94.6828 123.624 95.3148 123.744 95.8748 123.984C96.4348 124.224 96.8748 124.584 97.1948 125.064C97.5228 125.544 97.6868 126.148 97.6868 126.876H95.8868C95.8868 126.492 95.8068 126.168 95.6468 125.904C95.4948 125.64 95.2748 125.44 94.9868 125.304C94.7068 125.16 94.3788 125.088 94.0028 125.088C93.4908 125.088 93.0668 125.188 92.7308 125.388C92.4028 125.588 92.1588 125.884 91.9988 126.276C91.8468 126.66 91.7708 127.132 91.7708 127.692V128.064C91.7708 128.64 91.8508 129.124 92.0108 129.516C92.1708 129.9 92.4108 130.192 92.7308 130.392C93.0588 130.584 93.4788 130.68 93.9908 130.68C94.3908 130.68 94.7388 130.612 95.0348 130.476C95.3308 130.34 95.5588 130.14 95.7188 129.876C95.8788 129.612 95.9588 129.288 95.9588 128.904H97.6868C97.6868 129.632 97.5268 130.236 97.2068 130.716C96.8948 131.196 96.4588 131.556 95.8988 131.796C95.3388 132.028 94.6988 132.144 93.9788 132.144ZM98.9516 132V123.324H100.62V132H98.9516ZM103.819 132.144C103.611 132.144 103.387 132.12 103.147 132.072C102.915 132.024 102.695 131.94 102.487 131.82C102.279 131.692 102.107 131.512 101.971 131.28C101.843 131.04 101.779 130.736 101.779 130.368C101.779 129.928 101.875 129.564 102.067 129.276C102.259 128.988 102.531 128.764 102.883 128.604C103.243 128.436 103.671 128.32 104.167 128.256C104.663 128.192 105.211 128.16 105.811 128.16V127.692C105.811 127.508 105.779 127.348 105.715 127.212C105.659 127.076 105.555 126.968 105.403 126.888C105.259 126.808 105.055 126.768 104.791 126.768C104.527 126.768 104.311 126.8 104.143 126.864C103.983 126.928 103.867 127.012 103.795 127.116C103.731 127.212 103.699 127.32 103.699 127.44V127.584H102.079C102.071 127.544 102.067 127.508 102.067 127.476C102.067 127.436 102.067 127.388 102.067 127.332C102.067 126.964 102.179 126.648 102.403 126.384C102.627 126.112 102.943 125.904 103.351 125.76C103.759 125.616 104.235 125.544 104.779 125.544C105.363 125.544 105.851 125.62 106.243 125.772C106.643 125.924 106.947 126.148 107.155 126.444C107.371 126.74 107.479 127.112 107.479 127.56V130.428C107.479 130.572 107.519 130.68 107.599 130.752C107.687 130.816 107.783 130.848 107.887 130.848H108.283V131.94C108.203 131.98 108.079 132.02 107.911 132.06C107.743 132.108 107.539 132.132 107.299 132.132C107.067 132.132 106.859 132.096 106.675 132.024C106.499 131.96 106.351 131.868 106.231 131.748C106.111 131.62 106.027 131.468 105.979 131.292H105.895C105.759 131.46 105.591 131.608 105.391 131.736C105.199 131.864 104.971 131.964 104.707 132.036C104.451 132.108 104.155 132.144 103.819 132.144ZM104.383 130.884C104.607 130.884 104.807 130.852 104.983 130.788C105.159 130.716 105.307 130.624 105.427 130.512C105.547 130.392 105.639 130.248 105.703 130.08C105.775 129.912 105.811 129.732 105.811 129.54V129.192C105.363 129.192 104.963 129.224 104.611 129.288C104.259 129.344 103.979 129.444 103.771 129.588C103.571 129.732 103.471 129.932 103.471 130.188C103.471 130.332 103.507 130.456 103.579 130.56C103.651 130.664 103.755 130.744 103.891 130.8C104.027 130.856 104.191 130.884 104.383 130.884ZM111.668 132.144C111.228 132.144 110.832 132.096 110.48 132C110.128 131.904 109.828 131.772 109.58 131.604C109.332 131.428 109.14 131.22 109.004 130.98C108.876 130.74 108.812 130.468 108.812 130.164C108.812 130.132 108.812 130.1 108.812 130.068C108.812 130.036 108.816 130.012 108.824 129.996H110.432C110.432 130.012 110.432 130.028 110.432 130.044C110.432 130.06 110.432 130.076 110.432 130.092C110.44 130.292 110.504 130.456 110.624 130.584C110.744 130.704 110.9 130.792 111.092 130.848C111.292 130.904 111.5 130.932 111.716 130.932C111.908 130.932 112.092 130.916 112.268 130.884C112.452 130.844 112.604 130.776 112.724 130.68C112.852 130.584 112.916 130.46 112.916 130.308C112.916 130.116 112.836 129.968 112.676 129.864C112.524 129.76 112.32 129.676 112.064 129.612C111.816 129.548 111.544 129.476 111.248 129.396C110.976 129.332 110.704 129.26 110.432 129.18C110.16 129.092 109.912 128.98 109.688 128.844C109.472 128.708 109.296 128.532 109.16 128.316C109.024 128.092 108.956 127.812 108.956 127.476C108.956 127.148 109.028 126.864 109.172 126.624C109.316 126.376 109.512 126.172 109.76 126.012C110.016 125.852 110.312 125.736 110.648 125.664C110.992 125.584 111.36 125.544 111.752 125.544C112.12 125.544 112.464 125.584 112.784 125.664C113.104 125.736 113.384 125.848 113.624 126C113.864 126.144 114.052 126.328 114.188 126.552C114.324 126.768 114.392 127.012 114.392 127.284C114.392 127.34 114.392 127.392 114.392 127.44C114.392 127.488 114.388 127.52 114.38 127.536H112.784V127.44C112.784 127.296 112.74 127.176 112.652 127.08C112.564 126.976 112.436 126.896 112.268 126.84C112.108 126.784 111.912 126.756 111.68 126.756C111.52 126.756 111.372 126.768 111.236 126.792C111.108 126.816 110.996 126.852 110.9 126.9C110.804 126.948 110.728 127.008 110.672 127.08C110.624 127.144 110.6 127.224 110.6 127.32C110.6 127.456 110.656 127.568 110.768 127.656C110.888 127.736 111.044 127.804 111.236 127.86C111.428 127.916 111.64 127.976 111.872 128.04C112.16 128.12 112.46 128.2 112.772 128.28C113.092 128.352 113.388 128.452 113.66 128.58C113.932 128.708 114.152 128.892 114.32 129.132C114.488 129.364 114.572 129.68 114.572 130.08C114.572 130.464 114.496 130.788 114.344 131.052C114.2 131.316 113.996 131.528 113.732 131.688C113.468 131.848 113.16 131.964 112.808 132.036C112.456 132.108 112.076 132.144 111.668 132.144ZM118.336 132.144C117.896 132.144 117.5 132.096 117.148 132C116.796 131.904 116.496 131.772 116.248 131.604C116 131.428 115.808 131.22 115.672 130.98C115.544 130.74 115.48 130.468 115.48 130.164C115.48 130.132 115.48 130.1 115.48 130.068C115.48 130.036 115.484 130.012 115.492 129.996H117.1C117.1 130.012 117.1 130.028 117.1 130.044C117.1 130.06 117.1 130.076 117.1 130.092C117.108 130.292 117.172 130.456 117.292 130.584C117.412 130.704 117.568 130.792 117.76 130.848C117.96 130.904 118.168 130.932 118.384 130.932C118.576 130.932 118.76 130.916 118.936 130.884C119.12 130.844 119.272 130.776 119.392 130.68C119.52 130.584 119.584 130.46 119.584 130.308C119.584 130.116 119.504 129.968 119.344 129.864C119.192 129.76 118.988 129.676 118.732 129.612C118.484 129.548 118.212 129.476 117.916 129.396C117.644 129.332 117.372 129.26 117.1 129.18C116.828 129.092 116.58 128.98 116.356 128.844C116.14 128.708 115.964 128.532 115.828 128.316C115.692 128.092 115.624 127.812 115.624 127.476C115.624 127.148 115.696 126.864 115.84 126.624C115.984 126.376 116.18 126.172 116.428 126.012C116.684 125.852 116.98 125.736 117.316 125.664C117.66 125.584 118.028 125.544 118.42 125.544C118.788 125.544 119.132 125.584 119.452 125.664C119.772 125.736 120.052 125.848 120.292 126C120.532 126.144 120.72 126.328 120.856 126.552C120.992 126.768 121.06 127.012 121.06 127.284C121.06 127.34 121.06 127.392 121.06 127.44C121.06 127.488 121.056 127.52 121.048 127.536H119.452V127.44C119.452 127.296 119.408 127.176 119.32 127.08C119.232 126.976 119.104 126.896 118.936 126.84C118.776 126.784 118.58 126.756 118.348 126.756C118.188 126.756 118.04 126.768 117.904 126.792C117.776 126.816 117.664 126.852 117.568 126.9C117.472 126.948 117.396 127.008 117.34 127.08C117.292 127.144 117.268 127.224 117.268 127.32C117.268 127.456 117.324 127.568 117.436 127.656C117.556 127.736 117.712 127.804 117.904 127.86C118.096 127.916 118.308 127.976 118.54 128.04C118.828 128.12 119.128 128.2 119.44 128.28C119.76 128.352 120.056 128.452 120.328 128.58C120.6 128.708 120.82 128.892 120.988 129.132C121.156 129.364 121.24 129.68 121.24 130.08C121.24 130.464 121.164 130.788 121.012 131.052C120.868 131.316 120.664 131.528 120.4 131.688C120.136 131.848 119.828 131.964 119.476 132.036C119.124 132.108 118.744 132.144 118.336 132.144Z" fill="#4D4F5F"/>
<path d="M163.608 108V102.512H166.464C166.859 102.512 167.187 102.587 167.448 102.736C167.715 102.88 167.915 103.085 168.048 103.352C168.187 103.613 168.256 103.925 168.256 104.288C168.256 104.651 168.184 104.968 168.04 105.24C167.901 105.507 167.696 105.715 167.424 105.864C167.152 106.013 166.819 106.088 166.424 106.088H164.8V108H163.608ZM164.8 105.112H166.264C166.515 105.112 166.707 105.04 166.84 104.896C166.979 104.752 167.048 104.552 167.048 104.296C167.048 104.12 167.019 103.973 166.96 103.856C166.901 103.739 166.813 103.648 166.696 103.584C166.584 103.52 166.44 103.488 166.264 103.488H164.8V105.112ZM168.957 108V103.792H169.877L169.965 104.448H170.021C170.075 104.309 170.144 104.184 170.229 104.072C170.315 103.955 170.421 103.861 170.549 103.792C170.677 103.723 170.827 103.688 170.997 103.688C171.088 103.688 171.171 103.699 171.245 103.72C171.32 103.736 171.376 103.752 171.413 103.768V104.776H171.069C170.904 104.776 170.757 104.8 170.629 104.848C170.507 104.891 170.403 104.96 170.317 105.056C170.232 105.152 170.168 105.269 170.125 105.408C170.088 105.547 170.069 105.709 170.069 105.896V108H168.957ZM173.83 108.096C173.366 108.096 172.977 108.019 172.662 107.864C172.348 107.704 172.11 107.461 171.95 107.136C171.79 106.811 171.71 106.397 171.71 105.896C171.71 105.389 171.79 104.976 171.95 104.656C172.11 104.331 172.345 104.091 172.654 103.936C172.969 103.776 173.353 103.696 173.806 103.696C174.233 103.696 174.593 103.773 174.886 103.928C175.18 104.077 175.401 104.312 175.55 104.632C175.7 104.947 175.774 105.355 175.774 105.856V106.144H172.838C172.849 106.389 172.886 106.597 172.95 106.768C173.02 106.939 173.124 107.067 173.262 107.152C173.406 107.232 173.596 107.272 173.83 107.272C173.958 107.272 174.073 107.256 174.174 107.224C174.281 107.192 174.372 107.144 174.446 107.08C174.521 107.016 174.58 106.936 174.622 106.84C174.665 106.744 174.686 106.635 174.686 106.512H175.774C175.774 106.779 175.726 107.011 175.63 107.208C175.534 107.405 175.401 107.571 175.23 107.704C175.06 107.832 174.854 107.931 174.614 108C174.38 108.064 174.118 108.096 173.83 108.096ZM172.854 105.44H174.63C174.63 105.28 174.609 105.141 174.566 105.024C174.529 104.907 174.476 104.811 174.406 104.736C174.337 104.661 174.252 104.608 174.15 104.576C174.054 104.539 173.945 104.52 173.822 104.52C173.62 104.52 173.449 104.555 173.31 104.624C173.177 104.688 173.073 104.789 172.998 104.928C172.929 105.061 172.881 105.232 172.854 105.44ZM176.398 106.32V105.344H178.422V106.32H176.398ZM178.79 108L180.902 102.512H182.374L184.486 108H183.198L182.806 106.92H180.414L180.022 108H178.79ZM180.758 105.96H182.462L181.974 104.608C181.953 104.549 181.926 104.48 181.894 104.4C181.868 104.315 181.838 104.221 181.806 104.12C181.774 104.019 181.742 103.92 181.71 103.824C181.684 103.723 181.657 103.632 181.63 103.552H181.582C181.556 103.653 181.521 103.773 181.478 103.912C181.436 104.045 181.393 104.176 181.35 104.304C181.308 104.427 181.273 104.528 181.246 104.608L180.758 105.96ZM185.043 108V102.216H186.155V108H185.043ZM187.864 109.504C187.677 109.504 187.501 109.464 187.336 109.384C187.171 109.309 187.037 109.197 186.936 109.048C186.835 108.899 186.784 108.72 186.784 108.512C186.784 108.277 186.851 108.091 186.984 107.952C187.123 107.808 187.277 107.701 187.448 107.632C187.325 107.563 187.224 107.472 187.144 107.36C187.069 107.248 187.032 107.117 187.032 106.968C187.032 106.76 187.107 106.592 187.256 106.464C187.411 106.331 187.587 106.245 187.784 106.208C187.587 106.085 187.432 105.931 187.32 105.744C187.213 105.552 187.16 105.339 187.16 105.104C187.16 104.8 187.235 104.544 187.384 104.336C187.539 104.128 187.757 103.971 188.04 103.864C188.328 103.752 188.667 103.696 189.056 103.696C189.211 103.696 189.355 103.704 189.488 103.72C189.627 103.736 189.752 103.763 189.864 103.8C190.061 103.683 190.195 103.555 190.264 103.416C190.339 103.272 190.379 103.157 190.384 103.072H191.416C191.416 103.269 191.379 103.44 191.304 103.584C191.235 103.728 191.133 103.848 191 103.944C190.867 104.035 190.707 104.101 190.52 104.144C190.659 104.261 190.765 104.403 190.84 104.568C190.915 104.733 190.952 104.912 190.952 105.104C190.952 105.403 190.88 105.659 190.736 105.872C190.592 106.08 190.387 106.24 190.12 106.352C189.859 106.464 189.544 106.52 189.176 106.52H188.536C188.408 106.52 188.312 106.544 188.248 106.592C188.184 106.635 188.152 106.699 188.152 106.784C188.152 106.853 188.179 106.915 188.232 106.968C188.291 107.016 188.384 107.04 188.512 107.04H190.264C190.616 107.04 190.896 107.149 191.104 107.368C191.317 107.581 191.424 107.856 191.424 108.192C191.424 108.448 191.357 108.675 191.224 108.872C191.091 109.069 190.907 109.224 190.672 109.336C190.437 109.448 190.168 109.504 189.864 109.504H187.864ZM188.328 108.76H189.808C189.904 108.76 189.989 108.741 190.064 108.704C190.139 108.672 190.197 108.624 190.24 108.56C190.283 108.501 190.304 108.432 190.304 108.352C190.304 108.213 190.261 108.109 190.176 108.04C190.091 107.971 189.984 107.936 189.856 107.936H188.328C188.2 107.936 188.093 107.973 188.008 108.048C187.928 108.123 187.888 108.221 187.888 108.344C187.888 108.467 187.928 108.565 188.008 108.64C188.093 108.72 188.2 108.76 188.328 108.76ZM189.056 105.8C189.317 105.8 189.515 105.741 189.648 105.624C189.787 105.501 189.856 105.328 189.856 105.104C189.856 104.88 189.787 104.709 189.648 104.592C189.515 104.469 189.317 104.408 189.056 104.408C188.8 104.408 188.603 104.469 188.464 104.592C188.331 104.709 188.264 104.88 188.264 105.104C188.264 105.248 188.293 105.373 188.352 105.48C188.411 105.587 188.499 105.667 188.616 105.72C188.733 105.773 188.88 105.8 189.056 105.8ZM193.947 108.096C193.483 108.096 193.094 108.019 192.779 107.864C192.465 107.704 192.227 107.461 192.067 107.136C191.907 106.811 191.827 106.397 191.827 105.896C191.827 105.389 191.907 104.976 192.067 104.656C192.227 104.331 192.462 104.091 192.771 103.936C193.086 103.776 193.47 103.696 193.923 103.696C194.35 103.696 194.71 103.773 195.003 103.928C195.297 104.077 195.518 104.312 195.667 104.632C195.817 104.947 195.891 105.355 195.891 105.856V106.144H192.955C192.966 106.389 193.003 106.597 193.067 106.768C193.137 106.939 193.241 107.067 193.379 107.152C193.523 107.232 193.713 107.272 193.947 107.272C194.075 107.272 194.19 107.256 194.291 107.224C194.398 107.192 194.489 107.144 194.563 107.08C194.638 107.016 194.697 106.936 194.739 106.84C194.782 106.744 194.803 106.635 194.803 106.512H195.891C195.891 106.779 195.843 107.011 195.747 107.208C195.651 107.405 195.518 107.571 195.347 107.704C195.177 107.832 194.971 107.931 194.731 108C194.497 108.064 194.235 108.096 193.947 108.096ZM192.971 105.44H194.747C194.747 105.28 194.726 105.141 194.683 105.024C194.646 104.907 194.593 104.811 194.523 104.736C194.454 104.661 194.369 104.608 194.267 104.576C194.171 104.539 194.062 104.52 193.939 104.52C193.737 104.52 193.566 104.555 193.427 104.624C193.294 104.688 193.19 104.789 193.115 104.928C193.046 105.061 192.998 105.232 192.971 105.44ZM199.059 108.096C198.787 108.096 198.537 108.043 198.307 107.936C198.083 107.824 197.902 107.656 197.763 107.432H197.707L197.619 108H196.707V102.216H197.819V104.256H197.867C197.953 104.133 198.057 104.029 198.179 103.944C198.302 103.859 198.441 103.797 198.595 103.76C198.75 103.717 198.918 103.696 199.099 103.696C199.43 103.696 199.718 103.773 199.963 103.928C200.214 104.083 200.409 104.323 200.547 104.648C200.686 104.968 200.755 105.381 200.755 105.888C200.755 106.395 200.686 106.811 200.547 107.136C200.414 107.461 200.219 107.704 199.963 107.864C199.713 108.019 199.411 108.096 199.059 108.096ZM198.715 107.184C198.939 107.184 199.115 107.141 199.243 107.056C199.377 106.965 199.473 106.832 199.531 106.656C199.59 106.48 199.619 106.259 199.619 105.992V105.808C199.619 105.541 199.59 105.32 199.531 105.144C199.473 104.963 199.377 104.829 199.243 104.744C199.115 104.653 198.939 104.608 198.715 104.608C198.555 104.608 198.419 104.637 198.307 104.696C198.195 104.749 198.102 104.829 198.027 104.936C197.958 105.037 197.905 105.165 197.867 105.32C197.83 105.475 197.811 105.645 197.811 105.832V105.976C197.811 106.227 197.843 106.443 197.907 106.624C197.971 106.805 198.07 106.944 198.203 107.04C198.337 107.136 198.507 107.184 198.715 107.184ZM201.575 108V103.792H202.495L202.583 104.448H202.639C202.692 104.309 202.761 104.184 202.847 104.072C202.932 103.955 203.039 103.861 203.167 103.792C203.295 103.723 203.444 103.688 203.615 103.688C203.705 103.688 203.788 103.699 203.863 103.72C203.937 103.736 203.993 103.752 204.031 103.768V104.776H203.687C203.521 104.776 203.375 104.8 203.247 104.848C203.124 104.891 203.02 104.96 202.935 105.056C202.849 105.152 202.785 105.269 202.743 105.408C202.705 105.547 202.687 105.709 202.687 105.896V108H201.575ZM205.647 108.096C205.509 108.096 205.359 108.08 205.199 108.048C205.045 108.016 204.898 107.96 204.759 107.88C204.621 107.795 204.506 107.675 204.415 107.52C204.33 107.36 204.287 107.157 204.287 106.912C204.287 106.619 204.351 106.376 204.479 106.184C204.607 105.992 204.789 105.843 205.023 105.736C205.263 105.624 205.549 105.547 205.879 105.504C206.21 105.461 206.575 105.44 206.975 105.44V105.128C206.975 105.005 206.954 104.899 206.911 104.808C206.874 104.717 206.805 104.645 206.703 104.592C206.607 104.539 206.471 104.512 206.295 104.512C206.119 104.512 205.975 104.533 205.863 104.576C205.757 104.619 205.679 104.675 205.631 104.744C205.589 104.808 205.567 104.88 205.567 104.96V105.056H204.487C204.482 105.029 204.479 105.005 204.479 104.984C204.479 104.957 204.479 104.925 204.479 104.888C204.479 104.643 204.554 104.432 204.703 104.256C204.853 104.075 205.063 103.936 205.335 103.84C205.607 103.744 205.925 103.696 206.287 103.696C206.677 103.696 207.002 103.747 207.263 103.848C207.53 103.949 207.733 104.099 207.871 104.296C208.015 104.493 208.087 104.741 208.087 105.04V106.952C208.087 107.048 208.114 107.12 208.167 107.168C208.226 107.211 208.29 107.232 208.359 107.232H208.623V107.96C208.57 107.987 208.487 108.013 208.375 108.04C208.263 108.072 208.127 108.088 207.967 108.088C207.813 108.088 207.674 108.064 207.551 108.016C207.434 107.973 207.335 107.912 207.255 107.832C207.175 107.747 207.119 107.645 207.087 107.528H207.031C206.941 107.64 206.829 107.739 206.695 107.824C206.567 107.909 206.415 107.976 206.239 108.024C206.069 108.072 205.871 108.096 205.647 108.096ZM206.023 107.256C206.173 107.256 206.306 107.235 206.423 107.192C206.541 107.144 206.639 107.083 206.719 107.008C206.799 106.928 206.861 106.832 206.903 106.72C206.951 106.608 206.975 106.488 206.975 106.36V106.128C206.677 106.128 206.41 106.149 206.175 106.192C205.941 106.229 205.754 106.296 205.615 106.392C205.482 106.488 205.415 106.621 205.415 106.792C205.415 106.888 205.439 106.971 205.487 107.04C205.535 107.109 205.605 107.163 205.695 107.2C205.786 107.237 205.895 107.256 206.023 107.256Z" fill="#4D4F5F"/>
<rect x="163" y="129" width="32" height="20" rx="4" fill="#EEF0F2"/>
<rect x="70" y="152" width="64" height="12" rx="4" fill="#EEF0F2"/>
<rect x="70" y="168" width="64" height="12" rx="4" fill="#EEF0F2"/>
<rect x="70" y="184" width="64" height="12" rx="4" fill="#EEF0F2"/>
<rect x="70" y="200" width="64" height="12" rx="4" fill="#EEF0F2"/>
<rect x="70" y="216" width="64" height="12" rx="4" fill="#EEF0F2"/>
<rect x="70" y="232" width="64" height="12" rx="4" fill="#4D4F5F"/>
<rect x="163" y="156" width="32" height="20" rx="4" fill="#4D4F5F"/>
<rect x="163" y="184" width="32" height="20" rx="4" fill="#5872CE"/>
<rect x="163" y="212" width="32" height="20" rx="4" fill="#EEF0F2"/>
<rect x="203" y="129" width="32" height="20" rx="4" fill="#5872CE"/>
<rect x="203" y="157" width="32" height="20" rx="4" fill="#EEF0F2"/>
<rect x="203" y="185" width="32" height="20" rx="4" fill="#EEF0F2"/>
<rect x="203" y="213" width="32" height="20" rx="4" fill="#EEF0F2"/>
<rect x="243" y="129" width="32" height="20" rx="4" fill="#5872CE"/>
<rect x="243" y="157" width="32" height="20" rx="4" fill="#4D4F5F"/>
<rect x="243" y="185" width="32" height="20" rx="4" fill="#5872CE"/>
<rect x="243" y="213" width="32" height="20" rx="4" fill="#EEF0F2"/>
<rect x="283" y="129" width="32" height="20" rx="4" fill="#4D4F5F"/>
<rect x="283" y="157" width="32" height="20" rx="4" fill="#EEF0F2"/>
<rect x="283" y="185" width="32" height="20" rx="4" fill="#4D4F5F"/>
<rect x="283" y="213" width="32" height="20" rx="4" fill="#EEF0F2"/>
<rect x="323" y="129" width="32" height="20" rx="4" fill="#5872CE"/>
<rect x="323" y="157" width="32" height="20" rx="4" fill="url(#paint1_linear_409_3340)"/>
<rect x="323" y="185" width="32" height="20" rx="4" fill="#EEF0F2"/>
<rect x="323" y="213" width="32" height="20" rx="4" fill="#EEF0F2"/>
<rect x="363" y="129" width="32" height="20" rx="4" fill="#4D4F5F"/>
<rect x="363" y="157" width="32" height="20" rx="4" fill="#5872CE"/>
<rect x="363" y="185" width="32" height="20" rx="4" fill="url(#paint2_linear_409_3340)"/>
<rect x="363" y="213" width="32" height="20" rx="4" fill="#EEF0F2"/>
<defs>
<linearGradient id="paint0_linear_409_3340" x1="54.9474" y1="176.849" x2="199.111" y2="336.698" gradientUnits="userSpaceOnUse">
<stop stop-color="#4D4F5F"/>
<stop offset="1" stop-color="#5872CE"/>
</linearGradient>
<linearGradient id="paint1_linear_409_3340" x1="326.789" y1="166.717" x2="334.337" y2="177.221" gradientUnits="userSpaceOnUse">
<stop stop-color="#4D4F5F"/>
<stop offset="1" stop-color="#5872CE"/>
</linearGradient>
<linearGradient id="paint2_linear_409_3340" x1="366.789" y1="194.717" x2="374.337" y2="205.221" gradientUnits="userSpaceOnUse">
<stop stop-color="#4D4F5F"/>
<stop offset="1" stop-color="#5872CE"/>
</linearGradient>
</defs>
</svg>
