<svg width="1136" height="995" viewBox="0 0 1136 995" fill="none" xmlns="http://www.w3.org/2000/svg">
<rect width="1136" height="995" rx="4" fill="#F9F9F9"/>
<path d="M266.915 103.922C226.882 75.6654 228.564 132.515 168.349 126.928C93.3315 124.778 104.901 210.875 136.054 221.658C162.294 230.74 158.93 236.346 162.294 243.523C169.695 257.315 152.875 324.256 236.639 301.045C320.402 277.834 390.71 219.303 335.204 195.083C279.698 170.863 299.485 126.911 266.915 103.922Z" fill="#2A5867"/>
<path d="M294.167 164.736C290.813 159.91 290.139 163.124 288.633 166.065C285.304 166.065 286.713 195.752 286.713 195.752C286.713 195.752 287.924 226.566 290.139 226.566C292.355 226.566 294.167 197.363 294.167 197.363C294.167 197.363 297.522 169.561 294.167 164.736Z" fill="#161824"/>
<path d="M301.831 164.523C298.477 159.697 300.639 166.126 296.296 165.852C291.055 168.319 296.296 199.768 296.296 199.768C296.296 199.768 299.616 226.152 301.831 226.152C304.046 226.152 304.047 195.539 304.047 195.539C304.047 195.539 305.186 169.348 301.831 164.523Z" fill="#161824"/>
<path d="M313.808 154.607C314.452 152.835 304.342 147.088 299.105 143.127V152.392C301.321 152.996 306.034 154.285 307.162 154.607C308.571 155.01 304.946 160.045 302.932 161.858C301.321 163.308 305.013 163.402 306.356 163.469C308.84 162.529 313.163 156.379 313.808 154.607Z" fill="#C4DCDC"/>
<path d="M290.774 143.265C292.433 142.848 292.848 138.568 292.848 136.481H296.649C296.994 138.162 296.649 143.265 298.722 143.265C300.737 143.265 301.851 144.54 303.041 147.759C304.854 152.665 303.905 168.316 303.041 169.882C302.177 171.447 290.774 171.621 288.183 169.882C285.591 168.142 285.764 147.614 286.455 145.875C287.146 144.135 288.701 143.787 290.774 143.265Z" fill="#C4DCDC"/>
<ellipse cx="6.2435" cy="8.45894" rx="6.2435" ry="8.45894" transform="matrix(0.965545 0.260237 -0.260255 0.96554 293.281 122.299)" fill="white"/>
<path d="M295.621 130.648C294.454 130.333 292.802 133.365 290.384 133.825C290.527 128.649 291.456 127.07 293.678 124.701C296.02 122.203 301.789 123.147 303.468 126.297C305.547 130.194 302.441 137.075 302.052 136.97C301.74 136.886 300.891 132.763 300.019 130.582C298.722 130.232 296.567 130.903 295.621 130.648Z" fill="#161824"/>
<path d="M258.075 183.688L260.247 189.555C266.94 184.261 269.791 180.778 286.541 167.491C293.048 161.515 294.739 166.821 297.798 165.506C305.283 159.954 300.444 151.19 296.749 151.428C295.831 152.023 295.187 152.742 294.779 153.565C293.758 154.57 292.639 155.589 291.968 156.18C258.12 183.893 269.484 175.37 258.075 183.688Z" fill="#161824"/>
<path fill-rule="evenodd" clip-rule="evenodd" d="M314.469 156.697L322.221 160.081L322.759 158.848L317.049 156.355L322.777 155.596L322.601 154.262L314.664 155.314L308.548 152.644L301.875 156.814L296.337 157.311L305.986 151.656L309.688 143.043L308.452 142.512L304.925 150.719L291.923 158.338L292.603 159.499L293.9 158.739L293.912 158.879L299.35 158.391L296.387 160.243L291.436 160.026L291.377 161.37L294.372 161.502L293.297 162.173L294.01 163.315L296.745 161.606L303.908 161.92L313.441 159.716L313.138 158.405L303.784 160.567L298.759 160.347L302.315 158.126L306.57 157.744L314.469 156.697ZM312.084 155.656L306.421 156.407L304.839 156.548L308.66 154.161L312.084 155.656Z" fill="white"/>
<path d="M297.186 153.271C296.356 155.841 294.67 158.032 297.471 164.472L287.11 161.902C292.191 157.066 298.017 150.702 297.186 153.271Z" fill="#161824"/>
<path d="M266.99 141.297C262.066 132.269 242.604 147.799 239.382 154.409L241.799 155.618C243.847 152.583 252.69 141.369 260.984 143.973C269.277 146.576 263.111 161.285 258.991 168.314C259.14 173.837 260.278 182.605 263.64 173.489C267.842 162.095 273.145 152.58 266.99 141.297Z" fill="#161824"/>
<path d="M278.964 163.67C278.32 161.737 284.066 150.243 287.02 144.738C289.759 144.738 290.578 150.512 289.84 153.399C287.759 156.42 283.596 159.239 283.596 162.26C283.596 165.281 287.624 168.302 284.805 170.316C282.589 171.899 279.77 166.087 278.964 163.67Z" fill="#C4DCDC"/>
<path d="M307.164 163.066C307.164 163.67 304.948 165.281 303.337 163.469C302.934 162.663 303.659 161.374 304.948 161.052C306.559 160.649 307.164 162.462 307.164 163.066Z" fill="white"/>
<path d="M303.134 223.688C302.973 223.366 301.321 223.554 300.516 223.688C300.247 224.225 299.71 225.46 299.71 226.105C299.71 226.911 302.328 227.112 303.537 226.508C304.745 225.904 303.335 224.091 303.134 223.688Z" fill="white"/>
<mask id="mask0_104_1169" style="mask-type:alpha" maskUnits="userSpaceOnUse" x="166" y="129" width="137" height="137">
<path fill-rule="evenodd" clip-rule="evenodd" d="M241.007 129.541L248.149 140.106V156.822H260.435L266.88 172.33L289.438 182.199L291.452 189.45L301.323 184.471C302.116 188.627 302.531 192.917 302.531 197.304C302.531 234.901 272.052 265.379 234.454 265.379C196.856 265.379 166.377 234.901 166.377 197.304C166.377 159.708 196.856 129.23 234.454 129.23C236.664 129.23 238.85 129.335 241.007 129.541Z" fill="#3E5E00"/>
</mask>
<g mask="url(#mask0_104_1169)">
<ellipse cx="234.454" cy="197.304" rx="68.0768" ry="68.0743" fill="#4C8432"/>
<path d="M256.637 167.094C255.025 167.738 254.354 169.511 254.22 170.316C254.22 172.33 255.227 173.136 256.637 173.337C258.046 173.539 259.255 172.33 260.262 167.698C261.269 163.066 258.046 162.864 256.637 163.066C255.227 163.267 258.651 166.288 256.637 167.094Z" fill="#064D11"/>
<path d="M233.877 141.113C226.787 136.763 229.177 135.809 231.258 135.876L249.788 130.036C256.3 134.802 269.446 145.503 269.929 150.176C270.533 156.017 266.102 156.017 265.297 155.614C264.491 155.211 258.247 155.614 257.039 157.829C255.83 160.045 249.184 166.087 251.399 159.441C253.615 152.794 248.378 151.384 247.573 151.384C246.767 151.384 238.912 156.822 240.523 151.384C242.135 145.947 242.739 146.551 233.877 141.113Z" fill="#064D11"/>
<path d="M179.898 153.801C186.276 154.271 201.892 156.137 200.442 158.232C198.629 160.85 194.601 162.663 195.81 165.483C197.018 168.302 200.442 169.712 200.442 168.302C200.442 166.892 203.665 165.483 205.075 165.483C206.484 165.483 207.491 162.461 208.901 162.864C210.311 163.267 212.325 163.67 212.93 162.864C213.534 162.059 212.728 167.094 208.901 170.115C205.075 173.136 211.117 169.913 210.915 177.97C210.714 186.026 206.167 184.762 203.665 187.234C201.422 189.45 202.2 194.649 200.442 194.887C198.254 195.184 199.68 193.353 199.388 191.794L199.207 191.262C198.369 189.663 196.464 188.501 195.81 188.644C191.387 189.609 186.748 191.709 185.941 197.707C184.531 208.18 196.212 213.819 195.004 214.625C193.796 215.431 192.587 213.215 191.177 213.417C189.767 213.618 187.552 214.424 186.746 213.417C185.941 212.41 178.69 205.36 179.093 204.152C179.495 202.944 181.509 198.513 179.093 196.499C176.676 194.485 178.287 194.283 177.683 192.873C177.078 191.464 174.057 191.061 173.856 189.45C173.654 187.838 175.064 186.831 173.856 185.22C172.647 183.609 170.231 180.789 172.647 176.963C175.064 173.136 172.647 174.143 172.647 172.129C172.647 170.115 175.266 166.288 179.898 165.08C183.604 164.113 180.502 160.649 178.488 159.038C176.85 159.038 176.353 155.735 179.898 153.801Z" fill="#064D11"/>
<path d="M225.82 209.59C222.114 210.395 217.428 212.477 215.548 213.417C212.925 214.625 213.534 218.049 214.339 219.861C215.145 221.674 212.527 221.875 209.707 222.48C206.887 223.084 211.318 228.119 211.318 228.925C211.318 229.73 210.915 232.504 211.923 232.751C220.998 234.98 224.007 240.203 226.625 243.023C229.874 246.522 230.855 254.1 230.855 256.92C230.855 259.739 233.675 259.941 234.883 260.948C236.092 261.955 235.89 267.795 237.099 268.4C238.307 269.004 238.912 264.17 239.314 261.955C239.717 259.739 242.134 259.336 242.94 258.531C243.745 257.725 242.134 254.1 244.148 253.496C246.162 252.892 249.788 246.849 250.795 243.627C251.802 240.405 266.908 221.271 258.448 218.049C249.989 214.826 254.42 212.208 247.774 212.41C241.127 212.611 241.328 209.59 234.682 207.374C228.035 205.159 230.452 208.583 225.82 209.59Z" fill="#064D11"/>
<path d="M269.324 167.094C275.769 163.871 278.052 160.112 278.387 158.635L290.069 163.066L294.299 179.581L301.55 200.124C300.475 201.937 297.683 205.683 295.104 206.166C291.882 206.77 293.896 202.944 291.278 201.735C288.659 200.527 285.638 201.937 280.603 201.735C275.568 201.534 280.2 190.859 275.568 194.686C270.935 198.513 261.67 194.887 260.26 190.859C258.851 186.831 260.059 184.415 259.656 180.386C259.253 176.358 264.49 176.963 266.706 174.546C268.921 172.129 261.268 171.122 269.324 167.094Z" fill="#064D11"/>
</g>
<path d="M244.29 285.777C240.439 282.832 242.686 252.259 244.29 237.341C271.928 224.652 306.872 228.277 303.474 233.659C303.474 233.659 303.474 252.354 305.173 262.551C306.872 272.748 303.474 272.465 303.474 272.465C282.519 260.285 249.104 289.46 244.29 285.777Z" fill="white"/>
<path d="M253.904 252.748C253.422 253.229 252.699 266.996 252.398 273.819L258.118 271.41L259.021 250.64C257.516 251.142 254.385 252.266 253.904 252.748Z" fill="#C4DCDC"/>
<path d="M263.4 254.636C262.963 254.999 262.306 265.368 262.032 270.508L267.232 268.694L268.053 253.049C266.684 253.427 263.838 254.273 263.4 254.636Z" fill="#4C8432"/>
<path d="M272.869 246.125L272.267 266.594C273.671 266.293 276.722 265.571 277.685 265.089C278.648 264.607 278.086 251.443 277.685 244.921L272.869 246.125Z" fill="#064D11"/>
<path d="M282.802 250.038V263.885L287.016 263.283V250.038C287.016 248.232 282.802 249.436 282.802 250.038Z" fill="#161824"/>
<path d="M291.914 258.633C291.914 260.386 291.733 261.477 291.532 263.283H295.445C295.546 260.172 295.686 253.771 295.445 253.048C295.205 252.326 292.736 252.346 291.532 252.446C291.332 252.848 291.914 256.93 291.914 258.633Z" fill="#C4DCDC"/>
<path d="M249.644 247.63C249.073 256.399 248.257 273.411 248.486 275.324C248.771 277.715 280.216 258.691 299.359 264.371" stroke="#161824" stroke-width="1.42508" stroke-linecap="round"/>
<path d="M273.443 311.899C271.145 310.001 259.18 309.025 253.485 308.775L270.828 317.813C272.657 316.633 275.741 313.796 273.443 311.899Z" fill="#295259"/>
<path d="M252.541 308.381C257.913 309.358 267.598 313.671 271.77 315.706L283.673 313.875C287.336 309.297 294.848 300.885 296.797 301.667C304.747 304.854 290.253 320.856 287.641 324.252C284.589 328.219 278.475 329.503 274.211 328.83C268.412 327.914 249.794 315.706 246.437 311.738C243.079 307.771 245.826 307.16 252.541 308.381Z" fill="#161824"/>
<path d="M285.616 288.831C284.295 287.235 285.353 285.127 286.046 284.273C283.967 283.566 280.101 282.302 281.271 282.903C282.733 283.654 281.144 287.489 280.755 288.372C280.365 289.255 275.285 287.856 273.537 290.143C271.788 292.431 265.963 311.385 271.099 315.971C273.536 318.148 282.217 317.068 285.001 314.831C294.309 307.35 290.422 292.55 287.224 291.36C285.913 290.872 287.267 290.826 285.616 288.831Z" fill="#C4DCDC"/>
<ellipse cx="7.32488" cy="9.4613" rx="7.32488" ry="9.4613" transform="matrix(0.982512 0.186198 -0.186211 0.98251 277.688 267.063)" fill="white"/>
<path d="M285.207 264.662C285.207 265.876 282.354 268.204 280.928 269.215C280.334 271.495 281.711 274.366 281.539 277.411C281.27 282.203 280.09 286.975 283.679 287.124C291.014 287.427 292.237 277.107 292.237 275.893C292.237 274.922 293.46 273.262 294.071 272.554C292.95 272.959 290.77 273.283 291.014 271.34C291.32 268.912 289.486 265.573 289.486 266.18C289.486 266.666 288.467 266.989 287.958 267.091V264.662C287.958 263.934 287.347 264.359 287.041 264.662L286.43 265.573C286.022 264.764 285.207 263.448 285.207 264.662Z" fill="#161824"/>
<path d="M260.171 291.595C265.543 291.839 274.821 287.932 279.705 289.153V298.004C279.705 295.257 269.022 297.088 262.613 298.004C257.485 298.737 247.047 290.374 242.469 286.101L246.131 284.27C250.608 286.406 254.799 291.351 260.171 291.595Z" fill="#C4DCDC"/>
<path d="M242.469 281.828C241.492 282.561 242.265 284.982 242.774 286.101L246.131 284.27C245.317 283.151 243.445 281.096 242.469 281.828Z" fill="white"/>
<path d="M303.816 283.049C302.351 287.444 290.387 289.153 284.588 289.459C285.3 291.086 287.274 294.464 289.471 294.952C292.218 295.563 303.816 290.679 307.173 288.238C310.53 285.796 308.394 268.094 307.173 266.873C306.196 265.897 304.528 268.705 303.816 270.231C304.426 272.672 305.281 278.654 303.816 283.049Z" fill="#C4DCDC"/>
<path d="M307.479 268.471C306.563 269.926 304.782 270.536 303.919 270.536C300.294 269.904 302.732 266.102 303.919 264.127C305.106 264.785 308.489 266.867 307.479 268.471Z" fill="white"/>
<path d="M201.625 277.137V274.519C185.109 273.444 157.637 276.533 157.315 276.533C156.912 276.533 153.286 279.017 155.099 280.158C160.537 283.582 183.699 298.687 186.721 298.083C187.838 297.859 197.127 284.186 201.625 277.137Z" fill="#2A5867"/>
<path d="M232.24 276.13C222.774 289.825 208.071 279.419 199.209 280.359C199.007 279.956 196.993 282.977 197.396 283.38C198.709 284.693 228.44 298.361 237.074 277.54C240.498 269.282 234.858 265.58 234.455 265.379C233.448 265.379 231.636 265.379 229.823 265.177C230.159 265.714 236.308 270.244 232.24 276.13Z" fill="#161824"/>
<path d="M171.412 263.039V241.891C171.412 239.152 191.554 245.047 201.624 248.336C202.9 257.265 204.685 275.123 201.624 275.123C197.327 281.769 188.17 295.142 185.914 295.465C183.658 295.787 166.109 285.73 155.501 277.54L171.412 263.039Z" fill="#161824"/>
<path d="M164.767 270.255C166.887 268.942 169.77 264.449 170.788 264.449C171.805 264.449 190.293 271.638 199.409 275.232C197.36 278.55 192.964 285.228 191.777 285.394C191.328 285.456 186.231 282.14 182.448 279.38L184.781 277.099C180.963 274.322 175.167 272.857 171 270.255C170.491 269.937 169.489 272.209 168.996 271.9C167.13 271.601 166.25 271.196 164.767 270.255Z" fill="#2A5867"/>
<path d="M182.448 276.269C179.268 274.817 174.463 272.121 170.788 270.462C170.788 270.462 169.962 272.192 169.399 272.303C169.105 272.361 181.812 278.965 181.812 278.965L183.72 277.099C183.438 276.96 183.65 276.817 182.448 276.269Z" fill="#2A5867"/>
<path d="M170.809 274.921C170.325 274.599 166.646 278.949 164.968 280.359L175.642 287.006C177.388 285.864 181.281 281.769 180.073 280.359C179.418 279.595 171.413 275.324 170.809 274.921Z" fill="#2A5867"/>
<path d="M172.67 261.209C172.476 258.888 172.22 248.754 172.67 243.905C181.577 245.661 199.552 250.456 200.416 250.857C201.496 251.358 201.549 269.008 201.821 270.488C202.259 272.872 172.91 264.082 172.67 261.209Z" fill="#2A5867"/>
<path d="M177.586 244.846L172.621 243.906C172.017 248.404 172.218 260.875 172.659 261.306C173.505 262.131 176.1 263.657 177.586 264.127V244.846Z" fill="#2A5867"/>
<path d="M173.023 247.602C172.787 247.602 172.866 246.877 173.023 246.732L173.731 246.949L173.731 247.819C173.573 247.819 173.259 247.602 173.023 247.602Z" fill="#A1BFC4"/>
<path d="M173.023 248.906C172.787 248.906 172.866 248.182 173.023 248.037L173.731 248.254L173.731 249.124C173.573 249.124 173.259 248.906 173.023 248.906Z" fill="#A1BFC4"/>
<path d="M174.052 247.71V247.276L175.444 247.71V248.145L174.052 247.71Z" fill="#A1BFC4"/>
<path d="M173.944 248.906V248.471L175.337 248.906V249.341L173.944 248.906Z" fill="#A1BFC4"/>
<path d="M173.023 255.864C172.787 255.864 172.866 255.139 173.023 254.994L173.731 255.212L173.731 256.082C173.573 256.082 173.259 255.864 173.023 255.864Z" fill="#A1BFC4"/>
<path d="M173.944 255.864V255.429L175.337 255.864V256.299L173.944 255.864Z" fill="#A1BFC4"/>
<path d="M173.879 253.255C173.643 253.255 173.722 252.53 173.879 252.385L174.587 252.603L174.587 253.472C174.43 253.472 174.115 253.255 173.879 253.255Z" fill="#A1BFC4"/>
<path d="M173.879 254.56C173.643 254.56 173.722 253.835 173.879 253.69L174.587 253.907L174.587 254.777C174.43 254.777 174.115 254.56 173.879 254.56Z" fill="#A1BFC4"/>
<path d="M174.908 253.364V252.929L176.3 253.364V253.799L174.908 253.364Z" fill="#A1BFC4"/>
<path d="M174.801 254.56V254.125L176.193 254.56V254.995L174.801 254.56Z" fill="#A1BFC4"/>
<path d="M173.879 250.646C173.643 250.646 173.722 249.921 173.879 249.776L174.587 249.994L174.587 250.863C174.43 250.863 174.115 250.646 173.879 250.646Z" fill="#A1BFC4"/>
<path d="M173.879 251.95C173.643 251.95 173.722 251.226 173.879 251.081L174.587 251.298L174.587 252.168C174.43 252.168 174.115 251.95 173.879 251.95Z" fill="#A1BFC4"/>
<path d="M174.908 250.755V250.32L176.3 250.755V251.189L174.908 250.755Z" fill="#A1BFC4"/>
<path d="M174.801 251.95V251.516L176.193 251.95V252.385L174.801 251.95Z" fill="#A1BFC4"/>
<path d="M178.293 249.219L178.318 248.581L190.79 251.228L190.765 251.866L178.293 249.219Z" fill="#E5E5E5"/>
<path d="M178.244 250.785L178.244 250.223L184.991 251.746L184.991 252.274L178.244 250.785Z" fill="#E5E5E5"/>
<path d="M185.502 252.449L185.502 251.888L195.986 254.137L195.986 254.79L185.502 252.449Z" fill="#DF8D8D"/>
<path d="M179.892 252.884L179.892 252.323L186.638 253.845L186.638 254.373L179.892 252.884Z" fill="#E5E5E5"/>
<path d="M186.624 257.233L186.624 256.672L193.37 258.194L193.37 258.722L186.624 257.233Z" fill="#DF8D8D"/>
<path d="M181.238 254.624L181.238 254.063L187.985 255.585L187.985 256.113L181.238 254.624Z" fill="#E5E5E5"/>
<path d="M181.238 255.929L181.238 255.367L186.225 256.529L186.225 257.073L181.238 255.929Z" fill="#E5E5E5"/>
<path d="M181.238 257.271L181.238 256.71L194.527 259.682L194.527 260.334L181.238 257.271Z" fill="#E5E5E5"/>
<path d="M179.668 258.551L179.668 257.99L182.635 258.551L182.635 259.247L179.668 258.551Z" fill="#E5E5E5"/>
<path d="M188.643 256.198L188.643 255.636L191.61 256.198L191.61 256.893L188.643 256.198Z" fill="#DF8D8D"/>
<path d="M194.927 259.024L194.913 258.464L196.884 259.024L196.884 259.573L194.927 259.024Z" fill="#ECDD3C"/>
<path d="M197.171 255.111L197.171 254.549L200.138 255.111L200.138 255.806L197.171 255.111Z" fill="#E5E5E5"/>
<ellipse cx="186.318" cy="245.517" rx="0.60421" ry="0.805613" fill="#295259"/>
<path d="M149.588 287.008C152.674 286.5 164.56 291.715 170.117 294.387L149.309 293.559C148.116 291.587 146.502 287.517 149.588 287.008Z" fill="#2A5867"/>
<path d="M171.12 294.674C165.512 292.844 154.153 291.89 149.175 291.641L138.701 283.913C137.44 277.845 142.425 273.071 140.196 273.325C137.409 273.642 129.004 286.988 129.839 291.435C130.815 296.632 134.019 301.769 138.42 303.315C144.406 305.419 169.269 306.303 174.415 304.362C179.561 302.42 178.13 296.963 171.12 294.674Z" fill="#161824"/>
<path d="M142.907 262.881C144.68 261.81 144.378 259.472 144.005 258.437C146.201 258.455 150.267 258.538 148.965 258.719C147.337 258.946 147.571 263.09 147.648 264.052C147.724 265.014 152.981 265.37 153.877 268.106C154.773 270.842 154.017 290.657 147.655 293.291C144.636 294.542 133.827 293.662 131.937 290.631C125.619 280.498 137.143 264.806 140.555 264.738C141.953 264.71 140.69 264.22 142.907 262.881Z" fill="#C4DCDC"/>
<path d="M155.501 244.308C157.435 244.791 157.515 250.149 157.314 252.767H155.099C154.293 252.767 151.943 249.545 150.869 247.933C151.608 246.524 153.568 243.825 155.501 244.308Z" fill="#161824"/>
<ellipse cx="7.32488" cy="9.4613" rx="7.32488" ry="9.4613" transform="matrix(-0.988923 -0.14843 -0.14844 0.988921 157.573 244.948)" fill="white"/>
<path d="M147.847 258.608C151.674 256.997 152.479 247.531 154.695 243.704C145.35 239.031 141.402 247.665 140.597 252.566C140.597 260.219 145.284 259.687 147.847 258.608Z" fill="#161824"/>
<path d="M137.777 232.828C144.383 228.961 146.974 238.736 147.444 244.107C148.787 245.986 149.66 251.518 142.409 258.608C135.159 265.697 126.095 262.233 128.109 256.996C128.109 257.802 127.626 259.252 131.332 259.413C135.964 259.615 129.519 237.662 137.777 232.828Z" fill="#161824"/>
<path d="M169.747 279.051C164.596 277.509 155.883 266.921 150.87 266.462C149.594 270.112 148.467 280.73 149.192 278.655C150.099 276.062 159.579 281.316 165.327 284.295C169.926 286.679 182.539 282.229 188.271 279.706L185.418 276.769C180.487 277.308 174.898 280.593 169.747 279.051Z" fill="#C4DCDC"/>
<path d="M189.68 275.672C190.361 276.686 188.832 278.717 187.982 279.605L185.417 276.769C186.555 275.981 189 274.659 189.68 275.672Z" fill="white"/>
<circle cx="210.89" cy="175.754" r="1.00702" fill="#ECDD3C"/>
<circle cx="201.826" cy="175.956" r="0.805613" fill="#ECDD3C"/>
<circle cx="192.561" cy="179.984" r="0.805613" fill="#ECDD3C"/>
<circle cx="186.519" cy="185.623" r="0.805613" fill="#ECDD3C"/>
<circle cx="191.756" cy="189.651" r="0.805613" fill="#ECDD3C"/>
<circle cx="202.632" cy="182.804" r="0.805613" fill="#ECDD3C"/>
<circle cx="201.019" cy="187.234" r="0.805613" fill="#ECDD3C"/>
<circle cx="221.564" cy="210.597" r="0.805613" fill="#ECDD3C"/>
<circle cx="196.59" cy="181.998" r="0.805613" fill="#ECDD3C"/>
<circle cx="173.629" cy="173.942" r="0.805613" fill="#ECDD3C"/>
<circle cx="184.505" cy="204.958" r="0.805613" fill="#ECDD3C"/>
<circle cx="206.257" cy="173.136" r="0.805613" fill="#ECDD3C"/>
<circle cx="209.078" cy="179.581" r="0.402807" fill="#ECDD3C"/>
<circle cx="209.48" cy="181.998" r="0.402807" fill="#ECDD3C"/>
<circle cx="208.674" cy="181.192" r="0.402807" fill="#ECDD3C"/>
<circle cx="203.035" cy="174.747" r="0.402807" fill="#ECDD3C"/>
<circle cx="194.978" cy="174.344" r="0.402807" fill="#ECDD3C"/>
<circle cx="190.547" cy="184.012" r="0.402807" fill="#ECDD3C"/>
<circle cx="184.908" cy="170.719" r="0.402807" fill="#ECDD3C"/>
<circle cx="187.325" cy="175.553" r="0.402807" fill="#ECDD3C"/>
<circle cx="179.67" cy="176.358" r="0.402807" fill="#ECDD3C"/>
<circle cx="179.268" cy="183.206" r="0.402807" fill="#ECDD3C"/>
<circle cx="187.325" cy="190.457" r="0.402807" fill="#ECDD3C"/>
<circle cx="197.395" cy="187.637" r="0.402807" fill="#ECDD3C"/>
<circle cx="198.603" cy="185.623" r="0.402807" fill="#ECDD3C"/>
<circle cx="188.936" cy="181.595" r="0.402807" fill="#ECDD3C"/>
<circle cx="188.13" cy="183.609" r="0.402807" fill="#ECDD3C"/>
<circle cx="0.402807" cy="0.402807" r="0.402807" transform="matrix(0.247606 0.968861 -0.968865 0.247589 201.203 182.022)" fill="#ECDD3C"/>
<circle cx="0.402807" cy="0.402807" r="0.402807" transform="matrix(0.247606 0.968861 -0.968865 0.247589 203.146 179.863)" fill="#ECDD3C"/>
<circle cx="0.402807" cy="0.402807" r="0.402807" transform="matrix(0.247606 0.968861 -0.968865 0.247589 200.995 179.581)" fill="#ECDD3C"/>
<circle cx="0.402807" cy="0.402807" r="0.402807" transform="matrix(0.247606 0.968861 -0.968865 0.247589 214.828 222.56)" fill="#ECDD3C"/>
<circle cx="0.402807" cy="0.402807" r="0.402807" transform="matrix(0.247606 0.968861 -0.968865 0.247589 221.137 236.377)" fill="#ECDD3C"/>
<circle cx="0.402807" cy="0.402807" r="0.402807" transform="matrix(0.247606 0.968861 -0.968865 0.247589 213.482 226.307)" fill="#ECDD3C"/>
<circle cx="0.402807" cy="0.402807" r="0.402807" transform="matrix(0.247606 0.968861 -0.968865 0.247589 212.678 222.278)" fill="#ECDD3C"/>
<circle cx="0.402807" cy="0.402807" r="0.402807" transform="matrix(0.247606 0.968861 -0.968865 0.247589 205.562 178.654)" fill="#ECDD3C"/>
<circle cx="0.402807" cy="0.402807" r="0.402807" transform="matrix(0.247606 0.968861 -0.968865 0.247589 203.412 178.373)" fill="#ECDD3C"/>
<circle cx="180.879" cy="161.455" r="0.402807" fill="#ECDD3C"/>
<circle cx="181.283" cy="160.246" r="0.402807" fill="#ECDD3C"/>
<circle cx="185.311" cy="159.843" r="0.402807" fill="#ECDD3C"/>
<circle cx="173.628" cy="171.928" r="0.402807" fill="#ECDD3C"/>
<circle cx="173.628" cy="169.511" r="0.402807" fill="#ECDD3C"/>
<circle cx="209.077" cy="177.97" r="0.805613" fill="#ECDD3C"/>
<circle cx="198.402" cy="176.56" r="1.00702" fill="#ECDD3C"/>
<circle cx="199.207" cy="193.075" r="1.00702" fill="#ECDD3C"/>
<circle cx="171.816" cy="180.185" r="1.00702" fill="#ECDD3C"/>
<circle cx="174.635" cy="185.824" r="1.00702" fill="#ECDD3C"/>
<circle cx="209.48" cy="169.511" r="0.402807" fill="#ECDD3C"/>
<circle cx="213.105" cy="163.469" r="0.402807" fill="#ECDD3C"/>
<circle cx="0.402807" cy="0.402807" r="0.402807" transform="matrix(0.839585 0.543227 -0.543255 0.839567 219.744 211.402)" fill="#ECDD3C"/>
<circle cx="0.402807" cy="0.402807" r="0.402807" transform="matrix(0.839585 0.543227 -0.543255 0.839567 217.974 212.656)" fill="#ECDD3C"/>
<path d="M213.708 163.267C213.547 162.945 215.923 160.985 217.132 160.045C217.937 160.045 217.602 160.582 217.333 160.85C216.998 161.253 216.246 162.099 215.923 162.26C215.601 162.421 215.118 163.267 214.916 163.67C214.581 163.67 213.869 163.589 213.708 163.267Z" fill="#064D11"/>
<path d="M205.861 170.316C205.7 169.994 208.077 168.034 209.285 167.094C210.091 167.094 209.755 167.631 209.487 167.899C209.151 168.302 208.399 169.148 208.077 169.309C207.754 169.47 207.271 170.316 207.07 170.719C206.734 170.719 206.022 170.638 205.861 170.316Z" fill="#2C2C2C"/>
<path d="M209.276 167.698L205.047 160.649H202.63C204.04 163.871 206.94 170.155 207.262 169.511C207.584 168.866 208.739 168.034 209.276 167.698Z" fill="white"/>
<path d="M216.93 160.85L212.701 153.801H210.284C211.694 157.024 214.594 163.307 214.916 162.663C215.239 162.018 216.393 161.186 216.93 160.85Z" fill="white"/>
<path d="M203.435 142.925C204.241 142.925 205.785 143.597 206.457 143.932C207.262 150.042 208.793 162.743 208.471 164.677C208.068 167.094 202.227 167.094 199.609 166.489C196.991 165.885 197.595 149.974 197.393 148.967C197.192 147.96 202.428 142.925 203.435 142.925Z" fill="#2A5867"/>
<path d="M203.235 144.134C203.235 144.134 201.019 146.752 199.811 147.155C186.182 111.307 146.372 137.834 143.818 160.246C143.291 164.878 144.221 184.414 166.779 190.054C166.578 190.658 166.578 193.679 166.578 195.693C121.059 191.061 137.172 135.876 166.175 126.41C189.377 118.837 199.676 134.064 203.235 144.134Z" fill="#161824"/>
<path d="M207.061 143.932C204.805 142.643 201.422 146.886 200.012 149.169C200.012 151.989 205.45 164.878 207.061 165.885C208.672 166.892 218.742 156.218 219.145 155.01C219.548 153.801 209.88 145.544 207.061 143.932Z" fill="#161824"/>
<path d="M212.169 153.735L203.909 149.273L206.961 152.017L205.516 153.142L213.257 157.043L209.361 153.743L212.169 153.735Z" fill="#ECDD3C"/>
<path fill-rule="evenodd" clip-rule="evenodd" d="M526.221 314.287C526.221 322.69 522.29 330.172 516.17 334.984C515.251 336.569 514.519 338.344 514.238 340.209C513.918 342.328 513.803 344.236 513.801 345.846C513.798 348.343 511.82 350.731 509.323 350.731H500.799H499.013H490.488C487.991 350.731 486.013 348.343 486.01 345.846C486.008 344.236 485.893 342.328 485.573 340.209C485.274 338.224 484.464 336.341 483.461 334.68C477.559 329.86 473.789 322.515 473.789 314.287C473.789 299.769 485.526 288 500.005 288C514.484 288 526.221 299.769 526.221 314.287Z" fill="#ECDD3C"/>
<path d="M680.849 551.517L687.921 538.555L686.569 544.647H690.001L680.849 561.497L685.009 548.924L680.849 551.517Z" fill="#ECDD3C"/>
<path d="M671.476 642.48L685.354 645.081L679.191 645.404L679.816 648.094L661.782 644.746L674.752 645.152L671.476 642.48Z" fill="#ECDD3C"/>
<path d="M666.301 648.253L674.554 651.289L670.736 650.848L670.843 652.565L660.115 648.639L668.037 650.233L666.301 648.253Z" fill="#ECDD3C"/>
<path d="M438.417 479.44L434.25 481.624C434.25 470.152 435.083 449.037 438.417 444.296C442.583 438.369 458.256 434.322 466.749 439.513C471.853 442.632 476.193 456.288 476.228 463.948H471.853C472.652 463.74 473.291 461.452 469.458 453.966C464.666 444.608 463.52 441.696 450.604 442.632C440.271 443.381 438.174 467.483 438.417 479.44Z" fill="#161824"/>
<rect x="497.504" y="366.631" width="6.24016" height="141.202" fill="#161824"/>
<path fill-rule="evenodd" clip-rule="evenodd" d="M512.917 350.731H500.008V350.731H487.099V365.369C487.099 368.316 495.705 371.841 500.008 371.741V371.741C504.311 371.84 512.917 368.316 512.917 365.368V350.731Z" fill="#161824"/>
<path d="M496.356 358.764C496.224 343.496 497.647 313.757 493.278 317.143C490.431 319.349 498.243 320.329 499.832 320.329C508.571 320.329 507.975 317.143 506.187 317.143C502.215 317.143 503.606 344.492 502.91 358.764" stroke="#161824" stroke-width="1.15206"/>
<path d="M510.923 352.324H508.547V366.663C510.613 365.992 510.992 364.77 510.923 364.242V352.324Z" fill="#C4DCDC"/>
<path d="M521.783 308.711C519.956 301.383 512.917 296.57 512.151 296.763C510.165 297.26 513.215 300.248 514.137 301.542C515.483 303.432 524.067 317.872 521.783 308.711Z" fill="white"/>
<path d="M523.244 313.59H521.953C521.715 313.59 521.854 315.117 521.953 315.881C522.251 316.412 522.926 317.255 523.244 316.378C523.562 315.502 523.376 314.155 523.244 313.59Z" fill="white"/>
<path d="M635.156 456.518L600.523 371.943L565.891 456.518H635.156Z" fill="#C4DCDC"/>
<path d="M600.413 456.302V372.375L634.41 456.302H600.413Z" fill="#161824"/>
<path d="M587.107 404.12L600.481 372.152L612.9 402.233C612.73 404.581 610.83 404.539 610.247 402.233C609.963 401.115 608.973 398.963 607.275 399.298C605.152 399.717 607.062 401.394 604.303 406.321C601.543 411.247 597.509 404.12 596.979 402.233C596.448 400.346 594.962 398.774 592.839 402.233C591.141 405 588.31 404.644 587.107 404.12Z" fill="white"/>
<path d="M600.628 442.335L565.995 357.76L531.362 442.335H600.628Z" fill="#C4DCDC"/>
<path d="M565.885 442.119V358.193L599.882 442.119H565.885Z" fill="#161824"/>
<path d="M552.579 389.937L565.953 357.969L578.372 388.05C578.202 390.398 576.302 390.356 575.718 388.05C575.435 386.932 574.444 384.78 572.746 385.115C570.623 385.534 572.534 387.211 569.774 392.138C567.014 397.064 562.981 389.937 562.45 388.05C561.92 386.163 560.434 384.591 558.311 388.05C556.613 390.817 553.782 390.461 552.579 389.937Z" fill="white"/>
<path d="M443.575 535.098L419.957 489.249L685.452 481.846V500.355L673.665 520.291L647.822 529.166C644.145 538.532 635.021 559.333 627.94 567.611C620.859 575.889 613.663 605.58 610.949 619.391L594.759 640.085L576.3 648.247C572.371 644.055 563.188 633.6 557.886 625.323C552.584 617.045 524.69 608.048 511.406 604.584C503.533 595.723 487.058 575.924 484.14 567.611C481.222 559.297 455.881 542.472 443.575 535.098Z" fill="#064D11"/>
<path d="M418.916 489.851C414.464 485.976 427.32 479.077 434.305 476.112L453.257 461.419L523.147 452.347L578.37 461.419L635.041 470.235C652.531 472.194 687.227 477.478 686.092 482.942C684.956 488.406 663.245 489.825 652.531 489.851H585.411L519.653 497.634L486.036 489.851L455.025 492.913C444.292 494.528 423.368 493.727 418.916 489.851Z" fill="#4C8432"/>
<path d="M524.187 446.819C510.96 457.416 495.717 458.201 488.722 461.988C550.915 484.57 652.667 473.141 648.124 472.659C642.446 472.057 611.092 454.243 599.159 444.087C589.613 435.963 575.431 430.375 569.534 428.597C544.051 428.597 536.11 437.267 524.187 446.819Z" fill="#064D11"/>
<path d="M564.681 449.412C550.987 459.395 533.574 469.464 526.579 473.251C546.444 486.448 690.524 484.404 685.981 483.922C680.303 483.32 648.949 465.506 637.017 455.35C627.471 447.226 613.289 441.638 607.391 439.86C598.86 438.884 578.375 439.429 564.681 449.412Z" fill="#4C8432"/>
<path d="M453.881 417.815C453.632 416.48 452.945 416.216 452.633 416.25L451.489 416.876C452.391 417.745 454.131 419.149 453.881 417.815Z" fill="#161824"/>
<path d="M457.685 437.903C455.953 435.404 451.035 434.496 448.792 434.354C446.086 435.632 448.188 438.783 449.271 439.138C451.31 439.807 455.211 439.535 455.133 440.671C454.813 445.375 455.326 449.188 455.661 452.808H456.939C457.403 448.881 459.417 440.401 457.685 437.903Z" fill="#161824"/>
<path d="M460.035 437.739C458.311 435.356 453.417 434.489 451.186 434.354C448.493 435.572 450.585 438.578 451.662 438.917C453.691 439.554 457.475 439.069 457.667 440.139C458.43 444.376 458.945 448.502 459.278 451.954H460.55C461.012 448.208 461.759 440.121 460.035 437.739Z" fill="#161824"/>
<path d="M448.56 424.379C450.339 424.037 451.86 422.19 451.499 421.223C451.886 420.172 452.982 418.731 452.582 421.223C451.997 424.87 454.439 423.27 455.135 424.379C455.692 425.265 455.135 431.741 455.135 434.867C453.021 435.805 449.701 436.604 447.864 434.867C446.781 433.844 446.336 424.805 448.56 424.379Z" fill="#C4DCDC"/>
<ellipse cx="451.655" cy="419.317" rx="2.13013" ry="3.58833" fill="white"/>
<path d="M456.891 452.103L455.583 451.963C455.429 452.519 455.215 453.642 455.589 453.682C455.962 453.722 457.789 454.944 458.953 454.042L459.084 453.694C459.103 453.515 459.012 453.126 458.497 452.998C457.981 452.87 457.211 452.348 456.891 452.103Z" fill="white"/>
<path d="M460.518 451.761L459.21 451.621C459.056 452.177 458.842 453.3 459.216 453.34C459.589 453.38 461.416 454.602 462.58 453.7L462.711 453.352C462.73 453.174 462.639 452.784 462.124 452.656C461.608 452.529 460.838 452.006 460.518 451.761Z" fill="white"/>
<path d="M460.648 434.013C461.869 434.241 465.863 435.468 463.118 433.671C461.216 432.133 457.325 429.058 456.984 429.058C456.558 429.058 455.62 424.359 454.939 424.273C454.393 424.205 454.712 428.687 454.939 430.937L455.89 431.108C456.913 431.381 459.455 431.792 460.648 434.013Z" fill="#C4DCDC"/>
<ellipse cx="1.39475" cy="3.68629" rx="1.39475" ry="3.68629" transform="matrix(0.839693 0.543061 -0.560581 0.828099 465.1 430.835)" fill="#ECDD3C"/>
<path d="M459.328 428.544L466.233 431.633L462.215 437.581L456.559 433.234C456.286 430.908 457.261 429.459 459.328 428.544Z" fill="#ECDD3C"/>
<path d="M459.365 434.073L459.287 432.794L460.648 432.711C461.737 432.645 461.323 433.526 460.981 433.975L459.365 434.073Z" fill="white"/>
<path d="M454.295 431.535C453 430.031 450.688 427.035 449.694 425.725C450.206 427.662 451.296 431.911 451.569 433.414C451.842 434.918 457.079 434.496 459.663 434.098V432.56C458.414 432.845 455.591 433.038 454.295 431.535Z" fill="#C4DCDC"/>
<path d="M453.363 416.563C453.529 415.395 451.837 415.173 450.867 415.312C449.036 415.645 449.272 418.857 449.307 420.63C450.867 419.553 453.196 417.731 453.363 416.563Z" fill="#161824"/>
<path d="M448.059 413.226C450.971 410.974 450.936 413.887 450.555 415.625L450.451 417.085C450.139 417.537 448.891 419.358 448.059 420.943C447.227 422.528 445.077 421.951 444.106 421.465C445.438 421.631 445.978 420.213 446.082 419.483C445.528 418.336 445.146 415.479 448.059 413.226Z" fill="#161824"/>
<path d="M493.354 486.926C474.932 478.004 455.09 483.209 447.472 486.926C445.184 487.162 438 491.582 438 494.309V719H503V494.309C499.455 489.282 495.092 487.293 493.354 486.926Z" fill="url(#paint0_linear_104_1169)"/>
<path d="M490.507 477.158H450.802L448.16 487.752C470.995 483.139 493.489 487.752 493.489 487.752L490.507 477.158Z" fill="white"/>
<path d="M457.875 480.49L457.193 486.385C457.943 486.248 460.687 486.043 461.965 485.958V480.49H457.875Z" fill="#161824"/>
<path d="M464.86 480.49V485.837C465.627 485.787 467.843 485.701 468.95 485.729V480.49H464.86Z" fill="#161824"/>
<path d="M482.925 480.49L483.606 486.385C482.857 486.248 480.113 486.043 478.835 485.958V480.49H482.925Z" fill="#161824"/>
<path d="M475.938 480.49V485.837C475.172 485.787 472.956 485.701 471.849 485.729V480.49H475.938Z" fill="#161824"/>
<path d="M462.304 437.003C462.032 436.456 462.645 435.664 463.071 435.123C463.895 434.924 464.85 435.465 465.201 436.405C465.815 438.045 466.394 449.842 466.394 456.739C466.394 463.915 463.582 462.548 464.179 465.197C464.257 465.545 465.712 467.504 472.444 468.187C479.175 468.871 477.259 471.739 478.749 472.374C482.157 473.826 488.803 472.972 490.252 477.158H450.887C453.613 474.595 457.533 475.278 460.771 473.826C464.008 472.374 462.304 469.811 459.492 468.529C456.681 467.247 455.658 464.684 458.555 463.061C460.873 461.762 462.02 457.508 462.304 455.543C462.418 449.591 462.577 437.55 462.304 437.003Z" fill="#161824"/>
<path d="M532.142 418.097L534.125 410.648H538.409L540.631 418.097C537.965 418.94 533.861 418.448 532.142 418.097Z" fill="#161824"/>
<ellipse cx="536.385" cy="402.509" rx="4.69129" ry="4.70402" fill="#ECDD3C"/>
<path d="M536.385 421.251C535.144 419.462 534.895 420.653 534.338 421.743C531.991 422.595 534.598 432.6 534.598 432.6C534.598 432.6 534.076 444.174 534.895 444.174C535.715 444.174 537.204 432.749 537.204 432.749C537.204 432.749 537.625 423.04 536.385 421.251Z" fill="#161824"/>
<path d="M535.458 442.85C535.225 442.56 534.265 442.745 534.265 442.745C534.072 443.539 533.863 445.527 534.202 445.839C534.671 446.27 535.697 446.245 535.721 445.061C535.721 445.061 535.691 443.14 535.458 442.85Z" fill="white"/>
<path d="M539.217 421.172C537.977 419.383 538.777 421.766 537.171 421.664C535.233 422.579 537.171 434.238 537.171 434.238C537.171 434.238 538.398 444.02 539.217 444.02C540.036 444.02 540.036 432.67 540.036 432.67C540.036 432.67 540.457 422.96 539.217 421.172Z" fill="#161824"/>
<path d="M539.782 442.771C539.549 442.481 538.589 442.666 538.589 442.666C538.396 443.46 538.187 445.448 538.526 445.76C538.995 446.192 540.022 446.166 540.046 444.982C540.046 444.982 540.015 443.061 539.782 442.771Z" fill="white"/>
<path d="M534.447 415.227C535.86 414.983 536.129 413.666 535.842 412.976C536.149 412.226 537.299 411.199 536.981 412.976C536.516 415.578 538.714 414.829 538.992 415.227C539.434 415.859 540.323 418.458 539.671 422.472C537.643 424.033 535.354 423.946 533.894 422.707C533.033 421.978 532.68 415.531 534.447 415.227Z" fill="#C4DCDC"/>
<ellipse cx="536.237" cy="411.544" rx="2.15948" ry="2.53868" fill="white"/>
<path d="M535.789 410.947H533.928C535.045 407.146 538.098 408.9 538.545 410.947L536.906 410.947L536.311 409.996L535.789 410.947Z" fill="#161824"/>
<path d="M540.309 406.965L539.438 407.247L539.139 406.315C538.9 405.57 539.583 405.701 539.954 405.859L540.309 406.965Z" fill="white"/>
<path d="M532.439 406.965L533.31 407.247L533.609 406.315C533.848 405.57 533.165 405.701 532.794 405.859L532.439 406.965Z" fill="white"/>
<path d="M540.331 411.917C540.108 412.514 539.512 415.277 537.948 415.277C538.072 416.322 538.916 417.816 539.214 417.816C539.884 417.816 541.671 412.962 541.746 412.29C541.82 411.618 540.916 407.305 540.331 406.914C540.108 406.765 539.537 406.815 539.438 407.213C540.281 409.179 540.576 411.262 540.331 411.917Z" fill="#C4DCDC"/>
<path d="M532.367 411.992C532.591 412.589 533.186 415.352 534.75 415.352C534.626 416.397 533.782 417.89 533.484 417.89C532.814 417.89 531.027 413.037 530.952 412.365C530.878 411.693 531.785 407.383 532.367 406.989C532.587 406.84 533.161 406.889 533.261 407.288C532.417 409.254 532.122 411.337 532.367 411.992Z" fill="#C4DCDC"/>
<path d="M513.36 474.39C514.236 474.809 514.455 476.312 514.455 477.011C516.61 477.127 520.37 477.011 520.37 477.011C520.37 477.011 521.319 475.263 521.903 474.565C521.137 474.565 519.8 475.823 520.151 475.263C520.501 474.704 520.443 474.04 520.37 473.778C519.895 474.39 518.837 475.491 518.398 475.001C517.96 474.512 518.435 473.225 518.727 472.643C517.763 472.922 517.011 474.594 516.975 475.263C516.799 474.565 515.879 473.633 515.441 473.254C515.66 474.157 515.967 475.823 515.441 475.263C514.784 474.565 512.265 473.866 513.36 474.39Z" fill="#4C8432"/>
<rect x="516.084" y="466.455" width="2.99726" height="9.19296" fill="#161824"/>
<rect x="505.153" y="469.637" width="24.8596" height="0.530363" fill="#161824"/>
<path d="M508.993 458.5H525.971L530.013 469.637H505.153L508.993 458.5Z" fill="white"/>
<path d="M509.737 459.207H525.164L528.425 468.576H506.739L509.737 459.207Z" fill="#161824"/>
<path d="M507.11 467.192L509.509 459.074L523.601 459.074C525.576 467.277 513.339 467.516 507.11 467.192Z" fill="#C4DCDC"/>
<path d="M514.322 459.207H515.292L514.322 469.107H512.383L514.322 459.207Z" fill="white"/>
<path d="M520.756 459.207H519.786L520.756 469.107H522.695L520.756 459.207Z" fill="white"/>
<rect x="508.856" y="460.975" width="17.2783" height="0.530363" fill="white"/>
<rect x="507.444" y="464.157" width="20.0992" height="0.530363" fill="white"/>
<path d="M543.332 483.712C544.366 484.207 544.624 485.98 544.624 486.804C547.165 486.942 551.602 486.804 551.602 486.804C551.602 486.804 552.722 484.743 553.411 483.918C552.506 483.918 550.93 485.402 551.344 484.743C551.757 484.083 551.688 483.3 551.602 482.991C551.042 483.712 549.793 485.011 549.276 484.434C548.759 483.856 549.319 482.338 549.664 481.651C548.527 481.981 547.639 483.953 547.596 484.743C547.389 483.918 546.304 482.819 545.787 482.372C546.046 483.437 546.407 485.402 545.787 484.743C545.012 483.918 542.04 483.094 543.332 483.712Z" fill="#4C8432"/>
<rect x="546.547" y="474.351" width="3.53609" height="10.8456" fill="#161824"/>
<rect x="533.65" y="478.105" width="29.3287" height="0.625709" fill="#161824"/>
<path d="M538.181 464.965H558.21L562.979 478.105H533.65L538.181 464.965Z" fill="white"/>
<path d="M539.06 465.8H557.26L561.108 476.854H535.523L539.06 465.8Z" fill="#161824"/>
<path d="M535.896 475.61L538.895 465.689L555.086 465.689C557.416 475.366 543.246 475.993 535.896 475.61Z" fill="#C4DCDC"/>
<path d="M544.466 465.8H545.61L544.466 477.48H542.178L544.466 465.8Z" fill="white"/>
<path d="M552.059 465.8H550.915L552.059 477.48H554.347L552.059 465.8Z" fill="white"/>
<rect x="538.02" y="467.885" width="20.3845" height="0.625709" fill="white"/>
<rect x="536.354" y="471.639" width="23.7126" height="0.625709" fill="white"/>
<path d="M564.81 461.075C565.539 461.423 565.721 462.673 565.721 463.254C567.512 463.351 570.639 463.254 570.639 463.254C570.639 463.254 571.428 461.801 571.914 461.22C571.276 461.22 570.165 462.266 570.457 461.801C570.748 461.336 570.699 460.784 570.639 460.566C570.244 461.075 569.364 461.99 569 461.583C568.635 461.176 569.03 460.106 569.273 459.622C568.471 459.854 567.846 461.244 567.816 461.801C567.67 461.22 566.905 460.445 566.541 460.13C566.723 460.881 566.978 462.266 566.541 461.801C565.994 461.22 563.9 460.639 564.81 461.075Z" fill="#4C8432"/>
<rect x="567.077" y="454.477" width="2.4921" height="7.64358" fill="#161824"/>
<rect x="557.987" y="457.123" width="20.6698" height="0.440976" fill="#161824"/>
<path d="M561.18 447.863H575.296L578.657 457.123H557.987L561.18 447.863Z" fill="white"/>
<path d="M561.799 448.451H574.626L577.338 456.241H559.307L561.799 448.451Z" fill="#161824"/>
<path d="M559.584 455.466L561.683 448.251L573.077 448.551C574.719 455.372 564.764 455.736 559.584 455.466Z" fill="#C4DCDC"/>
<path d="M565.61 448.451H566.416L565.61 456.682H563.997L565.61 448.451Z" fill="white"/>
<path d="M570.96 448.451H570.153L570.96 456.682H572.572L570.96 448.451Z" fill="white"/>
<rect x="561.065" y="449.921" width="14.3662" height="0.440976" fill="white"/>
<rect x="559.893" y="452.566" width="16.7117" height="0.440976" fill="white"/>
<path d="M659.768 429.508L644.999 433.888C634.183 431.636 626.538 429.508 633.663 417.62L655.816 413.031C644.999 425.953 657.688 425.928 659.768 429.508Z" fill="#ECDD3C"/>
<path d="M662.057 450.365C660.325 447.867 659.977 449.531 659.199 451.053C657.48 451.053 658.208 466.425 658.208 466.425C658.208 466.425 658.833 482.381 659.977 482.381C661.121 482.381 662.057 467.259 662.057 467.259C662.057 467.259 663.789 452.864 662.057 450.365Z" fill="#161824"/>
<path d="M666.014 450.255C664.282 447.756 665.399 451.085 663.156 450.943C660.449 452.22 663.156 468.505 663.156 468.505C663.156 468.505 664.87 482.166 666.014 482.166C667.158 482.166 667.158 466.315 667.158 466.315C667.158 466.315 667.746 452.753 666.014 450.255Z" fill="#161824"/>
<path d="M659.416 441.903C660.808 441.918 660.6 439.068 660.6 437.955C661.046 436.901 663.552 436.241 663.091 438.74C662.417 442.397 665.189 441.345 665.592 441.903C666.234 442.793 667.492 445.15 666.546 450.792C666.546 453.101 660.731 454.16 658.614 452.419C657.366 451.393 656.818 441.877 659.416 441.903Z" fill="#C4DCDC"/>
<path d="M657.06 431.058L655.94 431.676L655.283 430.478C654.757 429.52 655.728 429.517 656.279 429.636L657.06 431.058Z" fill="white"/>
<path d="M648.662 433.989L649.822 433.452L649.251 432.211C648.795 431.218 648.216 432 647.984 432.515L648.662 433.989Z" fill="white"/>
<path d="M654.787 438.233C655.444 438.857 658.347 441.684 660.894 440.702C661.205 442.117 660.563 444.558 660.078 444.745C658.986 445.166 653.841 439.978 653.242 439.267C652.583 438.484 648.467 434.555 648.827 433.733C649.001 433.334 649.36 433.235 649.773 433.149C651.52 434.778 654.067 437.549 654.787 438.233Z" fill="#C4DCDC"/>
<path d="M660.994 436.911C661.51 437.657 664.344 439.311 666.32 440.979C666.736 441.396 666.819 441.824 666.84 442.231C667.236 450.156 665.488 445.463 665.072 445.046C664.245 444.217 659.774 438.387 659.271 437.605C658.623 436.599 655.607 432.115 656.023 431.281C656.218 430.891 656.543 430.903 657.128 430.903C658.504 432.857 660.429 436.094 660.994 436.911Z" fill="#C4DCDC"/>
<ellipse cx="661.95" cy="435.139" rx="3.12008" ry="4.1714" fill="white"/>
<path d="M659.756 428.968L659.247 433.021C660.774 434.251 663.696 438.017 664.627 437.612C665.558 437.207 665.816 431.79 665.647 429.836L664.338 430.56L663.829 428.968L662.738 429.836L661.938 426.797L660.556 429.836L659.756 428.968Z" fill="#161824"/>
<path d="M659.06 480.288L660.84 480.567C660.847 481.363 660.732 482.936 660.223 482.857C659.714 482.777 656.865 483.757 655.645 482.14L655.594 481.629C655.633 481.384 655.891 480.897 656.618 480.91C657.346 480.924 658.549 480.501 659.06 480.288Z" fill="white"/>
<path d="M665.005 480.063L666.786 480.342C666.792 481.138 666.677 482.711 666.168 482.632C665.66 482.552 662.81 483.532 661.59 481.915L661.54 481.404C661.578 481.159 661.836 480.672 662.564 480.685C663.291 480.699 664.495 480.276 665.005 480.063Z" fill="white"/>
<path d="M616.228 378.617H616.644L619.141 456.413H613.732L616.228 378.617Z" fill="white"/>
<ellipse cx="616.438" cy="379.66" rx="1.45604" ry="1.45999" fill="white"/>
<path d="M625.459 348.219L617.15 378.374C617.068 377.306 616.92 374.74 616.985 373.027C617.067 370.886 623.652 349.449 623.978 348.674C624.239 348.054 625.075 348.112 625.459 348.219Z" fill="#161824"/>
<path d="M625.407 348.204L617.098 378.359C617.715 377.485 619.156 375.359 619.977 373.856C621.003 371.976 626.328 350.19 626.445 349.357C626.538 348.69 625.792 348.31 625.407 348.204Z" fill="#161824"/>
<path d="M585.04 388.109L615.24 380.247C614.358 380.852 612.216 382.264 610.704 383.063C608.814 384.063 587.007 389.064 586.174 389.168C585.508 389.251 585.141 388.497 585.04 388.109Z" fill="#161824"/>
<path d="M585.054 388.162L615.254 380.3C614.19 380.201 611.634 380.012 609.924 380.051C607.788 380.1 586.309 386.369 585.531 386.684C584.909 386.936 584.954 387.774 585.054 388.162Z" fill="#161824"/>
<path d="M639.543 403.257L617.653 380.964C618.617 381.427 620.907 382.581 622.354 383.494C624.162 384.636 639.385 401.072 639.891 401.743C640.296 402.28 639.828 402.976 639.543 403.257Z" fill="#161824"/>
<path d="M639.583 403.219L617.692 380.926C618.139 381.899 619.254 384.213 620.143 385.678C621.253 387.509 637.406 403.026 638.068 403.544C638.597 403.958 639.298 403.5 639.583 403.219Z" fill="#161824"/>
<ellipse cx="616.437" cy="379.66" rx="0.624016" ry="0.625709" fill="#161824"/>
<path d="M513.927 474.457C514.712 474.833 514.909 476.18 514.909 476.807C516.84 476.911 520.212 476.807 520.212 476.807C520.212 476.807 521.063 475.24 521.587 474.614C520.899 474.614 519.701 475.742 520.016 475.24C520.33 474.739 520.277 474.144 520.212 473.909C519.786 474.457 518.837 475.444 518.444 475.005C518.051 474.567 518.477 473.413 518.739 472.891C517.875 473.141 517.2 474.64 517.168 475.24C517.01 474.614 516.185 473.778 515.793 473.439C515.989 474.248 516.264 475.742 515.793 475.24C515.203 474.614 512.945 473.987 513.927 474.457Z" fill="#064D11"/>
<path d="M543.925 483.547C544.855 484.002 545.088 485.633 545.088 486.391C547.375 486.518 551.368 486.391 551.368 486.391C551.368 486.391 552.376 484.495 552.996 483.736C552.182 483.736 550.763 485.102 551.135 484.495C551.507 483.888 551.445 483.167 551.368 482.883C550.864 483.547 549.74 484.741 549.274 484.21C548.809 483.679 549.313 482.282 549.623 481.65C548.6 481.954 547.801 483.768 547.763 484.495C547.577 483.736 546.6 482.725 546.134 482.314C546.367 483.294 546.693 485.102 546.134 484.495C545.437 483.736 542.762 482.978 543.925 483.547Z" fill="#064D11"/>
<path d="M565.649 461.322C566.207 461.599 566.347 462.592 566.347 463.053C567.719 463.13 570.115 463.053 570.115 463.053C570.115 463.053 570.72 461.899 571.092 461.437C570.603 461.437 569.752 462.269 569.975 461.899C570.199 461.53 570.161 461.091 570.115 460.918C569.812 461.322 569.138 462.049 568.859 461.726C568.58 461.403 568.882 460.552 569.068 460.168C568.454 460.352 567.975 461.457 567.952 461.899C567.84 461.437 567.254 460.822 566.975 460.572C567.114 461.168 567.31 462.269 566.975 461.899C566.556 461.437 564.951 460.976 565.649 461.322Z" fill="#064D11"/>
<path d="M608.825 452.62C610.438 453.412 610.841 456.248 610.841 457.567C614.806 457.787 621.727 457.567 621.727 457.567C621.727 457.567 623.474 454.269 624.549 452.95C623.138 452.95 620.678 455.325 621.323 454.269C621.968 453.214 621.861 451.961 621.727 451.466C620.853 452.62 618.904 454.698 618.098 453.775C617.292 452.851 618.165 450.422 618.703 449.322C616.929 449.85 615.545 453.005 615.478 454.269C615.155 452.95 613.462 451.191 612.655 450.477C613.059 452.181 613.623 455.325 612.655 454.269C611.446 452.95 606.81 451.631 608.825 452.62Z" fill="#064D11"/>
<rect x="488.402" y="467.587" width="0.900788" height="3.2174" fill="white"/>
<path d="M491.794 468.593L488.906 452.868L486.019 468.593H491.794Z" fill="#064D11"/>
<rect x="479.67" y="458.266" width="1.73434" height="10.6275" fill="white"/>
<ellipse cx="480.489" cy="454.691" rx="6.11835" ry="7.24601" fill="#064D11"/>
<rect x="601.142" y="477.182" width="0.900788" height="3.2174" fill="white"/>
<path d="M604.532 478.187L601.645 462.462L598.757 478.187H604.532Z" fill="#064D11"/>
<rect x="640.246" y="462.373" width="0.900788" height="3.2174" fill="white"/>
<path d="M643.639 463.379L640.751 447.654L637.863 463.379H643.639Z" fill="#064D11"/>
<rect x="592.408" y="467.86" width="1.73434" height="10.6275" fill="white"/>
<ellipse cx="593.228" cy="464.285" rx="6.11835" ry="7.24601" fill="#064D11"/>
<rect x="440.357" y="473.283" width="1.73434" height="10.6275" fill="white"/>
<ellipse cx="441.176" cy="469.708" rx="6.11835" ry="7.24601" fill="#064D11"/>
<path d="M584.389 588.928C584.533 587.984 586.826 586.644 587.955 586.092L588.511 589.853L585.584 597.015L582.69 598.406L582.727 594.46C583.221 593.01 584.246 589.872 584.389 588.928Z" fill="#4C8432"/>
<path d="M582.683 594.763L584.397 588.932C602.603 607.524 620.299 625.813 630.746 633.806C635.283 637.277 636.855 634.966 639.172 636.296C644.627 641.416 639.913 651.111 636.991 650.583C636.485 650.164 636.108 649.621 635.848 648.985C635.071 648.002 634.149 646.94 633.616 646.349C609.182 621.116 591.013 602.451 582.683 594.763Z" fill="#161824"/>
<path d="M637.626 640.899L650.282 641.713L657.803 643.935M636.461 640.555L647.69 643.874C651.012 642.818 652.875 642.226 656.198 641.17" stroke="white" stroke-width="3.07215" stroke-linecap="round"/>
<path d="M639 639L646.029 638.536L652.416 635.703" stroke="white" stroke-width="3.07215" stroke-linecap="round" stroke-linejoin="round"/>
<path d="M649.791 649.061L643.197 644.938L633.62 642.107M655.845 654.656L644.122 648.799L634.827 644.639M656.874 651.155L644.765 652.142L635.857 641.138M642.354 660.345L641.801 653.005L633.807 643.685" stroke="white" stroke-width="3.07215" stroke-linecap="round"/>
<path d="M637.497 650.013C636.773 647.769 636.261 641.841 639.5 637L628.688 640.882C633.689 645.666 638.22 652.256 637.497 650.013Z" fill="#161824"/>
<path d="M620.286 556.005C620.618 555.004 623.544 553.92 624.966 553.503V557.674L620.286 564.974L616.646 566.017L617.374 561.741C618.206 560.246 619.953 557.007 620.286 556.005Z" fill="#4C8432"/>
<path d="M665.839 549.625C666.754 559.386 634.846 557.987 620.286 556.214L617.374 561.845C621.291 563.34 632.405 564.642 644.831 564.642H644.831C659.287 564.642 669.375 564.642 674.679 551.502C679.541 539.459 661.575 531.603 646.183 532.646L644.207 537.443C654.226 537.582 664.924 539.863 665.839 549.625Z" fill="#161824"/>
<path d="M788.191 765.927C750.035 760.226 737 783.98 737 805.834C737 820.086 743.647 838.713 769.705 850.491C781.792 855.955 793.642 847.879 818.526 879.947C837.88 904.888 870.665 900.05 880.855 894.674C891.046 889.298 898.713 879.726 900.526 872.345C904.317 856.905 901.047 853.817 909.768 839.565C920.67 821.749 947.873 793.456 925.173 778.754C909.768 768.777 905.739 790.156 864.739 796.57C823.74 802.983 826.346 771.628 788.191 765.927Z" fill="#2A5867"/>
<path d="M770.416 772.822C770.226 769.782 771.759 769.18 772.549 769.259H786.294V843.61H775.63C773.497 843.61 772.549 842.184 770.416 839.809C768.283 837.434 770.416 789.925 770.416 788.262C770.416 786.932 771.838 785.966 772.549 785.65C773.339 784.462 774.445 781.754 772.549 780.424C770.179 778.761 770.653 776.623 770.416 772.822Z" fill="#C4DCDC"/>
<path d="M801.936 772.822C802.125 769.782 800.593 769.18 799.803 769.259H786.057V843.61H796.722C798.855 843.61 799.803 842.184 801.936 839.809C804.069 837.434 801.936 789.925 801.936 788.262C801.936 786.932 800.514 785.966 799.803 785.65C799.013 784.462 797.907 781.754 799.803 780.424C802.173 778.761 801.699 776.623 801.936 772.822Z" fill="#C4DCDC"/>
<path d="M802.087 772.782C802.294 769.73 800.622 769.126 799.76 769.206C799.76 769.206 794.845 763.966 795.621 769.206C796.397 774.445 795.621 843.84 795.621 843.84H796.397C798.725 843.84 799.76 842.41 802.087 840.025C804.415 837.641 802.087 789.951 802.087 788.282C802.087 786.946 800.536 785.977 799.76 785.659C798.898 784.466 797.691 781.748 799.76 780.413C802.346 778.744 801.829 776.598 802.087 772.782Z" fill="#161824"/>
<path d="M790.757 780.709C790.516 780.679 790.372 780.655 790.372 780.655C790.372 780.655 790.517 780.673 790.757 780.709C792.028 780.867 796.011 781.188 796.011 778.992C796.011 776.379 797.003 781.738 797.196 783.03C797.437 784.645 796.011 788.731 796.011 787.781C796.011 785.405 791.417 785.837 787.479 785.702C787.479 785.702 794.589 785.405 795.193 784.894C795.798 784.384 796.011 782.555 795.193 781.866C794.531 781.308 791.779 780.859 790.757 780.709Z" fill="#161824"/>
<path d="M786.058 769.252H771.839V761.497C771.839 760.324 772.516 760.03 772.855 760.03H781.488C781.742 760.03 781.488 757.306 781.488 756.886C781.488 756.467 781.742 756.886 780.726 756.258C779.914 755.755 780.388 755.21 780.726 755H786.058V769.252Z" fill="#064D11"/>
<path d="M786.059 769.252H800.278V761.497C800.278 760.324 799.601 760.03 799.263 760.03H790.629C790.375 760.03 790.629 757.306 790.629 756.886C790.629 756.467 790.375 756.886 791.391 756.258C792.204 755.755 791.73 755.21 791.391 755H786.059V769.252Z" fill="#064D11"/>
<path d="M789.376 757.375C787.859 757.603 784.32 757.47 782.74 757.375C786.911 757.831 788.902 759.466 789.376 760.226V757.375Z" fill="#4C8432"/>
<path d="M798.619 761.414H797.434V767.827H798.619V761.414Z" fill="#4C8432"/>
<path d="M826.176 787.158C828.047 785.867 826.955 782.452 826.176 780.906H836.807V843.429C837.941 843.698 837.743 844.074 827.877 843.429C815.544 842.622 821.073 823.865 821.498 819.428C821.923 814.991 820.435 812.369 819.372 804.301C818.308 796.234 823.837 788.771 826.176 787.158Z" fill="#C4DCDC"/>
<path d="M847.35 787.158C845.479 785.867 846.57 782.452 847.35 780.906H836.718V843.429C835.584 843.698 835.783 844.074 845.649 843.429C857.981 842.622 852.453 823.865 852.028 819.428C851.602 814.991 853.091 812.369 854.154 804.301C855.217 796.234 849.689 788.771 847.35 787.158Z" fill="#C4DCDC"/>
<path d="M849.081 792.785H824.9C820.015 796.711 820.716 800.901 821.059 805.488C821.76 814.862 824.705 816.702 823.679 823.04C822.653 829.379 821.138 836.205 823.679 838.052C826.854 840.362 846.883 840.131 850.058 838.052C853.234 835.974 851.28 830.2 850.058 823.04C848.837 815.881 851.431 816.242 852.745 805.488C853.737 797.374 851.117 793.709 849.081 792.785Z" fill="#161824"/>
<path d="M821.364 813.982C820.513 811.723 819.592 805.243 819.237 802.284H854.321C854.321 805.108 853.116 810.755 852.195 813.982H821.364Z" fill="#064D11"/>
<path d="M830.394 772.031C826.268 772.031 825.924 777.947 826.268 780.906H836.995V772.031H830.394Z" fill="#064D11"/>
<path d="M843.164 772.031C847.29 772.031 847.634 777.947 847.29 780.906H836.562V772.031H843.164Z" fill="#064D11"/>
<rect x="829.633" y="773.241" width="0.433558" height="6.85738" fill="#4C8432"/>
<rect x="833.099" y="773.241" width="0.433558" height="6.85738" fill="#4C8432"/>
<rect x="831.365" y="773.241" width="0.433558" height="6.85738" fill="#4C8432"/>
<rect x="840.027" y="773.241" width="0.433558" height="6.85738" fill="#4C8432"/>
<rect x="843.493" y="773.241" width="0.433558" height="6.85738" fill="#4C8432"/>
<rect x="841.76" y="773.241" width="0.433558" height="6.85738" fill="#4C8432"/>
<rect x="834.83" y="773.241" width="0.433558" height="6.85738" fill="#4C8432"/>
<rect x="838.296" y="773.241" width="0.433558" height="6.85738" fill="#4C8432"/>
<rect x="836.562" y="773.241" width="0.433558" height="6.85738" fill="#4C8432"/>
<path d="M828.334 780.099V774.452C827.987 775.581 827.9 778.687 827.9 780.099H828.334Z" fill="#4C8432"/>
<path d="M845.225 780.099V774.452C845.571 775.581 845.658 778.687 845.658 780.099H845.225Z" fill="#4C8432"/>
<rect x="832.231" y="771.628" width="9.52894" height="0.80675" rx="0.403375" fill="#064D11"/>
<path d="M851.939 778.082C851.939 772.596 845.297 771.897 841.977 772.233C846.019 771.762 854.234 772.273 854.754 778.082C855.274 783.89 849.34 785.208 846.308 785.141V785.746L827.25 785.544V784.536H846.308C848.185 784.67 851.939 783.568 851.939 778.082Z" fill="#064D11"/>
<path d="M824.696 803.841C822.791 797.387 828.58 792.325 831.193 788.916C826.212 798.396 825.129 799.808 826.429 803.841C827.728 807.875 829.697 812.293 829.263 816.932C828.926 820.549 826.905 824.2 826.073 829.58C825.718 831.88 826.2 838.549 825.39 836.71C823.567 832.57 826.324 821.136 826.757 818.312C827.19 815.488 827.079 811.909 824.696 803.841Z" fill="#F4FFFF"/>
<path d="M874.495 841.532L871.765 786.33H887.728V841.532H874.495Z" fill="#C4DCDC"/>
<path d="M900.961 841.532L903.691 786.33H887.728V841.532H900.961Z" fill="#C4DCDC"/>
<path d="M900.962 841.532C900.962 842.691 894.501 843.84 887.309 843.84C880.117 843.84 874.496 842.691 874.496 841.532C874.496 840.372 880.117 839.643 887.309 839.643C894.501 839.643 900.962 840.372 900.962 841.532Z" fill="#C4DCDC"/>
<path d="M900.025 792.417C899.852 787.212 894.919 786.61 892.475 786.96L902.398 785.071L898.946 839.433C899.378 825.93 900.198 797.622 900.025 792.417Z" fill="#161824"/>
<path d="M870.902 786.12V777.095C888.851 781.461 900.816 778.914 904.555 777.095V786.12C891.612 788.429 884.062 788.429 870.902 786.12Z" fill="#064D11"/>
<ellipse cx="887.729" cy="776.885" rx="16.8265" ry="3.14836" fill="#064D11"/>
<ellipse cx="887.729" cy="776.885" rx="16.8265" ry="3.14836" fill="#064D11"/>
<path fill-rule="evenodd" clip-rule="evenodd" d="M872.089 775.836C871.323 776.161 870.902 776.515 870.902 776.886C870.902 778.455 878.436 779.728 887.729 779.728C897.022 779.728 904.555 778.455 904.555 776.886C904.555 776.592 904.291 776.308 903.8 776.042C901.327 777.091 895.257 777.833 888.161 777.833C880.608 777.833 874.218 776.993 872.089 775.836Z" fill="#4C8432"/>
<path fill-rule="evenodd" clip-rule="evenodd" d="M899.38 766.754C899.926 766.527 900.242 766.259 900.242 765.971C900.242 765.16 897.731 764.502 894.633 764.502C891.536 764.502 889.024 765.16 889.024 765.971C889.024 766.259 889.341 766.528 889.888 766.754V774.786V774.996H889.936C890.265 775.708 892.243 776.256 894.634 776.256C897.025 776.256 899.003 775.708 899.332 774.996H899.38V774.786V766.754Z" fill="#4C8432"/>
<ellipse cx="894.632" cy="765.551" rx="4.3145" ry="0.629673" fill="#064D11"/>
<path d="M899.378 766.811C898.516 767.02 897.653 767.23 896.143 767.23V776.046C897.523 776.046 898.731 775.626 899.378 774.996V766.811Z" fill="#064D11"/>
<path d="M884.698 768.069C886.441 766.223 889.136 765.761 890.266 765.761L890.75 766.81C889.539 767.02 887.821 766.706 886.392 768.908C884.213 772.265 882.277 773.384 881.792 773.314C881.389 772.825 880.824 771.804 881.792 771.636C883.003 771.426 882.519 770.377 884.698 768.069Z" fill="#4C8432"/>
<path d="M881.905 771.428C882.422 771.428 882.264 774.507 882.12 776.046H874.354C874.138 775.836 874.138 773.737 874.354 773.107C874.57 772.478 881.257 771.428 881.905 771.428Z" fill="#4C8432"/>
<path d="M857.394 857.525C848.9 857.525 841.989 864.536 841.989 873.154C841.989 881.772 848.9 888.784 857.394 888.784C865.888 888.784 872.798 881.772 872.798 873.154C872.798 864.536 865.888 857.525 857.394 857.525ZM857.394 887.094C853.62 887.094 850.197 885.542 847.712 883.035C846.719 882.033 845.876 880.879 845.22 879.611C844.221 877.679 843.655 875.483 843.655 873.154C843.655 865.468 849.818 859.215 857.394 859.215C860.987 859.215 864.262 860.622 866.713 862.922C867.984 864.114 869.033 865.545 869.79 867.145C870.65 868.966 871.133 871.004 871.133 873.154C871.133 880.841 864.97 887.094 857.394 887.094Z" fill="#C4DCDC"/>
<path d="M852.364 871.359C853.283 871.359 854.029 870.603 854.029 869.669C854.029 868.736 853.283 867.98 852.364 867.98C851.444 867.98 850.698 868.736 850.698 869.669C850.698 870.603 851.444 871.359 852.364 871.359Z" fill="#C4DCDC"/>
<path d="M862.667 871.359C863.587 871.359 864.333 870.603 864.333 869.669C864.333 868.736 863.587 867.98 862.667 867.98C861.748 867.98 861.002 868.736 861.002 869.669C861.002 870.603 861.748 871.359 862.667 871.359Z" fill="#C4DCDC"/>
<path d="M857.365 881.814C860.587 881.814 863.675 880.142 865.443 877.366L864.044 876.449C862.421 878.998 859.451 880.42 856.478 880.072C854.16 879.801 852.018 878.447 850.745 876.449L849.347 877.366C850.886 879.784 853.481 881.423 856.287 881.751C856.647 881.793 857.007 881.814 857.365 881.814Z" fill="#C4DCDC"/>
<path d="M1002.04 882.691C1019.98 886.721 1024.15 868.798 1024 859.332C1023.84 849.866 1008.58 830.477 1007.41 809.637C1004.62 759.943 964.19 778.034 960.452 795.21C956.714 812.385 951.902 816.777 947.242 825.485C937.506 843.677 942.051 858.635 954.956 862.672C979.245 870.269 979.608 877.653 1002.04 882.691Z" fill="#2A5867"/>
<rect x="960.045" y="773.155" width="11.2227" height="4.70873" fill="#C4DCDC"/>
<path d="M965.786 789.636H952.215C952.215 785.241 957.696 779.782 960.436 777.602H965.786V789.636Z" fill="#C4DCDC"/>
<path d="M965.786 789.636H979.357C979.357 785.241 973.877 779.782 971.136 777.602H965.786V789.636Z" fill="#C4DCDC"/>
<path d="M979.358 789.636H965.786V849.481C965.786 849.481 972.81 849.481 976.447 849.481C980.084 849.481 979.358 845.094 979.358 845.094V789.636Z" fill="#C4DCDC"/>
<path d="M952.51 789.636H966.082V849.481C966.082 849.481 959.059 849.481 955.421 849.481C951.784 849.481 952.51 845.094 952.51 845.094V789.636Z" fill="#C4DCDC"/>
<path d="M965.787 781.657H958.442C954.826 784.692 953.828 787.717 953.781 788.851C953.781 788.851 953.52 843.525 953.781 846.271C954.042 849.018 965.787 848.364 965.787 848.364L965.787 781.657Z" fill="#161824"/>
<path d="M965.786 781.657H973.131C976.747 784.692 977.745 787.717 977.792 788.851C977.792 788.851 978.053 843.525 977.792 846.271C977.531 849.018 965.786 848.364 965.786 848.364L965.786 781.657Z" fill="#161824"/>
<path fill-rule="evenodd" clip-rule="evenodd" d="M979.101 836.462C979.107 836.854 978.537 837.103 977.419 837.377C976.086 837.704 968.749 837.808 965.865 837.773V837.77C965.833 837.77 965.801 837.771 965.768 837.771C965.728 837.771 965.688 837.77 965.65 837.77V837.773C962.765 837.809 955.429 837.704 954.095 837.377C952.977 837.104 952.407 836.854 952.414 836.462C952.414 836.834 952.389 837.392 952.357 838.131C952.293 839.579 952.199 841.722 952.199 844.519C952.199 848.744 954.652 849.624 955.878 849.536H965.865V849.536H975.636C976.863 849.624 979.315 848.743 979.315 844.519C979.315 841.722 979.221 839.579 979.158 838.13C979.125 837.391 979.101 836.833 979.101 836.462Z" fill="#C4DCDC" fill-opacity="0.5"/>
<path fill-rule="evenodd" clip-rule="evenodd" d="M965.644 835.932V835.938C965.726 835.937 965.81 835.936 965.895 835.935C965.99 835.936 966.082 835.938 966.173 835.938V835.932C970.496 835.879 978.302 835.686 978.703 835.284C978.823 835.164 978.936 835.079 979.038 835.001C979.384 834.738 979.617 834.562 979.617 833.453V828.613C979.443 828.352 978.886 827.829 978.05 827.829C977.722 827.829 976.863 827.906 975.687 828.013C973.182 828.239 969.233 828.596 965.881 828.613C962.54 828.593 958.621 828.238 956.13 828.013C954.953 827.907 954.095 827.829 953.766 827.829C952.931 827.829 952.373 828.352 952.199 828.614V833.453C952.199 834.562 952.432 834.739 952.778 835.001C952.881 835.079 952.994 835.165 953.113 835.284C953.514 835.686 961.321 835.879 965.644 835.932Z" fill="#C4DCDC" fill-opacity="0.5"/>
<path fill-rule="evenodd" clip-rule="evenodd" d="M966.173 817.62V817.627C966.086 817.626 965.998 817.625 965.909 817.624C965.819 817.625 965.73 817.626 965.644 817.627V817.62C961.321 817.567 953.514 817.374 953.113 816.973C952.994 816.853 952.881 816.767 952.778 816.689C952.432 816.427 952.199 816.25 952.199 815.141V810.302C952.373 810.04 952.931 809.517 953.766 809.517C954.095 809.517 954.953 809.595 956.13 809.701C958.628 809.927 962.562 810.283 965.909 810.301C969.255 810.283 973.189 809.927 975.687 809.701C976.863 809.595 977.722 809.517 978.05 809.517C978.886 809.517 979.443 810.04 979.617 810.302V815.141C979.617 816.25 979.384 816.427 979.038 816.689C978.936 816.767 978.823 816.853 978.703 816.973C978.302 817.374 970.496 817.567 966.173 817.62Z" fill="#C4DCDC" fill-opacity="0.5"/>
<path fill-rule="evenodd" clip-rule="evenodd" d="M965.644 826.776V826.782C965.728 826.781 965.814 826.78 965.902 826.779C965.994 826.781 966.084 826.781 966.173 826.782V826.776C970.496 826.723 978.302 826.53 978.703 826.128C978.823 826.008 978.936 825.923 979.038 825.845C979.384 825.583 979.617 825.406 979.617 824.297V819.458C979.443 819.196 978.886 818.673 978.05 818.673C977.722 818.673 976.863 818.75 975.687 818.857C973.185 819.083 969.244 819.44 965.895 819.457C962.551 819.438 958.625 819.083 956.13 818.857C954.953 818.751 954.095 818.673 953.766 818.673C952.931 818.673 952.373 819.196 952.199 819.458V824.297C952.199 825.406 952.432 825.583 952.778 825.845C952.881 825.923 952.994 826.009 953.113 826.128C953.514 826.53 961.321 826.723 965.644 826.776Z" fill="#C4DCDC" fill-opacity="0.5"/>
<path fill-rule="evenodd" clip-rule="evenodd" d="M965.657 774.856V766.877H970.183C970.981 766.877 972.312 767.923 972.312 769.362V773.809C972.268 774.158 972.046 774.856 971.514 774.856H965.657ZM965.656 774.856V766.877H961.131C960.332 766.877 959.001 767.923 959.001 769.362V773.809C959.045 774.158 959.267 774.856 959.8 774.856H965.656Z" fill="#064D11"/>
<rect x="961.14" y="767.923" width="0.273991" height="6.01668" fill="#4C8432"/>
<rect x="963.33" y="767.923" width="0.273991" height="6.01668" fill="#4C8432"/>
<rect x="962.234" y="767.923" width="0.273991" height="6.01668" fill="#4C8432"/>
<rect x="967.71" y="767.923" width="0.273991" height="6.01668" fill="#4C8432"/>
<rect x="969.899" y="767.923" width="0.273991" height="6.01668" fill="#4C8432"/>
<rect x="968.805" y="767.923" width="0.273991" height="6.01668" fill="#4C8432"/>
<rect x="964.425" y="767.923" width="0.273991" height="6.01668" fill="#4C8432"/>
<rect x="966.614" y="767.923" width="0.273991" height="6.01668" fill="#4C8432"/>
<rect x="965.52" y="767.923" width="0.273991" height="6.01668" fill="#4C8432"/>
<path d="M960.319 773.94V768.985C960.1 769.976 960.045 772.701 960.045 773.94H960.319Z" fill="#4C8432"/>
<path d="M970.995 773.94V768.985C971.214 769.976 971.269 772.701 971.269 773.94H970.995Z" fill="#4C8432"/>
<path fill-rule="evenodd" clip-rule="evenodd" d="M951.953 790.159V806.26C951.953 806.646 952.147 807.441 952.922 807.534C953.89 807.65 963.296 808.576 965.786 808.345C968.276 808.576 977.682 807.65 978.65 807.534C979.425 807.441 979.619 806.646 979.619 806.26V790.159H965.786H951.953Z" fill="#064D11"/>
<path d="M969.832 779.041H967.092C971.529 781.788 973.095 787.805 972.834 787.805H975.966C975.966 787.805 973.486 780.48 969.832 779.041Z" fill="#F4FFFF"/>
<path d="M999.589 843.579C991.095 843.579 984.185 850.59 984.185 859.208C984.185 867.826 991.095 874.837 999.589 874.837C1008.08 874.837 1014.99 867.826 1014.99 859.208C1014.99 850.59 1008.08 843.579 999.589 843.579ZM999.589 873.148C995.815 873.148 992.392 871.596 989.907 869.088C988.914 868.087 988.072 866.933 987.416 865.665C986.416 863.733 985.85 861.537 985.85 859.208C985.85 851.522 992.013 845.269 999.589 845.269C1003.18 845.269 1006.46 846.676 1008.91 848.975C1010.18 850.168 1011.23 851.599 1011.98 853.199C1012.85 855.02 1013.33 857.058 1013.33 859.208C1013.33 866.894 1007.16 873.148 999.589 873.148Z" fill="#C4DCDC"/>
<path d="M994.559 857.413C995.479 857.413 996.224 856.656 996.224 855.723C996.224 854.79 995.479 854.033 994.559 854.033C993.639 854.033 992.894 854.79 992.894 855.723C992.894 856.656 993.639 857.413 994.559 857.413Z" fill="#C4DCDC"/>
<path d="M1004.86 857.413C1005.78 857.413 1006.53 856.656 1006.53 855.723C1006.53 854.79 1005.78 854.033 1004.86 854.033C1003.94 854.033 1003.2 854.79 1003.2 855.723C1003.2 856.656 1003.94 857.413 1004.86 857.413Z" fill="#C4DCDC"/>
<path d="M999.618 861.541C996.396 861.541 993.308 863.213 991.541 865.989L992.939 866.906C994.563 864.357 997.532 862.934 1000.51 863.283C1002.82 863.554 1004.97 864.908 1006.24 866.906L1007.64 865.989C1006.1 863.571 1003.5 861.932 1000.7 861.604C1000.34 861.562 999.977 861.541 999.618 861.541Z" fill="#C4DCDC"/>
<defs>
<linearGradient id="paint0_linear_104_1169" x1="470.196" y1="525.844" x2="470.196" y2="719" gradientUnits="userSpaceOnUse">
<stop stop-color="#161824"/>
<stop offset="1" stop-color="#161824" stop-opacity="0"/>
</linearGradient>
</defs>
</svg>
