<svg width="70" height="24" viewBox="0 0 70 24" fill="none" xmlns="http://www.w3.org/2000/svg">
<path d="M3.69831 23.4389C3.34095 23.83 2.87801 24.0166 2.30948 23.9988C1.7572 23.9988 1.28614 23.7766 0.896295 23.3322C0.522694 22.7633 0.270919 22.2123 0.140971 21.679C-0.00522119 21.1634 -0.0377082 20.7368 0.0435095 20.399C0.124727 20.0613 0.295284 19.8924 0.555181 19.8924C0.636399 19.8924 0.758225 19.9279 0.920661 19.999C1.06685 20.0701 1.20492 20.159 1.33487 20.2657C1.46482 20.3723 1.52979 20.4968 1.52979 20.639C1.52979 20.9057 1.55416 21.1368 1.60289 21.3323C1.65162 21.5278 1.78157 21.6434 1.99273 21.679C2.17141 21.7501 2.35009 21.7234 2.52877 21.599C2.72369 21.4923 2.91049 21.279 3.08917 20.959C3.25161 20.7279 3.43029 20.3635 3.62521 19.8657C3.82013 19.368 4.01506 18.8435 4.20998 18.2925C4.4049 17.7591 4.55921 17.3236 4.67292 16.9858C4.86784 16.257 5.02216 15.5193 5.13586 14.7726C5.24956 14.0082 5.38764 13.1905 5.55007 12.3194C5.61504 11.8394 5.68814 11.4306 5.76936 11.0928C5.86682 10.7373 5.91555 10.5239 5.91555 10.4528C5.91555 10.3817 5.92367 10.2395 5.93992 10.0262C5.95616 9.79508 6.00489 9.59065 6.08611 9.41288C6.08611 9.14623 6.11859 8.84402 6.18357 8.50626C6.26479 8.1685 6.3054 7.96406 6.3054 7.89295C6.35413 7.83962 6.45159 7.83962 6.59778 7.89295C6.76021 7.92851 6.92265 7.99073 7.08509 8.07961C7.26376 8.1685 7.39371 8.25738 7.47493 8.34626C7.60488 8.48848 7.71858 8.64847 7.81604 8.82624C7.91351 8.98623 7.97848 9.25289 8.01097 9.6262C8.0597 9.98174 8.04345 10.5328 7.96224 11.2795C7.96224 11.3861 7.93787 11.6083 7.88914 11.9461C7.84041 12.2661 7.77544 12.6305 7.69422 13.0394C7.613 13.4482 7.53178 13.8482 7.45056 14.2393C7.36935 14.6126 7.30437 14.9237 7.25564 15.1726C7.19067 15.4393 7.11757 15.7326 7.03635 16.0526C6.95514 16.3725 6.90641 16.5948 6.89016 16.7192C6.87392 16.8259 6.81707 17.0392 6.71961 17.3592C6.62214 17.6614 6.51656 17.9636 6.40286 18.2658C6.30539 18.568 6.24854 18.7813 6.2323 18.9058C6.21606 18.9769 6.16733 19.1457 6.08611 19.4124C6.02113 19.6791 5.87494 20.0879 5.64753 20.639C5.56631 20.8523 5.39576 21.1545 5.13586 21.5456C4.87596 21.9545 4.60794 22.3367 4.3318 22.6922C4.05566 23.0656 3.8445 23.3144 3.69831 23.4389ZM7.30437 5.17309C7.12569 4.94199 7.06884 4.56867 7.13382 4.05314C7.21503 3.53761 7.38559 3.09319 7.64549 2.71987C7.85665 2.45322 8.14092 2.30211 8.49827 2.26656C8.87188 2.231 9.16426 2.311 9.37542 2.50655C9.5541 2.80875 9.66781 3.11096 9.71654 3.41317C9.76527 3.71538 9.7003 4.0087 9.52162 4.29313C9.11553 4.79088 8.6932 5.11087 8.25462 5.25308C7.83229 5.3953 7.51554 5.36863 7.30437 5.17309Z" fill="#273998"/>
<path d="M14.4407 17.3325C13.9534 17.6347 13.4336 17.8125 12.8814 17.8658C12.3453 17.9014 11.8418 17.8214 11.3707 17.6258C10.8997 17.4125 10.5179 17.1014 10.2255 16.6925C10.0631 16.4614 9.9088 16.097 9.7626 15.5992C9.61641 15.0837 9.59205 14.3904 9.68951 13.5193C9.78697 12.7016 10.0144 11.875 10.3717 11.0395C10.7453 10.204 11.2002 9.46621 11.7362 8.82624C12.2722 8.18627 12.857 7.75074 13.4905 7.51964C13.7179 7.43075 13.9453 7.36853 14.1727 7.33298C14.4164 7.27965 14.7331 7.27076 15.123 7.30631C15.4966 7.35965 15.8296 7.46631 16.122 7.6263C16.4143 7.76852 16.6255 7.92851 16.7554 8.10628C17.0153 8.39071 17.1859 8.66625 17.2671 8.9329C17.3483 9.19956 17.3808 9.45732 17.3646 9.7062C17.2834 10.2751 17.0478 10.8884 16.658 11.5461C16.2844 12.2039 15.7565 12.6927 15.0742 13.0127C14.7981 13.1371 14.4732 13.2171 14.0996 13.2527C13.726 13.2882 13.2144 13.2349 12.5646 13.0927C12.1748 13.0038 11.9149 13.0483 11.7849 13.226C11.6712 13.4038 11.6225 13.7504 11.6387 14.266C11.6712 14.586 11.7362 14.8704 11.8337 15.1193C11.9474 15.3504 12.1504 15.5104 12.4428 15.5992C12.8164 15.6704 13.0844 15.6792 13.2468 15.6259C13.4093 15.5548 13.6123 15.457 13.856 15.3326C13.9859 15.2437 14.1078 15.1459 14.2215 15.0393C14.3514 14.9326 14.4732 14.826 14.5869 14.7193C14.7169 14.6126 14.8225 14.5326 14.9037 14.4793C14.9849 14.4082 15.0661 14.3638 15.1473 14.346C15.2286 14.3282 15.3098 14.3193 15.391 14.3193C15.5697 14.3371 15.7402 14.4437 15.9027 14.6393C16.0651 14.8348 16.1707 15.0215 16.2194 15.1993C16.2194 15.3415 16.1382 15.5459 15.9758 15.8126C15.8133 16.0614 15.594 16.3281 15.3179 16.6125C15.058 16.8792 14.7656 17.1192 14.4407 17.3325ZM14.124 11.3861C14.2377 11.3328 14.4001 11.2084 14.6113 11.0128C14.8387 10.8173 15.0418 10.6128 15.2204 10.3995C15.3991 10.1684 15.4885 9.99063 15.4885 9.86619C15.4885 9.67064 15.3666 9.50176 15.123 9.35955C14.8956 9.21733 14.5951 9.19067 14.2215 9.27955C14.0915 9.31511 13.9372 9.41288 13.7585 9.57287C13.5798 9.73286 13.4012 9.91952 13.2225 10.1328C13.0438 10.3284 12.8895 10.5239 12.7595 10.7195C12.6296 10.8973 12.5403 11.0395 12.4915 11.1461C12.5565 11.235 12.6864 11.3061 12.8814 11.3595C13.0763 11.4128 13.2875 11.4394 13.5149 11.4394C13.7585 11.4394 13.9616 11.4217 14.124 11.3861Z" fill="#273998"/>
<path d="M25.6484 17.7591C25.4048 17.7591 25.1692 17.6791 24.9418 17.5192C24.7144 17.3414 24.5276 17.1014 24.3814 16.7992C24.2352 16.4792 24.1621 16.1059 24.1621 15.6792C24.1621 15.4126 24.2027 15.0393 24.2839 14.5593C24.3814 14.0615 24.5195 13.4394 24.6982 12.6927C24.7306 12.4438 24.755 12.2839 24.7713 12.2127C24.8037 12.1416 24.82 12.0705 24.82 11.9994C24.82 11.9639 24.8119 11.9372 24.7956 11.9194C24.7956 11.8839 24.7794 11.8661 24.7469 11.8661C24.6169 11.8661 24.4383 11.9639 24.2109 12.1594C23.9997 12.3372 23.756 12.5505 23.4799 12.7994C23.4312 12.8349 23.3743 12.8794 23.3093 12.9327C23.2606 12.986 23.2038 13.0394 23.1388 13.0927C23.0901 13.146 23.0332 13.1994 22.9682 13.2527C22.8058 13.3594 22.554 13.5638 22.2129 13.866C21.888 14.1682 21.5469 14.4882 21.1896 14.826C20.8484 15.1637 20.5479 15.4481 20.288 15.6792C20.1581 15.7859 20.0444 15.8748 19.9469 15.9459C19.8657 16.017 19.8089 16.0526 19.7764 16.0526C19.7439 16.0526 19.6139 16.0081 19.3865 15.9192C19.1754 15.8126 18.9642 15.6704 18.753 15.4926C18.5581 15.297 18.4606 15.0748 18.4606 14.826C18.4606 14.666 18.5175 14.346 18.6312 13.866C18.7611 13.386 18.9398 12.8172 19.1672 12.1594C19.3946 11.5017 19.6545 10.835 19.9469 10.1595C20.0119 9.99952 20.0606 9.78619 20.0931 9.51954C20.1256 9.25289 20.1581 8.99512 20.1906 8.74625C20.2393 8.47959 20.3205 8.28405 20.4342 8.15961C20.483 8.07072 20.5398 8.0085 20.6048 7.97295C20.686 7.91962 20.7672 7.89295 20.8484 7.89295C21.0109 7.89295 21.1652 7.9374 21.3114 8.02628C21.4576 8.09739 21.5956 8.22183 21.7256 8.3996C21.9692 8.68403 22.0992 9.02179 22.1154 9.41288C22.1479 9.7862 22.1236 10.1506 22.0423 10.5062C21.9611 10.8617 21.8718 11.155 21.7743 11.3861C21.6769 11.5994 21.6281 11.6883 21.6281 11.6528C21.6931 11.6172 21.7824 11.5283 21.8962 11.3861C22.0261 11.2439 22.2454 11.075 22.554 10.8795C22.9763 10.5239 23.3012 10.2751 23.5286 10.1328C23.756 9.97285 23.9266 9.8573 24.0403 9.7862C24.1702 9.71509 24.284 9.63509 24.3814 9.54621C24.4626 9.4751 24.5195 9.43066 24.552 9.41288C24.6007 9.3951 24.6251 9.38622 24.6251 9.38622C24.6738 9.38622 24.755 9.35066 24.8687 9.27955C24.9987 9.20845 25.1205 9.17289 25.2342 9.17289C25.3966 9.17289 25.5672 9.21733 25.7459 9.30622C25.9245 9.37733 26.0789 9.48399 26.2088 9.6262C26.3388 9.75064 26.4037 9.88397 26.4037 10.0262C26.4037 10.0795 26.42 10.124 26.4525 10.1595C26.485 10.1951 26.5174 10.2395 26.5499 10.2928C26.6311 10.3995 26.7205 10.5506 26.8179 10.7461C26.9316 10.9239 26.9885 11.2172 26.9885 11.6261C26.9885 11.9105 26.9316 12.3283 26.8179 12.8794C26.7042 13.4305 26.5824 13.9727 26.4525 14.506C26.3225 15.0571 26.2575 15.5015 26.2575 15.8392C26.2738 16.1592 26.3063 16.4081 26.355 16.5859C26.4037 16.7459 26.4281 16.8792 26.4281 16.9858C26.4281 17.1281 26.3631 17.2969 26.2332 17.4925C26.1032 17.6703 25.9083 17.7591 25.6484 17.7591Z" fill="#273998"/>
<path d="M30.3262 16.9592C30.2612 16.9592 30.1069 16.897 29.8632 16.7725C29.6196 16.6303 29.4653 16.5236 29.4003 16.4525C29.2866 16.3103 29.2135 16.1592 29.181 15.9992C29.1485 15.8215 29.1323 15.4837 29.1323 14.9859C29.1323 14.4171 29.2379 13.7771 29.449 13.066C29.6602 12.3372 30.0175 11.3683 30.5211 10.1595L31.5201 7.94628C31.6013 7.82185 31.6744 7.71519 31.7394 7.6263C31.8043 7.51964 31.8774 7.42187 31.9586 7.33298C31.9911 7.33298 32.0317 7.33298 32.0805 7.33298C32.1454 7.33298 32.1942 7.34187 32.2267 7.35965C32.3729 7.37742 32.6003 7.4752 32.9089 7.65297C33.2338 7.83073 33.4287 8.09739 33.4937 8.45293C33.4937 8.68403 33.4612 8.95957 33.3962 9.27955C33.3312 9.58176 33.1363 9.98174 32.8114 10.4795C32.6815 10.6573 32.5515 10.915 32.4216 11.2528C32.3079 11.5906 32.2023 11.9105 32.1048 12.2127C32.0886 12.2483 32.0399 12.3372 31.9586 12.4794C31.8937 12.6038 31.8287 12.7372 31.7637 12.8794C31.6987 13.0038 31.6663 13.0838 31.6663 13.1194L31.5688 13.3594L32.6165 12.2394C33.3475 11.4394 33.9647 10.8706 34.4683 10.5328C34.9718 10.1951 35.3942 10.0528 35.7353 10.1062C36.0926 10.1595 36.3769 10.3817 36.5881 10.7728C36.7018 10.9506 36.783 11.1461 36.8317 11.3595C36.8804 11.555 36.9129 11.7861 36.9292 12.0528C36.9454 12.3194 36.9373 12.6572 36.9048 13.066V14.586C37.2134 14.4971 37.449 14.426 37.6114 14.3726C37.7738 14.3015 37.9363 14.2393 38.0987 14.186C38.2287 14.1504 38.3586 14.1149 38.4885 14.0793C38.6347 14.0438 38.8134 14.0171 39.0246 13.9993C39.0083 14.2304 38.919 14.5149 38.7566 14.8526C38.5941 15.1904 38.3911 15.5281 38.1474 15.8659C37.92 16.2037 37.6683 16.4881 37.3921 16.7192C37.1322 16.9503 36.8886 17.0658 36.6612 17.0658C36.45 17.0658 36.2063 16.9947 35.9302 16.8525C35.6541 16.6925 35.4185 16.3903 35.2236 15.9459C35.1586 15.7148 35.0936 15.4481 35.0287 15.1459C34.9637 14.8437 34.9312 14.5237 34.9312 14.186V13.0127C34.9312 12.906 34.9231 12.8349 34.9068 12.7994C34.9068 12.7461 34.8987 12.7194 34.8825 12.7194C34.8175 12.7194 34.6063 12.906 34.249 13.2794C33.9079 13.6527 33.5586 14.0438 33.2013 14.4526C32.4541 15.3059 31.8287 15.937 31.3251 16.3459C30.8378 16.7547 30.5048 16.9592 30.3262 16.9592Z" fill="#273998"/>
<path d="M41.9724 17.8391C41.5826 17.8391 41.2414 17.6169 40.9491 17.1725C40.6729 16.7103 40.5024 16.1592 40.4374 15.5193C40.4536 15.377 40.4699 15.1726 40.4861 14.9059C40.5186 14.6393 40.5511 14.3638 40.5836 14.0793C40.6486 13.7416 40.7379 13.306 40.8516 12.7727C40.9653 12.2394 41.0871 11.7061 41.2171 11.1728C41.347 10.6217 41.4607 10.1506 41.5582 9.75953C41.6557 9.35066 41.7125 9.11067 41.7288 9.03956C41.8262 8.79069 42.0455 8.72847 42.3866 8.85291C42.7277 8.97735 43.0201 9.244 43.2638 9.65287C43.3612 9.79508 43.4181 9.96396 43.4343 10.1595C43.4668 10.3551 43.4424 10.6395 43.3612 11.0128C43.2963 11.3861 43.1663 11.9372 42.9714 12.6661C42.7927 13.3771 42.6546 13.9549 42.5572 14.3993C42.476 14.826 42.4435 15.2793 42.4597 15.7592C42.3947 16.577 42.3298 17.1369 42.2648 17.4392C42.1998 17.7236 42.1024 17.8569 41.9724 17.8391ZM44.214 6.77301C44.149 6.82634 44.0841 6.853 44.0191 6.853C43.9704 6.83523 43.881 6.7819 43.7511 6.69301C43.6374 6.67523 43.4912 6.59524 43.3125 6.45302C43.1501 6.29303 43.0039 6.13304 42.8739 5.97305C42.7602 5.81305 42.7034 5.71528 42.7034 5.67973C42.6871 5.50196 42.6952 5.21753 42.7277 4.82644C42.7765 4.43534 42.8658 4.07091 42.9958 3.73315C43.1419 3.37762 43.3369 3.19096 43.5805 3.17318C43.6455 3.17318 43.7836 3.20874 43.9947 3.27984C44.2221 3.35095 44.4577 3.43983 44.7013 3.5465C44.8313 3.81315 44.9531 4.1598 45.0668 4.58645C45.1805 5.01309 45.1886 5.43085 45.0912 5.83972C45.01 6.23081 44.7176 6.54191 44.214 6.77301Z" fill="#273998"/>
<path d="M46.5358 16.4792C46.1946 16.6036 45.9104 16.6659 45.683 16.6659C45.4556 16.6481 45.2038 16.5325 44.9277 16.3192C44.6028 15.9637 44.4891 15.6081 44.5865 15.2526C44.7002 14.8793 44.9926 14.5149 45.4637 14.1593C45.7886 13.946 46.0241 13.8393 46.1703 13.8393C46.3327 13.8216 46.5682 13.8838 46.8769 14.026C47.4292 14.3993 47.6728 14.8171 47.6078 15.2793C47.5429 15.7237 47.1855 16.1237 46.5358 16.4792Z" fill="#273998"/>
<path d="M50.8056 16.8525C50.6919 16.8703 50.5619 16.8259 50.4157 16.7192C50.2858 16.5948 50.164 16.4881 50.0503 16.3992C49.8878 16.1859 49.7741 15.9992 49.7092 15.8392C49.6442 15.6792 49.6117 15.5015 49.6117 15.3059C49.6117 15.1104 49.6279 14.8793 49.6604 14.6126C49.7416 14.3282 49.8391 13.946 49.9528 13.466C50.0665 12.986 50.2046 12.4705 50.367 11.9194C50.3995 11.7061 50.4564 11.4572 50.5376 11.1728C50.635 10.8706 50.7325 10.5862 50.83 10.3195C50.9274 10.0351 51.0005 9.82175 51.0492 9.67953C51.163 9.23511 51.2767 8.80847 51.3904 8.3996C51.5203 7.99073 51.6746 7.51964 51.8533 6.98633C52.032 6.45302 52.2513 5.7775 52.5112 4.95976C52.8685 3.89315 53.1365 3.09319 53.3152 2.55988C53.4939 2.02657 53.6238 1.64437 53.7051 1.41327C53.7863 1.18217 53.8431 0.995509 53.8756 0.853294C53.8756 0.711078 53.965 0.577752 54.1436 0.453313C54.3386 0.311098 54.5091 0.23999 54.6553 0.23999C54.8827 0.257767 55.102 0.40887 55.3132 0.693301C55.5243 0.959955 55.6705 1.28883 55.7518 1.67992C55.833 2.05324 55.7761 2.41766 55.5812 2.7732C55.3213 3.41317 55.0614 4.13314 54.8015 4.9331C54.5579 5.71528 54.3142 6.49747 54.0705 7.27965C53.8269 8.06184 53.5832 8.7818 53.3396 9.43955C53.3233 9.52843 53.2665 9.67953 53.169 9.89286C53.0878 10.1062 53.0147 10.2839 52.9497 10.4262C52.8848 10.5684 52.8198 10.7017 52.7548 10.8261C52.7061 10.9506 52.6817 11.0128 52.6817 11.0128C52.6655 11.1195 52.633 11.2706 52.5843 11.4661C52.5355 11.6617 52.4868 11.8305 52.4381 11.9728C52.4218 12.0616 52.3975 12.1772 52.365 12.3194C52.3325 12.4616 52.3081 12.6038 52.2919 12.7461C52.3731 12.6394 52.4868 12.515 52.633 12.3727C52.7792 12.2127 52.966 12.0172 53.1934 11.7861C53.4533 11.5372 53.6807 11.3239 53.8756 11.1461C54.0705 10.9684 54.2655 10.8084 54.4604 10.6662C54.6391 10.5239 54.8015 10.3906 54.9477 10.2662C55.1101 10.1417 55.1913 10.0795 55.1913 10.0795C55.2238 10.0262 55.2563 9.96396 55.2888 9.89286C55.3375 9.82175 55.3863 9.77731 55.435 9.75953C55.4675 9.72397 55.5243 9.67953 55.6056 9.6262C55.6868 9.55509 55.768 9.48399 55.8492 9.41288C55.9954 9.30622 56.1497 9.21733 56.3122 9.14623C56.4746 9.07512 56.6451 9.02179 56.8238 8.98623C57.0025 8.95068 57.1731 8.9329 57.3355 8.9329C57.5304 8.9329 57.7335 9.02179 57.9446 9.19956C58.1558 9.35955 58.3507 9.59065 58.5294 9.89286C58.6918 10.124 58.7893 10.3995 58.8218 10.7195C58.8705 11.0217 58.8786 11.4306 58.8461 11.9461C58.8461 12.0883 58.8055 12.355 58.7243 12.7461C58.6593 13.1371 58.6106 13.4305 58.5781 13.626L58.3588 14.5326H58.5538C58.7324 14.4615 58.903 14.4526 59.0654 14.506C59.2441 14.5593 59.3335 14.586 59.3335 14.586C59.4147 14.6393 59.4878 14.7015 59.5527 14.7726C59.634 14.8437 59.7071 14.8971 59.772 14.9326C59.8695 15.0748 59.8532 15.2793 59.7233 15.5459C59.5933 15.8126 59.4472 15.9992 59.2847 16.1059C58.8949 16.3903 58.5456 16.5681 58.237 16.6392C57.9446 16.7103 57.636 16.6481 57.3111 16.4525C57.0025 16.2214 56.7913 15.9459 56.6776 15.6259C56.5802 15.3059 56.5396 14.8704 56.5558 14.3193C56.6208 13.5371 56.6614 12.9772 56.6776 12.6394C56.6939 12.2839 56.6127 12.1061 56.434 12.1061C56.2391 12.1061 55.971 12.2127 55.6299 12.4261C55.3051 12.6216 54.9396 12.8972 54.5335 13.2527C54.1274 13.5905 53.7213 13.9727 53.3152 14.3993C52.9254 14.8082 52.5761 15.2259 52.2675 15.6526C52.0726 15.9192 51.8614 16.1859 51.634 16.4525C51.4066 16.7014 51.1305 16.8347 50.8056 16.8525Z" fill="#273998"/>
<path d="M66.0743 17.3325C65.587 17.6347 65.0672 17.8125 64.5149 17.8658C63.9789 17.9014 63.4753 17.8214 63.0042 17.6258C62.5332 17.4125 62.1515 17.1014 61.8591 16.6925C61.6966 16.4614 61.5423 16.097 61.3961 15.5992C61.2499 15.0837 61.2256 14.3904 61.323 13.5193C61.4205 12.7016 61.6479 11.875 62.0053 11.0395C62.3789 10.204 62.8337 9.46621 63.3697 8.82624C63.9058 8.18627 64.4905 7.75074 65.124 7.51964C65.3514 7.43075 65.5788 7.36853 65.8063 7.33298C66.0499 7.27965 66.3667 7.27076 66.7565 7.30631C67.1301 7.35965 67.4631 7.46631 67.7555 7.6263C68.0479 7.76852 68.259 7.92851 68.389 8.10628C68.6489 8.39071 68.8194 8.66625 68.9006 8.9329C68.9819 9.19956 69.0144 9.45732 68.9981 9.7062C68.9169 10.2751 68.6814 10.8884 68.2915 11.5461C67.9179 12.2039 67.39 12.6927 66.7078 13.0127C66.4316 13.1371 66.1068 13.2171 65.7332 13.2527C65.3596 13.2882 64.8479 13.2349 64.1981 13.0927C63.8083 13.0038 63.5484 13.0483 63.4184 13.226C63.3047 13.4038 63.256 13.7504 63.2723 14.266C63.3047 14.586 63.3697 14.8704 63.4672 15.1193C63.5809 15.3504 63.7839 15.5104 64.0763 15.5992C64.4499 15.6704 64.7179 15.6792 64.8804 15.6259C65.0428 15.5548 65.2458 15.457 65.4895 15.3326C65.6195 15.2437 65.7413 15.1459 65.855 15.0393C65.9849 14.9326 66.1068 14.826 66.2205 14.7193C66.3504 14.6126 66.456 14.5326 66.5372 14.4793C66.6184 14.4082 66.6996 14.3638 66.7809 14.346C66.8621 14.3282 66.9433 14.3193 67.0245 14.3193C67.2032 14.3371 67.3738 14.4437 67.5362 14.6393C67.6986 14.8348 67.8042 15.0215 67.8529 15.1993C67.8529 15.3415 67.7717 15.5459 67.6093 15.8126C67.4468 16.0614 67.2276 16.3281 66.9514 16.6125C66.6915 16.8792 66.3991 17.1192 66.0743 17.3325ZM65.7575 11.3861C65.8712 11.3328 66.0337 11.2084 66.2448 11.0128C66.4722 10.8173 66.6753 10.6128 66.854 10.3995C67.0326 10.1684 67.122 9.99063 67.122 9.86619C67.122 9.67064 67.0002 9.50176 66.7565 9.35955C66.5291 9.21733 66.2286 9.19067 65.855 9.27955C65.725 9.31511 65.5707 9.41288 65.392 9.57287C65.2134 9.73286 65.0347 9.91952 64.856 10.1328C64.6773 10.3284 64.523 10.5239 64.3931 10.7195C64.2631 10.8973 64.1738 11.0395 64.125 11.1461C64.19 11.235 64.32 11.3061 64.5149 11.3595C64.7098 11.4128 64.921 11.4394 65.1484 11.4394C65.392 11.4394 65.5951 11.4217 65.7575 11.3861Z" fill="#273998"/>
</svg>
