<svg width="32" height="32" viewBox="0 0 32 32" fill="none" xmlns="http://www.w3.org/2000/svg">
<path d="M15.1326 4.14016C14.771 4.20033 9.7119 5.06117 10.3624 6.00474C11.037 6.98317 14.3969 6.00474 13.8335 6.98317C13.2701 7.96162 9.78555 19.4928 8.92796 21.9834C8.07034 24.474 3.72407 19.808 2.62375 20.6003C1.52343 21.3926 8.03522 35.5167 11.2772 31.1233C14.5192 26.73 16.126 7.42793 16.3898 6.00474C16.6501 4.60129 15.7021 4.17816 15.1749 4.13824C15.1601 4.13712 15.1473 4.1377 15.1326 4.14016Z" fill="#4D4F5F"/>
<path d="M25.2869 14.4347C25.9572 13.7868 31.9961 11.004 28.3237 11.2166C23.917 11.2166 16.9383 14.809 13.9998 16.1851C12.5825 16.8548 13.4248 18.3184 13.8248 18.8845C13.9254 19.0269 14.1069 19.0739 14.269 19.012C15.925 18.3799 24.6804 15.0211 25.2869 14.4347Z" fill="#4D4F5F"/>
<path d="M23.9398 13.6231L23.6325 14.1694C23.5921 14.2409 23.5676 14.3105 23.5583 14.3923C23.4223 15.5778 22.2994 25.6029 22.9637 27.5426C23.0889 27.9082 23.7516 28.0019 24.1337 28.0428C24.5503 28.0873 25.1948 27.9703 26.1443 27.371C27.7528 26.3559 25.8898 17.4047 25.0596 13.7825C24.9339 13.2339 24.2143 13.1353 23.9398 13.6231Z" fill="#4D4F5F"/>
<path fill-rule="evenodd" clip-rule="evenodd" d="M15.1841 20.7948C14.972 21.7315 14.4447 24.2951 15.0247 24.2971L18.5733 24.31C18.8652 24.3111 19.1004 23.9811 19.2885 23.4953C20.0769 21.4589 18.1445 19.532 16.0435 20.0524C15.8256 20.1064 15.6426 20.1647 15.5086 20.2275C15.2977 20.3263 15.2351 20.5694 15.1841 20.7948ZM15.7674 21.5244C15.6805 21.8799 15.5116 22.6708 15.7284 22.6712L17.1269 22.6751C17.1415 22.6751 17.1558 22.6733 17.1697 22.6697C18.0879 22.4372 16.6209 20.7434 15.8429 21.3097C15.7799 21.3554 15.7792 21.3851 15.7781 21.4323C15.7775 21.4566 15.7768 21.4859 15.7674 21.5244Z" fill="#4D4F5F"/>
<path d="M16.3482 2.52053C17.0503 2.52053 17.6194 1.95629 17.6194 1.26027C17.6194 0.56424 17.0503 0 16.3482 0C15.6462 0 15.077 0.56424 15.077 1.26027C15.077 1.95629 15.6462 2.52053 16.3482 2.52053Z" fill="#4D4F5F"/>
</svg>
