<svg width="131" height="154" viewBox="0 0 131 154" fill="none" xmlns="http://www.w3.org/2000/svg">
<path d="M61.2915 19.9244C59.537 20.214 34.9911 24.3568 38.1473 28.8977C41.4202 33.6064 57.7222 28.8977 54.9886 33.6064C52.2551 38.3152 35.3484 93.8088 31.1875 105.795C27.0265 117.781 5.93903 95.3259 0.600437 99.1388C-4.73816 102.952 26.8561 170.924 42.5857 149.781C58.3153 128.638 66.1112 35.7468 67.3915 28.8977C68.6541 22.1436 64.0546 20.1073 61.4969 19.9152C61.4249 19.9098 61.3627 19.9126 61.2915 19.9244Z" fill="#1B360A"/>
<path d="M110.559 69.4669C113.811 66.3489 143.111 52.9566 125.293 53.9797C103.912 53.9797 70.0524 71.2681 55.7953 77.8906C48.9189 81.1138 53.0057 88.1571 54.9466 90.8818C55.4345 91.5668 56.315 91.793 57.1014 91.4952C65.1364 88.4532 107.616 72.2891 110.559 69.4669Z" fill="#1B360A"/>
<path d="M104.023 65.5613L102.532 68.1903C102.336 68.5343 102.217 68.8695 102.172 69.2628C101.512 74.9684 96.0639 123.214 99.2872 132.549C99.8945 134.308 103.11 134.759 104.964 134.956C106.985 135.17 110.112 134.607 114.719 131.723C122.523 126.838 113.484 83.76 109.456 66.3282C108.846 63.6884 105.355 63.2135 104.023 65.5613Z" fill="#1B360A"/>
<path fill-rule="evenodd" clip-rule="evenodd" d="M61.5412 100.075C60.5124 104.583 57.9537 116.92 60.7681 116.93L77.9854 116.992C79.4013 116.997 80.5425 115.409 81.4553 113.071C85.2807 103.271 75.9049 93.9978 65.7109 96.5022C64.6539 96.7619 63.7658 97.0427 63.1159 97.3446C62.0924 97.8201 61.7888 98.9904 61.5412 100.075ZM64.3714 103.586C63.9499 105.297 63.1302 109.103 64.1822 109.105L70.9673 109.124C71.0385 109.124 71.1078 109.115 71.1754 109.098C75.63 107.979 68.5123 99.8278 64.7376 102.553C64.4321 102.773 64.4287 102.916 64.4233 103.143C64.4205 103.26 64.4171 103.401 64.3714 103.586Z" fill="#1B360A"/>
<ellipse cx="67.1897" cy="6.06503" rx="6.16768" ry="6.06503" fill="#1B360A"/>
</svg>
