<svg width="179" height="160" viewBox="0 0 179 160" fill="none" xmlns="http://www.w3.org/2000/svg">
<path d="M106.439 17.1676C106.439 14.9131 105.995 12.6807 105.132 10.5978C104.269 8.51497 103.005 6.62243 101.411 5.02827C99.8166 3.43411 97.9241 2.16956 95.8412 1.3068C93.7583 0.444052 91.5259 -9.85464e-08 89.2715 0C87.017 9.85464e-08 84.7846 0.444053 82.7017 1.3068C80.6188 2.16956 78.7263 3.43411 77.1321 5.02827C75.538 6.62243 74.2734 8.51497 73.4107 10.5978C72.5479 12.6807 72.1039 14.9131 72.1039 17.1676L89.2715 17.1676H106.439Z" fill="#3D5D28"/>
<ellipse cx="89.2714" cy="18.8843" rx="20.6011" ry="8.58379" fill="#1B360A"/>
<path d="M87.5547 15.4506C87.5547 14.5025 88.3233 13.7339 89.2714 13.7339V13.7339C90.2196 13.7339 90.9882 14.5025 90.9882 15.4506V46.3523H87.5547V15.4506Z" fill="#3D5D28"/>
<path d="M72.1039 19.7427C72.1039 19.2686 72.4882 18.8843 72.9623 18.8843V18.8843C73.4363 18.8843 73.8206 19.2686 73.8206 19.7427V46.3524H72.1039V19.7427Z" fill="#D3D9CF"/>
<path d="M75.5374 17.1674C75.5374 16.2193 76.306 15.4507 77.2541 15.4507V15.4507C78.2023 15.4507 78.9709 16.2193 78.9709 17.1674V46.3523H75.5374V17.1674Z" fill="#3D5D28"/>
<path d="M80.6876 25.7514C80.6876 24.8033 81.4562 24.0347 82.4044 24.0347V24.0347C83.3525 24.0347 84.1211 24.8033 84.1211 25.7514V46.3525H80.6876V25.7514Z" fill="#D3D9CF"/>
<path d="M94.4216 25.7514C94.4216 24.8033 95.1902 24.0347 96.1384 24.0347V24.0347C97.0865 24.0347 97.8551 24.8033 97.8551 25.7514V46.3525H94.4216V25.7514Z" fill="#D3D9CF"/>
<path d="M104.722 19.7427C104.722 19.2686 105.107 18.8843 105.581 18.8843V18.8843C106.055 18.8843 106.439 19.2686 106.439 19.7427V46.3524H104.722V19.7427Z" fill="#D3D9CF"/>
<path d="M99.572 17.1674C99.572 16.2193 100.341 15.4507 101.289 15.4507V15.4507C102.237 15.4507 103.006 16.2193 103.006 17.1674V46.3523H99.572V17.1674Z" fill="#3D5D28"/>
<path d="M15.4508 101.289L7.72534 89.2713C44.8073 68.6702 77.5402 60.6587 89.2714 59.228V106.439H58.3697L15.4508 101.289Z" fill="#D3D9CF"/>
<path d="M163.092 101.289L170.818 89.2713C133.736 68.6702 101.003 60.6587 89.2715 59.228V106.439H120.173L163.092 101.289Z" fill="#D3D9CF"/>
<path d="M80.6877 41.2019L41.2021 60.0862H89.2714V41.2019H80.6877Z" fill="#1B360A"/>
<path d="M97.8552 41.2019L137.341 60.0862H89.2715V41.2019H97.8552Z" fill="#1B360A"/>
<path d="M7.72541 89.2713L0 76.3956L44.6357 58.3696H89.2714V71.2453L49.786 72.9621L7.72541 89.2713Z" fill="#1B360A"/>
<path d="M170.817 89.2713L178.543 76.3956L133.907 58.3696H89.2714V71.2453L128.757 72.9621L170.817 89.2713Z" fill="#1B360A"/>
<rect x="6.86694" y="85.8379" width="1.71676" height="73.8206" fill="#1B360A"/>
<rect x="15.4509" y="101.289" width="1.71676" height="58.3698" fill="#D3D9CF"/>
<rect x="118.456" y="101.289" width="1.71676" height="58.3698" fill="#D3D9CF"/>
<rect x="56.6531" y="101.289" width="1.71676" height="58.3698" fill="#D3D9CF"/>
<rect x="161.375" y="101.289" width="1.71676" height="58.3698" fill="#D3D9CF"/>
<rect x="48.0692" y="70.387" width="3.43352" height="89.2714" fill="#1B360A"/>
<rect x="125.323" y="70.387" width="3.43352" height="89.2714" fill="#1B360A"/>
<rect x="169.959" y="85.8379" width="1.71676" height="73.8206" fill="#1B360A"/>
<ellipse cx="89.2714" cy="46.3523" rx="20.6011" ry="8.58379" fill="#1B360A"/>
<path d="M69.3915 95.2537C65.0505 89.3677 68.2339 86.4247 70.2598 84.4626L91.0973 118.798H65.9185C61.0564 114.874 64.7609 108.661 66.7867 107.026C61.9246 103.102 67.3657 96.8887 69.3915 95.2537Z" fill="#3D5E28"/>
<path d="M109.151 95.2537C113.492 89.3677 110.309 86.4247 108.283 84.4626L87.4455 118.798H112.624C117.486 114.874 113.782 108.661 111.756 107.026C116.618 103.102 111.177 96.8887 109.151 95.2537Z" fill="#3D5E28"/>
<ellipse cx="89.2715" cy="89.6131" rx="17.1676" ry="20.6011" fill="#FFDFCD"/>
<path d="M89.6977 69.0785C85.0263 66.1248 71.8691 63.6403 68.6763 80.5979C65.1728 99.2062 93.2012 75.2815 89.6977 69.0785Z" fill="#3D5E28"/>
<path d="M88.2496 69.0785C92.9211 66.1248 106.078 63.6403 109.271 80.5979C112.774 99.2062 84.7461 75.2815 88.2496 69.0785Z" fill="#3D5E28"/>
<path d="M89.6977 69.0785C85.0263 66.1248 71.8691 63.6403 68.6763 80.5979C65.1728 99.2062 93.2012 75.2815 89.6977 69.0785Z" stroke="#3D5E28" stroke-width="2.15668"/>
<path d="M88.2496 69.0785C92.9211 66.1248 106.078 63.6403 109.271 80.5979C112.774 99.2062 84.7461 75.2815 88.2496 69.0785Z" stroke="#3D5E28" stroke-width="2.15668"/>
<rect x="84.1212" y="106.781" width="10.3005" height="13.7341" fill="#FFDFCD"/>
<path d="M59.0703 118.798L68.6704 124.402L67.2988 144.719C62.4988 145.886 51.5273 147.521 46.0416 144.719C40.5558 141.916 52.4416 126.271 59.0703 118.798Z" fill="#1B360A"/>
<path d="M119.473 118.798L109.872 124.402L111.244 144.719C116.044 145.886 127.016 147.521 132.501 144.719C137.987 141.916 126.101 126.271 119.473 118.798Z" fill="#1B360A"/>
<path d="M114.997 118.798H89.2715V160H107.07C107.896 160 108.609 159.428 108.776 158.631L116.703 120.862C116.926 119.797 116.101 118.798 114.997 118.798Z" fill="#1B360A"/>
<path d="M63.5455 118.798H89.2715V160H71.4725C70.6467 160 69.9344 159.428 69.7671 158.631L61.8401 120.862C61.6165 119.797 62.4418 118.798 63.5455 118.798Z" fill="#1B360A"/>
<path d="M87.4607 115.364H69.7002C64.8074 116.215 78.6703 127.27 83.5631 128.971C87.0538 130.184 88.6421 122.47 89.1378 117.168C89.2294 116.188 88.4448 115.364 87.4607 115.364Z" fill="white"/>
<path d="M91.082 115.364H108.843C113.735 116.215 99.8724 127.27 94.9796 128.971C91.4889 130.184 89.9006 122.47 89.405 117.168C89.3134 116.188 90.098 115.364 91.082 115.364Z" fill="white"/>
<path d="M98.9661 91.6214H89.2715C92.503 79.4719 105.581 83.6043 106.439 89.613C107.297 95.6216 105.581 97.3383 105.581 99.9135C105.581 102.745 113.02 110.45 116.74 114.002L111.589 122.231C108.896 118.235 99.9135 104.87 98.7137 103.347C95.987 99.8859 98.6968 96.6836 98.9661 91.6214Z" fill="#FFF1EA"/>
<path d="M79.5768 91.6214H89.2715C86.0399 79.4719 72.9623 83.6043 72.1039 89.613C71.2455 95.6216 72.9623 97.3383 72.9623 99.9135C72.9623 102.745 65.523 110.45 61.8034 114.002L66.9536 122.231C69.6466 118.235 78.6295 104.87 79.8293 103.347C82.5559 99.8859 79.8461 96.6836 79.5768 91.6214Z" fill="#FFF1EA"/>
<path d="M116.869 113.518L109.36 121.027C108.654 121.733 108.525 122.832 109.049 123.682L113.784 131.377C114.449 132.458 115.899 132.733 116.914 131.972L126.846 124.523C127.868 123.756 128.004 122.274 127.137 121.335L119.979 113.58C119.148 112.68 117.735 112.652 116.869 113.518Z" fill="white"/>
<path d="M61.6738 113.518L69.1825 121.027C69.8887 121.733 70.0177 122.832 69.4943 123.682L64.7593 131.377C64.0941 132.458 62.6439 132.733 61.6285 131.972L51.6968 124.523C50.6745 123.756 50.5393 122.274 51.4061 121.335L58.564 113.58C59.3949 112.68 60.8076 112.652 61.6738 113.518Z" fill="white"/>
<circle cx="82.4044" cy="93.0463" r="5.15027" fill="#333333"/>
<circle cx="96.1384" cy="93.0463" r="5.15027" fill="#333333"/>
<rect x="85.838" y="91.3296" width="6.86703" height="3.43352" fill="#333333"/>
</svg>
