<svg width="50" height="50" viewBox="0 0 50 50" fill="none" xmlns="http://www.w3.org/2000/svg">
<path d="M13.0526 40.5C11.5458 39.5 10.0388 39 8.02979 38.5C6.56797 38.1362 4.4425 38.4683 3.00743 39.5C1.27081 40.7484 0.85527 41.8406 2.00277 44C2.86431 45.3406 4.414 46 6.02095 46C9.06771 46 10.3661 45.7804 11.8252 42.8957C13.8911 38.8115 15.6145 35.0298 15.0898 30.4192C14.5564 25.7329 11.652 22.0785 14.2908 17.4413C16.4495 13.6479 18.8109 9.13063 18.8109 4.88468C18.8109 3.9344 19.2819 1.47648 18.2174 0.852904C16.9384 0.103711 21.2916 0.832846 22.8288 0.832846C25.0895 0.832846 27.682 1.29142 29.9058 1.73548C33.2697 2.40722 36.7386 2.27706 40.1788 2.27706C42.9183 2.27706 45.6578 2.27706 48.3973 2.27706C49.5834 2.27706 49.5326 4.25696 48.9908 5.00503C46.6223 8.27534 45.3621 12.2934 45.9546 16.1977C46.2654 18.2461 47.1645 19.9478 47.1645 22.0548C47.1645 23.733 46.5981 25.0591 46.3198 26.6482C46.0502 28.1881 44.3806 29.698 44.2881 31.1614C44.21 32.3955 43.8771 33.417 43.8771 34.7719C43.8771 37.6923 45.5208 40.1889 45.5208 43.0762M45.5208 43.0762C45.5208 45.2926 44.7531 48.3778 41.5029 48.492C38.8872 48.5839 35.3285 48.5508 37.2111 45.2425C38.4524 43.0612 43.1491 43.0762 45.5208 43.0762Z" stroke="#4D4F5F" stroke-linecap="round"/>
</svg>
