<svg width="26" height="26" viewBox="0 0 26 26" fill="none" xmlns="http://www.w3.org/2000/svg">
<path d="M7.20549 21.478C6.4521 20.978 5.6986 20.728 4.69409 20.478C3.96318 20.2961 2.90045 20.4622 2.18291 20.978C1.3146 21.6022 1.10683 22.1483 1.68058 23.228C2.11136 23.8983 2.8862 24.228 3.68967 24.228C5.21305 24.228 5.86224 24.1182 6.59182 22.6759C7.62477 20.6338 8.48646 18.7429 8.22409 16.4376C7.95741 14.0945 6.50518 12.2673 7.82459 9.9487C8.90393 8.05198 10.0847 5.79334 10.0847 3.67037C10.0847 3.19523 10.3202 1.96627 9.78788 1.65448C9.14838 1.27988 11.325 1.64445 12.0936 1.64445C13.224 1.64445 14.5202 1.87374 15.6321 2.09577C17.314 2.43164 19.0485 2.36656 20.7686 2.36656C22.1384 2.36656 23.5081 2.36656 24.8778 2.36656C25.4709 2.36656 25.4455 3.35651 25.1746 3.73054C23.9903 5.3657 23.3603 7.37474 23.6565 9.32688C23.8119 10.3511 24.2615 11.2019 24.2615 12.2554C24.2615 13.0945 23.9782 13.7576 23.8391 14.5521C23.7043 15.3221 22.8695 16.077 22.8232 16.8087C22.7842 17.4258 22.6178 17.9365 22.6178 18.614C22.6178 20.0742 23.4396 21.3225 23.4396 22.7661M23.4396 22.7661C23.4396 23.8743 23.0558 25.4169 21.4307 25.474C20.1228 25.52 18.3434 25.5034 19.2847 23.8493C19.9054 22.7586 22.2538 22.7661 23.4396 22.7661Z" stroke="#4D4F5F" stroke-linecap="round"/>
</svg>
