<svg width="34" height="34" viewBox="0 0 34 34" fill="none" xmlns="http://www.w3.org/2000/svg">
<path d="M9.15452 27.6569C8.15 26.9902 7.14534 26.6569 5.80599 26.3236C4.83144 26.081 3.41447 26.3025 2.45775 26.9902C1.3 27.8225 1.02298 28.5507 1.78798 29.9902C2.36234 30.884 3.39546 31.3236 4.46676 31.3236C6.49794 31.3236 7.36351 31.1771 8.3363 29.254C9.71356 26.5312 10.8625 24.0101 10.5127 20.9364C10.1571 17.8122 8.22077 15.3759 9.97998 12.2845C11.4191 9.75551 12.9934 6.74399 12.9934 3.91335C12.9934 3.27984 13.3074 1.64122 12.5977 1.2255C11.745 0.726042 14.6472 1.21213 15.672 1.21213C17.1792 1.21213 18.9075 1.51784 20.39 1.81389C22.6326 2.26171 24.9452 2.17494 27.2387 2.17494C29.065 2.17494 30.8913 2.17494 32.7177 2.17494C33.5084 2.17494 33.4746 3.49487 33.1134 3.99359C31.5343 6.17379 30.6942 8.85251 31.0892 11.4554C31.2964 12.821 31.8958 13.9554 31.8958 15.3601C31.8958 16.4789 31.5182 17.363 31.3327 18.4224C31.1529 19.449 30.0399 20.4556 29.9782 21.4312C29.9262 22.2539 29.7042 22.9349 29.7042 23.8382C29.7042 25.7851 30.8 27.4495 30.8 29.3744M30.8 29.3744C30.8 30.852 30.2882 32.9088 28.1214 32.9849C26.3776 33.0462 24.0051 33.0241 25.2602 30.8186C26.0877 29.3644 29.2189 29.3744 30.8 29.3744Z" stroke="#4D4F5F" stroke-linecap="round"/>
</svg>
