<svg width="32" height="32" viewBox="0 0 32 32" fill="none" xmlns="http://www.w3.org/2000/svg">
<rect width="32" height="32" rx="16" fill="#3C094F"/>
<path d="M13.9062 18C14.5312 17.5625 15.2292 17.3438 16 17.3438C16.7708 17.3438 17.4583 17.5625 18.0625 18C18.6875 18.4167 19.1354 18.9688 19.4062 19.6562H18.3125C17.7917 18.7812 17.0208 18.3438 16 18.3438C14.9792 18.3438 14.2083 18.7812 13.6875 19.6562H12.5938C12.8646 18.9688 13.3021 18.4167 13.9062 18ZM12.2188 19.7812C13.2812 20.8229 14.5417 21.3438 16 21.3438C17.4583 21.3438 18.7083 20.8229 19.75 19.7812C20.8125 18.7188 21.3438 17.4583 21.3438 16C21.3438 14.5417 20.8125 13.2917 19.75 12.25C18.7083 11.1875 17.4583 10.6562 16 10.6562C14.5417 10.6562 13.2812 11.1875 12.2188 12.25C11.1771 13.2917 10.6562 14.5417 10.6562 16C10.6562 17.4583 11.1771 18.7188 12.2188 19.7812ZM11.2812 11.3125C12.5938 10 14.1667 9.34375 16 9.34375C17.8333 9.34375 19.3958 10 20.6875 11.3125C22 12.6042 22.6562 14.1667 22.6562 16C22.6562 17.8333 22 19.4062 20.6875 20.7188C19.3958 22.0104 17.8333 22.6562 16 22.6562C14.1667 22.6562 12.5938 22.0104 11.2812 20.7188C9.98958 19.4062 9.34375 17.8333 9.34375 16C9.34375 14.1667 9.98958 12.6042 11.2812 11.3125ZM12.9375 15.0625C12.75 14.8542 12.6562 14.6146 12.6562 14.3438C12.6562 14.0729 12.75 13.8438 12.9375 13.6562C13.1458 13.4479 13.3854 13.3438 13.6562 13.3438C13.9271 13.3438 14.1562 13.4479 14.3438 13.6562C14.5521 13.8438 14.6562 14.0729 14.6562 14.3438C14.6562 14.6146 14.5521 14.8542 14.3438 15.0625C14.1562 15.25 13.9271 15.3438 13.6562 15.3438C13.3854 15.3438 13.1458 15.25 12.9375 15.0625ZM17.625 15.0625C17.4375 14.8542 17.3438 14.6146 17.3438 14.3438C17.3438 14.0729 17.4375 13.8438 17.625 13.6562C17.8333 13.4479 18.0729 13.3438 18.3438 13.3438C18.6146 13.3438 18.8438 13.4479 19.0312 13.6562C19.2396 13.8438 19.3438 14.0729 19.3438 14.3438C19.3438 14.6146 19.2396 14.8542 19.0312 15.0625C18.8438 15.25 18.6146 15.3438 18.3438 15.3438C18.0729 15.3438 17.8333 15.25 17.625 15.0625Z" fill="white"/>
</svg>
