<svg width="617" height="271" viewBox="0 0 617 271" fill="none" xmlns="http://www.w3.org/2000/svg">
<path d="M445.801 37.8771L444.839 38.0476C444.799 37.9245 444.735 37.8073 444.647 37.696C444.562 37.5848 444.446 37.4936 444.299 37.4226C444.152 37.3516 443.969 37.3161 443.749 37.3161C443.448 37.3161 443.197 37.3835 442.996 37.5185C442.795 37.651 442.694 37.8227 442.694 38.0334C442.694 38.2157 442.761 38.3625 442.896 38.4737C443.031 38.585 443.249 38.6761 443.55 38.7472L444.416 38.946C444.918 39.062 445.292 39.2408 445.538 39.4822C445.785 39.7237 445.908 40.0374 445.908 40.4233C445.908 40.75 445.813 41.0412 445.624 41.2969C445.437 41.5502 445.175 41.7491 444.839 41.8935C444.505 42.0379 444.118 42.1101 443.678 42.1101C443.067 42.1101 442.568 41.9799 442.183 41.7195C441.797 41.4567 441.56 41.0838 441.472 40.6009L442.499 40.4446C442.563 40.7121 442.694 40.9145 442.893 41.0518C443.092 41.1868 443.351 41.2543 443.67 41.2543C444.018 41.2543 444.297 41.1821 444.505 41.0376C444.713 40.8909 444.817 40.7121 444.817 40.5014C444.817 40.331 444.754 40.1877 444.626 40.0717C444.5 39.9557 444.307 39.8681 444.047 39.8089L443.124 39.6065C442.615 39.4905 442.238 39.3059 441.994 39.0526C441.753 38.7992 441.632 38.4785 441.632 38.0902C441.632 37.7682 441.722 37.4865 441.902 37.245C442.082 37.0036 442.33 36.8153 442.648 36.6804C442.965 36.5431 443.328 36.4744 443.738 36.4744C444.327 36.4744 444.791 36.6023 445.13 36.858C445.469 37.1113 445.692 37.451 445.801 37.8771ZM449.373 42.1101C448.845 42.1101 448.39 41.9905 448.009 41.7514C447.63 41.5099 447.339 41.1773 447.135 40.7536C446.932 40.3298 446.83 39.8445 446.83 39.2976C446.83 38.7436 446.934 38.2547 447.143 37.831C447.351 37.4048 447.644 37.0722 448.023 36.8331C448.402 36.594 448.848 36.4744 449.362 36.4744C449.776 36.4744 450.146 36.5514 450.47 36.7053C450.794 36.8568 451.056 37.0698 451.255 37.3445C451.456 37.6191 451.576 37.9399 451.613 38.3068H450.58C450.523 38.0511 450.393 37.831 450.189 37.6463C449.988 37.4616 449.718 37.3693 449.38 37.3693C449.084 37.3693 448.825 37.4474 448.602 37.6037C448.382 37.7576 448.21 37.9777 448.087 38.2642C447.964 38.5483 447.903 38.8845 447.903 39.2727C447.903 39.6705 447.963 40.0137 448.084 40.3026C448.204 40.5914 448.375 40.8151 448.595 40.9737C448.818 41.1323 449.079 41.2116 449.38 41.2116C449.581 41.2116 449.763 41.175 449.927 41.1016C450.092 41.0258 450.231 40.9181 450.342 40.7784C450.456 40.6387 450.535 40.4706 450.58 40.2741H451.613C451.576 40.6269 451.461 40.9418 451.269 41.2188C451.077 41.4957 450.82 41.7135 450.498 41.8722C450.179 42.0308 449.804 42.1101 449.373 42.1101ZM452.749 42V36.5455H453.775V37.4119H453.832C453.931 37.1184 454.107 36.8875 454.358 36.7195C454.611 36.549 454.897 36.4638 455.217 36.4638C455.283 36.4638 455.361 36.4661 455.451 36.4709C455.544 36.4756 455.616 36.4815 455.668 36.4886V37.5043C455.625 37.4924 455.55 37.4794 455.441 37.4652C455.332 37.4486 455.223 37.4403 455.114 37.4403C454.863 37.4403 454.639 37.4936 454.443 37.6001C454.249 37.7043 454.095 37.8499 453.981 38.0369C453.868 38.2216 453.811 38.4323 453.811 38.669V42H452.749ZM458.689 42.1101C458.178 42.1101 457.731 41.9929 457.35 41.7585C456.969 41.5241 456.673 41.1963 456.463 40.7749C456.252 40.3535 456.146 39.861 456.146 39.2976C456.146 38.7318 456.252 38.237 456.463 37.8132C456.673 37.3894 456.969 37.0604 457.35 36.826C457.731 36.5916 458.178 36.4744 458.689 36.4744C459.2 36.4744 459.647 36.5916 460.028 36.826C460.409 37.0604 460.705 37.3894 460.916 37.8132C461.126 38.237 461.232 38.7318 461.232 39.2976C461.232 39.861 461.126 40.3535 460.916 40.7749C460.705 41.1963 460.409 41.5241 460.028 41.7585C459.647 41.9929 459.2 42.1101 458.689 42.1101ZM458.693 41.2188C459.024 41.2188 459.299 41.1312 459.517 40.956C459.734 40.7808 459.895 40.5476 459.999 40.2564C460.106 39.9652 460.159 39.6444 460.159 39.294C460.159 38.946 460.106 38.6264 459.999 38.3352C459.895 38.0417 459.734 37.8061 459.517 37.6286C459.299 37.451 459.024 37.3622 458.693 37.3622C458.359 37.3622 458.082 37.451 457.862 37.6286C457.644 37.8061 457.482 38.0417 457.375 38.3352C457.271 38.6264 457.219 38.946 457.219 39.294C457.219 39.6444 457.271 39.9652 457.375 40.2564C457.482 40.5476 457.644 40.7808 457.862 40.956C458.082 41.1312 458.359 41.2188 458.693 41.2188ZM463.479 34.7273V42H462.417V34.7273H463.479ZM465.969 34.7273V42H464.907V34.7273H465.969ZM472.086 42.1065C471.645 42.1065 471.252 41.9941 470.907 41.7692C470.564 41.5419 470.294 41.2187 470.097 40.7997C469.903 40.3783 469.806 39.8729 469.806 39.2834C469.806 38.6939 469.904 38.1896 470.101 37.7706C470.3 37.3516 470.572 37.0308 470.917 36.8082C471.263 36.5857 471.655 36.4744 472.093 36.4744C472.431 36.4744 472.704 36.5312 472.91 36.6449C473.118 36.7562 473.279 36.8864 473.393 37.0355C473.509 37.1847 473.599 37.3161 473.662 37.4297H473.726V34.7273H474.788V42H473.751V41.1513H473.662C473.599 41.2673 473.506 41.3999 473.385 41.549C473.267 41.6982 473.104 41.8284 472.895 41.9396C472.687 42.0509 472.417 42.1065 472.086 42.1065ZM472.32 41.201C472.626 41.201 472.884 41.1205 473.094 40.9595C473.307 40.7962 473.468 40.5701 473.577 40.2812C473.689 39.9924 473.744 39.6562 473.744 39.2727C473.744 38.8939 473.69 38.5625 473.581 38.2784C473.472 37.9943 473.312 37.773 473.101 37.6143C472.891 37.4557 472.63 37.3764 472.32 37.3764C472.001 37.3764 471.734 37.4593 471.521 37.625C471.308 37.7907 471.147 38.0168 471.038 38.3033C470.932 38.5897 470.878 38.9129 470.878 39.2727C470.878 39.6373 470.933 39.9652 471.042 40.2564C471.151 40.5476 471.312 40.7784 471.525 40.9489C471.74 41.117 472.005 41.201 472.32 41.201ZM478.601 42.1101C478.09 42.1101 477.644 41.9929 477.262 41.7585C476.881 41.5241 476.585 41.1963 476.375 40.7749C476.164 40.3535 476.059 39.861 476.059 39.2976C476.059 38.7318 476.164 38.237 476.375 37.8132C476.585 37.3894 476.881 37.0604 477.262 36.826C477.644 36.5916 478.09 36.4744 478.601 36.4744C479.113 36.4744 479.559 36.5916 479.94 36.826C480.321 37.0604 480.617 37.3894 480.828 37.8132C481.038 38.237 481.144 38.7318 481.144 39.2976C481.144 39.861 481.038 40.3535 480.828 40.7749C480.617 41.1963 480.321 41.5241 479.94 41.7585C479.559 41.9929 479.113 42.1101 478.601 42.1101ZM478.605 41.2188C478.936 41.2188 479.211 41.1312 479.429 40.956C479.646 40.7808 479.807 40.5476 479.912 40.2564C480.018 39.9652 480.071 39.6444 480.071 39.294C480.071 38.946 480.018 38.6264 479.912 38.3352C479.807 38.0417 479.646 37.8061 479.429 37.6286C479.211 37.451 478.936 37.3622 478.605 37.3622C478.271 37.3622 477.994 37.451 477.774 37.6286C477.556 37.8061 477.394 38.0417 477.287 38.3352C477.183 38.6264 477.131 38.946 477.131 39.294C477.131 39.6444 477.183 39.9652 477.287 40.2564C477.394 40.5476 477.556 40.7808 477.774 40.956C477.994 41.1312 478.271 41.2188 478.605 41.2188ZM483.346 42L481.74 36.5455H482.838L483.907 40.5511H483.96L485.032 36.5455H486.13L487.195 40.5334H487.248L488.31 36.5455H489.407L487.806 42H486.723L485.615 38.0618H485.533L484.425 42H483.346ZM491.477 38.7614V42H490.415V36.5455H491.434V37.4332H491.502C491.627 37.1444 491.824 36.9124 492.091 36.7372C492.361 36.562 492.701 36.4744 493.11 36.4744C493.482 36.4744 493.807 36.5526 494.087 36.7088C494.366 36.8627 494.583 37.0923 494.737 37.3977C494.891 37.7031 494.968 38.0807 494.968 38.5305V42H493.906V38.6584C493.906 38.263 493.803 37.9541 493.597 37.7315C493.391 37.5066 493.108 37.3942 492.748 37.3942C492.502 37.3942 492.283 37.4474 492.091 37.554C491.902 37.6605 491.751 37.8168 491.64 38.0227C491.531 38.2263 491.477 38.4725 491.477 38.7614ZM501.584 36.5455V37.3977H498.605V36.5455H501.584ZM499.404 35.2386H500.466V40.3984C500.466 40.6044 500.496 40.7595 500.558 40.8636C500.619 40.9654 500.699 41.0353 500.796 41.0732C500.895 41.1087 501.003 41.1264 501.119 41.1264C501.204 41.1264 501.279 41.1205 501.343 41.1087C501.407 41.0968 501.456 41.0874 501.492 41.0803L501.684 41.9574C501.622 41.9811 501.534 42.0047 501.421 42.0284C501.307 42.0545 501.165 42.0687 500.995 42.071C500.715 42.0758 500.455 42.026 500.213 41.9219C499.972 41.8177 499.777 41.6567 499.627 41.4389C499.478 41.2211 499.404 40.9477 499.404 40.6186V35.2386ZM504.998 42.1101C504.486 42.1101 504.04 41.9929 503.659 41.7585C503.278 41.5241 502.982 41.1963 502.771 40.7749C502.56 40.3535 502.455 39.861 502.455 39.2976C502.455 38.7318 502.56 38.237 502.771 37.8132C502.982 37.3894 503.278 37.0604 503.659 36.826C504.04 36.5916 504.486 36.4744 504.998 36.4744C505.509 36.4744 505.955 36.5916 506.336 36.826C506.718 37.0604 507.014 37.3894 507.224 37.8132C507.435 38.237 507.54 38.7318 507.54 39.2976C507.54 39.861 507.435 40.3535 507.224 40.7749C507.014 41.1963 506.718 41.5241 506.336 41.7585C505.955 41.9929 505.509 42.1101 504.998 42.1101ZM505.001 41.2188C505.333 41.2188 505.607 41.1312 505.825 40.956C506.043 40.7808 506.204 40.5476 506.308 40.2564C506.415 39.9652 506.468 39.6444 506.468 39.294C506.468 38.946 506.415 38.6264 506.308 38.3352C506.204 38.0417 506.043 37.8061 505.825 37.6286C505.607 37.451 505.333 37.3622 505.001 37.3622C504.667 37.3622 504.39 37.451 504.17 37.6286C503.952 37.8061 503.79 38.0417 503.684 38.3352C503.58 38.6264 503.528 38.946 503.528 39.294C503.528 39.6444 503.58 39.9652 503.684 40.2564C503.79 40.5476 503.952 40.7808 504.17 40.956C504.39 41.1312 504.667 41.2188 505.001 41.2188ZM511.372 42V36.5455H512.398V37.4119H512.455C512.555 37.1184 512.73 36.8875 512.981 36.7195C513.234 36.549 513.52 36.4638 513.84 36.4638C513.906 36.4638 513.984 36.4661 514.074 36.4709C514.167 36.4756 514.239 36.4815 514.291 36.4886V37.5043C514.248 37.4924 514.173 37.4794 514.064 37.4652C513.955 37.4486 513.846 37.4403 513.737 37.4403C513.486 37.4403 513.262 37.4936 513.066 37.6001C512.872 37.7043 512.718 37.8499 512.604 38.0369C512.491 38.2216 512.434 38.4323 512.434 38.669V42H511.372ZM517.365 42.1101C516.828 42.1101 516.365 41.9953 515.977 41.7656C515.591 41.5336 515.293 41.2081 515.082 40.7891C514.874 40.3677 514.77 39.8741 514.77 39.3082C514.77 38.7495 514.874 38.2571 515.082 37.831C515.293 37.4048 515.586 37.0722 515.963 36.8331C516.342 36.594 516.784 36.4744 517.291 36.4744C517.599 36.4744 517.897 36.5253 518.186 36.6271C518.475 36.7289 518.734 36.8887 518.963 37.1065C519.193 37.3243 519.374 37.6072 519.507 37.9553C519.639 38.3009 519.706 38.7211 519.706 39.2159V39.5923H515.37V38.7969H518.665C518.665 38.5175 518.608 38.2701 518.495 38.0547C518.381 37.8369 518.221 37.6652 518.015 37.5398C517.812 37.4143 517.573 37.3516 517.298 37.3516C517 37.3516 516.739 37.425 516.517 37.5717C516.297 37.7161 516.126 37.9055 516.005 38.1399C515.887 38.3719 515.828 38.6241 515.828 38.8963V39.5178C515.828 39.8823 515.892 40.1925 516.02 40.4482C516.15 40.7038 516.331 40.8991 516.563 41.0341C516.795 41.1667 517.066 41.233 517.376 41.233C517.577 41.233 517.761 41.2045 517.926 41.1477C518.092 41.0885 518.235 41.0009 518.356 40.8849C518.477 40.7689 518.569 40.6257 518.633 40.4553L519.638 40.6364C519.558 40.9323 519.413 41.1915 519.205 41.4141C518.999 41.6342 518.74 41.8059 518.427 41.929C518.117 42.0497 517.763 42.1101 517.365 42.1101ZM522.471 42.1207C522.125 42.1207 521.813 42.0568 521.534 41.929C521.254 41.7988 521.033 41.6106 520.869 41.3643C520.709 41.1181 520.628 40.8163 520.628 40.4588C520.628 40.151 520.687 39.8977 520.806 39.6989C520.924 39.5 521.084 39.3426 521.285 39.2266C521.486 39.1106 521.711 39.023 521.96 38.9638C522.208 38.9046 522.462 38.8596 522.72 38.8288C523.046 38.791 523.311 38.7602 523.515 38.7365C523.719 38.7105 523.867 38.669 523.959 38.6122C524.051 38.5554 524.097 38.4631 524.097 38.3352V38.3104C524.097 38.0002 524.01 37.7599 523.835 37.5895C523.662 37.419 523.404 37.3338 523.061 37.3338C522.703 37.3338 522.421 37.4131 522.215 37.5717C522.012 37.728 521.871 37.902 521.793 38.0938L520.795 37.8665C520.913 37.535 521.086 37.2675 521.313 37.0639C521.543 36.858 521.807 36.7088 522.105 36.6165C522.404 36.5218 522.717 36.4744 523.046 36.4744C523.264 36.4744 523.495 36.5005 523.739 36.5526C523.985 36.6023 524.215 36.6946 524.428 36.8295C524.643 36.9645 524.82 37.1574 524.957 37.4084C525.094 37.657 525.163 37.9801 525.163 38.3778V42H524.126V41.2543H524.083C524.015 41.3916 523.912 41.5265 523.774 41.6591C523.637 41.7917 523.461 41.9018 523.245 41.9893C523.03 42.0769 522.772 42.1207 522.471 42.1207ZM522.702 41.2685C522.995 41.2685 523.246 41.2105 523.455 41.0945C523.665 40.9785 523.825 40.8269 523.934 40.6399C524.045 40.4505 524.101 40.2481 524.101 40.0327V39.3295C524.063 39.3674 523.99 39.4029 523.881 39.4361C523.774 39.4669 523.652 39.4941 523.515 39.5178C523.378 39.5391 523.244 39.5592 523.114 39.5781C522.984 39.5947 522.875 39.6089 522.787 39.6207C522.581 39.6468 522.393 39.6906 522.222 39.7521C522.054 39.8137 521.919 39.9025 521.818 40.0185C521.718 40.1321 521.669 40.2836 521.669 40.473C521.669 40.7358 521.766 40.9347 521.96 41.0696C522.154 41.2022 522.401 41.2685 522.702 41.2685ZM528.619 42.1065C528.179 42.1065 527.786 41.9941 527.44 41.7692C527.097 41.5419 526.827 41.2187 526.63 40.7997C526.436 40.3783 526.339 39.8729 526.339 39.2834C526.339 38.6939 526.437 38.1896 526.634 37.7706C526.833 37.3516 527.105 37.0308 527.451 36.8082C527.796 36.5857 528.188 36.4744 528.626 36.4744C528.965 36.4744 529.237 36.5312 529.443 36.6449C529.651 36.7562 529.812 36.8864 529.926 37.0355C530.042 37.1847 530.132 37.3161 530.196 37.4297H530.26V34.7273H531.321V42H530.284V41.1513H530.196C530.132 41.2673 530.039 41.3999 529.919 41.549C529.8 41.6982 529.637 41.8284 529.429 41.9396C529.22 42.0509 528.95 42.1065 528.619 42.1065ZM528.853 41.201C529.159 41.201 529.417 41.1205 529.627 40.9595C529.841 40.7962 530.002 40.5701 530.11 40.2812C530.222 39.9924 530.277 39.6562 530.277 39.2727C530.277 38.8939 530.223 38.5625 530.114 38.2784C530.005 37.9943 529.845 37.773 529.635 37.6143C529.424 37.4557 529.163 37.3764 528.853 37.3764C528.534 37.3764 528.267 37.4593 528.054 37.625C527.841 37.7907 527.68 38.0168 527.571 38.3033C527.465 38.5897 527.412 38.9129 527.412 39.2727C527.412 39.6373 527.466 39.9652 527.575 40.2564C527.684 40.5476 527.845 40.7784 528.058 40.9489C528.273 41.117 528.538 41.201 528.853 41.201ZM539.571 37.8771L538.608 38.0476C538.568 37.9245 538.504 37.8073 538.417 37.696C538.331 37.5848 538.215 37.4936 538.069 37.4226C537.922 37.3516 537.738 37.3161 537.518 37.3161C537.217 37.3161 536.967 37.3835 536.765 37.5185C536.564 37.651 536.463 37.8227 536.463 38.0334C536.463 38.2157 536.531 38.3625 536.666 38.4737C536.801 38.585 537.019 38.6761 537.319 38.7472L538.186 38.946C538.688 39.062 539.062 39.2408 539.308 39.4822C539.554 39.7237 539.677 40.0374 539.677 40.4233C539.677 40.75 539.583 41.0412 539.393 41.2969C539.206 41.5502 538.944 41.7491 538.608 41.8935C538.275 42.0379 537.887 42.1101 537.447 42.1101C536.836 42.1101 536.338 41.9799 535.952 41.7195C535.566 41.4567 535.329 41.0838 535.242 40.6009L536.268 40.4446C536.332 40.7121 536.463 40.9145 536.662 41.0518C536.861 41.1868 537.12 41.2543 537.44 41.2543C537.788 41.2543 538.066 41.1821 538.275 41.0376C538.483 40.8909 538.587 40.7121 538.587 40.5014C538.587 40.331 538.523 40.1877 538.395 40.0717C538.27 39.9557 538.077 39.8681 537.816 39.8089L536.893 39.6065C536.384 39.4905 536.008 39.3059 535.764 39.0526C535.522 38.7992 535.402 38.4785 535.402 38.0902C535.402 37.7682 535.492 37.4865 535.672 37.245C535.851 37.0036 536.1 36.8153 536.417 36.6804C536.734 36.5431 537.098 36.4744 537.507 36.4744C538.097 36.4744 538.561 36.6023 538.9 36.858C539.238 37.1113 539.462 37.451 539.571 37.8771ZM543.142 42.1101C542.631 42.1101 542.185 41.9929 541.803 41.7585C541.422 41.5241 541.126 41.1963 540.916 40.7749C540.705 40.3535 540.6 39.861 540.6 39.2976C540.6 38.7318 540.705 38.237 540.916 37.8132C541.126 37.3894 541.422 37.0604 541.803 36.826C542.185 36.5916 542.631 36.4744 543.142 36.4744C543.654 36.4744 544.1 36.5916 544.481 36.826C544.862 37.0604 545.158 37.3894 545.369 37.8132C545.579 38.237 545.685 38.7318 545.685 39.2976C545.685 39.861 545.579 40.3535 545.369 40.7749C545.158 41.1963 544.862 41.5241 544.481 41.7585C544.1 41.9929 543.654 42.1101 543.142 42.1101ZM543.146 41.2188C543.477 41.2188 543.752 41.1312 543.97 40.956C544.187 40.7808 544.348 40.5476 544.453 40.2564C544.559 39.9652 544.612 39.6444 544.612 39.294C544.612 38.946 544.559 38.6264 544.453 38.3352C544.348 38.0417 544.187 37.8061 543.97 37.6286C543.752 37.451 543.477 37.3622 543.146 37.3622C542.812 37.3622 542.535 37.451 542.315 37.6286C542.097 37.8061 541.935 38.0417 541.828 38.3352C541.724 38.6264 541.672 38.946 541.672 39.294C541.672 39.6444 541.724 39.9652 541.828 40.2564C541.935 40.5476 542.097 40.7808 542.315 40.956C542.535 41.1312 542.812 41.2188 543.146 41.2188ZM546.87 42V36.5455H547.889V37.4332H547.957C548.07 37.1326 548.256 36.8982 548.514 36.7301C548.772 36.5597 549.081 36.4744 549.441 36.4744C549.806 36.4744 550.111 36.5597 550.357 36.7301C550.606 36.9006 550.789 37.1349 550.908 37.4332H550.964C551.095 37.142 551.302 36.91 551.586 36.7372C551.87 36.562 552.209 36.4744 552.602 36.4744C553.096 36.4744 553.5 36.6295 553.812 36.9396C554.127 37.2498 554.285 37.7173 554.285 38.3423V42H553.223V38.4418C553.223 38.0724 553.122 37.8049 552.921 37.6392C552.72 37.4735 552.48 37.3906 552.2 37.3906C551.855 37.3906 551.586 37.4972 551.394 37.7102C551.202 37.9209 551.107 38.192 551.107 38.5234V42H550.048V38.3743C550.048 38.0784 549.956 37.8404 549.771 37.6605C549.587 37.4806 549.346 37.3906 549.05 37.3906C548.849 37.3906 548.663 37.4439 548.493 37.5504C548.325 37.6546 548.189 37.8002 548.085 37.9872C547.983 38.1742 547.932 38.3909 547.932 38.6371V42H546.87ZM558.059 42.1101C557.521 42.1101 557.059 41.9953 556.67 41.7656C556.284 41.5336 555.986 41.2081 555.775 40.7891C555.567 40.3677 555.463 39.8741 555.463 39.3082C555.463 38.7495 555.567 38.2571 555.775 37.831C555.986 37.4048 556.28 37.0722 556.656 36.8331C557.035 36.594 557.478 36.4744 557.984 36.4744C558.292 36.4744 558.59 36.5253 558.879 36.6271C559.168 36.7289 559.427 36.8887 559.657 37.1065C559.886 37.3243 560.068 37.6072 560.2 37.9553C560.333 38.3009 560.399 38.7211 560.399 39.2159V39.5923H556.063V38.7969H559.358C559.358 38.5175 559.302 38.2701 559.188 38.0547C559.074 37.8369 558.915 37.6652 558.709 37.5398C558.505 37.4143 558.266 37.3516 557.991 37.3516C557.693 37.3516 557.433 37.425 557.21 37.5717C556.99 37.7161 556.819 37.9055 556.699 38.1399C556.58 38.3719 556.521 38.6241 556.521 38.8963V39.5178C556.521 39.8823 556.585 40.1925 556.713 40.4482C556.843 40.7038 557.024 40.8991 557.256 41.0341C557.488 41.1667 557.759 41.233 558.069 41.233C558.271 41.233 558.454 41.2045 558.62 41.1477C558.786 41.0885 558.929 41.0009 559.05 40.8849C559.17 40.7689 559.263 40.6257 559.327 40.4553L560.331 40.6364C560.251 40.9323 560.107 41.1915 559.898 41.4141C559.692 41.6342 559.433 41.8059 559.121 41.929C558.81 42.0497 558.456 42.1101 558.059 42.1101ZM564.224 36.5455H565.285V42.3551C565.285 42.7197 565.219 43.0275 565.086 43.2784C564.956 43.5294 564.762 43.7199 564.504 43.8501C564.248 43.9804 563.932 44.0455 563.556 44.0455C563.518 44.0455 563.483 44.0455 563.449 44.0455C563.414 44.0455 563.377 44.0443 563.339 44.0419V43.1293C563.372 43.1293 563.402 43.1293 563.428 43.1293C563.452 43.1293 563.479 43.1293 563.51 43.1293C563.761 43.1293 563.942 43.0618 564.053 42.9268C564.167 42.7943 564.224 42.6013 564.224 42.348V36.5455ZM564.749 35.7038C564.564 35.7038 564.406 35.6423 564.273 35.5192C564.143 35.3937 564.078 35.2446 564.078 35.0717C564.078 34.8965 564.143 34.7474 564.273 34.6243C564.406 34.4988 564.564 34.4361 564.749 34.4361C564.934 34.4361 565.091 34.4988 565.221 34.6243C565.354 34.7474 565.42 34.8965 565.42 35.0717C565.42 35.2446 565.354 35.3937 565.221 35.5192C565.091 35.6423 564.934 35.7038 564.749 35.7038ZM570.169 39.7379V36.5455H571.234V42H570.19V41.0554H570.134C570.008 41.3466 569.807 41.5893 569.53 41.7834C569.255 41.9751 568.913 42.071 568.504 42.071C568.153 42.071 567.843 41.9941 567.573 41.8402C567.306 41.6839 567.095 41.4531 566.941 41.1477C566.79 40.8423 566.714 40.4647 566.714 40.0149V36.5455H567.776V39.8871C567.776 40.2588 567.879 40.5547 568.085 40.7749C568.29 40.995 568.558 41.1051 568.887 41.1051C569.086 41.1051 569.284 41.0554 569.48 40.956C569.679 40.8565 569.844 40.7062 569.974 40.505C570.106 40.3037 570.171 40.0481 570.169 39.7379ZM572.661 42V36.5455H573.723V42H572.661ZM573.197 35.7038C573.013 35.7038 572.854 35.6423 572.721 35.5192C572.591 35.3937 572.526 35.2446 572.526 35.0717C572.526 34.8965 572.591 34.7474 572.721 34.6243C572.854 34.4988 573.013 34.4361 573.197 34.4361C573.382 34.4361 573.539 34.4988 573.67 34.6243C573.802 34.7474 573.868 34.8965 573.868 35.0717C573.868 35.2446 573.802 35.3937 573.67 35.5192C573.539 35.6423 573.382 35.7038 573.197 35.7038ZM577.449 42.1101C576.921 42.1101 576.466 41.9905 576.085 41.7514C575.706 41.5099 575.415 41.1773 575.212 40.7536C575.008 40.3298 574.906 39.8445 574.906 39.2976C574.906 38.7436 575.01 38.2547 575.219 37.831C575.427 37.4048 575.721 37.0722 576.099 36.8331C576.478 36.594 576.924 36.4744 577.438 36.4744C577.853 36.4744 578.222 36.5514 578.546 36.7053C578.871 36.8568 579.132 37.0698 579.331 37.3445C579.532 37.6191 579.652 37.9399 579.69 38.3068H578.656C578.599 38.0511 578.469 37.831 578.266 37.6463C578.064 37.4616 577.795 37.3693 577.456 37.3693C577.16 37.3693 576.901 37.4474 576.678 37.6037C576.458 37.7576 576.286 37.9777 576.163 38.2642C576.04 38.5483 575.979 38.8845 575.979 39.2727C575.979 39.6705 576.039 40.0137 576.16 40.3026C576.281 40.5914 576.451 40.8151 576.671 40.9737C576.894 41.1323 577.155 41.2116 577.456 41.2116C577.657 41.2116 577.839 41.175 578.003 41.1016C578.169 41.0258 578.307 40.9181 578.418 40.7784C578.532 40.6387 578.611 40.4706 578.656 40.2741H579.69C579.652 40.6269 579.537 40.9418 579.345 41.2188C579.153 41.4957 578.897 41.7135 578.575 41.8722C578.255 42.0308 577.88 42.1101 577.449 42.1101ZM581.496 44.0455C581.338 44.0455 581.193 44.0324 581.063 44.0064C580.933 43.9827 580.836 43.9567 580.772 43.9283L581.028 43.0582C581.222 43.1103 581.394 43.1328 581.546 43.1257C581.698 43.1186 581.831 43.0618 581.947 42.9553C582.066 42.8487 582.17 42.6747 582.26 42.4332L582.391 42.071L580.395 36.5455H581.532L582.913 40.7784H582.97L584.351 36.5455H585.491L583.243 42.728C583.139 43.0121 583.007 43.2524 582.846 43.4489C582.685 43.6477 582.493 43.7969 582.27 43.8963C582.048 43.9957 581.79 44.0455 581.496 44.0455ZM591.433 42.1101C590.905 42.1101 590.451 41.9905 590.07 41.7514C589.691 41.5099 589.4 41.1773 589.196 40.7536C588.992 40.3298 588.891 39.8445 588.891 39.2976C588.891 38.7436 588.995 38.2547 589.203 37.831C589.411 37.4048 589.705 37.0722 590.084 36.8331C590.463 36.594 590.909 36.4744 591.423 36.4744C591.837 36.4744 592.206 36.5514 592.531 36.7053C592.855 36.8568 593.116 37.0698 593.315 37.3445C593.517 37.6191 593.636 37.9399 593.674 38.3068H592.641C592.584 38.0511 592.454 37.831 592.25 37.6463C592.049 37.4616 591.779 37.3693 591.44 37.3693C591.144 37.3693 590.885 37.4474 590.663 37.6037C590.442 37.7576 590.271 37.9777 590.148 38.2642C590.025 38.5483 589.963 38.8845 589.963 39.2727C589.963 39.6705 590.023 40.0137 590.144 40.3026C590.265 40.5914 590.435 40.8151 590.656 40.9737C590.878 41.1323 591.14 41.2116 591.44 41.2116C591.642 41.2116 591.824 41.175 591.987 41.1016C592.153 41.0258 592.291 40.9181 592.403 40.7784C592.516 40.6387 592.596 40.4706 592.641 40.2741H593.674C593.636 40.6269 593.521 40.9418 593.33 41.2188C593.138 41.4957 592.881 41.7135 592.559 41.8722C592.239 42.0308 591.864 42.1101 591.433 42.1101ZM596.397 42.1207C596.051 42.1207 595.739 42.0568 595.459 41.929C595.18 41.7988 594.959 41.6106 594.795 41.3643C594.634 41.1181 594.554 40.8163 594.554 40.4588C594.554 40.151 594.613 39.8977 594.731 39.6989C594.85 39.5 595.01 39.3426 595.211 39.2266C595.412 39.1106 595.637 39.023 595.885 38.9638C596.134 38.9046 596.387 38.8596 596.645 38.8288C596.972 38.791 597.237 38.7602 597.441 38.7365C597.644 38.7105 597.792 38.669 597.885 38.6122C597.977 38.5554 598.023 38.4631 598.023 38.3352V38.3104C598.023 38.0002 597.936 37.7599 597.76 37.5895C597.588 37.419 597.33 37.3338 596.986 37.3338C596.629 37.3338 596.347 37.4131 596.141 37.5717C595.938 37.728 595.797 37.902 595.719 38.0938L594.721 37.8665C594.839 37.535 595.012 37.2675 595.239 37.0639C595.469 36.858 595.733 36.7088 596.031 36.6165C596.329 36.5218 596.643 36.4744 596.972 36.4744C597.19 36.4744 597.421 36.5005 597.665 36.5526C597.911 36.6023 598.14 36.6946 598.354 36.8295C598.569 36.9645 598.745 37.1574 598.883 37.4084C599.02 37.657 599.089 37.9801 599.089 38.3778V42H598.052V41.2543H598.009C597.94 41.3916 597.837 41.5265 597.7 41.6591C597.563 41.7917 597.386 41.9018 597.171 41.9893C596.956 42.0769 596.698 42.1207 596.397 42.1207ZM596.628 41.2685C596.921 41.2685 597.172 41.2105 597.381 41.0945C597.591 40.9785 597.751 40.8269 597.86 40.6399C597.971 40.4505 598.027 40.2481 598.027 40.0327V39.3295C597.989 39.3674 597.916 39.4029 597.807 39.4361C597.7 39.4669 597.578 39.4941 597.441 39.5178C597.304 39.5391 597.17 39.5592 597.04 39.5781C596.909 39.5947 596.8 39.6089 596.713 39.6207C596.507 39.6468 596.319 39.6906 596.148 39.7521C595.98 39.8137 595.845 39.9025 595.743 40.0185C595.644 40.1321 595.594 40.2836 595.594 40.473C595.594 40.7358 595.691 40.9347 595.885 41.0696C596.08 41.2022 596.327 41.2685 596.628 41.2685ZM604.59 37.8771L603.628 38.0476C603.588 37.9245 603.524 37.8073 603.436 37.696C603.351 37.5848 603.235 37.4936 603.088 37.4226C602.941 37.3516 602.758 37.3161 602.538 37.3161C602.237 37.3161 601.986 37.3835 601.785 37.5185C601.584 37.651 601.483 37.8227 601.483 38.0334C601.483 38.2157 601.55 38.3625 601.685 38.4737C601.82 38.585 602.038 38.6761 602.339 38.7472L603.205 38.946C603.707 39.062 604.081 39.2408 604.327 39.4822C604.574 39.7237 604.697 40.0374 604.697 40.4233C604.697 40.75 604.602 41.0412 604.413 41.2969C604.226 41.5502 603.964 41.7491 603.628 41.8935C603.294 42.0379 602.907 42.1101 602.467 42.1101C601.856 42.1101 601.357 41.9799 600.972 41.7195C600.586 41.4567 600.349 41.0838 600.261 40.6009L601.288 40.4446C601.352 40.7121 601.483 40.9145 601.682 41.0518C601.881 41.1868 602.14 41.2543 602.46 41.2543C602.808 41.2543 603.086 41.1821 603.294 41.0376C603.502 40.8909 603.607 40.7121 603.607 40.5014C603.607 40.331 603.543 40.1877 603.415 40.0717C603.289 39.9557 603.096 39.8681 602.836 39.8089L601.913 39.6065C601.404 39.4905 601.027 39.3059 600.783 39.0526C600.542 38.7992 600.421 38.4785 600.421 38.0902C600.421 37.7682 600.511 37.4865 600.691 37.245C600.871 37.0036 601.12 36.8153 601.437 36.6804C601.754 36.5431 602.117 36.4744 602.527 36.4744C603.116 36.4744 603.58 36.6023 603.919 36.858C604.258 37.1113 604.481 37.451 604.59 37.8771ZM608.215 42.1101C607.678 42.1101 607.215 41.9953 606.827 41.7656C606.441 41.5336 606.142 41.2081 605.932 40.7891C605.723 40.3677 605.619 39.8741 605.619 39.3082C605.619 38.7495 605.723 38.2571 605.932 37.831C606.142 37.4048 606.436 37.0722 606.812 36.8331C607.191 36.594 607.634 36.4744 608.14 36.4744C608.448 36.4744 608.747 36.5253 609.035 36.6271C609.324 36.7289 609.583 36.8887 609.813 37.1065C610.043 37.3243 610.224 37.6072 610.356 37.9553C610.489 38.3009 610.555 38.7211 610.555 39.2159V39.5923H606.219V38.7969H609.515C609.515 38.5175 609.458 38.2701 609.344 38.0547C609.231 37.8369 609.071 37.6652 608.865 37.5398C608.661 37.4143 608.422 37.3516 608.148 37.3516C607.849 37.3516 607.589 37.425 607.366 37.5717C607.146 37.7161 606.976 37.9055 606.855 38.1399C606.737 38.3719 606.677 38.6241 606.677 38.8963V39.5178C606.677 39.8823 606.741 40.1925 606.869 40.4482C606.999 40.7038 607.18 40.8991 607.412 41.0341C607.644 41.1667 607.916 41.233 608.226 41.233C608.427 41.233 608.61 41.2045 608.776 41.1477C608.942 41.0885 609.085 41.0009 609.206 40.8849C609.327 40.7689 609.419 40.6257 609.483 40.4553L610.488 40.6364C610.407 40.9323 610.263 41.1915 610.055 41.4141C609.849 41.6342 609.589 41.8059 609.277 41.929C608.967 42.0497 608.613 42.1101 608.215 42.1101ZM445.801 53.8771L444.839 54.0476C444.799 53.9245 444.735 53.8073 444.647 53.696C444.562 53.5848 444.446 53.4936 444.299 53.4226C444.152 53.3516 443.969 53.3161 443.749 53.3161C443.448 53.3161 443.197 53.3835 442.996 53.5185C442.795 53.651 442.694 53.8227 442.694 54.0334C442.694 54.2157 442.761 54.3625 442.896 54.4737C443.031 54.585 443.249 54.6761 443.55 54.7472L444.416 54.946C444.918 55.062 445.292 55.2408 445.538 55.4822C445.785 55.7237 445.908 56.0374 445.908 56.4233C445.908 56.75 445.813 57.0412 445.624 57.2969C445.437 57.5502 445.175 57.7491 444.839 57.8935C444.505 58.0379 444.118 58.1101 443.678 58.1101C443.067 58.1101 442.568 57.9799 442.183 57.7195C441.797 57.4567 441.56 57.0838 441.472 56.6009L442.499 56.4446C442.563 56.7121 442.694 56.9145 442.893 57.0518C443.092 57.1868 443.351 57.2543 443.67 57.2543C444.018 57.2543 444.297 57.1821 444.505 57.0376C444.713 56.8909 444.817 56.7121 444.817 56.5014C444.817 56.331 444.754 56.1877 444.626 56.0717C444.5 55.9557 444.307 55.8681 444.047 55.8089L443.124 55.6065C442.615 55.4905 442.238 55.3059 441.994 55.0526C441.753 54.7992 441.632 54.4785 441.632 54.0902C441.632 53.7682 441.722 53.4865 441.902 53.245C442.082 53.0036 442.33 52.8153 442.648 52.6804C442.965 52.5431 443.328 52.4744 443.738 52.4744C444.327 52.4744 444.791 52.6023 445.13 52.858C445.469 53.1113 445.692 53.451 445.801 53.8771ZM449.621 52.5455V53.3977H446.642V52.5455H449.621ZM447.441 51.2386H448.503V56.3984C448.503 56.6044 448.533 56.7595 448.595 56.8636C448.657 56.9654 448.736 57.0353 448.833 57.0732C448.932 57.1087 449.04 57.1264 449.156 57.1264C449.241 57.1264 449.316 57.1205 449.38 57.1087C449.444 57.0968 449.493 57.0874 449.529 57.0803L449.721 57.9574C449.659 57.9811 449.572 58.0047 449.458 58.0284C449.344 58.0545 449.202 58.0687 449.032 58.071C448.752 58.0758 448.492 58.026 448.251 57.9219C448.009 57.8177 447.814 57.6567 447.665 57.4389C447.515 57.2211 447.441 56.9477 447.441 56.6186V51.2386ZM454.251 55.7379V52.5455H455.316V58H454.272V57.0554H454.216C454.09 57.3466 453.889 57.5893 453.612 57.7834C453.337 57.9751 452.995 58.071 452.586 58.071C452.235 58.071 451.925 57.9941 451.655 57.8402C451.388 57.6839 451.177 57.4531 451.023 57.1477C450.872 56.8423 450.796 56.4647 450.796 56.0149V52.5455H451.858V55.8871C451.858 56.2588 451.961 56.5547 452.167 56.7749C452.373 56.995 452.64 57.1051 452.969 57.1051C453.168 57.1051 453.366 57.0554 453.562 56.956C453.761 56.8565 453.926 56.7062 454.056 56.505C454.188 56.3037 454.253 56.0481 454.251 55.7379ZM458.785 58.1065C458.345 58.1065 457.952 57.9941 457.606 57.7692C457.263 57.5419 456.993 57.2187 456.796 56.7997C456.602 56.3783 456.505 55.8729 456.505 55.2834C456.505 54.6939 456.603 54.1896 456.8 53.7706C456.999 53.3516 457.271 53.0308 457.617 52.8082C457.962 52.5857 458.354 52.4744 458.792 52.4744C459.131 52.4744 459.403 52.5312 459.609 52.6449C459.817 52.7562 459.978 52.8864 460.092 53.0355C460.208 53.1847 460.298 53.3161 460.362 53.4297H460.426V50.7273H461.487V58H460.45V57.1513H460.362C460.298 57.2673 460.205 57.3999 460.085 57.549C459.966 57.6982 459.803 57.8284 459.595 57.9396C459.386 58.0509 459.116 58.1065 458.785 58.1065ZM459.019 57.201C459.325 57.201 459.583 57.1205 459.794 56.9595C460.007 56.7962 460.168 56.5701 460.276 56.2812C460.388 55.9924 460.443 55.6562 460.443 55.2727C460.443 54.8939 460.389 54.5625 460.28 54.2784C460.171 53.9943 460.011 53.773 459.801 53.6143C459.59 53.4557 459.329 53.3764 459.019 53.3764C458.7 53.3764 458.433 53.4593 458.22 53.625C458.007 53.7907 457.846 54.0168 457.737 54.3033C457.631 54.5897 457.578 54.9129 457.578 55.2727C457.578 55.6373 457.632 55.9652 457.741 56.2564C457.85 56.5476 458.011 56.7784 458.224 56.9489C458.439 57.117 458.704 57.201 459.019 57.201ZM463.003 58V52.5455H464.065V58H463.003ZM463.539 51.7038C463.354 51.7038 463.196 51.6423 463.063 51.5192C462.933 51.3937 462.868 51.2446 462.868 51.0717C462.868 50.8965 462.933 50.7474 463.063 50.6243C463.196 50.4988 463.354 50.4361 463.539 50.4361C463.724 50.4361 463.881 50.4988 464.011 50.6243C464.144 50.7474 464.21 50.8965 464.21 51.0717C464.21 51.2446 464.144 51.3937 464.011 51.5192C463.881 51.6423 463.724 51.7038 463.539 51.7038ZM467.844 58.1101C467.307 58.1101 466.844 57.9953 466.455 57.7656C466.07 57.5336 465.771 57.2081 465.561 56.7891C465.352 56.3677 465.248 55.8741 465.248 55.3082C465.248 54.7495 465.352 54.2571 465.561 53.831C465.771 53.4048 466.065 53.0722 466.441 52.8331C466.82 52.594 467.263 52.4744 467.769 52.4744C468.077 52.4744 468.375 52.5253 468.664 52.6271C468.953 52.7289 469.212 52.8887 469.442 53.1065C469.672 53.3243 469.853 53.6072 469.985 53.9553C470.118 54.3009 470.184 54.7211 470.184 55.2159V55.5923H465.848V54.7969H469.144C469.144 54.5175 469.087 54.2701 468.973 54.0547C468.86 53.8369 468.7 53.6652 468.494 53.5398C468.29 53.4143 468.051 53.3516 467.776 53.3516C467.478 53.3516 467.218 53.425 466.995 53.5717C466.775 53.7161 466.605 53.9055 466.484 54.1399C466.365 54.3719 466.306 54.6241 466.306 54.8963V55.5178C466.306 55.8823 466.37 56.1925 466.498 56.4482C466.628 56.7038 466.809 56.8991 467.041 57.0341C467.273 57.1667 467.544 57.233 467.855 57.233C468.056 57.233 468.239 57.2045 468.405 57.1477C468.571 57.0885 468.714 57.0009 468.835 56.8849C468.955 56.7689 469.048 56.6257 469.112 56.4553L470.117 56.6364C470.036 56.9323 469.892 57.1915 469.683 57.4141C469.477 57.6342 469.218 57.8059 468.906 57.929C468.596 58.0497 468.242 58.1101 467.844 58.1101ZM475.45 53.8771L474.487 54.0476C474.447 53.9245 474.383 53.8073 474.295 53.696C474.21 53.5848 474.094 53.4936 473.947 53.4226C473.801 53.3516 473.617 53.3161 473.397 53.3161C473.096 53.3161 472.845 53.3835 472.644 53.5185C472.443 53.651 472.342 53.8227 472.342 54.0334C472.342 54.2157 472.41 54.3625 472.545 54.4737C472.68 54.585 472.897 54.6761 473.198 54.7472L474.065 54.946C474.567 55.062 474.941 55.2408 475.187 55.4822C475.433 55.7237 475.556 56.0374 475.556 56.4233C475.556 56.75 475.461 57.0412 475.272 57.2969C475.085 57.5502 474.823 57.7491 474.487 57.8935C474.153 58.0379 473.766 58.1101 473.326 58.1101C472.715 58.1101 472.217 57.9799 471.831 57.7195C471.445 57.4567 471.208 57.0838 471.121 56.6009L472.147 56.4446C472.211 56.7121 472.342 56.9145 472.541 57.0518C472.74 57.1868 472.999 57.2543 473.319 57.2543C473.667 57.2543 473.945 57.1821 474.153 57.0376C474.362 56.8909 474.466 56.7121 474.466 56.5014C474.466 56.331 474.402 56.1877 474.274 56.0717C474.149 55.9557 473.956 55.8681 473.695 55.8089L472.772 55.6065C472.263 55.4905 471.887 55.3059 471.643 55.0526C471.401 54.7992 471.281 54.4785 471.281 54.0902C471.281 53.7682 471.371 53.4865 471.55 53.245C471.73 53.0036 471.979 52.8153 472.296 52.6804C472.613 52.5431 472.977 52.4744 473.386 52.4744C473.976 52.4744 474.44 52.6023 474.778 52.858C475.117 53.1113 475.341 53.451 475.45 53.8771ZM479.679 54.9815C479.679 54.0914 479.796 53.2723 480.031 52.5241C480.265 51.776 480.607 51.0859 481.057 50.4538H482.03C481.855 50.6882 481.691 50.9759 481.54 51.3168C481.388 51.6577 481.256 52.0317 481.142 52.4389C481.028 52.8437 480.94 53.264 480.876 53.6996C480.812 54.1328 480.78 54.5601 480.78 54.9815C480.78 55.545 480.835 56.1155 480.947 56.6932C481.058 57.2708 481.208 57.8071 481.398 58.3018C481.587 58.7966 481.798 59.2003 482.03 59.5128H481.057C480.607 58.8807 480.265 58.1906 480.031 57.4425C479.796 56.6944 479.679 55.8741 479.679 54.9815ZM485.349 58.1101C484.838 58.1101 484.392 57.9929 484.01 57.7585C483.629 57.5241 483.333 57.1963 483.123 56.7749C482.912 56.3535 482.807 55.861 482.807 55.2976C482.807 54.7318 482.912 54.237 483.123 53.8132C483.333 53.3894 483.629 53.0604 484.01 52.826C484.392 52.5916 484.838 52.4744 485.349 52.4744C485.861 52.4744 486.307 52.5916 486.688 52.826C487.069 53.0604 487.365 53.3894 487.576 53.8132C487.787 54.237 487.892 54.7318 487.892 55.2976C487.892 55.861 487.787 56.3535 487.576 56.7749C487.365 57.1963 487.069 57.5241 486.688 57.7585C486.307 57.9929 485.861 58.1101 485.349 58.1101ZM485.353 57.2188C485.684 57.2188 485.959 57.1312 486.177 56.956C486.394 56.7808 486.555 56.5476 486.66 56.2564C486.766 55.9652 486.819 55.6444 486.819 55.294C486.819 54.946 486.766 54.6264 486.66 54.3352C486.555 54.0417 486.394 53.8061 486.177 53.6286C485.959 53.451 485.684 53.3622 485.353 53.3622C485.019 53.3622 484.742 53.451 484.522 53.6286C484.304 53.8061 484.142 54.0417 484.035 54.3352C483.931 54.6264 483.879 54.946 483.879 55.294C483.879 55.6444 483.931 55.9652 484.035 56.2564C484.142 56.5476 484.304 56.7808 484.522 56.956C484.742 57.1312 485.019 57.2188 485.353 57.2188ZM490.139 54.7614V58H489.077V52.5455H490.096V53.4332H490.164C490.289 53.1444 490.486 52.9124 490.753 52.7372C491.023 52.562 491.363 52.4744 491.772 52.4744C492.144 52.4744 492.47 52.5526 492.749 52.7088C493.028 52.8627 493.245 53.0923 493.399 53.3977C493.553 53.7031 493.63 54.0807 493.63 54.5305V58H492.568V54.6584C492.568 54.263 492.465 53.9541 492.259 53.7315C492.053 53.5066 491.77 53.3942 491.41 53.3942C491.164 53.3942 490.945 53.4474 490.753 53.554C490.564 53.6605 490.413 53.8168 490.302 54.0227C490.193 54.2263 490.139 54.4725 490.139 54.7614ZM496.115 50.7273V58H495.054V50.7273H496.115ZM498.215 60.0455C498.056 60.0455 497.912 60.0324 497.782 60.0064C497.652 59.9827 497.555 59.9567 497.491 59.9283L497.746 59.0582C497.94 59.1103 498.113 59.1328 498.265 59.1257C498.416 59.1186 498.55 59.0618 498.666 58.9553C498.784 58.8487 498.889 58.6747 498.979 58.4332L499.11 58.071L497.114 52.5455H498.251L499.632 56.7784H499.689L501.07 52.5455H502.21L499.962 58.728C499.858 59.0121 499.725 59.2524 499.564 59.4489C499.403 59.6477 499.212 59.7969 498.989 59.8963C498.767 59.9957 498.509 60.0455 498.215 60.0455ZM505.854 58V52.5455H506.916V58H505.854ZM506.391 51.7038C506.206 51.7038 506.047 51.6423 505.915 51.5192C505.785 51.3937 505.719 51.2446 505.719 51.0717C505.719 50.8965 505.785 50.7474 505.915 50.6243C506.047 50.4988 506.206 50.4361 506.391 50.4361C506.575 50.4361 506.733 50.4988 506.863 50.6243C506.996 50.7474 507.062 50.8965 507.062 51.0717C507.062 51.2446 506.996 51.3937 506.863 51.5192C506.733 51.6423 506.575 51.7038 506.391 51.7038ZM510.941 52.5455V53.3977H507.858V52.5455H510.941ZM508.703 58V51.9134C508.703 51.5724 508.778 51.2895 508.927 51.0646C509.076 50.8374 509.274 50.6681 509.52 50.5568C509.766 50.4432 510.034 50.3864 510.323 50.3864C510.536 50.3864 510.718 50.4041 510.869 50.4396C511.021 50.4728 511.133 50.5036 511.207 50.532L510.958 51.3913C510.909 51.3771 510.845 51.3606 510.767 51.3416C510.688 51.3203 510.594 51.3097 510.482 51.3097C510.224 51.3097 510.04 51.3736 509.928 51.5014C509.82 51.6293 509.765 51.8139 509.765 52.0554V58H508.703ZM515.354 60.0455C515.195 60.0455 515.051 60.0324 514.92 60.0064C514.79 59.9827 514.693 59.9567 514.629 59.9283L514.885 59.0582C515.079 59.1103 515.252 59.1328 515.403 59.1257C515.555 59.1186 515.689 59.0618 515.805 58.9553C515.923 58.8487 516.027 58.6747 516.117 58.4332L516.249 58.071L514.253 52.5455H515.389L516.771 56.7784H516.827L518.209 52.5455H519.349L517.101 58.728C516.997 59.0121 516.864 59.2524 516.703 59.4489C516.542 59.6477 516.35 59.7969 516.128 59.8963C515.905 59.9957 515.647 60.0455 515.354 60.0455ZM522.459 58.1101C521.947 58.1101 521.501 57.9929 521.12 57.7585C520.739 57.5241 520.443 57.1963 520.232 56.7749C520.021 56.3535 519.916 55.861 519.916 55.2976C519.916 54.7318 520.021 54.237 520.232 53.8132C520.443 53.3894 520.739 53.0604 521.12 52.826C521.501 52.5916 521.947 52.4744 522.459 52.4744C522.97 52.4744 523.416 52.5916 523.797 52.826C524.179 53.0604 524.474 53.3894 524.685 53.8132C524.896 54.237 525.001 54.7318 525.001 55.2976C525.001 55.861 524.896 56.3535 524.685 56.7749C524.474 57.1963 524.179 57.5241 523.797 57.7585C523.416 57.9929 522.97 58.1101 522.459 58.1101ZM522.462 57.2188C522.794 57.2188 523.068 57.1312 523.286 56.956C523.504 56.7808 523.665 56.5476 523.769 56.2564C523.876 55.9652 523.929 55.6444 523.929 55.294C523.929 54.946 523.876 54.6264 523.769 54.3352C523.665 54.0417 523.504 53.8061 523.286 53.6286C523.068 53.451 522.794 53.3622 522.462 53.3622C522.128 53.3622 521.851 53.451 521.631 53.6286C521.413 53.8061 521.251 54.0417 521.145 54.3352C521.041 54.6264 520.988 54.946 520.988 55.294C520.988 55.6444 521.041 55.9652 521.145 56.2564C521.251 56.5476 521.413 56.7808 521.631 56.956C521.851 57.1312 522.128 57.2188 522.462 57.2188ZM529.642 55.7379V52.5455H530.707V58H529.663V57.0554H529.606C529.481 57.3466 529.279 57.5893 529.002 57.7834C528.728 57.9751 528.386 58.071 527.976 58.071C527.626 58.071 527.316 57.9941 527.046 57.8402C526.778 57.6839 526.568 57.4531 526.414 57.1477C526.262 56.8423 526.186 56.4647 526.186 56.0149V52.5455H527.248V55.8871C527.248 56.2588 527.351 56.5547 527.557 56.7749C527.763 56.995 528.031 57.1051 528.36 57.1051C528.559 57.1051 528.756 57.0554 528.953 56.956C529.152 56.8565 529.316 56.7062 529.446 56.505C529.579 56.3037 529.644 56.0481 529.642 55.7379ZM535.963 58L534.358 52.5455H535.455L536.524 56.5511H536.577L537.65 52.5455H538.747L539.812 56.5334H539.865L540.927 52.5455H542.025L540.423 58H539.34L538.232 54.0618H538.15L537.042 58H535.963ZM544.619 58.1207C544.274 58.1207 543.961 58.0568 543.682 57.929C543.403 57.7988 543.181 57.6106 543.018 57.3643C542.857 57.1181 542.776 56.8163 542.776 56.4588C542.776 56.151 542.836 55.8977 542.954 55.6989C543.072 55.5 543.232 55.3426 543.433 55.2266C543.635 55.1106 543.86 55.023 544.108 54.9638C544.357 54.9046 544.61 54.8596 544.868 54.8288C545.195 54.791 545.46 54.7602 545.664 54.7365C545.867 54.7105 546.015 54.669 546.107 54.6122C546.2 54.5554 546.246 54.4631 546.246 54.3352V54.3104C546.246 54.0002 546.158 53.7599 545.983 53.5895C545.81 53.419 545.552 53.3338 545.209 53.3338C544.852 53.3338 544.57 53.4131 544.364 53.5717C544.16 53.728 544.019 53.902 543.941 54.0938L542.943 53.8665C543.062 53.535 543.235 53.2675 543.462 53.0639C543.691 52.858 543.955 52.7088 544.254 52.6165C544.552 52.5218 544.866 52.4744 545.195 52.4744C545.413 52.4744 545.643 52.5005 545.887 52.5526C546.133 52.6023 546.363 52.6946 546.576 52.8295C546.792 52.9645 546.968 53.1574 547.105 53.4084C547.243 53.657 547.311 53.9801 547.311 54.3778V58H546.274V57.2543H546.232C546.163 57.3916 546.06 57.5265 545.923 57.6591C545.785 57.7917 545.609 57.9018 545.394 57.9893C545.178 58.0769 544.92 58.1207 544.619 58.1207ZM544.85 57.2685C545.144 57.2685 545.395 57.2105 545.603 57.0945C545.814 56.9785 545.974 56.8269 546.083 56.6399C546.194 56.4505 546.249 56.2481 546.249 56.0327V55.3295C546.212 55.3674 546.138 55.4029 546.029 55.4361C545.923 55.4669 545.801 55.4941 545.664 55.5178C545.526 55.5391 545.392 55.5592 545.262 55.5781C545.132 55.5947 545.023 55.6089 544.936 55.6207C544.73 55.6468 544.541 55.6906 544.371 55.7521C544.203 55.8137 544.068 55.9025 543.966 56.0185C543.867 56.1321 543.817 56.2836 543.817 56.473C543.817 56.7358 543.914 56.9347 544.108 57.0696C544.302 57.2022 544.55 57.2685 544.85 57.2685ZM549.787 54.7614V58H548.725V52.5455H549.745V53.4332H549.812C549.938 53.1444 550.134 52.9124 550.402 52.7372C550.672 52.562 551.011 52.4744 551.421 52.4744C551.792 52.4744 552.118 52.5526 552.397 52.7088C552.677 52.8627 552.893 53.0923 553.047 53.3977C553.201 53.7031 553.278 54.0807 553.278 54.5305V58H552.216V54.6584C552.216 54.263 552.113 53.9541 551.907 53.7315C551.701 53.5066 551.418 53.3942 551.059 53.3942C550.812 53.3942 550.593 53.4474 550.402 53.554C550.212 53.6605 550.062 53.8168 549.951 54.0227C549.842 54.2263 549.787 54.4725 549.787 54.7614ZM557.248 52.5455V53.3977H554.269V52.5455H557.248ZM555.068 51.2386H556.13V56.3984C556.13 56.6044 556.16 56.7595 556.222 56.8636C556.283 56.9654 556.363 57.0353 556.46 57.0732C556.559 57.1087 556.667 57.1264 556.783 57.1264C556.868 57.1264 556.943 57.1205 557.007 57.1087C557.071 57.0968 557.12 57.0874 557.156 57.0803L557.348 57.9574C557.286 57.9811 557.199 58.0047 557.085 58.0284C556.971 58.0545 556.829 58.0687 556.659 58.071C556.379 58.0758 556.119 58.026 555.877 57.9219C555.636 57.8177 555.441 57.6567 555.292 57.4389C555.142 57.2211 555.068 56.9477 555.068 56.6186V51.2386ZM563.615 52.5455V53.3977H560.636V52.5455H563.615ZM561.435 51.2386H562.497V56.3984C562.497 56.6044 562.528 56.7595 562.589 56.8636C562.651 56.9654 562.73 57.0353 562.827 57.0732C562.926 57.1087 563.034 57.1264 563.15 57.1264C563.235 57.1264 563.31 57.1205 563.374 57.1087C563.438 57.0968 563.488 57.0874 563.523 57.0803L563.715 57.9574C563.653 57.9811 563.566 58.0047 563.452 58.0284C563.338 58.0545 563.196 58.0687 563.026 58.071C562.747 58.0758 562.486 58.026 562.245 57.9219C562.003 57.8177 561.808 57.6567 561.659 57.4389C561.51 57.2211 561.435 56.9477 561.435 56.6186V51.2386ZM567.029 58.1101C566.518 58.1101 566.071 57.9929 565.69 57.7585C565.309 57.5241 565.013 57.1963 564.802 56.7749C564.592 56.3535 564.486 55.861 564.486 55.2976C564.486 54.7318 564.592 54.237 564.802 53.8132C565.013 53.3894 565.309 53.0604 565.69 52.826C566.071 52.5916 566.518 52.4744 567.029 52.4744C567.54 52.4744 567.987 52.5916 568.368 52.826C568.749 53.0604 569.045 53.3894 569.256 53.8132C569.466 54.237 569.572 54.7318 569.572 55.2976C569.572 55.861 569.466 56.3535 569.256 56.7749C569.045 57.1963 568.749 57.5241 568.368 57.7585C567.987 57.9929 567.54 58.1101 567.029 58.1101ZM567.032 57.2188C567.364 57.2188 567.639 57.1312 567.856 56.956C568.074 56.7808 568.235 56.5476 568.339 56.2564C568.446 55.9652 568.499 55.6444 568.499 55.294C568.499 54.946 568.446 54.6264 568.339 54.3352C568.235 54.0417 568.074 53.8061 567.856 53.6286C567.639 53.451 567.364 53.3622 567.032 53.3622C566.699 53.3622 566.422 53.451 566.202 53.6286C565.984 53.8061 565.822 54.0417 565.715 54.3352C565.611 54.6264 565.559 54.946 565.559 55.294C565.559 55.6444 565.611 55.9652 565.715 56.2564C565.822 56.5476 565.984 56.7808 566.202 56.956C566.422 57.1312 566.699 57.2188 567.032 57.2188ZM572.138 57.0057L572.085 57.3928C572.049 57.6768 571.989 57.9728 571.904 58.2805C571.821 58.5907 571.734 58.8783 571.645 59.1435C571.557 59.4086 571.485 59.6193 571.428 59.7756H570.675C570.706 59.6288 570.748 59.4299 570.803 59.179C570.857 58.9304 570.911 58.6522 570.963 58.3445C571.015 58.0367 571.054 57.723 571.08 57.4034L571.115 57.0057H572.138ZM578.713 52.5455V53.3977H575.734V52.5455H578.713ZM576.533 51.2386H577.594V56.3984C577.594 56.6044 577.625 56.7595 577.687 56.8636C577.748 56.9654 577.828 57.0353 577.925 57.0732C578.024 57.1087 578.132 57.1264 578.248 57.1264C578.333 57.1264 578.408 57.1205 578.472 57.1087C578.536 57.0968 578.585 57.0874 578.621 57.0803L578.812 57.9574C578.751 57.9811 578.663 58.0047 578.55 58.0284C578.436 58.0545 578.294 58.0687 578.124 58.071C577.844 58.0758 577.584 58.026 577.342 57.9219C577.101 57.8177 576.906 57.6567 576.756 57.4389C576.607 57.2211 576.533 56.9477 576.533 56.6186V51.2386ZM581.067 54.7614V58H580.005V50.7273H581.052V53.4332H581.12C581.248 53.1397 581.443 52.9065 581.706 52.7337C581.969 52.5608 582.312 52.4744 582.736 52.4744C583.11 52.4744 583.436 52.5514 583.716 52.7053C583.997 52.8591 584.215 53.0888 584.369 53.3942C584.525 53.6972 584.604 54.076 584.604 54.5305V58H583.542V54.6584C583.542 54.2583 583.439 53.9482 583.233 53.728C583.027 53.5054 582.74 53.3942 582.373 53.3942C582.122 53.3942 581.898 53.4474 581.699 53.554C581.502 53.6605 581.347 53.8168 581.233 54.0227C581.122 54.2263 581.067 54.4725 581.067 54.7614ZM588.371 58.1101C587.834 58.1101 587.371 57.9953 586.983 57.7656C586.597 57.5336 586.299 57.2081 586.088 56.7891C585.88 56.3677 585.775 55.8741 585.775 55.3082C585.775 54.7495 585.88 54.2571 586.088 53.831C586.299 53.4048 586.592 53.0722 586.969 52.8331C587.347 52.594 587.79 52.4744 588.297 52.4744C588.604 52.4744 588.903 52.5253 589.192 52.6271C589.48 52.7289 589.74 52.8887 589.969 53.1065C590.199 53.3243 590.38 53.6072 590.513 53.9553C590.645 54.3009 590.711 54.7211 590.711 55.2159V55.5923H586.376V54.7969H589.671C589.671 54.5175 589.614 54.2701 589.501 54.0547C589.387 53.8369 589.227 53.6652 589.021 53.5398C588.818 53.4143 588.578 53.3516 588.304 53.3516C588.006 53.3516 587.745 53.425 587.523 53.5717C587.302 53.7161 587.132 53.9055 587.011 54.1399C586.893 54.3719 586.834 54.6241 586.834 54.8963V55.5178C586.834 55.8823 586.898 56.1925 587.025 56.4482C587.156 56.7038 587.337 56.8991 587.569 57.0341C587.801 57.1667 588.072 57.233 588.382 57.233C588.583 57.233 588.767 57.2045 588.932 57.1477C589.098 57.0885 589.241 57.0009 589.362 56.8849C589.483 56.7689 589.575 56.6257 589.639 56.4553L590.644 56.6364C590.564 56.9323 590.419 57.1915 590.211 57.4141C590.005 57.6342 589.746 57.8059 589.433 57.929C589.123 58.0497 588.769 58.1101 588.371 58.1101ZM591.89 58V52.5455H592.916V53.4119H592.973C593.072 53.1184 593.247 52.8875 593.498 52.7195C593.752 52.549 594.038 52.4638 594.358 52.4638C594.424 52.4638 594.502 52.4661 594.592 52.4709C594.684 52.4756 594.757 52.4815 594.809 52.4886V53.5043C594.766 53.4924 594.69 53.4794 594.581 53.4652C594.472 53.4486 594.364 53.4403 594.255 53.4403C594.004 53.4403 593.78 53.4936 593.583 53.6001C593.389 53.7043 593.235 53.8499 593.122 54.0369C593.008 54.2216 592.951 54.4323 592.951 54.669V58H591.89ZM597.883 58.1101C597.346 58.1101 596.883 57.9953 596.494 57.7656C596.109 57.5336 595.81 57.2081 595.6 56.7891C595.391 56.3677 595.287 55.8741 595.287 55.3082C595.287 54.7495 595.391 54.2571 595.6 53.831C595.81 53.4048 596.104 53.0722 596.48 52.8331C596.859 52.594 597.302 52.4744 597.808 52.4744C598.116 52.4744 598.414 52.5253 598.703 52.6271C598.992 52.7289 599.251 52.8887 599.481 53.1065C599.711 53.3243 599.892 53.6072 600.024 53.9553C600.157 54.3009 600.223 54.7211 600.223 55.2159V55.5923H595.887V54.7969H599.183C599.183 54.5175 599.126 54.2701 599.012 54.0547C598.899 53.8369 598.739 53.6652 598.533 53.5398C598.329 53.4143 598.09 53.3516 597.816 53.3516C597.517 53.3516 597.257 53.425 597.034 53.5717C596.814 53.7161 596.644 53.9055 596.523 54.1399C596.405 54.3719 596.345 54.6241 596.345 54.8963V55.5178C596.345 55.8823 596.409 56.1925 596.537 56.4482C596.667 56.7038 596.848 56.8991 597.08 57.0341C597.312 57.1667 597.584 57.233 597.894 57.233C598.095 57.233 598.278 57.2045 598.444 57.1477C598.61 57.0885 598.753 57.0009 598.874 56.8849C598.994 56.7689 599.087 56.6257 599.151 56.4553L600.156 56.6364C600.075 56.9323 599.931 57.1915 599.722 57.4141C599.517 57.6342 599.257 57.8059 598.945 57.929C598.635 58.0497 598.281 58.1101 597.883 58.1101ZM443.301 74.1207C442.955 74.1207 442.643 74.0568 442.364 73.929C442.084 73.7988 441.863 73.6106 441.7 73.3643C441.539 73.1181 441.458 72.8163 441.458 72.4588C441.458 72.151 441.517 71.8977 441.636 71.6989C441.754 71.5 441.914 71.3426 442.115 71.2266C442.316 71.1106 442.541 71.023 442.79 70.9638C443.038 70.9046 443.292 70.8596 443.55 70.8288C443.876 70.791 444.142 70.7602 444.345 70.7365C444.549 70.7105 444.697 70.669 444.789 70.6122C444.881 70.5554 444.928 70.4631 444.928 70.3352V70.3104C444.928 70.0002 444.84 69.7599 444.665 69.5895C444.492 69.419 444.234 69.3338 443.891 69.3338C443.533 69.3338 443.251 69.4131 443.045 69.5717C442.842 69.728 442.701 69.902 442.623 70.0938L441.625 69.8665C441.743 69.535 441.916 69.2675 442.143 69.0639C442.373 68.858 442.637 68.7088 442.935 68.6165C443.234 68.5218 443.547 68.4744 443.876 68.4744C444.094 68.4744 444.325 68.5005 444.569 68.5526C444.815 68.6023 445.045 68.6946 445.258 68.8295C445.473 68.9645 445.65 69.1574 445.787 69.4084C445.924 69.657 445.993 69.9801 445.993 70.3778V74H444.956V73.2543H444.913C444.845 73.3916 444.742 73.5265 444.604 73.6591C444.467 73.7917 444.291 73.9018 444.075 73.9893C443.86 74.0769 443.602 74.1207 443.301 74.1207ZM443.532 73.2685C443.826 73.2685 444.076 73.2105 444.285 73.0945C444.496 72.9785 444.655 72.8269 444.764 72.6399C444.875 72.4505 444.931 72.2481 444.931 72.0327V71.3295C444.893 71.3674 444.82 71.4029 444.711 71.4361C444.604 71.4669 444.482 71.4941 444.345 71.5178C444.208 71.5391 444.074 71.5592 443.944 71.5781C443.814 71.5947 443.705 71.6089 443.617 71.6207C443.411 71.6468 443.223 71.6906 443.053 71.7521C442.884 71.8137 442.75 71.9025 442.648 72.0185C442.548 72.1321 442.499 72.2836 442.499 72.473C442.499 72.7358 442.596 72.9347 442.79 73.0696C442.984 73.2022 443.231 73.2685 443.532 73.2685ZM447.407 74V68.5455H448.433V69.4119H448.49C448.59 69.1184 448.765 68.8875 449.016 68.7195C449.269 68.549 449.556 68.4638 449.875 68.4638C449.941 68.4638 450.02 68.4661 450.11 68.4709C450.202 68.4756 450.274 68.4815 450.326 68.4886V69.5043C450.284 69.4924 450.208 69.4794 450.099 69.4652C449.99 69.4486 449.881 69.4403 449.772 69.4403C449.521 69.4403 449.298 69.4936 449.101 69.6001C448.907 69.7043 448.753 69.8499 448.639 70.0369C448.526 70.2216 448.469 70.4323 448.469 70.669V74H447.407ZM453.401 74.1101C452.863 74.1101 452.4 73.9953 452.012 73.7656C451.626 73.5336 451.328 73.2081 451.117 72.7891C450.909 72.3677 450.805 71.8741 450.805 71.3082C450.805 70.7495 450.909 70.2571 451.117 69.831C451.328 69.4048 451.621 69.0722 451.998 68.8331C452.377 68.594 452.819 68.4744 453.326 68.4744C453.634 68.4744 453.932 68.5253 454.221 68.6271C454.51 68.7289 454.769 68.8887 454.999 69.1065C455.228 69.3243 455.409 69.6072 455.542 69.9553C455.674 70.3009 455.741 70.7211 455.741 71.2159V71.5923H451.405V70.7969H454.7C454.7 70.5175 454.643 70.2701 454.53 70.0547C454.416 69.8369 454.256 69.6652 454.05 69.5398C453.847 69.4143 453.608 69.3516 453.333 69.3516C453.035 69.3516 452.774 69.425 452.552 69.5717C452.332 69.7161 452.161 69.9055 452.04 70.1399C451.922 70.3719 451.863 70.6241 451.863 70.8963V71.5178C451.863 71.8823 451.927 72.1925 452.055 72.4482C452.185 72.7038 452.366 72.8991 452.598 73.0341C452.83 73.1667 453.101 73.233 453.411 73.233C453.612 73.233 453.796 73.2045 453.962 73.1477C454.127 73.0885 454.271 73.0009 454.391 72.8849C454.512 72.7689 454.604 72.6257 454.668 72.4553L455.673 72.6364C455.593 72.9323 455.448 73.1915 455.24 73.4141C455.034 73.6342 454.775 73.8059 454.462 73.929C454.152 74.0497 453.798 74.1101 453.401 74.1101ZM459.565 76.0455V68.5455H460.602V69.4297H460.691C460.753 69.3161 460.841 69.1847 460.957 69.0355C461.073 68.8864 461.234 68.7562 461.44 68.6449C461.646 68.5312 461.919 68.4744 462.257 68.4744C462.697 68.4744 463.09 68.5857 463.436 68.8082C463.782 69.0308 464.053 69.3516 464.249 69.7706C464.448 70.1896 464.548 70.6939 464.548 71.2834C464.548 71.8729 464.449 72.3783 464.253 72.7997C464.056 73.2187 463.786 73.5419 463.443 73.7692C463.1 73.9941 462.708 74.1065 462.268 74.1065C461.936 74.1065 461.665 74.0509 461.455 73.9396C461.246 73.8284 461.083 73.6982 460.964 73.549C460.846 73.3999 460.755 73.2673 460.691 73.1513H460.627V76.0455H459.565ZM460.606 71.2727C460.606 71.6562 460.661 71.9924 460.773 72.2812C460.884 72.5701 461.045 72.7962 461.256 72.9595C461.466 73.1205 461.724 73.201 462.03 73.201C462.347 73.201 462.612 73.117 462.825 72.9489C463.038 72.7784 463.199 72.5476 463.308 72.2564C463.42 71.9652 463.475 71.6373 463.475 71.2727C463.475 70.9129 463.421 70.5897 463.312 70.3033C463.205 70.0168 463.044 69.7907 462.829 69.625C462.616 69.4593 462.349 69.3764 462.03 69.3764C461.722 69.3764 461.462 69.4557 461.249 69.6143C461.038 69.773 460.878 69.9943 460.769 70.2784C460.66 70.5625 460.606 70.8939 460.606 71.2727ZM465.737 74V68.5455H466.763V69.4119H466.82C466.92 69.1184 467.095 68.8875 467.346 68.7195C467.599 68.549 467.886 68.4638 468.205 68.4638C468.272 68.4638 468.35 68.4661 468.44 68.4709C468.532 68.4756 468.604 68.4815 468.656 68.4886V69.5043C468.614 69.4924 468.538 69.4794 468.429 69.4652C468.32 69.4486 468.211 69.4403 468.102 69.4403C467.851 69.4403 467.628 69.4936 467.431 69.6001C467.237 69.7043 467.083 69.8499 466.969 70.0369C466.856 70.2216 466.799 70.4323 466.799 70.669V74H465.737ZM471.677 74.1101C471.166 74.1101 470.72 73.9929 470.339 73.7585C469.957 73.5241 469.662 73.1963 469.451 72.7749C469.24 72.3535 469.135 71.861 469.135 71.2976C469.135 70.7318 469.24 70.237 469.451 69.8132C469.662 69.3894 469.957 69.0604 470.339 68.826C470.72 68.5916 471.166 68.4744 471.677 68.4744C472.189 68.4744 472.635 68.5916 473.016 68.826C473.397 69.0604 473.693 69.3894 473.904 69.8132C474.115 70.237 474.22 70.7318 474.22 71.2976C474.22 71.861 474.115 72.3535 473.904 72.7749C473.693 73.1963 473.397 73.5241 473.016 73.7585C472.635 73.9929 472.189 74.1101 471.677 74.1101ZM471.681 73.2188C472.012 73.2188 472.287 73.1312 472.505 72.956C472.723 72.7808 472.884 72.5476 472.988 72.2564C473.094 71.9652 473.148 71.6444 473.148 71.294C473.148 70.946 473.094 70.6264 472.988 70.3352C472.884 70.0417 472.723 69.8061 472.505 69.6286C472.287 69.451 472.012 69.3622 471.681 69.3622C471.347 69.3622 471.07 69.451 470.85 69.6286C470.632 69.8061 470.47 70.0417 470.363 70.3352C470.259 70.6264 470.207 70.946 470.207 71.294C470.207 71.6444 470.259 71.9652 470.363 72.2564C470.47 72.5476 470.632 72.7808 470.85 72.956C471.07 73.1312 471.347 73.2188 471.681 73.2188ZM475.49 74V66.7273H476.552V69.4297H476.616C476.678 69.3161 476.766 69.1847 476.882 69.0355C476.998 68.8864 477.159 68.7562 477.365 68.6449C477.571 68.5312 477.844 68.4744 478.182 68.4744C478.623 68.4744 479.016 68.5857 479.361 68.8082C479.707 69.0308 479.978 69.3516 480.174 69.7706C480.373 70.1896 480.473 70.6939 480.473 71.2834C480.473 71.8729 480.374 72.3783 480.178 72.7997C479.981 73.2187 479.712 73.5419 479.368 73.7692C479.025 73.9941 478.633 74.1065 478.193 74.1065C477.861 74.1065 477.59 74.0509 477.38 73.9396C477.171 73.8284 477.008 73.6982 476.89 73.549C476.771 73.3999 476.68 73.2673 476.616 73.1513H476.527V74H475.49ZM476.531 71.2727C476.531 71.6562 476.587 71.9924 476.698 72.2812C476.809 72.5701 476.97 72.7962 477.181 72.9595C477.391 73.1205 477.65 73.201 477.955 73.201C478.272 73.201 478.537 73.117 478.75 72.9489C478.963 72.7784 479.124 72.5476 479.233 72.2564C479.345 71.9652 479.4 71.6373 479.4 71.2727C479.4 70.9129 479.346 70.5897 479.237 70.3033C479.13 70.0168 478.969 69.7907 478.754 69.625C478.541 69.4593 478.275 69.3764 477.955 69.3764C477.647 69.3764 477.387 69.4557 477.174 69.6143C476.963 69.773 476.803 69.9943 476.694 70.2784C476.585 70.5625 476.531 70.8939 476.531 71.2727ZM483.252 74.1207C482.907 74.1207 482.594 74.0568 482.315 73.929C482.035 73.7988 481.814 73.6106 481.651 73.3643C481.49 73.1181 481.409 72.8163 481.409 72.4588C481.409 72.151 481.468 71.8977 481.587 71.6989C481.705 71.5 481.865 71.3426 482.066 71.2266C482.267 71.1106 482.492 71.023 482.741 70.9638C482.99 70.9046 483.243 70.8596 483.501 70.8288C483.828 70.791 484.093 70.7602 484.296 70.7365C484.5 70.7105 484.648 70.669 484.74 70.6122C484.833 70.5554 484.879 70.4631 484.879 70.3352V70.3104C484.879 70.0002 484.791 69.7599 484.616 69.5895C484.443 69.419 484.185 69.3338 483.842 69.3338C483.484 69.3338 483.203 69.4131 482.997 69.5717C482.793 69.728 482.652 69.902 482.574 70.0938L481.576 69.8665C481.695 69.535 481.867 69.2675 482.095 69.0639C482.324 68.858 482.588 68.7088 482.887 68.6165C483.185 68.5218 483.499 68.4744 483.828 68.4744C484.045 68.4744 484.276 68.5005 484.52 68.5526C484.766 68.6023 484.996 68.6946 485.209 68.8295C485.424 68.9645 485.601 69.1574 485.738 69.4084C485.875 69.657 485.944 69.9801 485.944 70.3778V74H484.907V73.2543H484.865C484.796 73.3916 484.693 73.5265 484.556 73.6591C484.418 73.7917 484.242 73.9018 484.026 73.9893C483.811 74.0769 483.553 74.1207 483.252 74.1207ZM483.483 73.2685C483.777 73.2685 484.028 73.2105 484.236 73.0945C484.447 72.9785 484.606 72.8269 484.715 72.6399C484.827 72.4505 484.882 72.2481 484.882 72.0327V71.3295C484.844 71.3674 484.771 71.4029 484.662 71.4361C484.556 71.4669 484.434 71.4941 484.296 71.5178C484.159 71.5391 484.025 71.5592 483.895 71.5781C483.765 71.5947 483.656 71.6089 483.568 71.6207C483.362 71.6468 483.174 71.6906 483.004 71.7521C482.836 71.8137 482.701 71.9025 482.599 72.0185C482.499 72.1321 482.45 72.2836 482.45 72.473C482.45 72.7358 482.547 72.9347 482.741 73.0696C482.935 73.2022 483.182 73.2685 483.483 73.2685ZM487.444 74V66.7273H488.505V69.4297H488.569C488.631 69.3161 488.72 69.1847 488.836 69.0355C488.952 68.8864 489.113 68.7562 489.319 68.6449C489.525 68.5312 489.797 68.4744 490.135 68.4744C490.576 68.4744 490.969 68.5857 491.314 68.8082C491.66 69.0308 491.931 69.3516 492.127 69.7706C492.326 70.1896 492.426 70.6939 492.426 71.2834C492.426 71.8729 492.328 72.3783 492.131 72.7997C491.935 73.2187 491.665 73.5419 491.321 73.7692C490.978 73.9941 490.586 74.1065 490.146 74.1065C489.815 74.1065 489.543 74.0509 489.333 73.9396C489.124 73.8284 488.961 73.6982 488.843 73.549C488.724 73.3999 488.633 73.2673 488.569 73.1513H488.48V74H487.444ZM488.484 71.2727C488.484 71.6562 488.54 71.9924 488.651 72.2812C488.762 72.5701 488.923 72.7962 489.134 72.9595C489.345 73.1205 489.603 73.201 489.908 73.201C490.225 73.201 490.49 73.117 490.703 72.9489C490.917 72.7784 491.078 72.5476 491.186 72.2564C491.298 71.9652 491.353 71.6373 491.353 71.2727C491.353 70.9129 491.299 70.5897 491.19 70.3033C491.083 70.0168 490.922 69.7907 490.707 69.625C490.494 69.4593 490.228 69.3764 489.908 69.3764C489.6 69.3764 489.34 69.4557 489.127 69.6143C488.916 69.773 488.756 69.9943 488.647 70.2784C488.538 70.5625 488.484 70.8939 488.484 71.2727ZM494.68 66.7273V74H493.618V66.7273H494.68ZM496.779 76.0455C496.621 76.0455 496.476 76.0324 496.346 76.0064C496.216 75.9827 496.119 75.9567 496.055 75.9283L496.311 75.0582C496.505 75.1103 496.678 75.1328 496.829 75.1257C496.981 75.1186 497.114 75.0618 497.23 74.9553C497.349 74.8487 497.453 74.6747 497.543 74.4332L497.674 74.071L495.679 68.5455H496.815L498.196 72.7784H498.253L499.635 68.5455H500.775L498.527 74.728C498.422 75.0121 498.29 75.2524 498.129 75.4489C497.968 75.6477 497.776 75.7969 497.554 75.8963C497.331 75.9957 497.073 76.0455 496.779 76.0455ZM504.419 74V68.5455H505.438V69.4332H505.506C505.619 69.1326 505.805 68.8982 506.063 68.7301C506.321 68.5597 506.63 68.4744 506.99 68.4744C507.354 68.4744 507.66 68.5597 507.906 68.7301C508.155 68.9006 508.338 69.1349 508.456 69.4332H508.513C508.644 69.142 508.851 68.91 509.135 68.7372C509.419 68.562 509.757 68.4744 510.15 68.4744C510.645 68.4744 511.049 68.6295 511.361 68.9396C511.676 69.2498 511.834 69.7173 511.834 70.3423V74H510.772V70.4418C510.772 70.0724 510.671 69.8049 510.47 69.6392C510.269 69.4735 510.028 69.3906 509.749 69.3906C509.403 69.3906 509.135 69.4972 508.943 69.7102C508.751 69.9209 508.655 70.192 508.655 70.5234V74H507.597V70.3743C507.597 70.0784 507.505 69.8404 507.32 69.6605C507.135 69.4806 506.895 69.3906 506.599 69.3906C506.398 69.3906 506.212 69.4439 506.042 69.5504C505.874 69.6546 505.738 69.8002 505.633 69.9872C505.532 70.1742 505.481 70.3909 505.481 70.6371V74H504.419ZM515.554 74.1101C515.043 74.1101 514.597 73.9929 514.216 73.7585C513.834 73.5241 513.538 73.1963 513.328 72.7749C513.117 72.3535 513.012 71.861 513.012 71.2976C513.012 70.7318 513.117 70.237 513.328 69.8132C513.538 69.3894 513.834 69.0604 514.216 68.826C514.597 68.5916 515.043 68.4744 515.554 68.4744C516.066 68.4744 516.512 68.5916 516.893 68.826C517.274 69.0604 517.57 69.3894 517.781 69.8132C517.992 70.237 518.097 70.7318 518.097 71.2976C518.097 71.861 517.992 72.3535 517.781 72.7749C517.57 73.1963 517.274 73.5241 516.893 73.7585C516.512 73.9929 516.066 74.1101 515.554 74.1101ZM515.558 73.2188C515.889 73.2188 516.164 73.1312 516.382 72.956C516.6 72.7808 516.761 72.5476 516.865 72.2564C516.971 71.9652 517.025 71.6444 517.025 71.294C517.025 70.946 516.971 70.6264 516.865 70.3352C516.761 70.0417 516.6 69.8061 516.382 69.6286C516.164 69.451 515.889 69.3622 515.558 69.3622C515.224 69.3622 514.947 69.451 514.727 69.6286C514.509 69.8061 514.347 70.0417 514.24 70.3352C514.136 70.6264 514.084 70.946 514.084 71.294C514.084 71.6444 514.136 71.9652 514.24 72.2564C514.347 72.5476 514.509 72.7808 514.727 72.956C514.947 73.1312 515.224 73.2188 515.558 73.2188ZM519.282 74V68.5455H520.308V69.4119H520.365C520.465 69.1184 520.64 68.8875 520.891 68.7195C521.144 68.549 521.431 68.4638 521.75 68.4638C521.816 68.4638 521.895 68.4661 521.985 68.4709C522.077 68.4756 522.149 68.4815 522.201 68.4886V69.5043C522.159 69.4924 522.083 69.4794 521.974 69.4652C521.865 69.4486 521.756 69.4403 521.647 69.4403C521.396 69.4403 521.173 69.4936 520.976 69.6001C520.782 69.7043 520.628 69.8499 520.514 70.0369C520.401 70.2216 520.344 70.4323 520.344 70.669V74H519.282ZM525.276 74.1101C524.738 74.1101 524.275 73.9953 523.887 73.7656C523.501 73.5336 523.203 73.2081 522.992 72.7891C522.784 72.3677 522.68 71.8741 522.68 71.3082C522.68 70.7495 522.784 70.2571 522.992 69.831C523.203 69.4048 523.496 69.0722 523.873 68.8331C524.252 68.594 524.694 68.4744 525.201 68.4744C525.509 68.4744 525.807 68.5253 526.096 68.6271C526.385 68.7289 526.644 68.8887 526.874 69.1065C527.103 69.3243 527.284 69.6072 527.417 69.9553C527.549 70.3009 527.616 70.7211 527.616 71.2159V71.5923H523.28V70.7969H526.575C526.575 70.5175 526.518 70.2701 526.405 70.0547C526.291 69.8369 526.131 69.6652 525.925 69.5398C525.722 69.4143 525.483 69.3516 525.208 69.3516C524.91 69.3516 524.649 69.425 524.427 69.5717C524.207 69.7161 524.036 69.9055 523.915 70.1399C523.797 70.3719 523.738 70.6241 523.738 70.8963V71.5178C523.738 71.8823 523.802 72.1925 523.93 72.4482C524.06 72.7038 524.241 72.8991 524.473 73.0341C524.705 73.1667 524.976 73.233 525.286 73.233C525.487 73.233 525.671 73.2045 525.837 73.1477C526.002 73.0885 526.146 73.0009 526.266 72.8849C526.387 72.7689 526.479 72.6257 526.543 72.4553L527.548 72.6364C527.468 72.9323 527.323 73.1915 527.115 73.4141C526.909 73.6342 526.65 73.8059 526.337 73.929C526.027 74.0497 525.673 74.1101 525.276 74.1101ZM531.44 74V68.5455H532.502V74H531.44ZM531.977 67.7038C531.792 67.7038 531.633 67.6423 531.501 67.5192C531.371 67.3937 531.305 67.2446 531.305 67.0717C531.305 66.8965 531.371 66.7474 531.501 66.6243C531.633 66.4988 531.792 66.4361 531.977 66.4361C532.161 66.4361 532.319 66.4988 532.449 66.6243C532.581 66.7474 532.648 66.8965 532.648 67.0717C532.648 67.2446 532.581 67.3937 532.449 67.5192C532.319 67.6423 532.161 67.7038 531.977 67.7038ZM534.992 70.7614V74H533.931V68.5455H534.95V69.4332H535.017C535.143 69.1444 535.339 68.9124 535.607 68.7372C535.877 68.562 536.216 68.4744 536.626 68.4744C536.998 68.4744 537.323 68.5526 537.602 68.7088C537.882 68.8627 538.098 69.0923 538.252 69.3977C538.406 69.7031 538.483 70.0807 538.483 70.5305V74H537.421V70.6584C537.421 70.263 537.318 69.9541 537.112 69.7315C536.906 69.5066 536.624 69.3942 536.264 69.3942C536.017 69.3942 535.798 69.4474 535.607 69.554C535.417 69.6605 535.267 69.8168 535.156 70.0227C535.047 70.2263 534.992 70.4725 534.992 70.7614ZM542.453 68.5455V69.3977H539.474V68.5455H542.453ZM540.273 67.2386H541.335V72.3984C541.335 72.6044 541.365 72.7595 541.427 72.8636C541.489 72.9654 541.568 73.0353 541.665 73.0732C541.764 73.1087 541.872 73.1264 541.988 73.1264C542.073 73.1264 542.148 73.1205 542.212 73.1087C542.276 73.0968 542.325 73.0874 542.361 73.0803L542.553 73.9574C542.491 73.9811 542.404 74.0047 542.29 74.0284C542.176 74.0545 542.034 74.0687 541.864 74.071C541.584 74.0758 541.324 74.026 541.083 73.9219C540.841 73.8177 540.646 73.6567 540.497 73.4389C540.347 73.2211 540.273 72.9477 540.273 72.6186V67.2386ZM545.92 74.1101C545.383 74.1101 544.92 73.9953 544.532 73.7656C544.146 73.5336 543.847 73.2081 543.637 72.7891C543.428 72.3677 543.324 71.8741 543.324 71.3082C543.324 70.7495 543.428 70.2571 543.637 69.831C543.847 69.4048 544.141 69.0722 544.517 68.8331C544.896 68.594 545.339 68.4744 545.846 68.4744C546.153 68.4744 546.452 68.5253 546.74 68.6271C547.029 68.7289 547.288 68.8887 547.518 69.1065C547.748 69.3243 547.929 69.6072 548.061 69.9553C548.194 70.3009 548.26 70.7211 548.26 71.2159V71.5923H543.924V70.7969H547.22C547.22 70.5175 547.163 70.2701 547.049 70.0547C546.936 69.8369 546.776 69.6652 546.57 69.5398C546.366 69.4143 546.127 69.3516 545.853 69.3516C545.554 69.3516 545.294 69.425 545.071 69.5717C544.851 69.7161 544.681 69.9055 544.56 70.1399C544.442 70.3719 544.382 70.6241 544.382 70.8963V71.5178C544.382 71.8823 544.446 72.1925 544.574 72.4482C544.704 72.7038 544.886 72.8991 545.118 73.0341C545.35 73.1667 545.621 73.233 545.931 73.233C546.132 73.233 546.315 73.2045 546.481 73.1477C546.647 73.0885 546.79 73.0009 546.911 72.8849C547.032 72.7689 547.124 72.6257 547.188 72.4553L548.193 72.6364C548.112 72.9323 547.968 73.1915 547.76 73.4141C547.554 73.6342 547.294 73.8059 546.982 73.929C546.672 74.0497 546.318 74.1101 545.92 74.1101ZM549.438 74V68.5455H550.465V69.4119H550.521C550.621 69.1184 550.796 68.8875 551.047 68.7195C551.3 68.549 551.587 68.4638 551.906 68.4638C551.973 68.4638 552.051 68.4661 552.141 68.4709C552.233 68.4756 552.305 68.4815 552.357 68.4886V69.5043C552.315 69.4924 552.239 69.4794 552.13 69.4652C552.021 69.4486 551.912 69.4403 551.803 69.4403C551.552 69.4403 551.329 69.4936 551.132 69.6001C550.938 69.7043 550.784 69.8499 550.671 70.0369C550.557 70.2216 550.5 70.4323 550.5 70.669V74H549.438ZM555.432 74.1101C554.894 74.1101 554.432 73.9953 554.043 73.7656C553.657 73.5336 553.359 73.2081 553.148 72.7891C552.94 72.3677 552.836 71.8741 552.836 71.3082C552.836 70.7495 552.94 70.2571 553.148 69.831C553.359 69.4048 553.653 69.0722 554.029 68.8331C554.408 68.594 554.851 68.4744 555.357 68.4744C555.665 68.4744 555.963 68.5253 556.252 68.6271C556.541 68.7289 556.8 68.8887 557.03 69.1065C557.259 69.3243 557.441 69.6072 557.573 69.9553C557.706 70.3009 557.772 70.7211 557.772 71.2159V71.5923H553.436V70.7969H556.732C556.732 70.5175 556.675 70.2701 556.561 70.0547C556.447 69.8369 556.288 69.6652 556.082 69.5398C555.878 69.4143 555.639 69.3516 555.364 69.3516C555.066 69.3516 554.806 69.425 554.583 69.5717C554.363 69.7161 554.192 69.9055 554.072 70.1399C553.953 70.3719 553.894 70.6241 553.894 70.8963V71.5178C553.894 71.8823 553.958 72.1925 554.086 72.4482C554.216 72.7038 554.397 72.8991 554.629 73.0341C554.861 73.1667 555.132 73.233 555.442 73.233C555.644 73.233 555.827 73.2045 555.993 73.1477C556.159 73.0885 556.302 73.0009 556.423 72.8849C556.543 72.7689 556.636 72.6257 556.7 72.4553L557.705 72.6364C557.624 72.9323 557.48 73.1915 557.271 73.4141C557.065 73.6342 556.806 73.8059 556.494 73.929C556.183 74.0497 555.83 74.1101 555.432 74.1101ZM563.037 69.8771L562.075 70.0476C562.035 69.9245 561.971 69.8073 561.883 69.696C561.798 69.5848 561.682 69.4936 561.535 69.4226C561.389 69.3516 561.205 69.3161 560.985 69.3161C560.684 69.3161 560.433 69.3835 560.232 69.5185C560.031 69.651 559.93 69.8227 559.93 70.0334C559.93 70.2157 559.998 70.3625 560.133 70.4737C560.268 70.585 560.485 70.6761 560.786 70.7472L561.653 70.946C562.154 71.062 562.528 71.2408 562.775 71.4822C563.021 71.7237 563.144 72.0374 563.144 72.4233C563.144 72.75 563.049 73.0412 562.86 73.2969C562.673 73.5502 562.411 73.7491 562.075 73.8935C561.741 74.0379 561.354 74.1101 560.914 74.1101C560.303 74.1101 559.805 73.9799 559.419 73.7195C559.033 73.4567 558.796 73.0838 558.709 72.6009L559.735 72.4446C559.799 72.7121 559.93 72.9145 560.129 73.0518C560.328 73.1868 560.587 73.2543 560.907 73.2543C561.255 73.2543 561.533 73.1821 561.741 73.0376C561.95 72.8909 562.054 72.7121 562.054 72.5014C562.054 72.331 561.99 72.1877 561.862 72.0717C561.737 71.9557 561.544 71.8681 561.283 71.8089L560.36 71.6065C559.851 71.4905 559.474 71.3059 559.231 71.0526C558.989 70.7992 558.868 70.4785 558.868 70.0902C558.868 69.7682 558.958 69.4865 559.138 69.245C559.318 69.0036 559.567 68.8153 559.884 68.6804C560.201 68.5431 560.565 68.4744 560.974 68.4744C561.564 68.4744 562.028 68.6023 562.366 68.858C562.705 69.1113 562.929 69.451 563.037 69.8771ZM566.858 68.5455V69.3977H563.878V68.5455H566.858ZM564.677 67.2386H565.739V72.3984C565.739 72.6044 565.77 72.7595 565.831 72.8636C565.893 72.9654 565.972 73.0353 566.069 73.0732C566.169 73.1087 566.276 73.1264 566.392 73.1264C566.478 73.1264 566.552 73.1205 566.616 73.1087C566.68 73.0968 566.73 73.0874 566.765 73.0803L566.957 73.9574C566.895 73.9811 566.808 74.0047 566.694 74.0284C566.581 74.0545 566.439 74.0687 566.268 74.071C565.989 74.0758 565.728 74.026 565.487 73.9219C565.245 73.8177 565.05 73.6567 564.901 73.4389C564.752 73.2211 564.677 72.9477 564.677 72.6186V67.2386ZM568.032 74V68.5455H569.094V74H568.032ZM568.568 67.7038C568.384 67.7038 568.225 67.6423 568.093 67.5192C567.962 67.3937 567.897 67.2446 567.897 67.0717C567.897 66.8965 567.962 66.7474 568.093 66.6243C568.225 66.4988 568.384 66.4361 568.568 66.4361C568.753 66.4361 568.91 66.4988 569.041 66.6243C569.173 66.7474 569.24 66.8965 569.24 67.0717C569.24 67.2446 569.173 67.3937 569.041 67.5192C568.91 67.6423 568.753 67.7038 568.568 67.7038ZM571.584 70.7614V74H570.522V68.5455H571.542V69.4332H571.609C571.734 69.1444 571.931 68.9124 572.199 68.7372C572.468 68.562 572.808 68.4744 573.218 68.4744C573.589 68.4744 573.915 68.5526 574.194 68.7088C574.474 68.8627 574.69 69.0923 574.844 69.3977C574.998 69.7031 575.075 70.0807 575.075 70.5305V74H574.013V70.6584C574.013 70.263 573.91 69.9541 573.704 69.7315C573.498 69.5066 573.215 69.3942 572.855 69.3942C572.609 69.3942 572.39 69.4474 572.199 69.554C572.009 69.6605 571.859 69.8168 571.748 70.0227C571.639 70.2263 571.584 70.4725 571.584 70.7614ZM578.786 76.1591C578.353 76.1591 577.98 76.1023 577.667 75.9886C577.357 75.875 577.104 75.7247 576.907 75.5376C576.711 75.3506 576.564 75.1458 576.467 74.9233L577.38 74.5469C577.444 74.651 577.529 74.7611 577.635 74.8771C577.744 74.9955 577.891 75.0961 578.076 75.179C578.263 75.2618 578.503 75.3033 578.797 75.3033C579.199 75.3033 579.532 75.205 579.794 75.0085C580.057 74.8144 580.189 74.5043 580.189 74.0781V73.0057H580.121C580.057 73.1217 579.965 73.2507 579.844 73.3928C579.726 73.5348 579.562 73.6579 579.354 73.7621C579.146 73.8662 578.875 73.9183 578.541 73.9183C578.11 73.9183 577.722 73.8177 577.376 73.6165C577.033 73.4129 576.761 73.1134 576.559 72.718C576.36 72.3203 576.261 71.8314 576.261 71.2514C576.261 70.6714 576.359 70.1742 576.556 69.7599C576.755 69.3456 577.027 69.0284 577.373 68.8082C577.718 68.5857 578.11 68.4744 578.548 68.4744C578.886 68.4744 579.16 68.5312 579.368 68.6449C579.577 68.7562 579.739 68.8864 579.855 69.0355C579.973 69.1847 580.064 69.3161 580.128 69.4297H580.206V68.5455H581.247V74.1207C581.247 74.5895 581.138 74.9742 580.92 75.2749C580.702 75.5755 580.408 75.7981 580.036 75.9425C579.667 76.0869 579.25 76.1591 578.786 76.1591ZM578.775 73.0376C579.081 73.0376 579.339 72.9666 579.549 72.8246C579.762 72.6802 579.923 72.4742 580.032 72.2067C580.144 71.9368 580.199 71.6136 580.199 71.2372C580.199 70.8703 580.145 70.5471 580.036 70.2678C579.927 69.9884 579.767 69.7706 579.556 69.6143C579.346 69.4557 579.085 69.3764 578.775 69.3764C578.456 69.3764 578.189 69.4593 577.976 69.625C577.763 69.7884 577.602 70.0109 577.493 70.2926C577.387 70.5743 577.333 70.8892 577.333 71.2372C577.333 71.5947 577.388 71.9084 577.497 72.1783C577.606 72.4482 577.767 72.6589 577.98 72.8104C578.195 72.9619 578.46 73.0376 578.775 73.0376ZM587.863 68.5455V69.3977H584.884V68.5455H587.863ZM585.683 67.2386H586.745V72.3984C586.745 72.6044 586.776 72.7595 586.837 72.8636C586.899 72.9654 586.978 73.0353 587.075 73.0732C587.175 73.1087 587.282 73.1264 587.398 73.1264C587.483 73.1264 587.558 73.1205 587.622 73.1087C587.686 73.0968 587.736 73.0874 587.771 73.0803L587.963 73.9574C587.901 73.9811 587.814 74.0047 587.7 74.0284C587.586 74.0545 587.444 74.0687 587.274 74.071C586.995 74.0758 586.734 74.026 586.493 73.9219C586.251 73.8177 586.056 73.6567 585.907 73.4389C585.758 73.2211 585.683 72.9477 585.683 72.6186V67.2386ZM590.217 70.7614V74H589.155V66.7273H590.203V69.4332H590.27C590.398 69.1397 590.593 68.9065 590.856 68.7337C591.119 68.5608 591.462 68.4744 591.886 68.4744C592.26 68.4744 592.587 68.5514 592.866 68.7053C593.148 68.8591 593.366 69.0888 593.52 69.3942C593.676 69.6972 593.754 70.076 593.754 70.5305V74H592.692V70.6584C592.692 70.2583 592.589 69.9482 592.383 69.728C592.177 69.5054 591.891 69.3942 591.524 69.3942C591.273 69.3942 591.048 69.4474 590.849 69.554C590.653 69.6605 590.498 69.8168 590.384 70.0227C590.273 70.2263 590.217 70.4725 590.217 70.7614ZM595.171 74V68.5455H596.233V74H595.171ZM595.707 67.7038C595.522 67.7038 595.364 67.6423 595.231 67.5192C595.101 67.3937 595.036 67.2446 595.036 67.0717C595.036 66.8965 595.101 66.7474 595.231 66.6243C595.364 66.4988 595.522 66.4361 595.707 66.4361C595.892 66.4361 596.049 66.4988 596.179 66.6243C596.312 66.7474 596.378 66.8965 596.378 67.0717C596.378 67.2446 596.312 67.3937 596.179 67.5192C596.049 67.6423 595.892 67.7038 595.707 67.7038ZM598.723 70.7614V74H597.661V68.5455H598.68V69.4332H598.748C598.873 69.1444 599.07 68.9124 599.337 68.7372C599.607 68.562 599.947 68.4744 600.356 68.4744C600.728 68.4744 601.054 68.5526 601.333 68.7088C601.612 68.8627 601.829 69.0923 601.983 69.3977C602.137 69.7031 602.214 70.0807 602.214 70.5305V74H601.152V70.6584C601.152 70.263 601.049 69.9541 600.843 69.7315C600.637 69.5066 600.354 69.3942 599.994 69.3942C599.748 69.3942 599.529 69.4474 599.337 69.554C599.148 69.6605 598.997 69.8168 598.886 70.0227C598.777 70.2263 598.723 70.4725 598.723 70.7614ZM605.925 76.1591C605.491 76.1591 605.118 76.1023 604.806 75.9886C604.496 75.875 604.242 75.7247 604.046 75.5376C603.849 75.3506 603.703 75.1458 603.606 74.9233L604.518 74.5469C604.582 74.651 604.667 74.7611 604.774 74.8771C604.883 74.9955 605.03 75.0961 605.214 75.179C605.401 75.2618 605.642 75.3033 605.935 75.3033C606.338 75.3033 606.67 75.205 606.933 75.0085C607.196 74.8144 607.327 74.5043 607.327 74.0781V73.0057H607.26C607.196 73.1217 607.104 73.2507 606.983 73.3928C606.864 73.5348 606.701 73.6579 606.493 73.7621C606.284 73.8662 606.013 73.9183 605.68 73.9183C605.249 73.9183 604.86 73.8177 604.515 73.6165C604.171 73.4129 603.899 73.1134 603.698 72.718C603.499 72.3203 603.4 71.8314 603.4 71.2514C603.4 70.6714 603.498 70.1742 603.694 69.7599C603.893 69.3456 604.166 69.0284 604.511 68.8082C604.857 68.5857 605.249 68.4744 605.687 68.4744C606.025 68.4744 606.299 68.5312 606.507 68.6449C606.715 68.7562 606.877 68.8864 606.993 69.0355C607.112 69.1847 607.203 69.3161 607.267 69.4297H607.345V68.5455H608.385V74.1207C608.385 74.5895 608.277 74.9742 608.059 75.2749C607.841 75.5755 607.546 75.7981 607.175 75.9425C606.805 76.0869 606.389 76.1591 605.925 76.1591ZM605.914 73.0376C606.219 73.0376 606.477 72.9666 606.688 72.8246C606.901 72.6802 607.062 72.4742 607.171 72.2067C607.282 71.9368 607.338 71.6136 607.338 71.2372C607.338 70.8703 607.283 70.5471 607.175 70.2678C607.066 69.9884 606.906 69.7706 606.695 69.6143C606.484 69.4557 606.224 69.3764 605.914 69.3764C605.594 69.3764 605.328 69.4593 605.115 69.625C604.902 69.7884 604.741 70.0109 604.632 70.2926C604.525 70.5743 604.472 70.8892 604.472 71.2372C604.472 71.5947 604.527 71.9084 604.635 72.1783C604.744 72.4482 604.905 72.6589 605.118 72.8104C605.334 72.9619 605.599 73.0376 605.914 73.0376ZM613.897 69.8771L612.934 70.0476C612.894 69.9245 612.83 69.8073 612.743 69.696C612.657 69.5848 612.541 69.4936 612.395 69.4226C612.248 69.3516 612.064 69.3161 611.844 69.3161C611.544 69.3161 611.293 69.3835 611.091 69.5185C610.89 69.651 610.79 69.8227 610.79 70.0334C610.79 70.2157 610.857 70.3625 610.992 70.4737C611.127 70.585 611.345 70.6761 611.645 70.7472L612.512 70.946C613.014 71.062 613.388 71.2408 613.634 71.4822C613.88 71.7237 614.003 72.0374 614.003 72.4233C614.003 72.75 613.909 73.0412 613.719 73.2969C613.532 73.5502 613.271 73.7491 612.934 73.8935C612.601 74.0379 612.214 74.1101 611.773 74.1101C611.162 74.1101 610.664 73.9799 610.278 73.7195C609.892 73.4567 609.656 73.0838 609.568 72.6009L610.594 72.4446C610.658 72.7121 610.79 72.9145 610.988 73.0518C611.187 73.1868 611.447 73.2543 611.766 73.2543C612.114 73.2543 612.392 73.1821 612.601 73.0376C612.809 72.8909 612.913 72.7121 612.913 72.5014C612.913 72.331 612.849 72.1877 612.721 72.0717C612.596 71.9557 612.403 71.8681 612.143 71.8089L611.219 71.6065C610.71 71.4905 610.334 71.3059 610.09 71.0526C609.849 70.7992 609.728 70.4785 609.728 70.0902C609.728 69.7682 609.818 69.4865 609.998 69.245C610.178 69.0036 610.426 68.8153 610.743 68.6804C611.061 68.5431 611.424 68.4744 611.834 68.4744C612.423 68.4744 612.887 68.6023 613.226 68.858C613.564 69.1113 613.788 69.451 613.897 69.8771ZM444.011 90.1101C443.5 90.1101 443.054 89.9929 442.673 89.7585C442.291 89.5241 441.996 89.1963 441.785 88.7749C441.574 88.3535 441.469 87.861 441.469 87.2976C441.469 86.7318 441.574 86.237 441.785 85.8132C441.996 85.3894 442.291 85.0604 442.673 84.826C443.054 84.5916 443.5 84.4744 444.011 84.4744C444.523 84.4744 444.969 84.5916 445.35 84.826C445.731 85.0604 446.027 85.3894 446.238 85.8132C446.449 86.237 446.554 86.7318 446.554 87.2976C446.554 87.861 446.449 88.3535 446.238 88.7749C446.027 89.1963 445.731 89.5241 445.35 89.7585C444.969 89.9929 444.523 90.1101 444.011 90.1101ZM444.015 89.2188C444.346 89.2188 444.621 89.1312 444.839 88.956C445.057 88.7808 445.218 88.5476 445.322 88.2564C445.428 87.9652 445.482 87.6444 445.482 87.294C445.482 86.946 445.428 86.6264 445.322 86.3352C445.218 86.0417 445.057 85.8061 444.839 85.6286C444.621 85.451 444.346 85.3622 444.015 85.3622C443.681 85.3622 443.404 85.451 443.184 85.6286C442.966 85.8061 442.804 86.0417 442.697 86.3352C442.593 86.6264 442.541 86.946 442.541 87.294C442.541 87.6444 442.593 87.9652 442.697 88.2564C442.804 88.5476 442.966 88.7808 443.184 88.956C443.404 89.1312 443.681 89.2188 444.015 89.2188ZM448.801 86.7614V90H447.739V84.5455H448.758V85.4332H448.826C448.951 85.1444 449.148 84.9124 449.415 84.7372C449.685 84.562 450.025 84.4744 450.434 84.4744C450.806 84.4744 451.132 84.5526 451.411 84.7088C451.69 84.8627 451.907 85.0923 452.061 85.3977C452.215 85.7031 452.292 86.0807 452.292 86.5305V90H451.23V86.6584C451.23 86.263 451.127 85.9541 450.921 85.7315C450.715 85.5066 450.432 85.3942 450.072 85.3942C449.826 85.3942 449.607 85.4474 449.415 85.554C449.226 85.6605 449.076 85.8168 448.964 86.0227C448.855 86.2263 448.801 86.4725 448.801 86.7614ZM458.908 84.5455V85.3977H455.929V84.5455H458.908ZM456.728 83.2386H457.79V88.3984C457.79 88.6044 457.821 88.7595 457.882 88.8636C457.944 88.9654 458.023 89.0353 458.12 89.0732C458.219 89.1087 458.327 89.1264 458.443 89.1264C458.528 89.1264 458.603 89.1205 458.667 89.1087C458.731 89.0968 458.781 89.0874 458.816 89.0803L459.008 89.9574C458.946 89.9811 458.859 90.0047 458.745 90.0284C458.631 90.0545 458.489 90.0687 458.319 90.071C458.04 90.0758 457.779 90.026 457.538 89.9219C457.296 89.8177 457.101 89.6567 456.952 89.4389C456.803 89.2211 456.728 88.9477 456.728 88.6186V83.2386ZM461.262 86.7614V90H460.2V82.7273H461.248V85.4332H461.315C461.443 85.1397 461.638 84.9065 461.901 84.7337C462.164 84.5608 462.507 84.4744 462.931 84.4744C463.305 84.4744 463.632 84.5514 463.911 84.7053C464.193 84.8591 464.411 85.0888 464.564 85.3942C464.721 85.6972 464.799 86.076 464.799 86.5305V90H463.737V86.6584C463.737 86.2583 463.634 85.9482 463.428 85.728C463.222 85.5054 462.936 85.3942 462.569 85.3942C462.318 85.3942 462.093 85.4474 461.894 85.554C461.698 85.6605 461.542 85.8168 461.429 86.0227C461.318 86.2263 461.262 86.4725 461.262 86.7614ZM468.567 90.1101C468.029 90.1101 467.566 89.9953 467.178 89.7656C466.792 89.5336 466.494 89.2081 466.283 88.7891C466.075 88.3677 465.971 87.8741 465.971 87.3082C465.971 86.7495 466.075 86.2571 466.283 85.831C466.494 85.4048 466.787 85.0722 467.164 84.8331C467.543 84.594 467.985 84.4744 468.492 84.4744C468.8 84.4744 469.098 84.5253 469.387 84.6271C469.676 84.7289 469.935 84.8887 470.165 85.1065C470.394 85.3243 470.575 85.6072 470.708 85.9553C470.84 86.3009 470.907 86.7211 470.907 87.2159V87.5923H466.571V86.7969H469.866C469.866 86.5175 469.809 86.2701 469.696 86.0547C469.582 85.8369 469.422 85.6652 469.216 85.5398C469.013 85.4143 468.774 85.3516 468.499 85.3516C468.201 85.3516 467.94 85.425 467.718 85.5717C467.498 85.7161 467.327 85.9055 467.206 86.1399C467.088 86.3719 467.029 86.6241 467.029 86.8963V87.5178C467.029 87.8823 467.093 88.1925 467.221 88.4482C467.351 88.7038 467.532 88.8991 467.764 89.0341C467.996 89.1667 468.267 89.233 468.577 89.233C468.778 89.233 468.962 89.2045 469.128 89.1477C469.293 89.0885 469.437 89.0009 469.557 88.8849C469.678 88.7689 469.77 88.6257 469.834 88.4553L470.839 88.6364C470.759 88.9323 470.614 89.1915 470.406 89.4141C470.2 89.6342 469.941 89.8059 469.628 89.929C469.318 90.0497 468.964 90.1101 468.567 90.1101ZM474.731 90V84.5455H475.793V90H474.731ZM475.268 83.7038C475.083 83.7038 474.924 83.6423 474.792 83.5192C474.662 83.3937 474.596 83.2446 474.596 83.0717C474.596 82.8965 474.662 82.7474 474.792 82.6243C474.924 82.4988 475.083 82.4361 475.268 82.4361C475.452 82.4361 475.61 82.4988 475.74 82.6243C475.872 82.7474 475.939 82.8965 475.939 83.0717C475.939 83.2446 475.872 83.3937 475.74 83.5192C475.61 83.6423 475.452 83.7038 475.268 83.7038ZM478.283 86.7614V90H477.222V84.5455H478.241V85.4332H478.308C478.434 85.1444 478.63 84.9124 478.898 84.7372C479.168 84.562 479.507 84.4744 479.917 84.4744C480.289 84.4744 480.614 84.5526 480.893 84.7088C481.173 84.8627 481.389 85.0923 481.543 85.3977C481.697 85.7031 481.774 86.0807 481.774 86.5305V90H480.712V86.6584C480.712 86.263 480.609 85.9541 480.403 85.7315C480.197 85.5066 479.915 85.3942 479.555 85.3942C479.308 85.3942 479.089 85.4474 478.898 85.554C478.708 85.6605 478.558 85.8168 478.447 86.0227C478.338 86.2263 478.283 86.4725 478.283 86.7614ZM485.744 84.5455V85.3977H482.765V84.5455H485.744ZM483.564 83.2386H484.626V88.3984C484.626 88.6044 484.656 88.7595 484.718 88.8636C484.78 88.9654 484.859 89.0353 484.956 89.0732C485.055 89.1087 485.163 89.1264 485.279 89.1264C485.364 89.1264 485.439 89.1205 485.503 89.1087C485.567 89.0968 485.616 89.0874 485.652 89.0803L485.844 89.9574C485.782 89.9811 485.695 90.0047 485.581 90.0284C485.467 90.0545 485.325 90.0687 485.155 90.071C484.875 90.0758 484.615 90.026 484.374 89.9219C484.132 89.8177 483.937 89.6567 483.788 89.4389C483.638 89.2211 483.564 88.9477 483.564 88.6186V83.2386ZM489.211 90.1101C488.674 90.1101 488.211 89.9953 487.823 89.7656C487.437 89.5336 487.138 89.2081 486.928 88.7891C486.719 88.3677 486.615 87.8741 486.615 87.3082C486.615 86.7495 486.719 86.2571 486.928 85.831C487.138 85.4048 487.432 85.0722 487.808 84.8331C488.187 84.594 488.63 84.4744 489.137 84.4744C489.444 84.4744 489.743 84.5253 490.031 84.6271C490.32 84.7289 490.579 84.8887 490.809 85.1065C491.039 85.3243 491.22 85.6072 491.352 85.9553C491.485 86.3009 491.551 86.7211 491.551 87.2159V87.5923H487.215V86.7969H490.511C490.511 86.5175 490.454 86.2701 490.34 86.0547C490.227 85.8369 490.067 85.6652 489.861 85.5398C489.657 85.4143 489.418 85.3516 489.144 85.3516C488.845 85.3516 488.585 85.425 488.362 85.5717C488.142 85.7161 487.972 85.9055 487.851 86.1399C487.733 86.3719 487.673 86.6241 487.673 86.8963V87.5178C487.673 87.8823 487.737 88.1925 487.865 88.4482C487.995 88.7038 488.177 88.8991 488.409 89.0341C488.641 89.1667 488.912 89.233 489.222 89.233C489.423 89.233 489.606 89.2045 489.772 89.1477C489.938 89.0885 490.081 89.0009 490.202 88.8849C490.323 88.7689 490.415 88.6257 490.479 88.4553L491.484 88.6364C491.403 88.9323 491.259 89.1915 491.051 89.4141C490.845 89.6342 490.585 89.8059 490.273 89.929C489.963 90.0497 489.609 90.1101 489.211 90.1101ZM492.729 90V84.5455H493.756V85.4119H493.812C493.912 85.1184 494.087 84.8875 494.338 84.7195C494.591 84.549 494.878 84.4638 495.197 84.4638C495.264 84.4638 495.342 84.4661 495.432 84.4709C495.524 84.4756 495.596 84.4815 495.648 84.4886V85.5043C495.606 85.4924 495.53 85.4794 495.421 85.4652C495.312 85.4486 495.203 85.4403 495.094 85.4403C494.844 85.4403 494.62 85.4936 494.423 85.6001C494.229 85.7043 494.075 85.8499 493.962 86.0369C493.848 86.2216 493.791 86.4323 493.791 86.669V90H492.729ZM497.629 86.7614V90H496.567V84.5455H497.586V85.4332H497.654C497.779 85.1444 497.976 84.9124 498.243 84.7372C498.513 84.562 498.853 84.4744 499.263 84.4744C499.634 84.4744 499.96 84.5526 500.239 84.7088C500.519 84.8627 500.735 85.0923 500.889 85.3977C501.043 85.7031 501.12 86.0807 501.12 86.5305V90H500.058V86.6584C500.058 86.263 499.955 85.9541 499.749 85.7315C499.543 85.5066 499.26 85.3942 498.9 85.3942C498.654 85.3942 498.435 85.4474 498.243 85.554C498.054 85.6605 497.904 85.8168 497.792 86.0227C497.684 86.2263 497.629 86.4725 497.629 86.7614ZM504.895 90.1101C504.357 90.1101 503.894 89.9953 503.506 89.7656C503.12 89.5336 502.822 89.2081 502.611 88.7891C502.403 88.3677 502.299 87.8741 502.299 87.3082C502.299 86.7495 502.403 86.2571 502.611 85.831C502.822 85.4048 503.116 85.0722 503.492 84.8331C503.871 84.594 504.314 84.4744 504.82 84.4744C505.128 84.4744 505.426 84.5253 505.715 84.6271C506.004 84.7289 506.263 84.8887 506.493 85.1065C506.722 85.3243 506.903 85.6072 507.036 85.9553C507.169 86.3009 507.235 86.7211 507.235 87.2159V87.5923H502.899V86.7969H506.194C506.194 86.5175 506.138 86.2701 506.024 86.0547C505.91 85.8369 505.751 85.6652 505.545 85.5398C505.341 85.4143 505.102 85.3516 504.827 85.3516C504.529 85.3516 504.269 85.425 504.046 85.5717C503.826 85.7161 503.655 85.9055 503.535 86.1399C503.416 86.3719 503.357 86.6241 503.357 86.8963V87.5178C503.357 87.8823 503.421 88.1925 503.549 88.4482C503.679 88.7038 503.86 88.8991 504.092 89.0341C504.324 89.1667 504.595 89.233 504.905 89.233C505.107 89.233 505.29 89.2045 505.456 89.1477C505.622 89.0885 505.765 89.0009 505.885 88.8849C506.006 88.7689 506.099 88.6257 506.162 88.4553L507.167 88.6364C507.087 88.9323 506.943 89.1915 506.734 89.4141C506.528 89.6342 506.269 89.8059 505.956 89.929C505.646 90.0497 505.292 90.1101 504.895 90.1101ZM510.959 84.5455V85.3977H507.98V84.5455H510.959ZM508.779 83.2386H509.841V88.3984C509.841 88.6044 509.871 88.7595 509.933 88.8636C509.994 88.9654 510.074 89.0353 510.171 89.0732C510.27 89.1087 510.378 89.1264 510.494 89.1264C510.579 89.1264 510.654 89.1205 510.718 89.1087C510.782 89.0968 510.831 89.0874 510.867 89.0803L511.059 89.9574C510.997 89.9811 510.909 90.0047 510.796 90.0284C510.682 90.0545 510.54 90.0687 510.37 90.071C510.09 90.0758 509.83 90.026 509.588 89.9219C509.347 89.8177 509.152 89.6567 509.002 89.4389C508.853 89.2211 508.779 88.9477 508.779 88.6186V83.2386ZM513.515 89.0057L513.462 89.3928C513.426 89.6768 513.366 89.9728 513.281 90.2805C513.198 90.5907 513.111 90.8783 513.021 91.1435C512.934 91.4086 512.862 91.6193 512.805 91.7756H512.052C512.083 91.6288 512.125 91.4299 512.18 91.179C512.234 90.9304 512.288 90.6522 512.34 90.3445C512.392 90.0367 512.431 89.723 512.457 89.4034L512.492 89.0057H513.515ZM520.09 84.5455V85.3977H517.111V84.5455H520.09ZM517.91 83.2386H518.971V88.3984C518.971 88.6044 519.002 88.7595 519.064 88.8636C519.125 88.9654 519.205 89.0353 519.302 89.0732C519.401 89.1087 519.509 89.1264 519.625 89.1264C519.71 89.1264 519.785 89.1205 519.849 89.1087C519.912 89.0968 519.962 89.0874 519.998 89.0803L520.189 89.9574C520.128 89.9811 520.04 90.0047 519.927 90.0284C519.813 90.0545 519.671 90.0687 519.501 90.071C519.221 90.0758 518.961 90.026 518.719 89.9219C518.478 89.8177 518.282 89.6567 518.133 89.4389C517.984 89.2211 517.91 88.9477 517.91 88.6186V83.2386ZM521.467 90V82.7273H522.529V85.4297H522.593C522.654 85.3161 522.743 85.1847 522.859 85.0355C522.975 84.8864 523.136 84.7562 523.342 84.6449C523.548 84.5312 523.82 84.4744 524.159 84.4744C524.599 84.4744 524.992 84.5857 525.338 84.8082C525.683 85.0308 525.954 85.3516 526.151 85.7706C526.35 86.1896 526.449 86.6939 526.449 87.2834C526.449 87.8729 526.351 88.3783 526.154 88.7997C525.958 89.2187 525.688 89.5419 525.345 89.7692C525.002 89.9941 524.61 90.1065 524.169 90.1065C523.838 90.1065 523.567 90.0509 523.356 89.9396C523.148 89.8284 522.984 89.6982 522.866 89.549C522.748 89.3999 522.657 89.2673 522.593 89.1513H522.504V90H521.467ZM522.507 87.2727C522.507 87.6562 522.563 87.9924 522.674 88.2812C522.786 88.5701 522.947 88.7962 523.157 88.9595C523.368 89.1205 523.626 89.201 523.931 89.201C524.249 89.201 524.514 89.117 524.727 88.9489C524.94 88.7784 525.101 88.5476 525.21 88.2564C525.321 87.9652 525.377 87.6373 525.377 87.2727C525.377 86.9129 525.322 86.5897 525.213 86.3033C525.107 86.0168 524.946 85.7907 524.73 85.625C524.517 85.4593 524.251 85.3764 523.931 85.3764C523.624 85.3764 523.363 85.4557 523.15 85.6143C522.94 85.773 522.78 85.9943 522.671 86.2784C522.562 86.5625 522.507 86.8939 522.507 87.2727ZM528.703 86.7614V90H527.642V82.7273H528.689V85.4332H528.757C528.884 85.1397 529.08 84.9065 529.343 84.7337C529.605 84.5608 529.949 84.4744 530.372 84.4744C530.746 84.4744 531.073 84.5514 531.352 84.7053C531.634 84.8591 531.852 85.0888 532.006 85.3942C532.162 85.6972 532.24 86.076 532.24 86.5305V90H531.178V86.6584C531.178 86.2583 531.075 85.9482 530.869 85.728C530.664 85.5054 530.377 85.3942 530.01 85.3942C529.759 85.3942 529.534 85.4474 529.335 85.554C529.139 85.6605 528.984 85.8168 528.87 86.0227C528.759 86.2263 528.703 86.4725 528.703 86.7614ZM535.699 86.9815C535.699 87.8741 535.582 88.6944 535.347 89.4425C535.113 90.1906 534.771 90.8807 534.321 91.5128H533.348C533.523 91.2784 533.687 90.9908 533.838 90.6499C533.99 90.3089 534.122 89.9361 534.236 89.5312C534.35 89.1241 534.438 88.7027 534.502 88.267C534.566 87.8314 534.598 87.4029 534.598 86.9815C534.598 86.4205 534.543 85.8511 534.431 85.2734C534.32 84.6958 534.17 84.1596 533.98 83.6648C533.791 83.17 533.58 82.7663 533.348 82.4538H534.321C534.771 83.0859 535.113 83.776 535.347 84.5241C535.582 85.2723 535.699 86.0914 535.699 86.9815Z" fill="#234A83"/>
<path fill-rule="evenodd" clip-rule="evenodd" d="M416.6 33.1651C420.643 46.3839 421.071 61.2848 414.816 74.8381C407.053 91.6583 393.196 95.5336 381.98 98.6701C381.749 98.7348 381.519 98.7991 381.29 98.8633C375.505 100.484 370.752 101.91 367.429 104.595C364.31 107.115 362.265 110.926 362.499 117.933C362.746 125.348 363.488 132.28 364.183 138.561C364.218 138.874 364.253 139.186 364.287 139.497C364.938 145.367 365.532 150.722 365.563 155.236C365.594 159.936 365.032 164.161 362.921 167.228C360.687 170.473 357.042 172 352 172C343.932 172 336.949 169.416 330.69 166.174C327.565 164.556 324.593 162.759 321.76 161.028C321.543 160.895 321.327 160.763 321.111 160.631C318.497 159.033 316.011 157.513 313.557 156.201C308.232 153.355 303.386 151.678 298.414 152.364C293.477 153.045 287.979 156.122 281.531 163.788C268.168 179.671 249.532 195.726 226.466 199.721C203.239 203.743 176.107 195.449 146.052 163.879C138.734 156.193 132.553 152.286 127.325 150.986C122.22 149.716 117.815 150.878 113.777 153.872C109.656 156.928 105.919 161.901 102.43 168.198C98.9543 174.471 95.81 181.9 92.8045 189.718C91.1135 194.116 89.4624 198.653 87.8206 203.165C83.6798 214.544 79.5979 225.762 75.083 234.18C71.9311 240.056 68.3959 244.923 64.1917 247.53C62.0477 248.859 59.7082 249.614 57.1783 249.589C54.6577 249.564 52.0919 248.767 49.4812 247.221C42.0796 242.838 36.1677 241.227 31.5006 241.312C26.8876 241.396 23.3265 243.138 20.5511 245.815C15.9922 250.212 13.5046 257.199 12.4891 263.562L21.7807 256.415L24.2196 259.585L9.40162 270.984L0.263672 254.992L3.73664 253.008L8.74065 261.765C9.95558 255.164 12.6791 247.85 17.7742 242.935C21.2196 239.612 25.7273 237.416 31.4279 237.313C37.0743 237.21 43.7207 239.162 51.5191 243.779C53.6584 245.046 55.5418 245.573 57.2178 245.589C58.8844 245.606 60.4887 245.119 62.084 244.13C65.3583 242.1 68.4833 238.022 71.558 232.289C75.9286 224.14 79.8495 213.365 83.9451 202.109C85.6108 197.531 87.3054 192.874 89.0709 188.282C92.0965 180.412 95.3194 172.778 98.9314 166.259C102.53 159.763 106.602 154.213 111.395 150.659C116.271 147.043 121.886 145.511 128.291 147.104C134.573 148.667 141.391 153.182 148.949 161.121C178.394 192.051 204.262 199.507 225.784 195.779C247.468 192.024 265.332 176.829 278.47 161.212C285.271 153.128 291.586 149.268 297.868 148.402C304.114 147.54 309.893 149.707 315.443 152.674C318.004 154.043 320.587 155.622 323.178 157.206C323.4 157.342 323.623 157.478 323.846 157.615C326.681 159.347 329.544 161.077 332.529 162.622C338.489 165.709 344.818 168 352 168C356.208 168 358.376 166.776 359.626 164.96C361 162.964 361.593 159.814 361.563 155.264C361.534 150.964 360.961 145.802 360.299 139.828L360.208 139.001C359.512 132.72 358.754 125.652 358.501 118.067C358.235 110.073 360.628 104.947 364.915 101.483C368.999 98.1838 374.62 96.5782 380.211 95.0117L380.659 94.8861C391.954 91.7232 404.2 88.2942 411.184 73.1619C416.929 60.7151 416.607 46.8661 412.775 34.3349C408.938 21.7873 401.635 10.7524 393.706 4.02501L396.294 0.974976C404.865 8.24761 412.563 19.9627 416.6 33.1651Z" fill="#234A83"/>
<path d="M408 8C408 12.4183 404.418 16 400 16C395.582 16 392 12.4183 392 8C392 3.58172 395.582 0 400 0C404.418 0 408 3.58172 408 8Z" fill="#234A83"/>
</svg>
