<svg width="264" height="264" viewBox="0 0 264 264" fill="none" xmlns="http://www.w3.org/2000/svg">
<path d="M264 132C264 204.902 204.901 264 132 264C59.0982 264 -0.000244141 204.902 -0.000244141 132C-0.000244141 59.0987 59.0982 0.000305176 132 0.000305176C204.901 0.000305176 264 59.0987 264 132Z" fill="white"/>
<path d="M17.0281 130.277C17.03 130.154 17.0993 130.094 17.2362 130.096L25.2193 130.22C25.3181 130.222 25.3899 130.25 25.4347 130.304C25.4721 130.35 25.4899 130.427 25.4882 130.535L25.4661 131.982C25.4645 132.082 25.4445 132.15 25.4059 132.188C25.3674 132.218 25.3063 132.232 25.2227 132.231L17.2168 132.107C17.0723 132.104 17.001 132.042 17.0029 131.919L17.0281 130.277Z" fill="#2704FF"/>
<path d="M20.4197 128.294C20.4173 128.347 20.3926 128.388 20.3456 128.417C20.2989 128.438 20.2572 128.436 20.2202 128.411L19.1036 127.864C19.0138 127.829 18.9496 127.819 18.911 127.832C18.865 127.838 18.8329 127.875 18.8145 127.943L18.7947 128.126C18.7832 128.21 18.7614 128.27 18.7293 128.307C18.6975 128.336 18.6474 128.349 18.579 128.346L17.2802 128.285C17.151 128.279 17.0891 128.219 17.0944 128.104L17.1609 126.658C17.1659 126.551 17.2253 126.5 17.3392 126.505L18.5697 126.563C18.6153 126.565 18.6602 126.582 18.7043 126.615L20.2633 127.723C20.3223 127.764 20.3654 127.82 20.3926 127.89C20.4199 127.96 20.4319 128.03 20.4287 128.099L20.4197 128.294Z" fill="#2704FF"/>
<path d="M25.5923 125.765C25.5751 125.925 25.4796 125.995 25.3057 125.977L17.3681 125.11C17.2245 125.094 17.1597 125.022 17.1736 124.892L17.4279 122.528C17.4369 122.444 17.4548 122.384 17.4816 122.349C17.5084 122.313 17.557 122.288 17.6275 122.272L22.5643 121.066C22.6348 121.051 22.6716 121.028 22.6749 120.997C22.6706 120.966 22.6395 120.936 22.5815 120.906L18.0979 118.752C17.929 118.688 17.851 118.595 17.8641 118.473L18.1283 116.017C18.1406 115.903 18.2148 115.853 18.3509 115.868L26.2884 116.734C26.4699 116.754 26.5503 116.859 26.5299 117.049L26.3714 118.523C26.3615 118.614 26.3357 118.677 26.2938 118.711C26.2527 118.737 26.1944 118.746 26.1188 118.738L20.4717 118.122C20.4188 118.116 20.3945 118.129 20.3988 118.16C20.3963 118.183 20.4207 118.205 20.472 118.226L25.938 120.845C26.0541 120.904 26.1059 120.99 26.0937 121.105L25.9917 122.053C25.9777 122.182 25.9083 122.259 25.7832 122.284L19.969 123.649C19.8985 123.664 19.8654 123.688 19.8697 123.719C19.8748 123.743 19.9075 123.758 19.968 123.764L25.5357 124.372C25.6113 124.38 25.6625 124.401 25.6895 124.435C25.7173 124.461 25.7267 124.516 25.7177 124.6L25.5923 125.765Z" fill="#2704FF"/>
<path d="M19.8517 106.578C19.9508 106.145 20.1061 105.757 20.3175 105.413C20.5232 105.06 20.7713 104.76 21.0619 104.513C21.3526 104.266 21.6674 104.083 22.0065 103.966C22.3473 103.84 22.6987 103.788 23.0606 103.81C23.186 103.807 23.2646 103.822 23.2965 103.853C23.3302 103.876 23.343 103.922 23.335 103.991L23.0891 105.526C23.0737 105.593 23.0523 105.635 23.025 105.653C22.9919 105.661 22.944 105.665 22.8814 105.666C22.4773 105.659 22.1256 105.746 21.8265 105.928C21.5199 106.109 21.3179 106.412 21.2205 106.837C21.0923 107.397 21.2175 107.89 21.596 108.316C21.9688 108.732 22.6554 109.057 23.6556 109.289C24.6485 109.52 25.4051 109.538 25.9254 109.345C26.44 109.142 26.7665 108.738 26.9049 108.134C27.004 107.701 26.982 107.303 26.8389 106.939C26.6958 106.576 26.388 106.233 25.9154 105.911C25.8556 105.866 25.8521 105.779 25.9051 105.649L26.3897 104.606C26.4056 104.571 26.4355 104.542 26.4794 104.521C26.5159 104.498 26.588 104.507 26.6957 104.548C26.8428 104.621 27.0072 104.738 27.1891 104.898C27.3726 105.051 27.555 105.243 27.7363 105.473C27.9102 105.703 28.059 105.973 28.1827 106.285C28.3081 106.589 28.39 106.93 28.4282 107.309C28.4591 107.685 28.4232 108.097 28.3207 108.545C28.1447 109.314 27.8094 109.944 27.3148 110.434C26.8219 110.917 26.2181 111.237 25.5034 111.393C24.7888 111.549 24.0054 111.528 23.1533 111.33C22.2938 111.131 21.5916 110.806 21.0467 110.358C20.4943 109.907 20.1127 109.358 19.9017 108.712C19.6907 108.066 19.6741 107.354 19.8517 106.578Z" fill="#2704FF"/>
<path d="M28.2836 96.6731C29.0457 96.9127 29.6147 97.236 29.9904 97.643C30.3662 98.05 30.5761 98.5293 30.6203 99.0808C30.6646 99.6323 30.5813 100.248 30.3707 100.928C30.1238 101.725 29.8022 102.326 29.4059 102.731C29.0046 103.127 28.5268 103.358 27.9725 103.424C27.4132 103.481 26.7743 103.396 26.0557 103.17L21.3848 101.702C21.2396 101.656 21.1851 101.575 21.2214 101.458L21.7107 99.8787C21.7446 99.769 21.827 99.7347 21.9576 99.7758L26.8898 101.326C27.485 101.513 27.9566 101.521 28.3044 101.35C28.6545 101.171 28.9044 100.84 29.0539 100.358C29.149 100.051 29.1784 99.7629 29.142 99.4947C29.0983 99.2242 28.9699 98.9832 28.7566 98.7717C28.5433 98.5602 28.2262 98.3883 27.8052 98.256L22.9165 96.7191C22.7786 96.6758 22.7266 96.5993 22.7606 96.4896L23.1479 95.2392C23.1819 95.1295 23.2642 95.0952 23.3949 95.1363L28.2836 96.6731Z" fill="#2704FF"/>
<path d="M34.0899 89.5419C34.1788 89.5448 34.2444 89.5754 34.2868 89.6338C34.3319 89.6851 34.3403 89.7462 34.312 89.8173L33.6878 91.3849C33.6397 91.5058 33.5451 91.5583 33.4039 91.5425L29.9812 91.4966C29.8654 91.4993 29.7764 91.5789 29.7141 91.7353L29.3108 92.7484C29.2909 92.7981 29.2909 92.8394 29.3106 92.8721C29.3332 92.8977 29.3551 92.9148 29.3763 92.9234L32.3086 94.1082C32.478 94.1766 32.5244 94.3068 32.448 94.4988L31.9088 95.8531C31.8748 95.9384 31.8331 95.9917 31.7836 96.013C31.737 96.0272 31.6784 96.02 31.6079 95.9915L24.1659 92.9846C24.0318 92.9304 23.9874 92.8464 24.0327 92.7327L25.3575 89.4055C25.7368 88.4529 26.2182 87.7891 26.8017 87.4141C27.388 87.0321 28.027 86.9808 28.7186 87.2602C29.0786 87.4056 29.3728 87.6029 29.6013 87.8521C29.8298 88.1012 29.9955 88.3745 30.0982 88.6718C30.194 88.9664 30.2354 89.2637 30.2224 89.5638C30.2181 89.6363 30.2653 89.6719 30.3642 89.6706L34.0899 89.5419ZM28.5924 90.9107C28.7537 90.5054 28.7922 90.162 28.7077 89.8802C28.619 89.5886 28.4088 89.3757 28.0771 89.2417C27.7313 89.102 27.4263 89.1067 27.1622 89.2558C26.898 89.4049 26.6937 89.6607 26.5493 90.0233L26.0271 91.3349C25.9733 91.47 26.0064 91.5618 26.1264 91.6103L27.8307 92.2989C27.9507 92.3474 28.0305 92.3219 28.0701 92.2223L28.5924 90.9107Z" fill="#2704FF"/>
<path d="M37.7329 82.0107C37.8213 82.0207 37.8844 82.0564 37.922 82.1179C37.963 82.1725 37.9667 82.2342 37.933 82.3028L37.1891 83.8165C37.1317 83.9332 37.0333 83.9781 36.8938 83.9513L33.4851 83.636C33.3695 83.6296 33.2746 83.7019 33.2003 83.8529L32.7196 84.8311C32.696 84.8792 32.6928 84.9203 32.7099 84.9545C32.7304 84.9818 32.7509 85.0006 32.7713 85.0108L35.6027 86.4228C35.7663 86.5044 35.8025 86.6379 35.7114 86.8232L35.0688 88.1309C35.0283 88.2133 34.9826 88.2631 34.9316 88.2805C34.8841 88.2909 34.8262 88.2792 34.7581 88.2452L27.5722 84.6615C27.4427 84.597 27.4049 84.5098 27.4589 84.3999L29.0378 81.1873C29.4898 80.2674 30.0213 79.6435 30.6321 79.3157C31.2463 78.9809 31.8873 78.9801 32.5551 79.3131C32.9027 79.4865 33.1807 79.7063 33.3891 79.9727C33.5976 80.239 33.7416 80.5245 33.821 80.8291C33.8936 81.1302 33.9118 81.4299 33.8755 81.7281C33.8656 81.8001 33.91 81.8393 34.0086 81.8457L37.7329 82.0107ZM32.146 82.9425C32.3383 82.5512 32.4033 82.2118 32.3409 81.9243C32.2752 81.6266 32.0821 81.3978 31.7618 81.2381C31.4279 81.0716 31.1235 81.0522 30.8486 81.1801C30.5736 81.3079 30.3501 81.5469 30.1781 81.897L29.5556 83.1635C29.4915 83.2939 29.5174 83.388 29.6332 83.4458L31.2789 84.2665C31.3948 84.3243 31.4763 84.3051 31.5236 84.209L32.146 82.9425Z" fill="#2704FF"/>
<path d="M31.6189 76.6499C31.4945 76.5759 31.4633 76.4861 31.5251 76.3806L34.449 71.3947C34.507 71.2958 34.5916 71.2795 34.7029 71.3457L35.5809 71.8815C35.7184 71.9634 35.7466 72.0735 35.6653 72.212L33.8147 75.3677C33.7413 75.493 33.7569 75.5869 33.8616 75.6492L35.2856 76.4966C35.3969 76.5628 35.4815 76.5465 35.5395 76.4475L36.7694 74.3503C36.8352 74.2382 36.9204 74.2133 37.0252 74.2756L37.9679 74.8367C38.0072 74.86 38.0322 74.8927 38.0429 74.9347C38.0575 74.97 38.0474 75.0174 38.0126 75.0767L36.7711 77.1938C36.717 77.2861 36.7292 77.3556 36.8077 77.4024L38.3495 78.3199C38.4346 78.3705 38.4984 78.3596 38.541 78.287L40.525 74.9038C40.5946 74.7851 40.6785 74.7549 40.7767 74.8134L41.7097 75.3685C41.762 75.3997 41.7949 75.4415 41.8083 75.494C41.8256 75.5398 41.8129 75.599 41.7704 75.6716L38.8466 80.6574C38.7615 80.8025 38.6502 80.8342 38.5127 80.7523L31.6189 76.6499Z" fill="#2704FF"/>
<path d="M39.4831 63.9585C39.5398 63.877 39.6149 63.8691 39.7083 63.935L46.3524 68.619C46.396 68.6497 46.4225 68.6918 46.4318 68.7451C46.4349 68.7941 46.4169 68.8468 46.3776 68.9033L45.7171 69.854C45.6822 69.9042 45.6477 69.9406 45.6134 69.9632C45.5792 69.9858 45.5219 70.0015 45.4415 70.0103L39.1689 70.0618C39.1203 70.0649 39.0904 70.0813 39.0792 70.1108C39.0723 70.134 39.0845 70.1566 39.1156 70.1785L43.2273 73.0772C43.3438 73.15 43.3563 73.2523 43.2647 73.3841L42.5846 74.3631C42.4974 74.4886 42.4008 74.514 42.2949 74.4393L35.6976 69.7883C35.5792 69.7048 35.5593 69.6066 35.6377 69.4937L36.4291 68.3546C36.477 68.2856 36.5212 68.242 36.5617 68.2238C36.6066 68.1993 36.6723 68.1849 36.7589 68.1805L42.597 68.1732C42.673 68.1707 42.7166 68.1547 42.7278 68.1252C42.7434 68.0894 42.7231 68.0518 42.6671 68.0123L38.8077 65.2915C38.6956 65.2124 38.6787 65.1164 38.7572 65.0034L39.4831 63.9585Z" fill="#2704FF"/>
<path d="M41.1448 62.0648C41.0979 62.0257 41.072 61.9792 41.0669 61.9253C41.0618 61.8714 41.0835 61.8149 41.1319 61.7559L45.3037 56.6731C45.357 56.6082 45.408 56.5761 45.4567 56.5769C45.5102 56.5718 45.5604 56.5887 45.6073 56.6278L46.4248 57.3087C46.5127 57.3819 46.513 57.4716 46.4258 57.5779L45.0667 59.2338C45.0134 59.2987 45.0161 59.3556 45.0747 59.4044L50.2346 63.7021C50.346 63.7948 50.3604 63.8913 50.2781 63.9917L49.2388 65.258C49.1661 65.3465 49.0799 65.3493 48.9803 65.2663L43.8292 60.976C43.753 60.9125 43.6883 60.9133 43.635 60.9782L42.2323 62.6872C42.1402 62.7994 42.0502 62.8189 41.9623 62.7457L41.1448 62.0648Z" fill="#2704FF"/>
<path d="M47.262 54.7984C47.158 54.6974 47.1483 54.6028 47.2327 54.5146L48.3649 53.3318C48.4493 53.2436 48.5408 53.2474 48.6393 53.3431L53.4259 57.9928C53.4971 58.0619 53.5617 58.0662 53.6198 58.0055L56.1454 55.3672C56.2404 55.2679 56.3289 55.2582 56.411 55.3379L57.191 56.0956C57.2348 56.1381 57.2572 56.1865 57.2582 56.2406C57.2644 56.2893 57.2411 56.3412 57.1884 56.3963L53.3722 60.3828C53.3036 60.4545 53.2424 60.4908 53.1887 60.4918C53.1402 60.4873 53.0859 60.4558 53.0256 60.3973L47.262 54.7984Z" fill="#2704FF"/>
<path d="M57.9216 44.1713C57.9782 44.1202 58.0302 44.104 58.0776 44.1229C58.12 44.1361 58.1499 44.1811 58.1672 44.258L59.1028 49.3541C59.1145 49.4361 59.1429 49.5082 59.188 49.5704C59.228 49.6268 59.3115 49.7263 59.4384 49.8689L61.4179 52.0932C61.5397 52.2301 61.5214 52.3701 61.3629 52.5133L60.3013 53.472C60.2277 53.5385 60.1641 53.5702 60.1104 53.5673C60.0623 53.5592 60.0104 53.5238 59.9546 53.4611L57.9065 51.1598C57.8354 51.0799 57.7736 51.0277 57.7211 51.0031C57.6686 50.9785 57.6025 50.9559 57.5229 50.9353L52.5256 49.3994C52.4408 49.3731 52.3946 49.3326 52.3868 49.2779C52.3739 49.2175 52.4042 49.1541 52.4778 49.0876L53.7517 47.9371C53.8253 47.8707 53.8864 47.8361 53.935 47.8333C53.9836 47.8306 54.0503 47.8424 54.135 47.8687L57.3715 48.9579C57.4562 48.9843 57.5125 48.9901 57.5402 48.9753C57.5628 48.9549 57.5655 48.9062 57.5481 48.8293L56.7932 45.4681C56.7713 45.3747 56.767 45.3066 56.78 45.2639C56.7937 45.2104 56.8345 45.153 56.9024 45.0917L57.9216 44.1713Z" fill="#2704FF"/>
<path d="M66.7606 39.8907C66.5179 39.8411 66.2527 39.8319 65.9648 39.8629C65.683 39.8894 65.3577 40.0378 64.9887 40.3081C64.6013 40.592 64.3638 40.875 64.276 41.1572C64.1838 41.4331 64.216 41.6795 64.3725 41.8963C64.4262 41.9706 64.5028 42.0377 64.6023 42.0973C64.7018 42.157 64.836 42.1866 65.0048 42.186C65.1737 42.1854 65.3819 42.1418 65.6296 42.055L67.3888 41.4052C68.0663 41.1455 68.6595 41.0945 69.1682 41.2522C69.6725 41.4036 70.0879 41.7054 70.4144 42.1576C70.7276 42.5912 70.8897 43.0502 70.9009 43.5345C70.9077 44.0126 70.7677 44.4893 70.481 44.9647C70.1942 45.44 69.768 45.8849 69.2023 46.2995C68.7841 46.6059 68.357 46.8478 67.921 47.0252C67.4866 47.192 67.0632 47.2892 66.6506 47.3168C66.2397 47.3337 65.8671 47.28 65.5328 47.1556C65.4573 47.1162 65.4092 47.0756 65.3885 47.0339C65.3634 46.9861 65.3628 46.9202 65.3868 46.8363L65.7414 45.8234C65.7839 45.726 65.8289 45.6646 65.8764 45.6392C65.9301 45.6094 65.991 45.6026 66.0592 45.6189C66.341 45.6966 66.5973 45.7456 66.8282 45.7658C67.0653 45.7816 67.2992 45.7475 67.5301 45.6636C67.761 45.5796 68.0086 45.4408 68.273 45.247C68.6727 44.9541 68.9477 44.6579 69.0981 44.3583C69.244 44.0525 69.2207 43.7664 69.0284 43.5C68.9524 43.3947 68.8584 43.3167 68.7466 43.2661C68.6303 43.2092 68.4923 43.1872 68.3324 43.2002C68.1742 43.2025 67.9743 43.2447 67.7328 43.327L66.0515 43.948C65.6127 44.1086 65.201 44.183 64.8163 44.1712C64.4317 44.1594 64.0809 44.0707 63.7639 43.9052C63.4531 43.7351 63.1948 43.5076 62.989 43.2227C62.7027 42.8263 62.5532 42.3912 62.5402 41.9176C62.5335 41.4395 62.662 40.9664 62.9259 40.4984C63.1914 40.0197 63.5885 39.5866 64.1173 39.1991C64.4678 38.9422 64.8228 38.7437 65.1823 38.6034C65.5479 38.4587 65.9051 38.3674 66.2539 38.3296C66.6028 38.2919 66.9279 38.3189 67.2292 38.4106C67.2762 38.4236 67.3214 38.4472 67.3651 38.4816C67.4042 38.5097 67.4148 38.5635 67.3969 38.6429L67.0381 39.7867C67.0191 39.8385 66.992 39.8726 66.9568 39.889C66.9171 39.8991 66.8517 39.8997 66.7606 39.8907Z" fill="#2704FF"/>
<path d="M69.0273 36.1317C68.9511 36.008 68.9647 35.9139 69.068 35.8492L73.9518 32.7946C74.0487 32.734 74.1312 32.759 74.1994 32.8696L74.7312 33.7542C74.8154 33.8909 74.7897 34.0016 74.654 34.0865L71.563 36.0198C71.4402 36.0966 71.4109 36.1871 71.4751 36.2912L72.3475 37.7066C72.4157 37.8172 72.4982 37.8422 72.5951 37.7816L74.6494 36.4967C74.7592 36.428 74.8462 36.4457 74.9104 36.5499L75.488 37.4869C75.512 37.526 75.5192 37.5666 75.5094 37.6088C75.506 37.6469 75.4753 37.6842 75.4172 37.7206L73.3435 39.0176C73.2531 39.0741 73.2319 39.1415 73.2801 39.2196L74.2246 40.7521C74.2768 40.8367 74.3384 40.8567 74.4094 40.8123L77.7234 38.7395C77.8397 38.6668 77.9279 38.6792 77.9881 38.7768L78.5596 39.7042C78.5917 39.7562 78.6016 39.8086 78.5894 39.8614C78.5836 39.9101 78.5452 39.9566 78.4741 40.0011L73.5904 43.0557C73.4483 43.1446 73.3351 43.1207 73.2509 42.984L69.0273 36.1317Z" fill="#2704FF"/>
<path d="M75.8035 31.9771C75.7361 31.8484 75.7562 31.7554 75.8638 31.6982L80.9477 28.9953C81.0485 28.9417 81.1292 28.9725 81.1895 29.0876L81.6585 30.0075C81.7331 30.1498 81.6997 30.2584 81.5585 30.3335L78.3407 32.0443C78.2129 32.1122 78.1775 32.2004 78.2342 32.3088L79.0062 33.7822C79.0665 33.8973 79.1471 33.9281 79.248 33.8745L81.3865 32.7375C81.5008 32.6768 81.5863 32.7006 81.6431 32.8089L82.1542 33.7844C82.1755 33.8251 82.1798 33.8661 82.1671 33.9075C82.1611 33.9453 82.1279 33.9803 82.0673 34.0125L79.9087 35.1602C79.8145 35.2102 79.7888 35.2759 79.8314 35.3572L80.6672 36.9525C80.7133 37.0406 80.7734 37.065 80.8473 37.0256L84.2971 35.1915C84.4182 35.1272 84.5053 35.1458 84.5586 35.2474L85.0643 36.2127C85.0927 36.2669 85.099 36.3199 85.0831 36.3716C85.0739 36.4198 85.0324 36.4636 84.9584 36.5029L79.8745 39.2058C79.7266 39.2845 79.6153 39.2526 79.5408 39.1104L75.8035 31.9771Z" fill="#2704FF"/>
<path d="M92.7051 32.7058C92.7675 32.7534 92.804 32.8083 92.8146 32.8706C92.8221 32.9258 92.7841 32.972 92.7006 33.0091L91.135 33.7041C90.982 33.772 90.8565 33.7607 90.7588 33.6702L87.6342 31.1147C87.5517 31.0592 87.4917 31.1026 87.4542 31.2448L87.0129 32.7717C86.9956 32.8463 87.007 32.9291 87.0468 33.0203L87.8563 34.8708C87.9268 35.032 87.8682 35.1543 87.6803 35.2377L86.3652 35.8215C86.2747 35.8616 86.2045 35.8719 86.1543 35.8523C86.1112 35.8296 86.0743 35.7832 86.0436 35.7131L82.8102 28.3217C82.7519 28.1885 82.7785 28.0972 82.8898 28.0478L84.3928 27.3806C84.4971 27.3343 84.5754 27.3707 84.6275 27.4898L86.0028 30.6336C86.0304 30.6966 86.0561 30.7271 86.0801 30.7248C86.1079 30.7124 86.13 30.6775 86.1464 30.62L87.274 26.3025C87.2912 26.2279 87.318 26.1657 87.3545 26.1161C87.3909 26.0664 87.4544 26.0215 87.5448 25.9813L88.7973 25.4253C88.8878 25.3852 88.9611 25.3819 89.0174 25.4155C89.0806 25.4461 89.0982 25.5052 89.0701 25.593L88.101 28.8483C88.076 28.9431 88.1058 29.0303 88.1905 29.1099L92.7051 32.7058Z" fill="#2704FF"/>
<path d="M92.546 24.0244C92.66 23.9814 92.7409 24.0244 92.789 24.1535L95.5939 31.6837C95.6286 31.7769 95.6291 31.8544 95.5953 31.9163C95.5659 31.9683 95.5014 32.0132 95.4017 32.0508L94.0562 32.5594C93.9636 32.5944 93.8929 32.6007 93.8439 32.5783C93.8021 32.5532 93.7665 32.5012 93.7371 32.4223L90.9242 24.8706C90.8735 24.7344 90.9051 24.6447 91.019 24.6016L92.546 24.0244Z" fill="#2704FF"/>
<path d="M101.318 21.1644C101.413 21.1354 101.477 21.1759 101.51 21.2859L103.867 29.1023C103.883 29.1536 103.878 29.2032 103.852 29.251C103.825 29.2914 103.778 29.3217 103.713 29.3417L102.611 29.679C102.552 29.6968 102.503 29.704 102.462 29.7004C102.421 29.6969 102.367 29.6736 102.298 29.6306L97.3314 25.7708C97.2912 25.7431 97.2577 25.7373 97.2308 25.7536C97.2112 25.7676 97.2069 25.7929 97.218 25.8296L98.6767 30.6668C98.7238 30.7965 98.6709 30.8847 98.5181 30.9314L97.3832 31.2788C97.2376 31.3233 97.1461 31.2833 97.1085 31.1587L94.7679 23.3972C94.7259 23.2579 94.7703 23.1683 94.9013 23.1282L96.2218 22.7241C96.3018 22.6996 96.3634 22.6928 96.4064 22.7036C96.4567 22.7122 96.5172 22.7417 96.588 22.7921L101.186 26.4165C101.247 26.4618 101.291 26.4763 101.318 26.4601C101.352 26.4416 101.359 26.3994 101.339 26.3335L99.9702 21.7931C99.9304 21.6612 99.976 21.5752 100.107 21.5351L101.318 21.1644Z" fill="#2704FF"/>
<path d="M109.429 28.0947C108.678 28.257 107.983 28.2232 107.343 27.9934C106.71 27.7619 106.174 27.3608 105.734 26.7901C105.293 26.2194 104.982 25.5072 104.8 24.6534C104.612 23.7697 104.609 22.9712 104.791 22.258C104.974 21.5448 105.314 20.9504 105.811 20.4746C106.316 19.9973 106.952 19.6758 107.717 19.5103C108.32 19.3801 108.883 19.3797 109.409 19.509C109.934 19.6383 110.38 19.8514 110.746 20.1482C111.12 20.4434 111.387 20.7852 111.548 21.1735C111.602 21.2794 111.621 21.3535 111.607 21.3958C111.6 21.4364 111.561 21.4723 111.49 21.5033L110.066 22.0462C109.999 22.0607 109.951 22.0554 109.922 22.0302C109.901 22.0035 109.877 21.9618 109.849 21.9051C109.752 21.6676 109.611 21.463 109.427 21.2913C109.25 21.118 109.037 20.9956 108.788 20.9239C108.546 20.8432 108.272 20.8358 107.967 20.9017C107.603 20.9805 107.308 21.1461 107.081 21.3987C106.863 21.6497 106.727 22.0001 106.675 22.4501C106.631 22.8984 106.681 23.4633 106.826 24.1449C106.98 24.8638 107.172 25.4215 107.405 25.8179C107.644 26.2126 107.919 26.4784 108.228 26.6153C108.543 26.743 108.89 26.766 109.269 26.684C109.507 26.6326 109.708 26.5539 109.872 26.4479C110.042 26.3328 110.177 26.2017 110.278 26.0545C110.386 25.9058 110.465 25.7477 110.515 25.5802C110.564 25.4053 110.589 25.2314 110.591 25.0586L110.544 24.728C110.549 24.6092 110.5 24.5611 110.396 24.5836L109.047 24.8753C108.987 24.8881 108.94 24.8865 108.906 24.8705C108.87 24.847 108.844 24.7977 108.828 24.7229L108.648 23.8803C108.626 23.7755 108.674 23.7102 108.793 23.6845L111.773 23.052C111.885 23.0279 111.972 23.0365 112.035 23.0776C112.097 23.1113 112.136 23.1694 112.154 23.2517L112.96 27.0376C112.972 27.09 112.966 27.1344 112.942 27.1708C112.919 27.2072 112.881 27.231 112.829 27.2423L112.472 27.3194C112.413 27.3323 112.358 27.3323 112.309 27.3195C112.258 27.2992 112.203 27.2601 112.144 27.2024L111.648 26.4634C111.636 26.4426 111.619 26.4345 111.596 26.4394C111.582 26.4426 111.563 26.4661 111.542 26.51C111.443 26.7037 111.311 26.9084 111.147 27.124C110.982 27.3322 110.762 27.5245 110.489 27.7012C110.214 27.8703 109.861 28.0015 109.429 28.0947Z" fill="#2704FF"/>
<path d="M116.842 18.2332C116.827 18.0885 116.879 18.0095 117 17.9963L122.625 17.3824C122.738 17.37 122.802 17.4285 122.816 17.558L122.915 18.5873C122.932 18.7472 122.865 18.8354 122.714 18.8519L119.176 19.2381C119.032 19.2538 118.967 19.3226 118.98 19.4444L119.171 21.215C119.184 21.3368 119.247 21.3915 119.36 21.3792L121.821 21.1106C121.942 21.0974 122.009 21.1517 122.022 21.2735L122.139 22.3587C122.15 22.4653 122.099 22.5248 121.986 22.5372L119.503 22.8083C119.397 22.8198 119.349 22.8751 119.36 22.9741L119.687 26.0126C119.706 26.1877 119.617 26.286 119.42 26.3075L117.98 26.4647C117.882 26.4754 117.812 26.4638 117.77 26.4298C117.735 26.3951 117.714 26.3358 117.705 26.252L116.842 18.2332Z" fill="#2704FF"/>
<path d="M131.628 22.3628C131.656 23.1666 131.541 23.8144 131.284 24.3063C131.028 24.7981 130.648 25.1563 130.146 25.3808C129.644 25.6053 129.04 25.73 128.333 25.7547C127.505 25.7837 126.835 25.6768 126.325 25.4341C125.821 25.1835 125.447 24.8057 125.201 24.3008C124.963 23.7879 124.831 23.1526 124.805 22.3947L124.635 17.4686C124.629 17.3155 124.688 17.2368 124.809 17.2326L126.451 17.1751C126.565 17.1711 126.624 17.238 126.629 17.3758L126.808 22.5775C126.83 23.2052 126.979 23.6561 127.254 23.93C127.538 24.2037 127.93 24.3317 128.432 24.3142C128.751 24.303 129.03 24.2357 129.269 24.1124C129.508 23.9814 129.691 23.7796 129.819 23.5068C129.946 23.2341 130.003 22.8757 129.987 22.4317L129.809 17.276C129.804 17.1305 129.859 17.0558 129.973 17.0518L131.272 17.0063C131.386 17.0023 131.446 17.0692 131.45 17.207L131.628 22.3628Z" fill="#2704FF"/>
<path d="M134.067 17.2585C134.073 17.1131 134.137 17.043 134.259 17.0482L135.888 17.1179C136.01 17.1231 136.068 17.1946 136.062 17.3324L135.78 24.0249C135.776 24.1243 135.815 24.1759 135.899 24.1795L139.534 24.335C139.671 24.3409 139.737 24.4012 139.732 24.516L139.686 25.6065C139.683 25.6677 139.662 25.7167 139.623 25.7533C139.591 25.7903 139.537 25.8071 139.461 25.8039L133.968 25.5688C133.869 25.5646 133.802 25.5426 133.765 25.5027C133.737 25.4631 133.724 25.4012 133.728 25.3171L134.067 17.2585Z" fill="#2704FF"/>
<path d="M141.969 17.6732C141.985 17.5285 142.054 17.4631 142.175 17.4767L143.795 17.66C143.916 17.6737 143.969 17.749 143.954 17.8861L143.212 24.5428C143.201 24.6417 143.237 24.6959 143.32 24.7053L146.936 25.1142C147.072 25.1295 147.134 25.1943 147.121 25.3085L147 26.3932C146.993 26.4541 146.969 26.5015 146.927 26.5352C146.892 26.5699 146.837 26.5829 146.762 26.5744L141.299 25.9566C141.2 25.9455 141.134 25.9188 141.101 25.8764C141.075 25.835 141.067 25.7724 141.076 25.6886L141.969 17.6732Z" fill="#2704FF"/>
<path d="M152.36 19.0253C152.373 18.9654 152.402 18.9207 152.447 18.8913C152.492 18.8619 152.552 18.8552 152.626 18.8713L159.028 20.255C159.109 20.2727 159.161 20.3035 159.183 20.3474C159.212 20.3929 159.22 20.4456 159.208 20.5055L158.985 21.5502C158.961 21.6626 158.882 21.7043 158.748 21.6754L156.663 21.2246C156.581 21.2069 156.532 21.2355 156.516 21.3104L155.112 27.9047C155.081 28.047 155.003 28.1045 154.877 28.0772L153.282 27.7325C153.17 27.7084 153.128 27.6327 153.155 27.5053L154.558 20.9222C154.578 20.8248 154.548 20.7673 154.466 20.7496L152.314 20.2844C152.172 20.2538 152.114 20.1824 152.138 20.0701L152.36 19.0253Z" fill="#2704FF"/>
<path d="M163.162 21.3824C163.28 21.4149 163.32 21.4976 163.284 21.6305L161.166 29.3853C161.14 29.4813 161.095 29.5444 161.032 29.5745C160.978 29.5992 160.899 29.5974 160.797 29.5689L159.411 29.185C159.316 29.1585 159.255 29.1218 159.228 29.0747C159.209 29.0297 159.211 28.9665 159.233 28.8853L161.356 21.1083C161.395 20.968 161.472 20.9141 161.59 20.9466L163.162 21.3824Z" fill="#2704FF"/>
<path d="M162.828 30.0678C162.678 30.0147 162.631 29.9049 162.689 29.7386L165.324 22.1467C165.372 22.0093 165.457 21.9621 165.579 22.0051L167.808 22.7902C167.887 22.818 167.94 22.8491 167.969 22.8835C167.997 22.9178 168.011 22.9713 168.01 23.0439L168.058 28.161C168.057 28.2337 168.07 28.275 168.099 28.2852C168.13 28.288 168.167 28.2644 168.208 28.2141L171.306 24.3027C171.407 24.1516 171.515 24.0962 171.63 24.1367L173.945 24.9522C174.052 24.9901 174.083 25.0741 174.038 25.2043L171.403 32.7963C171.342 32.9698 171.223 33.0249 171.043 32.9617L169.654 32.4724C169.568 32.4421 169.513 32.4025 169.49 32.3537C169.474 32.3075 169.478 32.2482 169.503 32.1759L171.378 26.7747C171.396 26.7241 171.389 26.6974 171.358 26.6945C171.336 26.6869 171.31 26.7059 171.278 26.7515L167.507 31.5214C167.424 31.6219 167.329 31.6532 167.221 31.6152L166.327 31.3004C166.205 31.2575 166.146 31.1718 166.151 31.0435L166.148 25.0295C166.149 24.9569 166.134 24.9191 166.103 24.9162C166.079 24.9159 166.057 24.9446 166.037 25.0025L164.188 30.3277C164.163 30.4 164.131 30.4455 164.092 30.4643C164.061 30.4857 164.005 30.4824 163.926 30.4546L162.828 30.0678Z" fill="#2704FF"/>
<path d="M176.378 26.2371C176.437 26.1044 176.522 26.0631 176.633 26.1134L181.876 28.488C181.98 28.5351 182.006 28.618 181.953 28.7368L181.521 29.6752C181.456 29.8219 181.35 29.8623 181.205 29.7963L177.886 28.2934C177.755 28.2337 177.664 28.2597 177.614 28.3715L176.936 29.891C176.883 30.0098 176.908 30.0927 177.012 30.1398L179.218 31.1387C179.335 31.1921 179.369 31.2747 179.32 31.3865L178.871 32.3925C178.852 32.4344 178.822 32.463 178.782 32.4784C178.749 32.4969 178.701 32.4921 178.639 32.4638L176.412 31.4555C176.315 31.4116 176.248 31.4315 176.211 31.5153L175.476 33.1606C175.436 33.2514 175.454 33.3141 175.53 33.3486L179.088 34.96C179.213 35.0165 179.252 35.0972 179.205 35.202L178.76 36.1975C178.736 36.2534 178.698 36.2909 178.648 36.3102C178.604 36.3325 178.545 36.3264 178.468 36.2919L173.225 33.9173C173.073 33.8482 173.029 33.7403 173.095 33.5936L176.378 26.2371Z" fill="#2704FF"/>
<path d="M185.164 40.0683C184.467 39.6605 183.952 39.1594 183.617 38.5651C183.287 37.9642 183.146 37.3015 183.194 36.5769C183.249 35.8561 183.5 35.1083 183.947 34.3333C184.401 33.5451 184.931 32.947 185.535 32.539C186.147 32.1348 186.793 31.9285 187.475 31.92C188.161 31.905 188.846 32.0975 189.53 32.4976C190.213 32.8977 190.715 33.3996 191.036 34.0033C191.366 34.6043 191.505 35.2703 191.453 36.0015C191.405 36.7261 191.153 37.4825 190.699 38.2707C190.252 39.0457 189.728 39.6339 189.127 40.0353C188.533 40.4405 187.895 40.6474 187.213 40.6558C186.531 40.6643 185.848 40.4684 185.164 40.0683ZM185.869 38.8463C186.408 39.1617 186.915 39.1972 187.39 38.9526C187.869 38.7014 188.367 38.1287 188.882 37.2345C189.409 36.3205 189.663 35.5831 189.643 35.0224C189.634 34.4589 189.363 34.0213 188.831 33.7097C188.291 33.3942 187.773 33.3701 187.276 33.6373C186.779 33.9046 186.269 34.4919 185.746 35.3993C185.234 36.2869 184.989 37.0025 185.009 37.5461C185.037 38.0936 185.323 38.5269 185.869 38.8463Z" fill="#2704FF"/>
<path d="M198.976 42.0071C198.655 42.4727 198.275 42.7895 197.835 42.9574C197.399 43.1191 196.935 43.1485 196.441 43.0456C195.953 42.947 195.46 42.723 194.96 42.3735L193.555 41.3904C193.486 41.3424 193.428 41.353 193.38 41.4222L191.754 43.7815C191.654 43.9262 191.523 43.9418 191.361 43.8282L190.162 42.9894C190.087 42.9369 190.044 42.8841 190.035 42.8308C190.031 42.7818 190.052 42.7259 190.095 42.663L194.668 36.0284C194.751 35.9089 194.842 35.8841 194.942 35.954L197.752 37.92C198.252 38.2695 198.654 38.6671 198.958 39.1128C199.268 39.5628 199.434 40.0334 199.456 40.5247C199.479 41.0159 199.318 41.5101 198.976 42.0071ZM197.309 40.7992C197.461 40.579 197.538 40.3669 197.539 40.163C197.545 39.9527 197.485 39.7518 197.358 39.5603C197.23 39.3687 197.054 39.1943 196.83 39.037L195.79 38.3096C195.671 38.2266 195.575 38.2386 195.501 38.3455L194.389 39.9593C194.306 40.0789 194.309 40.1692 194.396 40.2304L195.549 41.0365C195.88 41.268 196.203 41.3635 196.518 41.3227C196.833 41.282 197.097 41.1075 197.309 40.7992Z" fill="#2704FF"/>
<path d="M205.799 47.5673C205.442 48.0054 205.037 48.2905 204.586 48.4224C204.139 48.5484 203.673 48.5401 203.189 48.3976C202.711 48.26 202.237 47.9968 201.767 47.6081L200.444 46.5147C200.38 46.4613 200.321 46.4671 200.268 46.5322L198.459 48.7526C198.348 48.8888 198.216 48.8937 198.063 48.7674L196.935 47.8344C196.864 47.7761 196.826 47.72 196.821 47.6661C196.822 47.617 196.846 47.5629 196.894 47.5037L201.981 41.2599C202.073 41.1474 202.166 41.13 202.26 41.2078L204.905 43.3945C205.375 43.7833 205.744 44.212 206.011 44.6808C206.284 45.1544 206.412 45.6369 206.396 46.1284C206.379 46.6199 206.18 47.0995 205.799 47.5673ZM204.233 46.2286C204.402 46.0214 204.496 45.8162 204.514 45.613C204.536 45.4039 204.492 45.1988 204.381 44.9976C204.269 44.7964 204.107 44.6083 203.896 44.4334L202.917 43.6243C202.806 43.532 202.709 43.5362 202.627 43.6368L201.389 45.1556C201.298 45.2681 201.293 45.3583 201.375 45.4264L202.46 46.3229C202.771 46.5805 203.086 46.7017 203.403 46.6865C203.72 46.6714 203.997 46.5187 204.233 46.2286Z" fill="#2704FF"/>
<path d="M205.6 55.5748C205.02 55.0112 204.638 54.4006 204.454 53.7431C204.275 53.08 204.295 52.4025 204.514 51.7105C204.738 51.0239 205.159 50.358 205.777 49.7128C206.405 49.0567 207.061 48.6032 207.744 48.3523C208.434 48.1068 209.11 48.0619 209.775 48.2177C210.444 48.3679 211.064 48.7195 211.633 49.2725C212.202 49.8255 212.571 50.4336 212.739 51.0968C212.917 51.7599 212.895 52.4402 212.671 53.1377C212.452 53.8296 212.028 54.5037 211.4 55.1599C210.783 55.805 210.135 56.2502 209.456 56.4956C208.783 56.7462 208.114 56.7937 207.45 56.6379C206.786 56.4821 206.169 56.1278 205.6 55.5748ZM206.574 54.5575C207.023 54.9935 207.507 55.1499 208.026 55.0266C208.551 54.8978 209.169 54.4612 209.882 53.7169C210.61 52.956 211.031 52.3009 211.145 51.7517C211.27 51.2023 211.11 50.7122 210.667 50.2815C210.218 49.8455 209.721 49.6975 209.175 49.8375C208.629 49.9776 207.994 50.4253 207.271 51.1806C206.564 51.9195 206.156 52.5554 206.047 53.0882C205.944 53.6264 206.119 54.1162 206.574 54.5575Z" fill="#2704FF"/>
<path d="M214.363 64.3832C214.32 64.462 214.264 64.5073 214.193 64.5191C214.127 64.5368 214.069 64.5169 214.019 64.4594L212.909 63.1937C212.823 63.0961 212.819 62.9873 212.897 62.8673L214.474 59.8073C214.524 59.7019 214.493 59.586 214.383 59.4597L213.665 58.6417C213.63 58.6015 213.593 58.583 213.555 58.586C213.523 58.5948 213.498 58.6069 213.48 58.6221L211.113 60.7293C210.976 60.851 210.84 60.8344 210.704 60.6794L209.745 59.5858C209.684 59.517 209.656 59.4555 209.659 59.4014C209.667 59.3531 209.7 59.3036 209.757 59.2529L215.766 53.9049C215.874 53.8086 215.969 53.8063 216.049 53.8981L218.405 56.5847C219.08 57.3539 219.453 58.0853 219.523 58.7788C219.599 59.4782 219.357 60.0763 218.799 60.5734C218.508 60.832 218.201 61.0082 217.877 61.102C217.554 61.1958 217.237 61.2222 216.927 61.1812C216.623 61.1351 216.341 61.0388 216.08 60.8923C216.018 60.8559 215.965 60.8825 215.922 60.972L214.363 64.3832ZM215.618 58.8204C215.905 59.1476 216.192 59.3364 216.48 59.3869C216.778 59.4381 217.062 59.3445 217.329 59.1061C217.609 58.8576 217.741 58.581 217.728 58.2762C217.714 57.9715 217.579 57.6728 217.322 57.38L216.393 56.3209C216.298 56.2118 216.201 56.2004 216.105 56.2866L214.728 57.5114C214.632 57.5976 214.618 57.6809 214.689 57.7613L215.618 58.8204Z" fill="#2704FF"/>
<path d="M221.423 60.4278C221.471 60.391 221.522 60.3765 221.576 60.3842C221.629 60.3918 221.678 60.4263 221.724 60.4876L225.652 65.7637C225.702 65.8311 225.721 65.8885 225.709 65.936C225.701 65.9896 225.673 66.0348 225.625 66.0716L224.776 66.7127C224.685 66.7817 224.598 66.761 224.516 66.6507L223.236 64.9318C223.186 64.8644 223.131 64.8537 223.07 64.8996L217.714 68.9463C217.598 69.0336 217.501 69.0252 217.424 68.921L216.445 67.6066C216.377 67.5147 216.394 67.4296 216.498 67.3515L221.845 63.3117C221.924 63.252 221.938 63.1884 221.888 63.121L220.567 61.347C220.481 61.2306 220.483 61.1379 220.574 61.0689L221.423 60.4278Z" fill="#2704FF"/>
<path d="M226.22 76.4383C225.546 76.8701 224.934 77.0992 224.383 77.1255C223.832 77.1519 223.333 77.0042 222.886 76.6822C222.439 76.3602 222.026 75.8987 221.647 75.2977C221.202 74.5933 220.954 73.9579 220.902 73.3916C220.861 72.8276 220.995 72.3109 221.302 71.8415C221.62 71.3745 222.096 70.9374 222.732 70.5304L226.86 67.8843C226.988 67.8021 227.085 67.8127 227.15 67.9161L228.032 69.312C228.093 69.4089 228.066 69.4944 227.951 69.5684L223.591 72.3625C223.065 72.6997 222.755 73.0574 222.661 73.4357C222.57 73.8205 222.66 74.2262 222.929 74.6527C223.1 74.9242 223.3 75.1324 223.526 75.2776C223.76 75.4186 224.025 75.4753 224.323 75.4477C224.621 75.4201 224.956 75.2871 225.329 75.0486L229.649 72.2792C229.771 72.2011 229.863 72.2105 229.924 72.3074L230.622 73.4125C230.683 73.5094 230.656 73.5949 230.541 73.6689L226.22 76.4383Z" fill="#2704FF"/>
<path d="M235.042 81.5813C235.088 81.6693 235.06 81.7402 234.96 81.7938L227.788 85.6068C227.741 85.6319 227.691 85.6364 227.64 85.6204C227.595 85.6008 227.557 85.5605 227.525 85.4996L226.987 84.4733C226.959 84.4191 226.943 84.3715 226.938 84.3305C226.934 84.2894 226.946 84.2309 226.975 84.1549L229.796 78.5108C229.816 78.4659 229.815 78.4316 229.794 78.4081C229.777 78.3913 229.751 78.3919 229.717 78.4098L225.279 80.7695C225.162 80.8406 225.066 80.805 224.991 80.6628L224.437 79.606C224.366 79.4705 224.388 79.3724 224.502 79.3116L231.624 75.5254C231.752 75.4574 231.847 75.4844 231.911 75.6064L232.556 76.8359C232.595 76.9104 232.613 76.97 232.61 77.0146C232.612 77.066 232.594 77.1314 232.559 77.211L229.897 82.4455C229.865 82.5148 229.859 82.5612 229.88 82.5847C229.904 82.615 229.947 82.614 230.007 82.5819L234.173 80.367C234.294 80.3026 234.387 80.3314 234.451 80.4534L235.042 81.5813Z" fill="#2704FF"/>
<path d="M236.96 85.7873C237.01 85.8989 236.973 85.9832 236.848 86.0402L229.579 89.3655C229.489 89.4067 229.412 89.4124 229.348 89.3826C229.295 89.3565 229.246 89.2947 229.202 89.1971L228.608 87.8789C228.567 87.7882 228.556 87.7175 228.575 87.6668C228.597 87.6231 228.646 87.5838 228.722 87.549L236.013 84.2141C236.144 84.154 236.235 84.1797 236.285 84.2913L236.96 85.7873Z" fill="#2704FF"/>
<path d="M237.536 87.4884C237.593 87.4663 237.646 87.4661 237.695 87.488C237.744 87.5098 237.783 87.5564 237.81 87.6278L240.179 93.7761C240.209 93.8547 240.212 93.9152 240.188 93.9576C240.166 94.0071 240.127 94.043 240.07 94.0652L239.081 94.4518C238.975 94.4934 238.897 94.4499 238.847 94.3214L238.076 92.3184C238.045 92.2398 237.995 92.2144 237.924 92.2421L231.682 94.6824C231.548 94.735 231.457 94.7007 231.41 94.5793L230.82 93.0475C230.779 92.9404 230.818 92.8633 230.939 92.8162L237.17 90.3801C237.262 90.3441 237.293 90.2868 237.263 90.2082L236.466 88.1409C236.414 88.0053 236.441 87.9166 236.547 87.8751L237.536 87.4884Z" fill="#2704FF"/>
<path d="M241.503 97.8485C241.541 97.9651 241.494 98.0447 241.364 98.0872L233.77 100.57C233.676 100.601 233.599 100.598 233.539 100.561C233.489 100.529 233.447 100.462 233.414 100.36L232.971 98.983C232.94 98.8883 232.937 98.8168 232.962 98.7686C232.988 98.7276 233.042 98.6941 233.121 98.6681L240.737 96.1783C240.874 96.1334 240.962 96.1692 240.999 96.2857L241.503 97.8485Z" fill="#2704FF"/>
<path d="M241.994 100.096C242.134 100.058 242.219 100.098 242.251 100.217L243.733 105.812C243.763 105.923 243.715 105.995 243.59 106.029L242.595 106.284C242.441 106.326 242.343 106.269 242.302 106.113L241.364 102.572C241.326 102.432 241.249 102.377 241.131 102.409L239.534 102.838C239.409 102.872 239.361 102.944 239.39 103.055L240.014 105.409C240.047 105.534 240.005 105.613 239.888 105.645L238.83 105.929C238.786 105.941 238.745 105.936 238.708 105.914C238.672 105.9 238.646 105.86 238.628 105.793L237.999 103.417C237.971 103.314 237.914 103.274 237.825 103.298L236.095 103.763C236 103.788 235.963 103.842 235.984 103.923L236.99 107.72C237.026 107.853 236.988 107.935 236.878 107.964L235.831 108.246C235.772 108.262 235.72 108.256 235.673 108.229C235.629 108.209 235.595 108.158 235.574 108.077L234.091 102.482C234.048 102.319 234.104 102.217 234.258 102.176L241.994 100.096Z" fill="#2704FF"/>
<path d="M243.173 113.177C243.321 112.978 243.444 112.741 243.54 112.465C243.637 112.198 243.644 111.838 243.56 111.386C243.472 110.912 243.32 110.574 243.105 110.373C242.897 110.171 242.663 110.094 242.401 110.143C242.311 110.16 242.218 110.201 242.122 110.266C242.026 110.331 241.942 110.44 241.87 110.594C241.798 110.748 241.747 110.956 241.719 111.218L241.545 113.098C241.487 113.826 241.277 114.387 240.917 114.782C240.565 115.176 240.116 115.424 239.57 115.527C239.047 115.625 238.566 115.575 238.127 115.377C237.696 115.178 237.328 114.846 237.026 114.381C236.723 113.916 236.507 113.337 236.379 112.644C236.284 112.132 236.251 111.639 236.279 111.167C236.316 110.7 236.411 110.273 236.564 109.886C236.725 109.505 236.933 109.189 237.188 108.938C237.256 108.887 237.313 108.86 237.359 108.859C237.413 108.857 237.472 108.885 237.537 108.943L238.293 109.701C238.362 109.781 238.398 109.848 238.4 109.903C238.404 109.964 238.383 110.022 238.34 110.078C238.149 110.3 237.995 110.513 237.877 110.714C237.761 110.923 237.691 111.15 237.667 111.396C237.643 111.642 237.661 111.927 237.721 112.251C237.812 112.74 237.96 113.118 238.163 113.383C238.375 113.648 238.641 113.749 238.963 113.689C239.09 113.665 239.2 113.613 239.294 113.533C239.394 113.452 239.474 113.336 239.531 113.185C239.597 113.04 239.645 112.84 239.675 112.585L239.841 110.789C239.885 110.32 239.996 109.914 240.171 109.569C240.347 109.224 240.578 108.943 240.862 108.726C241.148 108.517 241.463 108.379 241.807 108.315C242.285 108.225 242.739 108.276 243.17 108.467C243.601 108.667 243.97 108.987 244.276 109.428C244.591 109.875 244.808 110.423 244.928 111.07C245.008 111.499 245.033 111.908 245.005 112.295C244.977 112.69 244.906 113.054 244.79 113.387C244.673 113.721 244.51 114.005 244.298 114.24C244.266 114.277 244.225 114.308 244.176 114.333C244.134 114.356 244.081 114.343 244.018 114.292L243.146 113.474C243.108 113.435 243.089 113.396 243.09 113.357C243.098 113.316 243.125 113.256 243.173 113.177Z" fill="#2704FF"/>
<path d="M244.579 124.877C244.747 124.694 244.893 124.47 245.017 124.207C245.141 123.951 245.185 123.594 245.148 123.135C245.109 122.654 244.993 122.303 244.8 122.08C244.614 121.857 244.388 121.757 244.123 121.778C244.032 121.786 243.935 121.817 243.833 121.871C243.731 121.926 243.636 122.026 243.548 122.171C243.461 122.317 243.389 122.518 243.334 122.777L242.968 124.628C242.835 125.346 242.569 125.882 242.171 126.238C241.78 126.592 241.308 126.792 240.755 126.838C240.224 126.881 239.751 126.781 239.334 126.539C238.926 126.296 238.595 125.927 238.341 125.433C238.088 124.939 237.933 124.34 237.876 123.638C237.834 123.119 237.852 122.625 237.929 122.158C238.014 121.698 238.152 121.283 238.343 120.914C238.543 120.552 238.783 120.259 239.062 120.037C239.135 119.992 239.194 119.972 239.24 119.976C239.294 119.979 239.35 120.013 239.409 120.077L240.082 120.91C240.143 120.997 240.171 121.068 240.168 121.122C240.165 121.184 240.139 121.24 240.09 121.29C239.877 121.491 239.702 121.686 239.565 121.874C239.428 122.07 239.335 122.289 239.286 122.531C239.237 122.773 239.226 123.059 239.252 123.387C239.292 123.883 239.4 124.274 239.575 124.559C239.759 124.844 240.013 124.973 240.339 124.947C240.468 124.936 240.583 124.896 240.684 124.826C240.793 124.756 240.883 124.648 240.956 124.504C241.036 124.367 241.104 124.173 241.16 123.923L241.51 122.153C241.602 121.692 241.754 121.3 241.964 120.975C242.175 120.65 242.432 120.395 242.738 120.209C243.044 120.03 243.371 119.926 243.72 119.898C244.205 119.858 244.651 119.956 245.059 120.192C245.468 120.435 245.802 120.792 246.061 121.262C246.329 121.74 246.489 122.307 246.542 122.964C246.577 123.399 246.56 123.808 246.492 124.19C246.424 124.58 246.315 124.934 246.165 125.254C246.016 125.574 245.824 125.839 245.589 126.05C245.553 126.084 245.51 126.111 245.458 126.13C245.414 126.149 245.363 126.13 245.305 126.074L244.522 125.169C244.488 125.126 244.473 125.085 244.478 125.046C244.49 125.007 244.524 124.95 244.579 124.877Z" fill="#2704FF"/>
<path d="M246.598 127.98C246.659 127.98 246.709 127.999 246.747 128.037C246.785 128.075 246.805 128.132 246.805 128.209L246.856 134.803C246.857 134.888 246.838 134.945 246.8 134.976C246.763 135.015 246.713 135.034 246.652 135.035L245.592 135.043C245.478 135.044 245.42 134.976 245.419 134.838L245.403 132.689C245.402 132.605 245.364 132.563 245.288 132.564L238.593 132.616C238.448 132.617 238.375 132.552 238.374 132.422L238.362 130.779C238.361 130.664 238.425 130.606 238.554 130.605L245.238 130.553C245.337 130.552 245.386 130.51 245.385 130.426L245.368 128.208C245.367 128.063 245.424 127.99 245.538 127.989L246.598 127.98Z" fill="#2704FF"/>
<path d="M238.38 136.952C238.385 136.883 238.419 136.836 238.482 136.81C238.545 136.784 238.625 136.79 238.721 136.828L246.383 140.294C246.464 140.331 246.518 140.37 246.546 140.411C246.581 140.452 246.595 140.518 246.587 140.61L246.456 142.328C246.443 142.496 246.351 142.604 246.179 142.652L238.081 144.868C238.019 144.887 237.951 144.881 237.877 144.852C237.81 144.824 237.78 144.776 237.785 144.707L237.914 143.023C237.923 142.908 237.981 142.84 238.09 142.818L239.796 142.351C239.834 142.347 239.866 142.334 239.89 142.313C239.914 142.299 239.928 142.266 239.932 142.212L240.147 139.417C240.153 139.341 240.119 139.288 240.045 139.259L238.408 138.521C238.364 138.502 238.328 138.473 238.301 138.432C238.28 138.4 238.273 138.345 238.279 138.269L238.38 136.952ZM241.481 141.86C241.473 141.967 241.535 142.007 241.666 141.978L244.401 141.223C244.448 141.204 244.473 141.179 244.476 141.148C244.477 141.126 244.453 141.101 244.401 141.074L241.826 139.893C241.702 139.83 241.634 139.859 241.625 139.982L241.481 141.86Z" fill="#2704FF"/>
<path d="M236.74 153.628C236.653 153.644 236.582 153.629 236.528 153.581C236.473 153.541 236.452 153.483 236.464 153.408L236.734 151.741C236.755 151.612 236.836 151.54 236.977 151.525L240.327 150.818C240.439 150.79 240.509 150.693 240.536 150.526L240.71 149.449C240.719 149.396 240.71 149.356 240.684 149.328C240.656 149.308 240.631 149.296 240.609 149.292L237.49 148.78C237.31 148.751 237.237 148.634 237.27 148.43L237.503 146.989C237.518 146.899 237.547 146.837 237.591 146.806C237.633 146.782 237.692 146.776 237.767 146.788L245.68 148.089C245.823 148.112 245.885 148.184 245.865 148.305L245.292 151.843C245.128 152.856 244.802 153.61 244.314 154.104C243.824 154.605 243.212 154.796 242.476 154.675C242.093 154.612 241.763 154.484 241.487 154.291C241.21 154.098 240.989 153.868 240.824 153.6C240.667 153.334 240.562 153.053 240.51 152.757C240.498 152.685 240.445 152.661 240.348 152.684L236.74 153.628ZM241.809 151.085C241.74 151.516 241.776 151.859 241.92 152.116C242.069 152.381 242.321 152.542 242.673 152.6C243.041 152.661 243.338 152.589 243.563 152.386C243.789 152.182 243.933 151.888 243.995 151.502L244.221 150.107C244.244 149.964 244.192 149.881 244.065 149.86L242.252 149.563C242.125 149.542 242.052 149.584 242.035 149.69L241.809 151.085Z" fill="#2704FF"/>
<path d="M244.333 156.29C244.392 156.304 244.436 156.335 244.464 156.381C244.491 156.427 244.497 156.488 244.479 156.562L242.935 162.971C242.915 163.053 242.883 163.104 242.839 163.125C242.793 163.153 242.741 163.16 242.681 163.146L241.651 162.894C241.54 162.867 241.501 162.786 241.533 162.652L242.036 160.564C242.055 160.482 242.028 160.432 241.954 160.414L235.448 158.824C235.308 158.789 235.253 158.709 235.283 158.582L235.668 156.986C235.695 156.874 235.771 156.834 235.897 156.864L242.392 158.452C242.488 158.476 242.546 158.446 242.566 158.364L243.085 156.209C243.119 156.068 243.191 156.011 243.302 156.038L244.333 156.29Z" fill="#2704FF"/>
<path d="M241.7 167.151C241.664 167.268 241.581 167.307 241.45 167.266L233.811 164.929C233.716 164.9 233.655 164.853 233.627 164.788C233.603 164.733 233.607 164.654 233.638 164.552L234.056 163.166C234.085 163.071 234.123 163.011 234.17 162.985C234.216 162.967 234.278 162.97 234.358 162.995L242.019 165.339C242.158 165.382 242.209 165.461 242.174 165.579L241.7 167.151Z" fill="#2704FF"/>
<path d="M238.695 175.794C238.661 175.887 238.59 175.914 238.483 175.874L230.88 173.033C230.83 173.014 230.794 172.98 230.772 172.931C230.756 172.884 230.76 172.829 230.784 172.764L231.185 171.676C231.206 171.619 231.23 171.575 231.258 171.544C231.285 171.514 231.337 171.484 231.412 171.455L237.469 169.809C237.515 169.793 237.54 169.77 237.543 169.738C237.544 169.714 237.527 169.695 237.491 169.682L232.786 167.924C232.655 167.883 232.617 167.787 232.672 167.636L233.085 166.516C233.138 166.372 233.225 166.323 233.346 166.369L240.896 169.19C241.031 169.24 241.075 169.33 241.028 169.46L240.548 170.763C240.519 170.842 240.487 170.896 240.452 170.923C240.415 170.959 240.355 170.989 240.272 171.016L234.625 172.508C234.552 172.53 234.514 172.557 234.511 172.588C234.505 172.627 234.534 172.658 234.598 172.682L239.014 174.332C239.143 174.38 239.183 174.469 239.136 174.598L238.695 175.794Z" fill="#2704FF"/>
<path d="M228.383 177.971C228.71 177.271 229.159 176.735 229.729 176.362C230.296 175.997 230.938 175.811 231.656 175.805C232.373 175.799 233.124 175.982 233.908 176.355C234.719 176.741 235.351 177.223 235.802 177.802C236.254 178.381 236.517 179.015 236.59 179.702C236.66 180.396 236.527 181.099 236.193 181.813C235.93 182.374 235.588 182.825 235.167 183.167C234.746 183.509 234.307 183.737 233.851 183.85C233.391 183.97 232.959 183.976 232.555 183.869C232.439 183.848 232.369 183.818 232.344 183.781C232.316 183.751 232.312 183.698 232.33 183.622L232.767 182.153C232.796 182.09 232.829 182.055 232.867 182.048C232.901 182.047 232.948 182.053 233.01 182.065C233.256 182.131 233.503 182.143 233.75 182.099C233.995 182.063 234.22 181.967 234.428 181.812C234.639 181.666 234.811 181.452 234.944 181.168C235.103 180.828 235.152 180.491 235.09 180.157C235.025 179.83 234.83 179.509 234.507 179.194C234.18 178.886 233.704 178.583 233.078 178.286C232.418 177.972 231.862 177.787 231.408 177.732C230.951 177.685 230.575 177.743 230.279 177.907C229.987 178.082 229.758 178.346 229.593 178.699C229.489 178.92 229.429 179.129 229.413 179.325C229.4 179.531 229.422 179.719 229.476 179.889C229.528 180.066 229.605 180.225 229.707 180.367C229.815 180.511 229.937 180.637 230.072 180.744L230.362 180.907C230.452 180.984 230.519 180.974 230.565 180.877L231.154 179.619C231.18 179.564 231.21 179.527 231.244 179.509C231.284 179.495 231.339 179.504 231.407 179.537L232.181 179.904C232.277 179.95 232.299 180.029 232.247 180.139L230.937 182.909C230.888 183.012 230.828 183.077 230.758 183.103C230.694 183.132 230.624 183.128 230.548 183.092L227.072 181.439C227.024 181.416 226.993 181.384 226.978 181.343C226.964 181.303 226.968 181.258 226.991 181.209L227.147 180.877C227.172 180.822 227.206 180.778 227.246 180.746C227.293 180.718 227.357 180.697 227.438 180.685L228.322 180.737C228.346 180.74 228.363 180.731 228.372 180.71C228.379 180.697 228.371 180.668 228.35 180.624C228.257 180.427 228.176 180.197 228.105 179.935C228.041 179.676 228.023 179.384 228.05 179.058C228.083 178.735 228.194 178.372 228.383 177.971Z" fill="#2704FF"/>
<path d="M224.565 185.897C224.65 185.761 224.766 185.74 224.914 185.834L231.666 190.126C231.788 190.204 231.815 190.298 231.746 190.408L230.486 192.419C230.441 192.491 230.399 192.536 230.359 192.556C230.32 192.577 230.265 192.578 230.195 192.561L225.234 191.458C225.164 191.441 225.121 191.445 225.105 191.471C225.095 191.501 225.11 191.542 225.149 191.594L228.237 195.514C228.36 195.647 228.39 195.765 228.325 195.869L227.016 197.958C226.955 198.055 226.867 198.067 226.751 197.993L219.999 193.701C219.845 193.602 219.818 193.472 219.92 193.31L220.705 192.057C220.754 191.979 220.804 191.934 220.857 191.923C220.905 191.917 220.962 191.935 221.026 191.976L225.829 195.03C225.874 195.058 225.902 195.057 225.912 195.027C225.924 195.008 225.911 194.978 225.874 194.936L222.107 190.163C222.029 190.059 222.02 189.958 222.081 189.861L222.586 189.055C222.655 188.945 222.751 188.906 222.874 188.939L228.692 190.287C228.762 190.305 228.802 190.298 228.812 190.268C228.818 190.245 228.795 190.217 228.744 190.184L224.008 187.173C223.943 187.132 223.907 187.091 223.897 187.048C223.883 187.013 223.899 186.959 223.944 186.888L224.565 185.897Z" fill="#2704FF"/>
<path d="M218.828 194.914C218.87 194.86 218.924 194.839 218.991 194.852C219.057 194.865 219.12 194.915 219.18 195L223.697 202.133C223.744 202.209 223.768 202.271 223.769 202.32C223.776 202.374 223.752 202.437 223.696 202.51L222.649 203.874C222.547 204.007 222.411 204.046 222.242 203.992L214.265 201.367C214.203 201.348 214.149 201.306 214.103 201.241C214.062 201.18 214.063 201.123 214.105 201.068L215.13 199.732C215.2 199.641 215.287 199.616 215.389 199.658L217.07 200.211C217.104 200.228 217.138 200.235 217.17 200.231C217.197 200.233 217.227 200.213 217.26 200.17L218.962 197.952C219.008 197.891 219.008 197.829 218.962 197.764L217.996 196.242C217.969 196.202 217.956 196.157 217.955 196.108C217.955 196.07 217.979 196.02 218.025 195.96L218.828 194.914ZM218.746 200.732C218.681 200.817 218.711 200.884 218.836 200.933L221.534 201.814C221.584 201.824 221.618 201.817 221.637 201.793C221.651 201.774 221.644 201.74 221.616 201.689L220.106 199.279C220.036 199.157 219.964 199.144 219.89 199.241L218.746 200.732Z" fill="#2704FF"/>
<path d="M214.674 213.212C214.623 213.269 214.573 213.29 214.523 213.276C214.48 213.267 214.446 213.226 214.421 213.151L212.976 208.177C212.956 208.096 212.921 208.028 212.87 207.97C212.824 207.918 212.731 207.828 212.59 207.699L210.397 205.689C210.262 205.565 210.266 205.424 210.409 205.265L211.369 204.203C211.435 204.129 211.495 204.091 211.549 204.089C211.598 204.092 211.653 204.122 211.715 204.178L213.984 206.258C214.063 206.33 214.13 206.376 214.184 206.395C214.239 206.414 214.307 206.43 214.388 206.442L219.515 207.459C219.602 207.476 219.652 207.512 219.665 207.565C219.684 207.624 219.66 207.69 219.594 207.764L218.442 209.039C218.376 209.113 218.319 209.153 218.27 209.161C218.222 209.169 218.155 209.164 218.068 209.146L214.738 208.394C214.651 208.376 214.595 208.376 214.569 208.394C214.548 208.416 214.551 208.465 214.576 208.54L215.666 211.806C215.697 211.897 215.708 211.964 215.699 212.008C215.691 212.063 215.656 212.124 215.595 212.192L214.674 213.212Z" fill="#2704FF"/>
<path d="M206.443 214.488C206.386 214.973 206.347 215.375 206.326 215.694C206.309 216.018 206.309 216.287 206.325 216.499C206.341 216.711 206.381 216.887 206.444 217.026C206.506 217.175 206.594 217.313 206.706 217.438C206.864 217.614 207.039 217.723 207.23 217.766C207.427 217.814 207.626 217.808 207.829 217.748C208.025 217.693 208.214 217.583 208.395 217.419C208.547 217.28 208.668 217.118 208.758 216.933C208.843 216.753 208.894 216.536 208.912 216.282C208.925 216.033 208.897 215.739 208.828 215.399C208.814 215.349 208.822 215.301 208.851 215.254C208.886 215.212 208.944 215.18 209.026 215.157L210.131 214.864C210.218 214.847 210.29 214.858 210.347 214.899C210.398 214.945 210.43 215.009 210.442 215.091C210.562 215.819 210.523 216.468 210.328 217.038C210.126 217.613 209.777 218.127 209.281 218.579C208.829 218.989 208.363 219.274 207.881 219.434C207.399 219.594 206.932 219.616 206.48 219.501C206.028 219.396 205.623 219.145 205.267 218.747C205.063 218.52 204.909 218.268 204.804 217.991C204.7 217.715 204.646 217.392 204.643 217.023C204.635 216.659 204.673 216.222 204.758 215.711L205.216 213.05C205.235 212.991 205.234 212.95 205.214 212.928C205.188 212.91 205.141 212.932 205.073 212.994L202.44 215.389C202.333 215.486 202.239 215.489 202.157 215.398L201.316 214.461C201.276 214.415 201.257 214.365 201.259 214.311C201.256 214.262 201.286 214.209 201.348 214.153L205.758 210.141C205.832 210.074 205.893 210.039 205.941 210.036C205.995 210.039 206.052 210.075 206.113 210.143L206.702 210.799C206.728 210.828 206.75 210.864 206.769 210.909C206.783 210.958 206.787 211.037 206.782 211.145C206.781 211.259 206.765 211.418 206.733 211.623L206.443 214.488Z" fill="#2704FF"/>
<path d="M202.968 223.973C202.566 224.289 202.134 224.497 201.672 224.597C201.21 224.698 200.734 224.692 200.243 224.582C199.753 224.471 199.273 224.256 198.803 223.935C198.338 223.62 197.902 223.2 197.496 222.674C196.959 221.979 196.611 221.281 196.454 220.579C196.297 219.877 196.319 219.219 196.519 218.606C196.718 218.003 197.087 217.49 197.627 217.066C198.167 216.643 198.757 216.403 199.398 216.346C200.038 216.301 200.674 216.438 201.306 216.757C201.937 217.087 202.522 217.6 203.059 218.295C203.47 218.827 203.77 219.358 203.959 219.889C204.153 220.427 204.243 220.948 204.23 221.454C204.216 221.96 204.104 222.426 203.894 222.853C203.679 223.285 203.37 223.658 202.968 223.973ZM198.496 218.19C198.232 218.397 198.072 218.645 198.015 218.932C197.957 219.22 198.018 219.566 198.195 219.97C198.367 220.379 198.665 220.859 199.091 221.408C199.535 221.983 199.935 222.407 200.291 222.68C200.652 222.96 200.98 223.111 201.276 223.131C201.576 223.158 201.858 223.068 202.122 222.86C202.38 222.658 202.533 222.407 202.58 222.107C202.633 221.814 202.572 221.454 202.397 221.028C202.216 220.607 201.905 220.113 201.466 219.545C201.041 218.995 200.653 218.586 200.301 218.318C199.943 218.055 199.619 217.916 199.328 217.901C199.038 217.887 198.76 217.983 198.496 218.19Z" fill="#2704FF"/>
<path d="M193.851 224.556C193.725 225.028 193.628 225.42 193.561 225.732C193.498 226.051 193.459 226.316 193.444 226.529C193.43 226.741 193.443 226.921 193.486 227.067C193.526 227.225 193.592 227.373 193.685 227.513C193.816 227.711 193.973 227.845 194.157 227.915C194.345 227.991 194.543 228.014 194.752 227.984C194.954 227.959 195.157 227.878 195.359 227.742C195.53 227.627 195.673 227.485 195.789 227.314C195.898 227.149 195.981 226.941 196.035 226.693C196.084 226.449 196.098 226.153 196.079 225.807C196.073 225.756 196.087 225.709 196.123 225.667C196.163 225.631 196.225 225.607 196.31 225.596L197.445 225.468C197.534 225.464 197.603 225.486 197.654 225.535C197.698 225.588 197.721 225.656 197.721 225.739C197.734 226.476 197.602 227.113 197.326 227.648C197.044 228.188 196.625 228.645 196.068 229.019C195.562 229.359 195.06 229.573 194.56 229.661C194.06 229.748 193.595 229.702 193.165 229.521C192.732 229.352 192.368 229.044 192.073 228.598C191.904 228.343 191.788 228.071 191.724 227.782C191.661 227.494 191.654 227.166 191.705 226.801C191.749 226.44 191.85 226.013 192.007 225.52L192.844 222.954C192.871 222.899 192.877 222.858 192.86 222.833C192.837 222.812 192.787 222.826 192.711 222.877L189.761 224.862C189.641 224.942 189.547 224.932 189.479 224.83L188.783 223.779C188.749 223.728 188.737 223.676 188.748 223.623C188.752 223.574 188.789 223.526 188.859 223.479L193.801 220.155C193.883 220.1 193.948 220.074 193.997 220.079C194.05 220.089 194.101 220.133 194.152 220.209L194.64 220.945C194.661 220.977 194.678 221.016 194.69 221.063C194.697 221.114 194.689 221.193 194.668 221.299C194.651 221.411 194.613 221.566 194.551 221.764L193.851 224.556Z" fill="#2704FF"/>
<path d="M191.146 230.559C191.232 230.589 191.274 230.662 191.269 230.779C191.21 231.094 191.089 231.406 190.903 231.714C190.722 232.029 190.492 232.318 190.212 232.583C189.937 232.855 189.627 233.089 189.283 233.285C188.701 233.617 188.158 233.817 187.654 233.884C187.147 233.962 186.702 233.916 186.319 233.748C185.933 233.589 185.631 233.317 185.414 232.93C185.238 232.617 185.166 232.257 185.2 231.851C185.238 231.451 185.414 231.081 185.731 230.743C185.789 230.674 185.81 230.618 185.794 230.575C185.775 230.541 185.724 230.535 185.64 230.557C185.313 230.629 184.995 230.638 184.686 230.586C184.381 230.54 184.105 230.438 183.858 230.279C183.612 230.12 183.412 229.904 183.258 229.631C182.992 229.158 182.879 228.685 182.92 228.213C182.964 227.748 183.167 227.293 183.529 226.849C183.895 226.411 184.425 225.995 185.12 225.598C185.497 225.383 185.889 225.226 186.296 225.126C186.703 225.026 187.101 224.988 187.491 225.012C187.88 225.036 188.239 225.122 188.566 225.27C188.636 225.301 188.677 225.343 188.69 225.397C188.707 225.458 188.7 225.524 188.67 225.594L188.205 226.585C188.174 226.656 188.14 226.697 188.104 226.709C188.064 226.732 188.027 226.735 187.992 226.72C187.671 226.63 187.385 226.573 187.135 226.548C186.889 226.53 186.653 226.546 186.428 226.595C186.195 226.649 185.957 226.745 185.712 226.885C185.295 227.122 185.022 227.397 184.891 227.709C184.761 228.021 184.778 228.324 184.943 228.617C185.07 228.844 185.242 229.002 185.457 229.09C185.673 229.178 185.911 229.205 186.171 229.171C186.425 229.141 186.678 229.054 186.929 228.91L187.794 228.444C187.907 228.379 187.989 228.394 188.041 228.487L188.57 229.427C188.615 229.507 188.585 229.586 188.48 229.663L187.812 230.084C187.551 230.242 187.345 230.42 187.195 230.62C187.049 230.827 186.961 231.035 186.931 231.246C186.905 231.464 186.944 231.666 187.049 231.852C187.139 232.012 187.269 232.127 187.44 232.197C187.603 232.271 187.789 232.298 187.995 232.277C188.206 232.262 188.417 232.195 188.629 232.074C188.933 231.9 189.177 231.682 189.361 231.418C189.549 231.162 189.702 230.828 189.821 230.417C189.838 230.354 189.861 230.31 189.89 230.285C189.917 230.27 189.966 230.272 190.039 230.292L191.146 230.559Z" fill="#2704FF"/>
<path fill-rule="evenodd" clip-rule="evenodd" d="M132 228.5C185.295 228.5 228.5 185.296 228.5 132C228.5 78.7049 185.295 35.5003 132 35.5003C78.7043 35.5003 35.4997 78.7048 35.4997 132C35.4997 185.296 78.7042 228.5 132 228.5ZM132 230C186.124 230 230 186.124 230 132C230 77.8764 186.124 34.0003 132 34.0003C77.8759 34.0003 33.9998 77.8764 33.9997 132C33.9997 186.124 77.8758 230 132 230ZM118 101.813C118 113.169 113.69 122.375 108.375 122.375C103.059 122.375 98.7498 113.169 98.7498 101.813C98.7498 90.4564 103.059 81.2503 108.375 81.2503C113.691 81.2503 118 90.4564 118 101.813ZM155.625 122.375C160.94 122.375 165.25 113.169 165.25 101.813C165.25 90.4565 160.94 81.2503 155.625 81.2503C150.309 81.2503 146 90.4565 146 101.813C146 113.169 150.309 122.375 155.625 122.375ZM86.0652 182.367C76.0358 170.829 70.4893 157.04 68.3921 147.612C63.8647 147.413 60.5772 145 58.3244 142.084C55.9839 139.055 54.7182 135.438 54.2626 133.014L55.7368 132.737C56.1582 134.979 57.3448 138.363 59.5113 141.167C61.6659 143.955 64.7468 146.125 68.9997 146.125C73.2527 146.125 76.3336 143.955 78.4881 141.167C80.6546 138.363 81.8412 134.979 82.2626 132.737L83.7368 133.014C83.2813 135.438 82.0155 139.055 79.6751 142.084C77.4755 144.931 74.2893 147.299 69.9257 147.594C72.0293 156.811 77.466 170.187 87.1973 181.383C97.2252 192.92 111.794 202.125 132 202.125V203.625C111.277 203.625 96.3185 194.164 86.0652 182.367ZM195.607 147.612C193.51 157.04 187.964 170.829 177.934 182.367C167.681 194.164 152.723 203.625 132 203.625V202.125C152.205 202.125 166.774 192.92 176.802 181.383C186.533 170.187 191.97 156.811 194.074 147.594C189.71 147.299 186.524 144.931 184.324 142.084C181.984 139.055 180.718 135.438 180.263 133.014L181.737 132.737C182.158 134.979 183.345 138.363 185.511 141.167C187.666 143.955 190.747 146.125 195 146.125C199.253 146.125 202.334 143.955 204.488 141.167C206.655 138.363 207.841 134.979 208.263 132.737L209.737 133.014C209.281 135.438 208.016 139.055 205.675 142.084C203.422 145 200.135 147.413 195.607 147.612Z" fill="#2704FF"/>
</svg>
