<svg width="146" height="146" viewBox="0 0 146 146" fill="none" xmlns="http://www.w3.org/2000/svg">
<path d="M78.4512 73.2793C80.601 73.2793 83.1433 73.0514 83.2935 70.2011C83.3814 68.5318 83.3752 66.9526 82.8533 65.3884C82.569 64.5366 81.0941 62.8292 80.212 62.7255C79.0538 62.5894 76.5831 62.6171 75.5899 62.0659C73.1979 60.7384 70.5997 63.5803 69.5493 65.364C68.1472 67.745 63.9245 69.0209 63.9245 71.9601C63.9245 74.8751 64.9243 76.5236 67.226 78.3119C68.817 79.548 69.1322 80.801 69.9895 82.5139C70.8596 84.2523 71.8933 85.1142 73.3889 86.2761C76.1595 88.4288 80.5164 86.3515 83.0734 84.9325C85.8744 83.378 87.2012 80.3941 90.1166 78.7761C92.3215 77.5524 93.4181 72.5322 93.4181 70.2011C93.4181 67.2159 90.064 65.298 89.8965 62.2858C89.7291 59.276 89.1399 54.488 86.1548 52.8313C83.4552 51.3331 80.5039 51.732 77.3262 51.732C75.6953 51.732 74.3067 52.8015 72.7286 53.0267C70.8595 53.2935 68.7986 53.0512 66.9081 53.0512C63.1174 53.0512 56.1828 53.7957 55.5606 58.7678C55.2 61.6501 55.5606 64.4941 55.5606 67.5627C55.5606 69.1078 54.5366 70.9545 54.0199 72.3998C53.545 73.7281 53.3596 74.9255 53.3596 76.3575C53.3596 78.8747 53.7026 81.4596 54.9003 83.6132C56.4468 86.3939 53.9939 89.3039 56.6611 91.9683C63.1824 98.4828 73.3348 96.1459 81.4348 96.1459C84.4161 96.1459 88.8654 96.1549 90.3367 92.8478C92.0838 88.9211 95.3018 89.1119 98.456 87.1068C103.728 83.7554 104.56 74.3563 102.222 69.1018C99.9375 63.9666 96.2841 58.7894 96.0594 52.9535C95.7131 43.9588 87.8146 44.2604 81.0924 41.2759C77.6254 39.7366 74.0619 39.8589 70.3319 39.8589C68.5912 39.8589 67.6863 40.3875 66.1255 41.0804C64.5957 41.7596 62.9443 41.6179 61.2833 41.6179C55.2246 41.6179 49.4355 45.8595 46.5364 51.0723C45.1226 53.6146 44.4128 57.2645 44.1153 60.087C43.7374 63.6739 41.2621 67.3795 39.8111 70.6409C38.7497 73.0266 39.8275 77.8813 40.129 80.2908C40.5572 83.7128 42.2828 86.6403 43.6751 89.7696C44.7347 92.1512 47.3794 93.3743 48.6152 95.7062C50.2999 98.885 54.3573 101.299 57.6638 102.4C60.882 103.472 65.3555 102.742 68.7667 102.742C72.2683 102.742 74.6932 103.121 77.8154 104.599C86.54 108.727 99.5305 109.417 105.524 100.104C106.915 97.9411 108.353 95.7162 109.901 93.7273C110.95 92.3807 110.774 90.5956 111.369 89.11C112.184 87.0749 113.514 84.5888 114.108 82.5139C114.727 80.3489 116.275 78.6415 116.847 76.3575C118.192 70.9811 117.043 64.8604 113.888 60.3069C112.784 58.7151 111.538 55.3319 111.466 53.3932C111.415 52.0145 111.026 50.7294 111.026 49.3134C111.026 48.0486 111.399 46.0617 110.782 44.916C109.167 41.921 108.142 36.3116 104.203 35.4371C102.342 35.0238 100.213 35.0332 98.3582 34.4843C95.6897 33.6945 93.2052 32.2158 90.5324 31.5038C85.5566 30.1783 82.1486 25.7872 76.5926 25.7872C72.1015 25.7872 68.4441 25.5181 64.3647 27.4484C56.7256 31.0632 45.4539 26.5949 39.5176 34.1423C38.3329 35.6486 37.2464 36.3246 36.6319 38.3198C36.0737 40.132 35.1024 42.0874 34.333 43.8166C33.5238 45.6355 32.8165 47.8486 32.2298 49.7531C31.5964 51.8096 30.1134 53.3263 29.4908 55.3476C28.4842 58.6155 29.1484 62.9366 29.1484 66.3412C29.1484 68.149 29.1484 69.9568 29.1484 71.7646C29.1484 73.3399 29.6905 76.0429 29.0506 77.4813C27.6413 80.6489 28.268 84.9422 28.268 88.4504C28.268 93.9946 31.7628 97.1636 35.0911 101.227C38.0797 104.876 40.1662 109.302 43.4795 112.612C44.6712 113.802 48.6984 114.505 50.1804 114.615C52.6316 114.796 55.6214 115.086 57.9573 115.934C60.737 116.944 63.5046 118.661 66.1011 120.087C69.6538 122.039 73.5813 122.53 77.5708 122.53C80.6479 122.53 83.2575 122.124 86.1548 120.991C88.3945 120.116 90.8804 118.666 93.3203 118.573C96.7089 118.443 100.127 118.573 103.518 118.573C107.478 118.573 110.577 116.124 113.912 114.371C118.585 111.914 119.707 108.096 121.249 103.475C121.836 101.715 122.542 99.1542 123.89 97.8071C124.865 96.8334 125.526 95.838 126.433 94.8022C127.597 93.4739 129.924 91.637 130.395 89.9895C130.793 88.5976 132.04 87.4945 132.156 86.0318C132.268 84.62 132.156 83.1493 132.156 81.7321C132.156 78.8265 131.831 76.5067 131.056 73.7191C130.292 70.9725 129.707 68.1129 128.855 65.3884C128.005 62.6713 128.249 59.7473 127.656 57.0089C126.251 50.5178 127.503 43.0948 123.792 37.1227C121.081 32.7598 117.061 29.5024 112.127 27.9859C106.499 26.2561 107.182 19.4668 103.347 16.3327C101.027 14.4364 98.4099 12.856 95.5703 11.8132C92.9751 10.86 89.8159 11.2757 87.0841 11.2757C81.337 11.2757 75.5899 11.2757 69.8428 11.2757C65.31 11.2757 60.947 10.2893 56.3432 10.3962C52.2175 10.4921 47.7601 14.3843 44.9957 16.9923C41.5168 20.2745 37.5134 18.5468 33.526 20.3393C28.3228 22.6782 25.2108 27.9234 21.9095 32.1634C20.8106 33.5748 20.1068 35.3758 18.9748 36.8296C17.3334 38.9377 16.0014 41.2349 14.6217 43.4746C12.1064 47.5576 12.4207 55.0113 12.4207 59.745C12.4207 70.7575 12.4033 81.9864 11.9805 92.97C11.8702 95.8338 12.6101 96.9672 14.1815 99.3218C16.7988 103.244 19.5647 107.239 22.6921 110.78C24.2473 112.54 26.1839 113.852 27.8278 115.495C30.0518 117.716 31.0814 121.021 33.5749 123.166C39.4785 128.244 48.3578 125.952 55.365 127.465C60.2344 128.517 63.509 132.917 68.5222 134.061C71.2992 134.696 73.5729 135.723 76.4948 135.723C78.2863 135.723 79.9305 136.007 81.7038 136.138C84.0122 136.309 86.0815 135.607 88.3313 135.307C91.2695 134.916 93.6876 133.964 96.6952 133.964C100.248 133.964 103.798 134.403 107.309 134.403C110.737 134.403 112.726 134.415 115.624 132.449C117.718 131.028 121.378 128.726 122.472 126.268C124.313 122.129 125.917 117.804 130.2 115.47C133.109 113.885 137.211 111.333 137.439 107.579C137.499 106.589 138.159 105.889 138.294 104.941C138.41 104.135 138.128 103.261 138.539 102.522C139.348 101.068 139.118 98.5992 139.737 96.9277C141.609 91.8807 144.482 88.0967 144.482 82.5139C144.482 81.4632 144.617 80.3005 144.457 79.2647C144.301 78.247 143.326 77.2927 143.186 76.3086C142.787 73.5219 142.373 70.7567 141.743 68.0024C140.316 61.7667 140.96 55.1119 140.96 48.6782C140.96 45.9521 139.555 44.6423 137.977 42.4974C137.047 41.2351 136.062 39.3629 135.017 38.3198C132.061 35.3662 132.205 29.2173 130.175 25.5673C129.486 24.3282 128.166 23.0463 126.874 22.367C124.817 21.2857 123.865 19.2636 122.251 17.652C118.486 13.8906 114.556 10.2558 110.684 6.53625C108.885 4.8082 105.389 5.55905 103.2 5.55905C100.776 5.55905 98.4202 4.33974 96.0594 3.70236C90.5722 2.22089 85.183 1.67522 79.5517 1.18606C74.0897 0.711593 69.0885 0.74949 63.7044 1.57694C59.6292 2.20323 55.9044 2.48085 51.6966 2.48085C47.7854 2.48085 41.7527 2.60997 38.4905 5.21702C35.9947 7.21159 32.959 9.95647 29.5886 9.95647C24.5976 9.95647 22.3756 13.2604 18.6813 15.9174C17.5269 16.7477 17.1829 18.4868 15.9423 19.2888C14.4386 20.2607 12.2636 24.3812 11.5402 26.007C10.6418 28.0264 8.99651 29.6795 8.01862 31.7481C6.92584 34.0598 5.5537 36.9313 4.93719 39.3947C3.38924 45.5801 3.17638 51.4765 3.17638 57.8883C3.17638 64.015 0.535156 69.6219 0.535156 75.82C0.535156 80.707 1.41765 86.0837 4.27689 90.2094C5.83398 92.4561 4.93719 96.9849 4.93719 99.5661C4.93719 101.742 5.11721 103.701 5.35294 105.82C5.91645 110.886 9.10115 115.056 12.225 118.744C15.8189 122.987 19.7766 125.913 24.9909 127.807C27.7687 128.816 30.3823 129.939 33.3059 130.47C35.1986 130.814 36.7489 132.513 38.4905 133.182C40.1925 133.836 41.8548 135.054 43.455 135.943C44.8624 136.724 47.2017 136.924 48.4195 138.019C49.3952 138.896 51.7237 139.167 53.0172 139.583C55.393 140.345 57.7687 140.928 60.1828 141.464C63.4759 142.195 67.0913 141.879 70.5275 141.879C74.1678 141.879 77.5916 144.414 81.337 144.518C84.2837 144.599 86.9766 145.347 89.9943 144.42C92.9629 143.507 95.5356 141.879 98.7006 141.879C102.024 141.879 105.358 141.122 108.385 139.778C110.949 138.64 114.263 138.547 116.969 137.946C120.384 137.188 124.416 133.274 127.069 131.105C129.429 129.176 130.967 125.48 131.74 122.775C132.56 119.911 135.732 118.684 137.218 116.374C138.543 114.315 141.254 111.827 141.4 109.338C141.568 106.488 142.721 104.015 142.721 100.983C142.721 98.5361 144.482 96.638 144.482 94.3869C144.482 91.6019 144.482 88.8169 144.482 86.0318" stroke="#4D4F5F" stroke-linecap="round"/>
</svg>
