<svg width="80" height="272" viewBox="0 0 80 272" fill="none" xmlns="http://www.w3.org/2000/svg">
<path d="M21.0925 29.125C33.2485 29.125 46.6505 27.5436 56.7571 36.4629C67.4482 45.898 67.5724 63.0566 58.1008 73.7055C50.6865 82.0415 40.8403 85.7483 31.6691 90.9762C26.761 93.774 19.8085 96.8953 17.5414 103.036C14.8251 110.393 23.0077 118.174 27.043 122.731C35.7473 132.562 45.5706 141.539 52.5918 153.019C54.9678 156.904 56.6804 161.503 56.6804 166.27C56.6804 172.746 50.5024 174.619 45.7391 175.883C39.2225 177.614 32.4897 178.127 25.9873 179.946C21.9612 181.072 21.4556 181.981 24.3365 185.944C29.937 193.647 37.2417 199.671 43.2054 207.022C47.0291 211.735 51.5755 217.798 51.2673 224.59C51.0406 229.586 48.2146 234.431 43.8964 236.076C38.271 238.218 33.3247 236.297 28.0028 234.332" stroke="#4D4F5F" stroke-width="2" stroke-linecap="round"/>
<path d="M34 225C34 226.945 33.3274 228.427 32.1086 230C31.0272 231.395 29.4142 232.612 27.7282 233.324C27.2461 233.527 26.7567 233.734 26.2577 233.898C25.7447 234.067 26.103 234.313 26.424 234.55C29.7785 237.023 33.2518 240.828 33.2518 245" stroke="#4D4F5F" stroke-width="2" stroke-linecap="round"/>
</svg>
