<svg width="80" height="272" viewBox="0 0 80 272" fill="none" xmlns="http://www.w3.org/2000/svg">
<path d="M58.9075 29.125C46.7515 29.125 33.3495 27.5436 23.2429 36.4629C12.5518 45.898 12.4276 63.0566 21.8992 73.7055C29.3135 82.0415 39.1597 85.7483 48.3309 90.9762C53.239 93.774 60.1915 96.8953 62.4586 103.036C65.1749 110.393 56.9923 118.174 52.957 122.731C44.2527 132.562 34.4294 141.539 27.4082 153.019C25.0322 156.904 23.3196 161.503 23.3196 166.27C23.3196 172.746 29.4976 174.619 34.2609 175.883C40.7775 177.614 47.5103 178.127 54.0127 179.946C58.0388 181.072 58.5444 181.981 55.6635 185.944C50.063 193.647 42.7583 199.671 36.7946 207.022C32.9709 211.735 28.4245 217.798 28.7327 224.59C28.9594 229.586 31.7854 234.431 36.1036 236.076C41.729 238.218 46.6753 236.297 51.9972 234.332" stroke="#4D4F5F" stroke-width="2" stroke-linecap="round"/>
<path d="M46 225C46 226.945 46.6726 228.427 47.8914 230C48.9728 231.395 50.5858 232.612 52.2718 233.324C52.7539 233.527 53.2433 233.734 53.7423 233.898C54.2553 234.067 53.897 234.313 53.576 234.55C50.2215 237.023 46.7482 240.828 46.7482 245" stroke="#4D4F5F" stroke-width="2" stroke-linecap="round"/>
</svg>
