<svg width="558" height="438" viewBox="0 0 558 438" fill="none" xmlns="http://www.w3.org/2000/svg">
<rect width="558" height="438" rx="8" fill="url(#paint0_linear_431_3380)"/>
<g clip-path="url(#clip0_431_3380)">
<rect x="139" y="87" width="136" height="264" rx="4" fill="white"/>
<rect x="139" y="87" width="136" height="264" fill="#4D4F5F"/>
<path d="M139 171C139 168.791 140.791 167 143 167H271C273.209 167 275 168.791 275 171V351H139V171Z" fill="white"/>
<rect x="235" y="175" width="32" height="16" rx="8" fill="url(#paint1_linear_431_3380)"/>
<rect x="253" y="177" width="12" height="12" rx="6" fill="white"/>
<path d="M147 207C147 204.791 148.791 203 151 203H167C169.209 203 171 204.791 171 207V223C171 225.209 169.209 227 167 227H151C148.791 227 147 225.209 147 223V207Z" fill="#EEF0F2"/>
<path d="M147 235C147 232.791 148.791 231 151 231H167C169.209 231 171 232.791 171 235V251C171 253.209 169.209 255 167 255H151C148.791 255 147 253.209 147 251V235Z" fill="#EEF0F2"/>
<path d="M147 263C147 260.791 148.791 259 151 259H167C169.209 259 171 260.791 171 263V279C171 281.209 169.209 283 167 283H151C148.791 283 147 281.209 147 279V263Z" fill="#EEF0F2"/>
<path d="M147 291C147 288.791 148.791 287 151 287H167C169.209 287 171 288.791 171 291V307C171 309.209 169.209 311 167 311H151C148.791 311 147 309.209 147 307V291Z" fill="#EEF0F2"/>
<path d="M175 207C175 204.791 176.791 203 179 203H211C213.209 203 215 204.791 215 207V207C215 209.209 213.209 211 211 211H179C176.791 211 175 209.209 175 207V207Z" fill="#EEF0F2"/>
<path d="M175 235C175 232.791 176.791 231 179 231H211C213.209 231 215 232.791 215 235V235C215 237.209 213.209 239 211 239H179C176.791 239 175 237.209 175 235V235Z" fill="#EEF0F2"/>
<path d="M175 263C175 260.791 176.791 259 179 259H211C213.209 259 215 260.791 215 263V263C215 265.209 213.209 267 211 267H179C176.791 267 175 265.209 175 263V263Z" fill="#EEF0F2"/>
<path d="M175 291C175 288.791 176.791 287 179 287H211C213.209 287 215 288.791 215 291V291C215 293.209 213.209 295 211 295H179C176.791 295 175 293.209 175 291V291Z" fill="#EEF0F2"/>
<rect x="255.5" y="209.5" width="11" height="11" rx="5.5" stroke="#8297DF"/>
<rect x="255.5" y="237.5" width="11" height="11" rx="5.5" stroke="#8297DF"/>
<rect x="255.5" y="265.5" width="11" height="11" rx="5.5" stroke="#8297DF"/>
<rect x="255.5" y="293.5" width="11" height="11" rx="5.5" stroke="#8297DF"/>
<path d="M175 217C175 215.895 175.895 215 177 215H229C230.105 215 231 215.895 231 217V217C231 218.105 230.105 219 229 219H177C175.895 219 175 218.105 175 217V217Z" fill="#8297DF"/>
<path d="M175 245C175 243.895 175.895 243 177 243H229C230.105 243 231 243.895 231 245V245C231 246.105 230.105 247 229 247H177C175.895 247 175 246.105 175 245V245Z" fill="#8297DF"/>
<path d="M175 273C175 271.895 175.895 271 177 271H229C230.105 271 231 271.895 231 273V273C231 274.105 230.105 275 229 275H177C175.895 275 175 274.105 175 273V273Z" fill="#8297DF"/>
<path d="M175 301C175 299.895 175.895 299 177 299H229C230.105 299 231 299.895 231 301V301C231 302.105 230.105 303 229 303H177C175.895 303 175 302.105 175 301V301Z" fill="#8297DF"/>
<rect x="147" y="327" width="120" height="16" rx="4" fill="#8297DF"/>
<path d="M147.608 186V180.512H148.8V186H147.608ZM149.942 182.96V182.512C150.07 182.491 150.177 182.44 150.262 182.36C150.353 182.275 150.42 182.168 150.462 182.04C150.51 181.907 150.534 181.765 150.534 181.616H149.99V180.512H151.102V181.512C151.102 181.827 151.046 182.085 150.934 182.288C150.828 182.491 150.686 182.645 150.51 182.752C150.334 182.859 150.145 182.928 149.942 182.96ZM152.16 186V180.216H153.272V186H152.16ZM154.293 186V180.216H155.405V186H154.293ZM157.996 186V180.216H159.108V186H157.996ZM160.129 181.176V180.216H161.241V181.176H160.129ZM160.129 186V181.792H161.241V186H160.129ZM163.966 186.096C163.673 186.096 163.409 186.064 163.174 186C162.939 185.936 162.739 185.848 162.574 185.736C162.409 185.619 162.281 185.48 162.19 185.32C162.105 185.16 162.062 184.979 162.062 184.776C162.062 184.755 162.062 184.733 162.062 184.712C162.062 184.691 162.065 184.675 162.07 184.664H163.142C163.142 184.675 163.142 184.685 163.142 184.696C163.142 184.707 163.142 184.717 163.142 184.728C163.147 184.861 163.19 184.971 163.27 185.056C163.35 185.136 163.454 185.195 163.582 185.232C163.715 185.269 163.854 185.288 163.998 185.288C164.126 185.288 164.249 185.277 164.366 185.256C164.489 185.229 164.59 185.184 164.67 185.12C164.755 185.056 164.798 184.973 164.798 184.872C164.798 184.744 164.745 184.645 164.638 184.576C164.537 184.507 164.401 184.451 164.23 184.408C164.065 184.365 163.883 184.317 163.686 184.264C163.505 184.221 163.323 184.173 163.142 184.12C162.961 184.061 162.795 183.987 162.646 183.896C162.502 183.805 162.385 183.688 162.294 183.544C162.203 183.395 162.158 183.208 162.158 182.984C162.158 182.765 162.206 182.576 162.302 182.416C162.398 182.251 162.529 182.115 162.694 182.008C162.865 181.901 163.062 181.824 163.286 181.776C163.515 181.723 163.761 181.696 164.022 181.696C164.267 181.696 164.497 181.723 164.71 181.776C164.923 181.824 165.11 181.899 165.27 182C165.43 182.096 165.555 182.219 165.646 182.368C165.737 182.512 165.782 182.675 165.782 182.856C165.782 182.893 165.782 182.928 165.782 182.96C165.782 182.992 165.779 183.013 165.774 183.024H164.71V182.96C164.71 182.864 164.681 182.784 164.622 182.72C164.563 182.651 164.478 182.597 164.366 182.56C164.259 182.523 164.129 182.504 163.974 182.504C163.867 182.504 163.769 182.512 163.678 182.528C163.593 182.544 163.518 182.568 163.454 182.6C163.39 182.632 163.339 182.672 163.302 182.72C163.27 182.763 163.254 182.816 163.254 182.88C163.254 182.971 163.291 183.045 163.366 183.104C163.446 183.157 163.55 183.203 163.678 183.24C163.806 183.277 163.947 183.317 164.102 183.36C164.294 183.413 164.494 183.467 164.702 183.52C164.915 183.568 165.113 183.635 165.294 183.72C165.475 183.805 165.622 183.928 165.734 184.088C165.846 184.243 165.902 184.453 165.902 184.72C165.902 184.976 165.851 185.192 165.75 185.368C165.654 185.544 165.518 185.685 165.342 185.792C165.166 185.899 164.961 185.976 164.726 186.024C164.491 186.072 164.238 186.096 163.966 186.096ZM167.963 186.096C167.697 186.096 167.481 186.048 167.315 185.952C167.15 185.856 167.03 185.728 166.955 185.568C166.881 185.403 166.843 185.221 166.843 185.024V182.648H166.323V181.792H166.883L167.091 180.592H167.955V181.792H168.723V182.648H167.955V184.84C167.955 184.968 167.985 185.067 168.043 185.136C168.102 185.2 168.198 185.232 168.331 185.232H168.723V185.968C168.659 185.989 168.585 186.008 168.499 186.024C168.414 186.045 168.323 186.061 168.227 186.072C168.131 186.088 168.043 186.096 167.963 186.096ZM171.354 186.096C170.89 186.096 170.5 186.019 170.186 185.864C169.871 185.704 169.634 185.461 169.474 185.136C169.314 184.811 169.234 184.397 169.234 183.896C169.234 183.389 169.314 182.976 169.474 182.656C169.634 182.331 169.868 182.091 170.178 181.936C170.492 181.776 170.876 181.696 171.33 181.696C171.756 181.696 172.116 181.773 172.41 181.928C172.703 182.077 172.924 182.312 173.074 182.632C173.223 182.947 173.298 183.355 173.298 183.856V184.144H170.362C170.372 184.389 170.41 184.597 170.474 184.768C170.543 184.939 170.647 185.067 170.786 185.152C170.93 185.232 171.119 185.272 171.354 185.272C171.482 185.272 171.596 185.256 171.698 185.224C171.804 185.192 171.895 185.144 171.97 185.08C172.044 185.016 172.103 184.936 172.146 184.84C172.188 184.744 172.21 184.635 172.21 184.512H173.298C173.298 184.779 173.25 185.011 173.154 185.208C173.058 185.405 172.924 185.571 172.754 185.704C172.583 185.832 172.378 185.931 172.138 186C171.903 186.064 171.642 186.096 171.354 186.096ZM170.378 183.44H172.154C172.154 183.28 172.132 183.141 172.09 183.024C172.052 182.907 171.999 182.811 171.93 182.736C171.86 182.661 171.775 182.608 171.674 182.576C171.578 182.539 171.468 182.52 171.346 182.52C171.143 182.52 170.972 182.555 170.834 182.624C170.7 182.688 170.596 182.789 170.522 182.928C170.452 183.061 170.404 183.232 170.378 183.44ZM174.114 186V181.792H175.034L175.122 182.368H175.178C175.274 182.229 175.388 182.109 175.522 182.008C175.66 181.907 175.815 181.829 175.986 181.776C176.156 181.723 176.343 181.696 176.546 181.696C176.823 181.696 177.066 181.747 177.274 181.848C177.482 181.949 177.642 182.109 177.754 182.328C177.871 182.547 177.93 182.832 177.93 183.184V186H176.818V183.36C176.818 183.227 176.802 183.115 176.77 183.024C176.738 182.928 176.69 182.851 176.626 182.792C176.567 182.728 176.492 182.683 176.402 182.656C176.311 182.629 176.21 182.616 176.098 182.616C175.932 182.616 175.783 182.656 175.65 182.736C175.516 182.816 175.412 182.925 175.338 183.064C175.263 183.203 175.226 183.363 175.226 183.544V186H174.114ZM181.752 186.096C181.486 186.096 181.27 186.048 181.104 185.952C180.939 185.856 180.819 185.728 180.744 185.568C180.67 185.403 180.632 185.221 180.632 185.024V182.648H180.112V181.792H180.672L180.88 180.592H181.744V181.792H182.512V182.648H181.744V184.84C181.744 184.968 181.774 185.067 181.832 185.136C181.891 185.2 181.987 185.232 182.12 185.232H182.512V185.968C182.448 185.989 182.374 186.008 182.288 186.024C182.203 186.045 182.112 186.061 182.016 186.072C181.92 186.088 181.832 186.096 181.752 186.096ZM185.167 186.096C184.708 186.096 184.319 186.019 183.999 185.864C183.679 185.704 183.436 185.461 183.271 185.136C183.105 184.805 183.023 184.392 183.023 183.896C183.023 183.389 183.105 182.976 183.271 182.656C183.436 182.331 183.679 182.091 183.999 181.936C184.319 181.776 184.708 181.696 185.167 181.696C185.636 181.696 186.028 181.776 186.343 181.936C186.663 182.091 186.905 182.331 187.071 182.656C187.236 182.976 187.319 183.389 187.319 183.896C187.319 184.392 187.236 184.805 187.071 185.136C186.905 185.461 186.663 185.704 186.343 185.864C186.028 186.019 185.636 186.096 185.167 186.096ZM185.167 185.232C185.412 185.232 185.607 185.187 185.751 185.096C185.9 185.005 186.009 184.867 186.079 184.68C186.148 184.493 186.183 184.264 186.183 183.992V183.8C186.183 183.528 186.148 183.299 186.079 183.112C186.009 182.925 185.9 182.787 185.751 182.696C185.607 182.6 185.412 182.552 185.167 182.552C184.927 182.552 184.732 182.6 184.583 182.696C184.439 182.787 184.332 182.925 184.263 183.112C184.193 183.299 184.159 183.528 184.159 183.8V183.992C184.159 184.264 184.193 184.493 184.263 184.68C184.332 184.867 184.439 185.005 184.583 185.096C184.732 185.187 184.927 185.232 185.167 185.232ZM190.963 186.096C190.697 186.096 190.481 186.048 190.315 185.952C190.15 185.856 190.03 185.728 189.955 185.568C189.881 185.403 189.843 185.221 189.843 185.024V182.648H189.323V181.792H189.883L190.091 180.592H190.955V181.792H191.723V182.648H190.955V184.84C190.955 184.968 190.985 185.067 191.043 185.136C191.102 185.2 191.198 185.232 191.331 185.232H191.723V185.968C191.659 185.989 191.585 186.008 191.499 186.024C191.414 186.045 191.323 186.061 191.227 186.072C191.131 186.088 191.043 186.096 190.963 186.096ZM192.442 186V180.216H193.554V182.256H193.61C193.7 182.144 193.807 182.048 193.93 181.968C194.058 181.883 194.199 181.816 194.354 181.768C194.514 181.72 194.687 181.696 194.874 181.696C195.151 181.696 195.394 181.747 195.602 181.848C195.81 181.949 195.97 182.109 196.082 182.328C196.199 182.547 196.258 182.832 196.258 183.184V186H195.146V183.36C195.146 183.227 195.13 183.115 195.098 183.024C195.066 182.928 195.018 182.851 194.954 182.792C194.895 182.728 194.82 182.683 194.73 182.656C194.639 182.629 194.538 182.616 194.426 182.616C194.26 182.616 194.111 182.656 193.978 182.736C193.844 182.816 193.74 182.925 193.666 183.064C193.591 183.203 193.554 183.363 193.554 183.544V186H192.442ZM197.254 181.176V180.216H198.366V181.176H197.254ZM197.254 186V181.792H198.366V186H197.254ZM201.091 186.096C200.798 186.096 200.534 186.064 200.299 186C200.064 185.936 199.864 185.848 199.699 185.736C199.534 185.619 199.406 185.48 199.315 185.32C199.23 185.16 199.187 184.979 199.187 184.776C199.187 184.755 199.187 184.733 199.187 184.712C199.187 184.691 199.19 184.675 199.195 184.664H200.267C200.267 184.675 200.267 184.685 200.267 184.696C200.267 184.707 200.267 184.717 200.267 184.728C200.272 184.861 200.315 184.971 200.395 185.056C200.475 185.136 200.579 185.195 200.707 185.232C200.84 185.269 200.979 185.288 201.123 185.288C201.251 185.288 201.374 185.277 201.491 185.256C201.614 185.229 201.715 185.184 201.795 185.12C201.88 185.056 201.923 184.973 201.923 184.872C201.923 184.744 201.87 184.645 201.763 184.576C201.662 184.507 201.526 184.451 201.355 184.408C201.19 184.365 201.008 184.317 200.811 184.264C200.63 184.221 200.448 184.173 200.267 184.12C200.086 184.061 199.92 183.987 199.771 183.896C199.627 183.805 199.51 183.688 199.419 183.544C199.328 183.395 199.283 183.208 199.283 182.984C199.283 182.765 199.331 182.576 199.427 182.416C199.523 182.251 199.654 182.115 199.819 182.008C199.99 181.901 200.187 181.824 200.411 181.776C200.64 181.723 200.886 181.696 201.147 181.696C201.392 181.696 201.622 181.723 201.835 181.776C202.048 181.824 202.235 181.899 202.395 182C202.555 182.096 202.68 182.219 202.771 182.368C202.862 182.512 202.907 182.675 202.907 182.856C202.907 182.893 202.907 182.928 202.907 182.96C202.907 182.992 202.904 183.013 202.899 183.024H201.835V182.96C201.835 182.864 201.806 182.784 201.747 182.72C201.688 182.651 201.603 182.597 201.491 182.56C201.384 182.523 201.254 182.504 201.099 182.504C200.992 182.504 200.894 182.512 200.803 182.528C200.718 182.544 200.643 182.568 200.579 182.6C200.515 182.632 200.464 182.672 200.427 182.72C200.395 182.763 200.379 182.816 200.379 182.88C200.379 182.971 200.416 183.045 200.491 183.104C200.571 183.157 200.675 183.203 200.803 183.24C200.931 183.277 201.072 183.317 201.227 183.36C201.419 183.413 201.619 183.467 201.827 183.52C202.04 183.568 202.238 183.635 202.419 183.72C202.6 183.805 202.747 183.928 202.859 184.088C202.971 184.243 203.027 184.453 203.027 184.72C203.027 184.976 202.976 185.192 202.875 185.368C202.779 185.544 202.643 185.685 202.467 185.792C202.291 185.899 202.086 185.976 201.851 186.024C201.616 186.072 201.363 186.096 201.091 186.096ZM205.403 186V180.216H206.515V186H205.403ZM208.647 186.096C208.509 186.096 208.359 186.08 208.199 186.048C208.045 186.016 207.898 185.96 207.759 185.88C207.621 185.795 207.506 185.675 207.415 185.52C207.33 185.36 207.287 185.157 207.287 184.912C207.287 184.619 207.351 184.376 207.479 184.184C207.607 183.992 207.789 183.843 208.023 183.736C208.263 183.624 208.549 183.547 208.879 183.504C209.21 183.461 209.575 183.44 209.975 183.44V183.128C209.975 183.005 209.954 182.899 209.911 182.808C209.874 182.717 209.805 182.645 209.703 182.592C209.607 182.539 209.471 182.512 209.295 182.512C209.119 182.512 208.975 182.533 208.863 182.576C208.757 182.619 208.679 182.675 208.631 182.744C208.589 182.808 208.567 182.88 208.567 182.96V183.056H207.487C207.482 183.029 207.479 183.005 207.479 182.984C207.479 182.957 207.479 182.925 207.479 182.888C207.479 182.643 207.554 182.432 207.703 182.256C207.853 182.075 208.063 181.936 208.335 181.84C208.607 181.744 208.925 181.696 209.287 181.696C209.677 181.696 210.002 181.747 210.263 181.848C210.53 181.949 210.733 182.099 210.871 182.296C211.015 182.493 211.087 182.741 211.087 183.04V184.952C211.087 185.048 211.114 185.12 211.167 185.168C211.226 185.211 211.29 185.232 211.359 185.232H211.623V185.96C211.57 185.987 211.487 186.013 211.375 186.04C211.263 186.072 211.127 186.088 210.967 186.088C210.813 186.088 210.674 186.064 210.551 186.016C210.434 185.973 210.335 185.912 210.255 185.832C210.175 185.747 210.119 185.645 210.087 185.528H210.031C209.941 185.64 209.829 185.739 209.695 185.824C209.567 185.909 209.415 185.976 209.239 186.024C209.069 186.072 208.871 186.096 208.647 186.096ZM209.023 185.256C209.173 185.256 209.306 185.235 209.423 185.192C209.541 185.144 209.639 185.083 209.719 185.008C209.799 184.928 209.861 184.832 209.903 184.72C209.951 184.608 209.975 184.488 209.975 184.36V184.128C209.677 184.128 209.41 184.149 209.175 184.192C208.941 184.229 208.754 184.296 208.615 184.392C208.482 184.488 208.415 184.621 208.415 184.792C208.415 184.888 208.439 184.971 208.487 185.04C208.535 185.109 208.605 185.163 208.695 185.2C208.786 185.237 208.895 185.256 209.023 185.256ZM213.432 186.096C213.165 186.096 212.949 186.048 212.784 185.952C212.619 185.856 212.499 185.728 212.424 185.568C212.349 185.403 212.312 185.221 212.312 185.024V182.648H211.792V181.792H212.352L212.56 180.592H213.424V181.792H214.192V182.648H213.424V184.84C213.424 184.968 213.453 185.067 213.512 185.136C213.571 185.2 213.667 185.232 213.8 185.232H214.192V185.968C214.128 185.989 214.053 186.008 213.968 186.024C213.883 186.045 213.792 186.061 213.696 186.072C213.6 186.088 213.512 186.096 213.432 186.096ZM216.822 186.096C216.358 186.096 215.969 186.019 215.654 185.864C215.34 185.704 215.102 185.461 214.942 185.136C214.782 184.811 214.702 184.397 214.702 183.896C214.702 183.389 214.782 182.976 214.942 182.656C215.102 182.331 215.337 182.091 215.646 181.936C215.961 181.776 216.345 181.696 216.798 181.696C217.225 181.696 217.585 181.773 217.878 181.928C218.172 182.077 218.393 182.312 218.542 182.632C218.692 182.947 218.766 183.355 218.766 183.856V184.144H215.83C215.841 184.389 215.878 184.597 215.942 184.768C216.012 184.939 216.116 185.067 216.254 185.152C216.398 185.232 216.588 185.272 216.822 185.272C216.95 185.272 217.065 185.256 217.166 185.224C217.273 185.192 217.364 185.144 217.438 185.08C217.513 185.016 217.572 184.936 217.614 184.84C217.657 184.744 217.678 184.635 217.678 184.512H218.766C218.766 184.779 218.718 185.011 218.622 185.208C218.526 185.405 218.393 185.571 218.222 185.704C218.052 185.832 217.846 185.931 217.606 186C217.372 186.064 217.11 186.096 216.822 186.096ZM215.846 183.44H217.622C217.622 183.28 217.601 183.141 217.558 183.024C217.521 182.907 217.468 182.811 217.398 182.736C217.329 182.661 217.244 182.608 217.142 182.576C217.046 182.539 216.937 182.52 216.814 182.52C216.612 182.52 216.441 182.555 216.302 182.624C216.169 182.688 216.065 182.789 215.99 182.928C215.921 183.061 215.873 183.232 215.846 183.44ZM219.582 186V181.792H220.502L220.59 182.448H220.646C220.7 182.309 220.769 182.184 220.854 182.072C220.94 181.955 221.046 181.861 221.174 181.792C221.302 181.723 221.452 181.688 221.622 181.688C221.713 181.688 221.796 181.699 221.87 181.72C221.945 181.736 222.001 181.752 222.038 181.768V182.776H221.694C221.529 182.776 221.382 182.8 221.254 182.848C221.132 182.891 221.028 182.96 220.942 183.056C220.857 183.152 220.793 183.269 220.75 183.408C220.713 183.547 220.694 183.709 220.694 183.896V186H219.582Z" fill="#4D4F5F"/>
</g>
<g clip-path="url(#clip1_431_3380)">
<rect x="283" y="87" width="136" height="264" rx="4" fill="white"/>
<path d="M343.912 119V110.768H348.196C348.788 110.768 349.28 110.88 349.672 111.104C350.072 111.32 350.372 111.628 350.572 112.028C350.78 112.42 350.884 112.888 350.884 113.432C350.884 113.976 350.776 114.452 350.56 114.86C350.352 115.26 350.044 115.572 349.636 115.796C349.228 116.02 348.728 116.132 348.136 116.132H345.7V119H343.912ZM345.7 114.668H347.896C348.272 114.668 348.56 114.56 348.76 114.344C348.968 114.128 349.072 113.828 349.072 113.444C349.072 113.18 349.028 112.96 348.94 112.784C348.852 112.608 348.72 112.472 348.544 112.376C348.376 112.28 348.16 112.232 347.896 112.232H345.7V114.668ZM351.936 119V110.324H353.604V119H351.936ZM356.803 119.144C356.595 119.144 356.371 119.12 356.131 119.072C355.899 119.024 355.679 118.94 355.471 118.82C355.263 118.692 355.091 118.512 354.955 118.28C354.827 118.04 354.763 117.736 354.763 117.368C354.763 116.928 354.859 116.564 355.051 116.276C355.243 115.988 355.515 115.764 355.867 115.604C356.227 115.436 356.655 115.32 357.151 115.256C357.647 115.192 358.195 115.16 358.795 115.16V114.692C358.795 114.508 358.763 114.348 358.699 114.212C358.643 114.076 358.539 113.968 358.387 113.888C358.243 113.808 358.039 113.768 357.775 113.768C357.511 113.768 357.295 113.8 357.127 113.864C356.967 113.928 356.851 114.012 356.779 114.116C356.715 114.212 356.683 114.32 356.683 114.44V114.584H355.063C355.055 114.544 355.051 114.508 355.051 114.476C355.051 114.436 355.051 114.388 355.051 114.332C355.051 113.964 355.163 113.648 355.387 113.384C355.611 113.112 355.927 112.904 356.335 112.76C356.743 112.616 357.219 112.544 357.763 112.544C358.347 112.544 358.835 112.62 359.227 112.772C359.627 112.924 359.931 113.148 360.139 113.444C360.355 113.74 360.463 114.112 360.463 114.56V117.428C360.463 117.572 360.503 117.68 360.583 117.752C360.671 117.816 360.767 117.848 360.871 117.848H361.267V118.94C361.187 118.98 361.063 119.02 360.895 119.06C360.727 119.108 360.523 119.132 360.283 119.132C360.051 119.132 359.843 119.096 359.659 119.024C359.483 118.96 359.335 118.868 359.215 118.748C359.095 118.62 359.011 118.468 358.963 118.292H358.879C358.743 118.46 358.575 118.608 358.375 118.736C358.183 118.864 357.955 118.964 357.691 119.036C357.435 119.108 357.139 119.144 356.803 119.144ZM357.367 117.884C357.591 117.884 357.791 117.852 357.967 117.788C358.143 117.716 358.291 117.624 358.411 117.512C358.531 117.392 358.623 117.248 358.687 117.08C358.759 116.912 358.795 116.732 358.795 116.54V116.192C358.347 116.192 357.947 116.224 357.595 116.288C357.243 116.344 356.963 116.444 356.755 116.588C356.555 116.732 356.455 116.932 356.455 117.188C356.455 117.332 356.491 117.456 356.563 117.56C356.635 117.664 356.739 117.744 356.875 117.8C357.011 117.856 357.175 117.884 357.367 117.884ZM363.008 121.256C362.712 121.256 362.464 121.232 362.264 121.184C362.072 121.144 361.948 121.116 361.892 121.1V119.972H362.624C362.824 119.972 363.004 119.924 363.164 119.828C363.324 119.74 363.464 119.62 363.584 119.468C363.704 119.324 363.792 119.168 363.848 119L361.376 112.688H363.14L364.22 115.604C364.268 115.74 364.32 115.912 364.376 116.12C364.44 116.32 364.504 116.532 364.568 116.756C364.632 116.972 364.684 117.164 364.724 117.332H364.784C364.816 117.22 364.852 117.088 364.892 116.936C364.932 116.784 364.972 116.628 365.012 116.468C365.06 116.308 365.104 116.156 365.144 116.012C365.192 115.86 365.232 115.728 365.264 115.616L366.164 112.688H367.844L365.696 118.7C365.576 119.052 365.436 119.38 365.276 119.684C365.124 119.996 364.944 120.268 364.736 120.5C364.528 120.74 364.28 120.924 363.992 121.052C363.712 121.188 363.384 121.256 363.008 121.256ZM368.659 119V110.324H370.327V119H368.659ZM371.858 111.764V110.324H373.526V111.764H371.858ZM371.858 119V112.688H373.526V119H371.858ZM377.613 119.144C377.173 119.144 376.777 119.096 376.425 119C376.073 118.904 375.773 118.772 375.525 118.604C375.277 118.428 375.085 118.22 374.949 117.98C374.821 117.74 374.757 117.468 374.757 117.164C374.757 117.132 374.757 117.1 374.757 117.068C374.757 117.036 374.761 117.012 374.769 116.996H376.377C376.377 117.012 376.377 117.028 376.377 117.044C376.377 117.06 376.377 117.076 376.377 117.092C376.385 117.292 376.449 117.456 376.569 117.584C376.689 117.704 376.845 117.792 377.037 117.848C377.237 117.904 377.445 117.932 377.661 117.932C377.853 117.932 378.037 117.916 378.213 117.884C378.397 117.844 378.549 117.776 378.669 117.68C378.797 117.584 378.861 117.46 378.861 117.308C378.861 117.116 378.781 116.968 378.621 116.864C378.469 116.76 378.265 116.676 378.009 116.612C377.761 116.548 377.489 116.476 377.193 116.396C376.921 116.332 376.649 116.26 376.377 116.18C376.105 116.092 375.857 115.98 375.633 115.844C375.417 115.708 375.241 115.532 375.105 115.316C374.969 115.092 374.901 114.812 374.901 114.476C374.901 114.148 374.973 113.864 375.117 113.624C375.261 113.376 375.457 113.172 375.705 113.012C375.961 112.852 376.257 112.736 376.593 112.664C376.937 112.584 377.305 112.544 377.697 112.544C378.065 112.544 378.409 112.584 378.729 112.664C379.049 112.736 379.329 112.848 379.569 113C379.809 113.144 379.997 113.328 380.133 113.552C380.269 113.768 380.337 114.012 380.337 114.284C380.337 114.34 380.337 114.392 380.337 114.44C380.337 114.488 380.333 114.52 380.325 114.536H378.729V114.44C378.729 114.296 378.685 114.176 378.597 114.08C378.509 113.976 378.381 113.896 378.213 113.84C378.053 113.784 377.857 113.756 377.625 113.756C377.465 113.756 377.317 113.768 377.181 113.792C377.053 113.816 376.941 113.852 376.845 113.9C376.749 113.948 376.673 114.008 376.617 114.08C376.569 114.144 376.545 114.224 376.545 114.32C376.545 114.456 376.601 114.568 376.713 114.656C376.833 114.736 376.989 114.804 377.181 114.86C377.373 114.916 377.585 114.976 377.817 115.04C378.105 115.12 378.405 115.2 378.717 115.28C379.037 115.352 379.333 115.452 379.605 115.58C379.877 115.708 380.097 115.892 380.265 116.132C380.433 116.364 380.517 116.68 380.517 117.08C380.517 117.464 380.441 117.788 380.289 118.052C380.145 118.316 379.941 118.528 379.677 118.688C379.413 118.848 379.105 118.964 378.753 119.036C378.401 119.108 378.021 119.144 377.613 119.144ZM383.609 119.144C383.209 119.144 382.885 119.072 382.637 118.928C382.389 118.784 382.209 118.592 382.097 118.352C381.985 118.104 381.929 117.832 381.929 117.536V113.972H381.149V112.688H381.989L382.301 110.888H383.597V112.688H384.749V113.972H383.597V117.26C383.597 117.452 383.641 117.6 383.729 117.704C383.817 117.8 383.961 117.848 384.161 117.848H384.749V118.952C384.653 118.984 384.541 119.012 384.413 119.036C384.285 119.068 384.149 119.092 384.005 119.108C383.861 119.132 383.729 119.144 383.609 119.144ZM343.912 135V126.768H345.556L348.868 131.208C348.916 131.264 348.976 131.344 349.048 131.448C349.12 131.544 349.188 131.64 349.252 131.736C349.316 131.832 349.36 131.908 349.384 131.964H349.444C349.444 131.828 349.444 131.696 349.444 131.568C349.444 131.432 349.444 131.312 349.444 131.208V126.768H351.136V135H349.492L346.108 130.452C346.028 130.34 345.944 130.216 345.856 130.08C345.768 129.944 345.704 129.84 345.664 129.768H345.604C345.604 129.888 345.604 130.008 345.604 130.128C345.604 130.24 345.604 130.348 345.604 130.452V135H343.912ZM355.719 135.144C355.031 135.144 354.447 135.028 353.967 134.796C353.487 134.556 353.123 134.192 352.875 133.704C352.627 133.208 352.503 132.588 352.503 131.844C352.503 131.084 352.627 130.464 352.875 129.984C353.123 129.496 353.487 129.136 353.967 128.904C354.447 128.664 355.031 128.544 355.719 128.544C356.423 128.544 357.011 128.664 357.483 128.904C357.963 129.136 358.327 129.496 358.575 129.984C358.823 130.464 358.947 131.084 358.947 131.844C358.947 132.588 358.823 133.208 358.575 133.704C358.327 134.192 357.963 134.556 357.483 134.796C357.011 135.028 356.423 135.144 355.719 135.144ZM355.719 133.848C356.087 133.848 356.379 133.78 356.595 133.644C356.819 133.508 356.983 133.3 357.087 133.02C357.191 132.74 357.243 132.396 357.243 131.988V131.7C357.243 131.292 357.191 130.948 357.087 130.668C356.983 130.388 356.819 130.18 356.595 130.044C356.379 129.9 356.087 129.828 355.719 129.828C355.359 129.828 355.067 129.9 354.843 130.044C354.627 130.18 354.467 130.388 354.363 130.668C354.259 130.948 354.207 131.292 354.207 131.7V131.988C354.207 132.396 354.259 132.74 354.363 133.02C354.467 133.3 354.627 133.508 354.843 133.644C355.067 133.78 355.359 133.848 355.719 133.848ZM360.378 135V133.284H362.118V135H360.378ZM366.641 135V133.656H368.609V128.796H366.629V127.788C366.893 127.764 367.197 127.704 367.541 127.608C367.893 127.504 368.245 127.38 368.597 127.236C368.949 127.084 369.265 126.924 369.545 126.756H370.289V133.656H372.125V135H366.641Z" fill="#4D4F5F"/>
<path d="M291 107C291 104.791 292.791 103 295 103H327C329.209 103 331 104.791 331 107V139C331 141.209 329.209 143 327 143H295C292.791 143 291 141.209 291 139V107Z" fill="url(#paint2_linear_431_3380)"/>
<path d="M291 199C291 196.791 292.791 195 295 195H311C313.209 195 315 196.791 315 199V215C315 217.209 313.209 219 311 219H295C292.791 219 291 217.209 291 215V199Z" fill="#EEF0F2"/>
<path d="M291 227C291 224.791 292.791 223 295 223H311C313.209 223 315 224.791 315 227V243C315 245.209 313.209 247 311 247H295C292.791 247 291 245.209 291 243V227Z" fill="#EEF0F2"/>
<path d="M291 255C291 252.791 292.791 251 295 251H311C313.209 251 315 252.791 315 255V271C315 273.209 313.209 275 311 275H295C292.791 275 291 273.209 291 271V255Z" fill="#EEF0F2"/>
<path d="M291 283C291 280.791 292.791 279 295 279H311C313.209 279 315 280.791 315 283V299C315 301.209 313.209 303 311 303H295C292.791 303 291 301.209 291 299V283Z" fill="#EEF0F2"/>
<path d="M291 311C291 308.791 292.791 307 295 307H311C313.209 307 315 308.791 315 311V327C315 329.209 313.209 331 311 331H295C292.791 331 291 329.209 291 327V311Z" fill="#EEF0F2"/>
<path d="M291 339C291 336.791 292.791 335 295 335H311C313.209 335 315 336.791 315 339V355C315 357.209 313.209 359 311 359H295C292.791 359 291 357.209 291 355V339Z" fill="#EEF0F2"/>
<path d="M291 155C291 152.791 292.791 151 295 151H407C409.209 151 411 152.791 411 155V155C411 157.209 409.209 159 407 159H295C292.791 159 291 157.209 291 155V155Z" fill="#EEF0F2"/>
<path d="M319 199C319 196.791 320.791 195 323 195H395C397.209 195 399 196.791 399 199V199C399 201.209 397.209 203 395 203H323C320.791 203 319 201.209 319 199V199Z" fill="#EEF0F2"/>
<path d="M319 227C319 224.791 320.791 223 323 223H395C397.209 223 399 224.791 399 227V227C399 229.209 397.209 231 395 231H323C320.791 231 319 229.209 319 227V227Z" fill="#EEF0F2"/>
<path d="M319 255C319 252.791 320.791 251 323 251H395C397.209 251 399 252.791 399 255V255C399 257.209 397.209 259 395 259H323C320.791 259 319 257.209 319 255V255Z" fill="#EEF0F2"/>
<path d="M319 283C319 280.791 320.791 279 323 279H395C397.209 279 399 280.791 399 283V283C399 285.209 397.209 287 395 287H323C320.791 287 319 285.209 319 283V283Z" fill="#EEF0F2"/>
<path d="M319 311C319 308.791 320.791 307 323 307H395C397.209 307 399 308.791 399 311V311C399 313.209 397.209 315 395 315H323C320.791 315 319 313.209 319 311V311Z" fill="#EEF0F2"/>
<path d="M319 339C319 336.791 320.791 335 323 335H395C397.209 335 399 336.791 399 339V339C399 341.209 397.209 343 395 343H323C320.791 343 319 341.209 319 339V339Z" fill="#EEF0F2"/>
<path d="M319 209C319 207.895 319.895 207 321 207H357C358.105 207 359 207.895 359 209V209C359 210.105 358.105 211 357 211H321C319.895 211 319 210.105 319 209V209Z" fill="#8297DF"/>
<path d="M319 237C319 235.895 319.895 235 321 235H357C358.105 235 359 235.895 359 237V237C359 238.105 358.105 239 357 239H321C319.895 239 319 238.105 319 237V237Z" fill="#8297DF"/>
<path d="M319 265C319 263.895 319.895 263 321 263H357C358.105 263 359 263.895 359 265V265C359 266.105 358.105 267 357 267H321C319.895 267 319 266.105 319 265V265Z" fill="#8297DF"/>
<path d="M319 293C319 291.895 319.895 291 321 291H357C358.105 291 359 291.895 359 293V293C359 294.105 358.105 295 357 295H321C319.895 295 319 294.105 319 293V293Z" fill="#8297DF"/>
<path d="M319 321C319 319.895 319.895 319 321 319H357C358.105 319 359 319.895 359 321V321C359 322.105 358.105 323 357 323H321C319.895 323 319 322.105 319 321V321Z" fill="#8297DF"/>
<path d="M319 349C319 347.895 319.895 347 321 347H357C358.105 347 359 347.895 359 349V349C359 350.105 358.105 351 357 351H321C319.895 351 319 350.105 319 349V349Z" fill="#8297DF"/>
<path d="M291 155C291 152.791 292.791 151 295 151H359C361.209 151 363 152.791 363 155V155C363 157.209 361.209 159 359 159H295C292.791 159 291 157.209 291 155V155Z" fill="url(#paint3_linear_431_3380)"/>
<rect x="291" y="175" width="40" height="12" rx="6" fill="#8297DF"/>
<rect x="335" y="175" width="40" height="12" rx="6" fill="#EEF0F2"/>
<rect x="379" y="175" width="40" height="12" rx="6" fill="#EEF0F2"/>
</g>
<defs>
<linearGradient id="paint0_linear_431_3380" x1="66.0789" y1="212.802" x2="239.561" y2="405.045" gradientUnits="userSpaceOnUse">
<stop stop-color="#4D4F5F"/>
<stop offset="1" stop-color="#5872CE"/>
</linearGradient>
<linearGradient id="paint1_linear_431_3380" x1="238.789" y1="182.774" x2="244.295" y2="192.351" gradientUnits="userSpaceOnUse">
<stop stop-color="#4D4F5F"/>
<stop offset="1" stop-color="#5872CE"/>
</linearGradient>
<linearGradient id="paint2_linear_431_3380" x1="295.737" y1="122.434" x2="311.51" y2="136.154" gradientUnits="userSpaceOnUse">
<stop stop-color="#4D4F5F"/>
<stop offset="1" stop-color="#5872CE"/>
</linearGradient>
<linearGradient id="paint3_linear_431_3380" x1="299.526" y1="154.887" x2="300.327" y2="161.155" gradientUnits="userSpaceOnUse">
<stop stop-color="#4D4F5F"/>
<stop offset="1" stop-color="#5872CE"/>
</linearGradient>
<clipPath id="clip0_431_3380">
<rect x="139" y="87" width="136" height="264" rx="4" fill="white"/>
</clipPath>
<clipPath id="clip1_431_3380">
<rect x="283" y="87" width="136" height="264" rx="4" fill="white"/>
</clipPath>
</defs>
</svg>
