<svg width="558" height="438" viewBox="0 0 558 438" fill="none" xmlns="http://www.w3.org/2000/svg">
<rect width="558" height="438" rx="8" fill="url(#paint0_linear_431_3343)"/>
<rect x="99" y="87" width="360" height="264" rx="4" fill="white"/>
<path d="M123.912 123V114.768H126.636L127.812 118.98C127.86 119.132 127.908 119.312 127.956 119.52C128.004 119.728 128.052 119.936 128.1 120.144C128.156 120.344 128.2 120.524 128.232 120.684H128.328C128.344 120.548 128.372 120.388 128.412 120.204C128.452 120.012 128.496 119.808 128.544 119.592C128.592 119.376 128.644 119.168 128.7 118.968L129.876 114.768H132.552V123H130.788V119.1C130.788 118.74 130.788 118.38 130.788 118.02C130.796 117.652 130.804 117.332 130.812 117.06C130.828 116.788 130.836 116.612 130.836 116.532H130.74C130.724 116.62 130.684 116.784 130.62 117.024C130.564 117.256 130.5 117.504 130.428 117.768C130.364 118.032 130.304 118.26 130.248 118.452L128.964 123H127.404L126.108 118.464C126.06 118.296 126.004 118.1 125.94 117.876C125.884 117.644 125.828 117.408 125.772 117.168C125.724 116.92 125.676 116.708 125.628 116.532H125.532C125.54 116.748 125.548 117.008 125.556 117.312C125.564 117.608 125.572 117.916 125.58 118.236C125.588 118.548 125.592 118.836 125.592 119.1V123H123.912ZM137.101 123.144C136.405 123.144 135.821 123.028 135.349 122.796C134.877 122.556 134.521 122.192 134.281 121.704C134.041 121.216 133.921 120.596 133.921 119.844C133.921 119.084 134.041 118.464 134.281 117.984C134.521 117.496 134.873 117.136 135.337 116.904C135.809 116.664 136.385 116.544 137.065 116.544C137.705 116.544 138.245 116.66 138.685 116.892C139.125 117.116 139.457 117.468 139.681 117.948C139.905 118.42 140.017 119.032 140.017 119.784V120.216H135.613C135.629 120.584 135.685 120.896 135.781 121.152C135.885 121.408 136.041 121.6 136.249 121.728C136.465 121.848 136.749 121.908 137.101 121.908C137.293 121.908 137.465 121.884 137.617 121.836C137.777 121.788 137.913 121.716 138.025 121.62C138.137 121.524 138.225 121.404 138.289 121.26C138.353 121.116 138.385 120.952 138.385 120.768H140.017C140.017 121.168 139.945 121.516 139.801 121.812C139.657 122.108 139.457 122.356 139.201 122.556C138.945 122.748 138.637 122.896 138.277 123C137.925 123.096 137.533 123.144 137.101 123.144ZM135.637 119.16H138.301C138.301 118.92 138.269 118.712 138.205 118.536C138.149 118.36 138.069 118.216 137.965 118.104C137.861 117.992 137.733 117.912 137.581 117.864C137.437 117.808 137.273 117.78 137.089 117.78C136.785 117.78 136.529 117.832 136.321 117.936C136.121 118.032 135.965 118.184 135.853 118.392C135.749 118.592 135.677 118.848 135.637 119.16ZM141.241 123V116.688H142.621L142.753 117.552H142.837C142.973 117.344 143.133 117.164 143.317 117.012C143.509 116.86 143.721 116.744 143.953 116.664C144.193 116.584 144.449 116.544 144.721 116.544C145.121 116.544 145.465 116.624 145.753 116.784C146.049 116.944 146.277 117.2 146.437 117.552H146.521C146.657 117.344 146.821 117.164 147.013 117.012C147.205 116.86 147.425 116.744 147.673 116.664C147.921 116.584 148.185 116.544 148.465 116.544C148.865 116.544 149.209 116.616 149.497 116.76C149.793 116.904 150.025 117.14 150.193 117.468C150.361 117.788 150.445 118.204 150.445 118.716V123H148.777V119.016C148.777 118.816 148.753 118.648 148.705 118.512C148.665 118.368 148.605 118.256 148.525 118.176C148.445 118.088 148.345 118.024 148.225 117.984C148.105 117.944 147.977 117.924 147.841 117.924C147.617 117.924 147.417 117.984 147.241 118.104C147.065 118.224 146.925 118.388 146.821 118.596C146.725 118.804 146.677 119.044 146.677 119.316V123H145.009V119.016C145.009 118.816 144.985 118.648 144.937 118.512C144.897 118.368 144.837 118.256 144.757 118.176C144.677 118.088 144.577 118.024 144.457 117.984C144.345 117.944 144.217 117.924 144.073 117.924C143.857 117.924 143.657 117.984 143.473 118.104C143.297 118.224 143.157 118.388 143.053 118.596C142.957 118.804 142.909 119.044 142.909 119.316V123H141.241ZM155.456 123.144C155.048 123.144 154.672 123.064 154.328 122.904C153.992 122.736 153.72 122.484 153.512 122.148H153.428L153.296 123H151.928V114.324H153.596V117.384H153.668C153.796 117.2 153.952 117.044 154.136 116.916C154.32 116.788 154.528 116.696 154.76 116.64C154.992 116.576 155.244 116.544 155.516 116.544C156.012 116.544 156.444 116.66 156.812 116.892C157.188 117.124 157.48 117.484 157.688 117.972C157.896 118.452 158 119.072 158 119.832C158 120.592 157.896 121.216 157.688 121.704C157.488 122.192 157.196 122.556 156.812 122.796C156.436 123.028 155.984 123.144 155.456 123.144ZM154.94 121.776C155.276 121.776 155.54 121.712 155.732 121.584C155.932 121.448 156.076 121.248 156.164 120.984C156.252 120.72 156.296 120.388 156.296 119.988V119.712C156.296 119.312 156.252 118.98 156.164 118.716C156.076 118.444 155.932 118.244 155.732 118.116C155.54 117.98 155.276 117.912 154.94 117.912C154.7 117.912 154.496 117.956 154.328 118.044C154.16 118.124 154.02 118.244 153.908 118.404C153.804 118.556 153.724 118.748 153.668 118.98C153.612 119.212 153.584 119.468 153.584 119.748V119.964C153.584 120.34 153.632 120.664 153.728 120.936C153.824 121.208 153.972 121.416 154.172 121.56C154.372 121.704 154.628 121.776 154.94 121.776ZM162.097 123.144C161.401 123.144 160.817 123.028 160.345 122.796C159.873 122.556 159.517 122.192 159.277 121.704C159.037 121.216 158.917 120.596 158.917 119.844C158.917 119.084 159.037 118.464 159.277 117.984C159.517 117.496 159.869 117.136 160.333 116.904C160.805 116.664 161.381 116.544 162.061 116.544C162.701 116.544 163.241 116.66 163.681 116.892C164.121 117.116 164.453 117.468 164.677 117.948C164.901 118.42 165.013 119.032 165.013 119.784V120.216H160.609C160.625 120.584 160.681 120.896 160.777 121.152C160.881 121.408 161.037 121.6 161.245 121.728C161.461 121.848 161.745 121.908 162.097 121.908C162.289 121.908 162.461 121.884 162.613 121.836C162.773 121.788 162.909 121.716 163.021 121.62C163.133 121.524 163.221 121.404 163.285 121.26C163.349 121.116 163.381 120.952 163.381 120.768H165.013C165.013 121.168 164.941 121.516 164.797 121.812C164.653 122.108 164.453 122.356 164.197 122.556C163.941 122.748 163.633 122.896 163.273 123C162.921 123.096 162.529 123.144 162.097 123.144ZM160.633 119.16H163.297C163.297 118.92 163.265 118.712 163.201 118.536C163.145 118.36 163.065 118.216 162.961 118.104C162.857 117.992 162.729 117.912 162.577 117.864C162.433 117.808 162.269 117.78 162.085 117.78C161.781 117.78 161.525 117.832 161.317 117.936C161.117 118.032 160.961 118.184 160.849 118.392C160.745 118.592 160.673 118.848 160.633 119.16ZM166.237 123V116.688H167.617L167.749 117.672H167.833C167.913 117.464 168.017 117.276 168.145 117.108C168.273 116.932 168.433 116.792 168.625 116.688C168.817 116.584 169.041 116.532 169.297 116.532C169.433 116.532 169.557 116.548 169.669 116.58C169.781 116.604 169.865 116.628 169.921 116.652V118.164H169.405C169.157 118.164 168.937 118.2 168.745 118.272C168.561 118.336 168.405 118.44 168.277 118.584C168.149 118.728 168.053 118.904 167.989 119.112C167.933 119.32 167.905 119.564 167.905 119.844V123H166.237ZM173.351 123.144C172.911 123.144 172.515 123.096 172.163 123C171.811 122.904 171.511 122.772 171.263 122.604C171.015 122.428 170.823 122.22 170.687 121.98C170.559 121.74 170.495 121.468 170.495 121.164C170.495 121.132 170.495 121.1 170.495 121.068C170.495 121.036 170.499 121.012 170.507 120.996H172.115C172.115 121.012 172.115 121.028 172.115 121.044C172.115 121.06 172.115 121.076 172.115 121.092C172.123 121.292 172.187 121.456 172.307 121.584C172.427 121.704 172.583 121.792 172.775 121.848C172.975 121.904 173.183 121.932 173.399 121.932C173.591 121.932 173.775 121.916 173.951 121.884C174.135 121.844 174.287 121.776 174.407 121.68C174.535 121.584 174.599 121.46 174.599 121.308C174.599 121.116 174.519 120.968 174.359 120.864C174.207 120.76 174.003 120.676 173.747 120.612C173.499 120.548 173.227 120.476 172.931 120.396C172.659 120.332 172.387 120.26 172.115 120.18C171.843 120.092 171.595 119.98 171.371 119.844C171.155 119.708 170.979 119.532 170.843 119.316C170.707 119.092 170.639 118.812 170.639 118.476C170.639 118.148 170.711 117.864 170.855 117.624C170.999 117.376 171.195 117.172 171.443 117.012C171.699 116.852 171.995 116.736 172.331 116.664C172.675 116.584 173.043 116.544 173.435 116.544C173.803 116.544 174.147 116.584 174.467 116.664C174.787 116.736 175.067 116.848 175.307 117C175.547 117.144 175.735 117.328 175.871 117.552C176.007 117.768 176.075 118.012 176.075 118.284C176.075 118.34 176.075 118.392 176.075 118.44C176.075 118.488 176.071 118.52 176.063 118.536H174.467V118.44C174.467 118.296 174.423 118.176 174.335 118.08C174.247 117.976 174.119 117.896 173.951 117.84C173.791 117.784 173.595 117.756 173.363 117.756C173.203 117.756 173.055 117.768 172.919 117.792C172.791 117.816 172.679 117.852 172.583 117.9C172.487 117.948 172.411 118.008 172.355 118.08C172.307 118.144 172.283 118.224 172.283 118.32C172.283 118.456 172.339 118.568 172.451 118.656C172.571 118.736 172.727 118.804 172.919 118.86C173.111 118.916 173.323 118.976 173.555 119.04C173.843 119.12 174.143 119.2 174.455 119.28C174.775 119.352 175.071 119.452 175.343 119.58C175.615 119.708 175.835 119.892 176.003 120.132C176.171 120.364 176.255 120.68 176.255 121.08C176.255 121.464 176.179 121.788 176.027 122.052C175.883 122.316 175.679 122.528 175.415 122.688C175.151 122.848 174.843 122.964 174.491 123.036C174.139 123.108 173.759 123.144 173.351 123.144Z" fill="#4D4F5F"/>
<path d="M123 147C123 144.791 124.791 143 127 143H431C433.209 143 435 144.791 435 147V163H123V147Z" fill="#EEF0F2"/>
<path d="M123 243C123 240.791 124.791 239 127 239H431C433.209 239 435 240.791 435 243V255C435 257.209 433.209 259 431 259H127C124.791 259 123 257.209 123 255V243Z" fill="#EEF0F2"/>
<path d="M123 271C123 268.791 124.791 267 127 267H431C433.209 267 435 268.791 435 271V283C435 285.209 433.209 287 431 287H127C124.791 287 123 285.209 123 283V271Z" fill="#EEF0F2"/>
<path d="M123 299C123 296.791 124.791 295 127 295H431C433.209 295 435 296.791 435 299V311C435 313.209 433.209 315 431 315H127C124.791 315 123 313.209 123 311V299Z" fill="#EEF0F2"/>
<path d="M123 327C123 324.791 124.791 323 127 323H431C433.209 323 435 324.791 435 327V339C435 341.209 433.209 343 431 343H127C124.791 343 123 341.209 123 339V327Z" fill="#EEF0F2"/>
<path d="M123 227C123 229.209 124.791 231 127 231H431C433.209 231 435 229.209 435 227V203H123V227Z" fill="#EEF0F2"/>
<path d="M123 183H435V163H123V183Z" fill="#EEF0F2"/>
<path d="M123 203H435V183H123V203Z" fill="#EEF0F2"/>
<path d="M131.048 156L133.16 150.512H134.632L136.744 156H135.456L135.064 154.92H132.672L132.28 156H131.048ZM133.016 153.96H134.72L134.232 152.608C134.211 152.549 134.184 152.48 134.152 152.4C134.125 152.315 134.096 152.221 134.064 152.12C134.032 152.019 134 151.92 133.968 151.824C133.941 151.723 133.915 151.632 133.888 151.552H133.84C133.813 151.653 133.779 151.773 133.736 151.912C133.693 152.045 133.651 152.176 133.608 152.304C133.565 152.427 133.531 152.528 133.504 152.608L133.016 153.96ZM138.789 156.096C138.442 156.096 138.141 156.019 137.885 155.864C137.634 155.704 137.44 155.461 137.301 155.136C137.162 154.811 137.093 154.395 137.093 153.888C137.093 153.381 137.162 152.968 137.301 152.648C137.445 152.323 137.64 152.083 137.885 151.928C138.136 151.773 138.424 151.696 138.749 151.696C138.93 151.696 139.098 151.717 139.253 151.76C139.413 151.797 139.552 151.859 139.669 151.944C139.792 152.029 139.896 152.133 139.981 152.256H140.029V150.216H141.141V156H140.229L140.141 155.432H140.085C139.946 155.656 139.765 155.824 139.541 155.936C139.317 156.043 139.066 156.096 138.789 156.096ZM139.141 155.184C139.349 155.184 139.517 155.136 139.645 155.04C139.778 154.944 139.877 154.805 139.941 154.624C140.005 154.443 140.037 154.227 140.037 153.976V153.832C140.037 153.645 140.018 153.475 139.981 153.32C139.949 153.165 139.896 153.037 139.821 152.936C139.746 152.829 139.653 152.749 139.541 152.696C139.429 152.637 139.296 152.608 139.141 152.608C138.917 152.608 138.738 152.653 138.605 152.744C138.472 152.829 138.376 152.963 138.317 153.144C138.258 153.32 138.229 153.541 138.229 153.808V153.992C138.229 154.259 138.258 154.48 138.317 154.656C138.376 154.832 138.472 154.965 138.605 155.056C138.738 155.141 138.917 155.184 139.141 155.184ZM142.168 156V151.792H143.088L143.176 152.368H143.232C143.323 152.229 143.43 152.109 143.552 152.008C143.68 151.907 143.822 151.829 143.976 151.776C144.136 151.723 144.307 151.696 144.488 151.696C144.755 151.696 144.984 151.749 145.176 151.856C145.374 151.963 145.526 152.133 145.632 152.368H145.688C145.779 152.229 145.888 152.109 146.016 152.008C146.144 151.907 146.291 151.829 146.456 151.776C146.622 151.723 146.798 151.696 146.984 151.696C147.251 151.696 147.48 151.744 147.672 151.84C147.87 151.936 148.024 152.093 148.136 152.312C148.248 152.525 148.304 152.803 148.304 153.144V156H147.192V153.344C147.192 153.211 147.176 153.099 147.144 153.008C147.118 152.912 147.078 152.837 147.024 152.784C146.971 152.725 146.904 152.683 146.824 152.656C146.744 152.629 146.659 152.616 146.568 152.616C146.419 152.616 146.286 152.656 146.168 152.736C146.051 152.816 145.958 152.925 145.888 153.064C145.824 153.203 145.792 153.363 145.792 153.544V156H144.68V153.344C144.68 153.211 144.664 153.099 144.632 153.008C144.606 152.912 144.566 152.837 144.512 152.784C144.459 152.725 144.392 152.683 144.312 152.656C144.238 152.629 144.152 152.616 144.056 152.616C143.912 152.616 143.779 152.656 143.656 152.736C143.539 152.816 143.446 152.925 143.376 153.064C143.312 153.203 143.28 153.363 143.28 153.544V156H142.168ZM149.293 151.176V150.216H150.405V151.176H149.293ZM149.293 156V151.792H150.405V156H149.293ZM151.426 156V151.792H152.346L152.434 152.368H152.49C152.586 152.229 152.701 152.109 152.834 152.008C152.973 151.907 153.127 151.829 153.298 151.776C153.469 151.723 153.655 151.696 153.858 151.696C154.135 151.696 154.378 151.747 154.586 151.848C154.794 151.949 154.954 152.109 155.066 152.328C155.183 152.547 155.242 152.832 155.242 153.184V156H154.13V153.36C154.13 153.227 154.114 153.115 154.082 153.024C154.05 152.928 154.002 152.851 153.938 152.792C153.879 152.728 153.805 152.683 153.714 152.656C153.623 152.629 153.522 152.616 153.41 152.616C153.245 152.616 153.095 152.656 152.962 152.736C152.829 152.816 152.725 152.925 152.65 153.064C152.575 153.203 152.538 153.363 152.538 153.544V156H151.426Z" fill="#4D4F5F"/>
<path d="M134.064 252.096C133.493 252.096 133.005 251.997 132.6 251.8C132.195 251.597 131.885 251.285 131.672 250.864C131.464 250.443 131.36 249.907 131.36 249.256C131.36 248.296 131.595 247.584 132.064 247.12C132.539 246.651 133.205 246.416 134.064 246.416C134.533 246.416 134.955 246.496 135.328 246.656C135.701 246.816 135.995 247.056 136.208 247.376C136.427 247.696 136.536 248.099 136.536 248.584H135.336C135.336 248.328 135.283 248.112 135.176 247.936C135.075 247.76 134.928 247.627 134.736 247.536C134.549 247.44 134.331 247.392 134.08 247.392C133.739 247.392 133.456 247.459 133.232 247.592C133.013 247.725 132.851 247.923 132.744 248.184C132.643 248.44 132.592 248.755 132.592 249.128V249.376C132.592 249.76 132.645 250.083 132.752 250.344C132.859 250.6 133.019 250.795 133.232 250.928C133.451 251.056 133.731 251.12 134.072 251.12C134.339 251.12 134.571 251.075 134.768 250.984C134.965 250.893 135.117 250.76 135.224 250.584C135.331 250.408 135.384 250.192 135.384 249.936H136.536C136.536 250.421 136.429 250.824 136.216 251.144C136.008 251.464 135.717 251.704 135.344 251.864C134.971 252.019 134.544 252.096 134.064 252.096ZM138.739 252.096C138.313 252.096 137.974 251.979 137.723 251.744C137.473 251.509 137.347 251.131 137.347 250.608V247.792H138.459V250.424C138.459 250.563 138.475 250.68 138.507 250.776C138.539 250.867 138.585 250.941 138.643 251C138.707 251.059 138.785 251.101 138.875 251.128C138.966 251.155 139.067 251.168 139.179 251.168C139.345 251.168 139.494 251.128 139.627 251.048C139.761 250.968 139.865 250.859 139.939 250.72C140.014 250.576 140.051 250.416 140.051 250.24V247.792H141.163V252H140.251L140.171 251.424H140.115C140.014 251.557 139.894 251.675 139.755 251.776C139.622 251.877 139.47 251.955 139.299 252.008C139.129 252.067 138.942 252.096 138.739 252.096ZM143.888 252.096C143.595 252.096 143.331 252.064 143.096 252C142.861 251.936 142.661 251.848 142.496 251.736C142.331 251.619 142.203 251.48 142.112 251.32C142.027 251.16 141.984 250.979 141.984 250.776C141.984 250.755 141.984 250.733 141.984 250.712C141.984 250.691 141.987 250.675 141.992 250.664H143.064C143.064 250.675 143.064 250.685 143.064 250.696C143.064 250.707 143.064 250.717 143.064 250.728C143.069 250.861 143.112 250.971 143.192 251.056C143.272 251.136 143.376 251.195 143.504 251.232C143.637 251.269 143.776 251.288 143.92 251.288C144.048 251.288 144.171 251.277 144.288 251.256C144.411 251.229 144.512 251.184 144.592 251.12C144.677 251.056 144.72 250.973 144.72 250.872C144.72 250.744 144.667 250.645 144.56 250.576C144.459 250.507 144.323 250.451 144.152 250.408C143.987 250.365 143.805 250.317 143.608 250.264C143.427 250.221 143.245 250.173 143.064 250.12C142.883 250.061 142.717 249.987 142.568 249.896C142.424 249.805 142.307 249.688 142.216 249.544C142.125 249.395 142.08 249.208 142.08 248.984C142.08 248.765 142.128 248.576 142.224 248.416C142.32 248.251 142.451 248.115 142.616 248.008C142.787 247.901 142.984 247.824 143.208 247.776C143.437 247.723 143.683 247.696 143.944 247.696C144.189 247.696 144.419 247.723 144.632 247.776C144.845 247.824 145.032 247.899 145.192 248C145.352 248.096 145.477 248.219 145.568 248.368C145.659 248.512 145.704 248.675 145.704 248.856C145.704 248.893 145.704 248.928 145.704 248.96C145.704 248.992 145.701 249.013 145.696 249.024H144.632V248.96C144.632 248.864 144.603 248.784 144.544 248.72C144.485 248.651 144.4 248.597 144.288 248.56C144.181 248.523 144.051 248.504 143.896 248.504C143.789 248.504 143.691 248.512 143.6 248.528C143.515 248.544 143.44 248.568 143.376 248.6C143.312 248.632 143.261 248.672 143.224 248.72C143.192 248.763 143.176 248.816 143.176 248.88C143.176 248.971 143.213 249.045 143.288 249.104C143.368 249.157 143.472 249.203 143.6 249.24C143.728 249.277 143.869 249.317 144.024 249.36C144.216 249.413 144.416 249.467 144.624 249.52C144.837 249.568 145.035 249.635 145.216 249.72C145.397 249.805 145.544 249.928 145.656 250.088C145.768 250.243 145.824 250.453 145.824 250.72C145.824 250.976 145.773 251.192 145.672 251.368C145.576 251.544 145.44 251.685 145.264 251.792C145.088 251.899 144.883 251.976 144.648 252.024C144.413 252.072 144.16 252.096 143.888 252.096ZM147.885 252.096C147.619 252.096 147.403 252.048 147.237 251.952C147.072 251.856 146.952 251.728 146.877 251.568C146.803 251.403 146.765 251.221 146.765 251.024V248.648H146.245V247.792H146.805L147.013 246.592H147.877V247.792H148.645V248.648H147.877V250.84C147.877 250.968 147.907 251.067 147.965 251.136C148.024 251.2 148.12 251.232 148.253 251.232H148.645V251.968C148.581 251.989 148.507 252.008 148.421 252.024C148.336 252.045 148.245 252.061 148.149 252.072C148.053 252.088 147.965 252.096 147.885 252.096ZM151.3 252.096C150.841 252.096 150.452 252.019 150.132 251.864C149.812 251.704 149.569 251.461 149.404 251.136C149.238 250.805 149.156 250.392 149.156 249.896C149.156 249.389 149.238 248.976 149.404 248.656C149.569 248.331 149.812 248.091 150.132 247.936C150.452 247.776 150.841 247.696 151.3 247.696C151.769 247.696 152.161 247.776 152.476 247.936C152.796 248.091 153.038 248.331 153.204 248.656C153.369 248.976 153.452 249.389 153.452 249.896C153.452 250.392 153.369 250.805 153.204 251.136C153.038 251.461 152.796 251.704 152.476 251.864C152.161 252.019 151.769 252.096 151.3 252.096ZM151.3 251.232C151.545 251.232 151.74 251.187 151.884 251.096C152.033 251.005 152.142 250.867 152.212 250.68C152.281 250.493 152.316 250.264 152.316 249.992V249.8C152.316 249.528 152.281 249.299 152.212 249.112C152.142 248.925 152.033 248.787 151.884 248.696C151.74 248.6 151.545 248.552 151.3 248.552C151.06 248.552 150.865 248.6 150.716 248.696C150.572 248.787 150.465 248.925 150.396 249.112C150.326 249.299 150.292 249.528 150.292 249.8V249.992C150.292 250.264 150.326 250.493 150.396 250.68C150.465 250.867 150.572 251.005 150.716 251.096C150.865 251.187 151.06 251.232 151.3 251.232ZM154.27 252V247.792H155.19L155.278 248.368H155.334C155.424 248.229 155.531 248.109 155.654 248.008C155.782 247.907 155.923 247.829 156.078 247.776C156.238 247.723 156.408 247.696 156.59 247.696C156.856 247.696 157.086 247.749 157.278 247.856C157.475 247.963 157.627 248.133 157.734 248.368H157.79C157.88 248.229 157.99 248.109 158.118 248.008C158.246 247.907 158.392 247.829 158.558 247.776C158.723 247.723 158.899 247.696 159.086 247.696C159.352 247.696 159.582 247.744 159.774 247.84C159.971 247.936 160.126 248.093 160.238 248.312C160.35 248.525 160.406 248.803 160.406 249.144V252H159.294V249.344C159.294 249.211 159.278 249.099 159.246 249.008C159.219 248.912 159.179 248.837 159.126 248.784C159.072 248.725 159.006 248.683 158.926 248.656C158.846 248.629 158.76 248.616 158.67 248.616C158.52 248.616 158.387 248.656 158.27 248.736C158.152 248.816 158.059 248.925 157.99 249.064C157.926 249.203 157.894 249.363 157.894 249.544V252H156.782V249.344C156.782 249.211 156.766 249.099 156.734 249.008C156.707 248.912 156.667 248.837 156.614 248.784C156.56 248.725 156.494 248.683 156.414 248.656C156.339 248.629 156.254 248.616 156.158 248.616C156.014 248.616 155.88 248.656 155.758 248.736C155.64 248.816 155.547 248.925 155.478 249.064C155.414 249.203 155.382 249.363 155.382 249.544V252H154.27Z" fill="#4D4F5F"/>
<path d="M131.608 280V274.512H133.848C134.419 274.512 134.904 274.611 135.304 274.808C135.704 275.005 136.011 275.307 136.224 275.712C136.443 276.112 136.552 276.627 136.552 277.256C136.552 277.88 136.443 278.395 136.224 278.8C136.011 279.205 135.704 279.507 135.304 279.704C134.904 279.901 134.419 280 133.848 280H131.608ZM132.8 279.016H133.84C134.08 279.016 134.293 278.981 134.48 278.912C134.667 278.843 134.821 278.741 134.944 278.608C135.067 278.469 135.16 278.299 135.224 278.096C135.288 277.888 135.32 277.648 135.32 277.376V277.136C135.32 276.864 135.288 276.627 135.224 276.424C135.16 276.216 135.067 276.045 134.944 275.912C134.821 275.773 134.667 275.669 134.48 275.6C134.293 275.525 134.08 275.488 133.84 275.488H132.8V279.016ZM138.538 280.096C138.399 280.096 138.25 280.08 138.09 280.048C137.935 280.016 137.789 279.96 137.65 279.88C137.511 279.795 137.397 279.675 137.306 279.52C137.221 279.36 137.178 279.157 137.178 278.912C137.178 278.619 137.242 278.376 137.37 278.184C137.498 277.992 137.679 277.843 137.914 277.736C138.154 277.624 138.439 277.547 138.77 277.504C139.101 277.461 139.466 277.44 139.866 277.44V277.128C139.866 277.005 139.845 276.899 139.802 276.808C139.765 276.717 139.695 276.645 139.594 276.592C139.498 276.539 139.362 276.512 139.186 276.512C139.01 276.512 138.866 276.533 138.754 276.576C138.647 276.619 138.57 276.675 138.522 276.744C138.479 276.808 138.458 276.88 138.458 276.96V277.056H137.378C137.373 277.029 137.37 277.005 137.37 276.984C137.37 276.957 137.37 276.925 137.37 276.888C137.37 276.643 137.445 276.432 137.594 276.256C137.743 276.075 137.954 275.936 138.226 275.84C138.498 275.744 138.815 275.696 139.178 275.696C139.567 275.696 139.893 275.747 140.154 275.848C140.421 275.949 140.623 276.099 140.762 276.296C140.906 276.493 140.978 276.741 140.978 277.04V278.952C140.978 279.048 141.005 279.12 141.058 279.168C141.117 279.211 141.181 279.232 141.25 279.232H141.514V279.96C141.461 279.987 141.378 280.013 141.266 280.04C141.154 280.072 141.018 280.088 140.858 280.088C140.703 280.088 140.565 280.064 140.442 280.016C140.325 279.973 140.226 279.912 140.146 279.832C140.066 279.747 140.01 279.645 139.978 279.528H139.922C139.831 279.64 139.719 279.739 139.586 279.824C139.458 279.909 139.306 279.976 139.13 280.024C138.959 280.072 138.762 280.096 138.538 280.096ZM138.914 279.256C139.063 279.256 139.197 279.235 139.314 279.192C139.431 279.144 139.53 279.083 139.61 279.008C139.69 278.928 139.751 278.832 139.794 278.72C139.842 278.608 139.866 278.488 139.866 278.36V278.128C139.567 278.128 139.301 278.149 139.066 278.192C138.831 278.229 138.645 278.296 138.506 278.392C138.373 278.488 138.306 278.621 138.306 278.792C138.306 278.888 138.33 278.971 138.378 279.04C138.426 279.109 138.495 279.163 138.586 279.2C138.677 279.237 138.786 279.256 138.914 279.256ZM143.323 280.096C143.056 280.096 142.84 280.048 142.675 279.952C142.509 279.856 142.389 279.728 142.315 279.568C142.24 279.403 142.203 279.221 142.203 279.024V276.648H141.683V275.792H142.243L142.451 274.592H143.315V275.792H144.083V276.648H143.315V278.84C143.315 278.968 143.344 279.067 143.403 279.136C143.461 279.2 143.557 279.232 143.691 279.232H144.083V279.968C144.019 279.989 143.944 280.008 143.859 280.024C143.773 280.045 143.683 280.061 143.587 280.072C143.491 280.088 143.403 280.096 143.323 280.096ZM145.913 280.096C145.774 280.096 145.625 280.08 145.465 280.048C145.31 280.016 145.164 279.96 145.025 279.88C144.886 279.795 144.772 279.675 144.681 279.52C144.596 279.36 144.553 279.157 144.553 278.912C144.553 278.619 144.617 278.376 144.745 278.184C144.873 277.992 145.054 277.843 145.289 277.736C145.529 277.624 145.814 277.547 146.145 277.504C146.476 277.461 146.841 277.44 147.241 277.44V277.128C147.241 277.005 147.22 276.899 147.177 276.808C147.14 276.717 147.07 276.645 146.969 276.592C146.873 276.539 146.737 276.512 146.561 276.512C146.385 276.512 146.241 276.533 146.129 276.576C146.022 276.619 145.945 276.675 145.897 276.744C145.854 276.808 145.833 276.88 145.833 276.96V277.056H144.753C144.748 277.029 144.745 277.005 144.745 276.984C144.745 276.957 144.745 276.925 144.745 276.888C144.745 276.643 144.82 276.432 144.969 276.256C145.118 276.075 145.329 275.936 145.601 275.84C145.873 275.744 146.19 275.696 146.553 275.696C146.942 275.696 147.268 275.747 147.529 275.848C147.796 275.949 147.998 276.099 148.137 276.296C148.281 276.493 148.353 276.741 148.353 277.04V278.952C148.353 279.048 148.38 279.12 148.433 279.168C148.492 279.211 148.556 279.232 148.625 279.232H148.889V279.96C148.836 279.987 148.753 280.013 148.641 280.04C148.529 280.072 148.393 280.088 148.233 280.088C148.078 280.088 147.94 280.064 147.817 280.016C147.7 279.973 147.601 279.912 147.521 279.832C147.441 279.747 147.385 279.645 147.353 279.528H147.297C147.206 279.64 147.094 279.739 146.961 279.824C146.833 279.909 146.681 279.976 146.505 280.024C146.334 280.072 146.137 280.096 145.913 280.096ZM146.289 279.256C146.438 279.256 146.572 279.235 146.689 279.192C146.806 279.144 146.905 279.083 146.985 279.008C147.065 278.928 147.126 278.832 147.169 278.72C147.217 278.608 147.241 278.488 147.241 278.36V278.128C146.942 278.128 146.676 278.149 146.441 278.192C146.206 278.229 146.02 278.296 145.881 278.392C145.748 278.488 145.681 278.621 145.681 278.792C145.681 278.888 145.705 278.971 145.753 279.04C145.801 279.109 145.87 279.163 145.961 279.2C146.052 279.237 146.161 279.256 146.289 279.256ZM151.012 280V275.792H151.932L152.02 276.368H152.076C152.167 276.229 152.273 276.109 152.396 276.008C152.524 275.907 152.665 275.829 152.82 275.776C152.98 275.723 153.151 275.696 153.332 275.696C153.599 275.696 153.828 275.749 154.02 275.856C154.217 275.963 154.369 276.133 154.476 276.368H154.532C154.623 276.229 154.732 276.109 154.86 276.008C154.988 275.907 155.135 275.829 155.3 275.776C155.465 275.723 155.641 275.696 155.828 275.696C156.095 275.696 156.324 275.744 156.516 275.84C156.713 275.936 156.868 276.093 156.98 276.312C157.092 276.525 157.148 276.803 157.148 277.144V280H156.036V277.344C156.036 277.211 156.02 277.099 155.988 277.008C155.961 276.912 155.921 276.837 155.868 276.784C155.815 276.725 155.748 276.683 155.668 276.656C155.588 276.629 155.503 276.616 155.412 276.616C155.263 276.616 155.129 276.656 155.012 276.736C154.895 276.816 154.801 276.925 154.732 277.064C154.668 277.203 154.636 277.363 154.636 277.544V280H153.524V277.344C153.524 277.211 153.508 277.099 153.476 277.008C153.449 276.912 153.409 276.837 153.356 276.784C153.303 276.725 153.236 276.683 153.156 276.656C153.081 276.629 152.996 276.616 152.9 276.616C152.756 276.616 152.623 276.656 152.5 276.736C152.383 276.816 152.289 276.925 152.22 277.064C152.156 277.203 152.124 277.363 152.124 277.544V280H151.012ZM159.249 280.096C159.11 280.096 158.961 280.08 158.801 280.048C158.646 280.016 158.5 279.96 158.361 279.88C158.222 279.795 158.108 279.675 158.017 279.52C157.932 279.36 157.889 279.157 157.889 278.912C157.889 278.619 157.953 278.376 158.081 278.184C158.209 277.992 158.39 277.843 158.625 277.736C158.865 277.624 159.15 277.547 159.481 277.504C159.812 277.461 160.177 277.44 160.577 277.44V277.128C160.577 277.005 160.556 276.899 160.513 276.808C160.476 276.717 160.406 276.645 160.305 276.592C160.209 276.539 160.073 276.512 159.897 276.512C159.721 276.512 159.577 276.533 159.465 276.576C159.358 276.619 159.281 276.675 159.233 276.744C159.19 276.808 159.169 276.88 159.169 276.96V277.056H158.089C158.084 277.029 158.081 277.005 158.081 276.984C158.081 276.957 158.081 276.925 158.081 276.888C158.081 276.643 158.156 276.432 158.305 276.256C158.454 276.075 158.665 275.936 158.937 275.84C159.209 275.744 159.526 275.696 159.889 275.696C160.278 275.696 160.604 275.747 160.865 275.848C161.132 275.949 161.334 276.099 161.473 276.296C161.617 276.493 161.689 276.741 161.689 277.04V278.952C161.689 279.048 161.716 279.12 161.769 279.168C161.828 279.211 161.892 279.232 161.961 279.232H162.225V279.96C162.172 279.987 162.089 280.013 161.977 280.04C161.865 280.072 161.729 280.088 161.569 280.088C161.414 280.088 161.276 280.064 161.153 280.016C161.036 279.973 160.937 279.912 160.857 279.832C160.777 279.747 160.721 279.645 160.689 279.528H160.633C160.542 279.64 160.43 279.739 160.297 279.824C160.169 279.909 160.017 279.976 159.841 280.024C159.67 280.072 159.473 280.096 159.249 280.096ZM159.625 279.256C159.774 279.256 159.908 279.235 160.025 279.192C160.142 279.144 160.241 279.083 160.321 279.008C160.401 278.928 160.462 278.832 160.505 278.72C160.553 278.608 160.577 278.488 160.577 278.36V278.128C160.278 278.128 160.012 278.149 159.777 278.192C159.542 278.229 159.356 278.296 159.217 278.392C159.084 278.488 159.017 278.621 159.017 278.792C159.017 278.888 159.041 278.971 159.089 279.04C159.137 279.109 159.206 279.163 159.297 279.2C159.388 279.237 159.497 279.256 159.625 279.256ZM162.778 280V275.792H163.698L163.786 276.368H163.842C163.938 276.229 164.052 276.109 164.186 276.008C164.324 275.907 164.479 275.829 164.65 275.776C164.82 275.723 165.007 275.696 165.21 275.696C165.487 275.696 165.73 275.747 165.938 275.848C166.146 275.949 166.306 276.109 166.418 276.328C166.535 276.547 166.594 276.832 166.594 277.184V280H165.482V277.36C165.482 277.227 165.466 277.115 165.434 277.024C165.402 276.928 165.354 276.851 165.29 276.792C165.231 276.728 165.156 276.683 165.066 276.656C164.975 276.629 164.874 276.616 164.762 276.616C164.596 276.616 164.447 276.656 164.314 276.736C164.18 276.816 164.076 276.925 164.002 277.064C163.927 277.203 163.89 277.363 163.89 277.544V280H162.778ZM168.702 280.096C168.563 280.096 168.414 280.08 168.254 280.048C168.099 280.016 167.953 279.96 167.814 279.88C167.675 279.795 167.561 279.675 167.47 279.52C167.385 279.36 167.342 279.157 167.342 278.912C167.342 278.619 167.406 278.376 167.534 278.184C167.662 277.992 167.843 277.843 168.078 277.736C168.318 277.624 168.603 277.547 168.934 277.504C169.265 277.461 169.63 277.44 170.03 277.44V277.128C170.03 277.005 170.009 276.899 169.966 276.808C169.929 276.717 169.859 276.645 169.758 276.592C169.662 276.539 169.526 276.512 169.35 276.512C169.174 276.512 169.03 276.533 168.918 276.576C168.811 276.619 168.734 276.675 168.686 276.744C168.643 276.808 168.622 276.88 168.622 276.96V277.056H167.542C167.537 277.029 167.534 277.005 167.534 276.984C167.534 276.957 167.534 276.925 167.534 276.888C167.534 276.643 167.609 276.432 167.758 276.256C167.907 276.075 168.118 275.936 168.39 275.84C168.662 275.744 168.979 275.696 169.342 275.696C169.731 275.696 170.057 275.747 170.318 275.848C170.585 275.949 170.787 276.099 170.926 276.296C171.07 276.493 171.142 276.741 171.142 277.04V278.952C171.142 279.048 171.169 279.12 171.222 279.168C171.281 279.211 171.345 279.232 171.414 279.232H171.678V279.96C171.625 279.987 171.542 280.013 171.43 280.04C171.318 280.072 171.182 280.088 171.022 280.088C170.867 280.088 170.729 280.064 170.606 280.016C170.489 279.973 170.39 279.912 170.31 279.832C170.23 279.747 170.174 279.645 170.142 279.528H170.086C169.995 279.64 169.883 279.739 169.75 279.824C169.622 279.909 169.47 279.976 169.294 280.024C169.123 280.072 168.926 280.096 168.702 280.096ZM169.078 279.256C169.227 279.256 169.361 279.235 169.478 279.192C169.595 279.144 169.694 279.083 169.774 279.008C169.854 278.928 169.915 278.832 169.958 278.72C170.006 278.608 170.03 278.488 170.03 278.36V278.128C169.731 278.128 169.465 278.149 169.23 278.192C168.995 278.229 168.809 278.296 168.67 278.392C168.537 278.488 168.47 278.621 168.47 278.792C168.47 278.888 168.494 278.971 168.542 279.04C168.59 279.109 168.659 279.163 168.75 279.2C168.841 279.237 168.95 279.256 169.078 279.256ZM172.919 281.504C172.732 281.504 172.556 281.464 172.391 281.384C172.225 281.309 172.092 281.197 171.991 281.048C171.889 280.899 171.839 280.72 171.839 280.512C171.839 280.277 171.905 280.091 172.039 279.952C172.177 279.808 172.332 279.701 172.503 279.632C172.38 279.563 172.279 279.472 172.199 279.36C172.124 279.248 172.087 279.117 172.087 278.968C172.087 278.76 172.161 278.592 172.311 278.464C172.465 278.331 172.641 278.245 172.839 278.208C172.641 278.085 172.487 277.931 172.375 277.744C172.268 277.552 172.215 277.339 172.215 277.104C172.215 276.8 172.289 276.544 172.439 276.336C172.593 276.128 172.812 275.971 173.095 275.864C173.383 275.752 173.721 275.696 174.111 275.696C174.265 275.696 174.409 275.704 174.543 275.72C174.681 275.736 174.807 275.763 174.919 275.8C175.116 275.683 175.249 275.555 175.319 275.416C175.393 275.272 175.433 275.157 175.439 275.072H176.471C176.471 275.269 176.433 275.44 176.359 275.584C176.289 275.728 176.188 275.848 176.055 275.944C175.921 276.035 175.761 276.101 175.575 276.144C175.713 276.261 175.82 276.403 175.895 276.568C175.969 276.733 176.007 276.912 176.007 277.104C176.007 277.403 175.935 277.659 175.791 277.872C175.647 278.08 175.441 278.24 175.175 278.352C174.913 278.464 174.599 278.52 174.231 278.52H173.591C173.463 278.52 173.367 278.544 173.303 278.592C173.239 278.635 173.207 278.699 173.207 278.784C173.207 278.853 173.233 278.915 173.287 278.968C173.345 279.016 173.439 279.04 173.567 279.04H175.319C175.671 279.04 175.951 279.149 176.159 279.368C176.372 279.581 176.479 279.856 176.479 280.192C176.479 280.448 176.412 280.675 176.279 280.872C176.145 281.069 175.961 281.224 175.727 281.336C175.492 281.448 175.223 281.504 174.919 281.504H172.919ZM173.383 280.76H174.863C174.959 280.76 175.044 280.741 175.119 280.704C175.193 280.672 175.252 280.624 175.295 280.56C175.337 280.501 175.359 280.432 175.359 280.352C175.359 280.213 175.316 280.109 175.231 280.04C175.145 279.971 175.039 279.936 174.911 279.936H173.383C173.255 279.936 173.148 279.973 173.063 280.048C172.983 280.123 172.943 280.221 172.943 280.344C172.943 280.467 172.983 280.565 173.063 280.64C173.148 280.72 173.255 280.76 173.383 280.76ZM174.111 277.8C174.372 277.8 174.569 277.741 174.703 277.624C174.841 277.501 174.911 277.328 174.911 277.104C174.911 276.88 174.841 276.709 174.703 276.592C174.569 276.469 174.372 276.408 174.111 276.408C173.855 276.408 173.657 276.469 173.519 276.592C173.385 276.709 173.319 276.88 173.319 277.104C173.319 277.248 173.348 277.373 173.407 277.48C173.465 277.587 173.553 277.667 173.671 277.72C173.788 277.773 173.935 277.8 174.111 277.8ZM179.002 280.096C178.538 280.096 178.149 280.019 177.834 279.864C177.519 279.704 177.282 279.461 177.122 279.136C176.962 278.811 176.882 278.397 176.882 277.896C176.882 277.389 176.962 276.976 177.122 276.656C177.282 276.331 177.517 276.091 177.826 275.936C178.141 275.776 178.525 275.696 178.978 275.696C179.405 275.696 179.765 275.773 180.058 275.928C180.351 276.077 180.573 276.312 180.722 276.632C180.871 276.947 180.946 277.355 180.946 277.856V278.144H178.01C178.021 278.389 178.058 278.597 178.122 278.768C178.191 278.939 178.295 279.067 178.434 279.152C178.578 279.232 178.767 279.272 179.002 279.272C179.13 279.272 179.245 279.256 179.346 279.224C179.453 279.192 179.543 279.144 179.618 279.08C179.693 279.016 179.751 278.936 179.794 278.84C179.837 278.744 179.858 278.635 179.858 278.512H180.946C180.946 278.779 180.898 279.011 180.802 279.208C180.706 279.405 180.573 279.571 180.402 279.704C180.231 279.832 180.026 279.931 179.786 280C179.551 280.064 179.29 280.096 179.002 280.096ZM178.026 277.44H179.802C179.802 277.28 179.781 277.141 179.738 277.024C179.701 276.907 179.647 276.811 179.578 276.736C179.509 276.661 179.423 276.608 179.322 276.576C179.226 276.539 179.117 276.52 178.994 276.52C178.791 276.52 178.621 276.555 178.482 276.624C178.349 276.688 178.245 276.789 178.17 276.928C178.101 277.061 178.053 277.232 178.026 277.44ZM181.762 280V275.792H182.682L182.77 276.448H182.826C182.879 276.309 182.949 276.184 183.034 276.072C183.119 275.955 183.226 275.861 183.354 275.792C183.482 275.723 183.631 275.688 183.802 275.688C183.893 275.688 183.975 275.699 184.05 275.72C184.125 275.736 184.181 275.752 184.218 275.768V276.776H183.874C183.709 276.776 183.562 276.8 183.434 276.848C183.311 276.891 183.207 276.96 183.122 277.056C183.037 277.152 182.973 277.269 182.93 277.408C182.893 277.547 182.874 277.709 182.874 277.896V280H181.762Z" fill="#4D4F5F"/>
<path d="M134.168 308.096C133.587 308.096 133.085 307.992 132.664 307.784C132.243 307.576 131.92 307.261 131.696 306.84C131.472 306.419 131.36 305.891 131.36 305.256C131.36 304.611 131.472 304.08 131.696 303.664C131.92 303.243 132.243 302.931 132.664 302.728C133.085 302.52 133.587 302.416 134.168 302.416C134.76 302.416 135.264 302.52 135.68 302.728C136.101 302.931 136.424 303.243 136.648 303.664C136.872 304.08 136.984 304.611 136.984 305.256C136.984 305.891 136.872 306.419 136.648 306.84C136.424 307.261 136.101 307.576 135.68 307.784C135.264 307.992 134.76 308.096 134.168 308.096ZM134.168 307.12C134.429 307.12 134.659 307.083 134.856 307.008C135.053 306.933 135.219 306.821 135.352 306.672C135.485 306.523 135.587 306.341 135.656 306.128C135.725 305.909 135.76 305.661 135.76 305.384V305.136C135.76 304.853 135.725 304.603 135.656 304.384C135.587 304.165 135.485 303.984 135.352 303.84C135.219 303.691 135.053 303.579 134.856 303.504C134.659 303.429 134.429 303.392 134.168 303.392C133.912 303.392 133.685 303.429 133.488 303.504C133.291 303.579 133.125 303.691 132.992 303.84C132.859 303.984 132.757 304.165 132.688 304.384C132.624 304.603 132.592 304.853 132.592 305.136V305.384C132.592 305.661 132.624 305.909 132.688 306.128C132.757 306.341 132.859 306.523 132.992 306.672C133.125 306.821 133.291 306.933 133.488 307.008C133.685 307.083 133.912 307.12 134.168 307.12ZM137.856 308V303.792H138.776L138.864 304.448H138.92C138.973 304.309 139.042 304.184 139.128 304.072C139.213 303.955 139.32 303.861 139.448 303.792C139.576 303.723 139.725 303.688 139.896 303.688C139.986 303.688 140.069 303.699 140.144 303.72C140.218 303.736 140.274 303.752 140.312 303.768V304.776H139.968C139.802 304.776 139.656 304.8 139.528 304.848C139.405 304.891 139.301 304.96 139.216 305.056C139.13 305.152 139.066 305.269 139.024 305.408C138.986 305.547 138.968 305.709 138.968 305.896V308H137.856ZM141.583 309.504C141.396 309.504 141.22 309.464 141.055 309.384C140.889 309.309 140.756 309.197 140.655 309.048C140.553 308.899 140.503 308.72 140.503 308.512C140.503 308.277 140.569 308.091 140.703 307.952C140.841 307.808 140.996 307.701 141.167 307.632C141.044 307.563 140.943 307.472 140.863 307.36C140.788 307.248 140.751 307.117 140.751 306.968C140.751 306.76 140.825 306.592 140.975 306.464C141.129 306.331 141.305 306.245 141.503 306.208C141.305 306.085 141.151 305.931 141.039 305.744C140.932 305.552 140.879 305.339 140.879 305.104C140.879 304.8 140.953 304.544 141.103 304.336C141.257 304.128 141.476 303.971 141.759 303.864C142.047 303.752 142.385 303.696 142.775 303.696C142.929 303.696 143.073 303.704 143.207 303.72C143.345 303.736 143.471 303.763 143.583 303.8C143.78 303.683 143.913 303.555 143.983 303.416C144.057 303.272 144.097 303.157 144.103 303.072H145.135C145.135 303.269 145.097 303.44 145.023 303.584C144.953 303.728 144.852 303.848 144.719 303.944C144.585 304.035 144.425 304.101 144.239 304.144C144.377 304.261 144.484 304.403 144.559 304.568C144.633 304.733 144.671 304.912 144.671 305.104C144.671 305.403 144.599 305.659 144.455 305.872C144.311 306.08 144.105 306.24 143.839 306.352C143.577 306.464 143.263 306.52 142.895 306.52H142.255C142.127 306.52 142.031 306.544 141.967 306.592C141.903 306.635 141.871 306.699 141.871 306.784C141.871 306.853 141.897 306.915 141.951 306.968C142.009 307.016 142.103 307.04 142.231 307.04H143.983C144.335 307.04 144.615 307.149 144.823 307.368C145.036 307.581 145.143 307.856 145.143 308.192C145.143 308.448 145.076 308.675 144.943 308.872C144.809 309.069 144.625 309.224 144.391 309.336C144.156 309.448 143.887 309.504 143.583 309.504H141.583ZM142.047 308.76H143.527C143.623 308.76 143.708 308.741 143.783 308.704C143.857 308.672 143.916 308.624 143.959 308.56C144.001 308.501 144.023 308.432 144.023 308.352C144.023 308.213 143.98 308.109 143.895 308.04C143.809 307.971 143.703 307.936 143.575 307.936H142.047C141.919 307.936 141.812 307.973 141.727 308.048C141.647 308.123 141.607 308.221 141.607 308.344C141.607 308.467 141.647 308.565 141.727 308.64C141.812 308.72 141.919 308.76 142.047 308.76ZM142.775 305.8C143.036 305.8 143.233 305.741 143.367 305.624C143.505 305.501 143.575 305.328 143.575 305.104C143.575 304.88 143.505 304.709 143.367 304.592C143.233 304.469 143.036 304.408 142.775 304.408C142.519 304.408 142.321 304.469 142.183 304.592C142.049 304.709 141.983 304.88 141.983 305.104C141.983 305.248 142.012 305.373 142.071 305.48C142.129 305.587 142.217 305.667 142.335 305.72C142.452 305.773 142.599 305.8 142.775 305.8ZM146.866 308.096C146.728 308.096 146.578 308.08 146.418 308.048C146.264 308.016 146.117 307.96 145.978 307.88C145.84 307.795 145.725 307.675 145.634 307.52C145.549 307.36 145.506 307.157 145.506 306.912C145.506 306.619 145.57 306.376 145.698 306.184C145.826 305.992 146.008 305.843 146.242 305.736C146.482 305.624 146.768 305.547 147.098 305.504C147.429 305.461 147.794 305.44 148.194 305.44V305.128C148.194 305.005 148.173 304.899 148.13 304.808C148.093 304.717 148.024 304.645 147.922 304.592C147.826 304.539 147.69 304.512 147.514 304.512C147.338 304.512 147.194 304.533 147.082 304.576C146.976 304.619 146.898 304.675 146.85 304.744C146.808 304.808 146.786 304.88 146.786 304.96V305.056H145.706C145.701 305.029 145.698 305.005 145.698 304.984C145.698 304.957 145.698 304.925 145.698 304.888C145.698 304.643 145.773 304.432 145.922 304.256C146.072 304.075 146.282 303.936 146.554 303.84C146.826 303.744 147.144 303.696 147.506 303.696C147.896 303.696 148.221 303.747 148.482 303.848C148.749 303.949 148.952 304.099 149.09 304.296C149.234 304.493 149.306 304.741 149.306 305.04V306.952C149.306 307.048 149.333 307.12 149.386 307.168C149.445 307.211 149.509 307.232 149.578 307.232H149.842V307.96C149.789 307.987 149.706 308.013 149.594 308.04C149.482 308.072 149.346 308.088 149.186 308.088C149.032 308.088 148.893 308.064 148.77 308.016C148.653 307.973 148.554 307.912 148.474 307.832C148.394 307.747 148.338 307.645 148.306 307.528H148.25C148.16 307.64 148.048 307.739 147.914 307.824C147.786 307.909 147.634 307.976 147.458 308.024C147.288 308.072 147.09 308.096 146.866 308.096ZM147.242 307.256C147.392 307.256 147.525 307.235 147.642 307.192C147.76 307.144 147.858 307.083 147.938 307.008C148.018 306.928 148.08 306.832 148.122 306.72C148.17 306.608 148.194 306.488 148.194 306.36V306.128C147.896 306.128 147.629 306.149 147.394 306.192C147.16 306.229 146.973 306.296 146.834 306.392C146.701 306.488 146.634 306.621 146.634 306.792C146.634 306.888 146.658 306.971 146.706 307.04C146.754 307.109 146.824 307.163 146.914 307.2C147.005 307.237 147.114 307.256 147.242 307.256ZM150.395 308V303.792H151.315L151.403 304.368H151.459C151.555 304.229 151.669 304.109 151.803 304.008C151.941 303.907 152.096 303.829 152.267 303.776C152.437 303.723 152.624 303.696 152.827 303.696C153.104 303.696 153.347 303.747 153.555 303.848C153.763 303.949 153.923 304.109 154.035 304.328C154.152 304.547 154.211 304.832 154.211 305.184V308H153.099V305.36C153.099 305.227 153.083 305.115 153.051 305.024C153.019 304.928 152.971 304.851 152.907 304.792C152.848 304.728 152.773 304.683 152.683 304.656C152.592 304.629 152.491 304.616 152.379 304.616C152.213 304.616 152.064 304.656 151.931 304.736C151.797 304.816 151.693 304.925 151.619 305.064C151.544 305.203 151.507 305.363 151.507 305.544V308H150.395ZM155.207 303.176V302.216H156.319V303.176H155.207ZM155.207 308V303.792H156.319V308H155.207ZM157.012 308V307.528L159.068 304.648H157.14V303.792H160.676V304.248L158.612 307.136H160.756V308H157.012ZM162.444 308.096C162.306 308.096 162.156 308.08 161.996 308.048C161.842 308.016 161.695 307.96 161.556 307.88C161.418 307.795 161.303 307.675 161.212 307.52C161.127 307.36 161.084 307.157 161.084 306.912C161.084 306.619 161.148 306.376 161.276 306.184C161.404 305.992 161.586 305.843 161.82 305.736C162.06 305.624 162.346 305.547 162.676 305.504C163.007 305.461 163.372 305.44 163.772 305.44V305.128C163.772 305.005 163.751 304.899 163.708 304.808C163.671 304.717 163.602 304.645 163.5 304.592C163.404 304.539 163.268 304.512 163.092 304.512C162.916 304.512 162.772 304.533 162.66 304.576C162.554 304.619 162.476 304.675 162.428 304.744C162.386 304.808 162.364 304.88 162.364 304.96V305.056H161.284C161.279 305.029 161.276 305.005 161.276 304.984C161.276 304.957 161.276 304.925 161.276 304.888C161.276 304.643 161.351 304.432 161.5 304.256C161.65 304.075 161.86 303.936 162.132 303.84C162.404 303.744 162.722 303.696 163.084 303.696C163.474 303.696 163.799 303.747 164.06 303.848C164.327 303.949 164.53 304.099 164.668 304.296C164.812 304.493 164.884 304.741 164.884 305.04V306.952C164.884 307.048 164.911 307.12 164.964 307.168C165.023 307.211 165.087 307.232 165.156 307.232H165.42V307.96C165.367 307.987 165.284 308.013 165.172 308.04C165.06 308.072 164.924 308.088 164.764 308.088C164.61 308.088 164.471 308.064 164.348 308.016C164.231 307.973 164.132 307.912 164.052 307.832C163.972 307.747 163.916 307.645 163.884 307.528H163.828C163.738 307.64 163.626 307.739 163.492 307.824C163.364 307.909 163.212 307.976 163.036 308.024C162.866 308.072 162.668 308.096 162.444 308.096ZM162.82 307.256C162.97 307.256 163.103 307.235 163.22 307.192C163.338 307.144 163.436 307.083 163.516 307.008C163.596 306.928 163.658 306.832 163.7 306.72C163.748 306.608 163.772 306.488 163.772 306.36V306.128C163.474 306.128 163.207 306.149 162.972 306.192C162.738 306.229 162.551 306.296 162.412 306.392C162.279 306.488 162.212 306.621 162.212 306.792C162.212 306.888 162.236 306.971 162.284 307.04C162.332 307.109 162.402 307.163 162.492 307.2C162.583 307.237 162.692 307.256 162.82 307.256ZM167.229 308.096C166.962 308.096 166.746 308.048 166.581 307.952C166.416 307.856 166.296 307.728 166.221 307.568C166.146 307.403 166.109 307.221 166.109 307.024V304.648H165.589V303.792H166.149L166.357 302.592H167.221V303.792H167.989V304.648H167.221V306.84C167.221 306.968 167.25 307.067 167.309 307.136C167.368 307.2 167.464 307.232 167.597 307.232H167.989V307.968C167.925 307.989 167.85 308.008 167.765 308.024C167.68 308.045 167.589 308.061 167.493 308.072C167.397 308.088 167.309 308.096 167.229 308.096ZM168.707 303.176V302.216H169.819V303.176H168.707ZM168.707 308V303.792H169.819V308H168.707ZM172.776 308.096C172.317 308.096 171.928 308.019 171.608 307.864C171.288 307.704 171.045 307.461 170.88 307.136C170.715 306.805 170.632 306.392 170.632 305.896C170.632 305.389 170.715 304.976 170.88 304.656C171.045 304.331 171.288 304.091 171.608 303.936C171.928 303.776 172.317 303.696 172.776 303.696C173.245 303.696 173.637 303.776 173.952 303.936C174.272 304.091 174.515 304.331 174.68 304.656C174.845 304.976 174.928 305.389 174.928 305.896C174.928 306.392 174.845 306.805 174.68 307.136C174.515 307.461 174.272 307.704 173.952 307.864C173.637 308.019 173.245 308.096 172.776 308.096ZM172.776 307.232C173.021 307.232 173.216 307.187 173.36 307.096C173.509 307.005 173.619 306.867 173.688 306.68C173.757 306.493 173.792 306.264 173.792 305.992V305.8C173.792 305.528 173.757 305.299 173.688 305.112C173.619 304.925 173.509 304.787 173.36 304.696C173.216 304.6 173.021 304.552 172.776 304.552C172.536 304.552 172.341 304.6 172.192 304.696C172.048 304.787 171.941 304.925 171.872 305.112C171.803 305.299 171.768 305.528 171.768 305.8V305.992C171.768 306.264 171.803 306.493 171.872 306.68C171.941 306.867 172.048 307.005 172.192 307.096C172.341 307.187 172.536 307.232 172.776 307.232ZM175.746 308V303.792H176.666L176.754 304.368H176.81C176.906 304.229 177.021 304.109 177.154 304.008C177.293 303.907 177.448 303.829 177.618 303.776C177.789 303.723 177.976 303.696 178.178 303.696C178.456 303.696 178.698 303.747 178.906 303.848C179.114 303.949 179.274 304.109 179.386 304.328C179.504 304.547 179.562 304.832 179.562 305.184V308H178.45V305.36C178.45 305.227 178.434 305.115 178.402 305.024C178.37 304.928 178.322 304.851 178.258 304.792C178.2 304.728 178.125 304.683 178.034 304.656C177.944 304.629 177.842 304.616 177.73 304.616C177.565 304.616 177.416 304.656 177.282 304.736C177.149 304.816 177.045 304.925 176.97 305.064C176.896 305.203 176.858 305.363 176.858 305.544V308H175.746ZM182.129 308V303.792H183.049L183.137 304.368H183.193C183.284 304.229 183.391 304.109 183.513 304.008C183.641 303.907 183.783 303.829 183.937 303.776C184.097 303.723 184.268 303.696 184.449 303.696C184.716 303.696 184.945 303.749 185.137 303.856C185.335 303.963 185.487 304.133 185.593 304.368H185.649C185.74 304.229 185.849 304.109 185.977 304.008C186.105 303.907 186.252 303.829 186.417 303.776C186.583 303.723 186.759 303.696 186.945 303.696C187.212 303.696 187.441 303.744 187.633 303.84C187.831 303.936 187.985 304.093 188.097 304.312C188.209 304.525 188.265 304.803 188.265 305.144V308H187.153V305.344C187.153 305.211 187.137 305.099 187.105 305.008C187.079 304.912 187.039 304.837 186.985 304.784C186.932 304.725 186.865 304.683 186.785 304.656C186.705 304.629 186.62 304.616 186.529 304.616C186.38 304.616 186.247 304.656 186.129 304.736C186.012 304.816 185.919 304.925 185.849 305.064C185.785 305.203 185.753 305.363 185.753 305.544V308H184.641V305.344C184.641 305.211 184.625 305.099 184.593 305.008C184.567 304.912 184.527 304.837 184.473 304.784C184.42 304.725 184.353 304.683 184.273 304.656C184.199 304.629 184.113 304.616 184.017 304.616C183.873 304.616 183.74 304.656 183.617 304.736C183.5 304.816 183.407 304.925 183.337 305.064C183.273 305.203 183.241 305.363 183.241 305.544V308H182.129ZM190.366 308.096C190.228 308.096 190.078 308.08 189.918 308.048C189.764 308.016 189.617 307.96 189.478 307.88C189.34 307.795 189.225 307.675 189.134 307.52C189.049 307.36 189.006 307.157 189.006 306.912C189.006 306.619 189.07 306.376 189.198 306.184C189.326 305.992 189.508 305.843 189.742 305.736C189.982 305.624 190.268 305.547 190.598 305.504C190.929 305.461 191.294 305.44 191.694 305.44V305.128C191.694 305.005 191.673 304.899 191.63 304.808C191.593 304.717 191.524 304.645 191.422 304.592C191.326 304.539 191.19 304.512 191.014 304.512C190.838 304.512 190.694 304.533 190.582 304.576C190.476 304.619 190.398 304.675 190.35 304.744C190.308 304.808 190.286 304.88 190.286 304.96V305.056H189.206C189.201 305.029 189.198 305.005 189.198 304.984C189.198 304.957 189.198 304.925 189.198 304.888C189.198 304.643 189.273 304.432 189.422 304.256C189.572 304.075 189.782 303.936 190.054 303.84C190.326 303.744 190.644 303.696 191.006 303.696C191.396 303.696 191.721 303.747 191.982 303.848C192.249 303.949 192.452 304.099 192.59 304.296C192.734 304.493 192.806 304.741 192.806 305.04V306.952C192.806 307.048 192.833 307.12 192.886 307.168C192.945 307.211 193.009 307.232 193.078 307.232H193.342V307.96C193.289 307.987 193.206 308.013 193.094 308.04C192.982 308.072 192.846 308.088 192.686 308.088C192.532 308.088 192.393 308.064 192.27 308.016C192.153 307.973 192.054 307.912 191.974 307.832C191.894 307.747 191.838 307.645 191.806 307.528H191.75C191.66 307.64 191.548 307.739 191.414 307.824C191.286 307.909 191.134 307.976 190.958 308.024C190.788 308.072 190.59 308.096 190.366 308.096ZM190.742 307.256C190.892 307.256 191.025 307.235 191.142 307.192C191.26 307.144 191.358 307.083 191.438 307.008C191.518 306.928 191.58 306.832 191.622 306.72C191.67 306.608 191.694 306.488 191.694 306.36V306.128C191.396 306.128 191.129 306.149 190.894 306.192C190.66 306.229 190.473 306.296 190.334 306.392C190.201 306.488 190.134 306.621 190.134 306.792C190.134 306.888 190.158 306.971 190.206 307.04C190.254 307.109 190.324 307.163 190.414 307.2C190.505 307.237 190.614 307.256 190.742 307.256ZM193.895 308V303.792H194.815L194.903 304.368H194.959C195.055 304.229 195.169 304.109 195.303 304.008C195.441 303.907 195.596 303.829 195.767 303.776C195.937 303.723 196.124 303.696 196.327 303.696C196.604 303.696 196.847 303.747 197.055 303.848C197.263 303.949 197.423 304.109 197.535 304.328C197.652 304.547 197.711 304.832 197.711 305.184V308H196.599V305.36C196.599 305.227 196.583 305.115 196.551 305.024C196.519 304.928 196.471 304.851 196.407 304.792C196.348 304.728 196.273 304.683 196.183 304.656C196.092 304.629 195.991 304.616 195.879 304.616C195.713 304.616 195.564 304.656 195.431 304.736C195.297 304.816 195.193 304.925 195.119 305.064C195.044 305.203 195.007 305.363 195.007 305.544V308H193.895ZM199.819 308.096C199.681 308.096 199.531 308.08 199.371 308.048C199.217 308.016 199.07 307.96 198.931 307.88C198.793 307.795 198.678 307.675 198.587 307.52C198.502 307.36 198.459 307.157 198.459 306.912C198.459 306.619 198.523 306.376 198.651 306.184C198.779 305.992 198.961 305.843 199.195 305.736C199.435 305.624 199.721 305.547 200.051 305.504C200.382 305.461 200.747 305.44 201.147 305.44V305.128C201.147 305.005 201.126 304.899 201.083 304.808C201.046 304.717 200.977 304.645 200.875 304.592C200.779 304.539 200.643 304.512 200.467 304.512C200.291 304.512 200.147 304.533 200.035 304.576C199.929 304.619 199.851 304.675 199.803 304.744C199.761 304.808 199.739 304.88 199.739 304.96V305.056H198.659C198.654 305.029 198.651 305.005 198.651 304.984C198.651 304.957 198.651 304.925 198.651 304.888C198.651 304.643 198.726 304.432 198.875 304.256C199.025 304.075 199.235 303.936 199.507 303.84C199.779 303.744 200.097 303.696 200.459 303.696C200.849 303.696 201.174 303.747 201.435 303.848C201.702 303.949 201.905 304.099 202.043 304.296C202.187 304.493 202.259 304.741 202.259 305.04V306.952C202.259 307.048 202.286 307.12 202.339 307.168C202.398 307.211 202.462 307.232 202.531 307.232H202.795V307.96C202.742 307.987 202.659 308.013 202.547 308.04C202.435 308.072 202.299 308.088 202.139 308.088C201.985 308.088 201.846 308.064 201.723 308.016C201.606 307.973 201.507 307.912 201.427 307.832C201.347 307.747 201.291 307.645 201.259 307.528H201.203C201.113 307.64 201.001 307.739 200.867 307.824C200.739 307.909 200.587 307.976 200.411 308.024C200.241 308.072 200.043 308.096 199.819 308.096ZM200.195 307.256C200.345 307.256 200.478 307.235 200.595 307.192C200.713 307.144 200.811 307.083 200.891 307.008C200.971 306.928 201.033 306.832 201.075 306.72C201.123 306.608 201.147 306.488 201.147 306.36V306.128C200.849 306.128 200.582 306.149 200.347 306.192C200.113 306.229 199.926 306.296 199.787 306.392C199.654 306.488 199.587 306.621 199.587 306.792C199.587 306.888 199.611 306.971 199.659 307.04C199.707 307.109 199.777 307.163 199.867 307.2C199.958 307.237 200.067 307.256 200.195 307.256ZM204.036 309.504C203.849 309.504 203.673 309.464 203.508 309.384C203.343 309.309 203.209 309.197 203.108 309.048C203.007 308.899 202.956 308.72 202.956 308.512C202.956 308.277 203.023 308.091 203.156 307.952C203.295 307.808 203.449 307.701 203.62 307.632C203.497 307.563 203.396 307.472 203.316 307.36C203.241 307.248 203.204 307.117 203.204 306.968C203.204 306.76 203.279 306.592 203.428 306.464C203.583 306.331 203.759 306.245 203.956 306.208C203.759 306.085 203.604 305.931 203.492 305.744C203.385 305.552 203.332 305.339 203.332 305.104C203.332 304.8 203.407 304.544 203.556 304.336C203.711 304.128 203.929 303.971 204.212 303.864C204.5 303.752 204.839 303.696 205.228 303.696C205.383 303.696 205.527 303.704 205.66 303.72C205.799 303.736 205.924 303.763 206.036 303.8C206.233 303.683 206.367 303.555 206.436 303.416C206.511 303.272 206.551 303.157 206.556 303.072H207.588C207.588 303.269 207.551 303.44 207.476 303.584C207.407 303.728 207.305 303.848 207.172 303.944C207.039 304.035 206.879 304.101 206.692 304.144C206.831 304.261 206.937 304.403 207.012 304.568C207.087 304.733 207.124 304.912 207.124 305.104C207.124 305.403 207.052 305.659 206.908 305.872C206.764 306.08 206.559 306.24 206.292 306.352C206.031 306.464 205.716 306.52 205.348 306.52H204.708C204.58 306.52 204.484 306.544 204.42 306.592C204.356 306.635 204.324 306.699 204.324 306.784C204.324 306.853 204.351 306.915 204.404 306.968C204.463 307.016 204.556 307.04 204.684 307.04H206.436C206.788 307.04 207.068 307.149 207.276 307.368C207.489 307.581 207.596 307.856 207.596 308.192C207.596 308.448 207.529 308.675 207.396 308.872C207.263 309.069 207.079 309.224 206.844 309.336C206.609 309.448 206.34 309.504 206.036 309.504H204.036ZM204.5 308.76H205.98C206.076 308.76 206.161 308.741 206.236 308.704C206.311 308.672 206.369 308.624 206.412 308.56C206.455 308.501 206.476 308.432 206.476 308.352C206.476 308.213 206.433 308.109 206.348 308.04C206.263 307.971 206.156 307.936 206.028 307.936H204.5C204.372 307.936 204.265 307.973 204.18 308.048C204.1 308.123 204.06 308.221 204.06 308.344C204.06 308.467 204.1 308.565 204.18 308.64C204.265 308.72 204.372 308.76 204.5 308.76ZM205.228 305.8C205.489 305.8 205.687 305.741 205.82 305.624C205.959 305.501 206.028 305.328 206.028 305.104C206.028 304.88 205.959 304.709 205.82 304.592C205.687 304.469 205.489 304.408 205.228 304.408C204.972 304.408 204.775 304.469 204.636 304.592C204.503 304.709 204.436 304.88 204.436 305.104C204.436 305.248 204.465 305.373 204.524 305.48C204.583 305.587 204.671 305.667 204.788 305.72C204.905 305.773 205.052 305.8 205.228 305.8ZM210.119 308.096C209.655 308.096 209.266 308.019 208.951 307.864C208.637 307.704 208.399 307.461 208.239 307.136C208.079 306.811 207.999 306.397 207.999 305.896C207.999 305.389 208.079 304.976 208.239 304.656C208.399 304.331 208.634 304.091 208.943 303.936C209.258 303.776 209.642 303.696 210.095 303.696C210.522 303.696 210.882 303.773 211.175 303.928C211.469 304.077 211.69 304.312 211.839 304.632C211.989 304.947 212.063 305.355 212.063 305.856V306.144H209.127C209.138 306.389 209.175 306.597 209.239 306.768C209.309 306.939 209.413 307.067 209.551 307.152C209.695 307.232 209.885 307.272 210.119 307.272C210.247 307.272 210.362 307.256 210.463 307.224C210.57 307.192 210.661 307.144 210.735 307.08C210.81 307.016 210.869 306.936 210.911 306.84C210.954 306.744 210.975 306.635 210.975 306.512H212.063C212.063 306.779 212.015 307.011 211.919 307.208C211.823 307.405 211.69 307.571 211.519 307.704C211.349 307.832 211.143 307.931 210.903 308C210.669 308.064 210.407 308.096 210.119 308.096ZM209.143 305.44H210.919C210.919 305.28 210.898 305.141 210.855 305.024C210.818 304.907 210.765 304.811 210.695 304.736C210.626 304.661 210.541 304.608 210.439 304.576C210.343 304.539 210.234 304.52 210.111 304.52C209.909 304.52 209.738 304.555 209.599 304.624C209.466 304.688 209.362 304.789 209.287 304.928C209.218 305.061 209.17 305.232 209.143 305.44ZM212.879 308V303.792H213.799L213.887 304.448H213.943C213.997 304.309 214.066 304.184 214.151 304.072C214.237 303.955 214.343 303.861 214.471 303.792C214.599 303.723 214.749 303.688 214.919 303.688C215.01 303.688 215.093 303.699 215.167 303.72C215.242 303.736 215.298 303.752 215.335 303.768V304.776H214.991C214.826 304.776 214.679 304.8 214.551 304.848C214.429 304.891 214.325 304.96 214.239 305.056C214.154 305.152 214.09 305.269 214.047 305.408C214.01 305.547 213.991 305.709 213.991 305.896V308H212.879Z" fill="#4D4F5F"/>
<path d="M131.048 336L133.16 330.512H134.632L136.744 336H135.456L135.064 334.92H132.672L132.28 336H131.048ZM133.016 333.96H134.72L134.232 332.608C134.211 332.549 134.184 332.48 134.152 332.4C134.125 332.315 134.096 332.221 134.064 332.12C134.032 332.019 134 331.92 133.968 331.824C133.941 331.723 133.915 331.632 133.888 331.552H133.84C133.813 331.653 133.779 331.773 133.736 331.912C133.693 332.045 133.651 332.176 133.608 332.304C133.565 332.427 133.531 332.528 133.504 332.608L133.016 333.96ZM139.149 336.096C138.701 336.096 138.325 336.019 138.021 335.864C137.717 335.704 137.485 335.461 137.325 335.136C137.17 334.805 137.093 334.392 137.093 333.896C137.093 333.389 137.17 332.976 137.325 332.656C137.485 332.331 137.717 332.088 138.021 331.928C138.33 331.768 138.706 331.688 139.149 331.688C139.437 331.688 139.696 331.723 139.925 331.792C140.16 331.861 140.362 331.968 140.533 332.112C140.704 332.256 140.832 332.435 140.917 332.648C141.008 332.856 141.053 333.104 141.053 333.392H139.941C139.941 333.2 139.912 333.043 139.853 332.92C139.794 332.797 139.704 332.704 139.581 332.64C139.464 332.576 139.314 332.544 139.133 332.544C138.92 332.544 138.746 332.592 138.613 332.688C138.48 332.784 138.381 332.925 138.317 333.112C138.253 333.299 138.221 333.531 138.221 333.808V333.992C138.221 334.264 138.253 334.493 138.317 334.68C138.386 334.867 138.49 335.008 138.629 335.104C138.768 335.195 138.949 335.24 139.173 335.24C139.354 335.24 139.504 335.208 139.621 335.144C139.744 335.08 139.837 334.984 139.901 334.856C139.965 334.728 139.997 334.573 139.997 334.392H141.053C141.053 334.664 141.008 334.907 140.917 335.12C140.832 335.333 140.704 335.512 140.533 335.656C140.368 335.8 140.168 335.909 139.933 335.984C139.698 336.059 139.437 336.096 139.149 336.096ZM143.143 336.096C142.876 336.096 142.66 336.048 142.495 335.952C142.33 335.856 142.21 335.728 142.135 335.568C142.06 335.403 142.023 335.221 142.023 335.024V332.648H141.503V331.792H142.063L142.271 330.592H143.135V331.792H143.903V332.648H143.135V334.84C143.135 334.968 143.164 335.067 143.223 335.136C143.282 335.2 143.378 335.232 143.511 335.232H143.903V335.968C143.839 335.989 143.764 336.008 143.679 336.024C143.594 336.045 143.503 336.061 143.407 336.072C143.311 336.088 143.223 336.096 143.143 336.096ZM144.621 331.176V330.216H145.733V331.176H144.621ZM144.621 336V331.792H145.733V336H144.621ZM147.842 336L146.274 331.792H147.45L148.066 333.568C148.098 333.659 148.136 333.779 148.178 333.928C148.226 334.077 148.274 334.235 148.322 334.4C148.37 334.565 148.41 334.715 148.442 334.848H148.482C148.52 334.725 148.56 334.584 148.602 334.424C148.645 334.259 148.688 334.101 148.73 333.952C148.778 333.797 148.818 333.669 148.85 333.568L149.466 331.792H150.586L149.01 336H147.842ZM151.129 331.176V330.216H152.241V331.176H151.129ZM151.129 336V331.792H152.241V336H151.129ZM154.518 336.096C154.251 336.096 154.035 336.048 153.87 335.952C153.705 335.856 153.585 335.728 153.51 335.568C153.435 335.403 153.398 335.221 153.398 335.024V332.648H152.878V331.792H153.438L153.646 330.592H154.51V331.792H155.278V332.648H154.51V334.84C154.51 334.968 154.539 335.067 154.598 335.136C154.657 335.2 154.753 335.232 154.886 335.232H155.278V335.968C155.214 335.989 155.139 336.008 155.054 336.024C154.969 336.045 154.878 336.061 154.782 336.072C154.686 336.088 154.598 336.096 154.518 336.096ZM156.604 337.504C156.407 337.504 156.242 337.488 156.108 337.456C155.98 337.429 155.898 337.411 155.86 337.4V336.648H156.348C156.482 336.648 156.602 336.616 156.708 336.552C156.815 336.493 156.908 336.413 156.988 336.312C157.068 336.216 157.127 336.112 157.164 336L155.516 331.792H156.692L157.412 333.736C157.444 333.827 157.479 333.941 157.516 334.08C157.559 334.213 157.602 334.355 157.644 334.504C157.687 334.648 157.722 334.776 157.748 334.888H157.788C157.81 334.813 157.834 334.725 157.86 334.624C157.887 334.523 157.914 334.419 157.94 334.312C157.972 334.205 158.002 334.104 158.028 334.008C158.06 333.907 158.087 333.819 158.108 333.744L158.708 331.792H159.828L158.396 335.8C158.316 336.035 158.223 336.253 158.116 336.456C158.015 336.664 157.895 336.845 157.756 337C157.618 337.16 157.452 337.283 157.26 337.368C157.074 337.459 156.855 337.504 156.604 337.504ZM161.942 336V331.792H162.862L162.95 332.368H163.006C163.096 332.229 163.203 332.109 163.326 332.008C163.454 331.907 163.595 331.829 163.75 331.776C163.91 331.723 164.08 331.696 164.262 331.696C164.528 331.696 164.758 331.749 164.95 331.856C165.147 331.963 165.299 332.133 165.406 332.368H165.462C165.552 332.229 165.662 332.109 165.79 332.008C165.918 331.907 166.064 331.829 166.23 331.776C166.395 331.723 166.571 331.696 166.758 331.696C167.024 331.696 167.254 331.744 167.446 331.84C167.643 331.936 167.798 332.093 167.91 332.312C168.022 332.525 168.078 332.803 168.078 333.144V336H166.966V333.344C166.966 333.211 166.95 333.099 166.918 333.008C166.891 332.912 166.851 332.837 166.798 332.784C166.744 332.725 166.678 332.683 166.598 332.656C166.518 332.629 166.432 332.616 166.342 332.616C166.192 332.616 166.059 332.656 165.942 332.736C165.824 332.816 165.731 332.925 165.662 333.064C165.598 333.203 165.566 333.363 165.566 333.544V336H164.454V333.344C164.454 333.211 164.438 333.099 164.406 333.008C164.379 332.912 164.339 332.837 164.286 332.784C164.232 332.725 164.166 332.683 164.086 332.656C164.011 332.629 163.926 332.616 163.83 332.616C163.686 332.616 163.552 332.656 163.43 332.736C163.312 332.816 163.219 332.925 163.15 333.064C163.086 333.203 163.054 333.363 163.054 333.544V336H161.942ZM170.179 336.096C170.04 336.096 169.891 336.08 169.731 336.048C169.576 336.016 169.429 335.96 169.291 335.88C169.152 335.795 169.037 335.675 168.947 335.52C168.861 335.36 168.819 335.157 168.819 334.912C168.819 334.619 168.883 334.376 169.011 334.184C169.139 333.992 169.32 333.843 169.555 333.736C169.795 333.624 170.08 333.547 170.411 333.504C170.741 333.461 171.107 333.44 171.507 333.44V333.128C171.507 333.005 171.485 332.899 171.443 332.808C171.405 332.717 171.336 332.645 171.235 332.592C171.139 332.539 171.003 332.512 170.827 332.512C170.651 332.512 170.507 332.533 170.395 332.576C170.288 332.619 170.211 332.675 170.163 332.744C170.12 332.808 170.099 332.88 170.099 332.96V333.056H169.019C169.013 333.029 169.011 333.005 169.011 332.984C169.011 332.957 169.011 332.925 169.011 332.888C169.011 332.643 169.085 332.432 169.235 332.256C169.384 332.075 169.595 331.936 169.867 331.84C170.139 331.744 170.456 331.696 170.819 331.696C171.208 331.696 171.533 331.747 171.795 331.848C172.061 331.949 172.264 332.099 172.403 332.296C172.547 332.493 172.619 332.741 172.619 333.04V334.952C172.619 335.048 172.645 335.12 172.699 335.168C172.757 335.211 172.821 335.232 172.891 335.232H173.155V335.96C173.101 335.987 173.019 336.013 172.907 336.04C172.795 336.072 172.659 336.088 172.499 336.088C172.344 336.088 172.205 336.064 172.083 336.016C171.965 335.973 171.867 335.912 171.787 335.832C171.707 335.747 171.651 335.645 171.619 335.528H171.563C171.472 335.64 171.36 335.739 171.227 335.824C171.099 335.909 170.947 335.976 170.771 336.024C170.6 336.072 170.403 336.096 170.179 336.096ZM170.555 335.256C170.704 335.256 170.837 335.235 170.955 335.192C171.072 335.144 171.171 335.083 171.251 335.008C171.331 334.928 171.392 334.832 171.435 334.72C171.483 334.608 171.507 334.488 171.507 334.36V334.128C171.208 334.128 170.941 334.149 170.707 334.192C170.472 334.229 170.285 334.296 170.147 334.392C170.013 334.488 169.947 334.621 169.947 334.792C169.947 334.888 169.971 334.971 170.019 335.04C170.067 335.109 170.136 335.163 170.227 335.2C170.317 335.237 170.427 335.256 170.555 335.256ZM173.707 336V331.792H174.627L174.715 332.368H174.771C174.867 332.229 174.982 332.109 175.115 332.008C175.254 331.907 175.409 331.829 175.579 331.776C175.75 331.723 175.937 331.696 176.139 331.696C176.417 331.696 176.659 331.747 176.867 331.848C177.075 331.949 177.235 332.109 177.347 332.328C177.465 332.547 177.523 332.832 177.523 333.184V336H176.411V333.36C176.411 333.227 176.395 333.115 176.363 333.024C176.331 332.928 176.283 332.851 176.219 332.792C176.161 332.728 176.086 332.683 175.995 332.656C175.905 332.629 175.803 332.616 175.691 332.616C175.526 332.616 175.377 332.656 175.243 332.736C175.11 332.816 175.006 332.925 174.931 333.064C174.857 333.203 174.819 333.363 174.819 333.544V336H173.707ZM179.632 336.096C179.493 336.096 179.344 336.08 179.184 336.048C179.029 336.016 178.882 335.96 178.744 335.88C178.605 335.795 178.49 335.675 178.4 335.52C178.314 335.36 178.272 335.157 178.272 334.912C178.272 334.619 178.336 334.376 178.464 334.184C178.592 333.992 178.773 333.843 179.008 333.736C179.248 333.624 179.533 333.547 179.864 333.504C180.194 333.461 180.56 333.44 180.96 333.44V333.128C180.96 333.005 180.938 332.899 180.896 332.808C180.858 332.717 180.789 332.645 180.688 332.592C180.592 332.539 180.456 332.512 180.28 332.512C180.104 332.512 179.96 332.533 179.848 332.576C179.741 332.619 179.664 332.675 179.616 332.744C179.573 332.808 179.552 332.88 179.552 332.96V333.056H178.472C178.466 333.029 178.464 333.005 178.464 332.984C178.464 332.957 178.464 332.925 178.464 332.888C178.464 332.643 178.538 332.432 178.688 332.256C178.837 332.075 179.048 331.936 179.32 331.84C179.592 331.744 179.909 331.696 180.272 331.696C180.661 331.696 180.986 331.747 181.248 331.848C181.514 331.949 181.717 332.099 181.856 332.296C182 332.493 182.072 332.741 182.072 333.04V334.952C182.072 335.048 182.098 335.12 182.152 335.168C182.21 335.211 182.274 335.232 182.344 335.232H182.608V335.96C182.554 335.987 182.472 336.013 182.36 336.04C182.248 336.072 182.112 336.088 181.952 336.088C181.797 336.088 181.658 336.064 181.536 336.016C181.418 335.973 181.32 335.912 181.24 335.832C181.16 335.747 181.104 335.645 181.072 335.528H181.016C180.925 335.64 180.813 335.739 180.68 335.824C180.552 335.909 180.4 335.976 180.224 336.024C180.053 336.072 179.856 336.096 179.632 336.096ZM180.008 335.256C180.157 335.256 180.29 335.235 180.408 335.192C180.525 335.144 180.624 335.083 180.704 335.008C180.784 334.928 180.845 334.832 180.888 334.72C180.936 334.608 180.96 334.488 180.96 334.36V334.128C180.661 334.128 180.394 334.149 180.16 334.192C179.925 334.229 179.738 334.296 179.6 334.392C179.466 334.488 179.4 334.621 179.4 334.792C179.4 334.888 179.424 334.971 179.472 335.04C179.52 335.109 179.589 335.163 179.68 335.2C179.77 335.237 179.88 335.256 180.008 335.256ZM183.848 337.504C183.662 337.504 183.486 337.464 183.32 337.384C183.155 337.309 183.022 337.197 182.92 337.048C182.819 336.899 182.768 336.72 182.768 336.512C182.768 336.277 182.835 336.091 182.968 335.952C183.107 335.808 183.262 335.701 183.432 335.632C183.31 335.563 183.208 335.472 183.128 335.36C183.054 335.248 183.016 335.117 183.016 334.968C183.016 334.76 183.091 334.592 183.24 334.464C183.395 334.331 183.571 334.245 183.768 334.208C183.571 334.085 183.416 333.931 183.304 333.744C183.198 333.552 183.144 333.339 183.144 333.104C183.144 332.8 183.219 332.544 183.368 332.336C183.523 332.128 183.742 331.971 184.024 331.864C184.312 331.752 184.651 331.696 185.04 331.696C185.195 331.696 185.339 331.704 185.472 331.72C185.611 331.736 185.736 331.763 185.848 331.8C186.046 331.683 186.179 331.555 186.248 331.416C186.323 331.272 186.363 331.157 186.368 331.072H187.4C187.4 331.269 187.363 331.44 187.288 331.584C187.219 331.728 187.118 331.848 186.984 331.944C186.851 332.035 186.691 332.101 186.504 332.144C186.643 332.261 186.75 332.403 186.824 332.568C186.899 332.733 186.936 332.912 186.936 333.104C186.936 333.403 186.864 333.659 186.72 333.872C186.576 334.08 186.371 334.24 186.104 334.352C185.843 334.464 185.528 334.52 185.16 334.52H184.52C184.392 334.52 184.296 334.544 184.232 334.592C184.168 334.635 184.136 334.699 184.136 334.784C184.136 334.853 184.163 334.915 184.216 334.968C184.275 335.016 184.368 335.04 184.496 335.04H186.248C186.6 335.04 186.88 335.149 187.088 335.368C187.302 335.581 187.408 335.856 187.408 336.192C187.408 336.448 187.342 336.675 187.208 336.872C187.075 337.069 186.891 337.224 186.656 337.336C186.422 337.448 186.152 337.504 185.848 337.504H183.848ZM184.312 336.76H185.792C185.888 336.76 185.974 336.741 186.048 336.704C186.123 336.672 186.182 336.624 186.224 336.56C186.267 336.501 186.288 336.432 186.288 336.352C186.288 336.213 186.246 336.109 186.16 336.04C186.075 335.971 185.968 335.936 185.84 335.936H184.312C184.184 335.936 184.078 335.973 183.992 336.048C183.912 336.123 183.872 336.221 183.872 336.344C183.872 336.467 183.912 336.565 183.992 336.64C184.078 336.72 184.184 336.76 184.312 336.76ZM185.04 333.8C185.302 333.8 185.499 333.741 185.632 333.624C185.771 333.501 185.84 333.328 185.84 333.104C185.84 332.88 185.771 332.709 185.632 332.592C185.499 332.469 185.302 332.408 185.04 332.408C184.784 332.408 184.587 332.469 184.448 332.592C184.315 332.709 184.248 332.88 184.248 333.104C184.248 333.248 184.278 333.373 184.336 333.48C184.395 333.587 184.483 333.667 184.6 333.72C184.718 333.773 184.864 333.8 185.04 333.8ZM189.932 336.096C189.468 336.096 189.078 336.019 188.764 335.864C188.449 335.704 188.212 335.461 188.052 335.136C187.892 334.811 187.812 334.397 187.812 333.896C187.812 333.389 187.892 332.976 188.052 332.656C188.212 332.331 188.446 332.091 188.756 331.936C189.07 331.776 189.454 331.696 189.908 331.696C190.334 331.696 190.694 331.773 190.988 331.928C191.281 332.077 191.502 332.312 191.652 332.632C191.801 332.947 191.876 333.355 191.876 333.856V334.144H188.94C188.95 334.389 188.988 334.597 189.052 334.768C189.121 334.939 189.225 335.067 189.364 335.152C189.508 335.232 189.697 335.272 189.932 335.272C190.06 335.272 190.174 335.256 190.276 335.224C190.382 335.192 190.473 335.144 190.548 335.08C190.622 335.016 190.681 334.936 190.724 334.84C190.766 334.744 190.788 334.635 190.788 334.512H191.876C191.876 334.779 191.828 335.011 191.732 335.208C191.636 335.405 191.502 335.571 191.332 335.704C191.161 335.832 190.956 335.931 190.716 336C190.481 336.064 190.22 336.096 189.932 336.096ZM188.956 333.44H190.732C190.732 333.28 190.71 333.141 190.668 333.024C190.63 332.907 190.577 332.811 190.508 332.736C190.438 332.661 190.353 332.608 190.252 332.576C190.156 332.539 190.046 332.52 189.924 332.52C189.721 332.52 189.55 332.555 189.412 332.624C189.278 332.688 189.174 332.789 189.1 332.928C189.03 333.061 188.982 333.232 188.956 333.44ZM192.692 336V331.792H193.612L193.7 332.448H193.756C193.809 332.309 193.878 332.184 193.964 332.072C194.049 331.955 194.156 331.861 194.284 331.792C194.412 331.723 194.561 331.688 194.732 331.688C194.822 331.688 194.905 331.699 194.98 331.72C195.054 331.736 195.11 331.752 195.148 331.768V332.776H194.804C194.638 332.776 194.492 332.8 194.364 332.848C194.241 332.891 194.137 332.96 194.052 333.056C193.966 333.152 193.902 333.269 193.86 333.408C193.822 333.547 193.804 333.709 193.804 333.896V336H192.692Z" fill="#4D4F5F"/>
<circle cx="296" cy="173" r="5" fill="#4D4F5F"/>
<path d="M311.134 169.5C311.519 168.833 312.481 168.833 312.866 169.5L316.33 175.5C316.715 176.167 316.234 177 315.464 177H308.536C307.766 177 307.285 176.167 307.67 175.5L311.134 169.5Z" fill="url(#paint1_linear_431_3343)"/>
<path d="M311.134 189.5C311.519 188.833 312.481 188.833 312.866 189.5L316.33 195.5C316.715 196.167 316.234 197 315.464 197H308.536C307.766 197 307.285 196.167 307.67 195.5L311.134 189.5Z" fill="url(#paint2_linear_431_3343)"/>
<path d="M311.134 209.5C311.519 208.833 312.481 208.833 312.866 209.5L316.33 215.5C316.715 216.167 316.234 217 315.464 217H308.536C307.766 217 307.285 216.167 307.67 215.5L311.134 209.5Z" fill="url(#paint3_linear_431_3343)"/>
<circle cx="296" cy="193" r="5" fill="#4D4F5F"/>
<circle cx="296" cy="213" r="5" fill="#4D4F5F"/>
<rect x="131" y="169" width="64" height="8" rx="4" fill="#8297DF"/>
<rect x="363" y="169" width="64" height="8" rx="4" fill="#4D4F5F"/>
<rect x="131" y="189" width="64" height="8" rx="4" fill="#8297DF"/>
<rect x="363" y="189" width="64" height="8" rx="4" fill="#4D4F5F"/>
<rect x="131" y="209" width="64" height="8" rx="4" fill="#8297DF"/>
<rect x="363" y="209" width="64" height="8" rx="4" fill="#4D4F5F"/>
<rect x="323" y="168" width="10" height="10" rx="1" fill="#8297DF"/>
<rect x="323" y="188" width="10" height="10" rx="1" fill="#8297DF"/>
<rect x="323" y="208" width="10" height="10" rx="1" fill="#8297DF"/>
<path d="M418.703 154.711L421 152.414L423.297 154.711L424 154.008L421 151.008L418 154.008L418.703 154.711Z" fill="#5872CE"/>
<path d="M423.297 247.289L421 249.586L418.703 247.289L418 247.992L421 250.992L424 247.992L423.297 247.289Z" fill="#5872CE"/>
<path d="M423.297 275.289L421 277.586L418.703 275.289L418 275.992L421 278.992L424 275.992L423.297 275.289Z" fill="#5872CE"/>
<path d="M423.297 303.289L421 305.586L418.703 303.289L418 303.992L421 306.992L424 303.992L423.297 303.289Z" fill="#5872CE"/>
<path d="M423.297 331.289L421 333.586L418.703 331.289L418 331.992L421 334.992L424 331.992L423.297 331.289Z" fill="#5872CE"/>
<defs>
<linearGradient id="paint0_linear_431_3343" x1="66.0789" y1="212.802" x2="239.561" y2="405.045" gradientUnits="userSpaceOnUse">
<stop stop-color="#4D4F5F"/>
<stop offset="1" stop-color="#5872CE"/>
</linearGradient>
<linearGradient id="paint1_linear_431_3343" x1="307.421" y1="173.83" x2="312.153" y2="177.946" gradientUnits="userSpaceOnUse">
<stop stop-color="#4D4F5F"/>
<stop offset="1" stop-color="#5872CE"/>
</linearGradient>
<linearGradient id="paint2_linear_431_3343" x1="307.421" y1="193.83" x2="312.153" y2="197.946" gradientUnits="userSpaceOnUse">
<stop stop-color="#4D4F5F"/>
<stop offset="1" stop-color="#5872CE"/>
</linearGradient>
<linearGradient id="paint3_linear_431_3343" x1="307.421" y1="213.83" x2="312.153" y2="217.946" gradientUnits="userSpaceOnUse">
<stop stop-color="#4D4F5F"/>
<stop offset="1" stop-color="#5872CE"/>
</linearGradient>
</defs>
</svg>
