<svg width="560" height="560" viewBox="0 0 560 560" fill="none" xmlns="http://www.w3.org/2000/svg">
<g clip-path="url(#clip0_515_12303)">
<rect width="560" height="560" fill="white"/>
<g opacity="0.8" filter="url(#filter0_f_515_12303)">
<ellipse cx="206.792" cy="204.963" rx="206.792" ry="204.963" transform="matrix(0.965905 -0.258895 -0.258895 -0.965905 349.395 404.729)" fill="#263480"/>
</g>
<g opacity="0.8" filter="url(#filter1_f_515_12303)">
<ellipse cx="417" cy="416" rx="417" ry="416" transform="matrix(1 2.02912e-08 2.02912e-08 -1 -409.586 353.864)" fill="#D0F0F4"/>
</g>
<g opacity="0.8" filter="url(#filter2_f_515_12303)">
<ellipse cx="268.583" cy="268.154" rx="268.583" ry="268.154" transform="matrix(0.651693 -0.758483 -0.758483 -0.651693 387.984 837.655)" fill="#D0F0F4"/>
</g>
<g opacity="0.8" filter="url(#filter3_f_515_12303)">
<ellipse cx="217" cy="205" rx="217" ry="205" transform="matrix(-6.40025e-08 -1 -1 6.40025e-08 363 512.519)" fill="#263480"/>
</g>
<path d="M269.712 543.768V532.584H271.328L271.488 533.704H271.6C271.877 533.267 272.24 532.941 272.688 532.728C273.136 532.504 273.632 532.392 274.176 532.392C274.869 532.392 275.461 532.547 275.952 532.856C276.453 533.165 276.837 533.645 277.104 534.296C277.381 534.947 277.52 535.784 277.52 536.808C277.52 537.811 277.381 538.637 277.104 539.288C276.827 539.939 276.443 540.419 275.952 540.728C275.472 541.037 274.917 541.192 274.288 541.192C273.904 541.192 273.552 541.149 273.232 541.064C272.912 540.979 272.629 540.851 272.384 540.68C272.139 540.499 271.931 540.28 271.76 540.024H271.664V543.768H269.712ZM273.568 539.512C274.048 539.512 274.427 539.421 274.704 539.24C274.992 539.048 275.195 538.76 275.312 538.376C275.44 537.992 275.504 537.507 275.504 536.92V536.696C275.504 536.099 275.44 535.608 275.312 535.224C275.195 534.829 274.992 534.541 274.704 534.36C274.427 534.168 274.048 534.072 273.568 534.072C273.131 534.072 272.768 534.173 272.48 534.376C272.203 534.579 271.995 534.877 271.856 535.272C271.728 535.656 271.664 536.131 271.664 536.696V536.888C271.664 537.304 271.701 537.677 271.776 538.008C271.851 538.328 271.963 538.6 272.112 538.824C272.272 539.048 272.469 539.219 272.704 539.336C272.949 539.453 273.237 539.512 273.568 539.512ZM279.181 541V532.584H280.813L280.973 533.912H281.085C281.191 533.645 281.319 533.4 281.469 533.176C281.629 532.941 281.831 532.755 282.077 532.616C282.322 532.467 282.621 532.392 282.973 532.392C283.143 532.392 283.298 532.408 283.437 532.44C283.586 532.472 283.698 532.504 283.773 532.536V534.376H283.181C282.85 534.376 282.557 534.424 282.301 534.52C282.045 534.605 281.826 534.744 281.645 534.936C281.474 535.128 281.346 535.368 281.261 535.656C281.175 535.944 281.133 536.28 281.133 536.664V541H279.181ZM288.565 541.192C287.648 541.192 286.88 541.037 286.261 540.728C285.643 540.408 285.179 539.923 284.869 539.272C284.56 538.621 284.405 537.795 284.405 536.792C284.405 535.779 284.56 534.952 284.869 534.312C285.179 533.661 285.643 533.181 286.261 532.872C286.88 532.552 287.648 532.392 288.565 532.392C289.493 532.392 290.261 532.552 290.869 532.872C291.488 533.181 291.952 533.661 292.261 534.312C292.571 534.952 292.725 535.779 292.725 536.792C292.725 537.795 292.571 538.621 292.261 539.272C291.952 539.923 291.488 540.408 290.869 540.728C290.261 541.037 289.493 541.192 288.565 541.192ZM288.565 539.592C289.077 539.592 289.488 539.496 289.797 539.304C290.117 539.101 290.347 538.803 290.485 538.408C290.635 538.003 290.709 537.501 290.709 536.904V536.68C290.709 536.083 290.635 535.587 290.485 535.192C290.347 534.787 290.117 534.488 289.797 534.296C289.488 534.093 289.077 533.992 288.565 533.992C288.053 533.992 287.637 534.093 287.317 534.296C287.008 534.488 286.779 534.787 286.629 535.192C286.491 535.587 286.421 536.083 286.421 536.68V536.904C286.421 537.501 286.491 538.003 286.629 538.408C286.779 538.803 287.008 539.101 287.317 539.304C287.637 539.496 288.053 539.592 288.565 539.592ZM297.312 541.192C296.629 541.192 296.037 541.037 295.536 540.728C295.034 540.419 294.645 539.939 294.368 539.288C294.101 538.637 293.968 537.8 293.968 536.776C293.968 535.763 294.106 534.936 294.384 534.296C294.661 533.645 295.045 533.165 295.536 532.856C296.026 532.547 296.581 532.392 297.2 532.392C297.584 532.392 297.936 532.435 298.256 532.52C298.576 532.605 298.858 532.739 299.104 532.92C299.349 533.091 299.557 533.304 299.728 533.56H299.824V529.432H301.776V541H300.16L300 539.88H299.888C299.621 540.317 299.258 540.648 298.8 540.872C298.352 541.085 297.856 541.192 297.312 541.192ZM297.92 539.512C298.368 539.512 298.73 539.411 299.008 539.208C299.285 539.005 299.488 538.712 299.616 538.328C299.754 537.944 299.824 537.475 299.824 536.92V536.712C299.824 536.296 299.786 535.923 299.712 535.592C299.637 535.261 299.52 534.984 299.36 534.76C299.21 534.536 299.013 534.365 298.768 534.248C298.533 534.131 298.25 534.072 297.92 534.072C297.44 534.072 297.056 534.168 296.768 534.36C296.49 534.541 296.288 534.829 296.16 535.224C296.042 535.608 295.984 536.099 295.984 536.696V536.92C295.984 537.507 296.042 537.992 296.16 538.376C296.288 538.76 296.49 539.048 296.768 539.24C297.056 539.421 297.44 539.512 297.92 539.512ZM306.525 541.192C305.714 541.192 305.053 540.973 304.541 540.536C304.039 540.088 303.789 539.331 303.789 538.264V532.584H305.741V537.912C305.741 538.211 305.773 538.461 305.837 538.664C305.911 538.856 306.013 539.016 306.141 539.144C306.279 539.261 306.445 539.347 306.637 539.4C306.829 539.453 307.042 539.48 307.277 539.48C307.629 539.48 307.943 539.395 308.221 539.224C308.509 539.053 308.733 538.819 308.893 538.52C309.063 538.211 309.149 537.864 309.149 537.48V532.584H311.101V541H309.485L309.325 539.88H309.213C309.021 540.136 308.791 540.365 308.525 540.568C308.269 540.76 307.97 540.909 307.629 541.016C307.298 541.133 306.93 541.192 306.525 541.192ZM316.685 541.192C315.81 541.192 315.079 541.037 314.493 540.728C313.917 540.408 313.485 539.923 313.197 539.272C312.909 538.621 312.765 537.795 312.765 536.792C312.765 535.779 312.909 534.952 313.197 534.312C313.495 533.661 313.933 533.181 314.509 532.872C315.095 532.552 315.821 532.392 316.685 532.392C317.25 532.392 317.751 532.461 318.189 532.6C318.626 532.739 318.999 532.952 319.309 533.24C319.629 533.517 319.869 533.864 320.029 534.28C320.189 534.696 320.269 535.181 320.269 535.736H318.285C318.285 535.341 318.226 535.016 318.109 534.76C317.991 534.504 317.81 534.312 317.565 534.184C317.33 534.045 317.026 533.976 316.653 533.976C316.215 533.976 315.858 534.077 315.581 534.28C315.303 534.483 315.095 534.787 314.957 535.192C314.829 535.587 314.765 536.088 314.765 536.696V536.904C314.765 537.501 314.829 538.003 314.957 538.408C315.095 538.813 315.309 539.117 315.597 539.32C315.885 539.512 316.263 539.608 316.733 539.608C317.095 539.608 317.394 539.544 317.629 539.416C317.874 539.277 318.061 539.075 318.189 538.808C318.317 538.541 318.381 538.221 318.381 537.848H320.269C320.269 538.371 320.189 538.84 320.029 539.256C319.869 539.672 319.634 540.024 319.325 540.312C319.015 540.6 318.637 540.819 318.189 540.968C317.751 541.117 317.25 541.192 316.685 541.192ZM324.155 541.192C323.632 541.192 323.221 541.091 322.923 540.888C322.624 540.675 322.411 540.408 322.283 540.088C322.165 539.757 322.107 539.421 322.107 539.08V534.184H321.099V532.584H322.155L322.507 530.232H324.059V532.584H325.515V534.184H324.059V538.888C324.059 539.112 324.117 539.288 324.235 539.416C324.352 539.533 324.528 539.592 324.763 539.592H325.515V540.936C325.408 540.979 325.275 541.016 325.115 541.048C324.965 541.091 324.805 541.123 324.635 541.144C324.464 541.176 324.304 541.192 324.155 541.192ZM333.093 541.192C332.41 541.192 331.818 541.037 331.317 540.728C330.816 540.419 330.426 539.939 330.149 539.288C329.882 538.637 329.749 537.8 329.749 536.776C329.749 535.763 329.888 534.936 330.165 534.296C330.442 533.645 330.826 533.165 331.317 532.856C331.808 532.547 332.362 532.392 332.981 532.392C333.365 532.392 333.717 532.435 334.037 532.52C334.357 532.605 334.64 532.739 334.885 532.92C335.13 533.091 335.338 533.304 335.509 533.56H335.605V529.432H337.557V541H335.941L335.781 539.88H335.669C335.402 540.317 335.04 540.648 334.581 540.872C334.133 541.085 333.637 541.192 333.093 541.192ZM333.701 539.512C334.149 539.512 334.512 539.411 334.789 539.208C335.066 539.005 335.269 538.712 335.397 538.328C335.536 537.944 335.605 537.475 335.605 536.92V536.712C335.605 536.296 335.568 535.923 335.493 535.592C335.418 535.261 335.301 534.984 335.141 534.76C334.992 534.536 334.794 534.365 334.549 534.248C334.314 534.131 334.032 534.072 333.701 534.072C333.221 534.072 332.837 534.168 332.549 534.36C332.272 534.541 332.069 534.829 331.941 535.224C331.824 535.608 331.765 536.099 331.765 536.696V536.92C331.765 537.507 331.824 537.992 331.941 538.376C332.069 538.76 332.272 539.048 332.549 539.24C332.837 539.421 333.221 539.512 333.701 539.512ZM343.25 541.192C342.354 541.192 341.607 541.037 341.01 540.728C340.412 540.408 339.964 539.923 339.666 539.272C339.367 538.621 339.218 537.795 339.218 536.792C339.218 535.779 339.367 534.952 339.666 534.312C339.964 533.661 340.412 533.181 341.01 532.872C341.607 532.552 342.354 532.392 343.25 532.392C344.06 532.392 344.738 532.547 345.282 532.856C345.836 533.155 346.252 533.619 346.53 534.248C346.807 534.877 346.946 535.693 346.946 536.696V537.272H341.218C341.239 537.795 341.319 538.237 341.458 538.6C341.596 538.952 341.81 539.219 342.098 539.4C342.396 539.571 342.786 539.656 343.266 539.656C343.511 539.656 343.74 539.624 343.954 539.56C344.167 539.496 344.354 539.4 344.514 539.272C344.674 539.133 344.796 538.963 344.882 538.76C344.978 538.557 345.026 538.323 345.026 538.056H346.946C346.946 538.589 346.85 539.053 346.658 539.448C346.476 539.843 346.215 540.168 345.874 540.424C345.543 540.68 345.154 540.872 344.706 541C344.258 541.128 343.772 541.192 343.25 541.192ZM341.25 535.896H344.914C344.914 535.544 344.871 535.245 344.786 535C344.711 534.755 344.599 534.552 344.45 534.392C344.311 534.232 344.14 534.12 343.938 534.056C343.735 533.981 343.506 533.944 343.25 533.944C342.834 533.944 342.482 534.013 342.194 534.152C341.916 534.291 341.703 534.504 341.554 534.792C341.404 535.08 341.303 535.448 341.25 535.896ZM351.883 541.192C351.275 541.192 350.741 541.128 350.283 541C349.824 540.861 349.44 540.675 349.131 540.44C348.821 540.205 348.587 539.933 348.427 539.624C348.277 539.304 348.203 538.957 348.203 538.584C348.203 538.531 348.203 538.483 348.203 538.44C348.213 538.397 348.219 538.365 348.219 538.344H350.139C350.139 538.365 350.139 538.387 350.139 538.408C350.139 538.429 350.139 538.451 350.139 538.472C350.149 538.76 350.24 538.995 350.411 539.176C350.581 539.347 350.805 539.469 351.083 539.544C351.36 539.619 351.653 539.656 351.963 539.656C352.24 539.656 352.501 539.629 352.747 539.576C353.003 539.512 353.211 539.416 353.371 539.288C353.541 539.149 353.627 538.973 353.627 538.76C353.627 538.483 353.52 538.269 353.307 538.12C353.093 537.971 352.811 537.848 352.459 537.752C352.117 537.656 351.749 537.555 351.355 537.448C351.003 537.352 350.651 537.245 350.299 537.128C349.947 537.011 349.627 536.861 349.339 536.68C349.061 536.499 348.832 536.264 348.651 535.976C348.48 535.688 348.395 535.331 348.395 534.904C348.395 534.488 348.485 534.125 348.667 533.816C348.848 533.507 349.099 533.251 349.419 533.048C349.739 532.835 350.117 532.675 350.555 532.568C350.992 532.461 351.467 532.408 351.979 532.408C352.48 532.408 352.933 532.461 353.339 532.568C353.755 532.675 354.112 532.829 354.411 533.032C354.72 533.224 354.955 533.464 355.115 533.752C355.285 534.029 355.371 534.339 355.371 534.68C355.371 534.755 355.365 534.829 355.355 534.904C355.355 534.979 355.355 535.021 355.355 535.032H353.451V534.92C353.451 534.717 353.387 534.547 353.259 534.408C353.141 534.259 352.965 534.141 352.731 534.056C352.507 533.971 352.224 533.928 351.883 533.928C351.627 533.928 351.403 533.949 351.211 533.992C351.019 534.035 350.859 534.093 350.731 534.168C350.613 534.243 350.523 534.328 350.459 534.424C350.395 534.52 350.363 534.627 350.363 534.744C350.363 534.947 350.443 535.107 350.603 535.224C350.763 535.341 350.976 535.443 351.243 535.528C351.52 535.613 351.819 535.704 352.139 535.8C352.523 535.907 352.917 536.019 353.323 536.136C353.728 536.243 354.101 536.381 354.443 536.552C354.795 536.723 355.077 536.963 355.291 537.272C355.504 537.581 355.611 537.992 355.611 538.504C355.611 538.995 355.515 539.416 355.323 539.768C355.141 540.109 354.88 540.387 354.539 540.6C354.208 540.803 353.813 540.952 353.355 541.048C352.907 541.144 352.416 541.192 351.883 541.192ZM357.259 531.288V529.432H359.211V531.288H357.259ZM357.259 541V532.584H359.211V541H357.259ZM362.682 543.912C362.309 543.912 361.957 543.837 361.626 543.688C361.295 543.539 361.029 543.315 360.826 543.016C360.623 542.728 360.522 542.371 360.522 541.944C360.522 541.475 360.655 541.107 360.922 540.84C361.199 540.563 361.503 540.355 361.834 540.216C361.589 540.088 361.386 539.917 361.226 539.704C361.077 539.491 361.002 539.235 361.002 538.936C361.002 538.531 361.151 538.211 361.45 537.976C361.749 537.731 362.09 537.571 362.474 537.496C362.079 537.251 361.775 536.936 361.562 536.552C361.359 536.168 361.258 535.731 361.258 535.24C361.258 534.653 361.397 534.152 361.674 533.736C361.962 533.309 362.378 532.979 362.922 532.744C363.466 532.509 364.122 532.392 364.89 532.392C365.199 532.392 365.498 532.413 365.786 532.456C366.074 532.499 366.335 532.563 366.57 532.648C366.943 532.424 367.199 532.173 367.338 531.896C367.477 531.608 367.551 531.373 367.562 531.192H369.466C369.466 531.565 369.391 531.896 369.242 532.184C369.103 532.472 368.906 532.712 368.65 532.904C368.394 533.085 368.085 533.219 367.722 533.304C367.989 533.539 368.191 533.821 368.33 534.152C368.469 534.483 368.538 534.845 368.538 535.24C368.538 535.827 368.399 536.333 368.122 536.76C367.855 537.187 367.455 537.517 366.922 537.752C366.399 537.987 365.754 538.104 364.986 538.104H363.69C363.466 538.104 363.29 538.152 363.162 538.248C363.045 538.344 362.986 538.477 362.986 538.648C362.986 538.787 363.039 538.909 363.146 539.016C363.263 539.123 363.423 539.176 363.626 539.176H367.306C367.935 539.176 368.453 539.384 368.858 539.8C369.274 540.205 369.482 540.728 369.482 541.368C369.482 541.848 369.354 542.28 369.098 542.664C368.853 543.048 368.506 543.352 368.058 543.576C367.61 543.8 367.087 543.912 366.49 543.912H362.682ZM363.386 542.504H366.474C366.677 542.504 366.853 542.467 367.002 542.392C367.162 542.328 367.285 542.232 367.37 542.104C367.466 541.976 367.514 541.832 367.514 541.672C367.514 541.395 367.423 541.187 367.242 541.048C367.071 540.909 366.858 540.84 366.602 540.84H363.386C363.13 540.84 362.917 540.915 362.746 541.064C362.575 541.224 362.49 541.427 362.49 541.672C362.49 541.917 362.57 542.115 362.73 542.264C362.901 542.424 363.119 542.504 363.386 542.504ZM364.906 536.728C365.471 536.728 365.893 536.6 366.17 536.344C366.458 536.077 366.602 535.709 366.602 535.24C366.602 534.771 366.458 534.408 366.17 534.152C365.893 533.896 365.471 533.768 364.906 533.768C364.341 533.768 363.914 533.896 363.626 534.152C363.349 534.408 363.21 534.771 363.21 535.24C363.21 535.549 363.269 535.816 363.386 536.04C363.514 536.264 363.701 536.435 363.946 536.552C364.202 536.669 364.522 536.728 364.906 536.728ZM370.743 541V532.584H372.375L372.535 533.704H372.647C372.839 533.448 373.063 533.224 373.319 533.032C373.586 532.829 373.884 532.675 374.215 532.568C374.556 532.451 374.93 532.392 375.335 532.392C375.868 532.392 376.338 532.488 376.743 532.68C377.159 532.872 377.484 533.181 377.719 533.608C377.954 534.035 378.071 534.605 378.071 535.32V541H376.103V535.672C376.103 535.373 376.066 535.128 375.991 534.936C375.927 534.733 375.826 534.573 375.687 534.456C375.559 534.328 375.399 534.237 375.207 534.184C375.015 534.131 374.802 534.104 374.567 534.104C374.215 534.104 373.895 534.189 373.607 534.36C373.33 534.531 373.106 534.765 372.935 535.064C372.775 535.363 372.695 535.709 372.695 536.104V541H370.743ZM385.642 537.608C385.237 537.608 384.874 537.517 384.554 537.336C384.245 537.155 383.999 536.909 383.818 536.6C383.637 536.28 383.546 535.917 383.546 535.512C383.546 535.096 383.637 534.733 383.818 534.424C383.999 534.104 384.245 533.853 384.554 533.672C384.874 533.491 385.237 533.4 385.642 533.4C386.058 533.4 386.421 533.491 386.73 533.672C387.05 533.853 387.301 534.104 387.482 534.424C387.663 534.733 387.754 535.096 387.754 535.512C387.754 535.917 387.663 536.28 387.482 536.6C387.301 536.909 387.05 537.155 386.73 537.336C386.421 537.517 386.058 537.608 385.642 537.608ZM396.218 541.192C395.535 541.192 394.943 541.037 394.442 540.728C393.941 540.419 393.551 539.939 393.274 539.288C393.007 538.637 392.874 537.8 392.874 536.776C392.874 535.763 393.013 534.936 393.29 534.296C393.567 533.645 393.951 533.165 394.442 532.856C394.933 532.547 395.487 532.392 396.106 532.392C396.49 532.392 396.842 532.435 397.162 532.52C397.482 532.605 397.765 532.739 398.01 532.92C398.255 533.091 398.463 533.304 398.634 533.56H398.73V529.432H400.682V541H399.066L398.906 539.88H398.794C398.527 540.317 398.165 540.648 397.706 540.872C397.258 541.085 396.762 541.192 396.218 541.192ZM396.826 539.512C397.274 539.512 397.637 539.411 397.914 539.208C398.191 539.005 398.394 538.712 398.522 538.328C398.661 537.944 398.73 537.475 398.73 536.92V536.712C398.73 536.296 398.693 535.923 398.618 535.592C398.543 535.261 398.426 534.984 398.266 534.76C398.117 534.536 397.919 534.365 397.674 534.248C397.439 534.131 397.157 534.072 396.826 534.072C396.346 534.072 395.962 534.168 395.674 534.36C395.397 534.541 395.194 534.829 395.066 535.224C394.949 535.608 394.89 536.099 394.89 536.696V536.92C394.89 537.507 394.949 537.992 395.066 538.376C395.194 538.76 395.397 539.048 395.674 539.24C395.962 539.421 396.346 539.512 396.826 539.512ZM406.375 541.192C405.479 541.192 404.732 541.037 404.135 540.728C403.537 540.408 403.089 539.923 402.791 539.272C402.492 538.621 402.343 537.795 402.343 536.792C402.343 535.779 402.492 534.952 402.791 534.312C403.089 533.661 403.537 533.181 404.135 532.872C404.732 532.552 405.479 532.392 406.375 532.392C407.185 532.392 407.863 532.547 408.407 532.856C408.961 533.155 409.377 533.619 409.655 534.248C409.932 534.877 410.071 535.693 410.071 536.696V537.272H404.343C404.364 537.795 404.444 538.237 404.583 538.6C404.721 538.952 404.935 539.219 405.223 539.4C405.521 539.571 405.911 539.656 406.391 539.656C406.636 539.656 406.865 539.624 407.079 539.56C407.292 539.496 407.479 539.4 407.639 539.272C407.799 539.133 407.921 538.963 408.007 538.76C408.103 538.557 408.151 538.323 408.151 538.056H410.071C410.071 538.589 409.975 539.053 409.783 539.448C409.601 539.843 409.34 540.168 408.999 540.424C408.668 540.68 408.279 540.872 407.831 541C407.383 541.128 406.897 541.192 406.375 541.192ZM404.375 535.896H408.039C408.039 535.544 407.996 535.245 407.911 535C407.836 534.755 407.724 534.552 407.575 534.392C407.436 534.232 407.265 534.12 407.063 534.056C406.86 533.981 406.631 533.944 406.375 533.944C405.959 533.944 405.607 534.013 405.319 534.152C405.041 534.291 404.828 534.504 404.679 534.792C404.529 535.08 404.428 535.448 404.375 535.896ZM415.008 541.192C414.4 541.192 413.866 541.128 413.408 541C412.949 540.861 412.565 540.675 412.256 540.44C411.946 540.205 411.712 539.933 411.552 539.624C411.402 539.304 411.328 538.957 411.328 538.584C411.328 538.531 411.328 538.483 411.328 538.44C411.338 538.397 411.344 538.365 411.344 538.344H413.264C413.264 538.365 413.264 538.387 413.264 538.408C413.264 538.429 413.264 538.451 413.264 538.472C413.274 538.76 413.365 538.995 413.536 539.176C413.706 539.347 413.93 539.469 414.208 539.544C414.485 539.619 414.778 539.656 415.088 539.656C415.365 539.656 415.626 539.629 415.872 539.576C416.128 539.512 416.336 539.416 416.496 539.288C416.666 539.149 416.752 538.973 416.752 538.76C416.752 538.483 416.645 538.269 416.432 538.12C416.218 537.971 415.936 537.848 415.584 537.752C415.242 537.656 414.874 537.555 414.48 537.448C414.128 537.352 413.776 537.245 413.424 537.128C413.072 537.011 412.752 536.861 412.464 536.68C412.186 536.499 411.957 536.264 411.776 535.976C411.605 535.688 411.52 535.331 411.52 534.904C411.52 534.488 411.61 534.125 411.792 533.816C411.973 533.507 412.224 533.251 412.544 533.048C412.864 532.835 413.242 532.675 413.68 532.568C414.117 532.461 414.592 532.408 415.104 532.408C415.605 532.408 416.058 532.461 416.464 532.568C416.88 532.675 417.237 532.829 417.536 533.032C417.845 533.224 418.08 533.464 418.24 533.752C418.41 534.029 418.496 534.339 418.496 534.68C418.496 534.755 418.49 534.829 418.48 534.904C418.48 534.979 418.48 535.021 418.48 535.032H416.576V534.92C416.576 534.717 416.512 534.547 416.384 534.408C416.266 534.259 416.09 534.141 415.856 534.056C415.632 533.971 415.349 533.928 415.008 533.928C414.752 533.928 414.528 533.949 414.336 533.992C414.144 534.035 413.984 534.093 413.856 534.168C413.738 534.243 413.648 534.328 413.584 534.424C413.52 534.52 413.488 534.627 413.488 534.744C413.488 534.947 413.568 535.107 413.728 535.224C413.888 535.341 414.101 535.443 414.368 535.528C414.645 535.613 414.944 535.704 415.264 535.8C415.648 535.907 416.042 536.019 416.448 536.136C416.853 536.243 417.226 536.381 417.568 536.552C417.92 536.723 418.202 536.963 418.416 537.272C418.629 537.581 418.736 537.992 418.736 538.504C418.736 538.995 418.64 539.416 418.448 539.768C418.266 540.109 418.005 540.387 417.664 540.6C417.333 540.803 416.938 540.952 416.48 541.048C416.032 541.144 415.541 541.192 415.008 541.192ZM420.384 531.288V529.432H422.336V531.288H420.384ZM420.384 541V532.584H422.336V541H420.384ZM425.807 543.912C425.434 543.912 425.082 543.837 424.751 543.688C424.42 543.539 424.154 543.315 423.951 543.016C423.748 542.728 423.647 542.371 423.647 541.944C423.647 541.475 423.78 541.107 424.047 540.84C424.324 540.563 424.628 540.355 424.959 540.216C424.714 540.088 424.511 539.917 424.351 539.704C424.202 539.491 424.127 539.235 424.127 538.936C424.127 538.531 424.276 538.211 424.575 537.976C424.874 537.731 425.215 537.571 425.599 537.496C425.204 537.251 424.9 536.936 424.687 536.552C424.484 536.168 424.383 535.731 424.383 535.24C424.383 534.653 424.522 534.152 424.799 533.736C425.087 533.309 425.503 532.979 426.047 532.744C426.591 532.509 427.247 532.392 428.015 532.392C428.324 532.392 428.623 532.413 428.911 532.456C429.199 532.499 429.46 532.563 429.695 532.648C430.068 532.424 430.324 532.173 430.463 531.896C430.602 531.608 430.676 531.373 430.687 531.192H432.591C432.591 531.565 432.516 531.896 432.367 532.184C432.228 532.472 432.031 532.712 431.775 532.904C431.519 533.085 431.21 533.219 430.847 533.304C431.114 533.539 431.316 533.821 431.455 534.152C431.594 534.483 431.663 534.845 431.663 535.24C431.663 535.827 431.524 536.333 431.247 536.76C430.98 537.187 430.58 537.517 430.047 537.752C429.524 537.987 428.879 538.104 428.111 538.104H426.815C426.591 538.104 426.415 538.152 426.287 538.248C426.17 538.344 426.111 538.477 426.111 538.648C426.111 538.787 426.164 538.909 426.271 539.016C426.388 539.123 426.548 539.176 426.751 539.176H430.431C431.06 539.176 431.578 539.384 431.983 539.8C432.399 540.205 432.607 540.728 432.607 541.368C432.607 541.848 432.479 542.28 432.223 542.664C431.978 543.048 431.631 543.352 431.183 543.576C430.735 543.8 430.212 543.912 429.615 543.912H425.807ZM426.511 542.504H429.599C429.802 542.504 429.978 542.467 430.127 542.392C430.287 542.328 430.41 542.232 430.495 542.104C430.591 541.976 430.639 541.832 430.639 541.672C430.639 541.395 430.548 541.187 430.367 541.048C430.196 540.909 429.983 540.84 429.727 540.84H426.511C426.255 540.84 426.042 540.915 425.871 541.064C425.7 541.224 425.615 541.427 425.615 541.672C425.615 541.917 425.695 542.115 425.855 542.264C426.026 542.424 426.244 542.504 426.511 542.504ZM428.031 536.728C428.596 536.728 429.018 536.6 429.295 536.344C429.583 536.077 429.727 535.709 429.727 535.24C429.727 534.771 429.583 534.408 429.295 534.152C429.018 533.896 428.596 533.768 428.031 533.768C427.466 533.768 427.039 533.896 426.751 534.152C426.474 534.408 426.335 534.771 426.335 535.24C426.335 535.549 426.394 535.816 426.511 536.04C426.639 536.264 426.826 536.435 427.071 536.552C427.327 536.669 427.647 536.728 428.031 536.728ZM433.868 541V532.584H435.5L435.66 533.704H435.772C435.964 533.448 436.188 533.224 436.444 533.032C436.711 532.829 437.009 532.675 437.34 532.568C437.681 532.451 438.055 532.392 438.46 532.392C438.993 532.392 439.463 532.488 439.868 532.68C440.284 532.872 440.609 533.181 440.844 533.608C441.079 534.035 441.196 534.605 441.196 535.32V541H439.228V535.672C439.228 535.373 439.191 535.128 439.116 534.936C439.052 534.733 438.951 534.573 438.812 534.456C438.684 534.328 438.524 534.237 438.332 534.184C438.14 534.131 437.927 534.104 437.692 534.104C437.34 534.104 437.02 534.189 436.732 534.36C436.455 534.531 436.231 534.765 436.06 535.064C435.9 535.363 435.82 535.709 435.82 536.104V541H433.868ZM446.828 541.192C445.932 541.192 445.185 541.037 444.588 540.728C443.991 540.408 443.543 539.923 443.244 539.272C442.945 538.621 442.796 537.795 442.796 536.792C442.796 535.779 442.945 534.952 443.244 534.312C443.543 533.661 443.991 533.181 444.588 532.872C445.185 532.552 445.932 532.392 446.828 532.392C447.639 532.392 448.316 532.547 448.86 532.856C449.415 533.155 449.831 533.619 450.108 534.248C450.385 534.877 450.524 535.693 450.524 536.696V537.272H444.796C444.817 537.795 444.897 538.237 445.036 538.6C445.175 538.952 445.388 539.219 445.676 539.4C445.975 539.571 446.364 539.656 446.844 539.656C447.089 539.656 447.319 539.624 447.532 539.56C447.745 539.496 447.932 539.4 448.092 539.272C448.252 539.133 448.375 538.963 448.46 538.76C448.556 538.557 448.604 538.323 448.604 538.056H450.524C450.524 538.589 450.428 539.053 450.236 539.448C450.055 539.843 449.793 540.168 449.452 540.424C449.121 540.68 448.732 540.872 448.284 541C447.836 541.128 447.351 541.192 446.828 541.192ZM444.828 535.896H448.492C448.492 535.544 448.449 535.245 448.364 535C448.289 534.755 448.177 534.552 448.028 534.392C447.889 534.232 447.719 534.12 447.516 534.056C447.313 533.981 447.084 533.944 446.828 533.944C446.412 533.944 446.06 534.013 445.772 534.152C445.495 534.291 445.281 534.504 445.132 534.792C444.983 535.08 444.881 535.448 444.828 535.896ZM455.109 541.192C454.426 541.192 453.834 541.037 453.333 540.728C452.831 540.419 452.442 539.939 452.165 539.288C451.898 538.637 451.765 537.8 451.765 536.776C451.765 535.763 451.903 534.936 452.181 534.296C452.458 533.645 452.842 533.165 453.333 532.856C453.823 532.547 454.378 532.392 454.997 532.392C455.381 532.392 455.733 532.435 456.053 532.52C456.373 532.605 456.655 532.739 456.901 532.92C457.146 533.091 457.354 533.304 457.525 533.56H457.621V529.432H459.573V541H457.957L457.797 539.88H457.685C457.418 540.317 457.055 540.648 456.597 540.872C456.149 541.085 455.653 541.192 455.109 541.192ZM455.717 539.512C456.165 539.512 456.527 539.411 456.805 539.208C457.082 539.005 457.285 538.712 457.413 538.328C457.551 537.944 457.621 537.475 457.621 536.92V536.712C457.621 536.296 457.583 535.923 457.509 535.592C457.434 535.261 457.317 534.984 457.157 534.76C457.007 534.536 456.81 534.365 456.565 534.248C456.33 534.131 456.047 534.072 455.717 534.072C455.237 534.072 454.853 534.168 454.565 534.36C454.287 534.541 454.085 534.829 453.957 535.224C453.839 535.608 453.781 536.099 453.781 536.696V536.92C453.781 537.507 453.839 537.992 453.957 538.376C454.085 538.76 454.287 539.048 454.565 539.24C454.853 539.421 455.237 539.512 455.717 539.512ZM465.253 541V534.184H464.037V532.584H465.253V531.512C465.253 531.139 465.311 530.787 465.429 530.456C465.557 530.115 465.775 529.837 466.085 529.624C466.394 529.411 466.826 529.304 467.381 529.304C467.541 529.304 467.701 529.315 467.861 529.336C468.031 529.357 468.191 529.389 468.341 529.432C468.49 529.464 468.618 529.501 468.725 529.544V530.904H467.924C467.69 530.904 467.509 530.968 467.381 531.096C467.263 531.213 467.205 531.389 467.205 531.624V532.584H468.725V534.184H467.205V541H465.253ZM473.425 541.192C472.507 541.192 471.739 541.037 471.121 540.728C470.502 540.408 470.038 539.923 469.729 539.272C469.419 538.621 469.265 537.795 469.265 536.792C469.265 535.779 469.419 534.952 469.729 534.312C470.038 533.661 470.502 533.181 471.121 532.872C471.739 532.552 472.507 532.392 473.425 532.392C474.353 532.392 475.121 532.552 475.729 532.872C476.347 533.181 476.811 533.661 477.121 534.312C477.43 534.952 477.585 535.779 477.585 536.792C477.585 537.795 477.43 538.621 477.121 539.272C476.811 539.923 476.347 540.408 475.729 540.728C475.121 541.037 474.353 541.192 473.425 541.192ZM473.425 539.592C473.937 539.592 474.347 539.496 474.657 539.304C474.977 539.101 475.206 538.803 475.345 538.408C475.494 538.003 475.569 537.501 475.569 536.904V536.68C475.569 536.083 475.494 535.587 475.345 535.192C475.206 534.787 474.977 534.488 474.657 534.296C474.347 534.093 473.937 533.992 473.425 533.992C472.913 533.992 472.497 534.093 472.177 534.296C471.867 534.488 471.638 534.787 471.489 535.192C471.35 535.587 471.281 536.083 471.281 536.68V536.904C471.281 537.501 471.35 538.003 471.489 538.408C471.638 538.803 471.867 539.101 472.177 539.304C472.497 539.496 472.913 539.592 473.425 539.592ZM479.243 541V532.584H480.875L481.035 533.912H481.147C481.254 533.645 481.382 533.4 481.531 533.176C481.691 532.941 481.894 532.755 482.139 532.616C482.384 532.467 482.683 532.392 483.035 532.392C483.206 532.392 483.36 532.408 483.499 532.44C483.648 532.472 483.76 532.504 483.835 532.536V534.376H483.243C482.912 534.376 482.619 534.424 482.363 534.52C482.107 534.605 481.888 534.744 481.707 534.936C481.536 535.128 481.408 535.368 481.323 535.656C481.238 535.944 481.195 536.28 481.195 536.664V541H479.243ZM490.155 541.192C489.632 541.192 489.221 541.091 488.923 540.888C488.624 540.675 488.411 540.408 488.283 540.088C488.165 539.757 488.107 539.421 488.107 539.08V534.184H487.099V532.584H488.155L488.507 530.232H490.059V532.584H491.515V534.184H490.059V538.888C490.059 539.112 490.117 539.288 490.235 539.416C490.352 539.533 490.528 539.592 490.763 539.592H491.515V540.936C491.408 540.979 491.275 541.016 491.115 541.048C490.965 541.091 490.805 541.123 490.635 541.144C490.464 541.176 490.304 541.192 490.155 541.192ZM492.962 541V529.432H494.914V533.544H495.026C495.207 533.32 495.421 533.123 495.666 532.952C495.911 532.781 496.189 532.648 496.498 532.552C496.818 532.445 497.17 532.392 497.554 532.392C498.087 532.392 498.557 532.488 498.962 532.68C499.378 532.872 499.703 533.181 499.938 533.608C500.173 534.035 500.29 534.605 500.29 535.32V541H498.322V535.672C498.322 535.373 498.285 535.128 498.21 534.936C498.146 534.733 498.045 534.573 497.906 534.456C497.778 534.328 497.618 534.237 497.426 534.184C497.234 534.131 497.021 534.104 496.786 534.104C496.434 534.104 496.114 534.189 495.826 534.36C495.549 534.531 495.325 534.765 495.154 535.064C494.994 535.363 494.914 535.709 494.914 536.104V541H492.962ZM505.922 541.192C505.026 541.192 504.279 541.037 503.682 540.728C503.084 540.408 502.636 539.923 502.338 539.272C502.039 538.621 501.89 537.795 501.89 536.792C501.89 535.779 502.039 534.952 502.338 534.312C502.636 533.661 503.084 533.181 503.682 532.872C504.279 532.552 505.026 532.392 505.922 532.392C506.732 532.392 507.41 532.547 507.954 532.856C508.508 533.155 508.924 533.619 509.202 534.248C509.479 534.877 509.618 535.693 509.618 536.696V537.272H503.89C503.911 537.795 503.991 538.237 504.13 538.6C504.268 538.952 504.482 539.219 504.77 539.4C505.068 539.571 505.458 539.656 505.938 539.656C506.183 539.656 506.412 539.624 506.626 539.56C506.839 539.496 507.026 539.4 507.186 539.272C507.346 539.133 507.468 538.963 507.554 538.76C507.65 538.557 507.698 538.323 507.698 538.056H509.618C509.618 538.589 509.522 539.053 509.33 539.448C509.148 539.843 508.887 540.168 508.546 540.424C508.215 540.68 507.826 540.872 507.378 541C506.93 541.128 506.444 541.192 505.922 541.192ZM503.922 535.896H507.586C507.586 535.544 507.543 535.245 507.458 535C507.383 534.755 507.271 534.552 507.122 534.392C506.983 534.232 506.812 534.12 506.61 534.056C506.407 533.981 506.178 533.944 505.922 533.944C505.506 533.944 505.154 534.013 504.866 534.152C504.588 534.291 504.375 534.504 504.226 534.792C504.076 535.08 503.975 535.448 503.922 535.896ZM515.998 541L513.486 532.584H515.502L516.67 537.16C516.734 537.395 516.787 537.629 516.83 537.864C516.872 538.088 516.91 538.28 516.942 538.44C516.974 538.6 516.995 538.696 517.006 538.728H517.102C517.144 538.536 517.187 538.328 517.23 538.104C517.272 537.88 517.31 537.677 517.342 537.496C517.384 537.304 517.411 537.176 517.422 537.112L518.51 532.584H520.606L521.742 537.128C521.784 537.277 521.822 537.453 521.854 537.656C521.896 537.848 521.939 538.04 521.982 538.232C522.024 538.424 522.056 538.589 522.078 538.728H522.174C522.195 538.6 522.222 538.445 522.253 538.264C522.296 538.083 522.339 537.896 522.382 537.704C522.424 537.512 522.462 537.336 522.494 537.176L523.646 532.584H525.518L523.022 541H520.958L519.998 536.984C519.955 536.781 519.902 536.552 519.838 536.296C519.784 536.04 519.731 535.784 519.678 535.528C519.635 535.272 519.598 535.053 519.566 534.872H519.47C519.47 534.947 519.454 535.08 519.422 535.272C519.39 535.464 519.342 535.704 519.278 535.992C519.224 536.28 519.15 536.611 519.054 536.984L518.062 541H515.998ZM530.219 541.192C529.323 541.192 528.576 541.037 527.979 540.728C527.381 540.408 526.933 539.923 526.635 539.272C526.336 538.621 526.187 537.795 526.187 536.792C526.187 535.779 526.336 534.952 526.635 534.312C526.933 533.661 527.381 533.181 527.979 532.872C528.576 532.552 529.323 532.392 530.219 532.392C531.029 532.392 531.707 532.547 532.251 532.856C532.805 533.155 533.221 533.619 533.499 534.248C533.776 534.877 533.915 535.693 533.915 536.696V537.272H528.187C528.208 537.795 528.288 538.237 528.427 538.6C528.565 538.952 528.779 539.219 529.067 539.4C529.365 539.571 529.755 539.656 530.235 539.656C530.48 539.656 530.709 539.624 530.923 539.56C531.136 539.496 531.323 539.4 531.483 539.272C531.643 539.133 531.765 538.963 531.851 538.76C531.947 538.557 531.995 538.323 531.995 538.056H533.915C533.915 538.589 533.819 539.053 533.627 539.448C533.445 539.843 533.184 540.168 532.843 540.424C532.512 540.68 532.123 540.872 531.675 541C531.227 541.128 530.741 541.192 530.219 541.192ZM528.219 535.896H531.883C531.883 535.544 531.84 535.245 531.755 535C531.68 534.755 531.568 534.552 531.419 534.392C531.28 534.232 531.109 534.12 530.907 534.056C530.704 533.981 530.475 533.944 530.219 533.944C529.803 533.944 529.451 534.013 529.163 534.152C528.885 534.291 528.672 534.504 528.523 534.792C528.373 535.08 528.272 535.448 528.219 535.896ZM540.035 541.192C539.491 541.192 538.995 541.085 538.547 540.872C538.099 540.648 537.737 540.317 537.459 539.88H537.347L537.187 541H535.571V529.432H537.523V533.56H537.619C537.79 533.304 537.998 533.091 538.243 532.92C538.489 532.739 538.771 532.605 539.091 532.52C539.411 532.435 539.763 532.392 540.147 532.392C540.777 532.392 541.331 532.547 541.811 532.856C542.302 533.165 542.686 533.645 542.963 534.296C543.241 534.936 543.379 535.763 543.379 536.776C543.379 537.8 543.241 538.637 542.963 539.288C542.697 539.939 542.313 540.419 541.811 540.728C541.321 541.037 540.729 541.192 540.035 541.192ZM539.427 539.512C539.907 539.512 540.286 539.421 540.563 539.24C540.851 539.048 541.054 538.76 541.171 538.376C541.299 537.992 541.363 537.507 541.363 536.92V536.696C541.363 536.099 541.299 535.608 541.171 535.224C541.054 534.829 540.851 534.541 540.563 534.36C540.286 534.168 539.907 534.072 539.427 534.072C539.097 534.072 538.809 534.131 538.563 534.248C538.329 534.365 538.131 534.536 537.971 534.76C537.822 534.984 537.71 535.261 537.635 535.592C537.561 535.923 537.523 536.296 537.523 536.712V536.92C537.523 537.475 537.587 537.944 537.715 538.328C537.854 538.712 538.062 539.005 538.339 539.208C538.627 539.411 538.99 539.512 539.427 539.512Z" fill="#263480"/>
<rect x="120" y="76" width="320" height="376" rx="8" fill="#F4F7F9"/>
<rect x="144" y="120" width="36" height="36" rx="18" fill="#E6ECF9"/>
<g clip-path="url(#clip1_515_12303)">
<path d="M167.85 140.4H162.9V137.25C162.9 137.002 162.697 136.8 162.45 136.8H156.15C155.902 136.8 155.7 137.002 155.7 137.25V144.45C155.7 144.697 155.902 144.9 156.15 144.9H167.85C168.097 144.9 168.3 144.697 168.3 144.45V140.85C168.3 140.602 168.097 140.4 167.85 140.4ZM161.55 143.55H157.05V141.75H161.55V143.55ZM161.55 139.95H157.05V138.15H161.55V139.95ZM166.95 143.55H162.9V141.75H166.95V143.55ZM169.816 133.596L162.74 130.649C162.262 130.452 161.736 130.449 161.26 130.649L154.184 133.596C153.464 133.894 153 134.592 153 135.371V144.45C153 144.697 153.202 144.9 153.45 144.9H153.9C154.147 144.9 154.35 144.697 154.35 144.45V135.371C154.35 135.137 154.488 134.929 154.702 134.842L161.781 131.895C161.924 131.836 162.079 131.836 162.222 131.895L169.298 134.842C169.512 134.932 169.65 135.14 169.65 135.371V144.45C169.65 144.697 169.852 144.9 170.1 144.9H170.55C170.797 144.9 171 144.697 171 144.45V135.371C171 134.592 170.536 133.894 169.816 133.596V133.596Z" fill="#263480"/>
</g>
<rect x="144" y="272" width="36" height="36" rx="18" fill="#E6ECF9"/>
<g clip-path="url(#clip2_515_12303)">
<path d="M162 280.812C166.259 280.812 169.714 281.992 169.714 283.438V284.75C169.714 286.196 166.259 287.375 162 287.375C157.741 287.375 154.286 286.196 154.286 284.75V283.438C154.286 281.992 157.741 280.812 162 280.812ZM169.714 286.944V288.688C169.714 290.133 166.259 291.312 162 291.312C157.741 291.312 154.286 290.133 154.286 288.688V286.944C155.943 288.134 158.977 288.688 162 288.688C165.023 288.688 168.057 288.134 169.714 286.944ZM169.714 290.882V292.625C169.714 294.071 166.259 295.25 162 295.25C157.741 295.25 154.286 294.071 154.286 292.625V290.882C155.943 292.071 158.977 292.625 162 292.625C165.023 292.625 168.057 292.071 169.714 290.882ZM169.714 294.819V296.562C169.714 298.008 166.259 299.188 162 299.188C157.741 299.188 154.286 298.008 154.286 296.562V294.819C155.943 296.009 158.977 296.562 162 296.562C165.023 296.562 168.057 296.009 169.714 294.819ZM162 279.5C158.86 279.5 153 280.271 153 283.438V296.562C153 299.735 158.87 300.5 162 300.5C165.14 300.5 171 299.729 171 296.562V283.438C171 280.265 165.13 279.5 162 279.5Z" fill="#263480"/>
</g>
<rect x="144" y="356" width="36" height="36" rx="18" fill="#E6ECF9"/>
<g clip-path="url(#clip3_515_12303)">
<path d="M169.071 365.938H167.143V363.957C167.143 363.705 166.927 363.5 166.661 363.5H166.339C166.073 363.5 165.857 363.705 165.857 363.957V365.938H158.143V363.957C158.143 363.705 157.927 363.5 157.661 363.5H157.339C157.073 363.5 156.857 363.705 156.857 363.957V365.938H154.929C153.863 365.938 153 366.756 153 367.766V381.172C153 382.182 153.863 383 154.929 383H169.071C170.137 383 171 382.182 171 381.172V367.766C171 366.756 170.137 365.938 169.071 365.938ZM154.929 367.156H169.071C169.426 367.156 169.714 367.43 169.714 367.766V369.594H154.286V367.766C154.286 367.43 154.574 367.156 154.929 367.156ZM169.071 381.781H154.929C154.574 381.781 154.286 381.508 154.286 381.172V370.812H169.714V381.172C169.714 381.508 169.426 381.781 169.071 381.781Z" fill="#263480"/>
</g>
<path d="M196.912 132V123.768H198.472V130.644H202.6V132H196.912ZM205.244 132.144C205.068 132.144 204.864 132.12 204.632 132.072C204.408 132.032 204.188 131.952 203.972 131.832C203.764 131.712 203.592 131.536 203.456 131.304C203.32 131.064 203.252 130.752 203.252 130.368C203.252 129.936 203.348 129.58 203.54 129.3C203.732 129.012 204 128.788 204.344 128.628C204.696 128.46 205.112 128.344 205.592 128.28C206.08 128.208 206.612 128.172 207.188 128.172V127.656C207.188 127.472 207.16 127.308 207.104 127.164C207.048 127.02 206.944 126.908 206.792 126.828C206.648 126.74 206.428 126.696 206.132 126.696C205.836 126.696 205.604 126.732 205.436 126.804C205.268 126.876 205.152 126.964 205.088 127.068C205.024 127.172 204.992 127.28 204.992 127.392V127.56H203.576C203.568 127.52 203.564 127.48 203.564 127.44C203.564 127.4 203.564 127.352 203.564 127.296C203.564 126.936 203.672 126.624 203.888 126.36C204.104 126.096 204.404 125.896 204.788 125.76C205.172 125.616 205.616 125.544 206.12 125.544C206.696 125.544 207.168 125.624 207.536 125.784C207.912 125.944 208.192 126.172 208.376 126.468C208.56 126.764 208.652 127.124 208.652 127.548V130.524C208.652 130.676 208.696 130.784 208.784 130.848C208.872 130.912 208.968 130.944 209.072 130.944H209.456V131.952C209.376 131.984 209.26 132.02 209.108 132.06C208.956 132.108 208.768 132.132 208.544 132.132C208.336 132.132 208.148 132.096 207.98 132.024C207.82 131.96 207.684 131.864 207.572 131.736C207.46 131.608 207.38 131.456 207.332 131.28H207.26C207.124 131.448 206.96 131.6 206.768 131.736C206.584 131.864 206.364 131.964 206.108 132.036C205.86 132.108 205.572 132.144 205.244 132.144ZM205.688 130.944C205.928 130.944 206.14 130.908 206.324 130.836C206.516 130.764 206.672 130.664 206.792 130.536C206.92 130.408 207.016 130.252 207.08 130.068C207.152 129.884 207.188 129.684 207.188 129.468V129.18C206.748 129.18 206.34 129.208 205.964 129.264C205.596 129.32 205.3 129.424 205.076 129.576C204.86 129.728 204.752 129.944 204.752 130.224C204.752 130.368 204.784 130.496 204.848 130.608C204.92 130.712 205.024 130.796 205.16 130.86C205.304 130.916 205.48 130.944 205.688 130.944ZM213.64 132.144C213.232 132.144 212.86 132.064 212.524 131.904C212.188 131.736 211.916 131.488 211.708 131.16H211.624L211.504 132H210.292V123.324H211.756V126.42H211.828C211.956 126.228 212.112 126.068 212.296 125.94C212.48 125.804 212.692 125.704 212.932 125.64C213.172 125.576 213.436 125.544 213.724 125.544C214.196 125.544 214.612 125.66 214.972 125.892C215.34 126.124 215.628 126.484 215.836 126.972C216.044 127.452 216.148 128.072 216.148 128.832C216.148 129.6 216.044 130.228 215.836 130.716C215.636 131.204 215.348 131.564 214.972 131.796C214.604 132.028 214.16 132.144 213.64 132.144ZM213.184 130.884C213.544 130.884 213.828 130.816 214.036 130.68C214.252 130.536 214.404 130.32 214.492 130.032C214.588 129.744 214.636 129.38 214.636 128.94V128.772C214.636 128.324 214.588 127.956 214.492 127.668C214.404 127.372 214.252 127.156 214.036 127.02C213.828 126.876 213.544 126.804 213.184 126.804C212.936 126.804 212.72 126.848 212.536 126.936C212.36 127.024 212.212 127.152 212.092 127.32C211.98 127.488 211.896 127.696 211.84 127.944C211.784 128.192 211.756 128.472 211.756 128.784V128.94C211.756 129.356 211.804 129.708 211.9 129.996C212.004 130.284 212.16 130.504 212.368 130.656C212.584 130.808 212.856 130.884 213.184 130.884ZM220.105 132.144C219.433 132.144 218.873 132.028 218.425 131.796C217.977 131.556 217.641 131.192 217.417 130.704C217.193 130.216 217.081 129.596 217.081 128.844C217.081 128.084 217.193 127.464 217.417 126.984C217.641 126.496 217.977 126.136 218.425 125.904C218.873 125.664 219.433 125.544 220.105 125.544C220.713 125.544 221.221 125.66 221.629 125.892C222.045 126.116 222.357 126.464 222.565 126.936C222.773 127.408 222.877 128.02 222.877 128.772V129.204H218.581C218.597 129.596 218.657 129.928 218.761 130.2C218.865 130.464 219.025 130.664 219.241 130.8C219.465 130.928 219.757 130.992 220.117 130.992C220.301 130.992 220.473 130.968 220.633 130.92C220.793 130.872 220.933 130.8 221.053 130.704C221.173 130.6 221.265 130.472 221.329 130.32C221.401 130.168 221.437 129.992 221.437 129.792H222.877C222.877 130.192 222.805 130.54 222.661 130.836C222.525 131.132 222.329 131.376 222.073 131.568C221.825 131.76 221.533 131.904 221.197 132C220.861 132.096 220.497 132.144 220.105 132.144ZM218.605 128.172H221.353C221.353 127.908 221.321 127.684 221.257 127.5C221.201 127.316 221.117 127.164 221.005 127.044C220.901 126.924 220.773 126.84 220.621 126.792C220.469 126.736 220.297 126.708 220.105 126.708C219.793 126.708 219.529 126.76 219.313 126.864C219.105 126.968 218.945 127.128 218.833 127.344C218.721 127.56 218.645 127.836 218.605 128.172ZM224.12 132V123.324H225.584V132H224.12Z" fill="#263480"/>
<path d="M230.758 128.052L230.89 126.456L229.642 127.368L229.186 126.576L230.566 125.904L229.186 125.22L229.642 124.44L230.89 125.352L230.758 123.756H231.658L231.526 125.352L232.774 124.44L233.23 125.22L231.838 125.904L233.23 126.576L232.774 127.368L231.526 126.456L231.658 128.052H230.758Z" fill="#E35672"/>
<rect x="196.5" y="140.5" width="211" height="31" rx="7.5" fill="#F9F9F9" stroke="#E6ECF9"/>
<path d="M196.912 200V191.768H198.472V198.644H202.6V200H196.912ZM205.244 200.144C205.068 200.144 204.864 200.12 204.632 200.072C204.408 200.032 204.188 199.952 203.972 199.832C203.764 199.712 203.592 199.536 203.456 199.304C203.32 199.064 203.252 198.752 203.252 198.368C203.252 197.936 203.348 197.58 203.54 197.3C203.732 197.012 204 196.788 204.344 196.628C204.696 196.46 205.112 196.344 205.592 196.28C206.08 196.208 206.612 196.172 207.188 196.172V195.656C207.188 195.472 207.16 195.308 207.104 195.164C207.048 195.02 206.944 194.908 206.792 194.828C206.648 194.74 206.428 194.696 206.132 194.696C205.836 194.696 205.604 194.732 205.436 194.804C205.268 194.876 205.152 194.964 205.088 195.068C205.024 195.172 204.992 195.28 204.992 195.392V195.56H203.576C203.568 195.52 203.564 195.48 203.564 195.44C203.564 195.4 203.564 195.352 203.564 195.296C203.564 194.936 203.672 194.624 203.888 194.36C204.104 194.096 204.404 193.896 204.788 193.76C205.172 193.616 205.616 193.544 206.12 193.544C206.696 193.544 207.168 193.624 207.536 193.784C207.912 193.944 208.192 194.172 208.376 194.468C208.56 194.764 208.652 195.124 208.652 195.548V198.524C208.652 198.676 208.696 198.784 208.784 198.848C208.872 198.912 208.968 198.944 209.072 198.944H209.456V199.952C209.376 199.984 209.26 200.02 209.108 200.06C208.956 200.108 208.768 200.132 208.544 200.132C208.336 200.132 208.148 200.096 207.98 200.024C207.82 199.96 207.684 199.864 207.572 199.736C207.46 199.608 207.38 199.456 207.332 199.28H207.26C207.124 199.448 206.96 199.6 206.768 199.736C206.584 199.864 206.364 199.964 206.108 200.036C205.86 200.108 205.572 200.144 205.244 200.144ZM205.688 198.944C205.928 198.944 206.14 198.908 206.324 198.836C206.516 198.764 206.672 198.664 206.792 198.536C206.92 198.408 207.016 198.252 207.08 198.068C207.152 197.884 207.188 197.684 207.188 197.468V197.18C206.748 197.18 206.34 197.208 205.964 197.264C205.596 197.32 205.3 197.424 205.076 197.576C204.86 197.728 204.752 197.944 204.752 198.224C204.752 198.368 204.784 198.496 204.848 198.608C204.92 198.712 205.024 198.796 205.16 198.86C205.304 198.916 205.48 198.944 205.688 198.944ZM213.64 200.144C213.232 200.144 212.86 200.064 212.524 199.904C212.188 199.736 211.916 199.488 211.708 199.16H211.624L211.504 200H210.292V191.324H211.756V194.42H211.828C211.956 194.228 212.112 194.068 212.296 193.94C212.48 193.804 212.692 193.704 212.932 193.64C213.172 193.576 213.436 193.544 213.724 193.544C214.196 193.544 214.612 193.66 214.972 193.892C215.34 194.124 215.628 194.484 215.836 194.972C216.044 195.452 216.148 196.072 216.148 196.832C216.148 197.6 216.044 198.228 215.836 198.716C215.636 199.204 215.348 199.564 214.972 199.796C214.604 200.028 214.16 200.144 213.64 200.144ZM213.184 198.884C213.544 198.884 213.828 198.816 214.036 198.68C214.252 198.536 214.404 198.32 214.492 198.032C214.588 197.744 214.636 197.38 214.636 196.94V196.772C214.636 196.324 214.588 195.956 214.492 195.668C214.404 195.372 214.252 195.156 214.036 195.02C213.828 194.876 213.544 194.804 213.184 194.804C212.936 194.804 212.72 194.848 212.536 194.936C212.36 195.024 212.212 195.152 212.092 195.32C211.98 195.488 211.896 195.696 211.84 195.944C211.784 196.192 211.756 196.472 211.756 196.784V196.94C211.756 197.356 211.804 197.708 211.9 197.996C212.004 198.284 212.16 198.504 212.368 198.656C212.584 198.808 212.856 198.884 213.184 198.884ZM220.105 200.144C219.433 200.144 218.873 200.028 218.425 199.796C217.977 199.556 217.641 199.192 217.417 198.704C217.193 198.216 217.081 197.596 217.081 196.844C217.081 196.084 217.193 195.464 217.417 194.984C217.641 194.496 217.977 194.136 218.425 193.904C218.873 193.664 219.433 193.544 220.105 193.544C220.713 193.544 221.221 193.66 221.629 193.892C222.045 194.116 222.357 194.464 222.565 194.936C222.773 195.408 222.877 196.02 222.877 196.772V197.204H218.581C218.597 197.596 218.657 197.928 218.761 198.2C218.865 198.464 219.025 198.664 219.241 198.8C219.465 198.928 219.757 198.992 220.117 198.992C220.301 198.992 220.473 198.968 220.633 198.92C220.793 198.872 220.933 198.8 221.053 198.704C221.173 198.6 221.265 198.472 221.329 198.32C221.401 198.168 221.437 197.992 221.437 197.792H222.877C222.877 198.192 222.805 198.54 222.661 198.836C222.525 199.132 222.329 199.376 222.073 199.568C221.825 199.76 221.533 199.904 221.197 200C220.861 200.096 220.497 200.144 220.105 200.144ZM218.605 196.172H221.353C221.353 195.908 221.321 195.684 221.257 195.5C221.201 195.316 221.117 195.164 221.005 195.044C220.901 194.924 220.773 194.84 220.621 194.792C220.469 194.736 220.297 194.708 220.105 194.708C219.793 194.708 219.529 194.76 219.313 194.864C219.105 194.968 218.945 195.128 218.833 195.344C218.721 195.56 218.645 195.836 218.605 196.172ZM224.12 200V191.324H225.584V200H224.12Z" fill="#263480"/>
<path d="M230.758 196.052L230.89 194.456L229.642 195.368L229.186 194.576L230.566 193.904L229.186 193.22L229.642 192.44L230.89 193.352L230.758 191.756H231.658L231.526 193.352L232.774 192.44L233.23 193.22L231.838 193.904L233.23 194.576L232.774 195.368L231.526 194.456L231.658 196.052H230.758Z" fill="#E35672"/>
<rect x="196.5" y="208.5" width="211" height="31" rx="7.5" fill="#F9F9F9" stroke="#E6ECF9"/>
<path d="M196.912 284V275.768H198.472V282.644H202.6V284H196.912ZM205.244 284.144C205.068 284.144 204.864 284.12 204.632 284.072C204.408 284.032 204.188 283.952 203.972 283.832C203.764 283.712 203.592 283.536 203.456 283.304C203.32 283.064 203.252 282.752 203.252 282.368C203.252 281.936 203.348 281.58 203.54 281.3C203.732 281.012 204 280.788 204.344 280.628C204.696 280.46 205.112 280.344 205.592 280.28C206.08 280.208 206.612 280.172 207.188 280.172V279.656C207.188 279.472 207.16 279.308 207.104 279.164C207.048 279.02 206.944 278.908 206.792 278.828C206.648 278.74 206.428 278.696 206.132 278.696C205.836 278.696 205.604 278.732 205.436 278.804C205.268 278.876 205.152 278.964 205.088 279.068C205.024 279.172 204.992 279.28 204.992 279.392V279.56H203.576C203.568 279.52 203.564 279.48 203.564 279.44C203.564 279.4 203.564 279.352 203.564 279.296C203.564 278.936 203.672 278.624 203.888 278.36C204.104 278.096 204.404 277.896 204.788 277.76C205.172 277.616 205.616 277.544 206.12 277.544C206.696 277.544 207.168 277.624 207.536 277.784C207.912 277.944 208.192 278.172 208.376 278.468C208.56 278.764 208.652 279.124 208.652 279.548V282.524C208.652 282.676 208.696 282.784 208.784 282.848C208.872 282.912 208.968 282.944 209.072 282.944H209.456V283.952C209.376 283.984 209.26 284.02 209.108 284.06C208.956 284.108 208.768 284.132 208.544 284.132C208.336 284.132 208.148 284.096 207.98 284.024C207.82 283.96 207.684 283.864 207.572 283.736C207.46 283.608 207.38 283.456 207.332 283.28H207.26C207.124 283.448 206.96 283.6 206.768 283.736C206.584 283.864 206.364 283.964 206.108 284.036C205.86 284.108 205.572 284.144 205.244 284.144ZM205.688 282.944C205.928 282.944 206.14 282.908 206.324 282.836C206.516 282.764 206.672 282.664 206.792 282.536C206.92 282.408 207.016 282.252 207.08 282.068C207.152 281.884 207.188 281.684 207.188 281.468V281.18C206.748 281.18 206.34 281.208 205.964 281.264C205.596 281.32 205.3 281.424 205.076 281.576C204.86 281.728 204.752 281.944 204.752 282.224C204.752 282.368 204.784 282.496 204.848 282.608C204.92 282.712 205.024 282.796 205.16 282.86C205.304 282.916 205.48 282.944 205.688 282.944ZM213.64 284.144C213.232 284.144 212.86 284.064 212.524 283.904C212.188 283.736 211.916 283.488 211.708 283.16H211.624L211.504 284H210.292V275.324H211.756V278.42H211.828C211.956 278.228 212.112 278.068 212.296 277.94C212.48 277.804 212.692 277.704 212.932 277.64C213.172 277.576 213.436 277.544 213.724 277.544C214.196 277.544 214.612 277.66 214.972 277.892C215.34 278.124 215.628 278.484 215.836 278.972C216.044 279.452 216.148 280.072 216.148 280.832C216.148 281.6 216.044 282.228 215.836 282.716C215.636 283.204 215.348 283.564 214.972 283.796C214.604 284.028 214.16 284.144 213.64 284.144ZM213.184 282.884C213.544 282.884 213.828 282.816 214.036 282.68C214.252 282.536 214.404 282.32 214.492 282.032C214.588 281.744 214.636 281.38 214.636 280.94V280.772C214.636 280.324 214.588 279.956 214.492 279.668C214.404 279.372 214.252 279.156 214.036 279.02C213.828 278.876 213.544 278.804 213.184 278.804C212.936 278.804 212.72 278.848 212.536 278.936C212.36 279.024 212.212 279.152 212.092 279.32C211.98 279.488 211.896 279.696 211.84 279.944C211.784 280.192 211.756 280.472 211.756 280.784V280.94C211.756 281.356 211.804 281.708 211.9 281.996C212.004 282.284 212.16 282.504 212.368 282.656C212.584 282.808 212.856 282.884 213.184 282.884ZM220.105 284.144C219.433 284.144 218.873 284.028 218.425 283.796C217.977 283.556 217.641 283.192 217.417 282.704C217.193 282.216 217.081 281.596 217.081 280.844C217.081 280.084 217.193 279.464 217.417 278.984C217.641 278.496 217.977 278.136 218.425 277.904C218.873 277.664 219.433 277.544 220.105 277.544C220.713 277.544 221.221 277.66 221.629 277.892C222.045 278.116 222.357 278.464 222.565 278.936C222.773 279.408 222.877 280.02 222.877 280.772V281.204H218.581C218.597 281.596 218.657 281.928 218.761 282.2C218.865 282.464 219.025 282.664 219.241 282.8C219.465 282.928 219.757 282.992 220.117 282.992C220.301 282.992 220.473 282.968 220.633 282.92C220.793 282.872 220.933 282.8 221.053 282.704C221.173 282.6 221.265 282.472 221.329 282.32C221.401 282.168 221.437 281.992 221.437 281.792H222.877C222.877 282.192 222.805 282.54 222.661 282.836C222.525 283.132 222.329 283.376 222.073 283.568C221.825 283.76 221.533 283.904 221.197 284C220.861 284.096 220.497 284.144 220.105 284.144ZM218.605 280.172H221.353C221.353 279.908 221.321 279.684 221.257 279.5C221.201 279.316 221.117 279.164 221.005 279.044C220.901 278.924 220.773 278.84 220.621 278.792C220.469 278.736 220.297 278.708 220.105 278.708C219.793 278.708 219.529 278.76 219.313 278.864C219.105 278.968 218.945 279.128 218.833 279.344C218.721 279.56 218.645 279.836 218.605 280.172ZM224.12 284V275.324H225.584V284H224.12Z" fill="#263480"/>
<path d="M230.758 280.052L230.89 278.456L229.642 279.368L229.186 278.576L230.566 277.904L229.186 277.22L229.642 276.44L230.89 277.352L230.758 275.756H231.658L231.526 277.352L232.774 276.44L233.23 277.22L231.838 277.904L233.23 278.576L232.774 279.368L231.526 278.456L231.658 280.052H230.758Z" fill="#E35672"/>
<rect x="196.5" y="292.5" width="211" height="31" rx="7.5" fill="#F9F9F9" stroke="#E6ECF9"/>
<path d="M196.912 368V359.768H198.472V366.644H202.6V368H196.912ZM205.244 368.144C205.068 368.144 204.864 368.12 204.632 368.072C204.408 368.032 204.188 367.952 203.972 367.832C203.764 367.712 203.592 367.536 203.456 367.304C203.32 367.064 203.252 366.752 203.252 366.368C203.252 365.936 203.348 365.58 203.54 365.3C203.732 365.012 204 364.788 204.344 364.628C204.696 364.46 205.112 364.344 205.592 364.28C206.08 364.208 206.612 364.172 207.188 364.172V363.656C207.188 363.472 207.16 363.308 207.104 363.164C207.048 363.02 206.944 362.908 206.792 362.828C206.648 362.74 206.428 362.696 206.132 362.696C205.836 362.696 205.604 362.732 205.436 362.804C205.268 362.876 205.152 362.964 205.088 363.068C205.024 363.172 204.992 363.28 204.992 363.392V363.56H203.576C203.568 363.52 203.564 363.48 203.564 363.44C203.564 363.4 203.564 363.352 203.564 363.296C203.564 362.936 203.672 362.624 203.888 362.36C204.104 362.096 204.404 361.896 204.788 361.76C205.172 361.616 205.616 361.544 206.12 361.544C206.696 361.544 207.168 361.624 207.536 361.784C207.912 361.944 208.192 362.172 208.376 362.468C208.56 362.764 208.652 363.124 208.652 363.548V366.524C208.652 366.676 208.696 366.784 208.784 366.848C208.872 366.912 208.968 366.944 209.072 366.944H209.456V367.952C209.376 367.984 209.26 368.02 209.108 368.06C208.956 368.108 208.768 368.132 208.544 368.132C208.336 368.132 208.148 368.096 207.98 368.024C207.82 367.96 207.684 367.864 207.572 367.736C207.46 367.608 207.38 367.456 207.332 367.28H207.26C207.124 367.448 206.96 367.6 206.768 367.736C206.584 367.864 206.364 367.964 206.108 368.036C205.86 368.108 205.572 368.144 205.244 368.144ZM205.688 366.944C205.928 366.944 206.14 366.908 206.324 366.836C206.516 366.764 206.672 366.664 206.792 366.536C206.92 366.408 207.016 366.252 207.08 366.068C207.152 365.884 207.188 365.684 207.188 365.468V365.18C206.748 365.18 206.34 365.208 205.964 365.264C205.596 365.32 205.3 365.424 205.076 365.576C204.86 365.728 204.752 365.944 204.752 366.224C204.752 366.368 204.784 366.496 204.848 366.608C204.92 366.712 205.024 366.796 205.16 366.86C205.304 366.916 205.48 366.944 205.688 366.944ZM213.64 368.144C213.232 368.144 212.86 368.064 212.524 367.904C212.188 367.736 211.916 367.488 211.708 367.16H211.624L211.504 368H210.292V359.324H211.756V362.42H211.828C211.956 362.228 212.112 362.068 212.296 361.94C212.48 361.804 212.692 361.704 212.932 361.64C213.172 361.576 213.436 361.544 213.724 361.544C214.196 361.544 214.612 361.66 214.972 361.892C215.34 362.124 215.628 362.484 215.836 362.972C216.044 363.452 216.148 364.072 216.148 364.832C216.148 365.6 216.044 366.228 215.836 366.716C215.636 367.204 215.348 367.564 214.972 367.796C214.604 368.028 214.16 368.144 213.64 368.144ZM213.184 366.884C213.544 366.884 213.828 366.816 214.036 366.68C214.252 366.536 214.404 366.32 214.492 366.032C214.588 365.744 214.636 365.38 214.636 364.94V364.772C214.636 364.324 214.588 363.956 214.492 363.668C214.404 363.372 214.252 363.156 214.036 363.02C213.828 362.876 213.544 362.804 213.184 362.804C212.936 362.804 212.72 362.848 212.536 362.936C212.36 363.024 212.212 363.152 212.092 363.32C211.98 363.488 211.896 363.696 211.84 363.944C211.784 364.192 211.756 364.472 211.756 364.784V364.94C211.756 365.356 211.804 365.708 211.9 365.996C212.004 366.284 212.16 366.504 212.368 366.656C212.584 366.808 212.856 366.884 213.184 366.884ZM220.105 368.144C219.433 368.144 218.873 368.028 218.425 367.796C217.977 367.556 217.641 367.192 217.417 366.704C217.193 366.216 217.081 365.596 217.081 364.844C217.081 364.084 217.193 363.464 217.417 362.984C217.641 362.496 217.977 362.136 218.425 361.904C218.873 361.664 219.433 361.544 220.105 361.544C220.713 361.544 221.221 361.66 221.629 361.892C222.045 362.116 222.357 362.464 222.565 362.936C222.773 363.408 222.877 364.02 222.877 364.772V365.204H218.581C218.597 365.596 218.657 365.928 218.761 366.2C218.865 366.464 219.025 366.664 219.241 366.8C219.465 366.928 219.757 366.992 220.117 366.992C220.301 366.992 220.473 366.968 220.633 366.92C220.793 366.872 220.933 366.8 221.053 366.704C221.173 366.6 221.265 366.472 221.329 366.32C221.401 366.168 221.437 365.992 221.437 365.792H222.877C222.877 366.192 222.805 366.54 222.661 366.836C222.525 367.132 222.329 367.376 222.073 367.568C221.825 367.76 221.533 367.904 221.197 368C220.861 368.096 220.497 368.144 220.105 368.144ZM218.605 364.172H221.353C221.353 363.908 221.321 363.684 221.257 363.5C221.201 363.316 221.117 363.164 221.005 363.044C220.901 362.924 220.773 362.84 220.621 362.792C220.469 362.736 220.297 362.708 220.105 362.708C219.793 362.708 219.529 362.76 219.313 362.864C219.105 362.968 218.945 363.128 218.833 363.344C218.721 363.56 218.645 363.836 218.605 364.172ZM224.12 368V359.324H225.584V368H224.12Z" fill="#263480"/>
<path d="M230.758 364.052L230.89 362.456L229.642 363.368L229.186 362.576L230.566 361.904L229.186 361.22L229.642 360.44L230.89 361.352L230.758 359.756H231.658L231.526 361.352L232.774 360.44L233.23 361.22L231.838 361.904L233.23 362.576L232.774 363.368L231.526 362.456L231.658 364.052H230.758Z" fill="#E35672"/>
<rect x="196.5" y="376.5" width="211" height="31" rx="7.5" fill="#F9F9F9" stroke="#E6ECF9"/>
<rect x="162" y="164" width="1" height="100" fill="#E6ECF9"/>
<rect width="1" height="32" transform="matrix(-1 0 0 1 163 316)" fill="#E6ECF9"/>
</g>
<rect x="0.5" y="0.5" width="559" height="559" stroke="#2A1E4A"/>
<defs>
<filter id="filter0_f_515_12303" x="189.352" y="-151.92" width="613.441" height="610.274" filterUnits="userSpaceOnUse" color-interpolation-filters="sRGB">
<feFlood flood-opacity="0" result="BackgroundImageFix"/>
<feBlend mode="normal" in="SourceGraphic" in2="BackgroundImageFix" result="shape"/>
<feGaussianBlur stdDeviation="50" result="effect1_foregroundBlur_515_12303"/>
</filter>
<filter id="filter1_f_515_12303" x="-509.586" y="-578.136" width="1034" height="1032" filterUnits="userSpaceOnUse" color-interpolation-filters="sRGB">
<feFlood flood-opacity="0" result="BackgroundImageFix"/>
<feBlend mode="normal" in="SourceGraphic" in2="BackgroundImageFix" result="shape"/>
<feGaussianBlur stdDeviation="50" result="effect1_foregroundBlur_515_12303"/>
</filter>
<filter id="filter2_f_515_12303" x="-28.7129" y="70.7792" width="776.682" height="776.812" filterUnits="userSpaceOnUse" color-interpolation-filters="sRGB">
<feFlood flood-opacity="0" result="BackgroundImageFix"/>
<feBlend mode="normal" in="SourceGraphic" in2="BackgroundImageFix" result="shape"/>
<feGaussianBlur stdDeviation="60" result="effect1_foregroundBlur_515_12303"/>
</filter>
<filter id="filter3_f_515_12303" x="-167" y="-41.4807" width="650" height="674" filterUnits="userSpaceOnUse" color-interpolation-filters="sRGB">
<feFlood flood-opacity="0" result="BackgroundImageFix"/>
<feBlend mode="normal" in="SourceGraphic" in2="BackgroundImageFix" result="shape"/>
<feGaussianBlur stdDeviation="60" result="effect1_foregroundBlur_515_12303"/>
</filter>
<clipPath id="clip0_515_12303">
<rect width="560" height="560" fill="white"/>
</clipPath>
<clipPath id="clip1_515_12303">
<rect width="18" height="14.4" fill="white" transform="translate(153 130.5)"/>
</clipPath>
<clipPath id="clip2_515_12303">
<rect width="18" height="21" fill="white" transform="translate(153 279.5)"/>
</clipPath>
<clipPath id="clip3_515_12303">
<rect width="18" height="19.5" fill="white" transform="translate(153 363.5)"/>
</clipPath>
</defs>
</svg>
