<svg width="32" height="32" viewBox="0 0 32 32" fill="none" xmlns="http://www.w3.org/2000/svg">
<rect width="32" height="32" rx="16" fill="#4C6EA0"/>
<path d="M12.4688 18.0938C13.6979 17.5938 14.875 17.3438 16 17.3438C17.125 17.3438 18.2917 17.5938 19.5 18.0938C20.7292 18.5729 21.3438 19.2083 21.3438 20V21.3438H10.6562V20C10.6562 19.2083 11.2604 18.5729 12.4688 18.0938ZM17.875 15.2188C17.3542 15.7396 16.7292 16 16 16C15.2708 16 14.6458 15.7396 14.125 15.2188C13.6042 14.6979 13.3438 14.0729 13.3438 13.3438C13.3438 12.6146 13.6042 11.9896 14.125 11.4688C14.6458 10.9271 15.2708 10.6562 16 10.6562C16.7292 10.6562 17.3542 10.9271 17.875 11.4688C18.3958 11.9896 18.6562 12.6146 18.6562 13.3438C18.6562 14.0729 18.3958 14.6979 17.875 15.2188Z" fill="white"/>
</svg>
