<svg width="288" height="288" viewBox="0 0 288 288" fill="none" xmlns="http://www.w3.org/2000/svg">
<path fill-rule="evenodd" clip-rule="evenodd" d="M287.53 125.902V109.15L287.901 108.997L287.53 108.105V91.2555C287.674 91.1743 287.818 91.093 287.962 91.0115L287.53 90.2491V73.343C287.687 73.2377 287.843 73.1322 288 73.0265L287.53 72.3319V55.3566C287.681 55.2632 287.832 55.1696 287.982 55.0759L287.53 54.3502V37.3238C287.66 37.2652 287.789 37.2065 287.918 37.1476L287.53 36.2962V19.286L287.803 19.2274L287.568 18.1299L287.53 18.1379V0.312202L269.319 0.312207C268.77 0.194308 268.77 0.196172 268.77 0.196172L268.765 0.221434L268.748 0.300776L268.745 0.312202L251.361 0.312204C250.851 0.0781389 250.85 0.0801555 250.85 0.0801555L250.847 0.0854428L250.838 0.105804L250.802 0.185495L250.745 0.312202L233.398 0.312203C232.923 0.0138898 232.922 0.0159471 232.922 0.0159471L232.918 0.0212755L232.906 0.04172L232.856 0.121583C232.827 0.169366 232.787 0.232962 232.739 0.312202L215.436 0.312204C214.971 -0.00206509 214.97 3.47655e-07 214.97 3.47655e-07L214.952 0.0258745L214.899 0.106049C214.865 0.156957 214.82 0.225742 214.763 0.312202L197.475 0.312204C196.986 0.0355838 196.985 0.0376368 196.985 0.0376368L196.971 0.0634724L196.926 0.143592C196.902 0.186891 196.87 0.243136 196.832 0.312202L179.519 0.312201C179.001 0.0981906 179 0.100197 179 0.100197L178.989 0.125965L178.956 0.206165L178.914 0.312202L161.555 0.312204C161.005 0.198416 161.005 0.200272 161.005 0.200272L161 0.225513L160.984 0.304827L160.982 0.312202H127.016L126.998 0.225513L126.993 0.200272C126.993 0.200272 126.992 0.198416 126.443 0.312204L109.084 0.312202L109.041 0.206165L109.009 0.125965L108.998 0.100197C108.998 0.100197 108.997 0.0981906 108.478 0.312201L91.1655 0.312202C91.1274 0.243136 91.0962 0.186891 91.072 0.143592L91.0272 0.0634724L91.0157 0.0429736L91.0126 0.0376368C91.0126 0.0376368 91.0115 0.0355838 90.5231 0.312204L73.2351 0.312202C73.1783 0.225742 73.1327 0.156957 73.0988 0.106049L73.0453 0.0258745L73.0315 0.00534971L73.0279 3.47655e-07C73.0279 3.47655e-07 73.0265 -0.00206509 72.5615 0.312204L55.2588 0.312202C55.2104 0.232962 55.1712 0.169366 55.1417 0.121583L55.0922 0.04172L55.0795 0.0212755L55.0762 0.0159471C55.0762 0.0159471 55.0749 0.0138898 54.5994 0.312203L37.2527 0.312202L37.1957 0.185495L37.1596 0.105804L37.1503 0.0854428L37.1479 0.0801555C37.1479 0.0801555 37.147 0.0781389 36.6368 0.312204L19.2525 0.312202L19.2332 0.221434L19.2278 0.196172C19.2278 0.196172 19.2274 0.194308 18.6787 0.312202H0.157084V36.9755C0.0786501 37.1472 0.080168 37.1479 0.080168 37.1479L0.0854552 37.1503L0.105816 37.1596L0.157084 37.1828V54.8469C0.0142484 55.0751 0.0159515 55.0761 0.0159515 55.0761L0.0212799 55.0795L0.0417244 55.0922L0.121587 55.1417L0.157084 55.1636V72.7912C-0.00172229 73.0268 1.22175e-05 73.0279 1.22175e-05 73.0279L0.00536158 73.0315L0.0258864 73.0453L0.106061 73.0988L0.157084 73.1327V90.7973C0.0359968 91.0117 0.0376566 91.0126 0.0376566 91.0126L0.0429933 91.0156L0.0634922 91.0272L0.143612 91.072L0.157084 91.0795V108.855C0.0987891 108.997 0.100217 108.998 0.100217 108.998L0.125985 109.009L0.157084 109.021V178.976L0.125973 178.989L0.100204 179C0.100204 179 0.0987761 179 0.157084 179.143V196.918L0.1436 196.926L0.0634801 196.971L0.0376446 196.985C0.0376446 196.985 0.0359847 196.986 0.157084 197.2V214.865L0.106049 214.899L0.025875 214.952L7.92593e-07 214.97C7.92593e-07 214.97 -0.00173375 214.971 0.157084 215.207V232.834L0.121606 232.856L0.0417431 232.906L0.0212986 232.918L0.0159702 232.922C0.0159702 232.922 0.0142672 232.923 0.157084 233.151V250.815L0.105819 250.838L0.0854578 250.847L0.0801706 250.85C0.0801706 250.85 0.0786527 250.851 0.157084 251.022V287.686H18.6786L19.2274 287.803L19.2527 287.686H36.6369L37.1477 287.918L37.2534 287.686H54.5994L55.0759 287.982L55.2603 287.686H72.5615L73.0265 288L73.2386 287.686H90.523L91.0115 287.962L91.168 287.686H108.478L108.997 287.901L109.086 287.686H126.443L126.992 287.799L127.016 287.686H160.982L161.005 287.799L161.555 287.686H178.912L179.001 287.901L179.519 287.686H196.83L196.986 287.962L197.475 287.686H214.759L214.971 288L215.436 287.686H232.737L232.922 287.982L233.398 287.686H250.744L250.85 287.918L251.361 287.686H268.745L268.77 287.803L269.319 287.686H287.53V269.86L287.568 269.868L287.803 268.77L287.53 268.712V251.702L287.918 250.85L287.53 250.674V233.648L287.982 232.922C287.832 232.828 287.681 232.735 287.53 232.641V215.666L288 214.971L287.53 214.655V197.749L287.962 196.986C287.818 196.905 287.674 196.823 287.53 196.742V179.893L287.901 179.001L287.53 178.847V162.096L287.572 162.105L287.799 161.005L287.53 160.95V144.154H287.686V143.031H287.53V127.048C287.62 127.029 287.71 127.011 287.799 126.992L287.572 125.893C287.558 125.896 287.544 125.899 287.53 125.902ZM72.6264 1.43475H55.9313C55.976 1.51045 56.0222 1.58911 56.0701 1.67072C56.7089 2.75924 57.6328 4.3725 58.776 6.47583C61.0623 10.6824 64.226 16.8496 67.7404 24.7001C68.2092 25.7473 68.6843 26.8245 69.1644 27.931C75.0626 28.5004 81.2611 29.0363 87.7279 29.5179C87.046 28.0457 86.3726 26.6234 85.7109 25.2523C81.9251 17.4094 78.5186 11.2487 76.0598 7.05054C74.8305 4.95152 73.8381 3.34327 73.1539 2.26087C72.9501 1.93856 72.7737 1.66288 72.6264 1.43475ZM88.2647 30.6834C81.7905 30.2059 75.5823 29.6737 69.6719 29.1075C73.3091 37.5868 77.2044 47.7124 80.825 59.2036C83.8173 59.7295 86.8736 60.2325 89.9905 60.7079C93.466 61.2381 97.0166 61.7339 100.638 62.1888C96.6617 50.1599 92.3275 39.5545 88.2647 30.6834ZM68.397 28.9844C72.0316 37.4113 75.9389 47.5058 79.5778 58.9825C70.6606 57.3873 62.3232 55.5935 54.6591 53.7302C52.1236 43.3756 49.4672 34.2633 47.0118 26.6253C53.5808 27.4369 60.7329 28.2385 68.397 28.9844ZM79.9583 60.1905C71.0179 58.6043 62.6535 56.8171 54.9576 54.9576C56.8172 62.6534 58.6043 71.0178 60.1905 79.9582C68.4907 82.5542 77.4967 85.0024 87.1033 87.1033C85.0024 77.4967 82.5542 68.4907 79.9583 60.1905ZM87.3645 88.309C77.7494 86.2229 68.7297 83.7882 60.4093 81.2023C60.9004 84.0201 61.3712 86.894 61.8177 89.8213C62.375 93.4745 62.8945 97.2109 63.3685 101.025C71.6926 103.739 80.6833 106.274 90.2397 108.427C90.4944 108.484 90.7494 108.541 91.0049 108.598C90.0818 102.199 88.9736 95.9986 87.7266 90.0205C87.6071 89.448 87.4864 88.8775 87.3645 88.309ZM60.708 89.9905C61.2381 93.466 61.734 97.0166 62.1889 100.638C50.16 96.6617 39.5545 92.3275 30.6834 88.2646C30.2059 81.7905 29.6738 75.5823 29.1075 69.6719C37.5868 73.309 47.7124 77.2044 59.2037 80.825C59.7295 83.8173 60.2325 86.8736 60.708 89.9905ZM62.3418 101.87C50.3134 97.9173 39.6901 93.6015 30.7766 89.5413L30.8151 90.0763C31.1384 94.5909 31.4346 99.2316 31.697 103.988C40.7287 107.42 51.4926 111.06 63.6753 114.376C63.2896 110.124 62.842 105.953 62.3418 101.87ZM63.7816 115.568C51.6039 112.269 40.8286 108.643 31.7638 105.214C31.9939 109.498 32.1963 113.875 32.366 118.336C41.4806 120.846 52.3137 123.499 64.5506 125.909C64.3372 122.413 64.0793 118.965 63.7816 115.568ZM30.616 104.777C30.8507 109.1 31.0573 113.518 31.2306 118.022C29.1404 117.44 27.1442 116.866 25.2461 116.307C17.3773 113.986 11.1937 111.897 6.97893 110.39C4.87158 109.636 3.25652 109.028 2.16923 108.608C1.81686 108.472 1.51993 108.356 1.27964 108.261V91.6903C1.40924 91.7597 1.54879 91.834 1.69818 91.9132C2.79052 92.492 4.40934 93.3291 6.51957 94.365C10.74 96.4367 16.9263 99.3035 24.7979 102.488C26.6455 103.236 28.5861 104.001 30.616 104.777ZM1.76505 109.656C1.58966 109.588 1.42781 109.525 1.27964 109.467V126.064C1.50042 126.108 1.76336 126.16 2.06769 126.218C3.15272 126.429 4.76386 126.733 6.86602 127.11C11.0704 127.865 17.2387 128.91 25.0905 130.071C27.1551 130.376 29.3361 130.689 31.6284 131.008C31.5375 127.012 31.4187 123.074 31.2751 119.199C29.0534 118.583 26.9363 117.975 24.9285 117.383C17.0377 115.056 10.8338 112.961 6.6009 111.447C4.48443 110.69 2.86065 110.078 1.76505 109.656ZM31.6535 132.144C29.2921 131.817 27.0479 131.495 24.9263 131.181C17.0623 130.018 10.8826 128.972 6.66777 128.215C4.56036 127.837 2.94416 127.532 1.85424 127.321C1.64282 127.28 1.4512 127.242 1.27964 127.209V143.031H31.8129C31.7839 139.359 31.73 135.728 31.6535 132.144ZM32.7796 132.3C41.9388 133.555 52.7936 134.876 65.0366 136.072C65.1161 138.374 65.1754 140.694 65.2131 143.031H32.9355C32.9069 139.412 32.8543 135.833 32.7796 132.3ZM64.9959 134.94C52.7508 133.742 41.9007 132.419 32.7548 131.163C32.666 127.221 32.5501 123.336 32.41 119.512C41.5483 122.021 52.3884 124.666 64.6195 127.066C64.7704 129.665 64.8965 132.29 64.9959 134.94ZM66.1635 136.181C66.2409 138.447 66.2987 140.731 66.3357 143.031H93.8844C93.8502 141.481 93.803 139.938 93.7433 138.403C92.5125 138.324 91.2906 138.242 90.0778 138.158C81.6437 137.576 73.6494 136.903 66.1635 136.181ZM93.6972 137.275C92.5081 137.198 91.3273 137.119 90.155 137.038C81.676 136.453 73.642 135.776 66.1232 135.05C66.0263 132.438 65.9035 129.85 65.7567 127.288C73.4123 128.77 81.6017 130.153 90.2502 131.345C91.2956 131.489 92.3477 131.631 93.4064 131.769C93.5207 133.592 93.6179 135.428 93.6972 137.275ZM94.8693 138.476C94.9274 139.987 94.9734 141.505 95.007 143.031H115.078C115.049 141.857 115.012 140.688 114.967 139.522C108.045 139.242 101.336 138.887 94.8693 138.476ZM114.921 138.397C107.999 138.116 101.29 137.76 94.8236 137.348C94.7462 135.526 94.6514 133.715 94.54 131.916C101.025 132.746 107.754 133.466 114.696 134.036C114.783 135.482 114.858 136.936 114.921 138.397ZM116.091 139.567C116.135 140.718 116.172 141.872 116.201 143.031H126.067C126.046 141.984 126.018 140.94 125.986 139.899C122.644 139.806 119.344 139.695 116.091 139.567ZM125.949 138.775C122.604 138.682 119.302 138.57 116.046 138.442C115.984 136.997 115.911 135.558 115.826 134.127C119.1 134.388 122.421 134.615 125.785 134.805C125.848 136.123 125.903 137.446 125.949 138.775ZM127.11 139.929C127.142 140.96 127.168 141.994 127.19 143.031H134.308C134.292 142.047 134.273 141.066 134.251 140.088C131.85 140.045 129.469 139.992 127.11 139.929ZM134.223 138.965C131.819 138.922 129.436 138.868 127.073 138.806C127.028 137.487 126.974 136.174 126.912 134.867C129.29 134.996 131.69 135.105 134.11 135.195C134.153 136.446 134.191 137.703 134.223 138.965ZM135.374 140.108C135.396 141.079 135.415 142.054 135.43 143.031H139.079C139.071 142.072 139.062 141.115 139.052 140.161C137.821 140.146 136.595 140.128 135.374 140.108ZM139.039 139.039C137.803 139.023 136.572 139.005 135.347 138.985C135.315 137.73 135.278 136.48 135.235 135.235C136.48 135.278 137.73 135.315 138.985 135.347C139.005 136.572 139.023 137.803 139.039 139.039ZM140.175 140.175C140.185 141.124 140.194 142.076 140.201 143.031H143.844V140.207C142.616 140.199 141.393 140.188 140.175 140.175ZM143.844 139.084C142.612 139.076 141.384 139.065 140.162 139.052C140.146 137.821 140.128 136.595 140.108 135.374C141.348 135.402 142.594 135.425 143.844 135.442V139.084ZM144.966 140.214V143.031H147.797C147.804 142.093 147.812 141.157 147.823 140.224C146.868 140.222 145.916 140.219 144.966 140.214ZM147.836 139.101C146.876 139.1 145.92 139.096 144.966 139.091V135.456C145.937 135.467 146.911 135.475 147.888 135.479C147.868 136.681 147.851 137.889 147.836 139.101ZM148.945 140.225C148.935 141.158 148.926 142.093 148.919 143.031H152.568C152.582 142.091 152.6 141.153 152.621 140.218C151.392 140.223 150.166 140.226 148.945 140.225ZM152.648 139.096C151.414 139.101 150.184 139.103 148.958 139.102C148.973 137.891 148.991 136.684 149.011 135.482C150.254 135.483 151.502 135.479 152.755 135.47C152.714 136.673 152.679 137.882 152.648 139.096ZM153.744 140.213C153.723 141.15 153.705 142.089 153.69 143.031H160.808C160.828 142.066 160.852 141.103 160.881 140.143C158.487 140.177 156.108 140.2 153.744 140.213ZM160.917 139.02C158.52 139.054 156.138 139.078 153.771 139.09C153.802 137.875 153.838 136.665 153.879 135.459C156.259 135.434 158.654 135.388 161.065 135.32C161.009 136.548 160.959 137.782 160.917 139.02ZM162.005 140.127C161.975 141.092 161.951 142.06 161.93 143.031H171.797C171.823 141.988 171.855 140.947 171.893 139.911C168.572 140.004 165.275 140.076 162.005 140.127ZM171.937 138.786C168.613 138.88 165.313 138.952 162.041 139.003C162.083 137.759 162.133 136.52 162.19 135.287C165.477 135.185 168.791 135.041 172.13 134.854C172.056 136.159 171.992 137.47 171.937 138.786ZM173.018 139.878C172.979 140.926 172.946 141.977 172.92 143.031H192.991C193.02 141.689 193.06 140.353 193.108 139.022C186.326 139.402 179.624 139.683 173.018 139.878ZM193.151 137.895C186.37 138.276 179.668 138.558 173.062 138.754C173.117 137.426 173.182 136.105 173.258 134.789C179.878 134.398 186.594 133.833 193.389 133.072C193.296 134.671 193.217 136.279 193.151 137.895ZM194.233 138.958C194.184 140.31 194.143 141.668 194.113 143.031H221.662C221.695 140.955 221.746 138.893 221.812 136.844C212.508 137.741 203.301 138.438 194.233 138.958ZM221.851 135.713C212.548 136.612 203.343 137.309 194.277 137.832C194.344 136.193 194.426 134.563 194.52 132.943C203.612 131.897 212.84 130.498 222.163 128.694C222.039 131.013 221.934 133.354 221.851 135.713ZM222.939 136.735C222.87 138.819 222.819 140.918 222.785 143.031H255.062C255.09 139.571 255.139 136.149 255.208 132.768C244.368 134.381 233.591 135.69 222.939 136.735ZM255.233 131.63C244.398 133.245 233.626 134.556 222.978 135.603C223.063 133.206 223.171 130.828 223.299 128.472C233.951 126.375 244.723 123.747 255.552 120.51C255.422 124.163 255.315 127.87 255.233 131.63ZM256.335 132.599C256.263 136.036 256.213 139.514 256.185 143.031H286.408V127.279C276.365 129.331 266.324 131.095 256.335 132.599ZM286.408 126.133C276.374 128.188 266.341 129.954 256.359 131.461C256.444 127.642 256.554 123.877 256.687 120.168C266.565 117.178 276.488 113.679 286.408 109.613V126.133ZM286.408 91.8855V108.399C276.503 112.476 266.595 115.984 256.731 118.982C256.895 114.575 257.092 110.251 257.315 106.015C266.981 101.994 276.693 97.3091 286.408 91.8855ZM256.166 106.491C255.948 110.684 255.755 114.965 255.595 119.325C244.774 122.573 234.009 125.21 223.364 127.315C223.556 123.972 223.789 120.671 224.059 117.417C234.66 114.528 245.383 110.92 256.166 106.491ZM222.907 117.728C222.642 120.954 222.415 124.225 222.227 127.538C212.906 129.349 203.679 130.754 194.589 131.805C194.761 129.055 194.972 126.332 195.219 123.638C204.323 122.176 213.567 120.229 222.907 117.728ZM194.075 123.819C193.833 126.496 193.626 129.202 193.457 131.935C186.662 132.699 179.946 133.267 173.324 133.661C173.478 131.163 173.666 128.688 173.886 126.236C180.525 125.681 187.261 124.885 194.075 123.819ZM172.751 126.329C172.533 128.772 172.347 131.238 172.196 133.726C168.853 133.915 165.535 134.059 162.244 134.162C162.365 131.739 162.513 129.337 162.687 126.956C166.015 126.806 169.37 126.599 172.751 126.329ZM161.558 127.005C161.385 129.381 161.238 131.778 161.119 134.196C158.703 134.265 156.303 134.311 153.918 134.336C154.006 131.942 154.113 129.568 154.238 127.215C156.662 127.175 159.102 127.106 161.558 127.005ZM153.113 127.231C152.988 129.583 152.882 131.955 152.794 134.347C151.535 134.357 150.28 134.361 149.03 134.359C149.073 131.971 149.126 129.603 149.187 127.255C150.491 127.256 151.8 127.248 153.113 127.231ZM148.065 127.253C148.003 129.6 147.95 131.968 147.907 134.356C146.924 134.352 145.944 134.345 144.966 134.334V127.224C145.996 127.239 147.029 127.248 148.065 127.253ZM143.844 127.206V134.32C142.587 134.302 141.335 134.279 140.089 134.251C140.045 131.85 139.992 129.469 139.93 127.11C141.229 127.15 142.534 127.182 143.844 127.206ZM138.806 127.073C138.868 129.436 138.922 131.819 138.965 134.223C137.703 134.191 136.446 134.153 135.195 134.11C135.105 131.69 134.996 129.29 134.867 126.912C136.174 126.974 137.487 127.027 138.806 127.073ZM133.74 126.856C133.869 129.24 133.98 131.644 134.07 134.07C131.644 133.98 129.24 133.869 126.856 133.74C126.73 131.27 126.576 128.821 126.395 126.395C128.821 126.576 131.27 126.73 133.74 126.856ZM125.263 126.308C125.446 128.742 125.602 131.199 125.729 133.678C122.36 133.486 119.035 133.258 115.756 132.996C115.593 130.425 115.392 127.878 115.158 125.356C118.479 125.722 121.848 126.041 125.263 126.308ZM114.019 125.228C114.257 127.762 114.46 130.321 114.626 132.904C107.683 132.331 100.953 131.609 94.4671 130.774C94.2784 127.913 94.048 125.082 93.7794 122.283C100.288 123.436 107.044 124.435 114.019 125.228ZM92.6321 122.078C92.9056 124.896 93.1402 127.746 93.3325 130.627C92.3505 130.498 91.3741 130.367 90.4035 130.233C81.6701 129.029 73.406 127.63 65.6887 126.131C65.4798 122.666 65.2271 119.247 64.9354 115.879C72.755 117.969 81.1405 119.919 90.0123 121.594C90.8809 121.758 91.7542 121.919 92.6321 122.078ZM30.5484 103.549C28.695 102.837 26.9175 102.135 25.2189 101.448C17.3747 98.274 11.213 95.4184 7.01423 93.3573C4.91489 92.3268 3.30637 91.4949 2.22376 90.9213C1.84374 90.7199 1.52853 90.5504 1.27964 90.4152V73.8605C1.39866 73.9364 1.52582 74.0172 1.66104 74.1027C2.75359 74.7934 4.37268 75.7924 6.48323 77.0285C10.7043 79.5006 16.8915 82.9216 24.7644 86.7218C26.3156 87.4706 27.9323 88.2341 29.6124 89.008C29.6402 89.3899 29.6679 89.7727 29.6954 90.1565C30.0069 94.5068 30.2933 98.9741 30.5484 103.549ZM286.408 90.5991V74.0944C277.017 80.3477 267.627 85.7777 258.28 90.4655C257.95 95.1053 257.648 99.8777 257.382 104.771C267.026 100.736 276.716 96.0374 286.408 90.5991ZM256.232 105.249C256.493 100.393 256.789 95.6551 257.114 91.0469C246.462 96.3208 235.867 100.635 225.388 104.108C224.925 108.069 224.513 112.11 224.159 116.225C234.75 113.322 245.461 109.698 256.232 105.249ZM223.006 116.539C223.353 112.449 223.758 108.432 224.213 104.494C214.888 107.532 205.657 109.907 196.562 111.703C196.09 115.24 195.676 118.834 195.327 122.483C204.429 121.012 213.669 119.054 223.006 116.539ZM194.182 122.666C194.526 119.033 194.934 115.452 195.399 111.93C188.564 113.244 181.807 114.234 175.146 114.934C174.702 118.275 174.315 121.665 173.991 125.101C180.631 124.541 187.367 123.739 194.182 122.666ZM172.855 125.195C173.176 121.767 173.559 118.385 173.998 115.052C170.536 115.399 167.101 115.669 163.693 115.866C163.338 119.141 163.029 122.463 162.771 125.829C166.105 125.677 169.467 125.467 172.855 125.195ZM161.642 125.878C161.898 122.517 162.205 119.199 162.558 115.929C160.01 116.064 157.479 116.159 154.966 116.215C154.709 119.463 154.486 122.756 154.3 126.092C156.731 126.051 159.179 125.98 161.642 125.878ZM153.174 126.108C153.36 122.774 153.583 119.483 153.838 116.238C152.402 116.264 150.971 116.277 149.547 116.279C149.42 119.519 149.31 122.804 149.218 126.133C150.532 126.133 151.851 126.125 153.174 126.108ZM148.095 126.131C148.187 122.802 148.297 119.517 148.423 116.277C147.267 116.273 146.115 116.261 144.966 116.241V126.102C146.006 126.117 147.049 126.126 148.095 126.131ZM143.844 126.083V116.219C142.412 116.189 140.986 116.146 139.567 116.091C139.695 119.344 139.806 122.644 139.899 125.986C141.208 126.027 142.523 126.059 143.844 126.083ZM138.775 125.949C138.682 122.604 138.57 119.302 138.442 116.046C136.997 115.984 135.558 115.911 134.127 115.826C134.388 119.1 134.615 122.421 134.805 125.785C136.123 125.848 137.446 125.903 138.775 125.949ZM133.678 125.729C133.486 122.36 133.258 119.035 132.996 115.756C130.425 115.593 127.878 115.392 125.356 115.158C125.722 118.479 126.041 121.848 126.308 125.263C128.742 125.446 131.199 125.602 133.678 125.729ZM125.176 125.176C124.906 121.753 124.584 118.377 124.215 115.049C120.705 114.708 117.245 114.301 113.836 113.836C114.301 117.245 114.708 120.705 115.049 124.215C118.377 124.584 121.753 124.906 125.176 125.176ZM113.909 124.086C113.564 120.566 113.152 117.095 112.681 113.676C105.667 112.689 98.8773 111.456 92.3427 110.041C92.8465 113.674 93.2903 117.369 93.6657 121.123C100.174 122.282 106.932 123.287 113.909 124.086ZM92.5169 120.916C91.7479 120.777 90.9824 120.635 90.2205 120.491C81.2283 118.793 72.737 116.812 64.8305 114.689C64.4516 110.462 64.0115 106.315 63.5194 102.254C71.7346 104.917 80.5908 107.404 89.9931 109.522C90.3857 109.61 90.7792 109.698 91.1737 109.785C91.6849 113.434 92.1355 117.145 92.5169 120.916ZM27.931 69.1644C28.5004 75.0626 29.0363 81.2611 29.518 87.7279C28.0457 87.046 26.6234 86.3726 25.2524 85.7108C17.4095 81.9251 11.2487 78.5186 7.05055 76.0598C4.95153 74.8305 3.34328 73.8381 2.26089 73.1538C1.86168 72.9015 1.53401 72.691 1.27964 72.526V55.8396C1.4014 55.9117 1.53179 55.9886 1.67072 56.0701C2.75924 56.7089 4.37251 57.6328 6.47583 58.7759C10.6824 61.0622 16.8496 64.226 24.7001 67.7404C25.7473 68.2092 26.8245 68.6843 27.931 69.1644ZM286.408 56.049V72.7446C277.049 79.0129 267.691 84.4582 258.374 89.1614C258.851 82.6172 259.383 76.3421 259.951 70.3686C268.742 66.2232 277.572 61.4705 286.408 56.049ZM258.771 70.9214C258.207 76.9084 257.678 83.1945 257.206 89.7472C246.573 95.0464 235.996 99.3826 225.534 102.876C226.062 98.4772 226.651 94.1792 227.29 89.9905C227.661 87.5559 228.049 85.1583 228.452 82.7992C238.471 79.5869 248.594 75.6595 258.771 70.9214ZM226.18 89.8213C225.514 94.1871 224.902 98.6717 224.357 103.266C215.038 106.324 205.812 108.716 196.721 110.527C197.692 103.47 198.89 96.6488 200.256 90.0946C209.14 88.3298 218.15 86.0496 227.248 83.1819C226.879 85.3628 226.523 87.5764 226.18 89.8213ZM199.061 90.3291C197.706 96.8832 196.518 103.703 195.557 110.756C188.721 112.082 181.963 113.081 175.301 113.789C176.265 106.764 177.477 99.9621 178.875 93.4135C185.517 92.6653 192.251 91.648 199.061 90.3291ZM177.7 93.5431C176.311 100.09 175.108 106.889 174.152 113.909C170.68 114.261 167.235 114.534 163.818 114.734C164.599 107.762 165.586 101.005 166.728 94.4959C170.354 94.2572 174.013 93.9415 177.7 93.5431ZM165.576 94.5693C164.439 101.077 163.458 107.83 162.682 114.798C160.123 114.936 157.581 115.033 155.056 115.091C155.621 108.156 156.335 101.434 157.161 94.9531C159.945 94.8699 162.751 94.7429 165.576 94.5693ZM156.025 94.9846C155.202 101.463 154.491 108.183 153.928 115.114C152.476 115.141 151.031 115.155 149.591 115.156C149.871 108.239 150.224 101.534 150.634 95.0691C152.422 95.0588 154.219 95.0309 156.025 94.9846ZM149.509 95.0732C149.1 101.536 148.747 108.24 148.468 115.155C147.297 115.151 146.129 115.139 144.966 115.119V95.0428C146.474 95.0653 147.988 95.0756 149.509 95.0732ZM143.844 95.0237V115.097C142.397 115.066 140.956 115.022 139.522 114.967C139.242 108.045 138.887 101.336 138.476 94.8693C140.255 94.9376 142.044 94.9894 143.844 95.0237ZM137.348 94.8236C137.76 101.29 138.116 107.999 138.397 114.921C136.936 114.858 135.482 114.783 134.036 114.696C133.466 107.754 132.746 101.025 131.916 94.54C133.715 94.6514 135.526 94.7462 137.348 94.8236ZM130.774 94.4671C131.609 100.953 132.331 107.682 132.904 114.626C130.321 114.46 127.762 114.257 125.228 114.019C124.435 107.044 123.436 100.288 122.283 93.7794C125.082 94.048 127.913 94.2783 130.774 94.4671ZM121.123 93.6657C122.282 100.174 123.287 106.932 124.086 113.909C120.566 113.564 117.095 113.152 113.676 112.681C112.689 105.667 111.456 98.8773 110.041 92.3426C113.674 92.8465 117.369 93.2903 121.123 93.6657ZM108.856 92.1759C110.281 98.7105 111.523 105.502 112.52 112.52C105.502 111.523 98.7106 110.281 92.1759 108.856C91.2375 102.285 90.1041 95.921 88.8255 89.7913C88.7402 89.3823 88.6542 88.9744 88.5676 88.5676C88.9745 88.6542 89.3824 88.7401 89.7913 88.8254C95.921 90.1041 102.285 91.2375 108.856 92.1759ZM58.9825 79.5778C57.3874 70.6605 55.5935 62.3232 53.7302 54.6591C43.3756 52.1236 34.2633 49.4672 26.6253 47.0118C27.4369 53.5808 28.2385 60.7329 28.9844 68.397C37.4113 72.0316 47.5058 75.9389 58.9825 79.5778ZM27.8066 67.8861C27.0591 60.2645 26.2574 53.1558 25.447 46.6308C25.2148 46.5553 24.9841 46.48 24.7548 46.405C16.9069 43.8359 10.7417 41.5231 6.53657 39.8519C4.434 39.0162 2.82141 38.3409 1.73346 37.8741C1.57036 37.8041 1.41904 37.7388 1.27964 37.6783V54.5324C1.5304 54.6833 1.85068 54.8742 2.23886 55.102C3.31733 55.7348 4.9199 56.6526 7.01189 57.7896C11.1959 60.0637 17.3373 63.2144 25.1588 66.7159C26.0211 67.1019 26.9038 67.4922 27.8066 67.8861ZM286.408 54.7309V37.8304C278.409 41.4214 270.416 44.6113 262.452 47.4336C261.633 54.0761 260.826 61.3117 260.076 69.0675C268.826 64.9144 277.614 60.156 286.408 54.7309ZM258.895 69.6247C259.643 61.8226 260.45 54.5399 261.269 47.8499C252.103 51.0577 242.977 53.7803 233.927 56.0689C232.05 63.9108 230.252 72.4369 228.667 81.5504C238.657 78.322 248.75 74.3787 258.895 69.6247ZM227.461 81.9369C229.036 72.8015 230.827 64.2495 232.7 56.3768C224.256 58.4774 215.881 60.2015 207.605 61.5907C205.011 70.0208 202.577 79.1595 200.507 88.8995C209.38 87.1197 218.377 84.8228 227.461 81.9369ZM199.31 89.1368C201.364 79.392 203.784 70.2431 206.368 61.796C199.717 62.8871 193.13 63.7627 186.624 64.4446C184.042 72.4658 181.631 81.0936 179.571 90.2397C179.42 90.9089 179.271 91.5808 179.124 92.2554C185.767 91.4974 192.501 90.4688 199.31 89.1368ZM177.947 92.3871C178.121 91.5852 178.297 90.7872 178.476 89.993C180.504 80.9904 182.87 72.4883 185.405 64.5702C181.27 64.9889 177.169 65.3296 173.104 65.5979C171.059 73.2856 169.15 81.5185 167.507 90.2205C167.311 91.2596 167.118 92.3054 166.93 93.3577C170.571 93.1141 174.245 92.7925 177.947 92.3871ZM165.776 93.4323C165.981 92.2845 166.19 91.1444 166.404 90.0123C168.026 81.4192 169.907 73.2822 171.922 65.674C168.512 65.8877 165.129 66.0508 161.774 66.1664C160.31 73.7468 158.944 81.85 157.765 90.4035C157.609 91.5365 157.456 92.6773 157.306 93.8258C160.109 93.7403 162.933 93.61 165.776 93.4323ZM156.17 93.8581C156.327 92.6469 156.488 91.4442 156.653 90.2502C157.822 81.77 159.174 73.7313 160.624 66.2043C158.04 66.2852 155.473 66.3381 152.925 66.3645C152.208 73.8138 151.539 81.7666 150.96 90.155C150.873 91.4091 150.789 92.673 150.706 93.9463C152.518 93.9354 154.339 93.9063 156.17 93.8581ZM149.581 93.9508C149.665 92.6497 149.751 91.3587 149.84 90.0777C150.416 81.7229 151.082 73.7995 151.796 66.3745C149.504 66.3912 147.227 66.3867 144.966 66.3619V93.9203C146.497 93.9434 148.036 93.9537 149.581 93.9508ZM143.844 93.9012V66.3479C141.268 66.312 138.714 66.25 136.181 66.1635C136.903 73.6494 137.576 81.6437 138.158 90.0777C138.242 91.2906 138.324 92.5125 138.403 93.7433C140.206 93.8134 142.02 93.8663 143.844 93.9012ZM137.275 93.6972C137.198 92.5081 137.119 91.3273 137.038 90.155C136.453 81.6759 135.776 73.642 135.05 66.1232C132.438 66.0263 129.85 65.9035 127.288 65.7567C128.77 73.4123 130.153 81.6017 131.345 90.2502C131.489 91.2956 131.631 92.3477 131.769 93.4064C133.592 93.5207 135.428 93.6179 137.275 93.6972ZM130.627 93.3325C130.498 92.3505 130.367 91.3741 130.233 90.4035C129.029 81.6701 127.63 73.406 126.131 65.6887C122.666 65.4797 119.247 65.2271 115.879 64.9354C117.969 72.755 119.919 81.1405 121.594 90.0123C121.758 90.8809 121.919 91.7542 122.078 92.632C124.896 92.9055 127.746 93.1402 130.627 93.3325ZM120.916 92.5169C120.777 91.7479 120.635 90.9824 120.491 90.2205C118.793 81.2282 116.812 72.737 114.689 64.8305C110.462 64.4516 106.315 64.0115 102.254 63.5194C104.917 71.7346 107.404 80.5908 109.522 89.993C109.61 90.3856 109.698 90.7792 109.785 91.1737C113.434 91.6849 117.145 92.1355 120.916 92.5169ZM108.598 91.0049C102.199 90.0818 95.9986 88.9736 90.0205 87.7265C89.448 87.6071 88.8775 87.4864 88.3091 87.3645C86.2229 77.7494 83.7882 68.7297 81.2023 60.4093C84.0201 60.9004 86.8941 61.3711 89.8213 61.8177C93.4745 62.3749 97.2109 62.8945 101.025 63.3685C103.739 71.6926 106.274 80.6833 108.427 90.2397C108.484 90.4944 108.541 90.7494 108.598 91.0049ZM45.7832 26.4726C48.2308 34.0497 50.8876 43.1133 53.4292 53.4292C43.1133 50.8876 34.0497 48.2308 26.4726 45.7832C25.49 37.9293 24.4971 30.9342 23.5747 24.9232C23.4918 24.3835 23.4096 23.8517 23.3279 23.3279C23.8517 23.4096 24.3835 23.4918 24.9232 23.5746C30.9342 24.4971 37.9293 25.49 45.7832 26.4726ZM22.4651 25.0935C23.3656 30.9613 24.3334 37.7692 25.2932 45.4L25.1041 45.3381C17.2801 42.7769 11.1367 40.4722 6.95117 38.8087C4.85842 37.977 3.25518 37.3055 2.17613 36.8425C1.81968 36.6895 1.52043 36.5593 1.27964 36.4536V19.4526C1.45021 19.4874 1.64053 19.5259 1.85036 19.5681C2.94036 19.7872 4.55664 20.1042 6.66414 20.4966C10.3729 21.1872 15.6031 22.1112 22.1633 23.1454C22.263 23.7827 22.3636 24.4321 22.4651 25.0935ZM286.408 19.5253V36.5995C278.462 40.1822 270.52 43.3672 262.606 46.1873C263.598 38.2369 264.601 31.1624 265.533 25.0935C265.616 24.5515 265.698 24.0175 265.78 23.4916C272.645 22.3036 279.526 20.9849 286.408 19.5253ZM264.423 24.9232C263.469 31.1434 262.439 38.4174 261.423 46.6064C252.306 49.8147 243.228 52.5408 234.225 54.8351C236.799 44.2268 239.507 34.9034 242.009 27.1114C249.508 26.1207 257.05 24.9856 264.613 23.6924C264.55 24.098 264.487 24.5083 264.423 24.9232ZM240.779 27.2727C238.27 35.1264 235.562 44.4989 232.995 55.146C224.578 57.2559 216.229 58.9899 207.977 60.3894C211.639 48.6553 215.598 38.3265 219.294 29.6991C226.402 29.0152 233.57 28.2104 240.779 27.2727ZM218.021 29.8203C214.325 38.4971 210.379 48.8532 206.737 60.5974C200.09 61.6992 193.506 62.5847 187.003 63.2758C190.982 51.0848 195.343 40.3259 199.444 31.3159C205.581 30.9048 211.778 30.409 218.021 29.8203ZM198.173 31.4C194.077 40.4476 189.736 51.219 185.781 63.4035C181.623 63.8304 177.498 64.1782 173.411 64.4525C176.723 52.1725 180.373 41.3133 183.823 32.191C188.565 31.9767 193.35 31.7144 198.173 31.4ZM182.602 32.2452C179.157 41.3958 175.522 52.2609 172.228 64.5299C168.789 64.7491 165.377 64.9165 161.994 65.0356C164.399 52.7485 167.054 41.8641 169.57 32.6982C173.873 32.5859 178.219 32.436 182.602 32.2452ZM168.398 32.7278C165.885 41.9129 163.239 52.7988 160.843 65.0743C158.221 65.1582 155.618 65.2131 153.034 65.2408C154.231 52.9713 155.554 42.0961 156.811 32.9247C160.636 32.8883 164.499 32.8235 168.398 32.7278ZM155.677 32.9347C154.42 42.1149 153.099 52.9894 151.905 65.2511C149.576 65.2689 147.263 65.2646 144.966 65.2393V32.9484C148.499 32.9677 152.07 32.9638 155.677 32.9347ZM143.844 32.9414V65.2253C141.231 65.1888 138.64 65.1253 136.072 65.0366C134.876 52.7935 133.555 41.9388 132.3 32.7796C136.097 32.8598 139.947 32.9147 143.844 32.9414ZM131.163 32.7548C132.419 41.9007 133.742 52.7507 134.94 64.9958C132.29 64.8965 129.665 64.7704 127.066 64.6195C124.666 52.3884 122.021 41.5483 119.512 32.4099C123.336 32.55 127.221 32.666 131.163 32.7548ZM118.336 32.366C120.846 41.4805 123.499 52.3137 125.909 64.5506C122.413 64.3372 118.965 64.0793 115.568 63.7816C112.269 51.6039 108.643 40.8286 105.214 31.7637C109.498 31.9939 113.875 32.1963 118.336 32.366ZM103.988 31.697C107.42 40.7287 111.06 51.4926 114.376 63.6753C110.124 63.2896 105.953 62.8419 101.87 62.3417C97.9173 50.3134 93.6015 39.6901 89.5413 30.7766L90.0763 30.815C94.5909 31.1384 99.2316 31.4346 103.988 31.697ZM67.8861 27.8066C67.4922 26.9038 67.1019 26.0211 66.7159 25.1588C63.2144 17.3373 60.0637 11.1959 57.7897 7.01188C56.6527 4.91989 55.7348 3.31733 55.102 2.23886C54.9187 1.9266 54.7594 1.65829 54.6255 1.43475H37.7455C37.7864 1.52947 37.8293 1.62904 37.8741 1.73345C38.3409 2.8214 39.0163 4.43399 39.8519 6.53656C41.5232 10.7416 43.8359 16.9069 46.405 24.7548C46.4801 24.9841 46.5553 25.2148 46.6308 25.447C53.1558 26.2574 60.2645 27.0591 67.8861 27.8066ZM45.4 25.2931L45.3382 25.104C42.7769 17.2801 40.4722 11.1367 38.8087 6.95116C37.977 4.8584 37.3055 3.25517 36.8425 2.17612C36.7208 1.8926 36.6136 1.64527 36.5216 1.43475H19.4842C19.5103 1.56349 19.5383 1.70205 19.5681 1.85036C19.7872 2.94035 20.1042 4.55664 20.4967 6.66414C21.1872 10.3729 22.1112 15.603 23.1454 22.1633C23.7827 22.2629 24.4321 22.3636 25.0935 22.4651C30.9613 23.3656 37.7692 24.3334 45.4 25.2931ZM21.98 21.98C20.9704 15.5983 20.0693 10.5012 19.3931 6.86963C19.0017 4.76755 18.6856 3.15651 18.4676 2.07155C18.4198 1.83393 18.3767 1.62154 18.3386 1.43475H1.27964V18.3069C1.5012 18.3523 1.76544 18.406 2.07156 18.4675C3.15651 18.6856 4.76756 19.0016 6.86963 19.3931C10.5012 20.0693 15.5983 20.9704 21.98 21.98ZM103.549 30.5484C98.9741 30.2933 94.5068 30.0069 90.1565 29.6954C89.7727 29.6679 89.3899 29.6402 89.008 29.6123C88.2341 27.9323 87.4706 26.3156 86.7218 24.7644C82.9216 16.8915 79.5006 10.7042 77.0285 6.48322C75.7924 4.37267 74.7934 2.75358 74.1027 1.66103C74.0533 1.58291 74.0055 1.50748 73.9593 1.43475H90.4993C90.6186 1.65548 90.7597 1.91874 90.9213 2.22374C91.4949 3.30635 92.3268 4.91487 93.3573 7.01421C95.4184 11.213 98.274 17.3747 101.448 25.2189C102.135 26.9175 102.837 28.6949 103.549 30.5484ZM118.022 31.2306C113.518 31.0573 109.1 30.8507 104.777 30.616C104.001 28.5861 103.236 26.6455 102.488 24.7978C99.3035 16.9263 96.4367 10.7399 94.365 6.51955C93.3291 4.40932 92.492 2.7905 91.9132 1.69816C91.8647 1.60666 91.818 1.51885 91.7732 1.43475H108.322C108.405 1.64416 108.5 1.88918 108.608 2.16921C109.028 3.2565 109.636 4.87156 110.39 6.97891C111.897 11.1936 113.986 17.3773 116.307 25.2461C116.866 27.1442 117.44 29.1404 118.022 31.2306ZM131.008 31.6284C127.012 31.5375 123.074 31.4187 119.199 31.2751C118.583 29.0534 117.975 26.9363 117.383 24.9285C115.056 17.0377 112.961 10.8338 111.447 6.60088C110.69 4.48441 110.078 2.86063 109.656 1.76503C109.611 1.649 109.568 1.53889 109.528 1.43475H126.095C126.132 1.6206 126.173 1.8317 126.219 2.06767C126.429 3.15271 126.733 4.76384 127.11 6.866C127.865 11.0703 128.91 17.2387 130.071 25.0905C130.376 27.1551 130.689 29.3361 131.008 31.6284ZM143.844 31.8189C139.894 31.7917 135.992 31.7356 132.144 31.6535C131.817 29.2921 131.495 27.0479 131.181 24.9262C130.018 17.0623 128.972 10.8826 128.215 6.66775C127.837 4.56034 127.532 2.94414 127.321 1.85423C127.292 1.70443 127.264 1.56458 127.239 1.43475H143.844V31.8189ZM155.832 31.8108C152.172 31.8411 148.55 31.8454 144.966 31.8258V1.43475H160.759C160.733 1.56458 160.706 1.70443 160.677 1.85423C160.466 2.94414 160.161 4.56034 159.783 6.66775C159.026 10.8826 157.979 17.0623 156.817 24.9262C156.496 27.095 156.166 29.3918 155.832 31.8108ZM168.709 31.5972C164.757 31.696 160.842 31.7629 156.966 31.8006C157.293 29.4453 157.614 27.2067 157.927 25.0905C159.088 17.2387 160.133 11.0703 160.887 6.866C161.265 4.76384 161.569 3.15271 161.779 2.06767C161.825 1.8317 161.866 1.6206 161.903 1.43475H178.47C178.43 1.53889 178.387 1.649 178.342 1.76503C177.919 2.86063 177.308 4.48441 176.551 6.60088C175.037 10.8338 172.942 17.0377 170.615 24.9285C169.994 27.0331 169.357 29.2578 168.709 31.5972ZM183.035 31.1026C178.611 31.2981 174.225 31.4518 169.883 31.567C170.497 29.3543 171.101 27.2458 171.691 25.2461C174.012 17.3773 176.1 11.1936 177.608 6.97891C178.361 4.87156 178.97 3.2565 179.389 2.16921C179.497 1.88918 179.593 1.64416 179.675 1.43475H196.225C196.18 1.51885 196.133 1.60666 196.085 1.69816C195.506 2.7905 194.669 4.40932 193.633 6.51955C191.561 10.7399 188.694 16.9263 185.51 24.7978C184.703 26.7927 183.875 28.8957 183.035 31.1026ZM198.701 30.2403C193.847 30.5609 189.03 30.8286 184.257 31.0475C185.035 29.0135 185.802 27.0694 186.55 25.2189C189.724 17.3747 192.579 11.213 194.64 7.01421C195.671 4.91487 196.503 3.30635 197.077 2.22374C197.238 1.91874 197.379 1.65548 197.499 1.43475H214.038L213.895 1.66103C213.204 2.75358 212.205 4.37267 210.969 6.48322C208.497 10.7042 205.076 16.8915 201.276 24.7644C200.434 26.508 199.574 28.3343 198.701 30.2403ZM218.525 28.645C212.291 29.2385 206.104 29.7391 199.976 30.155C200.758 28.4551 201.53 26.8202 202.287 25.2523C206.073 17.4094 209.479 11.2487 211.938 7.05054C213.167 4.95152 214.16 3.34327 214.844 2.26087C215.048 1.93856 215.224 1.66288 215.371 1.43475H232.066C232.022 1.51045 231.976 1.58911 231.928 1.67072C231.289 2.75924 230.365 4.3725 229.222 6.47583C226.936 10.6824 223.772 16.8496 220.257 24.7001C219.688 25.9713 219.11 27.2867 218.525 28.645ZM241.158 26.0911C233.993 27.0293 226.868 27.8358 219.801 28.5223C220.3 27.3691 220.794 26.2477 221.282 25.1588C224.783 17.3373 227.934 11.1959 230.208 7.01188C231.345 4.91989 232.263 3.31733 232.896 2.23886C233.079 1.9266 233.238 1.65829 233.372 1.43475H250.252C250.211 1.52947 250.169 1.62904 250.124 1.73345C249.657 2.8214 248.982 4.43399 248.146 6.53656C246.475 10.7416 244.162 16.9069 241.593 24.7548C241.449 25.1949 241.304 25.6404 241.158 26.0911ZM264.796 22.5222C257.3 23.8089 249.825 24.9399 242.391 25.9284C242.481 25.6516 242.57 25.3768 242.66 25.104C245.221 17.2801 247.526 11.1367 249.189 6.95116C250.021 4.8584 250.692 3.25517 251.155 2.17612C251.277 1.8926 251.384 1.64527 251.476 1.43475H268.514C268.487 1.56349 268.46 1.70205 268.43 1.85036C268.211 2.94035 267.894 4.55664 267.501 6.66414C266.798 10.4403 265.853 15.7936 264.796 22.5222ZM286.408 18.3777C279.587 19.8273 272.768 21.1383 265.964 22.3205C266.995 15.7794 267.917 10.5656 268.605 6.86963C268.996 4.76755 269.312 3.15651 269.53 2.07155C269.578 1.83393 269.621 1.62154 269.659 1.43475H286.408V18.3777ZM115.104 144.154H95.0294C95.0612 145.929 95.0761 147.714 95.0732 149.509C101.536 149.1 108.24 148.747 115.155 148.468C115.15 147.024 115.133 145.586 115.104 144.154ZM66.3521 144.154H93.9069C93.9393 145.953 93.9542 147.762 93.9508 149.581C92.6498 149.665 91.3587 149.751 90.0778 149.84C81.7229 150.416 73.7995 151.082 66.3745 151.796C66.3932 149.229 66.3853 146.682 66.3521 144.154ZM32.9435 144.154H65.2296C65.2633 146.717 65.271 149.301 65.2511 151.905C52.9895 153.099 42.1149 154.42 32.9347 155.677C32.966 151.794 32.9681 147.951 32.9435 144.154ZM1.27964 144.154H31.8209C31.8459 148.002 31.8434 151.896 31.8109 155.832C29.3918 156.166 27.095 156.496 24.9263 156.817C17.0623 157.979 10.8826 159.026 6.66777 159.783C4.56036 160.161 2.94416 160.466 1.85425 160.677C1.64282 160.718 1.4512 160.756 1.27964 160.789V144.154ZM116.226 144.154H126.089C126.111 145.462 126.125 146.776 126.131 148.095C122.802 148.187 119.517 148.297 116.277 148.423C116.272 146.994 116.255 145.571 116.226 144.154ZM127.211 144.154C127.233 145.452 127.247 146.756 127.253 148.064C129.6 148.003 131.968 147.95 134.356 147.907C134.351 146.652 134.34 145.4 134.324 144.154H127.211ZM135.446 144.154C135.463 145.394 135.473 146.639 135.479 147.888C136.681 147.868 137.889 147.851 139.101 147.836C139.099 146.604 139.094 145.377 139.086 144.154H135.446ZM140.209 144.154C140.217 145.372 140.222 146.595 140.224 147.823C141.426 147.809 142.633 147.799 143.844 147.791V144.154H140.209ZM144.966 144.154V147.784C145.9 147.779 146.836 147.776 147.774 147.774C147.776 146.563 147.781 145.356 147.789 144.154H144.966ZM144.966 148.907C145.899 148.902 146.835 148.898 147.773 148.897C147.772 150.1 147.774 151.308 147.779 152.52C146.839 152.524 145.901 152.531 144.966 152.541V148.907ZM148.895 148.895C148.895 150.098 148.897 151.305 148.901 152.516C150.106 152.514 151.314 152.518 152.526 152.526C152.518 151.314 152.514 150.106 152.516 148.901C151.305 148.897 150.098 148.895 148.895 148.895ZM144.966 153.664C145.903 153.654 146.842 153.646 147.784 153.642C147.796 155.995 147.819 158.363 147.853 160.746C146.888 160.751 145.926 160.76 144.966 160.774V153.664ZM148.907 153.639C148.919 155.992 148.942 158.36 148.975 160.743C150.202 160.741 151.433 160.747 152.669 160.761C152.603 158.376 152.559 156.005 152.536 153.649C151.322 153.64 150.112 153.637 148.907 153.639ZM144.966 161.896C145.931 161.882 146.899 161.873 147.869 161.868C147.919 165.127 147.99 168.412 148.082 171.722C147.04 171.727 146.002 171.739 144.966 171.757V161.896ZM148.992 161.865C149.042 165.124 149.113 168.409 149.205 171.719C150.506 171.719 151.812 171.728 153.123 171.748C152.94 168.435 152.8 165.146 152.701 161.884C151.461 161.87 150.224 161.864 148.992 161.865ZM144.966 172.879C146.012 172.861 147.062 172.849 148.114 172.844C148.308 179.447 148.588 186.146 148.965 192.924C147.627 192.925 146.294 192.935 144.966 192.955V172.879ZM149.237 172.841C149.431 179.445 149.712 186.146 150.09 192.926C151.679 192.932 153.277 192.952 154.881 192.986C154.128 186.197 153.57 179.486 153.186 172.871C151.865 172.851 150.549 172.841 149.237 172.841ZM144.966 194.077C146.315 194.057 147.669 194.047 149.029 194.046C149.547 203.112 150.241 212.316 151.135 221.619C149.066 221.608 147.01 221.613 144.966 221.636V194.077ZM150.153 194.049C150.673 203.116 151.367 212.323 152.263 221.627C154.569 221.647 156.89 221.688 159.225 221.752C157.432 212.43 156.044 203.202 155.008 194.112C153.382 194.076 151.764 194.055 150.153 194.049ZM144.966 222.758C147.046 222.736 149.138 222.73 151.244 222.742C152.287 233.409 153.595 244.203 155.208 255.059C151.76 255.034 148.346 255.031 144.966 255.049V222.758ZM152.372 222.751C153.418 233.419 154.728 244.212 156.344 255.069C159.993 255.101 163.678 255.16 167.397 255.246C164.159 244.378 161.535 233.569 159.444 222.881C157.072 222.815 154.714 222.771 152.372 222.751ZM144.966 256.172C148.401 256.153 151.871 256.156 155.376 256.183C156.893 266.274 158.674 276.417 160.751 286.563H144.966V256.172ZM156.512 256.193C158.032 266.281 159.817 276.421 161.897 286.563H178.448C174.312 276.487 170.762 266.408 167.736 256.377C163.96 256.287 160.217 256.227 156.512 256.193ZM152.551 144.154H148.911C148.904 145.356 148.899 146.562 148.897 147.773C150.1 147.772 151.308 147.774 152.52 147.779C152.525 146.566 152.536 145.358 152.551 144.154ZM153.674 144.154C153.658 145.359 153.647 146.57 153.642 147.784C155.995 147.796 158.363 147.819 160.746 147.853C160.752 146.615 160.766 145.382 160.787 144.154H153.674ZM153.649 152.536C153.64 151.322 153.637 150.112 153.639 148.907C155.992 148.919 158.36 148.942 160.743 148.975C160.741 150.202 160.747 151.433 160.761 152.669C158.376 152.603 156.005 152.559 153.649 152.536ZM153.792 160.776C153.727 158.389 153.682 156.016 153.659 153.659C156.016 153.682 158.389 153.726 160.776 153.792C160.811 156.169 160.875 158.562 160.969 160.969C158.562 160.875 156.169 160.811 153.792 160.776ZM154.248 171.767C154.064 168.453 153.924 165.162 153.825 161.899C156.206 161.935 158.603 161.999 161.016 162.094C161.157 165.377 161.354 168.686 161.611 172.021C159.141 171.899 156.686 171.815 154.248 171.767ZM156.013 193.013C155.257 186.222 154.697 179.508 154.312 172.891C156.758 172.94 159.222 173.025 161.701 173.149C162.239 179.788 163.017 186.524 164.065 193.34C161.362 193.189 158.678 193.081 156.013 193.013ZM160.375 221.786C158.575 212.461 157.181 203.231 156.141 194.139C158.821 194.209 161.522 194.32 164.241 194.474C165.681 203.594 167.605 212.855 170.085 222.213C166.823 222.026 163.585 221.884 160.375 221.786ZM168.577 255.274C165.328 244.41 162.693 233.602 160.595 222.916C163.833 223.017 167.099 223.163 170.391 223.355C173.27 234.032 176.876 244.834 181.315 255.698C177.031 255.519 172.783 255.379 168.577 255.274ZM179.662 286.563C175.514 276.498 171.953 266.429 168.917 256.406C173.166 256.513 177.457 256.657 181.785 256.841C185.872 266.715 190.65 276.638 196.199 286.563H179.662ZM161.865 148.992C161.864 150.224 161.87 151.46 161.884 152.701C165.146 152.8 168.435 152.94 171.748 153.122C171.728 151.812 171.719 150.506 171.719 149.205C168.409 149.113 165.124 149.042 161.865 148.992ZM161.899 153.825C161.935 156.206 161.999 158.603 162.094 161.015C165.377 161.157 168.686 161.354 172.021 161.611C171.899 159.141 171.815 156.686 171.767 154.248C168.453 154.064 165.162 153.924 161.899 153.825ZM162.141 162.141C162.283 165.427 162.482 168.741 162.742 172.079C166.078 172.259 169.442 172.508 172.831 172.831C172.508 169.442 172.259 166.078 172.079 162.742C168.741 162.482 165.427 162.283 162.141 162.141ZM162.832 173.208C163.374 179.849 164.157 186.588 165.211 193.406C168.728 193.618 172.276 193.901 175.852 194.262C174.569 187.412 173.611 180.642 172.943 173.97C169.546 173.642 166.175 173.39 162.832 173.208ZM165.389 194.541C166.837 203.663 168.772 212.924 171.266 222.283C175.202 222.523 179.175 222.83 183.179 223.209C180.17 213.833 177.829 204.553 176.071 195.412C172.481 195.045 168.919 194.757 165.389 194.541ZM171.573 223.427C174.466 234.098 178.09 244.894 182.55 255.75C187.209 255.953 191.91 256.201 196.648 256.5C191.342 245.711 187.02 234.981 183.556 224.373C179.528 223.986 175.533 223.672 171.573 223.427ZM183.023 256.895C187.125 266.751 191.919 276.657 197.486 286.563H214.007C207.572 276.913 202.006 267.264 197.223 257.661C192.451 257.356 187.715 257.102 183.023 256.895ZM171.772 144.154H161.909C161.888 145.388 161.874 146.626 161.868 147.869C165.127 147.919 168.412 147.99 171.722 148.082C171.729 146.768 171.745 145.458 171.772 144.154ZM172.894 144.154C172.867 145.469 172.851 146.789 172.844 148.114C179.447 148.308 186.146 148.588 192.924 148.965C192.925 147.354 192.94 145.75 192.968 144.154H172.894ZM172.871 153.186C172.851 151.865 172.841 150.549 172.841 149.237C179.445 149.431 186.146 149.712 192.926 150.09C192.932 151.679 192.952 153.277 192.986 154.881C186.197 154.128 179.486 153.57 172.871 153.186ZM173.149 161.701C173.025 159.222 172.94 156.758 172.891 154.312C179.509 154.697 186.222 155.257 193.013 156.013C193.081 158.678 193.189 161.362 193.34 164.065C186.524 163.017 179.788 162.239 173.149 161.701ZM173.97 172.943C173.642 169.546 173.39 166.175 173.208 162.832C179.849 163.374 186.588 164.157 193.406 165.211C193.618 168.728 193.901 172.276 194.262 175.852C187.412 174.569 180.642 173.611 173.97 172.943ZM177.017 194.382C175.723 187.53 174.757 180.757 174.082 174.082C180.757 174.757 187.53 175.723 194.382 177.017C195.086 183.702 196.062 190.483 197.342 197.342C190.483 196.062 183.702 195.086 177.017 194.382ZM184.397 223.327C181.367 213.952 179.01 204.673 177.238 195.534C183.924 196.248 190.706 197.234 197.566 198.526C199.289 207.526 201.539 216.659 204.39 225.883C197.651 224.819 190.982 223.974 184.397 223.327ZM197.941 256.583C192.607 245.807 188.261 235.089 184.777 224.493C191.36 225.149 198.027 226.004 204.763 227.079C207.98 237.312 211.94 247.657 216.746 258.058C210.424 257.475 204.151 256.986 197.941 256.583ZM215.357 286.563C208.904 276.941 203.321 267.321 198.52 257.745C204.721 258.153 210.983 258.648 217.293 259.237C221.541 268.315 226.436 277.436 232.044 286.563H215.357ZM194.049 150.153C194.055 151.764 194.076 153.382 194.112 155.008C203.202 156.044 212.43 157.432 221.752 159.225C221.688 156.89 221.647 154.569 221.627 152.263C212.323 151.367 203.116 150.673 194.049 150.153ZM194.139 156.14C194.209 158.821 194.32 161.522 194.474 164.241C203.594 165.681 212.855 167.605 222.213 170.085C222.026 166.823 221.884 163.585 221.786 160.374C212.461 158.575 203.231 157.181 194.139 156.14ZM194.542 165.388C194.757 168.919 195.045 172.481 195.412 176.071C204.553 177.829 213.833 180.17 223.209 183.179C222.83 179.175 222.523 175.202 222.283 171.266C212.924 168.771 203.663 166.837 194.542 165.388ZM195.534 177.238C196.248 183.924 197.234 190.706 198.526 197.566C207.526 199.289 216.659 201.539 225.883 204.39C224.819 197.651 223.974 190.982 223.327 184.397C213.952 181.367 204.673 179.01 195.534 177.238ZM198.753 198.753C200.491 207.744 202.757 216.867 205.627 226.081C214.079 227.448 222.637 229.162 231.268 231.268C229.162 222.637 227.448 214.079 226.081 205.627C216.867 202.757 207.744 200.491 198.753 198.753ZM206.003 227.28C209.238 237.487 213.216 247.805 218.039 258.179C225.276 258.862 232.576 259.669 239.919 260.614C236.643 251.185 233.879 241.8 231.571 232.498C222.965 230.382 214.432 228.657 206.003 227.28ZM218.591 259.359C222.848 268.398 227.749 277.478 233.363 286.563H250.237C246.519 278.294 243.231 270.031 240.334 261.799C233.038 260.854 225.784 260.045 218.591 259.359ZM221.646 144.154H194.091C194.062 145.771 194.047 147.396 194.047 149.029C203.112 149.547 212.316 150.24 221.619 151.135C221.606 148.792 221.615 146.464 221.646 144.154ZM222.768 144.154C222.737 146.5 222.728 148.864 222.742 151.244C233.409 152.287 244.203 153.595 255.059 155.208C255.032 151.484 255.031 147.798 255.054 144.154H222.768ZM222.881 159.444C222.815 157.072 222.771 154.714 222.751 152.372C233.419 153.418 244.212 154.728 255.069 156.344C255.101 159.993 255.16 163.678 255.246 167.397C244.378 164.159 233.569 161.535 222.881 159.444ZM223.356 170.391C223.163 167.099 223.017 163.833 222.916 160.594C233.602 162.693 244.41 165.328 255.274 168.577C255.379 172.783 255.519 177.031 255.698 181.315C244.834 176.876 234.032 173.27 223.356 170.391ZM224.373 183.556C223.986 179.528 223.672 175.533 223.427 171.573C234.098 174.466 244.894 178.09 255.75 182.55C255.953 187.209 256.201 191.91 256.5 196.648C245.711 191.342 234.981 187.02 224.373 183.556ZM227.079 204.763C226.004 198.027 225.149 191.36 224.493 184.777C235.089 188.261 245.807 192.607 256.583 197.941C256.986 204.151 257.475 210.424 258.058 216.746C247.657 211.94 237.312 207.98 227.079 204.763ZM232.498 231.571C230.382 222.965 228.657 214.432 227.28 206.003C237.487 209.238 247.805 213.215 258.179 218.039C258.862 225.276 259.669 232.576 260.614 239.919C251.185 236.643 241.8 233.879 232.498 231.571ZM241.164 260.775C237.887 251.396 235.118 242.059 232.804 232.804C242.059 235.118 251.396 237.887 260.775 241.164C261.776 248.819 262.927 256.519 264.242 264.242C256.519 262.927 248.819 261.776 241.164 260.775ZM251.468 286.563C247.76 278.35 244.476 270.141 241.582 261.962C249.166 262.961 256.793 264.107 264.443 265.415C265.656 272.452 267.007 279.507 268.505 286.563H251.468ZM256.193 156.512C256.227 160.217 256.287 163.96 256.377 167.736C266.357 170.746 276.384 174.276 286.408 178.385V161.865C276.318 159.799 266.23 158.025 256.193 156.512ZM256.406 168.917C256.513 173.166 256.657 177.457 256.841 181.785C266.663 185.851 276.534 190.6 286.408 196.112V179.598C276.395 175.477 266.377 171.937 256.406 168.917ZM256.895 183.023C257.102 187.715 257.356 192.451 257.661 197.223C267.213 201.981 276.809 207.512 286.408 213.903V197.399C276.553 191.869 266.7 187.103 256.895 183.023ZM257.745 198.52C258.153 204.721 258.648 210.983 259.237 217.293C268.264 221.517 277.333 226.38 286.408 231.949V215.253C276.838 208.844 267.27 203.295 257.745 198.52ZM259.359 218.591C260.045 225.784 260.854 233.038 261.799 240.334C269.979 243.213 278.191 246.478 286.408 250.167V233.267C277.374 227.693 268.346 222.824 259.359 218.591ZM261.962 241.582C262.961 249.166 264.107 256.793 265.415 264.443C272.4 265.647 279.404 266.987 286.408 268.472V251.398C278.246 247.718 270.089 244.458 261.962 241.582ZM265.617 265.617C266.824 272.587 268.166 279.575 269.653 286.563H286.408V269.62C279.471 268.146 272.536 266.815 265.617 265.617ZM286.408 144.154H256.177C256.153 147.853 256.154 151.595 256.183 155.375C266.222 156.885 276.314 158.656 286.408 160.719V144.154ZM90.155 150.96C81.7666 151.539 73.8138 152.208 66.3645 152.925C66.3381 155.473 66.2852 158.04 66.2043 160.624C73.7313 159.174 81.7701 157.822 90.2502 156.653C91.4442 156.488 92.6469 156.327 93.8581 156.17C93.9063 154.339 93.9354 152.518 93.9463 150.706C92.673 150.789 91.4091 150.873 90.155 150.96ZM65.2408 153.034C52.9713 154.231 42.0961 155.554 32.9248 156.811C32.8884 160.636 32.8235 164.499 32.7278 168.398C41.9129 165.885 52.7989 163.239 65.0743 160.843C65.1582 158.221 65.2132 155.618 65.2408 153.034ZM2.06769 161.779C1.76336 161.838 1.50042 161.89 1.27964 161.933V178.53C1.4278 178.473 1.58965 178.41 1.76503 178.342C2.86063 177.919 4.48442 177.308 6.60089 176.551C10.8338 175.037 17.0377 172.942 24.9285 170.615C27.0332 169.994 29.2579 169.356 31.5972 168.709C31.696 164.757 31.763 160.842 31.8007 156.966C29.4453 157.293 27.2068 157.614 25.0905 157.927C17.2387 159.088 11.0704 160.133 6.86602 160.887C4.76386 161.265 3.15272 161.569 2.06769 161.779ZM115.156 149.591C108.239 149.871 101.534 150.224 95.0691 150.634C95.0588 152.422 95.0309 154.219 94.9846 156.025C101.463 155.202 108.183 154.491 115.114 153.928C115.141 152.476 115.155 151.031 115.156 149.591ZM116.238 153.838C116.264 152.402 116.277 150.971 116.279 149.547C119.519 149.42 122.804 149.31 126.133 149.218C126.133 150.532 126.125 151.85 126.108 153.174C122.774 153.36 119.483 153.583 116.238 153.838ZM127.231 153.113C127.248 151.8 127.256 150.491 127.255 149.187C129.603 149.126 131.971 149.073 134.359 149.03C134.361 150.28 134.357 151.535 134.347 152.794C131.955 152.882 129.583 152.988 127.231 153.113ZM135.47 152.755C135.479 151.502 135.483 150.254 135.482 149.011C136.684 148.991 137.891 148.973 139.103 148.958C139.103 150.184 139.101 151.414 139.096 152.648C137.882 152.679 136.673 152.714 135.47 152.755ZM140.219 152.621C140.223 151.392 140.226 150.166 140.225 148.945C141.427 148.932 142.633 148.921 143.844 148.913V152.555C142.631 152.572 141.422 152.594 140.219 152.621ZM115.091 155.056C108.156 155.621 101.434 156.335 94.9531 157.161C94.87 159.945 94.7429 162.751 94.5693 165.576C101.077 164.439 107.83 163.458 114.798 162.682C114.936 160.123 115.033 157.581 115.091 155.056ZM66.1664 161.774C73.7468 160.31 81.85 158.944 90.4035 157.765C91.5365 157.609 92.6773 157.456 93.8259 157.306C93.7403 160.109 93.61 162.933 93.4323 165.776C92.2845 165.981 91.1444 166.19 90.0123 166.404C81.4192 168.026 73.2823 169.907 65.674 171.922C65.8877 168.512 66.0508 165.129 66.1664 161.774ZM32.6982 169.57C41.8641 167.054 52.7485 164.399 65.0356 161.994C64.9166 165.377 64.7491 168.789 64.5299 172.228C52.2609 175.522 41.3958 179.157 32.2452 182.602C32.436 178.219 32.586 173.873 32.6982 169.57ZM1.27964 179.736C1.51993 179.642 1.81686 179.525 2.16921 179.389C3.25651 178.97 4.87157 178.361 6.97892 177.608C11.1937 176.1 17.3773 174.012 25.2461 171.691C27.2458 171.101 29.3544 170.497 31.567 169.883C31.4518 174.225 31.2981 178.611 31.1026 183.035C28.8958 183.875 26.7927 184.703 24.7979 185.51C16.9263 188.694 10.7399 191.561 6.51956 193.633C4.40933 194.669 2.7905 195.506 1.69817 196.085C1.54878 196.164 1.40924 196.238 1.27964 196.307V179.736ZM140.213 153.744C141.419 153.717 142.629 153.695 143.844 153.678V160.792C142.605 160.814 141.372 160.844 140.143 160.881C140.177 158.487 140.201 156.108 140.213 153.744ZM135.459 153.878C136.665 153.838 137.875 153.802 139.09 153.771C139.078 156.138 139.054 158.52 139.02 160.917C137.782 160.959 136.548 161.009 135.32 161.065C135.388 158.654 135.434 156.259 135.459 153.878ZM127.215 154.238C129.568 154.113 131.942 154.006 134.336 153.918C134.311 156.303 134.265 158.703 134.196 161.118C131.778 161.238 129.381 161.385 127.005 161.558C127.106 159.102 127.175 156.662 127.215 154.238ZM126.092 154.3C126.051 156.731 125.98 159.179 125.878 161.642C122.517 161.898 119.199 162.205 115.929 162.558C116.064 160.01 116.159 157.479 116.215 154.966C119.463 154.709 122.756 154.486 126.092 154.3ZM90.2205 167.507C81.5185 169.15 73.2856 171.059 65.5979 173.104C65.3296 177.169 64.9889 181.27 64.5702 185.405C72.4883 182.87 80.9904 180.504 89.993 178.476C90.7872 178.297 91.5852 178.121 92.3871 177.947C92.7925 174.245 93.1141 170.571 93.3577 166.93C92.3054 167.118 91.2596 167.311 90.2205 167.507ZM64.4525 173.411C52.1726 176.723 41.3133 180.373 32.1911 183.822C31.9768 188.565 31.7144 193.35 31.4 198.173C40.4477 194.077 51.219 189.736 63.4035 185.781C63.8305 181.623 64.1782 177.498 64.4525 173.411ZM2.22375 197.076C1.84374 197.278 1.52853 197.447 1.27964 197.583V214.137C1.39866 214.061 1.52581 213.981 1.66103 213.895C2.75358 213.204 4.37267 212.205 6.48322 210.969C10.7042 208.497 16.8915 205.076 24.7644 201.276C26.508 200.434 28.3343 199.574 30.2404 198.701C30.561 193.847 30.8287 189.03 31.0476 184.257C29.0135 185.035 27.0694 185.801 25.2189 186.55C17.3747 189.724 11.213 192.579 7.01422 194.64C4.91487 195.671 3.30636 196.503 2.22375 197.076ZM143.844 161.915C142.6 161.937 141.361 161.967 140.127 162.005C140.076 165.275 140.004 168.572 139.911 171.893C141.216 171.845 142.527 171.807 143.844 171.778V161.915ZM139.003 162.041C137.759 162.083 136.52 162.133 135.287 162.19C135.185 165.477 135.041 168.791 134.854 172.13C136.159 172.056 137.47 171.992 138.786 171.937C138.88 168.613 138.952 165.313 139.003 162.041ZM134.162 162.244C131.739 162.365 129.337 162.513 126.956 162.687C126.807 166.015 126.599 169.37 126.329 172.751C128.772 172.533 131.238 172.347 133.726 172.196C133.915 168.853 134.059 165.535 134.162 162.244ZM125.829 162.771C122.463 163.029 119.141 163.338 115.866 163.693C115.669 167.101 115.399 170.536 115.052 173.998C118.385 173.559 121.767 173.175 125.195 172.855C125.467 169.467 125.677 166.105 125.829 162.771ZM113.909 174.152C114.261 170.68 114.534 167.235 114.734 163.818C107.762 164.599 101.005 165.586 94.496 166.728C94.2573 170.354 93.9415 174.013 93.5432 177.7C100.09 176.311 106.889 175.108 113.909 174.152ZM113.789 175.301C106.764 176.265 99.9621 177.477 93.4135 178.875C92.6654 185.517 91.6481 192.251 90.3291 199.061C96.8833 197.706 103.703 196.518 110.756 195.557C112.082 188.721 113.081 181.963 113.789 175.301ZM64.4446 186.624C72.4659 184.042 81.0937 181.631 90.2397 179.571C90.9089 179.42 91.5808 179.271 92.2555 179.124C91.4975 185.767 90.4688 192.501 89.1368 199.31C79.392 201.364 70.2431 203.784 61.7961 206.368C62.8871 199.717 63.7627 193.13 64.4446 186.624ZM31.316 199.444C40.3259 195.343 51.0848 190.982 63.2758 187.003C62.5848 193.506 61.6992 200.09 60.5974 206.737C48.8532 210.379 38.4971 214.325 29.8204 218.021C30.409 211.778 30.9048 205.581 31.316 199.444ZM1.27964 215.472C1.53401 215.307 1.86168 215.096 2.26088 214.844C3.34327 214.16 4.95152 213.167 7.05054 211.938C11.2487 209.479 17.4094 206.073 25.2523 202.287C26.8202 201.53 28.4551 200.758 30.155 199.976C29.7391 206.104 29.2385 212.291 28.6451 218.525C27.2867 219.11 25.9713 219.688 24.7001 220.257C16.8497 223.772 10.6824 226.936 6.47585 229.222C4.37252 230.365 2.75926 231.289 1.67074 231.928C1.5318 232.009 1.40141 232.086 1.27964 232.158V215.472ZM139.878 173.018C141.195 172.969 142.516 172.93 143.844 172.901V192.974C142.228 193.005 140.621 193.05 139.022 193.108C139.402 186.326 139.683 179.623 139.878 173.018ZM134.789 173.257C136.105 173.182 137.426 173.117 138.754 173.062C138.558 179.668 138.276 186.37 137.896 193.151C136.279 193.217 134.671 193.296 133.072 193.389C133.833 186.594 134.398 179.878 134.789 173.257ZM126.236 173.886C128.688 173.666 131.163 173.478 133.661 173.324C133.267 179.946 132.699 186.662 131.935 193.457C129.202 193.626 126.496 193.833 123.819 194.075C124.885 187.261 125.681 180.525 126.236 173.886ZM125.101 173.991C124.541 180.631 123.739 187.367 122.666 194.182C119.033 194.526 115.452 194.934 111.93 195.399C113.244 188.564 114.234 181.807 114.934 175.146C118.275 174.702 121.665 174.315 125.101 173.991ZM88.8996 200.507C79.1596 202.577 70.0209 205.01 61.5907 207.605C60.2015 215.881 58.4774 224.256 56.3768 232.7C64.2495 230.827 72.8016 229.036 81.9369 227.461C84.8229 218.377 87.1197 209.38 88.8996 200.507ZM60.3894 207.977C48.6554 211.639 38.3265 215.598 29.6992 219.294C29.0152 226.402 28.2105 233.57 27.2727 240.779C35.1264 238.27 44.4989 235.562 55.1461 232.995C57.2559 224.578 58.9899 216.229 60.3894 207.977ZM2.23888 232.896C1.85068 233.124 1.5304 233.314 1.27964 233.465V250.319C1.41904 250.259 1.57036 250.194 1.73347 250.124C2.82141 249.657 4.434 248.982 6.53657 248.146C10.7417 246.475 16.9069 244.162 24.7548 241.593C25.195 241.449 25.6404 241.304 26.0911 241.158C27.0293 233.993 27.8358 226.868 28.5224 219.801C27.3691 220.3 26.2477 220.794 25.1588 221.282C17.3373 224.783 11.196 227.934 7.01191 230.208C4.91992 231.345 3.31735 232.263 2.23888 232.896ZM143.844 194.097C142.207 194.128 140.578 194.174 138.958 194.233C138.438 203.301 137.742 212.508 136.844 221.812C139.16 221.737 141.493 221.683 143.844 221.65V194.097ZM137.832 194.277C136.193 194.344 134.563 194.425 132.943 194.52C131.897 203.612 130.498 212.84 128.694 222.163C131.013 222.039 133.354 221.934 135.713 221.851C136.612 212.548 137.309 203.343 137.832 194.277ZM131.805 194.589C129.055 194.761 126.332 194.972 123.638 195.219C122.176 204.323 120.229 213.567 117.728 222.907C120.954 222.642 124.225 222.415 127.538 222.227C129.349 212.906 130.754 203.679 131.805 194.589ZM122.483 195.327C118.834 195.676 115.24 196.09 111.703 196.562C109.907 205.657 107.532 214.888 104.494 224.213C108.432 223.758 112.449 223.353 116.539 223.006C119.054 213.669 121.012 204.429 122.483 195.327ZM103.266 224.357C106.324 215.038 108.716 205.812 110.527 196.721C103.47 197.692 96.6488 198.89 90.0947 200.256C88.3299 209.14 86.0496 218.15 83.182 227.248C85.3629 226.879 87.5764 226.523 89.8213 226.18C94.1871 225.514 98.6717 224.902 103.266 224.357ZM102.876 225.534C98.4772 226.062 94.1792 226.651 89.9905 227.29C87.5559 227.661 85.1583 228.049 82.7993 228.452C79.5869 238.471 75.6596 248.594 70.9215 258.771C76.9084 258.207 83.1945 257.678 89.7472 257.206C95.0464 246.573 99.3826 235.996 102.876 225.534ZM56.0689 233.927C63.9108 232.05 72.4369 230.252 81.5504 228.667C78.3221 238.657 74.3787 248.75 69.6247 258.895C61.8226 259.643 54.54 260.45 47.8499 261.269C51.0577 252.103 53.7803 242.977 56.0689 233.927ZM27.1114 242.009C34.9035 239.507 44.2268 236.799 54.8351 234.225C52.5408 243.227 49.8148 252.306 46.6064 261.423C38.4174 262.439 31.1434 263.469 24.9232 264.423C24.5083 264.487 24.098 264.55 23.6925 264.613C24.9857 257.05 26.1208 249.508 27.1114 242.009ZM1.27964 251.544C1.52043 251.438 1.81968 251.308 2.17613 251.155C3.25519 250.692 4.85842 250.021 6.95117 249.189C11.1367 247.526 17.2801 245.221 25.1041 242.66C25.3768 242.57 25.6516 242.481 25.9284 242.391C24.9399 249.825 23.8089 257.3 22.5223 264.796C15.7937 265.853 10.4403 266.798 6.66414 267.501C4.55664 267.894 2.94036 268.211 1.85036 268.43C1.64054 268.472 1.45021 268.51 1.27964 268.545V251.544ZM136.735 222.939C139.086 222.862 141.456 222.806 143.844 222.772V255.056C140.107 255.082 136.414 255.133 132.768 255.208C134.381 244.368 135.69 233.591 136.735 222.939ZM128.472 223.299C130.828 223.171 133.206 223.063 135.603 222.978C134.556 233.625 133.245 244.398 131.63 255.233C127.87 255.315 124.163 255.422 120.51 255.552C123.747 244.723 126.375 233.951 128.472 223.299ZM117.417 224.059C120.671 223.789 123.972 223.556 127.315 223.364C125.21 234.009 122.573 244.774 119.325 255.595C114.965 255.755 110.684 255.948 106.491 256.166C110.92 245.383 114.528 234.66 117.417 224.059ZM116.225 224.159C113.322 234.75 109.698 245.461 105.249 256.232C100.393 256.493 95.6551 256.789 91.0469 257.114C96.3209 246.462 100.635 235.867 104.108 225.388C108.069 224.925 112.11 224.513 116.225 224.159ZM69.0676 260.076C61.3118 260.826 54.0761 261.633 47.4336 262.451C44.5931 270.467 41.3802 278.513 37.7607 286.563H54.6352C60.1001 277.718 64.89 268.878 69.0676 260.076ZM25.0935 265.533C24.5515 265.616 24.0175 265.698 23.4917 265.78C22.2947 272.696 20.9651 279.629 19.4924 286.563H36.5295C40.1408 278.565 43.3488 270.571 46.1874 262.606C38.2369 263.598 31.1624 264.601 25.0935 265.533ZM2.07156 269.53C1.76544 269.592 1.5012 269.645 1.27964 269.691V286.563H18.3448C19.8075 279.691 21.1294 272.819 22.3205 265.964C15.7794 266.995 10.5656 267.917 6.86963 268.605C4.76756 268.996 3.15651 269.312 2.07156 269.53ZM89.1614 258.374C82.6172 258.851 76.3421 259.383 70.3686 259.951C66.1989 268.794 61.4149 277.675 55.9537 286.563H72.6406C78.9527 277.152 84.4323 267.742 89.1614 258.374ZM73.9911 286.563C80.2879 277.12 85.752 267.679 90.4656 258.28C95.1054 257.95 99.8777 257.648 104.771 257.382C100.715 267.078 95.9873 276.82 90.512 286.563H73.9911ZM91.7989 286.563C97.2592 276.797 101.973 267.032 106.016 257.315C110.251 257.092 114.575 256.895 118.982 256.731C115.968 266.646 112.439 276.607 108.336 286.563H91.7989ZM109.549 286.563C113.643 276.591 117.163 266.616 120.168 256.687C123.877 256.554 127.642 256.444 131.461 256.359C129.946 266.393 128.17 276.477 126.101 286.563H109.549ZM127.247 286.563C129.313 276.468 131.087 266.375 132.599 256.335C136.3 256.258 140.049 256.205 143.844 256.179V286.563H127.247Z" fill="#2704FF"/>
</svg>
