<svg width="1138" height="22" viewBox="0 0 1138 22" fill="none" xmlns="http://www.w3.org/2000/svg">
<path d="M1 11C16.7778 -2.33333 32.5556 -2.33333 48.3333 11C64.1111 24.3333 79.8889 24.3333 95.6667 11C111.444 -2.33333 127.222 -2.33333 143 11C158.778 24.3333 174.556 24.3333 190.333 11C206.111 -2.33333 221.889 -2.33333 237.667 11C253.444 24.3333 269.222 24.3333 285 11C300.778 -2.33333 316.556 -2.33333 332.333 11C348.111 24.3333 363.889 24.3333 379.667 11C395.444 -2.33333 411.222 -2.33333 427 11C442.778 24.3333 458.556 24.3333 474.333 11C490.111 -2.33333 505.889 -2.33333 521.667 11C537.444 24.3333 553.222 24.3333 569 11C584.778 -2.33333 600.556 -2.33333 616.333 11C632.111 24.3333 647.889 24.3333 663.667 11C679.444 -2.33333 695.222 -2.33333 711 11C726.778 24.3333 742.556 24.3333 758.333 11C774.111 -2.33333 789.889 -2.33333 805.667 11C821.444 24.3333 837.222 24.3333 853 11C868.778 -2.33333 884.556 -2.33333 900.333 11C916.111 24.3333 931.889 24.3333 947.667 11C963.444 -2.33333 979.222 -2.33333 995 11C1010.78 24.3333 1026.56 24.3333 1042.33 11C1058.11 -2.33333 1073.89 -2.33333 1089.67 11C1105.44 24.3333 1121.22 24.3333 1137 11" stroke="#4D4F5F"/>
</svg>
